<svg xmlns="http://www.w3.org/2000/svg" viewBox="0 -189 1008 1008"><path fill="currentColor" d="M0 966V336h924v630c0 23-18 42-42 42H42c-24 0-42-19-42-42zm0-714V126c0-24 18-42 42-42h126V0h84v84h420V0h84v84h126c24 0 42 18 42 42v126H0zm84 672h84v-84H84v84zm0-168h84v-84H84v84zm0-168h84v-84H84v84zm168 336h84v-84h-84v84zm0-168h84v-84h-84v84zm0-168h84v-84h-84v84zm168 336h84v-84h-84v84zm0-168h84v-84h-84v84zm0-168h84v-84h-84v84zm168 336h84v-84h-84v84zm0-168h84v-84h-84v84zm0-168h84v-84h-84v84zm168 336h84v-84h-84v84zm0-168h84v-84h-84v84zm0-168h84v-84h-84v84z"/></svg>
