<svg xmlns="http://www.w3.org/2000/svg" viewBox="0 0 271.07 188.27" overflow="visible"><style>.st0{fill:#fff}</style><path class="st0" d="M130.22 66.89c12.11 2.02 23.22 3.88 34.72 5.8v115.58h-59.81c0-5.66-.5-11.31.1-16.85 1.28-11.71-2.87-21.53-8.61-31.39-13.19-22.66-23.65-46.42-28.63-72.47-2.13-11.15-6.42-21.9-9.74-32.84 8.23-2.61 18.3 1.35 24.17 10.51 3.68 5.73 6.35 12.25 10.7 17.38 7.93 9.35 16.67 18.01 25.28 26.76 2.29 2.33 5.21 4.48 8.93 2.7 3.7-1.77 2.82-5.29 2.86-8.36.08-5.3.03-10.6.03-16.82zM153.43 34.83C113.52 28.07 73.61 21.32 33.7 14.56l-.03-1.3C55.15 8.84 76.57 4.13 98.14.25c4.37-.79 10.2.28 13.83 2.74 14.3 9.67 27.99 20.23 41.91 30.46l-.45 1.38z"/><path class="st0" d="M89.2 35.1c7.3 1.2 13.78 2.25 20.24 3.34 30.96 5.24 46.16 8.02 77.15 13.03 4.95.8 5.17 3.58 4.35 6.95-.8 3.29-.34 7.76-6.67 6.66-31.1-5.42-46.5-8.07-77.7-12.84-6.71-1.03-10.91-3.59-13.18-9.87-.82-2.28-2.42-4.27-4.19-7.27zM51.63 53.33c.89 1.3 2.16 2.48 2.58 3.91 1.45 4.93 2.49 9.97 3.89 14.91 3.18 11.32 6.63 22.56 9.63 33.93.8 3.04.4 6.4.56 9.61-.69.15-1.38.31-2.08.46-4.13-6.3-8.04-12.75-12.43-18.86-5.11-7.12-8.43-14.23-6.02-23.49 1.66-6.35 1.63-13.13 2.36-19.72.5-.25 1-.5 1.51-.75zM0 27.13c14.48-7.8 28.98-1.74 42.61.04 1.7 5.23 3.19 9.8 4.87 14.93C31.31 38.14 13.42 40.25 0 27.13zM106.7 64.07c12.13-1.16 13.64.35 12.41 10.1-3.72-3.03-7.65-6.23-12.41-10.1zM241.84 98.65c-1.28-1.65-2.6-3.28-3.81-4.98-1.46-2.05-1.1-4.1.75-5.56 1.88-1.49 4.02-1.26 5.57.65 2.63 3.24 5.18 6.56 7.63 9.94 1.42 1.96 1.22 3.99-.76 5.53s-3.95 1.18-5.55-.63c-1.36-1.56-2.55-3.29-3.83-4.95zM252.18 70.9c-2.17-2.9-.65-6.77 2.46-6.6 4.73.26 9.49.99 14.09 2.1 1.12.27 2.42 2.81 2.33 4.22-.07 1.11-2.18 3.03-3.32 2.98-4.62-.2-9.23-.98-13.82-1.67-.75-.12-1.42-.84-1.74-1.03zM217.99 94.58c1.99 2.7.04 17.58-2.07 18.65-1.16.59-3.04.77-4.1.2-1.05-.55-2.14-2.32-2.07-3.48.29-4.41.84-8.84 1.74-13.16.25-1.21 1.88-2.59 3.16-2.98 1.13-.34 2.65.59 3.34.77zM229.16 15.15c.12.35.68 1.17.6 1.93-.49 4.49-.9 9.02-1.87 13.42-.25 1.15-2.57 2.77-3.63 2.57-1.41-.27-3.61-2.15-3.57-3.27.15-4.73.69-9.52 1.73-14.14.66-2.94 4.51-3.27 6.74-.51zM254.8 41.95c-1.66 1.27-3.15 3.05-5.02 3.65-1.52.49-4.27.17-5.06-.87s-.5-4.11.5-5.07a57.43 57.43 0 0 1 10.21-7.81c1.22-.73 4.01-.37 5.13.6 1.71 1.48 1.43 3.84-.5 5.46-1.69 1.42-3.49 2.71-5.24 4.05-.01 0-.02 0-.02-.01zM199.84 68.09c.7-4.94 1.32-9.29 1.98-13.94 1.26.13 2.63.56 3.89.33 1.69-.31 3.67-.7 4.87-1.79 6.63-6.05 16.12-5.78 22.47.88 5.38 5.64 4.93 16.08-.91 21.38-6.86 6.23-16.67 5.99-22.22-1.18-2.68-3.44-5.21-6.04-10.08-5.68z"/></svg>
