<svg xmlns="http://www.w3.org/2000/svg" viewBox="0 -168 1008 1008"><path fill="currentColor" d="M167 86h674c47 0 82 35 82 82v674c0 47-35 82-82 82H167c-47 0-82-35-82-82V168c0-47 35-82 82-82zm337 252c-95 0-165 72-165 167 0 94 71 165 165 165 95 0 165-71 165-165 0-95-70-167-165-167zM189 842h630c14-2 20-8 22-22V464h-89c2 13 4 27 4 41-2 142-110 252-252 252S254 647 252 505c0-14 2-28 4-41h-89v356c2 14 8 20 22 22zm652-567v-85c-2-14-8-20-22-22h-85c-11 2-17 8-19 22v85c2 11 8 17 19 19h85c14-2 20-8 22-19z"/></svg>
