<svg xmlns="http://www.w3.org/2000/svg" viewBox="0 0 41.55 28" overflow="visible"><path d="M7.49 16.29c-1.71-1-4.13-2.99-5.47-4.75-.4-2.23 3.19-6.69 5.19-7.47.2.01 2.01.51 3.09 1.03.69-.67 1.9-1.35 1.9-1.35-3.62-1.59-5.03-1.71-5.37-1.64-.05 0-.1.02-.14.03C3.7 3.13-.83 8.84.13 12.25c.03.12.09.23.16.32 1.54 2.07 3.68 3.98 5.69 5.16l1.51-1.44zm9.29 6.68c-.42-.3-.93-.36-1.39-.22a1.621 1.621 0 0 0-1.79-2.55 1.622 1.622 0 0 0-2.74-1.69l-.23.28c0-.38-.13-.77-.4-1.08-.6-.67-1.62-.73-2.29-.13L6.5 18.87a1.62 1.62 0 1 0 1.08 2.83c.38 0 .84 1.15 1.49 1.67.3.24.66.35 1.01.35.32 0 1.02.83 1.48 1.2.3.24.66.36 1.02.36.37 0 1.16.87 1.69 1.25.28.2.61.3.93.3.51 0 1.01-.24 1.33-.69l.64-.9c.52-.74.35-1.75-.39-2.27zM30.89 2.68c-.59.37-2.57 1.19-3.77 1.48-.95.23-5.91-1.8-6.8-1.94-.89-.14-7.97 2.53-8.53 3.63-.56 1.1 2.22 3.04 4.67 2.52 2.44-.53 3.11-1.15 3.72-.73.61.42 7.97 7.26 11.66 9.23 2.37 1.26 5.43-4.94 6.21-5.96-.6-2.69-2.78-7.8-7.16-8.23zm1.44 15.12c-.31.28-.34.75-.06 1.06.29.33.25.97.01 1.25-.14.17-.53.35-.92.37-.14 0-.4-.01-.59-.18-.02-.02-.03-.03-.04-.05l-8.84-7.52a.756.756 0 0 0-.98 1.15l.06.05 8.77 7.46s.01.01.02.01c.03.03.07.09.07.25.01.44-.29 1.09-.68 1.48-.42.42-1.21.15-1.35.05l-7.77-7.05a.746.746 0 0 0-1.02 1.09v.01l.01.01 6.88 6.42c.24.25.04.94-.27 1.26-.31.39-1.14.18-1.29.07l-6.02-5.78h-.01a.746.746 0 0 0-1.03.01c-.29.29-.3.77-.01 1.06l4.48 4.53c.14.18.21.4.19.62-.02.23-.13.43-.31.57l-.12.11c-.36.32-.95.86-2.44-.39a.748.748 0 0 0-1.06.09c-.27.32-.23.79.09 1.06.9.75 1.74 1.13 2.54 1.13.68 0 1.33-.27 1.94-.83.35-.29.6-.66.74-1.08.35.34 1.03.57 1.7.57h.12c.69-.03 1.27-.3 1.61-.72.31-.31.55-.77.68-1.28.32.13.69.21 1.09.21.58 0 1.2-.18 1.69-.67.51-.51.98-1.35 1.08-2.21h.13c.78-.03 1.56-.39 2-.9.67-.79.82-2.27-.03-3.22a.756.756 0 0 0-1.06-.07zM34.73 0c-.73.48-2.56 1.52-2.56 1.52 2.83.38 6.63 3.43 7 8.38.75-.66 1.94-1.65 2.38-2.06C41.09 3.65 37.3.56 34.73 0z" fill="#565656"/></svg>
