<svg xmlns="http://www.w3.org/2000/svg" viewBox="0 0 97.37 92.78" overflow="visible"><path d="M89.8 18.39c-2.38-3.04-5.12-5.7-8.23-7.97C71.76 3.26 60.68.1 48.78 0c-8.25.09-16.08 1.52-23.5 4.88-5.98 2.71-11.33 6.3-15.75 11.19C3.78 22.42.35 29.76.03 38.42c-.33 8.87 2.75 16.59 8.31 23.31 3.94 4.77 8.81 8.48 14.38 11.25 4.94 2.46 10.13 4.12 15.55 5.14 1.82.34 3.64.81 5.37 1.46.62.24 1.26 1.13 1.38 1.82.24 1.38.24 2.82.13 4.22-.14 1.73-.57 3.44-.72 5.17-.13 1.53.39 2.09 1.9 1.97.96-.08 1.98-.44 2.83-.92 4.04-2.29 8.09-4.58 12.03-7.04 2.61-1.63 5.09-3.48 7.53-5.36 4.42-3.39 8.95-6.66 13.08-10.38 3.19-2.89 6.01-6.24 8.68-9.65 3.74-4.77 6.11-10.24 6.71-16.32.92-9.22-1.7-17.43-7.39-24.7zM28.35 50.68c-.39.15-.85.2-1.28.2-3.05.02-6.09.02-9.14 0-1.6-.01-2.86-1.26-2.86-2.86-.02-6.22-.05-12.45.05-18.67.02-.85.62-2.12 1.29-2.43.84-.38 2.2-.24 3.03.23.56.31.82 1.57.83 2.4.07 4.74.03 9.49.03 14.23 0 .55.06 1.11.1 1.85 2.39 0 4.68-.02 6.98.01 1.1.02 2.18.94 2.33 1.88.28 1.65-.16 2.7-1.36 3.16zm9.11-17.19v5.1c0 3 .01 6.01-.01 9.01 0 .43-.02.88-.12 1.29-.35 1.35-1.48 2.12-2.83 1.97-1.03-.11-2.32-1.38-2.32-2.45-.02-6.58-.02-13.15.03-19.73.01-1.4 1.19-2.34 2.64-2.33 1.39 0 2.49.98 2.56 2.44.1 1.56.05 3.13.05 4.7zm21.51 17.24c-1.24.43-2.33.09-3.11-1-1.25-1.73-2.45-3.48-3.71-5.19-1.85-2.49-3.74-4.95-5.85-7.75-.04.83-.08 1.27-.08 1.71-.01 3.13.01 6.27-.01 9.4-.01 1.82-1 2.97-2.55 3-1.63.03-2.69-1.13-2.69-3-.01-6.22-.02-12.45.01-18.67.01-1.9 1.1-3.03 2.77-2.83.66.08 1.46.48 1.86.99 3.15 4.14 6.22 8.35 9.31 12.53.04.06.14.09.52.32v-1.59c0-3.18-.02-6.35.02-9.53.02-1.74 1.05-2.78 2.62-2.76 1.59.02 2.61 1.05 2.62 2.78.02 6.31.02 12.62.01 18.94-.02 1.25-.54 2.23-1.74 2.65zm17.57.12c-3.44.08-6.87.07-10.31 0-1.23-.03-2.25-1.17-2.26-2.46-.03-6.48-.03-12.97 0-19.45.01-1.54 1.01-2.55 2.55-2.57 3.22-.05 6.44-.06 9.66.01 1.65.03 2.66 1.11 2.66 2.57.01 1.51-.97 2.52-2.67 2.6-1.61.08-3.22.01-4.83.03-.69.01-1.38.06-2.11.1V36c1.85 0 3.66-.03 5.47.02.8.02 1.62.11 2.39.33 1.27.36 1.87 1.37 1.72 2.61-.15 1.21-1.09 2.19-2.34 2.24-1.91.08-3.83.05-5.75.07-.47.01-.94.04-1.54.07 0 1.27-.07 2.44.05 3.59.03.27.7.66 1.09.68 1.65.08 3.31.02 4.96.03.43 0 .87.02 1.29.09 1.39.2 2.28 1.23 2.26 2.57 0 1.32-.95 2.52-2.29 2.55z" fill="#00b900"/></svg>
