<svg xmlns="http://www.w3.org/2000/svg" viewBox="-4 -189 882 1008"><path fill="currentColor" d="M756 477l2-2c0-143-144-259-321-259S116 332 116 475c0 128 115 234 268 256 38 6 33 22 26 73-2 8-8 32 25 18 34-14 184-109 252-185 46-52 69-102 69-160zm122-240v561c0 89-73 160-161 160H156C67 958-4 885-4 796V235c0-88 73-159 162-159h561c88 0 159 73 159 161zM561 403h91l-2 6c4 0 6 1 6 5v22c0 4-2 6-6 6h-61v24h61c4 0 6 2 6 6v21c0 4-2 6-6 6h-61v24h61c4 0 6 2 6 6v21c0 4-2 6-6 6h-91c-4 0-6-4-6-8V409c0-4 4-6 8-6zM254 517h61l4 4c4 0 6 2 6 6v21c0 4-2 6-6 6h-91c-2 0-4 0-6-2-1-2-1-4-1-6V407c0-4 1-6 5-6h22c4 0 6 2 6 6v110zm94-118h22c4 0 6 2 6 6v139c0 4-2 6-6 6h-22c-3 0-5-2-5-6V405c0-4 2-6 5-6zm188 4l-4 141c-1 4-2 6-6 6h-22c-2 0-4-2-4-4l-65-86v82c0 4-2 6-6 6h-21c-4 0-6-2-6-6V403c0-4 2-6 6-6h21c2 0 4 0 6 2l65 86v-82c0-4 2-6 6-6h22c4 0 8 2 8 6z"/></svg>
