<svg xmlns="http://www.w3.org/2000/svg" viewBox="0 0 28.04 28.05" overflow="visible"><style>.st0{fill:#fff}</style><path class="st0" d="M11.38 12.29c-.78.77-1.49 1.44-2.17 2.13-1.52 1.52-3.02 3.07-4.57 4.57-.83.81-.95 1.69-.6 2.74.47 1.38 1.88 2.44 3.3 2.44.6 0 1.1-.2 1.53-.63 2.16-2.17 4.34-4.34 6.51-6.51.1-.1.2-.19.35-.32.07.19.13.32.17.46.63 2.33.22 4.39-1.54 6.11-1.1 1.07-2.16 2.18-3.26 3.24-1.53 1.47-3.37 1.8-5.39 1.33-1.41-.33-2.64-1.01-3.62-2.05C.34 23.92-.39 21.71.23 19.15c.25-1.03.85-1.85 1.6-2.58 1.07-1.04 2.11-2.12 3.19-3.16 1.57-1.52 3.45-1.86 5.53-1.39.22.06.45.15.83.27zM16.77 15.65l.94-.97c1.94-1.94 3.87-3.87 5.81-5.8.61-.6.79-1.31.62-2.12-.35-1.66-1.69-2.85-3.37-2.96a1.9 1.9 0 0 0-1.52.56c-2.21 2.2-4.41 4.41-6.62 6.61-.09.09-.18.16-.31.28-.3-.64-.4-1.27-.44-1.91-.11-1.78.44-3.31 1.74-4.57 1.09-1.06 2.16-2.14 3.24-3.21C18.35.09 20.17-.26 22.13.15c2.43.5 4.22 1.92 5.22 4.18.98 2.2 1.04 4.43-.55 6.42-.71.9-1.59 1.66-2.41 2.48-.53.54-1.05 1.1-1.63 1.6-1.19 1.03-2.61 1.43-4.17 1.29-.61-.06-1.21-.22-1.81-.34 0-.04-.01-.08-.01-.13z"/><path class="st0" d="M8.35 17.9c-.03-.33.15-.63.42-.91 2.02-2.01 4.03-4.03 6.05-6.04.57-.57 1.18-1.12 1.71-1.73.76-.87 1.92-.45 2.39.22.54.79.47 1.42-.21 2.1-2.54 2.53-5.07 5.06-7.61 7.6-.57.57-.99.67-1.67.39-.64-.27-1.08-.9-1.08-1.63z"/></svg>
