<svg xmlns="http://www.w3.org/2000/svg" viewBox="0 -144 1008 1008"><path fill="currentColor" d="M933 375l-4-1c6-4 11-5 14-3 4 2 6 7 6 14v368c0 16-9 30-28 43-8 5-16 8-23 8H92c-11 0-22-6-33-17s-17-22-17-33V386c0-16 6-20 19-11 15 8 83 43 204 106s185 97 193 101 21 6 39 6 33-3 46-10c41-21 171-89 390-203zm-752-54l-5-2c-62-33-97-52-104-56s-14-11-20-21-8-20-5-29 11-14 25-14h853c14 0 22 5 25 14s1 19-5 29-12 17-18 20-23 12-50 27-58 32-93 51l-105 57c-83 45-129 70-137 75s-21 7-39 7-31-2-39-6-42-22-101-54-120-65-182-98z"/></svg>
