<svg xmlns="http://www.w3.org/2000/svg" viewBox="0 -189 1134 1008"><path fill="currentColor" d="M394 773V552c0-25-22-47-47-47-26 0-48 22-48 47v221c0 25 22 47 48 47 25 0 47-22 47-47zm441 0V552c0-25-22-47-47-47-26 0-48 22-48 47v221c0 25 22 47 48 47 25 0 47-22 47-47zm-221 0V552c0-25-21-47-47-47s-47 22-47 47v221c0 25 21 47 47 47s47-22 47-47zm520-347v32c0 25-22 47-47 47h-16l-51 360c-7 47-45 83-93 83H209c-48 0-86-36-93-83L65 505H49c-25 0-47-22-47-47v-32c0-25 22-47 47-47h132L392 90c20-28 59-34 86-14 28 19 34 59 14 86L337 377h462L644 162c-20-27-14-67 14-86 27-20 66-14 86 14l211 289h132c25 0 47 22 47 47z"/></svg>
