<svg xmlns="http://www.w3.org/2000/svg" viewBox="-2 -189 882 1008"><path fill="currentColor" d="M683 385l-6 6c26-18 48-42 65-67-23 10-49 18-75 20 28-16 48-42 58-71-26 13-54 23-83 29-24-25-57-41-95-41-78 0-143 71-126 157-106-6-200-57-263-135-12 19-18 41-18 64 0 38 25 85 57 107-22 0-41-6-59-16v2c0 63 45 114 104 126-20 6-37 6-57 2 16 51 63 89 120 91-43 35-98 55-159 55-10 0-20 0-30-2 57 37 126 59 199 59 238 0 368-197 368-368v-18zM95 64h693l-8 8c53 0 96 41 96 92v693c0 52-41 93-92 93H91c-52 0-93-43-93-97V160c0-53 43-96 97-96z"/></svg>
