<svg xmlns="http://www.w3.org/2000/svg" viewBox="0 0 512 512"><style>.st0{fill:#57ab3d}</style><path class="st0" d="M299.74 257.55c-9.4-.13-17.87 7.16-17.91 17.65-.04 10.54 8.37 17.7 17.45 17.78 9.94.09 17.91-7.73 17.98-17.57.16-9.09-7.04-17.72-17.52-17.86zM141.12 146.39c-11.38.05-21.03 9.04-21.22 21.31.26 11.85 9.32 21.25 21.33 21.22 13.1-.04 21.39-10.75 21.26-21.4-.14-11.79-9.58-21.18-21.37-21.13zM247.78 188.92c12.38.12 21-9.59 21.43-20.39.49-12.35-9.34-21.96-20.8-22.13-5.88-.09-10.97 1.87-15.2 5.94-4.17 4-6.27 8.97-6.56 14.71-.35 10.89 8.05 21.74 21.13 21.87zM388.55 257.54c-9.38.02-17.71 7.21-17.77 17.65-.06 10.47 8.3 17.73 17.59 17.81 9.28.06 17.69-7.22 17.81-17.54.13-9.89-7.82-17.94-17.63-17.92z"/><path class="st0" d="M486.09 0H25.91C11.66 0 0 11.66 0 25.91v460.17C0 500.34 11.66 512 25.91 512h460.17c14.25 0 25.91-11.66 25.91-25.91V25.91C512 11.66 500.34 0 486.09 0zM198.45 319.41c.54 7.57 2.16 14.92 4.37 22.15.15.51.31 1.02.46 1.53.03.09-.02.21-.04.43-1.72.08-3.46.22-5.2.24-9.71.15-19.38-.43-29.01-1.72-7.45-1-14.81-2.46-22.09-4.31-1.53-.39-3.07-.78-4.58-1.23-4.55-1.35-8.85-.74-12.93 1.6-5.27 3.02-10.53 6.06-15.79 9.09-6.42 3.7-12.83 7.41-19.24 11.11-1.21.7-2.45 1.32-3.91 1.13-3.27-.41-5.42-3.3-4.71-6.54.53-2.44 1.27-4.84 1.92-7.25 2.01-7.51 3.94-15.04 6.05-22.52 1.36-4.81-.42-9.39-4.22-12.12-6.2-4.46-12.01-9.39-17.42-14.78-7.36-7.32-13.89-15.31-19.4-24.11-7.86-12.54-13.38-26.02-16.2-40.57-.98-5.08-1.57-10.2-1.86-15.37-.31-5.44-.14-10.86.34-16.28 1.36-15.15 5.77-29.39 12.8-42.85 5.79-11.09 13.14-21.04 21.8-30.05 11.74-12.22 25.27-22.04 40.27-29.87 14.3-7.47 29.38-12.74 45.14-16.1 3.38-.72 6.82-1.12 10.22-1.76 5.17-.97 10.4-1.48 15.63-1.87 7.93-.59 15.87-.58 23.81-.23 3.35.15 6.69.49 10.03.83 6.88.68 13.7 1.75 20.45 3.23 17.01 3.72 33.17 9.7 48.4 18.17 9.06 5.04 17.59 10.88 25.47 17.61 13.51 11.55 24.7 24.99 32.85 40.86 5.1 9.91 8.75 20.33 10.9 31.52h-2.7c-4.8.01-9.6-.09-14.39.07-3.29.11-6.56.53-9.84.88-3.33.36-6.67.69-9.98 1.22-15.23 2.42-29.84 6.89-43.78 13.49-12.11 5.73-23.32 12.88-33.43 21.68-14.16 12.32-25.29 26.92-32.56 44.31-3.38 8.09-5.67 16.5-6.97 25.18-1.15 7.69-1.22 15.43-.66 23.2zm279-5.67c-.14 2.75-.7 5.47-.8 8.22-.14 3.65-.91 7.18-1.75 10.7-3.47 14.42-10.05 27.34-19.19 38.98-6.69 8.52-14.47 15.92-23.14 22.4-.89.67-1.82 1.33-2.56 2.15-1.93 2.14-2.83 4.67-2.13 7.52 1.28 5.17 2.68 10.3 4.05 15.45.85 3.19 1.74 6.37 2.59 9.56.14.51.25 1.04.29 1.57.26 3.43-3.16 5.86-6.26 4.37-1.87-.9-3.63-2.02-5.43-3.06-7.99-4.6-15.98-9.2-23.95-13.83-2.99-1.74-6.12-2.78-9.61-2.21-1.62.27-3.21.73-4.8 1.11-2.48.59-4.94 1.26-7.43 1.76-3.59.73-7.2 1.37-10.81 1.98-2.08.35-4.18.61-6.28.82-8.13.83-16.28.97-24.44.62-3.14-.14-6.26-.58-9.39-.78-4.83-.31-9.54-1.33-14.27-2.25-2.6-.5-5.19-1.09-7.75-1.75-9.14-2.36-17.97-5.58-26.49-9.63-9.81-4.67-18.98-10.37-27.38-17.27-14.42-11.84-25.69-26.07-32.84-43.41-3.64-8.82-5.95-17.99-6.7-27.52-.22-2.81-.33-5.64-.47-8.26.18-3.71.11-7.26.57-10.73.75-5.69 1.86-11.33 3.56-16.84 4.05-13.11 10.57-24.87 19.28-35.43 8.24-9.99 17.93-18.36 28.82-25.34 11.7-7.49 24.27-13.06 37.6-16.93 7.58-2.2 15.3-3.79 23.13-4.79 8.46-1.07 16.95-1.52 25.48-1.24 2.93.1 5.86.27 8.77.54 2.34.21 4.65.77 6.99.92 5.67.35 11.16 1.61 16.65 2.92 14.97 3.58 29.05 9.34 42.14 17.45 15.01 9.3 27.77 21.02 37.54 35.81 7.86 11.89 13.14 24.82 15.28 38.96.87 5.78 1.42 11.6 1.13 17.46z"/></svg>
