<svg xmlns="http://www.w3.org/2000/svg" viewBox="0 0 105.55 96.54"><style>.st0{fill:#484f59}</style><path class="st0" d="M103.26 55.78C102.39 43.55 92.85 33.7 80.6 32.5V19.8h3.13v-3H80.6v-2.4h3.13v-3H80.6V8.9h3.13v-3H68.36v10.9h-2.17c-2.38 0-4.57-1.22-5.84-3.26l-.44-.7h-42.8c-1.68 0-3.05-1.37-3.05-3.05 0-1.68 1.37-3.05 3.05-3.05H60l.44-.67A6.922 6.922 0 0 1 66.19 3h17.55V0H66.19c-3.04 0-5.88 1.38-7.75 3.74H17.11c-3.33 0-6.04 2.71-6.04 6.05 0 3.33 2.71 6.05 6.04 6.05h41.18a9.832 9.832 0 0 0 7.9 3.97h2.17v14.54c-2.86 1.2-5.49 2.93-7.73 5.08-5.83-7.9-15.2-13.04-25.75-13.04-16.76 0-30.54 12.97-31.86 29.4H0l.75 2.02C6.4 72.95 18.22 84.76 33.31 90.4c-.03.23-.05.47-.05.7 0 3.01 2.45 5.45 5.45 5.45h28.1c3.01 0 5.45-2.45 5.45-5.45 0-.24-.02-.47-.05-.7 15.09-5.64 26.91-17.45 32.56-32.59l.75-2.02h-2.26zM80.6 35.54a22.17 22.17 0 0 1 19.65 20.24H97.9c-.85-9.19-8.08-16.71-17.29-17.87v-2.37zm0 5.38c7.55 1.13 13.45 7.3 14.28 14.85h-2.37c-.81-6.26-5.66-11.39-11.9-12.48v-2.37zm0 5.44c4.58 1.02 8.12 4.8 8.88 9.42H87.1a9.246 9.246 0 0 0-6.49-7v-2.42zm0 5.61c1.62.72 2.85 2.11 3.38 3.8H80.6v-3.8zM75.86 8.9h1.75v46.88h-1.75V8.9zm-4.5 0h1.5v46.88h-1.5V8.9zm-3 28.73v2.66c-1.8 1.02-3.45 2.32-4.85 3.84-.37-.74-.76-1.46-1.19-2.17 1.76-1.78 3.81-3.24 6.04-4.33zm-2.61 12.36c-.26-.95-.55-1.88-.9-2.79 1.01-1.28 2.18-2.42 3.51-3.36v3c-1.03.92-1.9 1.99-2.61 3.15zm2.61 1.47v4.31h-1.61c0-.02 0-.05-.01-.07.26-1.51.81-2.95 1.62-4.24zM34.89 29.38c15.05 0 27.45 11.53 28.84 26.21l-.03.18h-2.46c-1.3-13.39-12.62-23.9-26.35-23.9-13.73 0-25.05 10.5-26.35 23.9h-2.5C7.34 41 19.78 29.38 34.89 29.38zm0 18.98c-4.62 0-8.5 3.15-9.64 7.41h-2.58c1.19-5.65 6.22-9.91 12.22-9.91 6 0 11.03 4.26 12.22 9.91h-2.58c-1.14-4.26-5.02-7.41-9.64-7.41zm6.5 7.42h-2.82a4.468 4.468 0 0 0-7.34 0h-2.82c1.03-2.58 3.55-4.42 6.5-4.42 2.93 0 5.45 1.83 6.48 4.42zm-6.5-12.91c-7.66 0-14.02 5.59-15.25 12.91h-2.52c1.26-8.7 8.74-15.41 17.78-15.41 9.04 0 16.52 6.71 17.78 15.41h-2.52c-1.25-7.32-7.61-12.91-15.27-12.91zm0-5.5c-10.7 0-19.53 8.05-20.81 18.4h-2.53c1.29-11.74 11.26-20.9 23.34-20.9s22.05 9.16 23.34 20.9H55.7c-1.28-10.35-10.11-18.4-20.81-18.4zm35.03 50.66l-1.56.54.68 1.5c.15.34.23.68.23 1.02 0 1.35-1.1 2.45-2.45 2.45h-28.1c-1.24 0-2.25-.92-2.42-2.11h20.53v-3H36.78l-1.16-.4c-14.19-4.9-25.47-15.5-31.26-29.26h96.82C95.4 72.53 84.11 83.13 69.92 88.03z"/><path class="st0" d="M95.15 64.05l-2.57-1.55c-5.6 9.26-14.34 16.32-24.61 19.87l.98 2.83c10.93-3.78 20.24-11.29 26.2-21.15z"/></svg>
