<svg xmlns="http://www.w3.org/2000/svg" viewBox="0 0 82.32 94.42"><style>.st0{fill:#484f59}</style><path class="st0" d="M76.6 55.96h-2.31v-1.2c.99-.77 1.63-1.97 1.63-3.32 0-1.08-.41-2.09-1.15-2.88.74-.79 1.15-1.81 1.15-2.89a4.16 4.16 0 0 0-1.22-2.96c-.45-.45-.99-.79-1.57-1-2.23-6.6-8.49-11.21-15.61-11.22h-4.39c-.82-2.28-3-3.91-5.56-3.92l-12.8-.01a5.91 5.91 0 0 0-5.56 3.91h-4.39c-7.12 0-13.39 4.6-15.62 11.2-1.63.58-2.8 2.14-2.8 3.97 0 1.13.45 2.14 1.17 2.9-.72.76-1.17 1.78-1.17 2.9 0 1.35.64 2.55 1.63 3.32v1.2H5.72C2.56 55.96 0 58.53 0 61.68s2.56 5.72 5.72 5.72h2.31v17.97c0 4.99 4.06 9.05 9.05 9.05h48.16c4.99 0 9.05-4.06 9.05-9.05V67.4h2.31c3.15 0 5.72-2.57 5.72-5.72s-2.57-5.72-5.72-5.72zM10.61 44.2h.77c1.28-6.25 6.8-10.95 13.42-10.95H31.74c-.06-.25-.11-.51-.11-.78 0-1.73 1.41-3.13 3.13-3.13l12.79.01c1.73 0 3.13 1.4 3.13 3.14 0 .27-.05.53-.11.78l6.93.01c5.62 0 10.43 3.39 12.54 8.23l-19.14.03v2.78l20.5-.03v-.04h.28a1.44 1.44 0 0 1 0 2.88l-61.09-.04c-.79 0-1.43-.65-1.43-1.44.02-.81.66-1.45 1.45-1.45zM76.6 64.62h-5.09v20.75c0 3.47-2.81 6.27-6.26 6.27H17.08c-3.46 0-6.27-2.8-6.27-6.27V64.62H5.72c-1.63 0-2.94-1.32-2.94-2.94 0-1.62 1.31-2.94 2.94-2.94h5.09V55.4H28.7v-2.78H9.8c-.37-.26-.62-.69-.62-1.18 0-.8.64-1.44 1.43-1.44H71.7c.8 0 1.44.65 1.44 1.44 0 .79-.64 1.43-1.43 1.43h-.2v5.87h5.09c1.62 0 2.94 1.32 2.94 2.93 0 1.63-1.32 2.95-2.94 2.95z"/><path class="st0" d="M68.26 67.29h-2.78v18.08c0 .13-.11.24-.24.24h-3.8v2.78h3.8c1.67 0 3.02-1.36 3.02-3.02V67.29zM49.95 18.18l2.16 1.75c2.97-3.67 1.44-7.45.21-10.49-1.33-3.29-2.05-5.42-.21-7.69L49.95 0c-2.97 3.67-1.44 7.45-.21 10.49 1.33 3.28 2.06 5.41.21 7.69zM40.08 18.18l2.16 1.75c2.97-3.67 1.44-7.45.21-10.49-1.33-3.29-2.05-5.42-.21-7.69L40.08 0c-2.97 3.67-1.44 7.45-.21 10.49 1.33 3.28 2.05 5.41.21 7.69zM30.2 18.18l2.16 1.75c2.97-3.67 1.44-7.45.21-10.49-1.33-3.29-2.05-5.42-.21-7.69L30.2 0c-2.96 3.67-1.43 7.45-.2 10.48 1.33 3.29 2.05 5.42.2 7.7z"/></svg>
