<svg xmlns="http://www.w3.org/2000/svg" viewBox="0 0 225.6 93.54"><style>.st0{fill:#484f59}</style><path class="st0" d="M98.43 16.12c0-3.75-1.33-6.96-3.95-9.54C87.77-.04 74.64 0 73.69 0c-.95.02-14.07-.04-20.79 6.58-2.62 2.58-3.95 5.79-3.95 9.54a2.4 2.4 0 0 0 2.4 2.4h1.34v12.99H35.22l3.63-11.11a5.093 5.093 0 0 0-4.84-6.67H19.02c-1.62 0-3.17.79-4.12 2.1a5.104 5.104 0 0 0-.72 4.57l3.63 11.12h-2.94c-2.85 0-5.25.98-7.14 2.9-4.08 4.16-4.11 11.41-4.1 12.1-.01.72.01 8.87 4.35 13.27.85.86 1.81 1.51 2.85 1.98L.29 81.23c-.4.74-.38 1.64.05 2.37.43.72 1.22 1.17 2.06 1.17h8.98c1.68 5.08 6.41 8.77 12.06 8.77 5.64 0 10.38-3.69 12.06-8.77H37c1.68 5.08 6.41 8.77 12.06 8.77s10.38-3.69 12.06-8.77h1.4c1.68 5.08 6.41 8.77 12.06 8.77s10.38-3.69 12.06-8.77h5.69a2.4 2.4 0 0 0 2.4-2.4V18.52h1.33c1.3 0 2.37-1.08 2.37-2.4zm-79.41 2.4h14.99l.28.38-4.11 12.6h-7.31l-4.11-12.6.26-.38zM8.42 46.54v-.08c0-.06-.03-5.88 2.73-8.69.4-.4.83-.72 1.32-.96v20.43c-.39-.21-.74-.49-1.07-.82-2.52-2.55-3-8-2.98-9.88zm15.02 40.61c-3.51 0-6.36-2.85-6.36-6.36s2.85-6.36 6.36-6.36 6.36 2.85 6.36 6.36-2.86 6.36-6.36 6.36zm25.61 0c-3.51 0-6.36-2.85-6.36-6.36s2.85-6.36 6.36-6.36 6.36 2.85 6.36 6.36-2.86 6.36-6.36 6.36zm25.51 0c-3.51 0-6.36-2.85-6.36-6.36s2.85-6.36 6.36-6.36 6.36 2.85 6.36 6.36-2.86 6.36-6.36 6.36zm15.34-7.17h-2.67c-.43-6.66-5.91-11.94-12.67-11.94s-12.25 5.28-12.67 11.94h-.16c-.43-6.66-5.91-11.94-12.67-11.94S36.8 73.32 36.37 79.98h-.26c-.43-6.66-5.91-11.94-12.67-11.94s-12.25 5.28-12.67 11.94H6.42l9.38-17.37h74.1v17.37zm0-22.17H17.27V36.3h37.82a2.4 2.4 0 0 0 2.4-2.4V18.52h2.94v27.07c0 4.34 3.53 7.87 7.87 7.87h10.5c4.34 0 7.87-3.53 7.87-7.87V18.52h3.23v39.29zM65.23 45.59V18.52h16.64v27.07c0 1.69-1.38 3.07-3.07 3.07H68.3a3.07 3.07 0 0 1-3.07-3.07zM92.3 12.57H55.09c-.22 0-.41.07-.61.12.42-.97.96-1.89 1.78-2.69 5.39-5.31 17.25-5.19 17.4-5.2h.07c3.24-.09 12.9.78 17.39 5.2.82.81 1.37 1.72 1.78 2.7-.2-.06-.39-.13-.6-.13z"/><path class="st0" d="M156.2 39.06h-7.9c.38-.89.41-1.91.39-3.8 0-.39-.01-.83-.01-1.33 0-2.33-.42-4.56-1.15-6.64l.32.21 5.64-8.71-2.05-.59c-.84-.24-8.33-2.35-12.04-1.2l.01.02c-3.09-1.98-6.73-3.14-10.66-3.14-3.17 0-6.16.77-8.82 2.1-3.43-1.83-11.18-1.18-12.05-1.1l-2.09.19 4.2 10.85.63-.24c-1.14 2.52-1.78 5.3-1.78 8.24 0 1.54-.2 2.34-.34 2.92-.22.91-.23 1.55.02 2.21h-9.36c-2 0-3.63 1.63-3.63 3.63v39.84c0 2 1.63 3.63 3.63 3.63h19.29c2.01 4.2 6.3 7.12 11.26 7.12s9.25-2.92 11.26-7.12h15.22c2 0 3.63-1.63 3.63-3.63V42.69c.01-2-1.62-3.63-3.62-3.63zm-10-14.82c-.89-1.61-1.99-3.09-3.27-4.4 1.71.09 3.79.45 5.56.86l-2.29 3.54zm-35.89-6.33c2.01-.07 4.37-.02 6.16.29a20.132 20.132 0 0 0-4.26 4.62l-1.9-4.91zm1.2 20.06c.02-.11.05-.22.09-.37.17-.7.43-1.75.43-3.67 0-9.3 7.51-16.87 16.75-16.87s16.75 7.57 16.75 16.87c0 .51 0 .96.01 1.36.02 2.24.02 2.55-1.13 3.77h-8.37c.91-1.06 1.43-2.34 1.43-3.73 0-3.75-3.78-6.68-8.61-6.68s-8.61 2.94-8.61 6.68c0 1.39.52 2.67 1.43 3.73h-9.28c-.36-.4-.77-.86-.89-1.09zm11.9-2.65c0-1.9 2.49-3.51 5.44-3.51s5.44 1.61 5.44 3.51-2.49 3.51-5.44 3.51-5.44-1.6-5.44-3.51zm6.31 52.8c-4.04 0-7.33-3.29-7.33-7.33s3.29-7.33 7.33-7.33 7.33 3.29 7.33 7.33-3.28 7.33-7.33 7.33zm26.94-5.59c0 .25-.21.46-.46.46h-14.19c.13-.72.21-1.45.21-2.2 0-6.89-5.61-12.5-12.5-12.5s-12.5 5.61-12.5 12.5c0 .75.08 1.49.21 2.2H99.17c-.25 0-.46-.21-.46-.46V42.69c0-.25.21-.46.46-.46h45.87l.36.35.34-.35h10.46c.25 0 .46.21.46.46v39.84zM221.96 39.06h-15.5c.94-4.03.92-7.53.39-10.49l2.53-.97c.39-.15.66-.52.68-.94.02-.42-.22-.81-.59-1l-1.37-.67.59-1.04a1.058 1.058 0 1 0-.92-1.59h-3c-1.92-3.76-4.3-5.75-4.48-5.89-1.25-1.1-2.52-1.82-3.78-2.27l-.38-5.58-3.48 2.35-2.85-5.69-2.68 6.41-3.38-.72 1.44 5.78c-10.31 8.42-9.05 19.12-8.39 22.29h-11.88c-2 0-3.63 1.63-3.63 3.63v39.84c0 2 1.63 3.63 3.63 3.63h17.25c2.01 4.2 6.3 7.12 11.26 7.12s9.25-2.92 11.26-7.12h17.25c2 0 3.63-1.63 3.63-3.63V42.69c.04-2-1.59-3.63-3.6-3.63zm-16.01-14.57l-.14.24-.09-.24h.23zm-18.38-5.57l.06-.05c.22-.19 5.39-4.58 10.62.04.08.07 7.91 6.6 5.22 19.01H179.8c-.59-3.08-1.28-11.89 7.77-19zm5.88 69.2c-4.04 0-7.33-3.29-7.33-7.33s3.29-7.33 7.33-7.33 7.33 3.29 7.33 7.33-3.29 7.33-7.33 7.33zm28.97-5.59c0 .25-.21.46-.46.46h-16.23c.13-.72.21-1.45.21-2.2 0-6.89-5.61-12.5-12.5-12.5s-12.5 5.61-12.5 12.5c0 .75.08 1.49.21 2.2h-16.23c-.25 0-.46-.21-.46-.46V42.69c0-.25.21-.46.46-.46h57.03c.25 0 .46.21.46.46v39.84z"/><circle class="st0" cx="125.26" cy="35.31" r=".84"/><path class="st0" d="M122.62 28.9c0-1.25-1.02-2.27-2.27-2.27s-2.27 1.02-2.27 2.27 1.02 2.27 2.27 2.27 2.27-1.01 2.27-2.27zM137.37 31.17c1.25 0 2.27-1.02 2.27-2.27s-1.02-2.27-2.27-2.27-2.27 1.02-2.27 2.27c0 1.26 1.02 2.27 2.27 2.27zM198.91 28.01c1.25 0 2.27-1.02 2.27-2.27s-1.02-2.27-2.27-2.27-2.27 1.02-2.27 2.27 1.01 2.27 2.27 2.27zM132.33 36.16c.47 0 .84-.38.84-.84s-.38-.84-.84-.84c-.47 0-.84.38-.84.84s.38.84.84.84z"/></svg>
