<svg xmlns="http://www.w3.org/2000/svg" viewBox="0 0 157.96 141.73"><path d="M150.11 120.58c-6.81-1.92-13.54-5.09-19.82-8.8 16.6-13.18 27.08-34.29 27.49-55.68.54-27.71-19.07-49.29-46.63-51.31-1.34-.1-2.66-.15-3.97-.15-4.21 0-8.22.51-11.96 1.51-1.76-1.04-2.91-1.53-3.06-1.59l-.03.06C85.77 1.53 78.8 0 71.82 0c-10.4 0-20.79 3.4-29.08 10.07-10.91 8.77-18.07 22.9-20.16 39.79-1.76 14.15.12 27.77 5.44 39.4.82 1.79 1.71 3.52 2.69 5.21-6.53 1.81-13.37 3.27-21.56 4.52-5.88.9-9.92 6.4-9.02 12.28.82 5.33 5.41 9.15 10.64 9.15.54 0 1.09-.04 1.65-.13 12.97-1.99 23.08-4.49 33.25-7.86l.03.1c.09-.03.31-.1.61-.21 6.93 5.4 15.07 9.43 24.01 11.75a69.8 69.8 0 0 0 17.55 2.23c5.17 0 10.32-.57 15.32-1.69.94-.09 2.7-.39 5.34-1.28 10.38 7.33 22.76 14.34 35.74 18 .98.28 1.96.41 2.93.41 4.7 0 9.03-3.11 10.37-7.86 1.6-5.73-1.74-11.69-7.46-13.3zM11.54 114.6c-.26.04-.52.06-.77.06-2.45 0-4.57-1.83-4.94-4.26-.2-1.32.12-2.65.91-3.73a4.969 4.969 0 0 1 3.28-1.99c8.24-1.26 15.3-2.75 22.22-4.66l.03-.01.02.08c.31-.09 1.91-.54 4.37-1.3l2.75-.76-.05-.09c12.77-4.12 39.28-13.74 50.33-25.8l-.01-.01.53-.47c2.95-2.89 5.44-5.98 7.4-9.18 5.73-9.37 5.82-21.49.36-31.37-8.82-17.38-28.33-15.18-28.53-15.16v.03c-6.29.46-12.18 2.69-16.81 6.41-10.37 8.33-13.46 22.01-14.38 29.42-1.39 11.25.03 21.93 4.13 30.89 1.09 2.38 2.38 4.65 3.84 6.79-3.79 1.37-7.18 2.5-9.81 3.33l-.72-1.24c-.88-1.53-1.7-3.12-2.44-4.72-4.87-10.65-6.58-23.2-4.96-36.29 1.91-15.39 8.32-28.18 18.05-36.01 7.05-5.67 16.1-8.8 25.47-8.8 7.24 0 14.28 1.87 20.34 5.4l2.08 1.21c3.41 2.36 8.3 6.59 12.48 13.48l1.5 3.32c5.72 12.68 4.95 27.08-2.06 38.53-3.08 5.03-7.15 9.75-12.09 14.05l-.26.23-.03-.03c-.27.27-.57.54-.87.81l-1.15 1c-11.32 9.45-35.41 18.77-44.42 22.06l-.03-.02-2.94.98c-10.59 3.55-20.72 5.96-32.82 7.82zm60.34-92.97c.53 0 1.06.02 1.58.05a54.113 54.113 0 0 0-4.05 6.68c-8.3 16.22-8.54 35.47-1.6 51.87-3.8 1.96-7.98 3.85-12.55 5.67l-3.56 1.41a40.527 40.527 0 0 1-4.08-7c-3.65-7.99-4.91-17.6-3.65-27.78.81-6.54 3.49-18.58 12.28-25.65 4.3-3.48 9.98-5.25 15.63-5.25zm2.66 9.35c1.09-2.12 2.3-4.13 3.61-5.96l1.63-2.29c2.92.9 6.08 2.47 8.85 5.18l-.85 1.02c-1.58 1.9-3.03 4.12-4.3 6.61-5.13 10.03-6.16 22.28-2.82 33.61l.81 2.74c-2.47 1.97-5.36 3.87-8.5 5.67-6.24-15.05-5.67-32.44 1.57-46.58zm18.15 28.48c-1.72 2.81-3.89 5.49-6.52 8.07-2.83-9.65-2.17-20.37 2.43-29.36.87-1.7 2.06-3.7 3.6-5.55.26.41.49.83.72 1.25.01.01.01.02.02.03 4.26 7.76 4.52 17.77-.25 25.56zm21.18-32.56c13.63 2.85 22.64 14.14 22.35 28.78-.3 15.42-8.41 31.21-20.66 40.23-1.29.95-2.63 1.83-4.02 2.63-6.21-5.1-11.03-9.75-13.69-12.43 5.01-4.36 9.58-9.44 13.22-15.39 8.2-13.4 8.59-29.86 2.55-43.54l.31-.15a.31.31 0 0 0-.06-.13zm-38.15 76.31a51.49 51.49 0 0 1-3.59-1.08c2.48-1.14 5.03-2.39 7.6-3.76.58.63 2.79 2.99 6.28 6.34-2.1-.09-3.43-.26-3.47-.26-2.29-.26-4.57-.66-6.82-1.24zm18.44 1.33l-4.15-3.98c-2.43-2.33-4.2-4.15-5.2-5.2 3.13-1.79 6.05-3.66 8.59-5.56l.36.36c2.74 2.76 7.06 6.9 12.55 11.5-3.86 1.72-8.22 2.53-12.15 2.88zm-22.4 13.95c-6.89-1.79-13.23-4.67-18.92-8.55 3.11-1.17 7-2.7 11.24-4.5l6.18 2.13c1.31.45 2.66.86 4.02 1.21 3.02.78 6.11 1.29 9.23 1.55.53.04 1.17.09 1.9.13l.39.03.03-.01c.9.04 1.91.07 3.03.07 6.96 0 17.59-1.06 25.13-6.69l-.04-.05.48-.28c1.58-.91 3.11-1.91 4.55-2.97 13.64-10.04 22.67-27.61 23.01-44.75.34-17.45-10.67-31.38-27.41-34.64l-4.62-.9a50.669 50.669 0 0 0-8.41-9.48c1.82-.24 3.7-.36 5.63-.36 1.16 0 2.36.04 3.55.13 24.41 1.79 41.77 20.91 41.3 45.45-.35 18.26-8.85 36.61-22.4 48.81l-.05-.06c-9.72 7.18-16.69 10.72-21.14 12.46l-1.72.53a64.47 64.47 0 0 1-18.85 2.81c-5.47-.02-10.88-.71-16.11-2.07zm80.25 13.82c-.61 2.15-2.59 3.66-4.82 3.66-.46 0-.92-.06-1.37-.19-9.76-2.75-20.16-7.84-30.96-15.1 2.76-1.34 6.01-3.14 9.77-5.54l2.73 1.61c7.36 4.33 14.49 7.49 21.19 9.38 2.66.75 4.21 3.52 3.46 6.18z" fill="#fff"/></svg>
