<svg xmlns="http://www.w3.org/2000/svg" viewBox="0 0 96.5 96.5"><style>.st0{fill:#484f59}</style><path class="st0" d="M48.25 0C21.64 0 0 21.64 0 48.25S21.64 96.5 48.25 96.5 96.5 74.85 96.5 48.25 74.85 0 48.25 0zm0 93.54c-24.98 0-45.29-20.32-45.29-45.29s20.31-45.3 45.29-45.3 45.29 20.32 45.29 45.29-20.32 45.3-45.29 45.3z"/><path class="st0" d="M48.25 9.85c3.65 0 7.26.51 10.73 1.52l.82-2.84A41.658 41.658 0 0 0 48.24 6.9c-18.53 0-34.92 12.45-39.86 30.29l2.85.79c4.6-16.57 19.82-28.13 37.02-28.13zM6.89 48.25h2.95c0-1.74.12-3.48.35-5.19l-2.93-.39a43.1 43.1 0 0 0-.37 5.58zM78.27 31.15c-.01-.02-.02-.03-.03-.05a1.07 1.07 0 0 0-.15-.22c-.02-.03-.04-.05-.06-.08-.08-.08-.16-.16-.25-.22-.01-.01-.02-.01-.04-.02-.08-.05-.18-.1-.27-.13l-.1-.03c-.08-.02-.16-.04-.24-.05-.02 0-.05-.01-.07-.01l-13.6-.91a9.96 9.96 0 0 0-2.89-3.89c1.05-.61 2.2-1.09 3.41-1.41 1.17-.31.84-1.54-.33-1.23-1.54.41-2.98 1.02-4.29 1.81a9.754 9.754 0 0 0-5.02-1.39c-3.65 0-6.83 1.99-8.54 4.94l-7.91-.53c-.47-.03-.92.16-1.22.51l-14.98 17.5c-.01.01-.02.03-.03.04-.06.08-.12.16-.16.25l-.03.06c-.05.11-.08.22-.1.34-.01.03 0 .05-.01.08-.01.06-.02.12-.02.18v17.92c0 .73.53 1.35 1.25 1.46l40.65 6.37c.08.01.15.02.23.02h.01c.16 0 .31-.03.45-.08.04-.01.09-.03.13-.05.1-.05.2-.1.29-.17l.11-.08c.11-.1.2-.21.28-.33.01-.01.02-.02.02-.03l13.49-23.91c.13-.22.19-.47.19-.73V31.82c0-.23-.05-.44-.15-.63-.02-.01-.02-.03-.02-.04zm-23.94-4.88c.84 0 1.64.16 2.39.44-.99.93-1.89 1.98-2.64 3.17-.55.86 1.39.85 1.81.18.63-.99 1.38-1.88 2.21-2.66a6.887 6.887 0 0 1 3.14 5.78c0 1.99-.85 3.78-2.2 5.04-.12.1-.25.21-.38.3-1.42 1.03-3.14 1.56-4.78 1.54-1.9-.12-3.6-1.02-4.77-2.38-.47-.58-.88-1.26-1.2-1.99-.31-.78-.48-1.63-.48-2.52-.01-3.8 3.09-6.9 6.9-6.9zm-15.91 4.46l5.96.4c-.31 1.66-.1 3.53.65 5.38.04.11.1.21.14.31.39.98.93 1.89 1.6 2.68 1.18 1.48 2.67 2.59 4.23 3.08.87.27 1.78.4 2.7.42.21.01.41.03.62.03 2.55 0 4.88-.98 6.63-2.58 2.08-1.73 3.29-4.09 3.32-6.58.01-.5.01-.99-.01-1.43l10.08.67-10.73 16.64-37.87-4.2 12.68-14.82zM24.28 48.36l38.54 4.27-.76 16.66-37.78-5.92V48.36zm40.93 16.53l.6-13.1 9.66-14.96v9.89L65.21 64.89z"/></svg>
