<svg xmlns="http://www.w3.org/2000/svg" viewBox="0 0 93.6 96.3"><style>.st0{fill:#484f59}</style><path class="st0" d="M6.44 51.21H9.2c0-1.62.11-3.26.32-4.85l-2.74-.37c-.22 1.71-.34 3.47-.34 5.22z"/><path class="st0" d="M93.39 44.74c.14-.25.21-.54.17-.85-1.59-11.17-6.65-21.29-14.62-29.26C70.96 6.66 60.85 1.6 49.68.01 49-.08 48.35.34 48.16 1c-.47 1.64-1 3.38-1.56 5.16-.5-.02-1-.04-1.5-.04C20.23 6.11 0 26.34 0 51.21s20.23 45.1 45.1 45.1c24.72 0 44.85-19.99 45.09-44.66.81-.24 1.62-.49 2.39-.71l.95-.27.05-.99c.07-1.63 0-3.29-.19-4.94zM50.47 2.93c10.1 1.68 19.25 6.39 26.51 13.66C84.25 23.85 88.95 33 90.64 43.1c-.94.28-1.91.57-2.89.87a53.335 53.335 0 0 0-13.56-23.1 53.294 53.294 0 0 0-24.7-14.01c-.07-.02-.14-.02-.21-.03.42-1.33.82-2.64 1.19-3.9zM75.35 43c.23-.21.59-.2.8.02l2.01-1.89a3.34 3.34 0 0 0-4.7-.14c-.16.15-.3.32-.43.5l-.02-.01c-.36.47-.71.93-1.06 1.37-.72.91-1.4 1.78-1.97 2.66l-.08.13c-.1.04-.61-.05-1.23-.63l-.04-.04c-.57-.69-.63-1.2-.59-1.29l.13-.08c.91-.52 1.81-1.14 2.76-1.8.47-.32.95-.66 1.45-.99l-.01-.01c.18-.12.36-.25.52-.4.65-.61 1.02-1.43 1.04-2.32.03-.89-.3-1.74-.91-2.38l-2.01 1.9c.14.15.16.32.15.4s-.03.26-.18.4c-.42.4-1.09.38-1.49-.04-.63-.67-.6-1.72.07-2.35.01-.01.03-.02.04-.04l.29-.28.01-.01.47-.44c.4-.37 1.41-.83 1.95-.8 4.11.22 7.08 3.36 7.05 7.46-.01.56-.51 1.52-.89 1.9l-.83.79c-.67.63-1.72.6-2.35-.07-.19-.2-.29-.47-.29-.75s.13-.57.34-.77zm4.05 3.68c0 .01-.01.01-.02.01.01 0 .02 0 .02-.01zm.19-.15l.61-.58c.06-.05.12-.11.17-.16.85-.81 1.74-2.47 1.77-3.88.04-5.55-4.12-9.96-9.68-10.25-1.4-.03-3.11.74-3.97 1.54-.06.05-.11.11-.17.16l-.29.28-.01.01-.48.45.02.02c-1.65 1.69-1.7 4.39-.07 6.12.11.12.24.21.36.31-.34.23-.68.44-.99.62-.81.4-1.35 1.1-1.53 1.95-.24 1.14.17 2.42 1.21 3.67l.2.21c.99.92 2.06 1.41 3.08 1.41.15 0 .31-.01.46-.03a2.74 2.74 0 0 0 2-1.35c.22-.33.46-.67.72-1.01.09.13.18.26.29.38.82.87 1.91 1.32 3.02 1.37-4.25 1.49-8.74 3.15-13.39 4.94.02-.23.04-.45.04-.68 0-4.06-3.3-7.36-7.36-7.36-4.06 0-7.36 3.3-7.36 7.36 0 2.17.97 4.16 2.53 5.53-7.61 3.13-16.05 6.75-25.84 11.1 2.24-5.03 4.28-9.71 6.16-14.1 1 2.88 3.73 4.95 6.95 4.95 4.06 0 7.36-3.3 7.36-7.36s-3.3-7.36-7.36-7.36c-1.11 0-2.16.26-3.11.7 1.68-4.04 3.22-7.84 4.65-11.48 1.25-3.17 2.43-6.26 3.55-9.28.92.4 1.92.62 2.93.62 4.06 0 7.36-3.3 7.36-7.36 0-3.3-2.22-6.21-5.39-7.09-.01 0-.03 0-.04-.01.16-.49.32-.98.48-1.46.11.06.23.12.35.15a50.437 50.437 0 0 1 23.42 13.29c6.1 6.1 10.53 13.69 12.88 21.97-1.84.59-3.73 1.21-5.69 1.88.06-.09.11-.14.16-.19zm-25.71 9.74A4.602 4.602 0 0 1 51 52.01a4.6 4.6 0 0 1 9.2 0c0 .67-.14 1.3-.42 1.9-.07.03-.13.05-.2.08-1.85.73-3.74 1.49-5.7 2.28zm-15.84-8.74a4.6 4.6 0 1 1-.001 9.201 4.6 4.6 0 0 1 .001-9.201zm9.09-34.07c.05.02.11.05.16.06 1.98.55 3.37 2.37 3.37 4.43a4.6 4.6 0 0 1-4.6 4.6c-.7 0-1.36-.16-1.97-.45 1.08-2.97 2.1-5.86 3.04-8.64zM45.1 93.54c-23.34 0-42.34-18.99-42.34-42.33S21.75 8.87 45.1 8.87c.21 0 .42.02.63.02-.39 1.2-.79 2.42-1.22 3.67-17.07.26-32.1 11.82-36.67 28.3l2.66.74c4.15-14.98 17.61-25.59 33.05-26.25A468.03 468.03 0 0 1 37 32.98c-4.16 10.59-9.26 22.61-16.06 37.83-.1.22-.12.46-.1.69h-.06v2.83c0 .67.01 1.32.01 1.81.01.9.02 2.13 1.35 2.18h1.34l.03-.5c14.85-6.63 26.65-11.63 37.07-15.73 9.78-3.85 18.91-7.11 26.8-9.58-.67 22.74-19.37 41.03-42.28 41.03zm14.49-34.02c-10.19 4-21.68 8.87-36.04 15.26 0-.75 0-1.62-.01-2.5C38.41 65.65 50.2 60.65 60.6 56.56c11.19-4.41 21.54-8.04 30.13-10.6.07.87.12 1.74.11 2.6-8.83 2.59-19.61 6.37-31.25 10.96z"/><path class="st0" d="M61.43 42.04c-.76 0-1.38.62-1.38 1.38v.87c0 .76.62 1.38 1.38 1.38s1.38-.62 1.38-1.38v-.87c0-.76-.62-1.38-1.38-1.38zM61.87 27.67c-.76 0-1.38.62-1.38 1.38v.87c0 .76.62 1.38 1.38 1.38s1.38-.62 1.38-1.38v-.87c0-.77-.62-1.38-1.38-1.38zM61.87 21.84c-.76 0-1.38.62-1.38 1.38v.87c0 .76.62 1.38 1.38 1.38s1.38-.62 1.38-1.38v-.87c0-.76-.62-1.38-1.38-1.38zM67.26 24.75c-.76 0-1.38.62-1.38 1.38V27c0 .76.62 1.38 1.38 1.38s1.38-.62 1.38-1.38v-.87c0-.76-.62-1.38-1.38-1.38zM59.39 34c-.38-1.5-1.18-2.59-2.24-3.07-.8-.36-1.68-.32-2.41.06-.36.16-.75.31-1.15.46-.01-.16-.01-.32-.04-.48a4.412 4.412 0 0 0-4.99-3.54v-.02l-.87.16c-.01 0-.02 0-.04.01l-.15.03-.23.04c-1.15.22-2.8 1.14-3.58 2.32-3.03 4.66-1.91 10.61 2.62 13.85.89.62 2.22.91 3.31.91.31 0 .6-.02.86-.07l.23-.04.43-.08c.02 0 .04-.01.05-.01l.24-.04.33-.06v-.02c2.3-.53 3.8-2.78 3.35-5.11-.03-.16-.09-.31-.13-.46.41 0 .81 0 1.16.01.9.09 1.73-.2 2.35-.82.81-.83 1.16-2.13.97-3.67l-.07-.36zm-2.88 2.1l-.16-.01c-1.05-.05-2.14-.01-3.29.03-.57.02-1.15.04-1.75.05v.01A3.331 3.331 0 0 0 48 40.13l2.71-.51c-.06-.31.15-.6.45-.66.28-.05.56.01.79.17.23.16.39.4.44.68.17.9-.43 1.77-1.33 1.94v.01l-.06.01-.39.07c-.02 0-.04.01-.06.01l-.25.05-.33.06c-.53.1-1.62-.07-2.08-.38-3.35-2.4-4.15-6.64-1.91-10.08.32-.47 1.27-1.02 1.79-1.13l.32-.06.79-.15c.9-.16 1.77.43 1.94 1.33.11.57-.27 1.12-.84 1.23-.31.05-.6-.15-.66-.45l-2.71.51a3.327 3.327 0 0 0 3.89 2.65c.22-.04.43-.11.63-.19l.01.02c.56-.21 1.11-.4 1.64-.59 1.09-.38 2.13-.74 3.08-1.17l.14-.06c.11.02.49.37.69 1.14l.02.11c.12.9-.11 1.36-.2 1.41z"/></svg>
