<svg xmlns="http://www.w3.org/2000/svg" viewBox="0 0 87.44 85.04"><style>.st0{fill:#39434e}</style><path class="st0" d="M5.68 70.38h27.63c1.42 0 2.56-1.15 2.56-2.56s-1.15-2.56-2.56-2.56H5.68c-1.41 0-2.55 1.15-2.55 2.56s1.14 2.56 2.55 2.56zM25.65 57.94a2.56 2.56 0 0 0 3.62 0l5.2-5.2c.39-.39.65-.9.72-1.45l.61-4.31 18.01-18 4.31-.62a2.57 2.57 0 0 0 1.45-.72l5.2-5.2c1-1 1-2.62 0-3.62L46.7.75c-1-1-2.62-1-3.62 0l-5.2 5.2c-.39.39-.65.9-.72 1.45l-.63 4.43-17.88 17.86-4.43.64c-.55.08-1.05.33-1.44.72l-5.17 5.2c-1 1-1 2.62 0 3.62l18.04 18.07zM42.1 8.97l2.78-2.78 14.45 14.45-2.78 2.78-3.45.49-11.49-11.49.49-3.45zm-3.34 7.87l9.98 9.98-15.08 15.07-9.98-9.98 15.08-15.07zM15.79 35.28l3.45-.49 11.49 11.49-.49 3.45-2.78 2.78-14.44-14.45 2.77-2.78zM84.21 62.62L53.46 35.53l-3.63 3.63 30.99 27.3c.92.81 1.46 1.91 1.49 3.1.04 1.18-.42 2.31-1.3 3.18l-.86.87c-1.74 1.75-4.66 1.65-6.28-.2l-27.3-30.99-3.63 3.63L70.03 76.8c1.81 2.05 4.39 3.23 7.07 3.23 2.5 0 4.87-.99 6.68-2.8l.87-.87c1.88-1.88 2.88-4.36 2.79-6.97-.09-2.6-1.23-5.01-3.23-6.77zM36.46 74.61H2.55A2.55 2.55 0 0 0 0 77.17v7.87h5.1v-5.31h28.79v5.31h5.12v-7.87a2.544 2.544 0 0 0-2.55-2.56z"/></svg>
