<svg xmlns="http://www.w3.org/2000/svg" viewBox="0 0 141.73 141.73"><path d="M118.54 83.64l23.2-12.77-23.2-12.77 13.7-22.66-26.48.54.54-26.48-22.66 13.7L70.87 0 58.09 23.2 35.43 9.49l.54 26.48-26.48-.54 13.7 22.66L0 70.87l23.2 12.77L9.49 106.3l26.47-.54-.54 26.48 22.66-13.7 12.77 23.2 12.77-23.2 22.66 13.7-.54-26.48 26.48.54-13.68-22.66zm-47.67 36.57c-27.25 0-49.34-22.09-49.34-49.34 0-27.25 22.09-49.34 49.34-49.34 27.25 0 49.34 22.09 49.34 49.34 0 27.25-22.09 49.34-49.34 49.34z"/><path d="M43.72 86.89h-.79c-.51 0-.94.4-.97.92-.09 1.72-.29 3.06-.6 3.97v.01c-.34 1.08-.8 1.99-1.44 2.86-.47.9-1.35 1.97-2.59 3.17-.74.67-1.11 1.37-1.11 2.08 0 .61.29 2.04 2.98 2.04.41 0 .85-.09 1.34-.28.55-.21 1.06-.61 1.49-1.15.61-.62 1.1-1.35 1.41-2.14.42-.9.73-2.02.94-3.42.2-1.33.3-2.73.3-4.16v-2.94a.954.954 0 0 0-.96-.96zM42.06 42.09c.18.37.59.58.99.54 1.14-.14 3.4-.23 6.71-.28h18.53v2.87H55.55c-3.4 0-6.14-.25-8.16-.76-.36-.1-.75.04-.99.33-.24.29-.28.69-.12 1.03l1.51 3.15c.16.34.5.55.87.55.04 0 .08 0 .12-.01 1.14-.14 3.42-.23 6.77-.28h39.3c.29 0 1.76-.11 1.76-2.19 0-.33-.11-.96-.8-1.41-1.3-1.01-2.67-2.05-4.11-3.1a.999.999 0 0 0-.57-.19h8.81c.92 0 1.9-.57 1.9-2.19 0-.43-.19-1.05-.93-1.4a70.2 70.2 0 0 0-4.43-3.34.958.958 0 0 0-1.24.11l-2.87 2.87H73.74v-1.26c.44-.2.83-.41 1.13-.62.69-.3 1.09-.85 1.09-1.53 0-.43-.17-1.22-1.4-1.72-1.44-.44-3.27-.84-5.44-1.18-.3-.05-.61.05-.83.27-.22.22-.32.53-.27.83.17 1.14.26 2.89.27 5.2H49.75c-3.34 0-6.05-.28-8.06-.83-.37-.1-.76.02-1 .31s-.29.7-.13 1.04l1.5 3.19zm48.38.55l-2.59 2.58H73.74v-2.87h17.38c-.25.01-.49.1-.68.29z"/><path d="M37.95 54.66c.18.45.65.7 1.12.58.5-.12 2.07-.26 6.73-.26h39.76l-1.22 1.22H57.85c-3.38 0-6.08-.3-8.04-.89a.97.97 0 0 0-1.17 1.31l1.37 3.15c.17.39.55.61 1 .57 1.19-.14 3.5-.23 6.84-.28h9.86v2.44H54.69c-3.38 0-6.09-.3-8.04-.89-.36-.11-.75 0-1 .28s-.32.68-.17 1.02l1.36 3.23c.15.36.51.59.89.59.05 0 .1 0 .15-.01 1.18-.18 3.47-.3 6.81-.35h39.59c.88 0 1.83-.56 1.83-2.12 0-.34-.13-1-.88-1.41-1.22-.95-2.54-1.91-3.92-2.86.84-.22 1.35-.94 1.35-1.97 0-.42-.17-1.01-.87-1.4-.72-.57-1.51-1.1-2.28-1.65h7.63c-.15.23-.33.47-.51.72-.53.79-1.25 1.6-2.14 2.4a.97.97 0 0 0-.32.73c0 .28.12.54.33.72l1.08.93a.962.962 0 0 0 1.18.07c1.06-.72 2.1-1.52 3.1-2.36.91-.77 1.67-1.5 2.32-2.22.64-.12 1.33-.28 2.06-.44 1.41-.3 2.13-.91 2.13-1.81 0-.77-.41-1.15-.51-1.2-1.31-1.27-2.8-2.5-4.41-3.68-.39-.29-.95-.23-1.29.13l-1.79 1.98H45.8c-3.47 0-6.14-.16-7.93-.49-.35-.08-.7.07-.92.34-.22.27-.28.65-.15.97l1.15 2.91zm49.26 7.85H73.09v-2.44h16.56l-2.44 2.44zM82.21 92.78c-.82-.91-1.85-1.78-3.04-2.53-1.1-1.05-2.44-2.03-3.99-2.94a.954.954 0 0 0-1.17.15l-.79.79a.957.957 0 0 0 .05 1.4c1.23 1.1 2.15 2.04 2.8 2.87.66.9 1.32 1.84 1.95 2.78.58.98 1 1.96 1.25 2.87.26 1.15.61 1.82.98 2.06.3.29.83.64 1.69.64.6 0 1.46-.22 2.16-1.33.31-.61.46-1.36.46-2.22 0-.69-.14-1.41-.46-2.22-.33-.67-.95-1.43-1.89-2.32z"/><path d="M93.74 79.36h9.36c.92 0 1.9-.57 1.9-2.19 0-.29-.1-.99-.97-1.41-1.18-.9-2.44-1.83-3.8-2.82a.952.952 0 0 0-1.27.12l-2.22 2.35h-2.99v-.3c1.13-.25 2.66-.8 2.66-2.17 0-.41-.15-.78-.47-1.12h8.11c.85 0 1.76-.54 1.76-2.04 0-.61-.3-1.15-.81-1.48-1.3-1.01-2.68-2.02-4.12-3.04a.958.958 0 0 0-1.24.11l-2.59 2.59H44.58c-3.33 0-6.01-.3-7.97-.89a.97.97 0 0 0-1.17 1.31l1.37 3.15c.17.39.55.61 1 .57 1.19-.14 3.41-.23 6.77-.28h.15c-.11.16-.19.34-.19.54v14.27c0 1.15.72 1.9 1.83 1.9.52 0 1.18-.16 2.05-.52.8-.37 1.19-.83 1.37-1.27h8.5c-.05.03-.12.01-.16.05l-1.15.86c-.21.16-.34.39-.38.65-.03.26.04.52.2.73.81 1.04 1.45 2.04 1.94 3.06.54.9 1.03 1.91 1.44 3.01.4 1.03.7 2.11.88 3.17.16 1.11.4 1.77.78 2.14.32.49.82.76 1.4.76.64 0 1.55-.24 2.34-1.54.24-.61.35-1.35.35-2.29 0-.71-.11-1.43-.32-2.13-.22-.77-.64-1.61-1.27-2.56-.6-.9-1.36-1.84-2.19-2.7-.83-1.08-1.76-2.1-2.75-3.05-.08-.08-.19-.08-.29-.12h7.29c.27 0 1.62-.1 1.62-2.04 0-.36-.15-.9-.79-1.33-.38-.3-.8-.63-1.29-1.01v-4.36c.94-.59 1.5-1.12 1.8-1.64l1.3 2.73c.18.37.59.59.99.54.39-.05.94-.09 1.58-.12l-.84 1.18c-.15.22-.21.48-.16.74.05.26.2.48.42.63 1.03.68 1.84 1.33 2.38 1.9.52.61 1.03 1.41 1.52 2.39.01.01.01.02.02.03.31.57.6.94 1.06 1.26.33.16.69.25 1.07.25.7 0 2.33-.31 2.33-3.19 0-.59-.21-1.17-.62-1.72-.47-.63-1.17-1.23-2.02-1.72-.87-.61-2.02-1.21-3.37-1.82.98-.03 2.08-.06 3.39-.08h11.87v4.12c0 .5-.1.72-.26.87 0 0-.23.25-1.35.25-1.53 0-3.32-.45-5.34-1.35a.97.97 0 0 0-.92.07c-.27.18-.44.48-.44.81v1.44c0 .48.35.88.82.96 1.37.22 2.63.62 3.84 1.24.33.12.58.31.72.52.09.15.31.67.37 2.2.01.3.16.57.4.75a.988.988 0 0 0 .84.14c1.22-.36 2.28-.8 3.08-1.27 1.07-.51 1.91-1.23 2.43-2.08.61-.79.92-1.71.92-2.74v-5.97zm-33.13-1.79v5.23H49.92v-5.23h10.69zm1.81-5.74l-1.56 1.8H49.99l-3.41-1.8h15.84zm1.78 0h24.24c.14.67.21 1.5.21 2.48v1.11H76.78c-3.4 0-6.14-.28-8.14-.82-.3-.08-.6.02-.83.2-.35-.71-1.34-1.6-3.61-2.97zM102.05 91.9c-1.69-1.38-3.97-2.77-6.77-4.13-.4-.2-.89-.09-1.17.26l-.93 1.15c-.17.21-.24.47-.21.74.03.26.18.5.39.66 1.85 1.34 3.33 2.66 4.43 3.94.95 1.09 1.92 2.57 2.84 4.3.41 1.06.84 1.72 1.39 2.12a3.2 3.2 0 0 0 1.73.51c.79 0 2.62-.33 2.62-3.34 0-.9-.29-1.82-.87-2.74-.73-1.14-1.89-2.31-3.45-3.47z"/></svg>
