<svg xmlns="http://www.w3.org/2000/svg" viewBox="0 0 50 50"><style>.st0{fill:#104c28}</style><path class="st0" d="M42.13 23.63l-6.56-3.65a.745.745 0 0 0-.71 0l-6.56 3.65c-.23.13-.37.37-.37.64v8.02c0 .26.14.51.37.64l6.56 3.65a.73.73 0 0 0 .7 0l6.56-3.65c.23-.13.37-.37.37-.64v-8.02a.71.71 0 0 0-.36-.64zM34.48 34.7l-5.1-2.84v-6.35l5.1 2.84v6.35zm.73-7.62l-5.06-2.81 5.06-2.81 5.06 2.81-5.06 2.81zm5.83 4.78l-5.1 2.84v-6.35l5.1-2.84v6.35zM21.71 23.63l-6.56-3.65a.745.745 0 0 0-.71 0l-6.56 3.65c-.23.13-.37.37-.37.64v8.02c0 .26.14.51.37.64l6.56 3.65a.73.73 0 0 0 .7 0l6.56-3.65c.23-.13.37-.37.37-.64v-8.02a.71.71 0 0 0-.36-.64zM14.06 34.7l-5.1-2.84v-6.35l5.1 2.84v6.35zm.73-7.62l-5.06-2.81 5.06-2.81 5.06 2.81-5.06 2.81zm5.84 4.78l-5.1 2.84v-6.35l5.1-2.84v6.35z"/><path class="st0" d="M25.73 28.14v-6.35l5.1-2.84v1.68h1.46v-2.92a.74.74 0 0 0-.37-.64l-6.56-3.65a.745.745 0 0 0-.71 0l-6.56 3.65c-.23.13-.37.37-.37.64v2.92h1.46v-1.68l5.1 2.84v6.35l-1.11-.61-.71 1.27 2.19 1.22a.73.73 0 0 0 .7 0l2.23-1.24-.71-1.27-1.14.63zM25 20.52l-5.06-2.81L25 14.9l5.06 2.81L25 20.52z"/><path class="st0" d="M25 0C11.21 0 0 11.21 0 25s11.21 25 25 25 25-11.21 25-25S38.79 0 25 0zm0 47.73C12.47 47.73 2.27 37.53 2.27 25S12.47 2.27 25 2.27 47.73 12.47 47.73 25 37.53 47.73 25 47.73z"/></svg>
