<svg xmlns="http://www.w3.org/2000/svg" viewBox="0 0 93.13 93.13"><style>.st0{fill-rule:evenodd;clip-rule:evenodd;fill:#231815}</style><path class="st0" d="M91.24 82.13L70.6 61.49a6.384 6.384 0 0 0-4.55-1.89c-1.01 0-1.98.24-2.85.67l-2.76-2.76a30.844 30.844 0 0 0 7.6-18.3h4.2c1.14 0 2.06-.92 2.06-2.06s-.92-2.06-2.06-2.06h-4.2c-1.03-15.43-13.4-27.8-28.83-28.82v-4.2c0-1.14-.92-2.06-2.06-2.06s-2.06.92-2.06 2.06v4.2C19.66 7.29 7.29 19.66 6.27 35.09h-4.2a2.06 2.06 0 1 0-.01 4.12h4.2c1.02 15.43 13.39 27.8 28.82 28.82v4.2c0 1.14.92 2.06 2.06 2.06s2.06-.92 2.06-2.06v-4.2c6.99-.46 13.34-3.25 18.3-7.6l2.76 2.76c-.43.88-.67 1.85-.67 2.85 0 1.72.67 3.34 1.89 4.55l20.64 20.64a6.39 6.39 0 0 0 4.56 1.89c1.72 0 3.34-.67 4.55-1.89a6.384 6.384 0 0 0 1.89-4.55c.01-1.72-.66-3.33-1.88-4.55zM39.21 63.9v-8.17c0-1.14-.92-2.06-2.06-2.06s-2.06.92-2.06 2.06v8.17c-13.15-1.01-23.68-11.53-24.68-24.68h8.17c1.14 0 2.06-.92 2.06-2.06s-.92-2.06-2.06-2.06h-8.17c1.01-13.15 11.53-23.67 24.68-24.68v8.17c0 1.14.92 2.06 2.06 2.06s2.06-.92 2.06-2.06v-8.17c13.15 1.01 23.67 11.53 24.68 24.68h-8.17c-1.14 0-2.06.92-2.06 2.06s.92 2.06 2.06 2.06h8.17c-1 13.15-11.52 23.67-24.68 24.68zm49.11 24.42c-.9.9-2.37.9-3.27 0L64.41 67.68c-.44-.44-.68-1.02-.68-1.64s.24-1.2.68-1.64c.44-.44 1.02-.68 1.64-.68s1.2.24 1.64.68l20.64 20.64c.89.91.89 2.38-.01 3.28z"/><path class="st0" d="M47.64 45.72l-9.96-22.65h-.22v15.39l2.02 4.56H34.4l2.01-4.56v-15.4h-.22l-9.96 22.65c-.95 2.15-1.73 3.5-2.34 4.05-.47.42-1.12.67-1.96.74l-.45.75H36.4v-.75h-1.66c-1.07 0-1.83-.15-2.26-.45-.3-.21-.45-.53-.45-.94 0-.24.04-.49.13-.75.03-.13.23-.63.61-1.53l1.46-3.43h5.42l1.46 3.43c.38.9.58 1.4.61 1.53.08.26.13.51.13.75 0 .41-.15.73-.45.94-.43.3-1.19.45-2.26.45h-1.66v.75h14.47v-.75c-.84-.07-1.49-.31-1.96-.74-.62-.55-1.4-1.9-2.35-4.04z"/></svg>
