<svg xmlns="http://www.w3.org/2000/svg" viewBox="0 0 34.31 30"><style>.st0{fill-rule:evenodd;clip-rule:evenodd;fill:#727171}</style><path class="st0" d="M32.51 8.16h-4.97l6.77-6.77L32.92 0l-8.16 8.16H9.54L1.39 0 0 1.39l6.77 6.77H1.8c-.9 0-1.63.73-1.63 1.63v4.99c0 .9.73 1.63 1.63 1.63h1.15L5.11 30H29.2l2.16-13.58h1.15c.9 0 1.63-.73 1.63-1.63v-5c0-.9-.73-1.63-1.63-1.63zm-4.98 19.88H6.78L4.93 16.42h24.44l-1.84 11.62zm4.65-13.58H2.13v-4.34h6.6l1.97 1.97c-.01.07-.04.13-.04.21a1.63 1.63 0 1 0 1.63-1.63c-.07 0-.14.03-.21.04l-.58-.58h11.3l-.58.58c-.07-.01-.13-.04-.21-.04a1.63 1.63 0 1 0 1.63 1.63c0-.07-.03-.14-.04-.21l1.96-1.96h6.6v4.33z"/><path class="st0" d="M17.16 26.57c.9 0 1.63-.73 1.63-1.63v-5.42a1.63 1.63 0 0 0-3.26 0v5.42c-.01.9.72 1.63 1.63 1.63zM23.5 26.57c.9 0 1.63-.73 1.63-1.63v-5.42a1.63 1.63 0 0 0-3.26 0v5.42c0 .9.73 1.63 1.63 1.63zM10.81 26.57c.9 0 1.63-.73 1.63-1.63v-5.42a1.63 1.63 0 0 0-3.26 0v5.42c-.01.9.72 1.63 1.63 1.63z"/></svg>
