<svg xmlns="http://www.w3.org/2000/svg" viewBox="0 0 86 82"><style>.st0{fill:#505050}</style><path class="st0" d="M42 78c-3.87 0-6-1.5-6-2h-4c0 3.42 4.3 6 10 6s10-2.58 10-6h-4c0 .5-2.13 2-6 2zM24 14v-4c-7.72 0-14 6.28-14 14h4c0-5.51 4.49-10 10-10z"/><path class="st0" d="M24 0C10.77 0 0 10.77 0 24h4C4 12.97 12.97 4 24 4V0zM62 10v4c5.51 0 10 4.49 10 10h4c0-7.72-6.28-14-14-14z"/><path class="st0" d="M62 0v4c11.03 0 20 8.97 20 20h4C86 10.77 75.23 0 62 0zM64 36c0-11.46-8.8-20.88-20-21.9V8h-4v6.1C28.8 15.12 20 24.54 20 36v19.39l-8 12V74h60v-6.61l-8-12V36zm4 32.61V70H16v-1.39l8-12V36c0-9.92 8.07-18 18-18s18 8.08 18 18v20.61l8 12z"/></svg>
