<svg xmlns="http://www.w3.org/2000/svg" viewBox="0 0 50 50"><style>.st0{fill:#104c28}</style><path class="st0" d="M40.15 21.97c-1.4 0-2.53.98-2.88 2.27h-.91v1.52h.91c.34 1.3 1.47 2.27 2.88 2.27 1.67 0 3.03-1.36 3.03-3.03s-1.36-3.03-3.03-3.03zm0 4.55c-.84 0-1.52-.68-1.52-1.52s.68-1.51 1.52-1.51 1.52.68 1.52 1.51c0 .84-.68 1.52-1.52 1.52zM40.15 29.55c-1.4 0-2.53.98-2.88 2.27h-1.24l-2.27-3.79H30.3v1.52h2.6l2.27 3.79h2.1c.34 1.3 1.47 2.27 2.88 2.27 1.67 0 3.03-1.36 3.03-3.03 0-1.67-1.36-3.03-3.03-3.03zm0 4.54a1.52 1.52 0 1 1-.001-3.039 1.52 1.52 0 0 1 .001 3.039zM32.9 20.45h-2.6v1.52h3.46l2.27-3.79h1.24c.34 1.3 1.47 2.27 2.88 2.27 1.67 0 3.03-1.36 3.03-3.03 0-1.67-1.36-3.03-3.03-3.03-1.4 0-2.53.98-2.88 2.27h-2.1l-2.27 3.79zm7.25-4.54c.84 0 1.52.68 1.52 1.51a1.52 1.52 0 1 1-3.04 0c.01-.83.69-1.51 1.52-1.51zM9.85 20.45c1.4 0 2.53-.98 2.88-2.27h1.24l2.27 3.79h3.46v-1.52h-2.6l-2.27-3.79h-2.1c-.34-1.3-1.47-2.27-2.88-2.27-1.67 0-3.03 1.36-3.03 3.03 0 1.68 1.36 3.03 3.03 3.03zm0-4.54c.84 0 1.52.68 1.52 1.51a1.52 1.52 0 1 1-3.04 0c0-.83.68-1.51 1.52-1.51zM9.85 28.03c1.4 0 2.53-.98 2.88-2.27h.91v-1.52h-.91c-.34-1.3-1.47-2.27-2.88-2.27-1.67 0-3.03 1.36-3.03 3.03s1.36 3.03 3.03 3.03zm0-4.54c.84 0 1.52.68 1.52 1.51a1.52 1.52 0 1 1-3.04 0c0-.84.68-1.51 1.52-1.51zM17.1 29.55h2.6v-1.52h-3.46l-2.27 3.79h-1.24c-.34-1.3-1.47-2.27-2.88-2.27-1.67 0-3.03 1.36-3.03 3.03 0 1.67 1.36 3.03 3.03 3.03 1.4 0 2.53-.98 2.88-2.27h2.1l2.27-3.79zm-7.25 4.54a1.52 1.52 0 1 1 1.52-1.52c-.01.84-.69 1.52-1.52 1.52zM18.18 24.24h1.52v1.52h-1.52zM15.15 24.24h1.52v1.52h-1.52zM30.3 24.24h1.52v1.52H30.3zM33.33 24.24h1.52v1.52h-1.52zM32.34 17.35A10.56 10.56 0 0 0 25 14.4c-2.78 0-5.41 1.07-7.4 3l1.06 1.09A9.06 9.06 0 0 1 25 15.91c2.36 0 4.59.9 6.29 2.53l1.05-1.09zM17.65 32.65A10.53 10.53 0 0 0 25 35.61c2.86 0 5.54-1.12 7.55-3.16l-1.08-1.06A9.046 9.046 0 0 1 25 34.1c-2.36 0-4.6-.9-6.3-2.53l-1.05 1.08z"/><path class="st0" d="M25 12.12c3.34 0 6.5 1.27 8.91 3.58l1.05-1.09c-2.69-2.58-6.23-4-9.95-4-3.8 0-7.39 1.47-10.1 4.14l1.06 1.08c2.42-2.39 5.63-3.71 9.03-3.71zM25 37.88c-3.41 0-6.62-1.27-9.05-3.58l-1.04 1.1c2.71 2.58 6.29 4 10.09 4 3.72 0 7.25-1.37 9.94-3.86l-1.03-1.11c-2.4 2.22-5.57 3.45-8.91 3.45zM25.76 20.45v-1.52h-1.52v1.52c-1.25 0-2.27 1.02-2.27 2.27v.42c0 .98.62 1.85 1.55 2.16l2.48.83c.31.1.52.39.52.72v.42c0 .42-.34.76-.76.76h-1.52a.76.76 0 0 1-.76-.76v-.76h-1.52v.76c0 1.25 1.02 2.27 2.27 2.27v1.52h1.52v-1.52c1.25 0 2.27-1.02 2.27-2.27v-.42c0-.98-.62-1.85-1.55-2.16L24 23.87a.754.754 0 0 1-.52-.72v-.42c0-.42.34-.76.76-.76h1.52c.42 0 .76.34.76.76v.76h1.52v-.76a2.292 2.292 0 0 0-2.28-2.28z"/><path class="st0" d="M25 0C11.21 0 0 11.21 0 25s11.21 25 25 25 25-11.21 25-25S38.79 0 25 0zm0 47.73C12.47 47.73 2.27 37.53 2.27 25S12.47 2.27 25 2.27 47.73 12.47 47.73 25 37.53 47.73 25 47.73z"/></svg>
