<svg xmlns="http://www.w3.org/2000/svg" viewBox="0 0 141.73 141.73"><path d="M70.87 0C31.73 0 0 31.73 0 70.87s31.73 70.87 70.87 70.87 70.87-31.73 70.87-70.87S110 0 70.87 0zm3.05 101.15c-7 3.95-15.06 5.93-24.2 5.93-10.46 0-18.83-3.18-25.1-9.54-6.27-6.36-9.41-14.93-9.41-25.69 0-10.88 3.47-19.8 10.43-26.75 6.95-6.95 15.9-10.43 26.84-10.43 7.54 0 13.99 1.16 19.36 3.48v11.13c-5.52-3.41-12.2-5.11-20.04-5.11-7.39 0-13.43 2.49-18.14 7.46-4.7 4.98-7.06 11.5-7.06 19.58 0 8.32 2.16 14.81 6.49 19.47 4.33 4.66 10.18 6.99 17.57 6.99 4.88 0 9-.9 12.35-2.71V77.4H48.14v-9.23h25.78v32.98zm50.57-34.24v9.27h-24.38v29.72H89.25V35.84h37.27v9.32h-26.41v21.76h24.38z" fill="#1a1b1b"/></svg>
