<svg xmlns="http://www.w3.org/2000/svg" viewBox="0 0 463.54 463.54"><style>.st0{fill:#1a1b1b}</style><path class="st0" d="M231.77 0C103.77 0 0 103.77 0 231.77s103.77 231.77 231.77 231.77 231.77-103.77 231.77-231.77S359.77 0 231.77 0zm0 431.65c-110.21 0-199.88-89.66-199.88-199.88S121.56 31.89 231.77 31.89s199.88 89.66 199.88 199.88-89.67 199.88-199.88 199.88z"/><path class="st0" d="M231.77 45.89c-102.49 0-185.88 83.38-185.88 185.88s83.38 185.88 185.88 185.88 185.88-83.38 185.88-185.88S334.26 45.89 231.77 45.89zm-3.69 268.3c-19.04 10.75-40.99 16.13-65.86 16.13-28.48 0-51.25-8.66-68.32-25.97-17.07-17.31-25.6-40.62-25.6-69.92 0-29.62 9.46-53.9 28.37-72.81 18.91-18.91 43.27-28.37 73.06-28.37 20.52 0 38.08 3.16 52.69 9.48v30.28c-15.02-9.27-33.2-13.91-54.53-13.91-20.11 0-36.56 6.77-49.36 20.31-12.8 13.54-19.2 31.31-19.2 53.3 0 22.65 5.89 40.32 17.67 52.99 11.77 12.68 27.72 19.02 47.82 19.02 13.29 0 24.5-2.46 33.61-7.39v-47.76h-40.5v-25.11h70.17v89.73zM365.7 221v25.23h-66.35v80.88h-29.54V136.43h101.43v25.36h-71.89V221h66.35z"/></svg>
