<svg xmlns="http://www.w3.org/2000/svg" viewBox="0 0 400.75 400.75"><style>.st0{fill:#fff}</style><path class="st0" d="M200.38 0C89.89 0 0 89.89 0 200.38s89.89 200.38 200.38 200.38 200.38-89.89 200.38-200.38C400.75 89.89 310.86 0 200.38 0zm0 385.75C98.16 385.75 15 302.59 15 200.38S98.16 15 200.38 15s185.38 83.16 185.38 185.38-83.17 185.37-185.38 185.37z"/><path class="st0" d="M138.52 218.16h40.5v47.76c-9.11 4.92-20.31 7.39-33.61 7.39-20.11 0-36.05-6.34-47.82-19.02-11.78-12.68-17.67-30.34-17.67-52.99 0-21.99 6.4-39.76 19.2-53.3 12.8-13.54 29.26-20.31 49.36-20.31 21.34 0 39.51 4.64 54.53 13.91v-30.28c-14.61-6.32-32.17-9.48-52.69-9.48-29.79 0-54.14 9.46-73.06 28.37-18.9 18.92-28.36 43.19-28.36 72.81 0 29.3 8.53 52.61 25.6 69.92 17.07 17.32 39.84 25.97 68.32 25.97 24.87 0 46.82-5.37 65.86-16.13v-89.74h-70.17v25.12zM351.85 130.39v-25.35H250.42v190.68h29.54v-80.88h66.35V189.6h-66.35v-59.21z"/></svg>
