<svg xmlns="http://www.w3.org/2000/svg" viewBox="0 0 3891.95 3936.97"><style>.st0{fill:#414042}</style><path class="st0" d="M3603.85 0H2015.38c-158.84 0-288.11 129.17-288.11 288.01v3360.94c0 158.84 129.27 288.01 288.11 288.01h1588.47c158.84 0 288.11-129.17 288.11-288.01V288.01C3891.95 129.17 3762.68 0 3603.85 0zm92.14 3648.95c0 50.71-41.34 92.05-92.15 92.05H2015.38c-50.81 0-92.14-41.34-92.14-92.05V288.01c0-50.71 41.34-92.05 92.14-92.05h1588.47c50.81 0 92.15 41.34 92.15 92.05v3360.94z"/><path class="st0" d="M2057.96 1960.11c-8.32 419.29 326.09 767.3 745 775.82l7.42.09c-64 7.1-120.74 31.54-164.63 73.88-53.39 51.19-83.63 120.08-84.97 193.95-1.44 73.77 25.93 143.81 77.12 197.21 51.19 53.2 120.08 83.34 194.34 84.78h5.07c149.46 0 273.47-121.52 276.53-270.98 1.44-73.87-25.93-143.91-77.12-197.21-48.36-50.25-112.59-78.99-182.23-83.34 394.81-18.83 716.77-344.77 724.76-743.96 4.02-203.14-71.29-395.66-212.04-542.06-140.85-146.49-330.21-229.55-533.64-233.66-3.16 0-6.32-.1-9.47-.1-415.08 0-757.82 332.51-766.14 745.58zm837.53 993.4c14.83 15.5 22.77 35.88 22.39 57.41-.86 43.25-36.17 76.45-82.29 78.94-21.53-.48-41.53-9.19-56.45-24.78-14.93-15.41-22.87-35.79-22.39-57.51.38-21.43 9.09-41.43 24.78-56.45 14.93-14.35 34.64-22.29 55.59-22.29v-24.5l1.91 24.5c21.44.38 41.44 9.09 56.46 24.68zm-77.03-1543.02l11.39.1c150.8 3.06 291.46 64.59 395.95 173.29 104.58 108.79 160.56 251.84 157.5 402.64-6.12 305.24-259.31 553.63-564.54 553.63l-11.39-.19c-150.61-2.97-291.17-64.68-395.85-173.57-104.68-108.99-160.66-251.84-157.59-402.45 6.02-305.14 259.2-553.45 564.53-553.45zM2837.5 1177.79c71.67 0 139.6-27.37 191.47-77.12 53.3-51.38 83.44-120.18 84.87-193.86 3.06-152.43-118.55-279.02-271.94-282.18-154.63 2.49-278.16 121.52-281.12 271.08-1.44 73.77 25.93 143.81 77.12 197.21 51.19 53.11 119.99 83.25 194.34 84.87h5.26zm0-24.5l-.01-.05h.01v.05zm-80.76-253.75c.77-43.54 36.93-78.94 80.57-78.94v-24.45l1.63 24.45c44.4.96 79.8 37.89 78.94 82.38-.48 21.34-9.19 41.43-24.69 56.26-15.41 14.74-35.5 22.58-57.51 22.58-21.62-.48-41.62-9.28-56.55-24.78-14.83-15.4-22.86-35.88-22.39-57.5z"/><path class="st0" d="M2360.13 2073.21h112.13c12.82 111.06 106.32 197.88 220.76 197.88 114.61 0 208.2-86.82 221.04-197.88h57.5v167.54c0 13.49 11 24.5 24.5 24.5h146.97c13.49 0 24.5-11 24.5-24.5v-167.54h109.56c13.49 0 24.5-11 24.5-24.5v-146.97c0-13.49-11-24.5-24.5-24.5h-113.14c-17.09-106.45-108.72-188.21-219.85-188.21s-202.76 81.76-219.85 188.21h-58.6V1709.8c0-13.49-11-24.5-24.5-24.5h-146.97c-13.49 0-24.5 11-24.5 24.5v167.45h-109.56c-13.49 0-24.5 11-24.5 24.5v146.97c.01 13.49 11.02 24.49 24.51 24.49zm337.55 0c-1.72.33-2.85 1.91-4.66 1.91s-2.92-1.58-4.62-1.91h9.28zM3475.24 612.86c-124.58-9.66-226.2-110.9-236.44-235.67-5.74-67.94-60.86-119.13-128.12-119.13h-584.16c-67.55 0-122.57 51.38-128.12 119.42-10.33 125.63-108.89 224.67-234.33 235.39-68.7 5.65-120.47 61.24-120.47 129.37v336.91c0 13.49 11 24.5 24.5 24.5h146.97c13.49 0 24.5-11 24.5-24.5V799.16c172.04-37.6 307.34-172.9 345.23-345.14h467.71c37.51 172.33 172.71 307.63 345.04 345.14v226.01c0 13.49 11 24.5 24.5 24.5h146.97c13.49 0 24.5-11 24.5-24.5V739.45c-.01-66.59-50.82-121.04-118.28-126.59zM3569.02 2855.82h-146.97c-13.49 0-24.5 11-24.5 24.5v226.01c-172.33 37.6-307.53 172.9-345.04 345.14h-467.8c-37.8-172.04-173-307.25-345.14-345.04v-280.07c0-13.49-11-24.5-24.5-24.5H2068.1c-13.49 0-24.5 11-24.5 24.5v336.91c0 68.03 51.77 123.72 120.28 129.46 125.54 10.72 224.19 109.66 234.52 235.19 5.55 68.13 60.57 119.51 128.12 119.51h584.16c67.27 0 122.38-51.29 128.12-119.32 10.33-126.69 109.66-225.72 236.15-235.58 67.55-4.98 118.55-59.32 118.55-126.5v-285.72c.01-13.49-10.99-24.49-24.48-24.49zM1641.92 814.38c-306.86-108.41-637.55-92.62-930.92 44.4-615.64 287.34-882.8 1022.01-595.45 1637.65 208.31 446.18 647.21 711.99 1113.01 711.99 137.21 0 276.72-23.06 413.36-71.38 9.86-3.44 16.36-12.73 16.36-23.06v-123.91c0-8.13-4.02-15.69-10.72-20.29-6.7-4.5-15.41-5.45-22.77-2.49-524.93 207.92-1122.2-29.57-1360.64-540.14-249.07-533.73-17.51-1170.71 516.13-1419.87 267.54-124.77 567.51-133.48 844.52-23.83 7.37 3.06 16.08 2.01 22.77-2.49 6.7-4.59 10.72-12.15 10.72-20.29V837.44c-.01-10.43-6.52-19.62-16.37-23.06z"/><path class="st0" d="M887.82 1797.16c83.53-39.04 163.91-54.64 239.02-45.55 8.8.86 17.51-2.77 22.77-9.95 5.17-7.18 6.03-16.65 2.3-24.69l-58.46-125.16c-4.11-8.9-13.01-13.68-22.87-14.16-75.5 2.2-158.17 24.02-245.62 64.78-128.6 60.09-216.06 151.57-259.88 271.94-43.73 120.47-35.59 246.39 24.02 374.22 59.13 126.69 144.68 211.46 254.33 252.23 45.55 16.94 92.43 25.36 140.56 25.36 68.13 0 138.65-16.84 210.79-50.62 106.31-49.56 190.51-117.41 250.5-201.61 5.17-7.27 6.03-16.65 2.3-24.59l-173.09-370.68c-5.74-12.25-20.29-17.51-32.53-11.86l-289.93 135.3c-5.93 2.77-10.43 7.75-12.73 13.87-2.2 6.03-1.91 12.82.86 18.66l48.51 103.72c5.74 12.25 20.09 17.32 32.53 11.86l145.06-67.75 75.4 161.42c-25.45 29.76-61.14 55.4-106.31 76.55-77.31 36.26-147.55 40.47-214.81 13.11-66.88-27.17-121.42-85.26-162.09-172.52-39.52-84.59-47.17-165.06-22.49-239.21 24.89-74.73 74.55-128.6 151.86-164.67zM1623.45 1285.72l-378.82 176.83c-5.93 2.77-10.43 7.75-12.73 13.87-2.2 6.03-1.91 12.82.86 18.66l367.81 787.97c2.77 5.93 7.75 10.53 13.87 12.73 2.68.96 5.55 1.44 8.32 1.44 3.54 0 7.08-.77 10.43-2.3l11-5.17c8.61-4.02 14.07-12.73 14.07-22.2v-289.83c0-3.54-.77-7.08-2.3-10.33l-34.64-74.06 22.77-10.62c8.61-4.02 14.16-12.63 14.16-22.2v-126.97c0-8.42-4.31-16.17-11.39-20.67-6.89-4.5-15.88-4.98-23.44-1.53l-71.38 33.39-93.48-200.27 185.53-86.6c8.61-4.02 14.16-12.73 14.16-22.2v-127.74c0-8.32-4.31-16.17-11.29-20.67-7.05-4.49-15.95-4.97-23.51-1.53z"/></svg>
