<svg xmlns="http://www.w3.org/2000/svg" viewBox="0 -144 1008 1008"><path fill="currentColor" d="M605 553h151c14 0 26 5 36 15s15 22 15 36v151c0 14-5 26-15 36s-22 15-36 15H605c-14 0-26-5-36-15s-15-22-15-36V604c0-14 5-26 15-36s22-15 36-15zm-353 2h151v-2c14 0 26 5 36 15s15 22 15 36v151c0 14-5 26-15 36s-22 15-36 15H252c-14 0-25-4-32-11-12-12-18-25-18-39V605c0-19 8-34 25-44 8-4 16-6 25-6zm353-353h151c14 0 26 5 36 15s15 22 15 36v151c0 14-5 26-15 36s-22 15-36 15H605c-14 0-26-5-36-15s-15-22-15-36V253c0-14 5-26 15-36s22-15 36-15zm-353 0h151c14 0 26 5 36 15s15 22 15 36v151c0 14-5 26-15 36s-22 15-36 15H252c-14 0-26-5-36-15s-15-22-15-36V253c0-14 5-26 15-36s22-15 36-15z"/></svg>
