<svg xmlns="http://www.w3.org/2000/svg" viewBox="0 0 3743.32 2523.02"><style>.st0{fill:#565656}</style><path class="st0" d="M2913.26 1604.23c-27.9 24.81-30.36 67.54-5.59 95.43 26.3 29.53 22.48 87.64 1.05 112.72-13.03 15.26-47.74 31.99-83.28 33.57-12.8.31-35.86-.75-53.2-16.59-1.41-1.37-2.41-2.95-3.87-4.27l-796.31-677.26h-.09c-28.34-24.16-70.92-20.68-95.12 7.66-24.19 28.42-20.8 71.05 7.61 95.25l.04.05 5.68 4.84 789.75 672.59c.44.44 1.05.75 1.5 1.19 2.47 2.59 6.12 7.7 6.56 22.13 1.19 39.2-25.83 97.9-61.5 133.58-37.54 37.56-109.33 13.81-121.21 4.35l-700.09-635.11c-27.67-25.04-70.34-23.1-95.47 4.66-24.68 27.24-22.74 68.95 3.7 94.15.17.18.08.49.26.67l.7.66.14.09 620.2 578.84c21.9 22.7 3.25 84.96-24.51 113.19-28.37 34.89-102.77 16.1-116.37 6.3l-542.37-521.17c-.32-.31-.88-.14-1.19-.4-26.4-24.51-67.36-24.42-93.09 1.05-26.57 26.22-26.84 68.98-.62 95.56l403.26 408.09c12.98 15.79 19.01 35.73 16.98 56.1-1.98 20.33-11.79 38.67-27.59 51.57l-10.95 9.59c-32.08 28.78-85.84 77.13-219.62-35.37-28.55-23.93-71.14-20.32-95.21 8.27-24.02 28.55-20.33 71.19 8.27 95.21 80.24 67.44 156.14 101.63 228.03 101.63 61.15 0 119.45-24.72 175.06-74.7 31.58-25.82 54.15-59.61 66.56-97.49 31.81 30.75 92.7 51.2 153.24 51.2 3.65 0 7.26-.08 10.87-.22 62.52-2.55 114.17-26.66 144.83-64.68 27.59-27.58 49.93-69.47 60.94-115.13 28.77 11.26 62.6 19.14 98.37 19.14 52.71 0 108.23-16.24 152.44-60.49 45.62-45.66 88.47-121.95 97.32-199.56.31 0 .57.08.84.08 3.69 0 7.43-.05 11.22-.22 70.13-3.13 140.78-34.8 180.07-80.78 60.45-70.74 73.74-204.31-2.81-290.36-24.81-27.87-67.45-30.42-95.43-5.61z"/><path class="st0" d="M1512.33 2070.01c-37.88-26.62-83.72-32.17-124.9-20.24l.22-.23c50.6-62.95 40.65-155.04-22.3-205.68-40.39-32.43-92.7-39.68-138.45-24.28 27.49-59.7 12.36-132.56-41.36-175.37-63.18-50.24-155.26-39.91-205.55 23.27l-20.36 25.56c.04-34.58-11.58-69.38-36.43-97.32-53.72-60.4-146.29-65.73-206.51-12.01L586.02 1700c-60.37 53.72-65.77 146.2-12.06 206.51 28.9 32.47 69.03 49.02 109.33 49.02 34.57 0 75.53 103.38 134.53 150.37 26.92 21.43 59.09 31.85 91.03 31.85 28.42 0 92.21 74.58 133.39 107.7 27.06 21.7 59.44 32.29 91.64 32.29 33.53 0 104.09 78.76 152.62 112.94 25.61 17.99 54.99 26.66 84.07 26.66 46.02 0 91.25-21.65 119.75-62.03l57.37-81.48c46.51-66.03 30.67-157.32-35.36-203.82zM674.49 1468.11c-153.8-89.71-372.51-269.74-492.48-427.85-35.94-201.32 287.42-602.65 467.4-672.73 18.21 1.1 180.86 45.62 278.49 92.56 61.94-60.05 170.83-122 170.83-122-325.78-143.37-452.61-153.89-483.64-148.3-4.26.75-8.53 1.85-12.67 3.21C333 282.18-74.88 796.13 11.88 1103.7c2.95 10.51 7.83 20.41 14.34 29.21 138.45 186.8 331.15 358.6 513.11 464.72l135.16-129.52zM3129.5 0c-66.13 43.19-230.62 137.22-230.62 137.22 255.3 33.79 596.92 309.02 630.45 755.26 67.58-59.03 174.57-148.88 213.99-185.61C3702.31 328.68 3360.65 50.9 3129.5 0z"/><path class="st0" d="M2783.44 241.13c-53.24 33.57-231.46 106.95-339.86 133.35-85.49 20.86-532.92-162.3-613.03-175.06-80.12-12.76-718.4 227.54-768.42 326.8-50.02 99.29 200.22 274.22 420.47 226.79 220.19-47.43 280.59-103.3 335.5-65.33 54.91 37.92 718.48 654.38 1050.73 831.64 213.29 113.77 488.87-444.71 559.4-537.4-53.94-241.49-250.43-702.12-644.79-740.79z"/></svg>
