<svg xmlns="http://www.w3.org/2000/svg" viewBox="0 0 32.53 31.32"><path d="M9.32 21.19H6.49c-.36 0-.66.3-.66.66v5.04c0 .36.3.66.66.66h2.83c.36 0 .66-.3.66-.66v-5.04a.66.66 0 0 0-.66-.66zm-.66 5.04H7.15v-3.72h1.51v3.72z"/><path d="M32.43 9.76L26.53.31a.663.663 0 0 0-.56-.31H6.56c-.23 0-.44.12-.56.31L.1 9.76c-.13.2-.13.46-.02.67.12.21.34.34.58.34h1.71V30H1.23c-.36 0-.66.3-.66.66s.3.66.66.66h30.05c.36 0 .66-.3.66-.66s-.27-.66-.63-.66h-1.15V10.77h1.71c.24 0 .46-.13.58-.34.12-.21.11-.46-.02-.67zM19.04 30h-5.56v-6.79c0-1.44 1.25-2.61 2.78-2.61s2.78 1.17 2.78 2.61V30zm1.33 0v-6.79c0-2.17-1.84-3.94-4.1-3.94s-4.1 1.77-4.1 3.94V30H3.69V10.77h7.56c.17 0 .33-.06.45-.18l4.56-4.32 4.56 4.32c.12.12.29.18.45.18h7.56V30h-8.46zm1.17-20.55l-4.82-4.57a.665.665 0 0 0-.91 0l-4.82 4.57H1.85l5.08-8.13h18.68l5.08 8.13h-9.15z"/><path d="M26.04 21.19h-2.83c-.36 0-.66.3-.66.66v5.04c0 .36.3.66.66.66h2.83c.36 0 .66-.3.66-.66v-5.04a.66.66 0 0 0-.66-.66zm-.66 5.04h-1.51v-3.72h1.51v3.72zM26.04 13.4h-2.83c-.36 0-.66.3-.66.66v4c0 .36.3.66.66.66h2.83c.36 0 .66-.3.66-.66v-4c0-.37-.29-.66-.66-.66zm-.66 4h-1.51v-2.68h1.51v2.68zM9.32 13.4H6.49c-.36 0-.66.3-.66.66v4c0 .36.3.66.66.66h2.83c.36 0 .66-.3.66-.66v-4c0-.37-.29-.66-.66-.66zm-.66 4H7.15v-2.68h1.51v2.68zM16.27 9.98c-1.57 0-2.85 1.28-2.85 2.85s1.28 2.85 2.85 2.85 2.85-1.28 2.85-2.85-1.28-2.85-2.85-2.85zm0 4.39c-.85 0-1.53-.69-1.53-1.53s.69-1.53 1.53-1.53c.85 0 1.53.69 1.53 1.53s-.69 1.53-1.53 1.53z"/></svg>
