<svg xmlns="http://www.w3.org/2000/svg" viewBox="-2 -189 1260 1008"><path fill="currentColor" d="M1138 373h-110v-31c0-6-2-12-6-16s-10-6-16-6h-31c-6 0-12 2-16 6s-6 10-6 16v31H827c-6 0-12 2-16 6s-6 10-6 16v31c0 6 2 12 6 16s10 6 16 6h224c-11 27-31 55-59 85-14-14-25-28-35-42-4-6-8-10-14-12s-12 1-18 4l-27 16c-6 4-10 10-12 16s0 12 4 18c12 17 25 35 41 53-16 12-33 23-51 35-6 2-10 6-12 12s-2 12 0 18l16 27c2 6 6 10 12 12s11 0 18-4c23-14 47-29 68-47 22 18 46 33 69 47 6 4 12 4 18 2s10-6 12-12l16-27c2-6 2-12 0-18s-6-10-12-12c-18-10-36-21-51-35 41-46 69-91 82-136h22c6 0 12-2 16-6s6-10 6-16v-31c0-6-2-12-6-16s-10-6-16-6zm71 453l-551-4V192h551c14 0 25 4 35 14s14 21 14 35v536c0 13-4 25-14 35s-21 14-35 14zM282 407h-2c5 21 11 43 17 65l22 74h-75l22-74c4-16 10-38 16-65zm61 210l17 63-2 2c4 12 12 18 24 18h45c8 0 14-4 18-10s6-14 4-22L337 336c-4-10-12-16-24-16h-63c-12 0-20 6-24 16L114 668c-2 8 0 16 4 22s10 10 18 10h45c6 0 12-2 16-6s8-8 10-14l17-63h119zm256-427v630l-552 4c-14 0-25-4-35-14s-14-22-14-35V239c0-14 4-25 14-35s21-14 35-14h552z"/></svg>
