<svg xmlns="http://www.w3.org/2000/svg" viewBox="0 0 957.28 935.34"><path d="M441.65 108.64c14.66 0 26.59-11.94 26.59-26.59s-11.94-26.59-26.59-26.59c-14.67 0-26.61 11.94-26.61 26.59s11.94 26.59 26.61 26.59zm0-43.97c9.58 0 17.36 7.79 17.36 17.38s-7.79 17.38-17.36 17.38-17.38-7.79-17.38-17.38 7.8-17.38 17.38-17.38zM321.54 524.85c14.67 0 26.59-11.94 26.59-26.62 0-14.66-11.92-26.59-26.59-26.59s-26.59 11.94-26.59 26.59c0 14.69 11.92 26.62 26.59 26.62zm0-43.97c9.58 0 17.38 7.79 17.38 17.35 0 9.59-7.8 17.38-17.38 17.38s-17.38-7.79-17.38-17.38c.01-9.56 7.81-17.35 17.38-17.35z"/><path d="M503.46 745.57L470.83 529.4c-1.56-10.28-10.11-18.06-20.5-18.67-9.91-.49-19.74 6.18-22.47 16.23-12.95 48.01-56.67 81.53-106.32 81.53s-93.37-33.52-106.31-81.53c-2.69-10.05-12.22-16.75-22.47-16.23-10.39.6-18.94 8.39-20.5 18.67l-32.62 216.16C60.31 760.26 0 829.84 0 913.35c0 12.14 9.85 21.99 21.99 21.99h599.13c12.14 0 21.99-9.85 21.99-21.99-.01-83.51-60.32-153.09-139.65-167.78zM206.05 600.26c28.6 32.38 70.28 52.22 115.5 52.22 45.2 0 86.9-19.87 115.51-52.24l21.48 142.36H184.56l21.49-142.34zM45.88 891.37c10.45-59.46 62.46-104.8 124.87-104.8h301.6c62.41 0 114.42 45.35 124.87 104.8H45.88z"/><path d="M321.54 580.28c45.23 0 82.03-36.81 82.03-82.05s-36.8-82.02-82.03-82.02-82.03 36.79-82.03 82.02 36.8 82.05 82.03 82.05zm0-120.1c20.98 0 38.06 17.06 38.06 38.05s-17.08 38.07-38.06 38.07-38.06-17.09-38.06-38.07 17.08-38.05 38.06-38.05zM441.65 164.09c45.23 0 82.03-36.81 82.03-82.05S486.88 0 441.65 0C396.4 0 359.6 36.81 359.6 82.05s36.8 82.04 82.05 82.04zm0-120.12c20.98 0 38.06 17.09 38.06 38.07s-17.08 38.07-38.06 38.07c-21 0-38.07-17.09-38.07-38.07s17.07-38.07 38.07-38.07zM546.08 93.33c-12.14 0-21.99 9.85-21.99 21.99s9.85 21.99 21.99 21.99h176.59c12.14 0 21.99-9.85 21.99-21.99s-9.85-21.99-21.99-21.99H546.08z"/><path d="M533.26 43.97h300.47c21.77 0 39.48 17.72 39.48 39.51v93.01h-78.97v-61.18c0-12.14-9.85-21.99-21.99-21.99s-21.99 9.85-21.99 21.99v83.16c0 12.14 9.85 21.99 21.99 21.99h122.94c12.14 0 21.99-9.85 21.99-21.99v-115C917.18 37.44 879.75 0 833.73 0H533.26c-12.14 0-21.99 9.85-21.99 21.99s9.85 21.98 21.99 21.98zM261.5 409.28c3.59 0 7.2-.89 10.49-2.66 30.26-16.43 68.85-16.43 99.11 0 5.58 3.06 12.22 3.49 18.16 1.29a22.02 22.02 0 0 0 12.9-12.85l74.1-196.61c4.28-11.37-1.45-24.05-12.81-28.34-11.44-4.24-24.05 1.46-28.33 12.83l-65.97 175.03c-22.57-7.64-47.15-9.73-70.74-6.04l74.99-198.04c4.31-11.37-1.42-24.05-12.77-28.34-11.31-4.29-24.05 1.43-28.34 12.77l-91.35 241.21a21.981 21.981 0 0 0 6.1 24.36c4.09 3.56 9.26 5.39 14.46 5.39zM948.32 312.41l-29.57-21.76c-7.26-5.29-16.69-5.49-24.02-1.26 6.01-10.39 9.71-22.28 9.71-35.12 0-12.14-9.85-21.99-21.99-21.99-12.14 0-21.99 9.85-21.99 21.99 0 14.74-11.99 26.74-26.74 26.74-14.74 0-26.74-11.99-26.74-26.74 0-12.14-9.85-21.99-21.99-21.99-12.14 0-21.99 9.85-21.99 21.99 0 12.84 3.7 24.73 9.71 35.13-7.33-4.23-16.76-4.03-24.03 1.26l-29.59 21.76a22.01 22.01 0 0 0-8.96 17.72v79.78c0 12.14 9.85 21.99 21.99 21.99s21.99-9.85 21.99-21.99v-68.65l20.63-15.17c7.27-5.36 10.26-14.33 8.37-22.61 7.85 8.07 17.68 14.03 28.62 17.64v39.72c0 12.14 9.85 21.99 21.99 21.99 12.14 0 21.99-9.85 21.99-21.99v-39.72c10.93-3.61 20.76-9.57 28.61-17.64-1.89 8.27 1.09 17.24 8.37 22.61l20.61 15.14v68.68c0 12.14 9.85 21.99 21.99 21.99 12.14 0 21.99-9.85 21.99-21.99v-79.78c0-6.99-3.32-13.58-8.96-17.73z"/></svg>
