<svg xmlns="http://www.w3.org/2000/svg" viewBox="0 0 26.73 30"><style>.st0{fill:#727171}</style><path class="st0" d="M13.96 18.19c-1.38-.51-1.69-.74-1.63-1.2.08-.63.75-.74 1.12-.73.17.01.99.1.99.9h1.7c0-1.22-.77-2.17-1.93-2.49V14h-1.7v.68c-.93.26-1.72.96-1.87 2.1-.24 1.91 1.54 2.57 2.86 3.06 1.01.38 1.51.97 1.34 1.59-.15.56-.83 1.06-1.76.89-.51-.09-1.08-.44-1.21-1.01-.02-.08-.03-.17-.03-.25h-1.7c0 .2.02.41.07.62.25 1.09 1.14 1.94 2.29 2.25v.69h1.7v-.65c1.09-.25 1.98-1.02 2.27-2.08.33-1.16-.11-2.8-2.51-3.7z"/><path class="st0" d="M25.58 24.89c-1.36-.79-1.35-1.33-1.32-2.77l.01-.44c.01-.52.05-1.09.1-1.69.07-.84.14-1.75.14-2.75 0-4.07-2.53-7.67-6.46-9.59.22-.24.29-.58.16-.9a.808.808 0 0 0-.35-.38l1.98-1.98-.05-.41C19.44 1.23 16.32 0 13.37 0c-2.95 0-6.08 1.23-6.42 3.96l-.05.42 1.98 1.98c-.15.09-.28.21-.35.38-.13.32-.06.66.16.9-3.94 1.92-6.46 5.52-6.46 9.59 0 1 .07 1.92.14 2.75.05.61.09 1.17.1 1.69l.01.44c.03 1.44.05 1.98-1.32 2.77-1.29.74-1.39 2.17-.83 3.14.56.97 1.84 1.59 3.13.85 1.57-.9 2.64-.54 4.43.07C9.27 29.41 11 30 13.36 30c2.37 0 4.09-.59 5.48-1.06 1.79-.61 2.86-.97 4.43-.07 1.29.74 2.57.12 3.13-.85.57-.96.46-2.39-.82-3.13zm-8.5-14.3c0 .44-.36.8-.8.8-.44 0-.8-.36-.8-.8 0-.67.53-1.79.79-1.85.28.06.81 1.18.81 1.85zm-1.29-8.51c-.07 1.76-.4 3.2-.98 3.86.52-.4 1.99-1.98 2.96-2.61.1.15.19.3.24.47l-3.09 3.09c-1.03.17-2.08.17-3.11 0L8.72 3.8c.68-1.94 4.52-2.51 7.07-1.72zm9.15 25.1c-.09.16-.35.49-.82.23-2.23-1.29-3.98-.7-5.83-.07-1.33.45-2.85.97-4.93.97-2.08 0-3.6-.51-4.93-.97-1.85-.63-3.59-1.22-5.83.07-.46.27-.72-.07-.82-.23-.08-.16-.24-.56.22-.82 1.14-.66 1.68-1.36 1.95-2.08.6.67 1.41 1.16 2.54 1.16-.01 0-1.86-.74-2.36-4.37-.02-.4-.04-.78-.07-1.22-.06-.8-.13-1.66-.13-2.62 0-3.94 2.87-7.37 7.16-8.72.75.15 1.51.23 2.28.23.54 0 1.07-.08 1.59-.16-.4.67-.61 1.53-.61 2.01 0 1.07.87 1.93 1.93 1.93.99 0 1.78-.76 1.89-1.72.38 1.17.45 2.51-.25 3.21l.8.8c1.13-1.13 1-3.01.51-4.46 2.22 1.72 3.58 4.18 3.58 6.88 0 .95-.07 1.82-.13 2.62-.03.44-.05.84-.07 1.24-.5 3.62-2.36 4.35-2.36 4.35 1.14-.01 1.94-.5 2.54-1.16.26.73.81 1.42 1.94 2.08.46.26.3.66.21.82z"/></svg>
