<svg xmlns="http://www.w3.org/2000/svg" viewBox="0 -168 1008 1008"><path fill="currentColor" d="M715 504h-85c0-69-57-126-126-126v-85c57 0 106 22 148 63 41 42 63 91 63 148zm167 0h-85c0-81-29-150-86-207s-126-86-207-86v-85c104 0 195 37 268 110s110 164 110 268zm-41 148c23 0 41 17 41 41v148c0 23-18 41-41 41-197 0-367-69-506-209-140-139-209-309-209-506 0-23 18-41 41-41h148c24 0 41 18 41 41 0 53 8 103 24 150 6 18 2 31-10 43l-92 93c61 120 153 212 277 277l93-92c12-12 25-16 43-10 47 16 97 24 150 24z"/></svg>
