<svg xmlns="http://www.w3.org/2000/svg" viewBox="0 0 568.27 645.39"><path d="M568.27 0H124.02v59.88H64.14v521.37h444.25v-59.88h59.88V0zM476.2 549.06H96.34V92.07h27.68v429.31H476.2v27.68zm59.87-59.88H156.21V32.19h379.86v456.99z"/><path d="M412.05 613.2H32.19V156.22h5.15v-32.19H0v521.36h444.25v-37.34h-32.2zM212.55 212.22h131.99v32.19H212.55zM212.55 112.3h133.6v32.19h-133.6z"/><path d="M212.55 306.36h133.6v32.19h-133.6zM212.55 400.5h131.99v32.19H212.55zM440.93 144.49h45.68V112.3h-29.58V82.72h-32.19v45.68c-.01 8.89 7.2 16.09 16.09 16.09zM440.93 244.41h45.68v-32.19h-29.58v-29.58h-32.19v45.68c-.01 8.89 7.2 16.09 16.09 16.09zM440.93 344.33h45.68v-32.19h-29.58v-29.58h-32.19v45.67c-.01 8.9 7.2 16.1 16.09 16.1zM440.93 444.26h45.68v-32.19h-29.58v-29.58h-32.19v45.68c-.01 8.88 7.2 16.09 16.09 16.09z"/></svg>
