<svg xmlns="http://www.w3.org/2000/svg" viewBox="0 0 90.23 141.73"><style>.st0{fill:#434a54}</style><path class="st0" d="M30.92 32.39c.26-1.54.64-1.57.85.03.72 5.97 4.76 13.35 11.75 13.35h3.24c6.97 0 11.01-7.41 11.73-13.35.18-1.47.59-1.52.85-.03 2.57 15.05 21.79 3.78 9.75-4.09-.72-.46-.59-.59-.28-1.13 1.98-3.73.62-6.2-3.19-7.74-.93-.39-.85-.54-.39-1.26 1.78-2.79.77-8.37-5.63-7.47-.95.13-1.18.1-.95-1.03 1.11-5.66-3.34-8.15-7.38-6.12-.69.33-.82.33-1.18-.44-1.9-4.24-8.21-4.04-9.77-.05-.28.69-.46.8-1.18.44-4.09-2.01-8.62.54-7.51 6.17.21 1.11.18 1.18-.98 1.03-6.4-.9-7.41 4.68-5.61 7.46.46.75.57.87-.41 1.26-3.81 1.54-5.17 4.01-3.16 7.74.28.54.44.64-.28 1.13-12.08 7.85 7.13 19.14 9.73 4.1zm16.98 5.83h-5.51c-.9 0-.93-.05-.62-.87 1.11-2.96 5.68-2.93 6.71.03.29.79.32.84-.58.84zM31.3 20.04c2.8-1.7 3.4-4.01 2.55-6.71-.39-1.21-.28-1.31.98-1.11 2.98.54 5.12 0 6.2-2.73.36-.87.59-.85 1.29-.39 1.65 1.11 4.09.98 5.71-.15.69-.49.95-.46 1.29.41 1.08 2.73 3.14 3.34 6.12 2.86 1.29-.21 1.34-.05.95 1.11-.85 2.73-.23 5.07 2.65 6.74.59.36.62.49.33 1.11-.67 1.49-.49 2.52-.87 3.68-1.49 4.53-3.65 7.61-6.17 9.93-.67.62-.72.62-1.03-.28-1.03-2.93-2.73-3.99-6.17-3.99-3.42 0-5.12 1.05-6.15 3.99-.33.9-.39.87-1.05.28-2.52-2.32-4.68-5.45-6.2-10.01-.39-1.18.23-1.93-.72-3.58-.43-.7-.32-.83.29-1.16z"/><path class="st0" d="M36.11 26.06c.46-.28.46-.41.26-.85-3.55-7.2 8.49-7.72 4.55 0-.21.39-.26.54.26.85.77.44.87.46 1.16-.13 2.06-4.09 3.5-4.09 5.56.03.28.57.41.54 1.18.1.46-.28.46-.41.23-.85-3.94-7.72 8.1-7.2 4.58 0-.21.41-.26.54.23.85.82.46.9.46 1.18-.13 4.12-8.31-7.2-10.34-8.31-4.78-.03.23-.03.28-.36.13-1.08-.49-1.93-.49-3.04 0-.31.13-.31.13-.36-.13-1.11-5.56-12.4-3.52-8.31 4.78.29.56.4.59 1.19.13zM88.79 79.9H1.44c-.8 0-1.44.64-1.44 1.44v4.73c0 .8.64 1.44 1.44 1.44h87.35c.8 0 1.44-.64 1.44-1.44v-4.73c0-.8-.64-1.44-1.44-1.44zM8.39 75.99h73.46c2.44 0 2.29-.1 1.62-2.32-7-23.07-8.82-25.49-25.31-28.94-.72-.15-.82-.26-1.36.41-.98 1.16-1.93 2.31-2.91 3.5-.7.85-.93 1.31.13 1.75 13.79 5.97 6.46 15.25-.03 13.5-1.44-.39-1.52-.21-2.11 1.08-3.6 7.87-9.57 8-13.27.51-.9-1.83-1.11-1.93-2.34-1.59-6.3 1.7-13.09-6.69-.03-13.5.93-.49.82-.88.1-1.75-.95-1.18-1.93-2.34-2.88-3.5-.46-.57-.62-.57-1.39-.41-16.56 3.35-18.21 5.97-25.28 28.94-.67 2.19-.85 2.32 1.6 2.32zM82.26 91.52H7.97c-.9 0-1.62.75-1.62 1.65v46.94c0 .88.72 1.62 1.62 1.62h74.29c.9 0 1.62-.75 1.62-1.62V93.17c0-.9-.72-1.65-1.62-1.65zm-6.61 35.09c0 2.55-.26 2.73-2.73 2.73H17.54c-2.6 0-2.73-.51-2.73-2.73v-21.32c0-2.21.13-2.73 2.73-2.73h55.38c2.29 0 2.73.18 2.73 2.73v21.32z"/></svg>
