<svg xmlns="http://www.w3.org/2000/svg" viewBox="0 -204 1008 1008"><path fill="currentColor" d="M315 568v81L4 962l-2-4c-2-6-2-10-2-12V64c0-18 6-32 18-43C30 9 43 3 61 3h189c18 0 32 6 43 18 12 11 18 27 18 45v63H201c-4 0-8 2-12 6s-6 8-6 12v31c0 4 2 8 6 12s8 6 12 6h110v126H201c-4 0-8 2-12 6s-6 8-6 12v31c0 4 2 8 6 12s8 6 12 6h110v126H201c-4 0-8 2-12 6s-6 8-6 12v31c0 4 2 8 6 12s8 6 12 6zm626 140c18 0 32 6 43 17 12 12 18 28 18 46v189c0 18-6 33-18 45-11 12-27 18-45 18H57c-2 0-6 0-12-2l-4-2 313-311h81v110c0 4 2 8 6 12s8 6 12 6h31c4 0 8-2 12-6s6-8 6-12V708h126v110c0 4 2 8 6 12s8 6 12 6h31c4 0 8-2 12-6s6-8 6-12V708h126v110c0 4 2 8 6 12s8 6 12 6h31c4 0 8-2 12-6s6-8 6-12V708h53z"/></svg>
