<svg xmlns="http://www.w3.org/2000/svg" viewBox="0 -202 665 1008"><path fill="currentColor" d="M369 253c19-13 37-19 56-19 43 0 79 32 79 90v421c0 58-36 91-79 91-19 0-37-6-56-19l-112-74c-15-11-36-21-63-29s-49-12-68-12c-36 0-66-12-90-36-24-25-36-55-36-90v-83c0-36 12-65 36-89 25-25 55-37 90-37 19 0 41-4 69-11 27-8 46-18 62-29zm46 494l4 3 1-5V324l-1-5-42 28-41 28v319zM84 576v2c0 23 19 43 42 43 24 0 51 5 85 14 32 9 60 20 83 33V404c-23 13-51 24-83 33-31 8-58 13-85 13-23 0-42 19-42 43v83zm474-153v-2c17-16 44-16 60 0 32 31 47 69 47 115 0 44-15 81-47 113-8 8-18 13-30 13-11 0-21-5-30-13-16-16-16-43 0-59 31-29 31-78 0-107-16-17-16-44 0-60z"/></svg>
