<svg xmlns="http://www.w3.org/2000/svg" viewBox="0 0 426.26 431.68"><path d="M426.26 173.17C426.26 89.26 396.28.08 340.71.01h-.14c-16.78.02-31.21 8.21-43.2 21.88L184.21 87.22h-91.4c-8.56 0-16.38 7.85-22.4 20.76H35.3C15.17 107.98 0 136 0 173.16s15.18 65.18 35.3 65.18h35.11c4.77 10.23 10.68 17.2 17.18 19.67L76.82 383.5c-2.1 24.42 16 45.92 40.42 48.02s45.92-16 48.02-40.42c.32-3.76.12-7.67-.46-11.22l-20.49-120.76h39.91l113.17 65.34c12.01 13.69 26.46 21.88 43.27 21.88 55.59-.01 85.6-89.23 85.6-173.17zm-40.03 0c0 80.04-27.44 133.14-45.59 133.14-18.15 0-45.58-53.1-45.58-133.14S322.5 40.03 340.64 40.03c18.15 0 45.59 53.1 45.59 133.14z"/><path d="M327.69 121.79c26.34 0 47.7 23 47.7 51.38s-21.35 51.38-47.7 51.38V121.79z"/></svg>
