<svg xmlns="http://www.w3.org/2000/svg" viewBox="0 0 327 253.2"><path d="M163.4 5.2h27v22.9l-18-11.7-8.9-5.5V5.2h-.1zm108.2 98.7h17.3v-5.6h-17.3V87.6h17.7v-5.5H266v38.1h23.3v-5.5h-17.7v-10.8zm-30.8-21.8h-5.5v38.1h23.4v-5.5h-17.9V82.1zm-28.3 8.2l4.7 13.5h-9.5l4.8-13.5zm11.4 29.9h5.9l-15.3-38.7h-4l-15.3 38.7h5.9c1.2-3.2 3.1-7.7 4.6-11.2h13.7l4.5 11.2zm-34.1-28.5c-1-7-7.1-10-13-10-4.4 0-9 1.7-11.6 5.1-1.6 2.1-2.3 4.7-2.1 7.3V94c.6 8 7.6 9.3 13.5 9.9 3.8.4 7.7.9 8.4 3.8.1.5.2.9.2 1.3 0 3.9-4.5 6.2-8.6 6.2-3.5 0-7.9-1.9-8.2-5.4v.2l-.1-.8-5.6.1.1 1c.7 6.8 7.9 10.3 13.7 10.3 6.9 0 14.2-4.3 14.2-11.6 0-.8-.1-1.7-.3-2.5-1.5-6.1-8-7.5-13.2-8.1-4.1-.4-8.4-.9-8.7-4.8-.1-1.3.2-2.6.9-3.5 1.5-2 4.4-2.8 6.9-2.9 3.3-.1 7 1.4 7.8 4.9l5.7-.4zm-55-32.6h182.5c5.3 0 9.6 4.3 9.6 9.6v64.5c0 5.3-4.3 9.6-9.6 9.6H134.8c-5.3 0-9.6-4.3-9.6-9.6V68.7c0-5.3 4.3-9.6 9.6-9.6zm-1 7.6h184.7v68.7H133.8V66.7zM27 100.9v152.4h170.1v-11h24V151H189v2.9H86.8v-33.5h28.3V62.6c0-6.3 5.2-11.5 11.5-11.5h45.7l-34.4-22.4L27 100.9zm204.1 50v91.3h17.6v-91.3h-17.6zm-144.3 9.3h47.5v44.4H86.8v-44.4zm53.9 44.4v-44.4H189v44.4h-48.3zM0 89.7l14.8 9.7 123.1-80.1 48.9 31.8h29.7L137.9 0 0 89.7z" fill-rule="evenodd" clip-rule="evenodd" fill="#505050"/></svg>
