<svg xmlns="http://www.w3.org/2000/svg" viewBox="0 0 67.3 52.4"><style>.st0{fill:#f1f2f2}</style><path class="st0" d="M12.1 30.9h43.1V46H12.1zM38 3.6c-.1-.7-.3-1.3-.5-1.7-.3-.6-.8-1-1.3-1.3-.8-.4-1.6-.6-2.5-.6-2.2 0-4 1-4.3 3.6h-.2c-.7.1-1.2.9-1.1 1.9.1 1 .8 1.7 1.5 1.6h.1c.7 2.2 2.2 3.9 3.9 3.9 1.7 0 3.2-1.7 3.9-3.9h.1c.7.1 1.4-.7 1.5-1.6.1-.9-.4-1.8-1.1-1.9z"/><path class="st0" d="M61.7 15c0-.9-.7-1.8-1.5-2.1l-3.7-1.3-2.7 6.6-.4 1-1-2.3-2.1-5.2-2.3.7-1.4.5c-.9.3-1.6 1.2-1.6 2.1v5h-3v-5c0-.9-.7-1.8-1.5-2.1l-3.7-1.3-2.7 6.6-.4 1-1-2.5-2.1-5-2.2.7-1.5.5c-.8.3-1.5 1.2-1.5 2.1v5h-3v-5c0-.9-.7-1.8-1.5-2.1l-3.7-1.3-3.2 7.6-3.1-7.5-3.8 1.2c-.8.3-1.5 1.2-1.5 2.1v5H0v10.6h3.8v22h59.7v-22h3.8V19.9h-5.6V15zm-4.8 15.5v17.2H10.3V29.1h46.6v1.4zM57.7 3.6c-.1-.6-.3-1.1-.5-1.6-.4-.7-.9-1.2-1.6-1.6-.6-.3-1.4-.4-2.2-.4-2.2 0-4 1-4.3 3.6h-.2c-.7.1-1.2.9-1.1 1.9.1 1 .8 1.7 1.5 1.6h.1c.7 2.2 2.2 3.9 3.9 3.9 1.7 0 3.2-1.7 3.9-3.9h.1c.7.1 1.4-.7 1.4-1.6.2-.9-.3-1.8-1-1.9zM9.9 7.2h.1c.7 2.2 2.2 3.9 3.9 3.9 1.7 0 3.2-1.7 3.9-3.9h.1c.7.1 1.4-.7 1.5-1.6.1-1-.4-1.8-1.1-1.9h-.1c-.1-.8-.4-1.5-.7-2-.2-.4-.5-.7-.9-.9C15.9.2 15 0 14 0c-2.2 0-4 1-4.3 3.6h-.2c-.7.1-1.2 1-1.1 2 .1.9.8 1.7 1.5 1.6z"/></svg>
