<svg xmlns="http://www.w3.org/2000/svg" viewBox="0 0 102.5 102.5"><style>.st0{fill:#414141}</style><path class="st0" d="M6.3 22.5h10c.7 0 1.3-.6 1.3-1.3v-15c0-.7-.6-1.3-1.3-1.3h-10C5.6 5 5 5.6 5 6.3v15c0 .6.6 1.2 1.3 1.2zm1.2-15H15V20H7.5V7.5zM21.3 22.5h10c.7 0 1.3-.6 1.3-1.3v-15c0-.7-.6-1.3-1.3-1.3h-10c-.7.1-1.3.7-1.3 1.4v15c0 .6.6 1.2 1.3 1.2zm1.2-15H30V20h-7.5V7.5zM36.3 22.5h10c.7 0 1.3-.6 1.3-1.3v-15c0-.7-.6-1.3-1.3-1.3h-10c-.7.1-1.3.7-1.3 1.4v15c0 .6.6 1.2 1.3 1.2zm1.2-15H45V20h-7.5V7.5zM51.3 22.5h10c.7 0 1.3-.6 1.3-1.3v-15c0-.7-.6-1.3-1.3-1.3h-10c-.7.1-1.3.7-1.3 1.4v15c0 .6.6 1.2 1.3 1.2zm1.2-15H60V20h-7.5V7.5zM6.3 47.5h10c.7 0 1.3-.6 1.3-1.3v-15c0-.7-.6-1.3-1.3-1.3h-10c-.7.1-1.3.7-1.3 1.4v15c0 .6.6 1.2 1.3 1.2zm1.2-15H15V45H7.5V32.5zM21.3 47.5h10c.7 0 1.3-.6 1.3-1.3v-15c0-.7-.6-1.3-1.3-1.3h-10c-.7 0-1.3.6-1.3 1.3v15c0 .7.6 1.3 1.3 1.3zm1.2-15H30V45h-7.5V32.5zM36.3 47.5h10c.7 0 1.3-.6 1.3-1.3v-15c0-.7-.6-1.3-1.3-1.3h-10c-.7 0-1.3.6-1.3 1.3v15c0 .7.6 1.3 1.3 1.3zm1.2-15H45V45h-7.5V32.5zM51.3 47.5h10c.7 0 1.3-.6 1.3-1.3v-15c0-.7-.6-1.3-1.3-1.3h-10c-.7 0-1.3.6-1.3 1.3v15c0 .7.6 1.3 1.3 1.3zm1.2-15H60V45h-7.5V32.5zM6.3 72.5h10c.7 0 1.3-.6 1.3-1.3v-15c0-.7-.6-1.3-1.3-1.3h-10c-.7.1-1.3.7-1.3 1.4v15c0 .6.6 1.2 1.3 1.2zm1.2-15H15V70H7.5V57.5zM21.3 72.5h10c.7 0 1.3-.6 1.3-1.3v-15c0-.7-.6-1.3-1.3-1.3h-10c-.7 0-1.3.6-1.3 1.3v15c0 .7.6 1.3 1.3 1.3zm1.2-15H30V70h-7.5V57.5zM36.3 72.5h10c.7 0 1.3-.6 1.3-1.3v-15c0-.7-.6-1.3-1.3-1.3h-10c-.7 0-1.3.6-1.3 1.3v15c0 .7.6 1.3 1.3 1.3zm1.2-15H45V70h-7.5V57.5zM51.3 72.5h10c.7 0 1.3-.6 1.3-1.3v-15c0-.7-.6-1.3-1.3-1.3h-10c-.7 0-1.3.6-1.3 1.3v15c0 .7.6 1.3 1.3 1.3zm1.2-15H60V70h-7.5V57.5zM6.3 97.5h10c.7 0 1.3-.6 1.3-1.3v-15c0-.7-.6-1.3-1.3-1.3h-10c-.7.1-1.3.7-1.3 1.4v15c0 .6.6 1.2 1.3 1.2zm1.2-15H15V95H7.5V82.5zM21.3 97.5h10c.7 0 1.3-.6 1.3-1.3v-15c0-.7-.6-1.3-1.3-1.3h-10c-.7 0-1.3.6-1.3 1.3v15c0 .7.6 1.3 1.3 1.3zm1.2-15H30V95h-7.5V82.5zM86.3 47.5h10c.7 0 1.3-.6 1.3-1.3v-15c0-.7-.6-1.3-1.3-1.3h-10c-.7 0-1.3.6-1.3 1.3v15c0 .7.6 1.3 1.3 1.3zm1.2-15H95V45h-7.5V32.5zM71.3 47.5h10c.7 0 1.3-.6 1.3-1.3v-15c0-.7-.6-1.3-1.3-1.3h-10c-.7 0-1.3.6-1.3 1.3v15c0 .7.6 1.3 1.3 1.3zm1.2-15H80V45h-7.5V32.5zM86.3 72.5h10c.7 0 1.3-.6 1.3-1.3v-15c0-.7-.6-1.3-1.3-1.3h-10c-.7 0-1.3.6-1.3 1.3v15c0 .7.6 1.3 1.3 1.3zm1.2-15H95V70h-7.5V57.5zM71.3 72.5h10c.7 0 1.3-.6 1.3-1.3v-15c0-.7-.6-1.3-1.3-1.3h-10c-.7 0-1.3.6-1.3 1.3v15c0 .7.6 1.3 1.3 1.3zm1.2-15H80V70h-7.5V57.5zM86.3 97.5h10c.7 0 1.3-.6 1.3-1.3v-15c0-.7-.6-1.3-1.3-1.3h-10c-.7 0-1.3.6-1.3 1.3v15c0 .7.6 1.3 1.3 1.3zm1.2-15H95V95h-7.5V82.5zM71.3 97.5h10c.7 0 1.3-.6 1.3-1.3v-15c0-.7-.6-1.3-1.3-1.3h-10c-.7 0-1.3.6-1.3 1.3v15c0 .7.6 1.3 1.3 1.3zm1.2-15H80V95h-7.5V82.5z"/><path class="st0" d="M101.3 20H85V6.3c0-.7-.6-1.3-1.2-1.3-.7 0-1.3.6-1.3 1.3V20h-15V1.3c0-.7-.6-1.3-1.3-1.3h-65C.6 0 0 .6 0 1.3v100c0 .7.6 1.3 1.3 1.3h100c.7 0 1.3-.6 1.3-1.3v-80c-.1-.7-.7-1.3-1.3-1.3zM55 100H42.5V82.5H55V100zm10 0h-7.5V81.3c0-.7-.6-1.3-1.3-1.3h-15c-.7 0-1.3.6-1.3 1.3V100H2.5V2.5H65V100zm35 0H67.5V27.5H100V100zm0-75H67.5v-2.5H100V25z"/></svg>
