<svg xmlns="http://www.w3.org/2000/svg" viewBox="0 0 299.6 77"><style>.st0{fill:#262625}</style><path class="st0" d="M184 48.7c-3.8.5-7.1 2.4-9.5 5.4-2.3 3-3.4 6.7-2.9 10.5.9 7.2 7 12.5 14.1 12.5.6 0 1.2 0 1.8-.1 7.8-1 13.3-8.1 12.4-15.9-.9-7.9-8.1-13.4-15.9-12.4zm3.2 25.8c-6.4.8-12.3-3.8-13.1-10.2-.4-3.1.5-6.2 2.4-8.7 1.9-2.5 4.7-4.1 7.8-4.4 6.4-.8 12.3 3.8 13.1 10.2.8 6.4-3.7 12.3-10.2 13.1z"/><path class="st0" d="M190 57.4c-1.4-1.1-3.2-1.6-5-1.4-1.8.2-3.4 1.1-4.6 2.6-1.1 1.4-1.6 3.2-1.4 5 .2 1.8 1.1 3.4 2.6 4.5 1.2.9 2.7 1.4 4.2 1.4.3 0 .6 0 .9-.1 1.8-.2 3.4-1.1 4.5-2.6 1.1-1.4 1.6-3.2 1.4-5-.2-1.7-1.2-3.3-2.6-4.4zm-.8 8.1c-.7.9-1.7 1.5-2.9 1.6-1.1.1-2.3-.2-3.2-.9-.9-.7-1.5-1.7-1.6-2.9-.1-1.2.2-2.3.9-3.2.7-.9 1.7-1.5 2.9-1.6h.5c1 0 1.9.3 2.7.9.9.7 1.5 1.7 1.6 2.9.1 1.1-.2 2.2-.9 3.2zM263.1 38.8c-7.8 1-13.4 8.1-12.4 15.9.9 7.2 7 12.5 14.1 12.5.6 0 1.2 0 1.8-.1 7.8-1 13.4-8.1 12.4-15.9-.9-7.8-8.1-13.4-15.9-12.4zm3.3 25.8c-6.4.8-12.3-3.8-13.1-10.2-.8-6.4 3.8-12.3 10.2-13.1 6.4-.8 12.3 3.8 13.1 10.2.8 6.4-3.8 12.3-10.2 13.1z"/><path class="st0" d="M264.1 46.2c-3.7.5-6.4 3.9-5.9 7.6.4 3.5 3.4 6 6.8 6 .3 0 .6 0 .8-.1 3.7-.5 6.4-3.9 5.9-7.6-.5-3.7-3.9-6.4-7.6-5.9zm1.3 11.1c-2.4.3-4.5-1.4-4.8-3.8-.3-2.4 1.4-4.5 3.8-4.8h.5c2.2 0 4 1.6 4.3 3.8.3 2.3-1.4 4.5-3.8 4.8zM169.2 36.5c-.1 0-.2 0-.3.1-6.3 2.8-10.6 5.6-11.4 7.3-.6 1.5-.7 3.4-.8 5.2v1c0 .7.2 1.4.8 1.8.4.4 1 .6 1.5.6h.4c3.8-.6 6.4-1.5 7.7-2.5 2.7-2.1 4.9-10 3.9-12.3-.3-.8-1-1.3-1.8-1.2zM165.6 48c-.9.7-3.2 1.4-6.4 2v-.8c0-1.4.1-3.2.5-4.2.2-.4 2.4-2.5 9-5.6 0 2.1-1.4 7.3-3.1 8.6zM230.4 7.5c-.3-.2-.6-.3-.9-.3l-17 2.1c-3 .4-5.8 1.6-8 3.7l-9 8.8c-1.2 1.2-1.5 3-.8 4.5.7 1.4 2 2.2 3.5 2.2h.5l32.9-4.1c.3 0 .6-.2.8-.5.2-.3.3-.6.3-.9l-1.8-14.8c0-.2-.2-.5-.5-.7zm-32 18.6c-1 .1-1.4-.6-1.5-.8-.1-.2-.4-1 .3-1.7l9-8.8c1.8-1.7 4.1-2.7 6.6-3l15.8-2 1.5 12.3-31.7 4zM268.6 13.1l-8.5-5.9c-3-2-6.5-2.9-10.1-2.5l-14.3 1.8c-.7.1-1.2.7-1.1 1.4l1.8 14.8c0 .3.2.6.5.8.2.2.5.3.8.3h.2l29-3.6c1.6-.2 2.9-1.4 3.3-2.9.4-1.7-.2-3.3-1.6-4.2zm-.8 3.5c-.1.2-.3.9-1.2 1.1l-27.8 3.5-1.5-12.3 13-1.6c3-.4 5.9.4 8.4 2l8.5 5.9c.8.4.6 1.2.6 1.4z"/><path class="st0" d="M299.3 38v-.2c-.1-1-.4-2-1-2.9l-.6-1-.3-.9c-.1-.2-.2-.5-.2-.6-.1-.7-.7-1.1-1.4-1l-2.5.3c-.6.1-1.2-.3-1.3-.9l-.9-4.3c-.1-.2 0-.4.1-.5.1-.1.2-.2.5-.3l2.9-.4c.4 0 .7-.2.9-.5.2-.3.3-.7.2-1-.5-2-1.1-3.7-1.6-4.8-.9-2.1-3.3-4-6.2-4.7h-.2l-11-1.3-14-9.7C258.8.6 254.1-.5 249.4.1l-37.5 4.7c-4 .5-7.7 2.2-10.7 4.9l-17.1 16.6c-3.8 1.4-27.2 10.3-30.1 16.2 0 .1-.1.1-.1.2-.1.3-1.9 6.2-.9 14-.7.3-1.2.7-1.6 1.2-.3.5-.3 1.1-.3 1.3.6 4.9 1.2 7.9 5.2 8.4h.9c.9 0 2.4-.1 4.7-.2 2.2-.1 4.8-.2 7.6-.3.4 0 .7-.2.9-.5.2-.3.3-.7.3-1l-.1-.3c0-.2-.1-.5-.1-.8-1-8.3 4.9-16 13.2-17 4-.5 8 .6 11.2 3.1s5.3 6.1 5.8 10.1c0 .3 0 .5.1.8v.3c0 .3.2.7.5.9s.6.3.9.3l46.5-5.8c.3 0 .7-.2.9-.5.2-.3.3-.6.2-1v-.2c-.1-.3-.1-.6-.1-.9-.5-4 .6-8 3.1-11.2 2.5-3.2 6.1-5.3 10.1-5.8 8.3-1 15.9 4.9 17 13.2 0 .2.1.4.1.6-.1.2-.1.5 0 .8.2.7.9 1 1.6.8 1.7-.6 3.7-1.2 5.7-1.7 4.7-1.4 9.2-2.7 11-3.9 1.5-.7 1.6-3.8 1-9.4zm-2.4 7.6c-1.6.9-6.2 2.3-10.2 3.5-1.4.4-2.9.8-4.2 1.3-1.4-9.5-10.1-16.2-19.7-15-4.7.6-8.9 3-11.8 6.7-2.9 3.7-4.2 8.3-3.6 13l-43.9 5.5c-.6-4.7-3-8.8-6.7-11.7-3.7-2.9-8.4-4.2-13.1-3.6-9.6 1.2-16.5 9.9-15.4 19.5-2.3.1-4.5.2-6.3.2-2.5.1-4.7.2-5.2.1-1.7-.2-2.4-.8-3-6 .1-.1.4-.2 1-.3.7-.1 1.1-.8 1-1.4-1.1-7.1.4-13 .7-13.8 2.1-3.9 18.8-11.2 28.9-14.9.2-.1.3-.2.4-.3L203 11.6c2.6-2.4 5.8-3.8 9.2-4.3l37.5-4.7c4.1-.5 8.2.5 11.5 2.8l14.3 9.8c.2.1.4.2.6.2l11.2 1.2c2.4.6 3.9 2 4.4 3.2.3.8.7 1.9 1.1 3.1l-1.5.2c-.9.1-1.7.6-2.2 1.3-.5.7-.7 1.6-.5 2.5l.9 4.3c.4 1.9 2.2 3.2 4.1 2.9l1.5-.2c.1.2.2.5.2.6 0 .2.1.4.2.5l.8 1.1c.3.5.5 1.1.6 1.7v.2c.3 4.4.3 6.9 0 7.6zM114.7 56c-3.7-.5-7.2 2.2-7.6 5.9-.5 3.7 2.2 7.2 5.9 7.6.3 0 .6.1.9.1 3.4 0 6.4-2.5 6.8-6 .4-3.7-2.3-7.1-6-7.6zm3.5 7.3c-.3 2.4-2.5 4.1-4.9 3.8-2.4-.3-4.1-2.5-3.8-4.8.3-2.2 2.1-3.8 4.3-3.8h.5c2.5.3 4.2 2.5 3.9 4.8z"/><path class="st0" d="M115.6 48.7c-7.8-1-14.9 4.6-15.9 12.4-1 7.8 4.6 14.9 12.4 15.9.6.1 1.2.1 1.8.1 7.1 0 13.2-5.3 14.1-12.5 1-7.8-4.6-15-12.4-15.9zm9.9 15.6c-.8 6.4-6.7 11-13.1 10.2-6.4-.8-11-6.7-10.2-13.1.7-5.9 5.8-10.3 11.6-10.3.5 0 1 0 1.5.1 6.4.7 11 6.6 10.2 13.1zM36.5 38.8c-7.8-1-14.9 4.6-15.9 12.4-.5 3.8.6 7.5 2.9 10.5s5.7 4.9 9.5 5.4c.6.1 1.2.1 1.8.1 7.1 0 13.2-5.3 14.1-12.5 1-7.8-4.6-14.9-12.4-15.9zm9.9 15.6c-.8 6.4-6.7 11-13.1 10.2-3.1-.4-5.9-2-7.8-4.4-1.9-2.5-2.8-5.6-2.4-8.7.7-5.9 5.8-10.3 11.7-10.3.5 0 1 0 1.5.1 6.3.8 10.9 6.7 10.1 13.1z"/><path class="st0" d="M35.6 46.2c-3.8-.5-7.2 2.2-7.6 5.9-.5 3.7 2.2 7.2 5.9 7.6.3 0 .6.1.8.1 3.4 0 6.4-2.5 6.8-6 .5-3.7-2.2-7.2-5.9-7.6zm3.4 7.3c-.3 2.4-2.5 4.1-4.8 3.8-2.4-.3-4.1-2.5-3.8-4.8.3-2.2 2.1-3.8 4.3-3.8h.5c2.5.2 4.1 2.4 3.8 4.8zM63.9 6.5L49.7 4.7c-3.6-.4-7.1.4-10.1 2.5L31 13.1c-1.3.9-2 2.6-1.6 4.1.4 1.6 1.7 2.7 3.3 2.9l29 3.6h.2c.3 0 .5-.1.8-.3.3-.2.4-.5.5-.8L65 7.9c.1-.7-.4-1.3-1.1-1.4zm-3.1 14.6L33 17.6c-.9-.1-1.1-.8-1.2-1.1s-.2-1 .6-1.5L41 9.2c2-1.4 4.4-2.1 6.9-2.1.5 0 1 0 1.5.1l13 1.6-1.6 12.3zM95.2 13c-2.2-2-5-3.3-8-3.7l-17-2.1c-.7-.1-1.3.4-1.4 1.1L67 23.1c0 .3 0 .7.3.9s.5.4.8.5l32.9 4.1h.5c1.5 0 2.9-.8 3.5-2.2.7-1.5.4-3.3-.8-4.5l-9-8.9zm7.5 12.3c-.1.2-.5.9-1.5.8l-31.7-3.9L71 9.9l15.8 2c2.5.3 4.8 1.4 6.6 3l9 8.8c.7.7.4 1.4.3 1.6z"/><path class="st0" d="M146.5 56.6c1-7.7-.8-13.7-.9-14 0-.1 0-.1-.1-.2-2.9-5.9-26.3-14.8-30.1-16.2L98.3 9.7c-3-2.7-6.6-4.4-10.6-4.9L50.2.1C45.5-.4 40.8.7 37 3.4l-14 9.7-11 1.2h-.2C9 15 6.5 16.8 5.7 19c-.5 1.1-1 2.8-1.6 4.8-.1.4 0 .7.2 1 .2.3.5.5.9.5l2.9.4c.2 0 .4.2.5.3.1.1.2.3.1.5l-.9 4.3c-.1.6-.7 1-1.3.9L4 31.4c-.6-.1-1.2.4-1.4 1 0 .1-.2.4-.2.6-.2.4-.3.7-.4 1l-.6 1c-.6.9-.9 1.8-1 2.9v.2c-.5 5.6-.5 8.7 1 9.7 1.8 1.1 6.2 2.5 11 3.9 1.9.6 3.9 1.2 5.7 1.7.7.2 1.4-.1 1.6-.8.1-.3.1-.5 0-.8.1-.2.1-.4.1-.6 1-8.3 8.7-14.3 17-13.2 4 .5 7.6 2.5 10.1 5.8C49.4 47 50.5 51 50 55c0 .3-.1.6-.2.9v.1c-.1.3 0 .7.2 1 .2.3.5.5.9.5l46.5 5.8c.3 0 .7-.1.9-.3.3-.2.4-.5.5-.9v-.3c0-.3 0-.5.1-.8.5-4 2.5-7.6 5.8-10.1 3.2-2.5 7.2-3.6 11.2-3.1 4 .5 7.6 2.5 10.1 5.8 2.5 3.2 3.6 7.2 3.1 11.2 0 .3-.1.5-.1.8v.2c-.1.4 0 .7.3 1 .2.3.6.5.9.5 2.9.1 5.5.2 7.6.3 2.3.1 3.7.2 4.7.2h.9c4-.5 4.6-3.5 5.2-8.4 0-.3 0-.8-.3-1.3-.5-.8-1-1.2-1.8-1.5zm-3.6 8.5c-.5.1-2.7 0-5.2-.1-1.8-.1-3.9-.2-6.3-.2.5-4.6-.8-9.1-3.6-12.8-2.9-3.7-7.1-6.1-11.8-6.7-4.7-.6-9.3.7-13.1 3.6-3.7 2.9-6.1 7-6.7 11.7L52.3 55c.6-4.7-.7-9.3-3.6-13-2.9-3.7-7.1-6.1-11.8-6.7-9.6-1.2-18.4 5.5-19.7 15-1.4-.4-2.8-.9-4.2-1.3-4.1-1.2-8.7-2.6-10.2-3.5-.4-.7-.4-3.2 0-7.4v-.2c.1-.6.3-1.2.6-1.7l.8-1.1c.1-.2.2-.3.2-.5 0-.1.2-.4.2-.6l1.5.2c1.9.2 3.7-1 4.1-2.9l.9-4.3c.2-.9 0-1.8-.5-2.5s-1.3-1.2-2.2-1.3L6.9 23c.4-1.3.7-2.4 1.1-3.1.5-1.2 2-2.6 4.4-3.2l11.2-1.2c.2 0 .4-.1.6-.2l14.3-9.8C41.9 3.2 46 2.2 50 2.7l37.5 4.7c3.5.4 6.7 1.9 9.2 4.3L114 28.4c.1.1.3.2.4.3 10.1 3.7 26.8 11 28.9 14.9.2.8 1.8 6.7.7 13.8-.1.7.3 1.3 1 1.4.5.1.8.2 1 .3-.7 5.2-1.4 5.8-3.1 6z"/><path class="st0" d="M142.2 43.9c-.8-1.7-5.1-4.5-11.4-7.3-.1 0-.2-.1-.3-.1-.8-.1-1.5.3-1.8 1.1-1 2.3 1.2 10.2 3.9 12.3 1.3 1 3.9 1.9 7.7 2.5h.4c.6 0 1.1-.2 1.5-.6.5-.5.8-1.1.8-1.8v-1c-.1-1.7-.2-3.6-.8-5.1zm-8.1 4.1c-1.7-1.3-3.2-6.5-3.2-8.6 6.7 3.1 8.8 5.1 9 5.5.4 1 .5 2.8.5 4.2v.8c-3.1-.5-5.4-1.2-6.3-1.9zM153.3 28.6c.4.1.8.1 1.1-.2l7.6-5.8-3.2 9c-.1.4-.1.8.2 1.2.2.3.6.5 1 .5l6.4-.2c.2 0 .4 0 .5-.1 2.3-1.1 4.9-2.3 7.6-3.4.6-.2.9-.8.7-1.4s-.7-1-1.3-1l-3.2.1L175 26c.4-.1.8-.5.9-.9s0-.9-.4-1.2l-3.8-3.5c-.4-.4-1-.4-1.5-.2l-1.8 1 3.9-11c.2-.5 0-1.1-.4-1.4-.4-.3-1.1-.3-1.5 0l-14.5 11.1L151 2.4c-.2-.5-.6-.9-1.2-.9s-1 .4-1.2.9l-5.2 17.5L129 8.8c-.4-.3-1-.3-1.5 0-.4.3-.6.9-.4 1.4l6.1 17.2-7.6-.2c-.6 0-1.1.4-1.3 1-.1.6.2 1.2.7 1.4 2.8 1.2 5.3 2.3 7.6 3.4.2.1.3.1.5.1l6.4.2c.4 0 .8-.2 1-.5.2-.3.3-.8.2-1.2l-3.2-9 7.6 5.8c.3.3.8.3 1.1.2.4-.1.7-.4.8-.8l2.7-9.2 2.7 9.2c.2.4.5.7.9.8zm17.6-5.8l1.5 1.4-2.6.8-.3-1.4 1.4-.8zm-3.2 4c0 .2.1.3.2.5h-1.4l.8-2.3.4 1.8zM149.8 13c-.6 0-1 .4-1.2.9l-3.4 11.5-9.5-7.3c-.4-.3-1.1-.3-1.5 0-.4.3-.6.9-.4 1.4l4 11.3-4.3-.1c-.5-.3-1.1-.5-1.7-.8l3.1.1c.4 0 .8-.2 1-.5.2-.3.3-.8.2-1.2l-5.3-14.9 12.5 9.7c.3.3.8.3 1.1.2.4-.1.7-.4.8-.8l4.5-15.2 4.5 15.2c.1.4.4.7.8.8.4.1.8.1 1.1-.2l12.5-9.7-5.3 14.9c-.1.4-.1.8.2 1.2.2.3.7.5 1 .5l3.1-.1c-.6.3-1.1.5-1.7.8l-4.3.1 4-11.3c.2-.5 0-1.1-.4-1.4-.4-.3-1.1-.3-1.5 0l-9.5 7.3-3.2-11.5c-.1-.6-.6-.9-1.2-.9z"/><path class="st0" d="M124.1 25.6l6.6 1.6h.3c.3 0 .7-.1.9-.4.3-.3.4-.8.3-1.2l-1.6-5.4c-.2-.5-.6-.9-1.2-.9h-3.8c-.5 0-1 .4-1.2.9l-1.2 3.8c-.1.3-.1.7.1 1 .2.3.5.5.8.6zm2.4-3.8h2l.7 2.4-3.2-.8.5-1.6z"/></svg>
