<svg xmlns="http://www.w3.org/2000/svg" viewBox="0 0 49.9 69"><style>.st0{fill:#f1f2f2}</style><path class="st0" d="M0 18.4v42H26.4l-2.8 5.1L28 65l1.9 4 4.7-8.5h.5l4.1 8.5 2.1-3.9 4.4.7-2.6-5.4h6.6V0H18.4L0 18.4zm11.9-6.5l5.3-5.3v10.6H6.6l5.3-5.3zm9.2 7.3V3.9H46v52.7h-4.4c-.1 0-.1 0-.2.1-.2.1-.4.1-.7.1h-.3v.5c0 1.4-1 2.5-2.3 2.5-.4 0-.9-.1-1.3-.4l-.3-.2c-.3.6-.8.9-1.4 1.1-.1 0-.2.1-.4.1h-.4c-.9 0-1.6-.5-2.1-1.3V59l-.2.1c-.4.2-.9.4-1.3.4-1.3 0-2.3-1.1-2.3-2.5v-.3h-.3c-.3 0-.6-.1-.8-.1H3.9V21.1h15.3c1.1 0 1.9-.8 1.9-1.9z"/><path class="st0" d="M24.5 50.8c0-.9.5-1.6 1.3-2.1l.4-.2-.2-.4c-.1-.1-.1-.3-.2-.4H8.7v3.9h16c-.1-.2-.2-.5-.2-.8zM30.7 41.9c.4 0 .9.1 1.3.4l.2.1.1-.2c.5-.8 1.2-1.3 2.1-1.3.9 0 1.6.5 2.1 1.3l.2.4.1-.1c.4-.2.9-.4 1.3-.4 1.1 0 2 .8 2.3 1.8h.3V40h-32v3.9h19.7c.2-1.2 1.1-2 2.3-2zM8.7 32.2h31.9v3.9H8.7zM8.7 24.8h31.9v3.9H8.7zM26.1 16.8h14.5v3.9H26.1zM26.1 8.7h14.5v3.9H26.1z"/><path class="st0" d="M38.5 45.6v-1.1c0-.5-.3-.6-.7-.4l-1.1.6c-.4.2-.9.1-1.1-.3l-.3-.5-.5-.8c-.2-.4-.6-.4-.8 0l-.5.8-.2.4c-.2.4-.7.5-1.1.3l-1.2-.7c-.1 0-.1 0-.2-.1h-.3c-.2.1-.3.2-.3.5v1.3c0 .5-.4.8-.8.8H28c-.5 0-.6.3-.4.7l.3.6.5.8c.2.4.1.9-.3 1.1l-1.3.8c-.4.2-.4.6 0 .8l.6.3.5.3c.4.2.5.7.3 1.1l-.6 1c-.2.4 0 .7.4.7h1.5c.4.1.7.4.7.8V57c0 .5.3.6.7.4l1.2-.7c.4-.2.9-.1 1.1.3l.6 1.1.2.2c.2.1.4 0 .6-.2l.6-1c.2-.4.7-.5 1.1-.3l.1.1 1.1.7c.4.2.7 0 .7-.4v-1.6c0-.5.4-.8.8-.8h1.4c.5 0 .6-.3.4-.7l-.7-1.1c-.2-.4-.1-.9.3-1.1l1.2-.7c.4-.2.4-.6 0-.8l-1.3-.7-.1-.1c-.3-.3-.4-.7-.2-1l.2-.3.5-.9c.2-.4 0-.7-.4-.7h-1.4c0-.3-.4-.7-.4-1.1z"/></svg>
