<svg xmlns="http://www.w3.org/2000/svg" viewBox="0 -193 1008 1008"><path fill="currentColor" d="M488 236l2 3c-7 0-13-3-16-8v-2c-11-25-7-64 13-114 17-42 24-72 13-91v-6c0-11 5-16 14-16 8 0 13 3 16 10 12 28 7 66-14 114-17 40-22 71-14 92 1 1 2 1 2 2 0 11-5 16-16 16zm164 141h2c-7 0-12-3-15-10h-2v-2c-11-27-6-64 15-112 19-42 22-73 13-92v-5c0-11 6-16 15-16 8 0 13 3 14 10 13 27 8 65-15 115-19 42-21 72-14 91v2c1 1 2 2 2 3 0 11-4 16-15 16zm-382 4v-1c-7 0-12-3-15-8v-2h-2c-11-25-7-64 16-114 19-42 21-71 14-91h-2v-6c0-11 6-15 15-15 8 0 13 3 14 10 12 27 7 65-14 115-17 42-21 72-10 92v4c0 11-5 16-16 16zm663 282l-3 2c47 0 79 33 79 79 0 15-5 29-16 42L883 910v23c0 47-32 79-79 79H206c-47 0-79-32-79-79v-23L17 786C6 773 1 759 1 744c0-46 32-79 79-79h84c15-82 54-149 120-203s137-81 223-81c68 0 132 20 187 55 55 36 100 86 128 146l144-71c17-9 33 1 40 14s5 31-12 40l-151 77 6 21h84zM505 413c-75 0-142 23-201 73-58 48-94 106-109 178h33c15-64 51-117 99-157 48-39 110-62 177-62 56 0 108 17 154 46s82 71 105 121l27-15c-24-56-64-102-114-134s-108-50-171-50zm0 95v-2c90 0 166 53 201 132l29-14c-20-44-53-81-93-108s-87-42-137-42c-59 0-111 20-154 54-44 34-75 82-90 137h33c13-46 40-85 78-113 36-28 82-44 133-44zm150 155l21-11c-29-70-95-115-173-115-40 0-78 13-109 36-32 23-56 54-68 90h33c15-42 46-69 85-84 38-13 81-13 120 0 38 15 70 42 85 84h6zm-223 0h1c20-20 45-31 70-31s50 11 69 31h39c-25-43-61-63-108-63s-83 20-108 63h37zm381 0c0-1-2-4-2-7l-16 7h18zM205 947h598c11 0 16-5 16-16v-47l126-142c0-11-5-16-16-16H79c-11 0-16 5-16 16l126 142v47c0 11 5 16 16 16z"/></svg>
