<svg xmlns="http://www.w3.org/2000/svg" viewBox="0 0 71.9 94"><path d="M45.1 13.4c-13.9 1.2-23 7.7-28.6 13.8 5.2-2.6 15.7-6.9 25.6-6.2 0 0 6 1 11-2-1.2.7-1.9 1.9-3.4 2.5-6.1 2.5-13.2 1.1-19.6 2.3-4.6.9-9.5 1.8-13.9 3.7-5 5.5-7 10.5-7 10.5 3.5-5.8 11.1-7.7 17.4-8.6 7.4-1 14.9.3 22.1-1.8 8.6-2.5 15.6-8.2 19.6-16.3 1.3-2.6 2.3-5.3 2.9-8.1.2-.8.1-2.7.6-3.4C63 13.4 45.1 13.4 45.1 13.4zM27.2 38c-9.9 0-16 5.4-19.7 10.9C11 47.5 17.8 45 24.1 45c7.9 0 19.5-4.6 23.7-7.7.9-.8 1.3-1.3 1.3-1.3-.3.4-.7.8-1.3 1.3-3 2.7-11 8.7-22.7 8.7-10.8 0-15.4 2.1-17.8 3.2-3.6 5.6-4.8 11.2-4.8 11.2 2.2-6.7 22.4-6.7 22.4-6.7 22.4-2.2 26.8-20.1 26.8-20.1C45.1 38 27.2 38 27.2 38zM11.5 69.4c-6.7-4.5-8.9-8.9-8.9-8.9-.1.3-.2.6-.3.8C3.8 71.1 11.1 83 11.1 83c-5.9-3.4-8.3-17.4-8.8-21.7C-8.2 96.2 20.5 94 20.5 94c2.2-15.7-9-24.6-9-24.6z"/></svg>
