<svg xmlns="http://www.w3.org/2000/svg" viewBox="0 0 378.3 714.2"><path d="M223.1 253.7c-16.4-4.6-33.4 4.9-38 21.3-4.6 16.4 4.9 33.4 21.3 38 16.4 4.6 33.4-4.9 38-21.3 4.6-16.4-5-33.4-21.3-38zm-36.5 26.1c-1-3.2.8-6.6 4-7.6s6.6.8 7.6 4-.8 6.6-4 7.6-6.6-.8-7.6-4zm25.4 30.5c-.1.5-.7.8-1.2.7-17.3-4.5-20.7-21.4-20.7-21.6-.1-.5.2-1 .8-1.1.5-.1 1 .2 1.1.8 0 .2 3.2 15.8 19.3 20 .5.1.8.7.7 1.2zm15.8-29.7l-25.4 7.9c-.7.2-1.5-.2-1.7-.9s.2-1.5.9-1.7L227 278c.7-.2 1.5.2 1.7.9.2.8-.2 1.5-.9 1.7zM200.4 195c16.4 4.6 33.4-4.9 38-21.3 4.6-16.4-4.9-33.4-21.3-38-16.4-4.6-33.4 4.9-38 21.3-4.6 16.4 4.9 33.4 21.3 38zm-4.8-27l25.4-7.9c.7-.2 1.5.2 1.7.9.2.7-.2 1.5-.9 1.7l-25.4 7.9c-.7.2-1.5-.2-1.7-.9-.2-.7.2-1.5.9-1.7zm-15-6.2c-1-3.2.8-6.6 4-7.6s6.6.8 7.6 4-.8 6.6-4 7.6-6.6-.8-7.6-4zm4.2 8.5c.5-.1 1 .2 1.1.8 0 .2 3.2 15.8 19.3 20 .5.1.8.7.7 1.2-.1.5-.7.8-1.2.7-17.3-4.5-20.7-21.4-20.7-21.6 0-.5.3-1 .8-1.1zM93 330.2c16.5-4 26.7-20.7 22.6-37.2-4-16.5-20.7-26.7-37.2-22.6-16.5 4-26.7 20.7-22.6 37.2 4 16.5 20.7 26.7 37.2 22.6zm18.9-40.6c2.4 2.3 2.6 6.2.3 8.6-2.3 2.4-6.2 2.6-8.6.3-2.4-2.3-2.6-6.2-.3-8.6 2.3-2.5 6.2-2.6 8.6-.3zm-37-14.1c-.1-.5.2-1.1.7-1.2 17.3-4.6 28.5 8.5 28.6 8.6.3.4.3 1-.1 1.4-.4.3-1 .3-1.4-.1-.1-.1-10.6-12.2-26.6-8-.5.1-1.1-.2-1.2-.7zm.8 35.5c-.5-.5-.6-1.4-.1-1.9l18.2-19.4c.5-.5 1.4-.6 1.9-.1s.6 1.4.1 1.9l-18.2 19.4c-.5.6-1.4.6-1.9.1zM319.2 251.4c12.2-11.9 12.5-31.4.6-43.5-11.9-12.2-31.4-12.5-43.5-.6-12.2 11.9-12.5 31.4-.6 43.5s31.3 12.5 43.5.6zM302 216.6l-5.9 26c-.2.7-.9 1.2-1.6 1-.7-.2-1.2-.9-1-1.6l5.9-26c.2-.7.9-1.2 1.6-1 .7.2 1.1.9 1 1.6zm5.6-5.2c.7-3.3 4-5.3 7.3-4.6 3.3.7 5.3 4 4.6 7.3-.7 3.3-4 5.3-7.3 4.6-3.3-.8-5.4-4-4.6-7.3zm-31.8.7c12.6-12.7 28.9-7.2 29-7.1.5.2.8.7.6 1.2-.2.5-.7.8-1.2.6-.2-.1-15.3-5.2-27 6.7-.4.4-1 .4-1.4 0-.4-.4-.4-1.1 0-1.4zM121.2 226.4c12.2-11.9 12.5-31.4.6-43.5-11.9-12.2-31.4-12.5-43.5-.6-12.2 11.9-12.5 31.4-.6 43.5s31.3 12.5 43.5.6zM104 191.6l-5.9 26c-.2.7-.9 1.2-1.6 1-.7-.2-1.2-.9-1-1.6l5.9-26c.2-.7.9-1.2 1.6-1 .7.2 1.1.9 1 1.6zm5.6-5.2c.7-3.3 4-5.3 7.3-4.6 3.3.7 5.3 4 4.6 7.3-.7 3.3-4 5.3-7.3 4.6-3.3-.8-5.4-4-4.6-7.3zm-31.8.7c12.6-12.7 28.9-7.2 29-7.1.5.2.8.7.6 1.2-.2.5-.7.8-1.2.6-.2-.1-15.3-5.2-27 6.7-.4.4-1 .4-1.4 0-.4-.4-.4-1.1 0-1.4z"/><path d="M357.1 663.3v-.2-.1-.1c0-.3 0-.5-.1-.7l-5.8-30.3-.3-.9c-1.3-7.2-8.8-13.5-22.5-19l-19.1-203.9c.3-.9.4-1.7.4-2.4 0-1.7-.5-3.6-2.8-5.7 1.3-.9 2.4-1.8 3.4-2.8.7-.7 1.3-1.4 1.8-2.2 1.3-1.8 1.9-3.8 2-5.8v-.4c0-.6-.1-1.3-.2-1.9l-2.2-19.2c43.6-25.9 66.6-65.8 66.6-115.4 0-46.9-20.8-98.4-55.7-137.9-2.2-2.5-4.4-5.2-6.8-8.1-5.3-6.4-10.8-13.1-16.6-18l-.2-.2c-.6-.5-1.2-1-1.9-1.6-.8-.7-1.7-1.4-2.5-2 .1-.1.2-.1.2-.2.8-.6 1.2-1.6 1-2.6l-2.2-18.5c-.1-21.4-30.9-39.4-75.6-44.9v-4.9c.7-.9 1-1.8 1-2.6 0-.9-.3-1.8-1-2.6-.1-.1-.1-.2-.2-.3-3.5-4.1-14.4-7.9-29.4-7.9-15 0-26 3.8-29.5 8.1-.1.1-.1.2-.2.3-.7.9-1 1.8-1 2.6 0 .9.3 1.8 1 2.6v5.6c-42.2 6.2-70.2 23.7-70.4 44.2l-2.2 18.5v.9c-.1 0-.1.1-.2.1-9.8 7.5-18.9 17.8-27.6 27.8l-2.6 3C21.3 152.5 0 205.6 0 252.3c0 49.6 23 89.5 66.6 115.4l-2.2 19.2c-.1.7-.2 1.3-.2 2v.3c.1 2 .7 3.9 2 5.8.5.7 1.1 1.4 1.8 2.2.7.7 1.6 1.5 2.5 2.2-2.9 2.3-3.5 4.5-3.5 6.3 0 1.5.4 3.2 2.2 5.1l-18.9 201c-13.9 5.5-21.5 11.8-22.8 19-.2.4-.3.8-.3 1.3-2.8 23.9-4.4 30.1-4.9 31.5-.5.8-.9 1.7-.9 2.6v.2c-.1.5-.1.8-.1 1.2 0 14.2 30.1 24.5 48 29.3 22.8 6.2 50.5 10.4 80.4 12.4 8 2.7 21.2 4.9 37.7 4.9H187.7c15.9 0 28.7-2 36.8-4.6 60-3.4 100.8-15.4 118.9-25.8.1-.1.3-.2.4-.2.1-.1.2-.1.3-.2 8.6-5.1 13-10.4 13-15.8 0-.1 0-.4-.1-1v-.4c-.1-.5 0-2.4.1-2.9-.1 0-.1 0 0 0zM161.7 18.8v-4.6c6.7 4 17.8 5.5 26.7 5.5 8.9 0 20-1.5 26.7-5.5v10.2c0 .2-.3.6-.7.9-2.3 2.2-10.8 6-26 6-17.8 0-26.4-5.3-26.7-7v-5.5zm49.4 11.7l-.2.2-.4.1.6-.3zM94.2 63.9v-.4-.3c8.6 3.1 33.7 9.5 95.6 9.8h6.1c59.9-.3 83.5-5.8 91.8-8.8l2 16.4c-8.5 3.1-48.3 9.9-98.8 9.9-50.4 0-90.2-6.8-98.8-9.9l2.1-16.7zm-27 323.5v-.1.1zm3.3-26.4l-.2-.4-.8-.5C29.3 335.8 8 298.5 8 252.3c0-44.8 20.6-95.9 53.7-133.4 1.2-1.3 2.4-2.7 3.5-4C73 106 81 96.9 89.4 90.3c.8-.6 1.5-1.2 2.3-1.8.5-.4.9-.7 1.4-1l.6-.5c15.4 4.1 54.1 9.3 97.3 9.3 40.8 0 77.7-4.6 94.6-8.6l2.4 1.8c1 .8 2.1 1.6 3.1 2.5.7.6 1.4 1.1 2.1 1.7 5.7 4.7 11.3 11.4 16.7 18 2.4 2.8 4.6 5.5 6.8 8 31.2 35.3 51.2 81.9 53.5 124.5.2 3.9 0 9.6-.1 14.8 0 1.3-.1 2.5-.1 3.7-1.2 16.7-5.3 32.2-12.2 46.1l-.1.3c-.7 2-1.7 3.9-3 5.6l-.2.3c-11 19-27.4 34.9-48.9 47.2-.6.3-.9.8-1 .9l-1.1 1.2.5 1.5c.4 1.4 1.2 10.9 1.7 19.4l.3 2.9c0 .1 0 .3.1.4 0 .2.1.3.1.4 0 .4-.2.8-.5 1.4l-.9 1.2c-1.3 1.3-3.1 2.7-5.6 4-3.9-1.6-9.2-3.1-16.4-4.6 8.7-8.1 12.2-21 8-32.9-5.7-16-23.4-24.3-39.4-18.6-16 5.7-24.3 23.4-18.6 39.4.8 2.2 1.8 4.3 3.1 6.2-7.7-.5-15.7-.9-24-1.2-7-13-22.5-19.5-36.9-14.6-7.8 2.6-13.9 8.1-17.4 14.9-19.8.8-38 2.5-53 4.9-12.1 1.9-20.4 4-26 6.2-2.1-1.2-3.8-2.4-4.9-3.7-.4-.4-.7-.8-.9-1.2-.3-.5-.5-1-.5-1.4v-.4c0-.2.1-.3.1-.5l.3-2.7 2-21.1-.9-.9c-.7-.7-1.6-1.2-2.5-1.7-.2-.3-.6-.5-.8-.6zm53.2 235.8h-5.4l-3-2.5H261.2l-3.7 2.5H123.7zM227.2 614v26.4c0 4.9-2.9 8.8-6.5 8.8h-63.2c-3.6 0-6.5-4-6.5-8.8V614c0-3.4 1.5-6.6 3.8-8 .2-.1.3-.1.5 0 .1 0 .1.1.2.2.6-.3 1.3-.5 2-.5h63.2c1 0 1.9.4 2.7.9 0-.1.1-.1.2-.2.2-.1.4-.1.5.1 2 1.6 3.1 4.4 3.1 7.5zm8.9-171.8c10.7 0 13.2 2.3 13.2 12.2v118.4c0 9.9-2.5 12.2-13.2 12.2h-95.5c-10.7 0-13.2-2.3-13.2-12.2V454.4c0-9.9 2.5-12.2 13.2-12.2h95.5zM206 420.6c-5.8.1-11.7.2-17.6.2-8.5 0-17-.2-25.1-.4-20.7-.7-39.9-2.3-55.6-4.7-11.1-1.7-18.7-3.5-23.9-5.1-4.3-2-6.7-4.3-6.7-6.8 0-.1-.1-.2-.3-.3.1 0 .2-.1.2-.1 16.4 8.3 47.4 14.1 85 16 8.7.4 17.7.7 27 .7 6 0 12-.1 17.8-.3 40.5-1.3 75.1-7.2 93.4-16 .3.2.6.3.8.5-.2 1.7-1.4 3.2-3.6 4.7-4.8 2-13.5 4.6-28.5 6.8-17.4 2.5-39.3 4.2-62.9 4.8zm-50.5-12.4c.3 1 .7 1.9 1.1 2.8-30.1-1.9-53.8-6.4-68.4-11.6 4.8-1.3 11.2-2.6 19.4-3.9 13.5-2 29.6-3.5 47.1-4.3-1.2 5.4-1.1 11.3.8 17zm83.2-27.8c.2.5-.1 1.1-.6 1.3-.5.2-1.1-.1-1.3-.6-6.4-16.7 5.4-29.3 5.5-29.4.4-.4 1-.4 1.4 0 .4.4.4 1 0 1.4.1.1-10.9 11.8-5 27.3zm4 12.1c8.1 6.3 19.1 8.5 29.5 4.8.8-.3 1.6-.6 2.3-.9 6.2 1.1 11.1 2.2 15 3.2-16.1 5.6-42.8 10.3-76.8 11.8 2.9-6.2 3.8-13.5 2-20.6 9.7.4 19.1 1 28 1.7zm15.3-41.7c-2 2.7-5.9 3.2-8.5 1.2-2.7-2-3.2-5.9-1.2-8.5 2-2.7 5.9-3.2 8.5-1.2s3.2 5.8 1.2 8.5zm15.1 24.5c.6.4.7 1.3.3 1.9-.4.6-1.3.7-1.9.3l-21.2-16.1c-.6-.4-.7-1.3-.3-1.9.4-.6 1.3-.7 1.9-.3l21.2 16.1zm-80.4 15.1l-15.2 19.2c-.5.6-1.3.7-1.9.2-.6-.5-.7-1.3-.2-1.9l13.9-17.5 2.6-3.3c.5-.6 1.3-.7 1.9-.2.6.5.7 1.3.2 1.9l-1.3 1.6zm19.5.4c-.1 1.1-.5 2.2-1.3 3.2-2.1 2.6-5.9 3.1-8.6 1-1.4-1.1-2.2-2.8-2.3-4.5-.1-1.4.3-2.9 1.3-4.1 2.1-2.6 5.9-3.1 8.6-1 1.7 1.3 2.5 3.4 2.3 5.4zm-10.5-10c-.4.4-1 .4-1.4 0-.1-.1-11.6-11.3-27.2-5.7-.5.2-1.1-.1-1.2-.6-.2-.5.1-1.1.6-1.2 16.9-6 29.1 6 29.3 6.1.3.4.3 1-.1 1.4zM36.3 632.9c.1-2.9 3.9-6.8 12.9-10.9l-.4 1.4.1 2.9v.4c0 .3-.1.5-.1.8 0 11.9 74.5 26.2 141.1 26.2 99.9 0 139.6-21.5 139.6-29.1l-.1-1.1c0-.1 0-.2.1-.3-.1-.4-.2-1-.2-1 8.9 4.1 12.6 8 12.7 10.8v.2c-.1 4.1-9.2 12.8-42.6 20.1-22.8 5.1-51.6 8.3-82.8 9.6-8.3-1.5-18.8-2.3-29.2-2.3-10.1 0-20.4.8-28.5 2.2-30.2-1.3-58-4.5-80.2-9.5-33.4-7.4-42.4-16.1-42.6-20.1.2-.1.2-.2.2-.3zm105 66.8c-25.8-2.1-49.6-6-69.6-11.4-30.6-8.3-41-17.2-41.4-20.5v-.1c1.1-2.6 2.4-8.4 4.2-21.9 7.8 6.3 22 11.8 42.4 16.3 18.7 4.1 41.2 7.1 65.8 8.8 0 .1 0 .1.1.2-.4 7.2-1.2 22.4-1.5 28.6zm90.1-29.1c0 .2-.1.4-.2.5-2.1 4-19.1 8-43.7 8-25 0-42.2-4.1-43.8-8.2-.1-.1-.1-.3-.1-.4v-.2c0-2.8 7.7-5.7 20.5-7.4 6.6-.9 14.5-1.4 23.5-1.4 9.2 0 17.4.6 24.1 1.5 12.4 1.7 19.8 4.6 19.8 7.3 0 .1 0 .2-.1.3zm109.1 4.5c-.6.2-1.1.5-1.6.9l-.3.3c-17.5 9.9-54.8 19.9-104.7 23.7l-1.5-28.9c25.8-1.6 49.6-4.7 69.1-9 21-4.7 35.4-10.3 43.1-16.9l3.5 18.1c0 .5-.1 1.3-.1 2.7v1.3c0 .2 0 .3.1.5-.2.6-1 3.2-7.6 7.3z"/><path d="M218.3 634.9h-57.8c-3.3 0-6-3.6-6-8.1v-19.3c-1.6 1.4-2.5 3.9-2.5 6.6v26.4c0 4.3 2.5 7.8 5.5 7.8h63.2c3 0 5.5-3.5 5.5-7.8V614c0-2.3-.7-4.4-1.9-5.9v18.6c0 4.5-2.7 8.2-6 8.2zM150.9 547c1.6 2.1 3.4 4.1 5.4 6 8.6 7.9 20 12.2 32.1 12.2 15.6 0 29.3-7.2 37.5-18.2 2.9-3.8 5-8.1 6.4-12.8 1-3.4 1.5-7 1.5-10.7 0-3.7-.5-7.3-1.5-10.8-2.9-9.9-9.7-18.6-19.4-24.3v-15c0-11.6-10.3-21-22.9-21h-3.2c-12.6 0-22.9 9.4-22.9 21v15c-13.1 7.7-21 20.8-21 35.1.1 8.6 2.8 16.7 8 23.5zm14.3-56.4l1.2-.7v-16.4c0-10.2 9.1-18.5 20.4-18.5h3.2c11.2 0 20.4 8.3 20.4 18.5v16.4l1.2.7c12.4 7.3 19.7 19.6 19.7 33 0 21.6-19.3 39.2-42.9 39.2-11.5 0-22.3-4.1-30.4-11.6-8.1-7.4-12.5-17.2-12.5-27.6 0-13.4 7.4-25.7 19.7-33z"/><path d="M130.5 454.4v118.4c0 8.3 1 9.2 10.2 9.2h95.5c9.1 0 10.2-.9 10.2-9.2V454.4c0-8.3-1-9.2-10.2-9.2h-95.5c-9.2 0-10.2.9-10.2 9.2zm9 121.7c-2.4 0-4.4-1.6-4.8-3.8h9.7c-.4 2.1-2.4 3.8-4.9 3.8zm-4.8-5.3c.4-2.1 2.4-3.7 4.8-3.7s4.4 1.6 4.8 3.7h-9.6zm102.5 5.3c-2.4 0-4.4-1.6-4.8-3.8h9.7c-.4 2.1-2.4 3.8-4.9 3.8zm-4.8-5.3c.4-2.1 2.4-3.7 4.8-3.7s4.4 1.6 4.8 3.7h-9.6zm4.8-120.2c2.4 0 4.4 1.6 4.8 3.7h-9.7c.5-2.1 2.5-3.7 4.9-3.7zm4.9 5.2c-.4 2.1-2.4 3.7-4.8 3.7s-4.4-1.6-4.8-3.7h9.6zm-90.6-8.9h73.8v11.2l7.6 7H245v96.3h-12.1l-7.6 7v11.2h-73.8v-11.2l-7.6-7h-12.1v-96.3h12.1l7.6-7v-11.2zm-16.8 8.9h9.7c-.4 2.1-2.4 3.7-4.8 3.7-2.5.1-4.5-1.6-4.9-3.7zm9.7-1.5h-9.7c.4-2.1 2.4-3.7 4.8-3.7 2.5 0 4.5 1.6 4.9 3.7z"/></svg>
