<svg xmlns="http://www.w3.org/2000/svg" viewBox="0 -189 882 1008"><path fill="currentColor" d="M788 64c25 0 47 10 64 28 18 17 28 39 28 65v693c0 25-10 47-28 65-17 17-39 27-64 27H95c-26 0-48-10-65-27-18-18-28-40-28-65V157c0-26 10-48 28-65 17-18 39-28 65-28h693zM323 702c57 0 102-18 138-53 35-36 53-83 53-140 0-10-2-20-4-30H325v67h112c-4 20-14 38-29 53-22 22-50 32-83 32-34 0-63-12-87-35-23-24-35-54-35-87 0-34 12-63 35-87 24-23 51-35 85-35 33 0 61 10 83 29l53-51c-38-33-81-51-132-51-53 0-101 20-140 59s-59 87-59 140 20 100 59 140c39 39 85 59 138 59zm435-152v-57h-57v-57h-57v57h-57v57h57v57h57v-57h57z"/></svg>
