<svg xmlns="http://www.w3.org/2000/svg" viewBox="0 -202 966 1008"><path fill="currentColor" d="M483 157v2c59 0 108 19 148 61 42 43 63 90 63 149 0 55-20 104-63 148-40 40-89 61-148 61-58 0-107-21-149-61-42-42-62-91-62-149 0-59 20-108 62-150s91-61 149-61zm335 254c31 0 54 11 75 31 20 20 31 47 31 74s-11 54-31 74-44 31-75 31c-29 0-53-11-73-31s-30-47-30-74 10-54 30-74c20-21 44-31 73-31zM73 442c19-19 45-31 74-31s55 12 74 31 31 45 31 74c0 28-11 55-30 74s-46 31-75 31-55-12-74-31c-20-19-31-46-31-74 0-29 11-55 31-74zm624 244v1c28-27 67-40 121-40 43 0 80 11 107 27 25 17 41 39 41 63 0 12-17 24-42 32-27 8-65 14-107 14-23 0-45-2-66-5l1 11c0 21-26 41-78 57-51 19-116 26-192 26-82 0-145-7-196-26-51-17-74-36-73-57l1-12c-28 4-50 6-67 6-88 0-147-22-147-46 0-50 57-91 147-91 55 0 95 13 122 40 55-43 123-65 214-65s159 22 214 65z"/></svg>
