<svg xmlns="http://www.w3.org/2000/svg" viewBox="0 0 566.93 566.93"><path d="M27 27C45 9 67.49 0 94.49 0h377.95c27 0 49.49 9 67.49 27s27 40.49 27 67.49v377.95c0 26.25-9 48.74-27 66.74-18 18.75-40.49 27.75-67.49 27.75H94.49c-27 0-49.49-9-67.49-27.75-18-18-27-40.49-27-66.74V94.49c0-27 9-49.5 27-67.49zm398.95 64.49v-.75c-12.75 5.25-23.25 18-23.25 35.25 0 21.75 15 37.5 38.25 37.5 17.25 0 30-10.5 35.25-23.25 3.75-12.75 1.5-28.5-9.75-39.75-11.26-12-27.75-14.25-40.5-9zm-48 191.22c0-27-9-49.49-27-67.49-18-18-40.49-27-67.49-27s-49.49 9-67.49 27-27 40.49-27 67.49c0 26.25 9 48.74 27 66.74 18 18 40.49 27.75 67.49 27.75s49.49-9.75 67.49-27.75c18-17.99 27-40.49 27-66.74zM62.99 471.69c0 18.75 12.75 31.5 31.5 31.5h377.95c18.75 0 31.5-12.75 31.5-31.5V282.71h-62.99c0 44.24-14.25 80.99-45.74 112.49-30 30-66.74 44.99-111.74 44.99-44.24 0-81.74-15-111.74-44.99-30-31.5-45.74-68.24-45.74-112.49h-63v188.98z" fill="#040000"/></svg>
