<svg xmlns="http://www.w3.org/2000/svg" viewBox="0 -189 839 1008"><path fill="currentColor" d="M449 181c0 9-5 14-16 14h-27c-11 0-16-5-16-14V55c0-11 5-16 16-16h27c11 0 16 5 16 16v126zm-221 93l-1-1c-7 7-14 8-19 3l-91-91c-7-7-7-14 0-21l22-21c7-7 15-7 22 0l89 90c7 7 7 14 0 21zm496-106l1 1c8 8 8 15 0 22l-89 89c-7 5-14 5-21 0l-21-22c-7-7-7-14 0-21l88-88c7-9 14-9 22 0zM311 780c-5 0-9-3-12-8-3-74-19-136-55-190-25-40-39-81-39-124 0-59 24-112 63-152 39-39 92-63 151-63s112 24 152 63c39 40 63 93 63 152 0 42-11 80-35 116-35 54-55 118-58 196-4 7-6 10-13 10H311zm514-392c9 0 14 5 14 16v29c0 9-5 14-14 14H699c-9 0-14-5-14-14v-29c0-11 5-16 14-16h126zM0 415c0-11 5-15 14-15h126c11 0 16 4 16 15v28c0 11-5 16-16 16H14c-9 0-14-5-14-16v-28zm526 459H313v-2l-2 2c-11 0-16-5-16-16v-33c0-11 5-16 16-16h217c9 0 13 5 13 16v33c0 11-4 16-13 16l-2-2v2zm-215 95c-11 0-16-5-16-16v-34c0-8 5-13 16-13h217c9 0 13 5 13 13v34c0 11-4 16-13 16H311z"/></svg>
