<svg xmlns="http://www.w3.org/2000/svg" viewBox="0 0 50.59 34.38"><path d="M44.46 13.21a8.367 8.367 0 0 1-5.87 2.4c-2.17 0-4.1-.84-5.6-2.16a7.707 7.707 0 0 1-7.7 7.52 7.718 7.718 0 0 1-7.7-7.52 8.37 8.37 0 0 1-5.6 2.16c-2.3 0-4.34-.93-5.87-2.4-4.9 0-6.14 5.7-6.14 10.64 0 2.73 1.8 4.97 4 4.97h8.81c.23-6.49 2.56-10.04 6.61-10.04h.2l.15.14a8.13 8.13 0 0 0 4.1 2.13c.47.09.95.14 1.43.14s.96-.05 1.43-.13a7.835 7.835 0 0 0 4.09-2.13l.15-.14h.2c4.06 0 6.38 3.56 6.61 10.04h8.81c2.2 0 4-2.23 4-4.97.02-4.95-1.21-10.65-6.11-10.65z"/><path d="M12.01 14.41c2.39 0 4.5-1.18 5.82-2.97.56-.77.98-1.66 1.2-2.62.12-.52.19-1.06.19-1.61 0-3.97-3.24-7.2-7.2-7.2C8.04 0 4.8 3.24 4.8 7.2c0 3.97 3.24 7.21 7.21 7.21zM31.36 19.78a8.88 8.88 0 0 1-4.73 2.29c-.44.07-.89.11-1.34.11-.45 0-.9-.04-1.34-.11a8.955 8.955 0 0 1-4.72-2.29c-4.3.15-5.28 5.3-5.42 9.04-.01.38-.02.75-.02 1.1 0 2.46 1.57 4.47 3.5 4.47H33.3c1.93 0 3.5-2 3.5-4.47 0-.34-.01-.72-.02-1.1-.14-3.75-1.12-8.89-5.42-9.04z"/><path d="M18.59 13.27c0 3.14 2.17 5.77 5.09 6.5.52.13 1.06.2 1.61.2.56 0 1.1-.08 1.61-.2 2.92-.73 5.09-3.36 5.09-6.5v-.01c0-3.69-3.01-6.7-6.7-6.7-3.69 0-6.69 3.01-6.7 6.71 0-.01 0 0 0 0zM32.77 11.44a7.186 7.186 0 0 0 5.82 2.97c3.97 0 7.2-3.24 7.2-7.2 0-3.97-3.24-7.2-7.2-7.2s-7.2 3.24-7.2 7.2c0 .55.07 1.09.19 1.61.21.96.63 1.84 1.19 2.62z"/></svg>
