<svg xmlns="http://www.w3.org/2000/svg" viewBox="0 -144 792 1008"><path fill="currentColor" d="M792 697c0 21-9 60-17 79-12 27-44 45-69 59-33 18-67 29-105 29-52 0-99-21-147-39-34-12-68-27-98-46-96-60-211-175-271-271-19-30-34-64-46-98-18-48-39-95-39-147 0-38 11-72 29-105 14-25 32-57 59-69 19-8 58-17 79-17 3 0 7 0 11 2 12 4 24 31 30 42 18 33 35 65 54 97 9 14 26 32 26 50 0 34-102 84-102 114 0 16 15 35 22 49 57 102 128 173 230 230 14 7 33 22 49 22 30 0 80-102 114-102 18 0 36 17 50 26 32 19 64 36 97 54 11 6 38 18 42 30 2 4 2 8 2 11z"/></svg>
