<svg xmlns="http://www.w3.org/2000/svg" viewBox="0 -144 1152 1008"><path fill="currentColor" d="M268 164l-53 232h-74l57-248c15-66 73-112 140-112h94c0-20 16-36 36-36h216c20 0 36 16 36 36h94c67 0 125 46 140 112l57 248h-74l-53-232c-7-33-36-56-70-56h-94c0 20-16 36-36 36H468c-20 0-36-16-36-36h-94c-34 0-63 23-70 56zm650 685l18-234c2-20-13-37-33-39s-37 13-39 33l-18 234c-2 20 13 37 33 39h3c19 0 35-15 36-33zm-198-3V612c0-20-16-36-36-36s-36 16-36 36v234c0 20 16 36 36 36s36-16 36-36zm-216 0V612c0-20-16-36-36-36s-36 16-36 36v234c0 20 16 36 36 36s36-16 36-36zm-231 36c20-2 35-19 33-39l-18-234c-2-20-19-35-39-33-19 2-35 19-33 39l18 234c1 18 17 33 36 33h3zM72 432h1008c40 0 72 32 72 72s-32 72-72 72h-8l-65 372c-6 35-36 60-71 60H216c-35 0-65-25-71-60L80 576h-8c-40 0-72-32-72-72s32-72 72-72z"/></svg>
