<svg xmlns="http://www.w3.org/2000/svg" viewBox="-6 -192 1260 1008"><path fill="currentColor" d="M1203 735l49 30c6 4 9 10 6 18-13 41-35 78-67 112-6 6-11 5-18 2l-49-28c-21 18-45 32-71 42v59c0 8-4 12-12 13-43 10-86 10-129 0-8-1-12-5-12-13v-59c-26-10-49-24-71-42l-51 28c-6 4-12 4-18-2-30-33-52-71-65-112-3-8 0-14 8-18l49-30c-6-27-6-55 0-82l-49-30c-6-4-9-10-6-18 13-41 35-79 65-112 5-6 12-8 18-6l51 30c21-18 45-32 71-42v-59c0-7 4-12 12-13 43-10 86-10 129 0 8 1 12 6 12 13v59c26 10 49 24 71 42l49-28c7-3 12-4 18 2 32 34 54 71 67 112 2 8 0 15-6 18l-51 30c6 27 6 55 2 82zm-225 52c26 0 48-10 67-28 20-18 30-39 30-65s-10-47-30-67c-19-20-43-29-68-29-26 0-48 9-65 27-18 18-28 39-28 65s10 47 28 65c17 18 39 28 65 28zM441 499c-45 0-89-12-128-33-39-22-71-52-92-91-22-39-34-81-34-126s12-87 34-126c21-39 51-69 90-91 39-21 81-33 126-33s87 12 126 33c39 22 69 54 91 93 21 39 33 83 33 128s-12 89-33 128c-22 39-54 71-93 92-39 22-83 34-128 34zm388 453v20c0 6 2 13 4 21-16 12-34 18-53 18H87c-26 0-48-10-65-28-18-17-28-39-28-65v-82c0-48 12-91 36-132 23-42 55-73 96-97 41-23 85-35 132-35h33c46 22 93 31 142 31s97-9 142-31h33l22 2-6 18c-6 17-6 35 0 53 6 17 18 31 34 41l15 8v16l-15 10c-16 9-28 23-34 39s-6 33 0 51c16 51 42 97 79 138 16 18 35 26 57 26 14 0 28-4 41-12l14-8h4c4 4 8 6 10 6v-8z"/></svg>
