<svg xmlns="http://www.w3.org/2000/svg" viewBox="0 0 1060.8 857.9"><style>.st0{fill:#51c332}</style><path class="st0" d="M410.5 465.9c17.8-43.1 45.4-79 80.7-109.2 22.2-19 46.7-34.7 72.9-47.6 38.9-19.2 80-31 123-36.7 22.4-3 45-3.9 67.6-3.2 7.7.3 7.7.3 6-7.2-6.4-28.5-16.9-55.3-31.4-80.6-14.8-25.6-33-48.5-54.1-69.1-17-16.7-35.6-31.4-55.5-44.4-24.5-16-50.5-28.9-77.7-39.3-43.3-16.5-88.2-25.5-134.3-28-17.7-.9-35.5-.8-53.2.4-17.3 1.1-34.5 3.1-51.6 6.2-42.7 7.6-83.5 21.1-122 41.1-38.9 20.2-73.5 46-103.1 78.4-23.8 26.1-42.9 55.2-56.5 87.7-11.9 28.5-19 58.2-20.8 89-1.1 19-.3 38 2.7 56.9 3.9 24.9 11 48.7 21.4 71.6 10.6 23.5 24.2 45.2 40.3 65.3 10.7 13.2 22.3 25.6 34.8 37.1 10.5 9.7 21.8 18.5 33.1 27.2 8.9 6.8 12.1 16 9.3 26.8-5.9 22.8-12.1 45.6-18.3 68.4-.6 2.2-1.2 4.4-1.2 6.8-.1 9.7 9.2 15.9 18.1 11.9 1.7-.8 3.4-1.8 5-2.7l81.6-47.1c9.8-5.6 20-7 31-3.9 16.6 4.7 33.3 8.6 50.3 11.3 14.5 2.3 29 4.1 43.7 5 5.9.4 11.7.5 17.6.9 11.4.7 22.7.2 34.2-.3.1-2.1-.6-3.6-1.1-5.2-6.6-20.7-10.1-41.9-11.1-63.5-.5-11.6 0-23.2 1.2-34.8 2.4-24 8.2-47 17.4-69.2zm100.6-299.5c28.2 0 50.7 22.5 51 50.7.2 25.6-19.8 51.1-51 51.1-29.6 0-50.7-23.6-50.8-50.9-.1-28 22.7-50.8 50.8-50.9zM255.7 268.3c-30.9.1-51.2-25.1-51-51.1.2-28.2 22.9-50.7 51.1-50.7 28.1.1 50.9 22.8 50.8 50.9 0 26.2-20.3 50.8-50.9 50.9z"/><path class="st0" d="M1058.8 530.7c-3.2-24.8-10.4-48.3-21.4-70.7-19.7-40.1-48.5-72.6-84.3-99.1-26.5-19.7-55.6-34.7-86.7-45.8-40.5-14.4-82.4-21.2-123.5-21.3-8.1.1-14.3.2-20.6.5-16.2.8-32.3 2.6-48.2 5.4-42 7.5-81.5 21.7-118.2 43.5-29.9 17.7-56.3 39.6-78.4 66.5-28.9 35.2-47.6 75-53.8 120.3-3 21.9-2.7 43.7.8 65.6 5.4 33.7 18 64.5 36.7 92.9 20.4 30.9 46.4 56.2 76.8 77.1 22.2 15.2 46 27.4 71.1 37 36.9 14 75.2 21.6 114.6 23.3 13.6.6 27.3.5 41-.4 9.7-.6 19.3-1.5 28.9-2.8 17.1-2.4 33.9-5.8 50.5-10.6 10.2-3 19.6-1.6 28.7 3.7 18.3 10.7 36.7 21.2 55 31.8 5.2 3 10.4 6 15.6 8.9 3.6 1.9 7.3 1.5 10.5-.8 3.5-2.5 5.1-6 4.6-10.3-.2-1.5-.7-3-1.1-4.5-5-18.5-9.9-36.9-14.9-55.4-2.8-10.3.1-18.6 8.7-24.9 3.5-2.6 6.9-5.2 10.3-7.9 33.2-26.6 59.8-58.4 77.8-97.1 18.6-39.7 25.1-81.4 19.5-124.9zM635 517.5c-23.4.1-42.4-18.6-42.7-42.1-.3-23.2 18.8-42.7 42-42.8 23.1-.1 42.5 17.9 42.9 42.3-.3 24.9-20.1 42.4-42.2 42.6zm212.8 0c-23.5.1-42.6-19.1-42.5-42.6.1-23.4 19.1-42.5 42.5-42.3 23.3.2 42 18.5 42.4 42.4-.4 25.2-20.5 42.4-42.4 42.5z"/></svg>
