<svg xmlns="http://www.w3.org/2000/svg" viewBox="0 0 204.9 178"><path d="M172.4 87.3l-68.2-50.8c-1.1-.8-2.5-.8-3.6 0L32.7 87.2l-.2.2c-.8.6-1.2 1.5-1.2 2.4V175c0 1.7 1.3 3 3 3h25.3c1.7 0 3-1.3 3-3v-46.8h34.2V175c0 1.7 1.3 3 3 3h70.8c1.7 0 3-1.3 3-3V89.7c0-.9-.4-1.8-1.2-2.4zm-4.8 84.7h-64.8v-46.8c0-1.7-1.3-3-3-3H59.6c-1.7 0-3 1.3-3 3V172H37.3V91.3l65.2-48.6 65.2 48.6V172z"/><path d="M203.7 74.7L178 55.6V22.9c0-1.7-1.3-3-3-3h-35c-1.7 0-3 1.3-3 3V25L104.2.6c-1.1-.8-2.5-.8-3.6 0L1.2 74.7c-1.3 1-1.6 2.9-.6 4.2l13.2 17.7c.5.6 1.2 1.1 2 1.2.8.1 1.6-.1 2.2-.6l84.4-63 84.4 63c.5.4 1.2.6 1.8.6h.4c.8-.1 1.5-.5 2-1.2l13.2-17.7c1.1-1.3.8-3.2-.5-4.2zm-15.6 16l-83.8-62.5c-.5-.4-1.2-.6-1.8-.6s-1.3.2-1.8.6L16.8 90.7l-9.6-13 95.3-71 35.8 26.7c.9.7 2.1.8 3.1.3s1.7-1.5 1.7-2.7v-5.1h29v30.3c-.3 1.2.1 2.5 1.1 3.2l24.6 18.3-9.7 13zM121.6 159.3h31.9c1.7 0 3-1.3 3-3v-31.2c0-1.7-1.3-3-3-3h-31.9c-1.7 0-3 1.3-3 3v31.2c0 1.7 1.3 3 3 3zm3-31.1h25.9v25.2h-25.9v-25.2z"/></svg>
