<svg xmlns="http://www.w3.org/2000/svg" viewBox="0 0 501.3 388.9"><path d="M398.6 388.9H410V287.5l-6.3 14.3-36.2 44.3c-2 2.4-4 3.6-5.9 3.6-.6 0-1.2-.1-1.8-.4-1.3-.6-3.5-2.4-2.9-7.7l9-64.7 1.3 2.3 42.8-98V82.4c-.4-6.9 1.9-15.5 6.7-24.9C426.5 38.4 448 15.1 481.2 0h-303C113 18.6 86.5 67.9 90.1 84.1l1.2 5.6h-1.7V302h231.3c-6.4 17.6 19.6 65 77.7 86.9zM0 311.1c.5 3.5 1.9 8.2 4.9 14 10.3 20 35.6 45.2 75.6 57.9v-71.9H0z"/><path d="M318.1 333.5c-4.1-8-6.5-15.6-7.1-22.4H89.7v73.2h278.5c-25-15.1-41.7-34.4-50.1-50.8zM80.6 311.1V383c1.3.4 2.4.9 3.8 1.3h.8v-73.2h-4.6z"/><path d="M85.1 311.1h4.6v73.2h-4.6zM498.6 70.5c2-4.5 2.9-9.2 2.7-13-.2-3.2-1.3-5.4-2.8-6.1l-14.3-6.2c-3.2-1.4-9.9 3.2-14.2 12.9l-17.3 39.7 28.6 12.5 17.3-39.8zM447.73 108.876l1.641-3.757 28.687 12.523-1.64 3.757zM474.8 125.1l-28.7-12.5-27 61.8v78.1zM362.5 342.3c0 .3-.1.7-.1.9l.7-.7 35.8-43.7 11.1-25.4v-78.1l-39.7 90.8-7.8 56.2zM419.1 252.5v-78.1l-4.6 10.5v78zM414.5 262.9v-78l-4.5 10.4v78.1z"/></svg>
