<svg xmlns="http://www.w3.org/2000/svg" viewBox="0 0 124 124"><path d="M2.3 45.2c-9.3 33 9.9 67.2 42.9 76.5 33 9.3 67.2-9.9 76.5-42.9 9.3-33-9.9-67.2-42.9-76.5-32.9-9.2-67.2 10-76.5 42.9zm3.1 9.7c-2-6.5 1.6-13.3 8.1-15.4 6.5-2 13.3 1.6 15.3 8.1s-1.6 13.3-8.1 15.3c-6.4 2.1-13.3-1.5-15.3-8zm10.8 18.6c.1.3 6.4 31.9 38.8 40.3 1 .3 1.7 1.3 1.4 2.4-.3 1-1.3 1.7-2.4 1.4-34.9-9.1-41.6-43.1-41.7-43.4-.2-1.1.5-2.1 1.6-2.3 1.1-.1 2.1.6 2.3 1.6zm74-20.3c.4 1.4-.4 2.9-1.8 3.4l-51.2 16c-1.4.4-2.9-.4-3.4-1.8-.4-1.4.4-2.9 1.8-3.4l51.2-16c1.4-.4 2.9.4 3.4 1.8z" fill="#ef823b"/></svg>
