<svg xmlns="http://www.w3.org/2000/svg" viewBox="-3 -191 1008 1008"><path fill="currentColor" d="M675 18l318 315c19 16 24 37 16 62-20 68-57 124-108 175-42 40-108 88-206 146-86 50-144 91-179 125-38 36-61 76-76 122-3 11-10 19-17 27-11 8-19 13-30 16-24 7-45 2-61-15L17 676C0 659-7 639 1 614c20-66 57-123 108-175 39-40 107-88 205-146 87-51 145-89 179-124 39-38 60-77 75-123 3-11 10-19 17-27 11-8 19-13 30-16 25-7 44-2 60 15zM281 847l100 99c25-83 80-144 146-196 66-51 141-90 207-128 48-27 93-62 132-104 38-42 67-89 83-141L790 219 634 62c-24 84-78 145-144 195-66 51-142 90-210 130-47 27-92 61-130 103s-68 88-84 140zm301-604h2c16-16 30-30 43-49l20-28c3-3 2-4 5-4 9-8 15-8 20 0 8 7 9 14 2 22l-21 30c-15 19-30 34-49 53-15 15-32 32-55 49-7 7-15 6-23-2-5-7-5-14 0-22 1-1 2-2 3-2 21-17 38-32 53-47zM428 430v-1c-13 19-23 43-6 54 15 15 29 13 56-2zm103 80l53 57c16-16 18-37 10-52-9-15-27-22-50-11-1 1-6 3-13 6zm27-61l-2 2c23-3 42 2 63 19 9 7 16 15 20 26 3 11 5 20 2 31 0 8-3 20-10 33-7 15-12 26-23 38l16 13c7 4 6 12 2 16-4 5-13 8-18 1-7-7-11-10-15-17-12 12-24 20-36 24-9 4-21 6-33 6-29-1-47-17-52-33-7-15-1-30 16-30 11 0 21 9 33 14s25 8 44-8c-15-15-33-36-57-63-23 12-42 16-65 19-19 1-35-3-51-15-9-8-16-17-20-26-4-12-5-21-4-29 3-12 5-23 10-34 7-13 14-23 21-31 0-3-2-5-6-6-7-3-6-11-1-18 4-5 12-7 16 0l7 6c11-11 30-23 50-28 19-4 39-2 54 14 11 11 11 26 0 34-5 4-10 4-15 3-4-1-10 0-18-3-13-7-27-7-43 6 15 15 30 31 51 58 11-7 20-10 32-14 11-4 21-5 32-8zm-92 252c8-7 14-7 21 0 8 8 8 16 0 24h-2c-21 17-38 32-53 47-16 16-30 30-43 49l-20 28c-1 1-2 3-2 3-8 8-15 8-23 0-7-5-8-12-3-19l21-30c15-19 30-34 49-53 15-16 34-32 55-49z"/></svg>
