<svg xmlns="http://www.w3.org/2000/svg" viewBox="0 -202 588 1008"><path fill="currentColor" d="M551 834c-24 25-53 37-89 37H126c-36 0-66-12-90-37-24-24-36-54-36-89V241c0-36 12-66 36-90s54-36 90-36h336c36 0 65 12 89 36 25 24 37 54 37 90v504c0 35-12 65-37 89zm-47-593c0-27-17-43-42-43H126c-25 0-42 16-42 43v504c0 25 17 42 42 42h336c25 0 42-17 42-42V241zM126 367V241h336v126H126zm42-43h252v-41H168v41zm0 169c-28 0-42-15-42-43s14-41 42-41 42 13 42 41-14 43-42 43zm126 0c-28 0-42-15-42-43s14-41 42-41 42 13 42 41-14 43-42 43zm126 0c-28 0-42-15-42-43s14-41 42-41 42 13 42 41-14 43-42 43zM168 619c-28 0-42-15-42-43s14-41 42-41 42 13 42 41-14 43-42 43zm126 0c-28 0-42-15-42-43s14-41 42-41 42 13 42 41-14 43-42 43zm126 0c-28 0-42-15-42-43s14-41 42-41 42 13 42 41-14 43-42 43zM168 745c-28 0-42-15-42-43s14-41 42-41 42 13 42 41-14 43-42 43zm126 0c-28 0-42-15-42-43s14-41 42-41 42 13 42 41-14 43-42 43zm126 0c-28 0-42-15-42-43s14-41 42-41 42 13 42 41-14 43-42 43z"/></svg>
