<svg xmlns="http://www.w3.org/2000/svg" viewBox="0 -144 1008 1008"><path fill="currentColor" d="M503 928c76 0 146-19 211-57s116-89 154-154 57-135 57-211c0-57-11-112-33-164s-52-97-90-135-83-68-135-90-107-33-164-33c-76 0-146 19-211 57s-116 89-154 154-57 135-57 211 19 146 57 211 89 116 154 154 135 57 211 57zm1-908l-1 3c66 0 129 13 189 39s111 60 154 103 77 94 103 154 39 119 39 178-8 113-24 162-39 93-69 133-65 75-105 105c-83 62-178 93-286 93-66 0-129-13-189-39s-111-60-154-103-77-94-103-154-39-123-39-189 13-129 39-189 60-111 103-154 94-77 154-103 123-39 189-39zm0 534l126-116c5-5 11-7 18-7s13 2 18 7 8 11 8 18-3 13-8 18L522 615c-5 5-11 7-18 7s-13-2-18-7L342 474c-5-5-7-11-7-18s2-13 7-18 11-7 18-7 13 2 18 7z"/></svg>
