<svg xmlns="http://www.w3.org/2000/svg" viewBox="0 -144 1008 1008"><path fill="currentColor" d="M553 204v269l180-179c11 11 22 24 33 39L552 543v8c0 10-3 18-8 25s-10 11-14 13L323 709l-50-87 179-103V204h101zm-50 686c69 0 133-17 192-51s106-80 140-139 51-123 51-192-17-133-51-192-81-105-140-139-123-51-192-51-133 17-192 51-105 80-139 139-51 123-51 192 17 133 51 192 80 105 139 139 123 51 192 51zm1-870l-1 3c66 0 129 13 189 39s111 60 154 103 77 94 103 154 39 119 39 178-8 113-24 162-39 93-69 133-65 75-105 105c-83 62-178 93-286 93-66 0-129-13-189-39s-111-60-154-103-77-94-103-154-39-123-39-189 13-129 39-189 60-111 103-154 94-77 154-103 123-39 189-39z"/></svg>
