<svg xmlns="http://www.w3.org/2000/svg" viewBox="0 0 63.3 13"><path d="M33.8 6.3c-.5 0-.9.2-1.3.4v4.1h1c1.3 0 1.5-.6 1.5-1.4v-2c-.1-.6-.3-1.1-1.2-1.1m-8.7-.2c-.9 0-1.1.5-1.1 1.1v.3h2.2v-.3c0-.6-.2-1.1-1.1-1.1M8.4 10.3c0 .5.2.7.7.7.5 0 .9-.2 1.3-.4v-1H9.2c-.5.1-.8.2-.8.7m33.8-4c-.9 0-1.2.5-1.2 1.1v2.2c0 .6.3 1.1 1.2 1.1.9 0 1.2-.5 1.2-1.1V7.4c0-.6-.3-1.1-1.2-1.1M4 12.8H1.3V6.4H0V4.2h1.3V2.9c0-1.8.8-2.9 2.9-2.9H6v2.2H4.9c-.9 0-.9.3-.9.9v1.1h2l-.2 2.2H4v6.4zm9.1.1h-2.2l-.1-.6c-1 .6-1.9.6-2.5.6-1.6 0-2.5-1.1-2.5-2.6 0-1.8 1-2.4 2.8-2.4h1.8v-.3c0-.9-.1-1.2-1.5-1.2H6.6l.2-2.2h2.5c3 0 3.7 1 3.7 3.4v5.3h.1zm7.5-6.3c-1.4-.2-1.8-.3-2.4-.3-1.2 0-1.5.3-1.5 1.3v1.9c0 1 .4 1.3 1.5 1.3.7 0 1.1-.1 2.4-.3v2.2c-1.2.3-2 .3-2.7.3-2.9 0-4-1.5-4-3.7V7.7c0-2.2 1.1-3.7 4-3.7.7 0 1.5.1 2.7.3v2.3zm8.3 2.7H24v.2c0 1 .4 1.3 1.5 1.3s1.7-.1 3.1-.3v2.2c-1.3.3-2 .3-3.3.3-2.9 0-4-1.5-4-3.7V7.5c0-1.9.8-3.4 3.8-3.4 2.9 0 3.8 1.5 3.8 3.4v1.8zm8.6 0c0 2.1-.6 3.6-4.2 3.6-1.3 0-2.1-.1-3.5-.3V.7l2.7-.4v4.2c.6-.2 1.3-.3 2-.3 2.7 0 3.1 1.2 3.1 3.1v2h-.1zm8.5.1c0 1.8-.7 3.6-3.9 3.6s-3.9-1.8-3.9-3.6V7.6c0-1.8.8-3.6 3.9-3.6S46 5.8 46 7.6v1.8zm8.5 0c0 1.8-.7 3.6-3.9 3.6s-3.9-1.8-3.9-3.6V7.6c0-1.8.8-3.6 3.9-3.6s3.9 1.8 3.9 3.6v1.8zm8.8 3.4h-2.9L58 8.7v4.1h-2.7V.7L58 .3v7.8l2.4-3.9h2.9l-2.7 4.2 2.7 4.4zM50.7 6.3c-.9 0-1.2.5-1.2 1.1v2.2c0 .6.3 1.1 1.2 1.1.9 0 1.2-.5 1.2-1.1V7.4c0-.6-.3-1.1-1.2-1.1zm0 0" fill="#fff"/></svg>
