<svg xmlns="http://www.w3.org/2000/svg" viewBox="0 0 207.1 206.91"><path d="M28.29 198.19s11.96-.13 26.17-.14c-.15-14.86.82-60.7 18.85-44.43 22.11 19.94 29.82-12.94 37.09-28.01 8.02-16.62 21.45 25.07 16.09 45.1-7.12 26.59 36.83-6.81 26.72 15.19-4.08 8.87-8.28 14.49-11.85 18.08 12.1 1.6 21.57 2.93 21.57 2.93 56.13-9.85 47.61-69.3 34.37-58.65-17.11 13.78-22.57-9.76-14.46-35.24 16.54-51.99-64.28-151.93-72.44-97.05-9.99 67.14-51.33 96.81-64.65 97.34-18.41.74-25.91-24.83-30.84-17.47-40.1 59.91 13.38 102.35 13.38 102.35z"/></svg>
