<svg xmlns="http://www.w3.org/2000/svg" viewBox="0 0 42.72 54"><path d="M38.06 7.79c-1.31-2.11-2.89-4.12-3.4-6.67-.3-1.55-1.31-1.26-2.19-.49-3.98 3.53-7.9 7.06-10.61 11.44-2.69-2.88-5.65-5.13-9.09-6.87C10.34 3.96 7.71 2.99 5.78.88c-1.16-1.27-1.95-.43-2.33.8-2.79 9-5.43 17.92-1.34 27.36 3.3 7.62 8.13 13.44 16.45 15.16 4.6.94 7.48 3.42 9.71 7.2.01.02.02.04.03.05 0 .4.01.79.03 1.19.02.58.15 1.36.8 1.35.45.03.61-.19.66-.48.27.21.58.31.91.11.85-.44.15-1.12-.15-1.61-.28-.45-.58-.9-.88-1.34-.03-.33-.06-.66-.12-.99-.74-4.42-.5-5.16 3.24-7.44 6.67-4.08 9.63-10.17 9.94-16.59-.06-7.16-1.48-12.75-4.67-17.86zM26.2 43.31c1.13 1.68 1.74 3.5 1.97 5.5-1.99-2.36-2.58-3.52-1.97-5.5zm3.6-6.46c-.27 0-.54-.02-.8-.04 2.06-6.28 1.13-12.31-1.68-17.49a54.1 54.1 0 0 0-2.42-3.57c1.48-.73 3.14-1.15 4.91-1.15 6.15 0 11.13 4.98 11.13 11.13-.02 6.13-5 11.12-11.14 11.12z" fill-rule="evenodd" clip-rule="evenodd"/></svg>
