<svg xmlns="http://www.w3.org/2000/svg" viewBox="0 0 589 496.1" overflow="scroll"><style>.st0{fill:#fff}</style><path class="st0" d="M416.7 327.9c-3.1 0-5.5 2.5-6.5 5.6-1.5 4.8-31.9 103.5-33.2 108.3-2.2 8.4 1.5 16.8 7.5 18.3 27.8 7 53.1 4.7 81-6.6 4.2-1.7 7.8-8.9 4.3-17.3-2.7-6.4-39.3-86.6-46.7-102.3-1.5-3.2-3-5.9-6.4-6zM412 447.5c-12.5 9.4-8.9-32.6-8.6-39 .4-10.6 3.5-20.9 4.1-31.6l2 6.6c1 11.1 1 22.3 2.7 33.3 1.1 7.2 7.2 25.2-.2 30.7zm20.6-68.8c1.5 3.3 3 6.6 4.5 10.1 4 6 8.8 11.8 12.2 17.7 3.8 6.5 13.6 25.1 9.6 32-10.6-1-11.4-18.5-13.6-27-1.9-7.5-5-15.2-8.2-22.7-2.3-3.4-4.4-6.9-5.7-10.5l1.2.4zm1.9 52.7c-.1 16.3-8.4 10.2-11-1.6-5.4-24.6-4.7-52.9-4.3-78v2.2c1.4 14.1 3.6 28.1 6.8 41.8 2.8 11.6 8.6 23.4 8.5 35.6zM493.3 437.5c24.2-16.5 40.7-37.6 53.2-67.1 1.9-4.5-.2-12.2-8.2-15.4-6.1-2.4-84-30.7-99.5-36.1-3.2-1.1-6-1.8-8.4.7-2.2 2.3-2.3 6-1 8.9 2.1 4.5 44.4 97.5 46.7 101.9 3.8 7.7 11.9 10.8 17.2 7.1zm-6-86.3c8.5 4.8 20.3 8.1 27.3 15.3 8.8 8.9 2 15.5-7.4 9.5-16.1-10.2-28.5-28-44-39.3l-.4-.9c7 7.2 16 10.5 24.5 15.4zm-41-13.6c-2.4-1.9-4.6-3.9-5.9-6.2l4 4.4c.7.5 1.3 1.2 1.9 1.8 4.1 3.2 8.9 5.9 12.5 8.8 6.2 5.1 11 11.1 15.6 17.1 5.4 7 10.5 13.1 16.4 19.8 4.7 5.3 18.7 14.2 17.8 22.3-14.3 4-24.2-21.2-31.1-30.9-9-12.7-19.9-26.3-31.2-37.1zm10.9 34.4c-3-3.3-5.7-6.7-7.1-10.5l3.2 4.9c1.3 1.6 2.6 3.6 3.9 5.6 5.5 5.9 12.3 11.2 16.5 16.9 5.1 7 24 19.5 20.9 30.1-9.9-.8-18.1-16-23.1-24-4.5-7.2-9.5-15.8-14.3-23zM548 247.5c-1-3-4.2-5.4-8.4-5.9l-106.8 58.3c-.1.5-.3.9-.3 1.4 0 3.4 2.3 6 5.1 7 4.4 1.6 94.7 34.4 99.2 35.8 7.7 2.4 15.4-1.7 16.8-8.3 6.6-30.3 4.5-58-5.6-88.3zM468.8 290c10.8-3 21.2-7.8 31.8-11.6 8.9-3.3 20.9-12 30.5-10.3 13.6 2.4 2.1 12.1-5.1 14.2-9 2.6-19.3 5.7-28.6 6.6-10.8 1.1-20.2-1.4-30.7 3.4l2.1-2.3zm73 38.5c-7 8.6-38-8-45.8-10.3l-2.2-.8c5.1 1.2 10.4 1.4 15.5 1.8 5.3.5 41-1.1 32.5 9.3zm-3.5-20.6c-10.9 1.6-23.7-.8-34.8-.8-12.1.1-23.6-3.1-35.4-5.7-1.1-.2-2.3-.3-3.4-.5l3.2.4h.1c11.5 1.6 23.4 2.8 34.9 2.1 12.5-.9 24.2-10.4 36.6-9.7 13.7.8 10.2 12.6-1.2 14.2zM126.3 179c-7.6-1.6-14.8 2.1-15.9 7.5-4.9 24.9-1.7 47.3 9.5 71.4 1.7 3.7 8.2 6.5 15.5 3 5.6-2.7 74.9-38.7 88.5-46.1 2.8-1.5 5.1-3 5-6-.1-2.7-2.5-4.8-5.2-5.5-4.3-1-93-23.4-97.4-24.3zm-3.4 31.2c-8.9-10.7 28.5-9.3 34.1-9.4 9.4-.1 18.7 2.1 28.1 2.2l-5.8 2.1c-9.8 1.4-19.7 1.9-29.4 3.9-6.2 1.3-21.8 7.4-27 1.2zm61.9 15.1c-2.8 1.5-5.7 3-8.7 4.4-5.1 3.8-10.1 8.3-15.2 11.6-5.6 3.6-21.6 13.2-27.9 9.9.4-9.5 15.9-10.9 23.3-13.2 6.5-2 13.2-5.1 19.7-8.3 2.9-2.2 5.9-4.2 9-5.5l-.2 1.1zm21.3-12.9c-12.4 1.9-24.7 4.5-36.7 7.9-10.2 2.9-20.4 8.6-31.2 9.1-14.4.6-9.4-7 .9-9.8 21.6-5.9 46.6-6.6 68.9-7.3l-1.9.1zM118.7 160.9c-1.7 3.7.7 10 8.6 12.2 6 1.7 82.6 21.1 97.8 24.7 3.1.7 5.9 1.2 8.1-1 .6-.6.7-1.5 1-2.2l-55.4-90.1c-3.9-2.1-8.4-2.5-11.7-.4-22.6 14.3-37.6 32.3-48.4 56.8zm44.4 10.8c-8.4-2.8-31.6-6.8-34.5-14.9 4.8-3.5 22 2.5 27.7 4.3 9.7 3.1 21.5 10 29.7 15.5l6.4 2.2c-9.7-1-20-4.1-29.3-7.1zm43.4 5.4c-1.7-1.5-3.6-3-5.3-4.5-6-3.3-12.7-5.4-18.5-9.1-8.6-5.4-16.8-11.8-25-17.6-4.5-3.2-15.9-13.3-3-10.1 9.2 2.3 16.8 11.9 23.5 17.6 7.6 6.5 15.4 12.8 23 19.3 2.2 1.2 4.2 2.5 6.1 4.1l-.8.3zm-15.8-40.6c7.3 8.3 13.7 18.9 19.5 28.5l-4.5-4.1c-9.8-14.8-34.5-24.7-39.7-42 11.5-1 18.5 10.6 24.7 17.6z"/><path class="st0" d="M573.1 227.1l-17.6 9.6c34.2 82 3 179.5-71.6 220.3-64.7 35.3-140.9 16.3-185.7-40.9 2.6-2.6 5.3-5.1 7.8-7.7 13.2 17.4 29.4 30.6 50.1 41 4.1 2.1 11.3-.2 14.2-8.9 2.3-6.7 28.5-91.8 33.5-108.7 1-3.5 1.6-6.6-.7-9.2-.6-.7-1.3-1.1-2.1-1.4l-32.8 17.9c.6-.8 1.3-1.6 2-2.4 12.4-16.6 21.6-34.4 28.3-52.9.8.3 1.9.4 3.2-.1l.2.5c.6-13.6 16.2-27.7 28.3-32.7.5-.2 1.1-.4 1.7-.6 19.1 16.9 54.9 5.2 73.5-14.6 15.8-17.1 19.5-37 27.7-55.8 1.9-4.2 2.5-11 4.5-15.9.1-.1.2-.1.2-.2 3.2-5.5 8.8-10 12-15.2l-8.8 3c-22.8 14.3-54.9 1.5-80.9 12.5-29 13.1-49.6 54.7-35 78.8.3.5.7.8 1 1.3-2.3 2.4-4.5 5-7 7.6-3.4 3.6-8.1 7.1-12.2 10.4-.8.6-1.7 1.4-2.6 2.2 4.4-16.6 7.1-33.6 8.1-50.7-1.3-.9-2.5-2.1-3.6-3.3-.6-3.8-1.7-7.4-2.6-10.5-1.5-5.1-6.1-9.5-8.6-14.5-.5-.8-1.8-4.3-3.6-7.7 1.7-1.5 3.4-3 5.1-4.4 33.5-28.6 41.3-71.5 12.4-107.6-31.1-35-82.9-40.2-129.5-49.3-12.9-3-25.1-5.9-36.9-9.5-6.5-2.4-13.1-4.7-19.5-7.5 5.6 4.8 12 17.1 13.1 23.9 12.2 73.5 10.2 172.2 123.4 171.2 10.9-.1 20-6.6 28.1-13.5l.1.1c3.3 3.9 5.3 8.7 7.5 12.9 3.1 6.2 7.5 12.8 5.1 19.6-1.8 5.2-11.7 12 1.4 14.6l.2-.2c-8.4 47.9-34.1 89.7-66.2 126.7l-42.1 23c-2.6 4.3-3.3 9.3-1.1 13.2 1 1.8 2.3 3.3 3.3 5-2.8 2.5-5.7 5-8.5 7.4-3.5-5.4-6.8-10.9-9.7-16.8l-17.6 9.6c3.4 6.9 7.3 13.4 11.3 19.7-8.9 6.4-18.4 12-28.2 17.2 0-3.2-1.1-6.3-2.3-8.6-1.7-3.3-3.7-6.9-4.6-10.3-.7-2.4-1.2-4.8-1.9-7 .5-.3 1-.4 1.4-.7 16.2-9.9 22.5-30 19.1-46.6 23.1-1.3 46.3-6.9 68.1-17.5l-9.3-15.1c-21.5 10.3-44.5 15.3-67.2 15.6-.3-.3-.5-.7-.8-1.1-5-4.5-11.7-7.3-18.9-9.7 25.7 3.6 49.2.5 74.5-9.4 2.6-1 4.6-4 4.8-7.7l-56.3-91.6c-.5-.1-.8-.5-1.4-.5-3 .1-5.2 2.3-6 4.8-1.2 4-26.2 85.5-27.2 89.5-1.3 5 .5 9.7 3.7 12.4-5.7-1.6-11.4-3.3-16.6-5.3 2.3-1.3 4.5-3.5 5.7-6.9 1.9-5.5 23.4-75.8 27.4-89.8.8-2.9 1.3-5.4-1-7.4-2.2-1.9-5.4-1.8-7.9-.5-3.9 2-84.3 43.8-88.1 46-6.6 3.8-8.9 11.1-5.4 15.6 13.5 17.8 30.2 30.2 51.6 39.6.1 1 .3 2 .2 3 0 .1.1.2.1.2-.4 2-1.3 4.2-2.1 6.4-27.5-11.5-51.5-30.6-67.5-56.6C78.3 210.2 102 129 170.3 90.5L161 75.4C88.1 116.1 60 199.8 94.2 270c-11.9-5.2-26.5-7.4-40.6-2.9C13.5 280-.4 307.2 0 340c.3 34.8 16.5 66.8 38.3 92.9 22.8 26.9 52.8 37.9 80.4 44.9 29.7 7.6 58.6.3 78.5-3.3 33-6.1 61.6-23.7 86.1-44.7 50.5 64.6 136.5 86 209.4 46.2 84.3-46 119.4-156.4 80.4-248.9zm-73.3-60.2c.7-.1 1.5-.3 2.2-.4l-.4.7c-.7-.1-1.3-.2-1.8-.3-25.1 4.1-68.6 23.1-70 47.5-.6-31.9 35.7-54.1 70-47.5zm-184.9 9.3c-22-12.9-38.5-35-45.3-58.5-3.5-13.1-9.6-33.2-7.1-44.9 0 0 3.1 12.3 4.8 14.7 10.2 19.8 13 44.9 27.8 61.3 13.2 15.4 31.7 27.4 49.9 38.1-10.7-1.2-20.9-5.3-30.1-10.7zM371 399.9c-3.6 9.3-9.5 35.2-18.8 37.9-3.7-5.6 4.1-24.6 6.5-30.9 4.1-10.7 12.5-23.7 19.2-32.6l2.8-7.1c-1.7 11-5.7 22.5-9.7 32.7zm3.2-42.8c1.5-2.4 3.1-4.6 5-6.6l.4.9c-1.9 1.8-3.6 3.8-5.4 5.7-4 6.5-6.8 14-11.3 20.3-6.6 9.3-14.3 18.2-21.3 27.2-3.8 4.9-15.9 17.2-11.5 2.7 3.1-10.2 14.3-18.3 21.1-25.4 7.7-8.2 15.2-16.6 23-24.8zm-41.2 9.8c9.8-7.8 22.1-14.3 33.2-20.4l-4.9 4.9c-.5.3-.9.6-1.4.9-3 2-5.9 4.5-8.7 7.3.2-.3.5-.6.7-.8-12.9 12.3-24.2 31-40.3 35-.4-13.1 13.1-20.4 21.4-26.9zM262.5 255c3.2 9.4 7.8 18.5 11.7 27.6 3.3 7.7 11.6 17.9 10.5 26.5-1.5 12.2-10.6 2.4-12.8-3.9-2.7-7.8-5.9-16.9-7.2-25-1.5-9.5.3-18-4.4-27l2.2 1.8zm-10.2-.2l.3-3-.3 3c-.9 10.2-1.4 20.9-.3 31 1.3 11.1 10.3 21 10.3 32 0 12.1-10.6 9.5-12.6-.5-1.9-9.6-.4-21-.9-30.9-.6-10.6 1.7-21 3.5-31.6zm-13.6 25.5l.6-2c-.9 4.5-.8 9.3-.9 13.8-.1 4.8 2.9 36.3-6.7 29.2-7.9-5.8 5.4-34 7-41zm-22.9 54.8c9 .9 16.7 3.8 23 7.9h-.1c6.4 4 11 10.4 14.2 17.5 2.3 7.7 1.2 16.3-4.6 24.7 4.5-7.7 2.2-16.4-3-24.5-4.5-9.5-18.3-18.7-18.3-18.7-3.8-2.8-7.6-5.2-11.2-6.9-.5 0-.9-.1-1.4-.2v-.5c.4.2.9.4 1.4.7zm-4.2-62.6c-3.9 7.8-6.3 18.3-12.3 24.9-7.5 8.2-13.6 2.5-8.7-6.1 8.3-14.7 23.5-26.5 32.8-40.8l.8-.4c-6.2 6.5-8.7 14.7-12.6 22.4zm-59.7 9.6c.3-8.8 13.4-16.8 20.2-21.6 6.2-4.3 13.5-9.2 19.7-13.7 2.8-2.8 5.7-5.3 9-6.8l-4.2 3.1c-1.5 1.2-3.1 2.4-4.9 3.7-5 5.1-9.3 11.4-14.2 15.4-5.8 4.8-16 22.1-25.6 19.9zm31.4-5.1c-4.5 4.4-11.7 17.2-18.9 16.7-4.2-12.5 17.7-22.4 26-29 10.8-8.5 22.3-18.8 31.4-29.3 1.5-2.2 3.2-4.2 5.3-5.5l-3.7 3.8c-.5.6-1 1.1-1.5 1.7-2.6 3.8-4.8 8.2-7.2 11.4-4.3 5.7-9.3 10.2-14.5 14.6a362.8 362.8 0 0 0-16.9 15.6zm55.6 160c-14.7 7.2-30.4 13.2-47.4 17.3-22.6 5.4-47.4 7.9-71.7 2.5-24.3-5-47.4-19.8-64.8-42.4-16.7-21.9-26.8-49.3-26.3-75-.2-25.4 13.9-42.8 32-47.9 16-6.1 36.5 4 49 23 12.6 19 17.9 41.8 11.3 55.9-2.9 11.1-24.2 11.2-33.5 2.2-4.9-4.1-7.1-9.1-7.7-15.4-.7-6.4 1.9-10.8 1.2-10.3.4-1.2 7.6 1.4 8.7 2.8 2 1.5 2 4.2 1.7 4.9.2 2.8-6-1.7-6.5-.5.4 1.6 4.1 11 11.4 7.8 6-3.2 8.2-11.8 4.2-19.1-1.9-3.6-5.2-6.6-8.4-8.5-3.2-2-7.6-4.5-14.3-3.7-7.1.8-12.3 6.6-14.6 11.3-2.5 4.9-3.5 9.9-3.9 15-1 9.7 2.4 23.1 11.3 32.2 8.7 9.2 21.1 15.3 35.4 16.2 13.9 1.4 34-13.5 37.6-31.1 3.8-18.5 3.8-32.4-.3-46.3 11.6 8.3 24.3 15.1 37.6 20.3-2.7 11.6-5.7 23.2-2.4 35.2 5.1 18.5 27.8 35 50.9 27.2.4.3.7.5 1 .8 6.1 5.6 11 16.4 8.5 25.6z"/></svg>
