<svg xmlns="http://www.w3.org/2000/svg" viewBox="0 0 358.7 418.9"><style>.st0{fill:#fff}</style><path class="st0" d="M244.8 62.6c-4 2.2-8.6 4.2-13.9 6-3.3 1.1-6.6 2.2-9.9 3.2-3.4 1.1-6.9 2.2-10.4 3.4 11.1.4 22.3 1.1 32.7 2.2.4-4.6 1-9.8 1.5-14.8zM294.3 143.3c.1 2.7.2 5.5.2 8.2.1 4.9.3 9.9.4 14.8.2 6.5 1 13.3 1.8 20.4 3.1.2 5.8.7 7.5 1.6 2.9.3 5.4 1.1 6.6 2.2 2.9 2.7 3.7 8.1 1.9 11.7 1.4.8 2.8 1.7 4.1 2.8 3.8-.1 7.8.4 11.3 3 .7.5.8 1.4.3 2.1-.2.2-.4.4-.6.5-.5.2-1 .2-1.4-.1-1.9-1.4-4-2-6.2-2.3-.4 0-.7-.1-1.1-.1h-1c-2.6 0-5.1.4-7.4.7-1.3.2-2.6.4-3.7.5h-.4c-.5 0-1.1.1-1.6 0-.6 0-1.1 0-1.7-.1-1.5-.1-2.9-.3-4.3-.5h-.1c-.4-.1-.7-.1-1.1-.2-.6-.1-1.3-.2-1.9-.2-2.4-.3-4.7-.3-7 .4s-6.5 2.7-7.9 5.3c0 .1-.1.2-.1.2-.1.2-.1.4-.2.6-.1.3-.1.5-.1.8 0 .6.1 1.2.4 1.9 1.9 4.1 5 4.3 8.8 4.6 2.1.2 4.4.4 6.6 1.3.6.3 1.2.6 1.8 1 .3.2.5.3.7.5.1.1.2.2.4.3 1.9 1.7 4.4 4.7 5.7 6.7 1.3 2 2.9 3.7 4.5 5 .2.2.4.3.6.5.2.2.4.3.6.4 2.4 1.7 5 2.7 7.5 2.7h.1c.5 0 1-.1 1.6-.2.5-.1 1-.2 1.5-.4 1.6-.5 3.2-1.3 4.7-2.4.3-.2.6-.4.9-.7.3-.3.6-.5.9-.8.6-.6 1.2-1.2 1.7-1.8 2.4-3.1 3.4-6.6 2.6-9.8-.2-.7.2-1.4.9-1.7.1 0 .1-.1.2-.1.8-.2 1.6.3 1.8 1.1 1 4.1-.1 8.5-3.1 12.3-1.4 1.8-3.2 3.3-5.1 4.5-.4 1.5-.8 2.9-1.3 4.3 9.1 2.5 26.8 5.5 30.2-2.9 16.6-41.3-42.6-85.7-61.5-98.6zM54.7 188.4c-3.5 2.3-6.5 3.2-9.1 3.1-.1 1.1-.1 2.3-.2 3.4-.1 1.6-.2 3.3-.3 4.9.1.3.3.7.4 1 2.7-.2 5.5-.5 8-.8 1-3 2.2-5.8 3.4-8.4 7.5-15.2 10.7-30.2 13.2-46.3-6.7-1.7-14.3-2.5-21.5-2.8l-.3 3.9c3.6 3.4 7 7.7 10.7 13 3.2 4.5 4.4 10.9 3.3 16.8-.9 5.3-3.6 9.6-7.6 12.2z"/><path class="st0" d="M279.9 221.1c-.2 1.3-.8 2.6-1.3 3.6-.2.4-.4.7-.5 1.1l1.2 2.7c.9 2.1 1.8 4.3 3 6.4 4.3 1.3 8.5 2.6 12.6 4.1.9-4 1.4-8.1 1.6-12.2-1.9-1.2-4.3-1.4-6.7-1.6-3.5-.5-7.2-.8-9.9-4.1zM172.1 192.9c-1.8-.1-3.6-.6-5.3-1.2 2.4 2.4 5.3 4.6 7.7 3.9 1.1-.3 2.1-2 2.8-3.3-.1 0-.1 0-.2.1-1.6.4-3.3.6-5 .5zM304.6 204.8c-.2 0-.3-.1-.4-.1-.5-.1-.9-.2-1.4-.3-.6-.1-1.2-.3-1.8-.4l-2.4-.6-1.2-.3c-.7-.2-1.3-.3-1.9-.5-.6-.2-1.2-.3-1.7-.5-1.1-.3-2.2-.5-3.2-.8-.2.9-.4 1.8-.9 2.5-.9 1.5-2.3 2.3-3.8 2.3-.4 0-.8-.1-1.2-.2-.5-.1-1.1-.3-1.9-.5-4.3-1-8.4-2.1-11.3-3.6-2 1-3.9 2.2-5.6 3.6 1.4.6 2.9 1.5 4.5 2.8l.1.1c2 1.6 5.2 4.2 7.3 6.7.1-.8.2-1.5.6-2.2 2-4.5 8.5-6.8 9.8-7.2 2.7-.8 5.2-.9 7.6-.6.6.1 1.3.1 1.9.2.4.1.8.1 1.1.2.2 0 .4.1.6.1.8.1 1.7.2 2.5.3.6.1 1.1.1 1.7.2.5 0 1.1.1 1.7.1h1.5c1-.1 2.2-.3 3.5-.5 1.4-.2 2.9-.4 4.4-.6-.9-.6-1.7-1.2-2.7-1.7-1 1.3-2.4 2-4 2-.5 0-.9-.1-1.4-.2-.6 0-1.3-.2-2-.3zM260.7 211.9c2.6.6 5.1 1.5 7.5 2.7 2.2 1.1 3.9 2.4 5.2 3.9.2.2.3.4.5.5.2.2.3.4.5.6.3.3.5.7.7 1 .2-.6.1-.9-.2-1.3l-.1-.1c-.1-.2-.3-.4-.4-.6-.1-.2-.3-.4-.5-.6-1.8-2.1-4.8-4.5-6.5-5.9l-.1-.1c-2.3-1.8-4-2.6-5.3-2.9-.3-.1-.6-.1-.9-.1-.4 0-.7 0-1 .1-.7.1-1.2.5-1.5.6-.2.1-.9.8-1.5 1.4h-.1c.4.1.9.1 1.3.2.3 0 .5.1.8.1.7.3 1.2.4 1.6.5zM251.2 215.3c-3.8-.1-7.7.1-11.2.5-9.1.9-16 3.5-21.5 6.6 1.6.2 3.3.3 4.9.5l6.2-.5h.7l18 3.7 24.3 5.6c.1 0 .2 0 .2.1l3 1.1c.1 0 .2.1.4.1-.4-.9-.8-1.9-1.2-2.8-.3-.6-.5-1.2-.8-1.8-.6-1.3-1.2-2.6-1.8-3.7-1.4-2.4-3.1-4.4-6.1-5.8-3-1.5-6.1-2.4-9.3-2.9-2-.4-3.9-.6-5.8-.7zM161.9 186.1c1.3.7 2.7 1.5 4.1 2.1 2.3.6 4.7.9 7.3 1.6.2 0 .4.1.6.1h.1c1-.2 1.9-.6 2.9-.9.2 0 .3-.1.5-.1 1.8-1 3.3-2.5 5.2-3.4-6.1-4.7-16-6.7-20.7.6zM50.8 286.3c-.9-4 3.3-6.8 6.2-8.7 3.8-2.5 7.8-4.5 12.1-6.1.7-.3 1.4-.5 2.1-.7.5-.2 1-.3 1.5-.5.4-.1.8-.3 1.2-.4 1.8-.5 3.7-1 5.6-1.4-.1-1.3-.5-2.5-1.3-3.6-2.3-3.3-6.9-4.2-10.3-1.8-.7.5-1.5 1.1-2.3 1.8-.3.2-.6.5-.9.7-.5.4-.9.7-1.4 1.1-.1.1-.2.2-.4.3-11.3 9.1-18.6 13.6-21.9 13.3v.1-.1h-.5l-.3-.4c-1.8-2.9-1.1-9.2-.7-13.8.1-1.4.3-2.7.4-3.9 1-14.1 1.9-28.4 2.8-42.6-2.7 2.3-5.5 2.6-8.2 2.1 1.8 2.2 2.9 4.9 2.4 8.2-.7 4.5-3.1 8.1-7 10.4-1.1.6-2.2 1.1-3.4 1.5-.4 6.5-.9 12.9-1.3 19.3-.1 1.1-.2 2.2-.3 3.4-.7 7.1-1.6 15.8 2.8 23 2.4 4 6 6.5 10.5 7.3 1 .2 2 .3 3 .3 6.5 0 13.4-3.5 20.4-8.3-3 .2-6 .5-9 .7-1-.1-1.6-.6-1.8-1.2zM43.9 195c.1-1.2.1-2.4.2-3.6-1.8-.3-3.5-1-5.1-2 1.7 2.4 3.4 5.1 4.8 7.8 0-.8.1-1.5.1-2.2zM40.2 140.5c1.1.6 2.2 1.2 3.2 1.9 1.2.9 2.5 1.8 3.6 2.8.1-.9.1-1.8.2-2.7 0-.6.1-1.3.1-1.9 0-.6.1-1.3.1-1.9 0-.4 0-.7.1-1.1l.3-3.8c.4-6.5.9-13.2 1.4-19.7.1-1.8.2-3.7.2-5.5.1-3.7.1-7.5 1.1-9.9 2.1-5.4 9.6-8.1 17-10.4l14.9-4.6c.2-.5.4-1.1.5-1.8l-.3-.1c-.8-.3-1.3-1-1.3-1.8l.1-8.1c-2.1-.7-5.2-.1-5.2-.1-.5.1-1.1 0-1.5-.4-.2-.2-.4-.4-.5-.6l-11.1 3.4c-7.5 2.3-21.5 6.6-26.5 19.1-1.9 4.9-2 10.3-2.1 15 0 1.7-.1 3.2-.2 4.6-.5 6.6-1 13.3-1.4 19.7l-.3 3.9c0 .3 0 .6-.1 1 1.2.3 2.3.7 3.3 1.1 1.7.6 3.1 1.2 4.4 1.9z"/><path class="st0" d="M25.7 238.8c.2-.1.5-.2.7-.3.6-.3 1.1-.5 1.7-.8 3.1-1.9 5-4.7 5.6-8.3.7-4.3-2.8-7.5-6.1-9.8-.2-.2-.5-.3-.7-.5-.2-.2-.5-.3-.7-.5l-.9-.6c-.5-.3-.9-.6-1.3-.8-.6-.4-.8-1.2-.5-1.9.3-.7 1.1-1 1.8-.7.3.1.7.3 1 .5.2.1.5.2.7.3.2.1.5.2.7.3l1.2.6c5 2.6 8.6 4 12.1.4.6-.7 1.2-1.4 1.6-2.1.3-.6.6-1.2.8-1.8.7-2 .8-4.2.4-6.4l-.3-1.5c-.1-.3-.2-.6-.2-.9-.1-.3-.2-.7-.3-1-.2-.6-.5-1.2-.7-1.9-2.5-5.9-7.1-11.9-10.5-16.3-.7-1-1.4-1.8-2-2.6-.2-.3-.5-.6-.7-.9-.1-.1-.2-.2-.2-.3-.4-.6-.3-1.4.2-1.9l.1-.1c.2-.2.5-.2.7-.3.4 0 .8.1 1.1.4.9.8 1.8 1.6 2.6 2.4 4 3.6 7 6.4 10.5 7.1.2 0 .5.1.7.1h.7c2.1 0 4.5-.7 7.3-2.6 3.3-2.2 5.6-5.8 6.4-10.2 1-5.2-.1-10.7-2.8-14.6-3-4.2-5.8-7.8-8.6-10.8l-.7-.7c-.2-.2-.4-.5-.7-.7-2.9-2.8-5.9-5-9.3-6.6-1.5-.7-3-1.3-4.7-1.8-.1 0-.2 0-.2-.1-.2-.1-.5-.1-.7-.2-.2-.1-.5-.1-.7-.2-1.7-.4-3.6-.8-5.6-1h-.3c-.7-.1-1.4-.1-2.1-.1-6.3 0-11.1 3.5-14.5 10.6C0 167.2-.9 190-.1 206.1c.5 11.1 1.4 29.8 11.2 33.2 3 1.1 8.7 1.5 13.6-.1.6-.2.8-.3 1-.4zM208.3 166.1c1 5.8 4.4 10.8 9.9 14.6 8.3 5.8 20.3 7.9 32.3 5.8 17.9-3.3 31.3-15.2 32.9-28 .2-2 .2-4-.1-6 0-.3-.1-.5-.2-.8-1.4-7-5-12.5-10.4-16-4.4-2.8-9.8-4.2-16.2-4.2-4.5 0-9.4.7-14.7 2.1-.4.1-.8.2-1.3.3l-2.7.9c-.9.3-1.7.6-2.6.8-15.2 5.5-29.4 15.9-26.9 30.5zm26-24c3.9-.7 8.1 4 9.7 10.7-3 .8-5 2.2-5 3.9 0 1.8 2.3 1 5.7.4.4 6.3-1.7 11.4-5.4 12.1-4.1.8-8.6-4.6-10-12.1-1.4-7.5.9-14.3 5-15zM81.8 168.5c.5.6.9 1.2 1.4 1.8 5.2 6.1 12.5 10.8 19.7 12.8 10.5 2.9 21.2 1.9 29.4-2.8 6-3.4 10-8.4 11.6-14.5 2.1-7.7-1.2-14.2-8.2-20.6-.3-.2-.6-.4-.8-.5-4-2.6-7.9-5.3-11.7-8-3.2-2.3-6.4-4.6-9.5-7.1-.2-.1-.3-.2-.5-.3-3.4-2.1-7.3-3.2-11.4-3.2-3.9 0-7.9 1-11.8 2.9-6.4 3.2-11.1 8.5-13.3 14.5l-.6 1.8c-.2.6-.3 1.2-.4 1.9-.1.6-.2 1.2-.2 1.7-.6 6.2 1.4 12.3 4.9 17.6.4.7.9 1.3 1.4 2zm31.1-16.6c2.2-7.5 7.3-12.5 11.4-11.2 3.2 1 4.8 5.4 4.5 10.7-2.3-.8-4.2-.8-5.1.2-1.2 1.4 1.3 2.3 4.4 4.1-.1.2-.1.5-.2.7-2.2 7.5-7.3 12.5-11.4 11.2-4.1-1.2-5.7-8.3-3.6-15.7zM307.3 200.4c-.1.2-.1.4-.2.5 0 0 0 .1-.1.1-.1.1-.1.2-.2.3.2 0 .4.1.6.1.3.1.6.1.9 0 .2-.1.5-.2.7-.5.1-.1.2-.3.3-.5 0 0 0-.1.1-.1.9-1.9.6-5.5-1.1-7.1-.2-.1-.4-.3-.7-.4.7 2.2.7 4.7 0 6.8-.1.3-.2.5-.3.8zM302.7 191.9c-.6-.6-2.3-1-4.3-1.2-.4 0-.7-.1-1.1-.1h-2-1c-2.5.1-5.1.4-7.3 1-.1 0-.3.1-.4.1 0 0 .1 0 .2.1.7.3 1.3.6 1.7 1.1l.1.1c.4.4.7.9 1 1.4.4.6.6 1.3.9 2.1 0 .2.1.3.1.5v.2c0 .1 0 .2.1.3.6.2 1.2.3 1.9.5s1.4.4 2.2.5c.1 0 .3.1.4.1.6.1 1.2.3 1.9.4l1.2.3c.2.1.5.1.7.2.2 0 .3.1.4.1.5.1.9.2 1.3.3l1.2.3c.2 0 .4.1.6.1.3 0 .6-.1.9-.4.2-.1.3-.3.4-.6.1-.2.2-.4.3-.7.6-1.9.2-4.9-1.2-6.4-.1-.2-.2-.3-.2-.3zM275.4 199.5c.3.1.7.2 1.1.4 1.8.6 4.1 1.2 7.1 1.9.8.2 1.5.3 2 .5.3.1.5.1.8-.4.2-.4.4-1 .5-1.7 0-.4.1-.8 0-1.1 0-.3 0-.6-.1-.9v-.3c0-.2-.1-.5-.2-.7-.1-.2-.2-.5-.3-.7-.1-.2-.2-.5-.4-.7-.1-.1-.2-.3-.3-.4-.1-.1-.5-.3-1.1-.5-.2-.1-.5-.1-.9-.2-.7-.1-1.6-.3-2.7-.3h-.8-1.1c-3.4.1-6.5 1-7.6 2.1-.3.3-.3.4-.4.5.1.4.9 1.1 3.2 2 .5.2.9.4 1.2.5zM198.8 79.7c-.9.4-1.8.9-2.8 1.3 9.8.1 33.1.8 46.4 4 .1-1.4.3-3 .5-4.8-11.9-1.2-25.3-2-39.6-2.4-1.5.6-3 1.2-4.5 1.9zM156.8 82.6c.1-1.6.2-3.1.4-4.7-2.5.1-5 .2-7.4.3.5 1.7.8 3.4.9 5.1 1.9-.3 4-.5 6.1-.7z"/><path class="st0" d="M271.3 88.2c-.1.5-.3.9-.4 1.3-.2.6-.3 1.1-.5 1.6-.8 2.8-1.3 4.5-1.4 4.8-.1.3-.3.7-.8 1.1-.9.7-3.2 1-5.9 1-2.6 0-5.6-.3-8.3-.7-2.4-.4-5.3-1.2-7.7-2.1-14.6 5.1-53 5.2-55 5.2-1.6 0-26.4 0-43.8-2.7-1.6 1.6-3.8 2.5-6.2 2.5h-.2c-2.3-.1-4.5-1-6.2-2.7-1.1-1.1-1.8-2.5-2.2-3.9-1.2-.8-1.9-1.6-2-2.6v-.3c0-.5.1-.9.4-1.3.3-.5.8-.9 1.4-1.4.1 0 .1-.1.2-.1.1-1.1.2-2.9.1-3.8-2-1-4.5-1.6-7.2-2.2l-19.2 6.8-1.2.4h-.3c-.3.1-.6.2-.9.2-.2 0-.4 0-.6-.1l-1.3-.4-11-3.8-.3-.1c-1.5.5-3.5 1.1-6.1 1.9-.2.1-.4.1-.6.1-.1 0-.2 0-.3-.1-3.4 1.2-4.9 2.3-5.5 3-.4.5-.5.8-.5.9 0 0 0 .2.2.5.2.4.7.9 1.8 1.5 2.9 1.8 10.1 4.4 27.6 6.8 19.9 2.8 46.3 4.3 74.4 4.3s54.6-1.5 74.4-4.3c19.6-2.7 26.2-5.7 28.5-7.4 1.1-.9 1.2-1.4 1.2-1.5v-.1c0-.2-.2-.7-1.2-1.4-1.5-1.1-4.9-2.8-12.5-4.6-.3 1.4-.6 2.6-.9 3.7z"/><path class="st0" d="M190.4 83.9c-.3.2-.6.3-.9.5-1.8 1-3.7 2.1-5.5 3.1-.8.5-1.5.9-2.3 1.4-.9.5-1.8 1.1-2.7 1.6-1.3.8-2.7 1.6-4 2.5-1.8 1.1-3.5 2.2-5.3 3.2-.3.2-.5.3-.8.5 6.7.4 14.3.6 22.7.6 24.8 0 42.7-2 51.5-4.2-.4-.3-.6-.6-.9-.9-.3-.5-.5-.9-.4-1.4 0 0 0-.3.1-.8 0-.3.1-.7.1-1.2v-.4c0-.2 0-.4.1-.7-1-.2-2.2-.5-3.4-.7-9.7-1.8-25.9-3.2-47.1-3.2-.4.1-.8.1-1.2.1zM157.8 95.3c-.7-1.3-1.1-2.8-1.1-4.4v-.1-1.6-1.4-1.6-.6c-2.1.2-4.1.5-6 .7v1.6c0 .5-.1.9-.1 1.3 0 .6-.1 1.1-.1 1.6v.8c0 .9-.2 1.8-.5 2.6-.1.2-.2.5-.3.7 2.6.4 5.4.7 8.6 1-.2-.1-.4-.4-.5-.6zM95.3 66.9c2.1 1.8 2.8 5.7 2.8 8.7 0 1-.1 3-.7 4.8-.2.6-.5 1.2-.8 1.7-.1.2-.3.4-.5.6l1.8.6 4.5 1.5.2-2.3.1-1.5.1-1.5.9-12.9c-6.3-2.2-14.3-5-17.8-6-.2 1.3-.3 2.5-.4 3.6 3-.5 7.5.7 9.8 2.7zM122 63.1c1.4.3 3 .6 4.6.9 1.3.2 2.6.5 3.9.8l.7-5.2-10.6 3.3c.4 0 .9.1 1.4.2zM114.6 64.7l-6.4 2-.9 12.1-.1 1.5-.1 1.5-.2 2.7 11.4-4 .2-.1c-.2 0-.4-.1-.6-.1-.8-.2-1.6-.6-2.3-1-.6-.4-1.2-.8-1.7-1.3s-1-1.1-1.4-1.7c-1.2-2-1.6-4.4-1.1-6.7.4-2 1.6-3.7 3.2-4.9z"/><path class="st0" d="M126.3 65.4c-1.7-.3-3.2-.6-4.7-1-.6-.1-1.2-.2-1.7-.2-1.4 0-2.7.4-3.9 1.1-1.7 1-2.9 2.7-3.3 4.6-.5 1.9-.1 3.9.9 5.6.6.9 1.3 1.6 2.1 2.2.7.5 1.6.9 2.4 1.1.1 0 .2.1.4.1.8.2 1.7.4 2.5.5.8.2 1.6.3 2.4.5h.1c.4.1.8.1 1.2.2 1.2.2 2.4.5 3.6.8 2.1.5 4 1.1 5.7 2l.3.2.1.3c.2.7.1 2.1 0 3.6 0 .3 0 .6-.1.9V89.2c0 .3 0 .7-.1 1V91.1c0 .5 0 1 .1 1.5.1.6.3 1.2.6 1.8.3.7.8 1.4 1.3 2 1.4 1.4 3.2 2.3 5.2 2.3h.2c1.6 0 3.1-.5 4.3-1.4.3-.2.6-.4.9-.7.2-.2.3-.4.5-.6.2-.2.4-.5.5-.7.1-.2.2-.4.4-.6.1-.2.2-.5.3-.7.3-.8.5-1.6.5-2.4v-.8c0-.5.1-1.1.1-1.6 0-.4.1-.9.1-1.4v-.7-.8-.7-.7-.7-.8c-.1-1.7-.4-3.5-1-5.2-.2-.5-.4-1-.6-1.4-.2-.5-.5-.9-.7-1.4-1.2-2-3-3.9-5.7-5.4-2.4-1.3-4.8-2.2-7.2-2.9-.6-.2-1.2-.3-1.9-.5-.6-.2-1.3-.3-1.9-.4-1.3-.3-2.6-.5-3.9-.8zM85.4 69.8c.8.7 1.4 1.5 1.7 2.7.7 2.2.6 4.8.3 7.1-.1.7-.2 1.3-.3 1.9 0 .2-.1.4-.1.6.3-.1.6-.2 1-.3.4-.1.8-.3 1.3-.4.6-.2 1.2-.4 1.7-.5.4-.1.8-.3 1.2-.4.6-.2 1.1-.4 1.4-.5.4-.6.8-2 .8-4.4 0-2.9-.8-5.2-1.5-5.8-.6-.5-1.5-1-2.6-1.3-.7-.2-1.5-.4-2.2-.5-.8-.1-1.5-.1-2 0h-.7l-1.9.4h-.2c.1 0 .1.1.2.1.7.4 1.3.8 1.9 1.3zM106.4 63.7l.3-.1 21.6-6.9-.4-.1-19.4-4.1-18.9 5.2-.5.1 16.6 5.7zM160.1 90.7c0 .1 0 .1 0 0 0 1.4.4 2.7 1.1 3.5.6.7 1.3 1.1 2.2 1.1 1.6 0 3.2-1 4.6-1.9l4.5-2.7c.3-.2.5-.3.8-.5.6-.4 1.2-.8 1.8-1.1.8-.5 1.5-.9 2.3-1.4 1.7-1 3.4-2.1 5.2-3.1.3-.2.6-.4.9-.5.6-.3 1.1-.7 1.7-1 .3-.2.6-.3.9-.5.6-.3 1.2-.7 1.7-1 .3-.2.6-.3.9-.5 2.2-1.2 4.4-2.3 6.6-3.4.7-.3 1.4-.7 2.1-1 .3-.2.7-.3 1-.4 1.1-.5 2.2-.9 3.2-1.4 6.1-2.5 12.3-4.4 18.3-6.3 3.2-1 6.6-2 9.8-3.1 6.1-2.1 11.3-4.4 15.5-7 .4-4.1.8-8 1.2-11.3 0-.2.1-.5.3-.7v-.2c.1-.3.2-.8.8-1.1 1-.7 3.7-1 7.1-.9l-.1-5.7c-1.2-.5-1.9-.9-2-.9-.5-.3-.9-.8-.8-1.4l.5-5c0-.2.1-.4.2-.5-1.7-.5-3.7-.8-6-.9-8.9-.3-15.7.5-21.3 2.5-3.4 1.2-6.8 2.4-10.1 3.7-3.7 1.4-7.4 2.7-11.1 4-.9.3-1.8-.2-2.2-1-.3-.9.1-1.9 1-2.2.3-.1.8-.4 1.2-.7l.9-.6c4.5-2.5 9.1-4.9 13.6-7.2 7.4-3.8 15-7.7 22-12.3 8.3-5.5 11.7-10 10.2-13.2-1.7-3.5-10-2.8-13.5-2.5l-.6.1c-10.2.9-21.1 3.9-30.9 8.6C181.4 20.7 164.9 45.7 161 75c-.1.5-.1 1-.2 1.5s-.1 1-.2 1.5c-.2 1.5-.3 3-.4 4.5v7c-.2.2-.2.7-.1 1.2zM260.9 32.1c4.3.9 9.8 1.6 14.5 2.1-1.8-1.7-4.1-2.9-6.8-3.5-2.6-.6-5.5-.8-8.5-.7-.4 0-.8.1-1.2.1-.9.1-1.6.3-2.2.6-.2.1-.4.2-.5.2.5.2 1 .3 1.6.5 1 .2 2 .5 3.1.7z"/><path class="st0" d="M261.9 55.1c-1.8-.4-3.7-.9-5.5-1.6-.6-.2-1.1-.4-1.7-.7-.6-.2-1.1-.5-1.6-.7-1.6-.8-2.9-1.6-4-2.4-.2 2.3-.5 4.5-.7 6.6-.1.8-.2 1.5-.2 2.3-.1.7-.2 1.5-.2 2.2-.7 6.7-1.3 12.4-1.8 16.9-.1.5-.1 1-.2 1.5s-.1 1-.2 1.5c-.2 2-.4 3.8-.6 5.3-.1.5-.1 1-.1 1.4 0 .5-.1.9-.1 1.3v.1c-.1.6-.1 1.1-.2 1.5 0 .3-.1.6-.1.8.1.1.2.1.3.2.3.2.7.5 1.3.8.2.1.3.2.5.2.3.1.6.3.9.4l.9.3c.5.2 1.1.4 1.7.6 1.3.4 2.7.7 4.4 1 5.7.9 10.3.7 11.7.3.2-.6.5-1.7 1.1-3.8.1-.5.3-1 .4-1.6.1-.4.2-.9.4-1.3.3-1.2.7-2.5 1.1-4 .1-.5.3-.9.4-1.4.1-.5.3-.9.4-1.4 1.7-5.9 4-14.4 7.4-26.4-2 .6-5 1-8.5 1-2.3-.2-4.7-.4-7.2-.9z"/><path class="st0" d="M250.8 47.2c.3.2.7.5 1.2.8.9.6 1.9 1.2 3.2 1.8.4.2.9.4 1.3.6.1 0 .2.1.2.1.5.2 1.1.4 1.6.6 1.3.4 2.7.8 4.2 1.1 2.3.4 4.5.6 6.6.6 2.1 0 4-.2 5.6-.4.6-.1 1.1-.2 1.6-.3-1-.5-2.4-1.1-4.1-1.7-.1.2-.1.3-.1.3-.1.3-.3.7-.7 1-.6.4-1.5.7-3.1.7-.4 0-.9 0-1.4-.1-.9-.1-2-.2-3.2-.4-1.9-.3-3.4-.7-4.5-1.1-.1 0-.3-.1-.4-.1-.6-.2-1.2-.4-1.6-.6-.7-.3-1.1-.6-1.5-.9-.3-.3-.5-.5-.6-.7-.2-.3-.2-.6-.2-.8v-.6c-1.8 0-3.1 0-4.1.1zM269.3 49.7z"/><path class="st0" d="M269.9 48.2c.1-.4.3-.8.5-1.3.4-1 .9-2.4 1.6-4.2-3.3-.1-6.5-.7-9.3-1.4-.6-.1-1.1-.3-1.7-.5-.6-.2-1.1-.3-1.6-.5-.7-.2-1.3-.4-1.9-.7v7.6c.1 0 .2.1.2.1.2.1.4.2.7.3.3.1.7.3 1.2.4.2 0 .3.1.5.1l7.1 1.4c.7.1 1.3.1 1.8 0 .1 0 .2 0 .3-.1.2-.2.3-.6.6-1.2zM256 35.9c.9.4 2.1.8 3.5 1.3.2.1.4.1.6.2.4.1.8.3 1.2.4.4.1.7.2 1.1.3.2.1.4.1.6.2.7.2 1.3.3 2 .5 1.3.3 2.8.6 4.2.7 1.8.2 3.6.3 5.5.2.4 0 .8 0 1.3-.1l.3-.8.1-.4.4-1.2h-.3c-1.5-.2-3.4-.4-5.6-.6-1.8-.2-3.7-.5-5.6-.8-.4-.1-.9-.1-1.3-.2-.5-.1-.9-.2-1.4-.2-.2 0-.4-.1-.6-.1-.4-.1-.9-.2-1.3-.3-.7-.1-1.4-.3-2.1-.5-1.3-.3-2.6-.7-3.6-1v.2l-.1 1.2v.5c.2.2.6.3 1.1.5zM180.3 285.9c.6-1.1 1.1-2.2 1.7-3.3l1.2-2.7c-5-.7-9.2-1.2-12.4-1.6-1.9-.2-3.5-1.3-4.5-2.9-.1.8-.3 1.6-.4 2.4-.2.7-.4 1.5-.6 2.2-.4 1.2-.8 2.4-1.3 3.5-1.5 3.5-3.7 6.9-6.4 9.8-.5.6-1 1.1-1.6 1.6 3.7.3 7.4.5 11.2.6.4-.6.9-1.2 1.5-1.9.6-.8 1.3-1.6 2-2.6 2.5-3.4 4.6-3.8 5.9-3.5.8.1 1.5.6 2.1 1.3.6-.9 1.1-1.8 1.6-2.7v-.2z"/><path class="st0" d="M189.5 266.8c0-.5-.1-1-.2-1.5l-.1-.9c0-.3-.1-.7-.2-1.1-.1-.3-.1-.6-.2-1 0 .4-.1.6-.1.9-.1 1.2-.3 1.9-.3 2-.1.4-.2.9-.2 1.3-.2 1.2-.5 2.4-.8 3.6 0 .2-.1.3-.1.5-.5 2.1-1.1 3.9-1.7 5.6l-.9 2.4c-.1.4-.3.8-.5 1.1-.4.9-.7 1.8-1.1 2.7-.6 1.2-1.1 2.4-1.8 3.5 0 0 0 .1-.1.1-.6 1.2-1.3 2.3-2 3.4.4.6.7 1.3.9 2.1.3 1.1.2 2.4-.2 3.7 1.3 0 2.6-.1 3.8-.2 1.1-2.1 2.1-4.3 2.9-6.5.2-.6.4-1.1.6-1.7.4-1.2.7-2.4 1-3.6.2-.9.4-1.9.6-2.9 0-.2.1-.4.1-.6.2-1.1.3-2.1.4-3 .2-2.2.4-4.1.3-5.9v-.6c.1-.8.1-2.1-.1-3.4zM140 332.3l.5-.4.5-.5.8-.7c.3-.3.6-.5.9-.8.3-.2.5-.4.7-.5l.2-.1c.2-.2.4-.3.7-.5l1.1-.8c.2-.2.4-.3.6-.4l19.7-12.7 4.1-2.9c-.3-.9-.4-1.8-.2-2.2.2-.5 1.1-1 1.7-1.1.7-.1 1.1.1 1.3.3l.4.4c.4-.4.9-.8 1.2-1.1l.5-.5 1.2-1.2 1.6-1.7 1.5-1.8c.4-.5.7-1 1.1-1.4l.3-.4c.4-.5.8-1.1 1.1-1.6l.2-.3c.2-.2.3-.5.4-.7-1.2.1-2.5.1-3.7.1-.7.9-1.6 1.7-2.8 2.3-2 1.1-4 1.9-5.6 2.1-.4.1-.8.1-1.2.1-.6 0-1.1-.1-1.5-.2-.1.1-.2.1-.2.2l-1.6 1.2-12.1 7.5-9 5.8-5.7 4.4c-.2.2-.5.4-.7.6l-.4.4c-.5.5-1.1.9-1.5 1.4l-.9.8-.6.6-.4.4c-.5.5-1 1.1-1.5 1.6-.5.6-1.1 1.2-1.6 1.9-.5.6-1 1.3-1.5 2l-.2.3c-.2.2-.3.4-.5.7l-.6 1-1.2 2.1c-.3.5-.6 1.1-.8 1.6l-.3.6c-.3.5-.5 1-.7 1.6l-.3.7c-.2.6-.4 1.1-.6 1.7l-.2.6c-.2.5-.3 1.1-.5 1.6l-.2.7c-.2.6-.3 1.2-.4 1.7l-.1.6c-.2.7-.3 1.4-.4 2.1v.2c-.1.8-.2 1.5-.3 2.3l-.1.7c-.1.5-.1 1-.1 1.5l-.1 2.3-.1 2.3c0 2.9.1 6 .4 9l.4 3.4c.1 1.2.4 2.9.9 5.5l1.3-8.8c.4-2.6.9-5.7 1.5-8.6l.4-2.1.5-2.1c.1-.4.2-.8.3-1.3l.2-.8c.2-.7.4-1.4.6-2 .2-.7.4-1.3.7-2l.2-.5c.2-.5.3-.9.5-1.4l.3-.6c.2-.4.4-.9.6-1.3.1-.2.2-.5.3-.7.2-.4.4-.8.6-1.1l.3-.6c.2-.4.4-.8.7-1.2l.3-.5c.3-.4.5-.8.8-1.2l.3-.5c.3-.4.5-.8.8-1.2l.6-.8c.1-.2.3-.3.4-.5l.2-.3c.4-.5.8-1 1.3-1.5.4-.5.9-1 1.4-1.4.4-.7.8-1 1.3-1.4z"/><path class="st0" d="M143.4 348.5l.2-.5c.2-.6.4-1 .6-1.5.1-.2.2-.5.3-.7.2-.5.4-.9.6-1.3l.3-.6c.2-.4.4-.9.7-1.3l.3-.5c.2-.4.5-.9.8-1.3l.3-.5c.3-.4.5-.9.8-1.3l.6-.8c.1-.2.2-.3.4-.5l.3-.4c.4-.6.9-1.1 1.4-1.6.4-.5.9-1 1.4-1.6.4-.5.9-.9 1.3-1.3l.4-.4c.2-.2.4-.3.5-.5l.8-.7c.3-.3.6-.6 1-.8l.8-.7c.2-.2.5-.4.7-.6l1.1-.9c.2-.2.4-.3.6-.5l3.7-2.7 16.2-10.2 5-3.5c.3-.3.7-.6 1.1-.9l.6-.5c.6-.5 1.1-1 1.7-1.5l.5-.5c.4-.3.7-.7 1.1-1.1l.9-1c.5-2.3 1.9-4.3 3.8-6 .3-.9.5-1.8.8-2.7-.7.1-1.4.2-2.1.2-.1.2-.3.4-.4.6l-.2.3c-.4.5-.7.9-1.1 1.4-.2.2-.4.4-.5.6-.3.3-.5.7-.8.9l-1.4 1.5-1.5 1.5c-.3.3-.7.6-1 .9-.2.1-.3.3-.5.4-.5.5-1 .9-1.6 1.3l-3.9 2.9-5.3 3.2c-.1.2-.2.3-.2.4l-.1.2c-.4.7-1.1.9-1.7.9-.1 0-.3 0-.4-.1l-.8.5-9 5.8-6.8 5c-.2.2-.4.4-.7.6l-.4.4c-.5.4-1 .9-1.5 1.3l-.8.8-.6.6-.4.4c-.5.5-1 1-1.4 1.5-.5.6-1 1.2-1.5 1.7-.5.6-1 1.2-1.4 1.8l-.2.3c-.2.2-.3.4-.5.6l-.6 1c-.5.7-.8 1.4-1.2 2-.3.5-.5 1-.8 1.5l-.3.6c-.2.5-.4 1-.6 1.4l-.3.7c-.2.5-.4.9-.6 1.4-.1.2-.2.5-.3.7-.2.5-.3 1-.5 1.5l-.2.7c-.2.5-.3 1.1-.4 1.6l-.2.6c-.2.7-.3 1.4-.5 2.1v.2c-.2.7-.3 1.5-.4 2.2l-.1.8c-.1.5-.2 1-.2 1.5l-.4 4.5c-.2 3.5-.2 6.3-.1 8.9l.1 3.3c0 1 .2 2.5.3 4.2l.1 1.4c.1-2.5.3-4.3.3-5.5l.3-3.3c.3-3.1.6-6 1-8.8l.3-2.1.4-2.2c.1-.4.2-.9.3-1.3l.2-.8c.2-.7.3-1.4.5-2.1l.6-2.1.2-.5c-.2-.1 0-.6.2-1.1zM204 282.9c-.2 1-.5 2-.8 3 2 .3 3.9.6 5.9.9.5-1 1-1.9 1.6-2.9.7-1.2 1.4-2.3 2.2-3.4 1.5-2.2 3.2-4.3 5.1-6.2 1.1-1.1 2.2-2.2 3.4-3.2 1-.9 2-1.7 3.1-2.5-2 .5-3.9 1.2-5.9 2.1-1.7.8-3.4 1.8-5.1 3-1.8 1.2-3.5 2.6-5.2 4.3l-1.6 1.6c-.9 1-1.8 2.1-2.7 3.2v.1zM201.2 322.6c.3-1.9.5-3.5.6-5l.1-1c-.4 0-.8.1-1.2.1-1.8 0-3.5-.3-5-.9-.9-.3-1.9-.9-2.7-1.6l-.2 3c0 1.1-.2 2.4-.4 3.9-.4 2.5-1.2 5.2-2.2 7.8-1.8 4.8-4.5 9.6-8.2 14.6-3.2 4.4-7 8.7-11.4 13.2-7.8 7.8-16.8 15.3-27.5 23 2.6-.9 5.3-2.1 8.4-3.6 2.5-1.2 5-2.5 8.1-4.3 5.2-3 10.4-6.4 15.3-10.3 5.1-4.1 9.7-8.5 13.5-13 4.5-5.4 7.9-10.7 10.2-16.3 1-3.1 2-6.3 2.6-9.6zM196.2 297.4c-.2.5-.3 1-.5 1.5.2-.2.5-.4.8-.6.4-.3.7-.5 1.1-.8.2-.1.3-.2.5-.3h-.3c-.2 0-.4 0-.7.1-.4 0-.6 0-.9.1zM233.2 320.8l1-1.7c.3-.4.5-.9.8-1.3l1.1-1.9c.3-.5.6-1.1.8-1.7l.2-.3c.2-.4.4-.9.6-1.3-.2.1-.5.1-.7.1-1.7 0-3.2-1.4-3.7-2.7-.8-1.9 1.5-8.5 3.4-9.6.5-.3 1.5-.7 2.4-.5.4-.5.8-.9 1.2-1.4.6-.7 1.3-1.6 2-2.4-2.1-.4-4.3-.7-6.4-1.1-.6 2.1-1.2 4.2-2 6.2l-.2.5c-.2.4-.3.9-.5 1.3l-1.7 3.5c-.2.4-.4.7-.6 1-.1.2-.2.4-.4.7-.3.6-.6 1.1-1 1.7l-2.1 3.3c-.2.4-.5.7-.7 1.1l-1 1.4c-.2.3-.4.5-.6.9l-3 3.9-2.8 4.2c-.3.4-.5.9-.8 1.3l-.8 1.4c-.1.2-.2.4-.4.7l-2.2 4.5c-.1.2-.2.3-.2.5l-.7 1.6c-.2.4-.3.8-.5 1.2l-2.2 6.3c-.2.5-.3 1-.5 1.6l-1 4c-.2.7-.3 1.3-.4 2l-.1.7c-.1.4-.2.9-.2 1.3l-.6 4.1c-.1.6-.1 1.3-.2 2l-.1.6c0 .5-.1 1-.1 1.5-.2 2.6-.3 5.4-.2 8.2 0 1.1.1 2.1.2 3.1l.3 2.8.8 4.3 1.1 4c.2.5.4 1.1.6 1.7l.1.3s.3.6.8 1.9c.5 1 1.5 3 3.5 5-.9-2.3-1.2-4.1-1.4-5.3l-.3-2.1-.2-3.8.1-3.8.5-5.2.3-2.4c.4-2.7.8-5.1 1.3-7.4.1-.4.2-.8.3-1.3l.1-.6c.1-.6.3-1.2.4-1.8l1-3.6.3-1.2.4-1.2c.1-.4.2-.8.4-1.2l.6-1.8 4.4-11.2c.1-.2.1-.3.2-.5l2-3.9.3-.6.7-1.2c.2-.4.4-.8.7-1.1l.9-1.5 4.4-6.4c-.1-.8.1-1.1.3-1.4z"/><path class="st0" d="M209.6 328.2l.8-1.2c.3-.4.5-.8.8-1.1l2.3-3 3.9-4.5c.2-.2.4-.5.6-.7l1.2-1.5.9-1.2 1.2-1.7c.3-.4.5-.7.7-1.1l.4-.6c.4-.6.8-1.2 1.1-1.8l.4-.6c.2-.4.5-.8.7-1.2l1.9-3.8c.2-.5.4-.9.6-1.4l.2-.5c1.1-2.8 1.9-5.5 2.5-8.1l-1.8-.3c-.7 2.6-1.6 5.2-2.6 7.5l-.2.5c-.2.4-.4.9-.6 1.3l-.9 1.8-1 1.8c-.2.4-.4.7-.7 1.1l-.4.6c-.3.6-.7 1.1-1.1 1.7l-.4.6c-.2.4-.5.7-.7 1.1l-1.2 1.6c-.3.4-.6.7-.9 1.1l-1.2 1.4c-.2.2-.4.5-.6.7l-.9 1.1-5.4 6.6c-.3.4-.6.8-.8 1.2l-.9 1.3c-.1.2-.3.4-.4.6l-2.5 4.1c-.1.2-.2.3-.3.5l-.8 1.4-.6 1.2-2.8 5.9c-.2.4-.4.9-.6 1.3l-1.4 3.7c-.2.6-.4 1.2-.6 1.9l-.2.7c-.1.4-.3.8-.4 1.2l-1.1 3.8c-.2.6-.3 1.2-.5 1.9l-.1.6c-.1.5-.2.9-.3 1.4l-.7 3.9c-.1.4-.1.8-.2 1.3l-.1.7c-.1.6-.2 1.2-.2 1.8v.2c-.3 2.9-.4 5.5-.4 8l.2 3.4c0 .4.1.8.1 1.3l.1.6c0 .3.1.7.1 1l.2 1.5s.1.6.4 1.9c.4 1.5 1 3.3 2.3 5.4-1.1-2.2-1.4-4-1.7-5.3l-.3-2.1-.1-1.5c0-.3 0-.6-.1-1v-.6-1.3l.1-3.4c.1-2.5.4-5.1.9-7.7.1-.6.2-1.3.3-1.9l.1-.7c.1-.4.1-.8.2-1.2l.9-3.8c.1-.4.2-.9.3-1.3l.2-.6c.2-.6.3-1.2.5-1.9l1.2-3.7c.1-.4.3-.7.4-1.1l.3-.7c.2-.6.4-1.2.7-1.8l1.4-3.6c.1-.3.3-.7.4-1 .1-.3.2-.5.3-.8l2.5-5.2c.2-.4.4-.7.5-1l.8-1.5c.1-.2.2-.3.3-.5l2.4-3.9.4-.8zM274.4 385.7v.8l-.1 1-.4 2.3-.5 1.7c-.1.3-.2.7-.3 1-.1.3-.2.5-.3.7l-.8 1.8c-.5 1.2-1.5 2.8-2.8 5 2-1.2 3.6-2.5 4.7-3.6l1.1-1.1.7-.8c.3-.4.6-.7.9-1.1l1.2-1.8 1-1.9.8-1.9c.1-.3.2-.7.4-1.1l.2-.5c.2-.5.3-1.1.4-1.7l.1-.5c.1-.4.2-.8.2-1.2l.3-3.4c.1-2.6-.1-5.3-.6-8.3l-.1-.5-.3-1.5-.2-.7c-.1-.4-.2-.9-.3-1.3l-1.1-3.9c-.1-.4-.3-.8-.4-1.2l-.2-.6c-.2-.5-.3-1-.5-1.5l-9.5-22.5v.3c-.3 1.2-1.7 2.1-4.5 3-1.8.5-3.7.9-5.6 1.1l1.4 3.5.1.1 9.7 20.4c.2.4.3.7.5 1.1l2 4.9c.2.4.3.8.4 1.1l.2.5c.8 2.4 1.4 4.6 1.8 6.6l.3 2.7c0 .3 0 .6.1.9v2.1z"/><path class="st0" d="M262.4 389.9l.9-1.7.8-1.8.6-1.8c.1-.3.2-.7.2-1l.1-.5c.1-.5.2-1.1.3-1.6l.1-.5c.1-.4.1-.7.1-1.1l.1-1.6v-1.5c0-2.3-.4-4.8-1-7.7l-.1-.5c-.1-.5-.2-.9-.3-1.4l-.2-.6-.3-1.2-1.2-3.7c-.1-.4-.3-.8-.4-1.2l-1.7-4.3-4.6-10.4-2-4.6c-1.8-.4-3.2-1.3-3.9-2.8-.8-1.7-1-4.7-.5-7.5l-1.2-3.4c-.1-.2-.1-.4-.2-.5l-.3-1.2c-.1-.6-.3-1.1-.4-1.7 0-.2-.1-.5-.1-.7-.1-.5-.2-.9-.2-1.4l-.1-.8c-.1-.5-.1-.9-.1-1.3v-.7l-.1-1.4.1-4.6.2-2.3.3-2.3.4-2.2.5-2.2 1.2-4.3c.2-.8.5-1.6.8-2.3l.6-1.8c.2-.4.4-.9.5-1.4.1-.1.1-.3.2-.4.2-.4.3-.8.5-1.2.2-.4.3-.8.5-1.2 0-.1.1-.1.1-.2.2-.5.5-1 .7-1.5.3-.6.5-1.2.8-1.7.5-1 1-2.1 1.5-3.1.3-.5.5-1.1.8-1.6 0 0 0-.1.1-.1l.2-.4.6-1.1.7-1.2c.4-.6.8-1.3 1.3-2.1s1.1-1.8 1.8-2.8c.1-.1.1-.2.2-.3-.1.1-.1.2-.2.2-.8 1-1.5 1.9-2.1 2.7-.8 1-1.3 1.9-1.8 2.6l-.5.7c-.2 0-.4-.1-.6-.1h-.1c-.1 0-.2 0-.3-.1 0 0 0 .1.1.1 0 .1 0 .1.1.2.1.2.2.4.2.6l-.3.4c-.2.3-.3.6-.5.9-.9 1.4-1.7 2.8-2.4 4.1-.3.6-.6 1.1-.9 1.7-.2.4-.5.8-.7 1.2 0 .1-.1.1-.1.2s-.1.2-.1.3c-.2.4-.4.8-.5 1.1-.2.4-.4.8-.6 1.3 0 .1-.1.2-.1.2-.2.5-.5 1-.7 1.5-.2.6-.5 1.2-.7 1.8-.3.7-.6 1.4-.8 2.1l-.3.8c-.2.5-.3.9-.5 1.4l-1.3 4.5-.8 3.9c.8 2.9 1.4 5 .2 5.3-.2.1-.5 0-.8-.1-.2-.1-.3-.2-.5-.3-.2-.1-.3-.2-.5-.4-.9-.7-1.8-1.9-2.5-3.2-.1-.1-.1-.2-.2-.3-.1-.1-.1-.2-.2-.3-.2-.3-.3-.7-.4-1-.1-.2-.1-.4-.2-.6 0-.1 0-.2-.1-.3-.1-.4-.2-.7-.2-1-.1-1.2.1-2.2.5-2.9.1-.1.1-.3.2-.4l.3-.3c.1-.1.1-.1.2-.1.2-.2.4-.4.7-.5.1-.1.2-.1.3-.2h.2c1 0 1.6 1.9 2.3 4.4l.4-1.8 1.3-4.5c.2-.5.3-1 .5-1.4l.3-.8c.2-.6.5-1.3.8-1.9.2-.6.5-1.2.7-1.8.2-.5.5-1.1.7-1.6 0 0 0-.1.1-.1.2-.5.4-.9.7-1.4.2-.3.3-.7.5-1 .1-.1.1-.2.2-.3.1-.1.1-.3.2-.4.2-.3.4-.7.5-1 .3-.6.6-1.1.9-1.7.7-1.2 1.4-2.5 2.2-3.7l.9-1.5c0-.1-.1-.3-.1-.4-.2-.3-.3-.6-.5-.9-.1-.1-.2-.3-.3-.4l-.2-.2c-.8-.7-1.9-.9-3.3-.7-.1 0-.3.1-.5.3-.4.4-.9 1.4-1.4 2.5-.2.5-.4 1.1-.7 1.8l-.6 1.8c0 .1-.1.3-.1.4l-.6 1.8c-.1.3-.2.5-.2.7 0 .1-.1.2-.1.3-.1.3-.2.5-.2.8-.1.2-.1.4-.2.7-.2.6-.4 1.1-.5 1.6 0 .1-.1.2-.1.3-.3.7-.5 1.3-.7 1.8-.1.1-.1.2-.2.3-.3.5-.7.9-1 1.4-.1.1-.1.2-.2.3-.2.3-.4.5-.6.8-.2.3-.4.5-.6.8-.3.4-.6.7-.9 1.1-.4.5-.8 1-1.2 1.4l-.3.3-.3.3c-2.1 2.8-3 5.1-.8 9.2l.3.6c0 .1.1.1.1.2.1.1.1.2.2.3v.1c0 .1.1.2.2.2.2.3.5.7.7 1.1.9 1.2 1.9 2.5 3.1 3.7l.5.5.5.5v.3l.1 2.2c0 .5.1 1 .1 1.4l.1.8c0 .5.1 1 .2 1.4 0 .3.1.5.1.8l.3 1.8.3 1.3c0 .2.1.4.2.6l1.8 5.4 12.2 27.8c.2.4.3.8.4 1.1l1.3 3.5c.1.4.2.7.3 1.1l.2.7c.1.4.3.8.4 1.2l.2.6c.7 2.5 1.1 4.9 1.3 7.3l.1 1.4v3c0 .5-.1 1-.2 1.4l-.1.5c0 .3-.1.6-.2.9l-.3 1.5-.6 1.8-.7 1.7c-.2.4-.4.7-.6 1.1l-.3.6-1 1.6c-.5.8-1.6 2.3-3.5 4.5 1.8-1.6 3.2-3 4-4.1l.9-1.2.6-.9c.2-.5.4-.8.6-1.2zM135.6 308.9c-.3-.2-.6-.5-.8-.7-.7-.8-1.1-1.9-1.2-3-1.9 1.5-3.9 3.1-5.8 4.9-4.1 4-7.7 8.5-10.7 13.2-2.9 4.8-5.3 10-7 15.4-1.9 5.6-3 11.1-3.5 16.5-.4 6.1.1 11.7 1.5 16.6-.6-5.4-.4-10.9.6-16.3.9-4.9 2.3-10 4.5-15.6 4-10.4 9.9-19.4 17.5-26.7 1.7-1.6 3.2-3 4.9-4.3z"/><path class="st0" d="M295.4 372.1c-.2-.6-.4-1.1-.6-1.7-.6-1.4-1.2-2.9-2.1-4.7-1.5-3.1-3.2-6.1-4.9-8.9-3.3-5.6-6.7-11.4-8.6-17.5-.5-1.6-.9-3.1-1.2-4.7-.3-1.6-.6-3.2-.8-4.8-.5-3.4-.7-6.6-.8-9.8-.1-3.2.1-6.6.6-9.7.5-2.9 1.1-6 2-9.8 0-.2.1-.4.1-.6.2 0 .3.1.5.1s.3.1.5.1c.7.2 1.4.4 2 .6 1.8-1.6 4-3.7 6.5-5.9.4-.4.9-.8 1.3-1.2.4-.4.8-.8 1.3-1.2 2.4-2.2 4.9-4.5 7.4-6.9l.4-.4-1.4-.4-10.2-2.6c.1.1.2.3.2.5 0 .6-.4 1.1-.9 1.1-.5.1-.9.5-1.2 1-.3.4-.6.9-.8 1.4.8.8 1.4 1.8 1.8 2.9.2.6.3 1.2.3 1.8 0 .5 0 1-.2 1.5-.1.5-.3 1-.6 1.5-.2.5-.5.9-.9 1.3l-.2.2c-.9 1.1-2.6 1.9-4.2 2.3H280.1c-.2 0-.4.1-.6.1.3-1.4.7-2.7 1.1-4l.6-.3c.3-.1.5-.3.7-.5 0 0 .1 0 .1-.1l.2-.2.1-.1c.4-.4.6-.9.7-1.5.1-.4 0-.7 0-1.1v-.2c0-.1-.1-.2-.1-.3 0-.1-.1-.1-.1-.2-.1-.2-.2-.4-.4-.5.4-1 .8-1.9 1.2-2.8.1-.3.3-.5.4-.8.2-.5.5-.9.8-1.3.5-.7 1.1-1.3 1.9-1.4-.9 0-1.8.8-2.2 1.2-.4.4-.7.8-1 1.3-.2.3-.4.5-.5.8-.5.8-1 1.6-1.4 2.4-.2-.1-.3-.2-.5-.2s-.3-.1-.5-.2c-1.7-.5-4.5-1.3-8.3-2.4l-.6 1.5c-.6 1.6-1.2 3.2-1.9 4.9 1.9.5 3.8 1 5.7 1.6.8.2 1.7.5 2.5.7H278.3c.1 0 .2 0 .3.1h.6c-.5 1.2-.9 2.4-1.3 3.6h-.2c-.1 0-.2 0-.3-.1h-.1c-.1 0-.3-.1-.4-.1-.8-.3-1.7-.5-2.6-.8-1.8-.5-3.6-1-5.5-1.5-.1.2-.1.4-.2.5-.1.4-.3.8-.4 1.2 3.1.6 5.8 1.3 8.2 1.9.2 0 .3.1.5.1s.4.1.5.1c-.1.2-.1.4-.2.5-.9 2.8-1.6 5.4-2.3 7.9.3.3.5.5.6.7.1.2.2.3.3.4.2.2.4.4.4.7.3.8-.2 1.7-.5 2.3l-.1.2c-.4.7-1.1.9-1.7.9-.3 2.1-.5 4.3-.6 6.9.4.6.6 1.4.7 2.1.1 1.1-.1 2.2-.7 3.1.1 1.7.2 3.4.4 5.1.2 1.7.4 3.4.7 5.1.3 1.7.6 3.4 1.1 5.1 1.9 6.5 5.2 12.3 8.4 17.9l.7 1.1c3.2 5.5 6.6 11.2 8.1 17.1 1.7 6.1 1.2 12.7-1.2 18.4-.2.5-.5.9-.7 1.3-.5 1-1 2-1.6 2.9-.1.2-.3.4-.4.6-.3.5-.6.9-.9 1.3l-2.3 2.8-2.6 2.6-.9.8c-.9.8-1.9 1.6-2.9 2.4-4.9 3.7-10.8 6.9-17.5 9.3 6.7-1.4 13-3.9 18.7-7.6 6.1-3.9 11-9.1 14-15.1 3.1-6.1 3.8-13.6 2.1-20.8-.4-.7-.8-1.8-1.1-2.9z"/><path class="st0" d="M295.1 293.8c4.2 1.5 8.5 2.8 12.9 3.1-1.9-3.2-4.1-6.2-6.7-8.9-2.1 2-4.2 4-6.2 5.8zM77.3 94.5c-.5 5.7-.7 11.3-1 16.8-.4 8.2-.7 16.7-1.9 25.3-.3 2-.6 4-.8 5.9 0 .3-.1.6-.1.9l.3-.9c2.5-6.8 7.8-12.8 14.9-16.3 5.7-2.8 11.7-3.8 17.3-2.8-1.7-1.5-3.4-3-5.1-4.6 4.5 1.7 8.8 4 12.9 6.3 4.1 2.4 8.2 5 12.1 7.7 3.9 2.8 7.7 5.7 11.3 8.9 3.6 3.2 7 6.6 10 10.4-1-.5-1.9-1.1-2.8-1.6 3 4.8 4.2 10.1 2.7 16.1-1.8 6.8-6.4 12.6-13.1 16.4-5.6 3.2-12.3 4.9-19.3 4.9-4.1 0-8.4-.6-12.6-1.7-7.2-2-14.5-6.5-20-12.5-.5-.5-1-1.1-1.4-1.6-.5-.6-.9-1.2-1.4-1.8-4.3-5.7-7-12.4-7-19.4-2.4 14.3-5.9 28.3-12.7 42.2-1 2-1.9 4.3-2.8 6.6-.2.7-.5 1.4-.7 2-.2.7-.5 1.3-.7 2-4.8 15.8-5.8 35.7 1.3 49.8 2 3.9 4.7 7.4 7.8 10.4 1-.7 1.8-1.4 2.6-1.9 4-2.8 9.5-1.8 12.3 2.2.9 1.2 1.4 2.6 1.5 4.1 10.3-2.1 21-2.2 31.2.7 5.7 1.6 17.5 5.7 18 13.1.3 4.2-4.2 6.4-7.4 8 8.3 2 16.7 3.5 25.2 4.4 2-1.4 3.9-3 5.6-4.6 2.1-2.1 3.9-4.3 5.3-6.7-1.6-.2-2.5-.4-2.6-.4-.8-.1-1.4-.7-1.5-1.4l-10.2-44.9c-.1-.2-.3-.5-.3-.7l-.7-4.4v-.6l1.3-6.9c.2-.8.8-1.4 1.7-1.5 22-1.8 43.5-1.8 64.2-.2 6.6-4.6 15.6-9.2 28.7-10.6 3.6-.4 7.4-.6 11.2-.5.1 0 .1-.1.2-.1.7-.5 2.3-2 3.1-2.8 1.2-1.2 1.7-1.6 2.1-1.9 1.9-1.2 4.6-2.1 8.2-.9 1.7-1.5 3.6-2.8 5.7-3.9-1.3-.9-2.2-1.8-2.5-3-.3-1-.3-2.5 1.3-4.2 2.4-2.5 7.6-3.3 11.6-3.3h.2l.3-.3c2.5-2.2 7.6-3.4 12.6-3.6h.3c-.2-1.4-.3-2.9-.5-4.3-.2-1.6-.4-3.3-.5-4.9-.4-3.8-.7-7.5-.8-11.1-.2-4.9-.3-9.9-.4-14.9l-.3-10.3c0-.6 0-1.2-.1-1.8 0-.6 0-1.2-.1-1.8-.5-14.4-1.6-29-4.6-43.2-12.1 9-66.5 12.3-104.6 12.3-38-.3-92.4-3.7-104.5-12.6zm.5 79.9c.6.2 1.2.5 1.7.7.6.3 1.2.5 1.7.8.5.2 1 .5 1.5.7 3.3 1.8 6.4 3.9 9.1 6.5-3.4-1.7-6.6-3.5-9.8-5.2-.4-.2-.9-.5-1.3-.7-.6-.3-1.1-.6-1.7-.9-.6-.3-1.1-.6-1.7-.9-1.7-.9-3.4-1.8-5.1-2.8 1.9.5 3.8 1.1 5.6 1.8zm10.3 10.1c-2.9-1.4-5.8-2.6-8.9-3.7-.5-.2-.9-.3-1.4-.5.5 0 1 .1 1.5.1 3.2.4 6.4 1.4 9.3 2.8 3.4 1.7 6.5 3.9 9 6.8-3.1-2.1-6.2-3.9-9.5-5.5zm177.7 2.2c1.4-1.1 3.2-1.4 4.9-1.7 1.7-.3 3.4-.5 5.1-.6 3.4-.2 6.9-.2 10.3.4-3.4.5-6.8.8-10.2 1.1l-5.1.3c-1.6 0-3.3 0-5 .5zm14.6 1.2c-2 0-4.1-.2-6.1-.7 2-.6 4.1-.7 6.1-.7s4.1.2 6.1.7c-2 .5-4.1.7-6.1.7zm-61.5-50.3c1.4-.9 2.8-1.6 4.3-2.3 1.4-.7 2.9-1.3 4.3-1.8 2.9-1.1 5.9-2.2 8.8-3.1 5.9-1.9 11.9-3.5 18-4.8 6-1.3 12.2-2.4 18.4-3-5.1 2.2-10.2 4.1-15.4 5.8 6.6.1 12.4 1.7 17 4.7 4.5 2.9 7.9 7 10 12.1l.9 2.4c.4 1.1.7 2.3.9 3.5.1.3.1.6.2.9.4 2.4.4 4.7.1 7-.2 1.2-.4 2.4-.7 3.6-.2.8-.5 1.7-.8 2.5-2.6 6.6-7.9 12.7-14.9 17.2 2.5-.4 5-.7 7.5-.7-3.9.8-7.7 1.7-11.4 2.9-3.2 1.7-6.7 3-10.5 4-3.4 1.6-6.7 3.3-9.9 5.2 1.7-1.5 3.6-2.9 5.6-4.2h-.1c-3.3.6-6.6.9-9.9.9-9.3 0-18-2.5-24.7-7.2-6.2-4.3-10-10.1-11.2-16.7-1.5-8.9 2.5-17.3 10.8-24.1h-.1c-1.6.3-3.3.5-4.9.5-3.2-.1-6.4-.7-9.3-2 6.1.5 12.3-.1 17-3.3zM191 184.1c0 .8-.4 1.3-1 1.6-1.4 1.4-3.5 2.4-5.5 2-.3.1-.7.2-1 .4.3.6.2 1.5-.5 2-3.6 2.6-5.3 9.5-10.8 8.6-4.5-.7-8.7-6.3-11.6-9.4-.3-.2-.5-.5-.5-.8-.6-.3-1.3-.7-1.9-1-1.5-.8-.5-2.8.9-2.7 6-9.9 19.9-7.2 26.9 0 .7-.2 1.3-.6 1.8-1.1.1-.2.2-.3.3-.4 1-1 2.9-.7 2.9.8zm-1.1-8.2l-27.3-1.5s7.5-10.4 16.4-7.4c8.9 2.9 10.9 8.9 10.9 8.9zM188.4 287.3c-.2.6-.4 1.3-.6 1.9-.7 2.1-1.7 4.1-2.7 6.1 2.9-.2 5.8-.4 8.7-.7.7-1.1 1.4-2.2 2.1-3.4-.4 0-.9-.1-1.3-.2l-.4-.1c-1.4-.3-2-1.9-1.9-3.1-1.4-.1-2.7-.3-3.9-.5zM196.7 294.3c.2 0 .4 0 .6-.1.5-.1 1-.1 1.5-.2.2 0 .4-.1.6-.1.2 0 .4-.1.6-.1 1.1-.1 2.2-.3 3.2-.4.8-.6 1.6-1.2 2.2-1.8.4-.4.8-.9 1.3-1.5-1.6-.3-3.3-.5-4.9-.8-.2 0-.4-.1-.5-.1-.2 0-.4-.1-.5-.1-.4-.1-.7-.1-1.1-.2-.2 0-.4-.1-.6-.1-.2 0-.4-.1-.5-.1-.1.2-.2.3-.3.4l-.1.1c-.2.3-.3.5-.3.6-.2.3-.4.6-.6.8-.1.1-.2.1-.3.1-.7 1.2-1.3 2.4-2 3.5.3 0 .7-.1 1-.1.3.3.5.3.7.2zM322.7 249.1c.2-.6.4-1.1.6-1.7.2-.5.3-.9.5-1.4.2-.5.3-.9.5-1.4.3-.9.6-1.9.9-2.9-.8.4-1.6.7-2.3 1-.5.2-1 .3-1.4.4l-1.5.3c-.5.1-1 .1-1.4.1h-.1c-2.8 0-5.7-1-8.4-2.7-.4 1.1-.7 2.2-1.1 3.3 4.6 1.9 9.1 3.8 13.6 5.9-.1-.2 0-.6.1-.9zM330.8 249.3c-.3 8.2-2.6 18.3-6.3 21.7-.8.7-1.4.9-2.1.8-1.1-.1-1.6-.4-1.9-.9-.2-.3-.3-.6-.5-1-1.6 1.6-3.4 3.5-5.4 5.4l-1.2 1.2-1.1 1.1c-1 1-2 1.9-3 2.9.2.2.4.5.6.7.6.6 1.2 1.2 1.9 1.7.9.7 1.8 1.3 2.8 1.8 2 1 4.2 1.6 6.6 1.8 4.9.4 9.4-1.2 13.2-4.6 9.1-8.2 10.8-25.1 11.1-31.4v-1.1l-14.8-.3c.1.1.1.1.1.2z"/><path class="st0" d="M116.2 289.5c.7-.3 1.3-.5 2-.8 1.7-.7 3.5-1.6 5.1-2.5 2.2-1.2 4.9-2.8 3.3-5.7-.8-1.6-2.5-2.8-3.9-3.8-3.5-2.4-7.4-4-11.5-5.2-10.1-2.8-20.5-2.6-30.7-.5-.3.1-.5.1-.8.2-.3.1-.6.1-.8.2-1 .2-2.1.5-3.1.8-.4.1-.9.2-1.3.4-.1 0-.2.1-.3.1-.7.2-1.5.5-2.2.7-3.9 1.3-7.7 2.9-11.3 5.1-1.7 1-6.2 3.3-7.1 5.7l12-.9c.4 0 .9-.1 1.3-.1s.9-.1 1.3-.1c.9-.1 1.7-.1 2.6-.2 1.6-.1 1.8 2 .7 2.7-4.3 3.3-7.5 7.5-10.1 12.1 10.8-1.1 20-8.6 31.2-8.4 1.7 0 2 2.5.4 2.9-1.9.5-3 2-3.6 3.7.3-.1.6-.2.9-.2 2.9-.8 6-1.3 9-1.8 4.7-.8 9.4-1.9 13.9-3.5 1.2-.2 2.1-.6 3-.9zM244.2 292.7c.1-.2.1-.3.2-.5.2-.5.3-1 .5-1.6.1-.2.1-.3.2-.5-.5-.1-1.1-.2-1.7-.3v2.8c.3 0 .6 0 .8.1zM282.1 284.6c.1 0 .2.1.3.1.4-.5.8-1.1 1.3-1.6s1.3-1.2 2.3-1.4l-3.8-1-7.1-1.7c-.6 1.2-1 2.2-1.4 3.1 4 1.1 6.9 2 8.4 2.5z"/><path class="st0" d="M271.1 281.4c-.6.7-1.2 1.3-1.7 1.9l-1 1.3-.5.5c-1.3 1.7-2.6 3.4-3.9 5.4-.5.7-1 1.5-1.5 2.3-.2.3-.4.7-.6 1-.2.4-.5.8-.7 1.2-.1.3-.3.5-.4.8-1 1.8-1.9 3.6-2.7 5.4l-.3.7-.6 1.5-1.1 3.3-.4 1.3-.6 2.4-.6 2.5-.5 2.6-.3 2.6v.8l-.1 1.8v3l.6-.3c1.4-.6 2.7-.8 3.8-.3 2.3.9 3.5 3.7 4.6 6.2.1.3.3.6.4.9.5 1 1.5 2 2.5 3 .6.5 1.1 1.1 1.6 1.6l-.8-1.8-1.3-3.5c0-.1-.1-.2-.1-.3-.1-.2-.1-.3-.1-.5l-.3-1.1c-.1-.5-.3-1-.3-1.4 0-.2-.1-.5-.1-.7-.8-.9-1.5-2.1-1.9-3.3-.8-2.1-.8-3.9.1-4.9.3-.4.7-.6 1.2-.8l.1-2.3.2-2.2.5-3.6 1-4.8c.5-2.2 1.2-4.4 1.8-6.5.1-.4.2-.8.4-1.2.1-.2.1-.4.2-.7v-.1c.4-1.2.8-2.3 1.2-3.4.6-1.7 1.3-3.4 1.9-5l.6-1.4.7-1.7c.2-.5.5-1.1.8-1.7.4-.9.9-1.9 1.4-3.1.1-.2.1-.3.2-.5-.2.1-.3.3-.4.4-1.4 1-2.3 1.9-3 2.7zM259.7 295.6c.1-.2.3-.5.4-.7.2-.4.5-.9.7-1.3l-3.9-.9c0 .5-.1 1-.1 1.5 0 .3 0 .6-.1.9 1.1.1 2.1.3 3 .5zM228.9 269.2c.5 1.2.9 2.4 1.2 3.3 1.9.3 3.7.7 5.6 1-.2-.9-.4-2-.7-3.2-2-.3-4-.7-6.1-1.1zM190.1 263.5c.1.3.1.6.1.8l.1.9c.1.6.2 1.2.2 1.8 4.2.5 8.2.9 12.1 1.4 0-.3.1-.5.1-.8l.1-.9c0-.4 0-.9.1-1.6-4.1-.6-8.3-1.1-12.4-1.6h-.4zM205.4 268.8c3.9.5 7.7 1.1 11.4 1.6 1.8-1 3.6-1.7 5.5-2.3-5.7-1-11.4-1.9-17.1-2.7.1.5.1.9.1 1.2l.1 1v1.2zM225.5 268.6c0 .3-.2.6-.4.8-.8.6-1.6 1.2-2.3 1.9 1.6.3 3.2.5 4.7.8-.2-.8-.4-1.6-.7-2.5-.1-.3-.1-.5 0-.8-.4 0-.9-.1-1.3-.2zM164.7 261.2c0 .1.1.2.1.2l.1.1c.2.4.3.8.4 1.2.2.7.4 1.4.5 2.1.2 1 .4 2 .5 3 .1-.2.3-.4.4-.6 1.3-1.5 3.2-2.2 5.1-2.1 5.2.4 10.3.9 15.2 1.4.1-.5.2-.9.3-1.4 0-.1.1-.8.3-2-5.2-.6-10.5-1.1-15.7-1.5-2.4-.1-4.8-.3-7.2-.4zM154 260.7l4.1 18.3c.6.1 1.5.2 2.6.4.4-.9.7-1.7 1-2.6.8-2.4 1.3-5 1.4-7.6 0-1.2 0-2.6-.1-4 0-.7-.1-1.3-.2-2 0-.3-.1-.6-.2-.9v-.1-.1c-.3-.2-.5-.6-.4-1-2.7-.2-5.5-.3-8.2-.4zM189.4 283.7c1.9.3 3.9.6 5.9.9.9-.6 1.9-1 2.5-1h.1c.3 0 .8.3 1.2.7.3-.7.5-1.4.7-2.1-3.4-.5-6.7-1-9.7-1.4-.3 1-.5 2-.7 2.9zM204.3 267.7l-.1-.9c0-.4-.1-.9-.2-1.4 0-.2 0-.4-.1-.6v.6c0 .6 0 1.1-.1 1.5l-.1.9c0 .3-.1.6-.1.9-.1 1.4-.3 2.6-.5 3.7-.1.3-.1.7-.2 1-.3 1.9-.8 3.8-1.3 5.6-.2.9-.5 1.8-.8 2.7l-.3.9c-.3 1-.7 2-1 2.9.3 0 .6.1.9.1.2 0 .4.1.6.1.2 0 .4.1.6.1h.2c.1-.2.1-.4.2-.7.1-.5.3-1 .4-1.5.1-.3.1-.6.2-.8h-.2c.1-.2.2-.3.4-.5v-.2l.6-3c.3-2 .6-3.9.7-5.7v-1c.1-1.4.1-2.6 0-3.7.2-.4.2-.7.2-1zM236.5 270.6c-.2-.2-.3-.4-.5-.7.1.2.1.4.2.6.3 1 .5 2 .6 2.8 0 .2 0 .3.1.4l.3 1.8.1.5c.1.8.1 1.3.2 1.6v.4c.2 2.3.1 4.5 0 6.7 0 .4 0 .9-.1 1.3l-.1.8c0 .5-.1 1.1-.2 1.6 0 .2 0 .3-.1.5v.4c-.1.7-.2 1.3-.3 2 2 .3 3.9.7 5.9 1v-.9c0-.6 0-1.3-.1-1.9 0-.9-.1-1.8-.2-2.7l-.1-.9v-.3c0-.3-.1-.5-.1-.8-.4-2.4-.9-4.6-1.7-6.6-.1-.2-.2-.5-.2-.7 0 0-.2-.7-.8-2-.2-.4-.4-.9-.6-1.4-.2-.4-.5-.9-.8-1.5-.6-.6-1.1-1.3-1.5-2zM228.6 272.3c.2 1 .3 1.8.5 2.5l.1.5c0 .3.1.6.1.9.1.8.1 1.2.1 1.2v.4c0 .3.1.6.1.9v4.8c0 .7-.1 1.4-.1 2.1 0 .5-.1 1-.2 1.5 0 .4-.1.8-.2 1.3s-.2 1-.2 1.6v.1c.5.1 1.1.2 1.6.3 0-.3.1-.6.1-.8.1-.5.1-1 .1-1.5v-.6c0-.6.1-1.1.1-1.7v-2.1l-.2-3.4c0-.3-.1-.6-.1-.9l-.1-.5c0-.3-.1-.6-.1-1l-.1-.5s-.1-.3-.2-.9c-.1-.3-.1-.7-.2-1.1-.1-.7-.4-1.6-.8-2.8-.3-.9-.7-2-1.2-3.1.5.9.7 1.9.9 2.8z"/><path class="st0" d="M161.8 279.6c-.5 1.2-1.1 2.3-1.8 3.5-1.5 2.6-3.4 5.1-5.7 7.3-1.5 1.5-3.2 2.8-4.9 4.1-2.1 1.6-4.3 3-6.6 4.5.6.2 1.1.4 1.5.8.5.6.7 1.5.7 2.5 3.3-2.2 6.6-4.5 9.5-7.3.8-.7 1.5-1.4 2.2-2.2 2.5-2.8 4.6-5.9 6.1-9.2.5-1.2 1-2.3 1.3-3.5.2-.7.4-1.5.6-2.3.3-1.4.5-2.9.6-4.3.1-1.3.1-2.6 0-3.8v-.5c-.2-1.4-.4-2.8-.7-4.1-.1-.7-.3-1.4-.5-2-.1-.3-.2-.7-.3-1l-.1-.1c-.1-.2-.2-.4-.4-.5.1.1.2.3.2.6v.2c.1.4.1.7.2 1 .1.7.1 1.4.2 2.1.1 1.4.1 2.8.1 4.1-.1 2.7-.6 5.4-1.4 7.9-.1.5-.4 1.4-.8 2.2zM163.4 261.3zM163.4 261.3c-.1 0-.1-.1-.2-.1l.2.1zM260 275.5c-5-1.1-10-2.2-15-3.2-.9-.2-1.9-.4-2.8-.6-.8-.2-1.6-.3-2.5-.5l-1.8-.3c.2.4.5.7.7 1.1.3.5.6 1 .8 1.5.2.3.3.6.4.9.3.1.7.1 1 .2 6.4 1.2 12.1 2.5 17.1 3.6.6-.8 1.3-1.7 2.1-2.7zM266.5 276.9c-.8-.2-1.6-.4-2.4-.5h-.1c-.6-.1-1.2-.3-1.7-.4-.2 0-.4-.1-.5-.1-.6.9-1.1 1.7-1.5 2.4-.1.1-.2.3-.2.4.2 0 .4.1.5.1.5.1 1 .2 1.5.4.8.2 1.5.4 2.3.6 2 .5 3.9 1 5.6 1.4.8-.8 1.6-1.7 2.7-2.7-1.3-.3-2.6-.6-3.9-1-.9-.2-1.6-.4-2.3-.6zM227.7 289.8c.1-.4.1-.8.2-1.2.1-.6.2-1.2.2-1.7-1.1-.2-2.3-.4-3.4-.6v.2c-.1.7-.3 1.6-.7 2.7.3 0 .5.1.8.1 1 .2 2 .4 2.9.5zM232 287.6c-.1 0-.2 0-.3-.1v.1c0 .5-.1 1-.1 1.5 0 .4-.1.9-.1 1.3.2 0 .5.1.7.1 1.1.2 2.2.4 3.4.6l.3-1.5c.1-.4.1-.8.2-1.2v-.1c-.1 0-.2 0-.3-.1-.1 0-.2 0-.3-.1-1.2-.1-2.4-.3-3.5-.5z"/><path class="st0" d="M311.3 273.3c3.1-3.1 5.9-5.9 7.9-8 .2-.2.4-.4.6-.7-.2-.1-.4-.1-.6-.2-4.8-1.6-9.7-3.1-14.5-4.4-.2-.1-.5-.1-.7-.2-.2-.1-.5-.1-.7-.2l-12-3.3c-.4-.1-.8-.2-1.3-.3-.6-.2-1.2-.3-1.8-.4-.4.6-.8 1.2-1.2 1.9.4-.6.8-1.2 1.2-1.9-66.6-16.9-127-18.4-139.7-18.5l5.4 23.6c2.8-.1 5.6-.1 8.5-.1.2-.3.7-.5 1.1-.4.3.1.5.2.7.4 7.9.1 15.8.6 23.6 1.3.2 0 .5 0 .7.1h.6c.2 0 .4 0 .7.1-.2-.5-.6-.8-1.1-.7.5-.1.9.2 1.1.7.3 0 .6 0 .8.1 12.4 1.2 24.8 3 37.1 5 4.7.9 9.5 1.8 14.2 2.8.9.2 1.8.4 2.6.6l1.5.3c.5.1 1 .2 1.4.3 5.6 1.2 11.2 2.5 16.8 3.9.6.1 1.1.3 1.7.4.7.2 1.5.4 2.2.6.7.2 1.3.3 2 .5 1.1.3 2.1.6 3.2.9l.2.1c.4-.3.9-.3 1.3 0 .2.1.3.3.3.5l7.2 2c5 1.5 10 3 14.9 4.6l1.8.6.7-.7.3-.3c.3-.3.6-.5.9-.8l.8-.8c.6-.5 1.1-1 1.7-1.6.9-.8 1.8-1.7 2.6-2.5.2-.2.4-.3.5-.5.2-.2.4-.3.5-.5.6-.6 1.2-1.1 1.7-1.7l1.2-1.2 1.4-1.4zm-18.2 3.8c-4.7-1.8-10.1-3.4-16-5.1-.6-.2-1.1-.3-1.7-.5-.7-.2-1.4-.4-2-.5-4.5-1.2-9.3-2.3-14.4-3.3-1.3-.3-2.6-.6-4-.8-1.4-.3-2.7-.5-4.1-.8-23.2-4.5-51.7-8.2-83.8-10.9h-.3c-2.6-.2-4.8-2.6-5.6-4.8-.8-2-.5-4.2.7-6 1.2-1.7 3.1-2.7 5.1-2.8h1.6c41.1 0 89.3 10.5 117.3 17.7.6.2 1.2.3 1.8.5.4.1.9.2 1.3.3 3.9 1 7.4 2 10.3 2.8 2 .6 3.1 1.5 3.8 2.5.3.5.5 1 .7 1.5.2.9.2 1.8-.1 2.8-.1.2-.1.4-.2.6-.1.3-.2.6-.4.9-.2.5-.5 1-.8 1.5-.8 1.3-1.8 2.4-2.7 3.3-1.2 1.1-2.7 1.7-4.2 1.7-.8-.2-1.5-.4-2.3-.6z"/><path class="st0" d="M306.9 247.4c-.2-.1-.4-.2-.7-.3-3.1-1.3-6.3-2.5-9.5-3.6-.4-.1-.7-.3-1.1-.4-.6-.2-1.1-.4-1.7-.6-3.7-1.3-7.5-2.5-11.3-3.7-15.5-4.7-31.7-8.3-48.5-10.7-2-.3-4-.6-6-.8-4-.5-8.1-1-12.2-1.3-2-.2-4-.4-6-.5-1.1-.1-2.2-.2-3.3-.2-18.9-1.3-38.3-1.2-58.2.4l-.9 5.2.1.7.3 1.8v.1c1.9 0 5.4.1 10.2.2 22.7.8 75.3 4.1 132.3 18.7.6.1 1.2.3 1.7.4l1.2.3c3.6.9 7.1 1.9 10.7 2.9.2.1.5.1.7.2.2.1.5.1.7.2 4.7 1.4 9.5 2.8 14.2 4.4.2.1.5.1.7.2.2.1.5.1.7.2.4.1.8.2 1.2.4l.3-.8v-.1c-.1 0-.1 0-.2-.1-.4-.1-.8-.3-1.2-.4-.2-.1-.5-.2-.7-.2-.2-.1-.5-.2-.7-.2-4.7-1.7-9.4-3.3-14.1-4.8-.2-.1-.5-.2-.7-.2-.2-.1-.5-.2-.7-.2-.4-.1-.8-.3-1.2-.4-3-1-6-1.9-9-2.8-.4-.1-.8-.2-1.1-.4-.6-.2-1.1-.3-1.7-.5-1.5-.4-2.9-.9-4.4-1.3-.9-.3-1.8-.5-2.7-.8-.5-.1-1-.3-1.6-.5-6.6-2-13.2-3.7-19.9-5.3-.3-.1-.5-.1-.8-.2-3.5-.8-6.9-1.6-10.4-2.3-3.5-.8-7-1.4-10.5-2.1 7.1.9 14.1 2.1 21.1 3.6 4.9 1.1 9.7 2.3 14.6 3.5 2.1.6 4.2 1.1 6.2 1.7l3.9 1.2 4.8 1.5c.6.2 1.1.3 1.7.5.4.1.8.2 1.1.4 3 1 5.9 1.9 8.9 3 .4.1.7.3 1.1.4.2.1.4.2.7.2.2.1.4.2.7.2 4.7 1.7 9.4 3.5 14 5.4.2.1.5.2.7.3.2.1.4.2.7.3.4.2.7.3 1.1.5.1 0 .2.1.2.1l.7-1.9.7-1.9.6-1.7-1.8-.9-.6-.3-.6-.3c-4.5-2.1-9-4.1-13.6-6-.5-.2-.7-.3-.9-.4zm-86.8-12.6c-3.3-.5-6.7-1-10-1.3-3.3-.4-6.7-.8-10-1.1-1.9-.2-3.8-.3-5.7-.5-.5 0-.9-.1-1.4-.1-1-.1-2-.2-3-.2-4.5-.4-9.1-.6-13.7-.8-2.2-.1-4.3-.2-6.5-.2-1.2 0-2.4 0-3.7-.1-3.9-.1-7.7-.1-11.6-.1h-5c3.2-.4 6.4-.6 9.6-.7h.5c3.4-.1 6.7-.2 10.1-.2h3c5.7 0 11.5.3 17.2.7 1.4.1 2.9.2 4.3.4 1.3.1 2.5.2 3.8.4 4 .4 8.1.9 12.1 1.5 6.7 1 13.3 2.4 19.9 4-3-.4-6-1-9.1-1.4-.2-.2-.5-.3-.8-.3zM300.1 268.2v-.6c-.1-.5-.7-1-1.8-1.3-3.3-.9-7.2-2-11.8-3.1-.5-.1-.9-.2-1.4-.4-.6-.2-1.2-.3-1.9-.5-28-7.1-74.8-17.1-114.7-17.1H167c-.8 0-1.6.4-2.1 1.1-.5.8-.6 1.7-.3 2.6.4 1.1 1.7 2.3 2.5 2.4h.3c36.5 3.1 67.7 7.4 92.2 12.6l5.4 1.2c1.9.4 3.8.9 5.7 1.3 2.2.5 4.4 1.1 6.5 1.7.7.2 1.3.4 1.9.5.5.1 1 .3 1.5.4 5 1.4 9.6 2.9 13.8 4.5.9.3 1.9.1 2.6-.5.6-.6 1.2-1.3 1.7-1.9.4-.5.6-1 .9-1.4.3-.6.5-1.1.5-1.5zM262.9 290.2c1.4-2.1 2.7-4 4.2-5.8l.1-.2c-2.5-.6-5.4-1.3-8.5-2.1h-.2l-.1.2-.9 1.5c-.2.4-.5.9-.7 1.3.2 1.2.2 2.4.2 3.7 2.1.5 4 .9 5.9 1.4zM221.4 275.4c-.4 1.5-.9 3.7-1.3 6.3 2.7.5 5.5.9 8.3 1.4v-3-1.4c0-.3 0-.6-.1-.9v-.5s0-.5-.2-1.4c-2.1-.4-4.3-.7-6.6-1.1 0 .3 0 .4-.1.6zM171.2 274.7c.2 0 5.3.6 13.4 1.7.6-1.8 1.2-3.7 1.7-5.8 0-.1.1-.2.1-.4-4.8-.5-9.7-1-14.8-1.4h-.2c-.7 0-1.4.3-1.9.9-.6.6-.8 1.5-.6 2.3l.1.6c.3 1.1 1.1 1.9 2.2 2.1zM205.4 279.4c.7-.8 1.4-1.5 2.1-2.2 1.5-1.4 3-2.6 4.5-3.7l-6.6-.9v.9c-.1 1.8-.3 3.8-.7 5.8.2 0 .5 0 .7.1zM200.8 278.7c.5-1.8.9-3.7 1.3-5.6.1-.3.1-.6.2-1-3.7-.5-7.5-.9-11.4-1.4v.4c0 1.8-.1 3.8-.3 6.1 3.1.4 6.5.9 10.2 1.5zM233.2 276.9c-.7-.1-1.4-.3-2.1-.4.1.4.1.6.1.6l.1.4c.1.3.1.7.1 1l.1.5c0 .3.1.7.1 1v.1l.2 3.4v.3c.5.1 1 .2 1.6.3 1 .2 1.9.4 2.9.5.1-2 .1-4.2 0-6.4 0-.1 0-.3-.1-.7-.4-.1-.8-.2-1.3-.2-.5-.2-1.1-.3-1.7-.4zM246.7 284.9c.2-.6.4-1.2.6-1.7.5-1.4 1-2.4 1.6-3.2-2.4-.5-4.9-1-7.5-1.5.6 1.9 1.1 4 1.5 6.1.1.4.1.8.2 1.2v.1c.1 0 .2 0 .3.1.9.2 1.9.4 2.8.6.2-.7.3-1.2.5-1.7zM253.3 340.4c.2.1.4.1.7.2.2 0 .4.1.6.1.6.1 1.2.1 1.9.1h1.2c1.8-.1 3.8-.5 5.6-1.1 2.4-.7 3.8-1.6 4-2.5.3-1.1-1-2.3-2.4-3.6-1.1-1-2.1-2.1-2.7-3.2-.1-.3-.3-.6-.4-.9-1-2.4-2.2-5-4.2-5.8-.4-.1-.8-.2-1.2-.2-.6 0-1.3.2-2.1.5-.3.1-.6.3-.9.5-.2.1-.3.3-.5.4l-.5.5c-1.2 1.2-1.9 2.9-2.4 4.8-.1.3-.2.7-.2 1-.1.4-.1.7-.1 1.1-.2 2.3 0 4.5.6 5.8.7 1.2 1.7 1.9 3 2.3zm-.9-3.5c.2.1.4.2.7.3.2.1.5.2.7.3.6.2 1.2.4 1.7.7.2.1.4.2.7.3.3.1.5.2.7.4.4.3.6.5.5.8 0 .1-.1.1-.1.2-.1.1-.3.2-.5.3-.2.1-.3.1-.5.1-.5 0-1.2 0-2-.2-.2-.1-.4-.1-.7-.2h-.1l-.6-.3c-1.5-.7-2.5-1.7-2.2-2.4.2-.4.5-.4 1.1-.3.1-.1.4-.1.6 0z"/><path class="st0" d="M193.8 301.5c-1 1-1.8 2.2-2.3 3.4-.2.4-.3.8-.4 1.2-.1.3-.1.6-.2.9 0 .4-.1.8 0 1.1.1 1.5.5 2.8 1.1 3.7.1.2.3.5.5.7.2.2.3.4.5.6.9.9 2 1.5 2.9 1.9 1.8.7 3.9.9 6 .7h.5c.2 0 .4 0 .5-.1 3-.4 5.8-1.6 7.5-3.3 3.6-3.6 8.5-12.6 11.3-19.3.1-.2.1-.3.2-.5.2-.4.4-.8.5-1.2.1-.2.1-.3.2-.5.1-.4.3-.8.4-1.1.1-.2.2-.5.2-.7.4-1.1.6-2.1.7-2.7v-.3c0-.3 0-.5-.2-.7-.4-.3-1.3-.1-2.2 0-.2 0-.4.1-.7.1-.7.1-1.3.1-1.6-.2 0 0 0-.1-.1-.1-.2-.2-.3-.5-.2-.8 0-.4.1-.7.1-1.1.1-.6.1-1.3.2-1.9.4-2.6.9-4.8 1.3-6.3 0-.2.1-.3.1-.5.2-.7.3-1.4.4-1.8-.1.1-.2.1-.5.3-.4.3-.9.8-1.3 1.2-1.6 1.6-3.3 3.8-5 6.2-.4.6-.8 1.1-1.2 1.7-.4.6-.8 1.1-1.2 1.7-.1.1-.2.3-.3.4l-1.2 1.8c-.1.2-.3.4-.4.6-.4.6-.8 1.2-1.2 1.7-.2.2-.3.4-.4.6-.3.4-.6.8-.8 1.1-.2.2-.3.4-.5.6-.4.5-.8.9-1.1 1.2-.4.4-.8.8-1.3 1.1-.7.6-1.5 1.2-2.4 1.8-.7.5-1.3.9-2 1.4l-.9.6c-.6.4-1.2.8-1.8 1.3l-1.2.9c-.4.3-.8.7-1.2 1l-.1.1-.6.6c-.1.4-.4.7-.6.9zm4.2 6.8c.9 3.3 1.8 5.9.4 6.3-1.3.4-3.9-2.6-5-5.7-.1-.2-.1-.4-.2-.6-.1-.3-.1-.5-.1-.7-.2-1.2-.1-2.3.2-3.1.2-.4.4-.8.6-1.1.2-.3.4-.5.7-.6 0 0 .1 0 .1-.1.2-.1.3-.2.5-.2 1.2-.3 1.9 2.5 2.8 5.8zM233.9 309.7c.5 1.1 2.2 2.8 3.9 2.1 0 0 .1 0 .2-.1-3-5.1-1.9-8 .5-11.1-.5 0-1.1.2-1.5.4-1.7 1-3.7 7.3-3.1 8.7zM241.7 343.5c-.8-2-1.9-4.9-2.3-7.8-.1-.6-.3-.9-.7-1.1-.2-.1-.5-.2-.8-.2-.8 0-1.6.3-2.2.6-2.3 1.4-5.2 10.4-4.4 12.4.8 1.9 3.4 4 5.7 3 .2-.1.5-.2.8-.3 1.7-.7 3.7-1.5 4.3-3.2.2-.5.2-1 .1-1.6.1-.1-.2-.9-.5-1.8zm-4.3 6.1c-.5.5-2.7.6-4-.6-1.3-1.2-1.3-3.1-.8-3.7.5-.5.7.2 2.1 1.3 1.3 1.3 3.2 2.5 2.7 3zM194.3 290.3l.4.1c.5.1 1 .2 1.5.2.3 0 .5-.1.7-.2 0 0 .1 0 .1-.1.2-.1.3-.3.4-.5.1-.1.2-.4.4-.6.1-.1.1-.2.2-.3.3-.5.6-1 1-1.7.1-.2.2-.4.3-.7.1-.3 0-.6-.1-.8-.1-.1-.2-.2-.3-.4l-.1-.1c-.4-.4-.9-.8-1-.8-.3 0-.8.2-1.4.5-.7.4-1.5 1-2.2 1.5-.7.6-1.1 1.1-1.2 1.5v.2c-.1.7.2 2 1.3 2.2zm-.7-2.9c.3-.2.7.3 1.2.9l.1.1c.6.7 1.1 1.2.8 1.5-.3.2-1.4-.2-2-.9-.3-.3-.4-.6-.4-.9 0-.3.1-.6.3-.7zM173.2 311.1c-.1-.1-.3-.3-.4-.5l-.4-.4c-.1-.1-.2-.3-.4-.4l-.4-.4h-.2-.1c-.5 0-1 .4-1.1.6-.1.2 0 .7.1 1.2 0 .2.1.4.2.5.1.2.1.4.2.5.3.7.6 1.3.8 1.4h.1c.2.1.5.1.9.1.3 0 .5-.1.6-.4l.1-.2c.1-.2.3-.5.4-.7.1-.3.2-.5.1-.7 0-.1-.1-.2-.2-.3l-.3-.3zm0 2.2c-.1.1-.4.1-.6 0-.4-.2-1-.5-1.3-.9-.1-.1-.1-.1-.1-.2-.1-.2-.2-.3-.2-.5-.1-.3 0-.6.1-.7 0-.1.1-.1.1-.2h.1c.1 0 .3.1.5.3l.4.4c.1.1.2.3.4.4.4.4.7.8.8 1-.1.1-.1.3-.2.4zM272.9 311.8c.1.1.2.1.4.1h.5c.3 0 .6-.1.7-.4l.1-.3c.3-.5.6-1 .5-1.4 0-.1-.1-.2-.2-.3l-.4-.4-.2-.2c-.1-.1-.3-.3-.4-.5-.1-.1-.3-.3-.4-.5l-.5-.5h-.2-.1c-.5 0-1 .4-1.1.6-.2.6.6 2.9 1.1 3.5.1.2.2.2.2.3zm-.2-1.4c-.3-.7-.4-1.4-.1-1.5.2-.1.4.1.6.3.1.2.3.4.4.6 0 0 0 .1.1.1.2.4.3.7.3 1 0 .2 0 .3-.1.4 0 .1-.1.1-.1.1-.1.1-.3 0-.4-.1-.2-.1-.3-.3-.5-.5 0-.1-.1-.3-.2-.4zM178.2 290.3c-.1-.2-.2-.3-.3-.5-.5-.6-1-1-1.7-1.2h-.4c-1.3 0-2.7 1.1-4.3 3.1-.7 1-1.4 1.8-2 2.6-.4.5-.7.9-1 1.3-.4.5-.7.9-1 1.3-.4.6-.8 1.2-1 1.6-.4.9-.4 1.6 0 2.3.1.2.3.4.6.6.2.1.3.2.5.3.2.1.5.1.7.1.4 0 .8 0 1.2-.1 1.5-.2 3.3-.9 5.2-2 .6-.3 1.2-.8 1.7-1.2.5-.5 1-1.1 1.4-1.6.3-.4.5-.9.7-1.4.5-1.2.6-2.4.3-3.4-.1-.5-.3-.9-.5-1.3.1-.1 0-.3-.1-.5zm-4 8.3c-.6.8-1.5 1.5-2.4 2-1 .5-1.8.6-2.5.5-.2 0-.4-.1-.6-.2-.2-.1-.3-.2-.5-.3-.1-.1-.3-.3-.3-.4-.3-.5.3-1 1.3-1.6.5-.3 1.2-.7 1.9-1 .3-.2.6-.3.8-.4.1-.1.2-.1.3-.2.4-.2.7-.4 1.1-.5.4-.2.7-.3 1-.3.3 0 .6 0 .7.3.1.1.1.3 0 .5 0 .5-.3 1.1-.8 1.6zM266.8 317.1c-.5-.1-1.1-.1-1.5-.1-.3 0-.7 0-1 .1-.2 0-.4.1-.5.1-.2.1-.4.2-.5.3-.2.1-.3.2-.4.4-.7.8-.6 2.3.1 4 .2.5.5 1.1.8 1.6.2.4.4.7.7 1 .2.3.5.6.7.9l.6.6c.9.8 2.1 1.1 3.3 1 1.2-.1 2.3-.7 3-1.6.1-.1.1-.2.2-.3.2-.3.4-.6.5-.9.3-.6.4-1.3.3-2 0-.4-.2-.8-.3-1.2-.1-.3-.3-.7-.5-.9-.2-.3-.5-.6-.8-.8-1.3-1.1-3.1-1.8-4.7-2.2zm4.3 8.6c-.3.8-2 .8-3.9.1-1-.4-1.9-1-2.4-1.5-.4-.4-.6-.8-.4-1.2.1-.1.1-.2.3-.3.5-.2 1.4.2 2.9.8 1.8.7 3.7 1.4 3.5 2.1zM141.3 299.9c-.4 0-.8.1-1.2.1h-.1c-.6.1-1.2.3-1.8.6-.9.4-1.7.8-2.2 1.3-.2.2-.4.4-.5.6-.2.3-.4.7-.5 1-.1.3-.2.5-.2.8v.3c-.1 1 .3 2 1 2.8.3.3.6.5.9.7.2.1.3.2.5.3.2.1.4.2.6.2.2.1.4.1.6.1 1 .1 2-.3 2.8-1 .7-.6 1.5-1.8 2-3 .1-.2.2-.5.3-.7v-.2c.1-.3.2-.5.2-.8.3-1.1.2-2.1-.3-2.6-.4-.4-1.1-.7-2-.7 0 .2 0 .2-.1.2zm-2.2 7.8c-.1.1-.2.1-.4.2-.4.2-.8.2-1.1.1-.2 0-.4-.1-.6-.3-.1-.1-.2-.2-.2-.3-.2-.5.7-.9 1.9-1.5.9-.5 1.7-.9 2-.8.1 0 .2.1.2.2v.3c-.1.3-.3.7-.7 1.1-.2.4-.6.7-1.1 1zM284.6 328.1c-1.1-.5-1.9-1.3-2.5-1.9-.6-.6-1.1-1.1-1.6-1.1-.3 0-.5.1-.8.4-1.4 1.6 0 5.2 1.2 6.7.7.9 1.8 1.4 2.9 1.4.8 0 1.6-.3 2.2-.8.6-.5.9-1.2.8-2-.1-1-1-2.2-2.2-2.7zM255.5 296.6c0-.3 0-.6.1-1v-.1c0-.2 0-.5.1-.8 0-.3 0-.6.1-.9 0-.5.1-1 .1-1.5v-.2c0-.6.1-1.2.1-1.7v-1.9c0-.5 0-1-.1-1.5-.2.5-.5.9-.7 1.4-.3.6-.5 1.2-.8 1.7-.2.5-.5 1-.7 1.6 0 0 0 .1-.1.1-.2.4-.4.8-.5 1.3-.2.4-.3.7-.4 1.1-.1.2-.1.3-.2.5-.2.4-.3.8-.5 1.3l-.6 1.8c-.3.8-.6 1.6-.8 2.4l-1.2 4.3-.5 2.1-.4 2.2-.3 2.3-.2 2.3-.1 4.6.1 1.9c.6.2 1.1.4 1.7.4 1.1.1 2-.1 3-.6l.1-1.6.3-2.7.5-2.6.6-2.6.7-2.4 1.2-3.6c-.1-1.2-.3-2.3-.4-3.2v-.3c-.1-.5-.1-1.3 0-2.2-.3-.6-.2-1.2-.2-1.9z"/></svg>
