<svg xmlns="http://www.w3.org/2000/svg" viewBox="0 0 13.9 14"><style>.st0{fill:#fff}</style><path class="st0" d="M10.92 14H2.98C1.34 14 0 12.69 0 11.09V2.91C0 1.31 1.34 0 2.98 0h7.94c1.64 0 2.98 1.31 2.98 2.91v8.17c0 1.61-1.34 2.92-2.98 2.92zM2.98 1.2C2 1.2 1.2 1.97 1.2 2.91v8.17c0 .94.8 1.71 1.78 1.71h7.94c.98 0 1.78-.77 1.78-1.71V2.91c0-.94-.8-1.71-1.78-1.71H2.98z"/><path class="st0" d="M6.95 10.63c-2 0-3.63-1.63-3.63-3.63s1.63-3.63 3.63-3.63S10.58 5 10.58 7s-1.63 3.63-3.63 3.63zm0-6.06C5.61 4.57 4.52 5.66 4.52 7s1.09 2.43 2.43 2.43S9.38 8.34 9.38 7 8.29 4.57 6.95 4.57zM11.7 3.18a.85.85 0 1 1-1.699.001.85.85 0 0 1 1.699-.001z"/></svg>
