<svg xmlns="http://www.w3.org/2000/svg" viewBox="0 0 3959.7 3959.7" overflow="scroll"><path d="M1979.8 0C886.4 0 0 886.4 0 1979.8s886.4 1979.8 1979.8 1979.8 1979.8-886.4 1979.8-1979.8C3959.7 886.4 3073.3 0 1979.8 0zm-883.4 2433.6H601.3v-907.5h140.6v786.8h354.5v120.7zm363-792.7v792.7h-140.6v-907.5h140.6v114.8zm1079 792.7h-157l-434.1-669.1c-16-24.6-27.7-45.9-35.2-63.9h-3.5c3.5 23.4 5.3 67.6 5.3 132.4v600.5h-136.5V1526h166.4l421.3 656.2c19.9 31.3 33.2 52.9 39.8 65h2.9c-4.3-28.1-6.4-71.5-6.4-130.1v-591.2h137.1v907.7zm820 0h-502.7v-907.5h482.2v120.7h-341.6V1914h317v120h-317v278.9h362.1v120.7z"/></svg>
