<svg xmlns="http://www.w3.org/2000/svg" viewBox="0 0 548.5 567.5"><style>.st0{fill:none}.st1{fill:#fff}.st2{fill:#171c61}</style><path class="st0" d="M381.9 384.4c-28.2 19.1-43.5 30.3-46.9 33.4v.2l-1.1 1.1c-.3.3-7.3 7.8-13.7 12.1-.6.4-1.2.7-1.7 1.1 13.9-4.2 27.4-10.5 40-19 13.2-8.9 24.4-19.6 33.6-31.5-2.9.4-5.8.8-8 1l-2.2 1.6zM190.7 376.9c-.8-1.7-2-6.6 6.4-12.2l.4-.2c.1-.1 2.8-1.7 6.1-3.9 6.4-4.4 9.3-6.9 10.6-8.2l-.2-.2 1-2.1c.5-1.9-1.2-6.8-12-11-10-3.2-21.3-8.3-21.6-15-.2-.8-.3-1.6-.3-2.5.3-3.5 3.3-7.1 9.5-11.3.6-.4 1.3-.9 2.1-1.3l.2-.1c.1 0 7.9-4.3 17.2-10.7 16.1-10.9 26.8-20.9 31-28.9l.3-.4c20.2-29 24.4-34.8 25.7-36.2.1-.1 3.2-3.2 7.9-6.4.4-.3.7-.5 1.1-.7l14.3-42c-.3.1-.5.2-.6.3-.7.4-1.3.9-2 1.3-25.3 17.1-65.7 62.8-80 90.6-1 2-2.2 5.3-3.4 8.7-2 5.7-4.1 11.6-6.7 15-2.3 3.1-6.2 6-9 7.9-5.5 3.7-11.6 6.7-16 7.8-8.6 2.2-27.6.6-41-5.5 2.7 22.5 10.6 44.6 24.1 64.7 11.9 17.6 26.9 31.7 43.9 42.2 2.9-3 10.7-12.8 20.8-39.1-17.4 5.3-27.3 5.2-29.8-.6zM138.7 259.2C152.3 231 228 164 248.9 148.7c-18.8 3.6-37.3 11.1-54.2 22.5-32.7 22.2-53.6 55.3-61.1 91.1l.4 3.9c2.5-3.6 4.4-6.4 4.7-7zM417.1 293.4c.9 2.2.9 4.5 0 6.7-.9 2.6-1.7 5.6-1.9 6.9l.1.2c1.6 4.6 3.2 9.3 4.8 13.9 2.5-12.6 3.4-25.6 2.5-38.6-2.2 2.2-4.9 4.6-8.2 7 1 1 2 2.3 2.7 3.9zM238.1 430.5c-1 .7-2.1 1.3-3.2 1.8 8.3 2.5 16.8 4.2 25.4 5.2-5.2-6.6-10-12.7-13.2-16.7-2 3.2-5 7-9 9.7zM315.3 190.4L279 223.6c5.3-2.9 10.5-4.4 15.4-4.5 6.1-1.3 43.3-8.6 56.9 3.8l.4.4c.4.5 1.8 2.4 1.3 5.4-.2 1.3-.7 2.5-1.5 3.8 11.1-2.2 28-3.1 36.3 8.2 1 1.1 3.5 3.9 3.2 8 0 .3-.1.6-.1 1 9.9-7.1 16.8-13.4 19-17.4-3.4-7.5-7.4-14.8-12.2-21.8-14.9-22-34.8-38.7-57.2-49.6-4.8 12.5-21 26.1-25.2 29.5z"/><path class="st1" d="M390.5 259.8c-1.8 1.2-3.2 2.1-3.9 2.6-.2.1-.4.3-.6.4-3 2-23.7 10.8-30 13.4l-.5.2-28.4 4.1 21.9-17.8.5-.2c9.8-4.2 24.6-8.7 26.7-9.3 3.9-1.7 6.4-3.8 6.4-5.1 0-.8-.8-1.7-.8-1.7l-.4-.3-.3-.4c-7.4-10.6-29.5-5.7-37.6-2.8-1.3.6-2.5 1.3-3.5 2-2.5 1.7-3.3 3.1-3.5 3.5l-.6 3.1-3.1-.2c-1.7.1-3.2-.6-4.3-1.9-1.5-2-1.7-5.1-.4-9.4l.4-1.4 1.2-.8c.7-.5 6.3-3.9 8-4.9l.3-.2c1.4-.7 2.6-1.4 3.6-2.1 1.7-1.2 2.5-2 2.9-2.5-10.3-7.2-38.5-3.1-48.9-.8l-.4.1h-.5c-5.8 0-11.5 3-15.4 5.6-3.9 2.6-6.5 5.3-6.6 5.3-1.8 2.3-15.9 22.4-24.7 35-5 9.3-16.2 19.9-33.6 31.6-9.2 6.2-16.7 10.4-17.8 11-.6.4-1.2.8-1.7 1.1-3.2 2.2-4.7 3.7-5.4 4.6l.3.3-.4 1.6c1.6 1.9 8.9 5.5 16 7.8l.2.1c17.2 6.6 17.8 16 17.2 19.8.1.5.1 1.1 0 1.7-.3 2.3-1.8 5.6-14.9 14.4-3.4 2.3-6.1 4-6.3 4.1l-.2.1c-1.1.7-1.8 1.3-2.3 1.8 4.6.1 15.8-2.5 26.3-6.4l8.2-3-2.9 8.2c-9.8 27.7-18.1 41-23.2 47.3l18.5 6.9c2.5-.2 5-1 7.2-2.5 6.1-4.1 8.8-11.7 8.9-11.8l2.4-6.9 4.6 5.6c.1.2 10.9 13.5 21.9 27.6 12.2.5 24.6-.6 36.7-3.3-.1-1.4-.2-2.8-.4-4l-.9-5.3 5.4.6c-.1 0 1-.1 3.6-1.9 5-3.4 10.9-9.5 12.1-10.7 2.5-3.3 12.1-10.8 49.5-36.2l4.2-2.8 1.1-.1c3.6-.3 11.7-1.4 16.3-2.1 7.6-11.6 13.5-24.2 17.5-37.3-2.3-6.2-5.1-14.2-8.6-24.7-1.4-1.9-1.2-5.4 1.6-13.4l.1-.3c.1-.3.1-.3 0-.5-.5-1.2-3-2.7-4.2-3.2l-7.7-3.2 7.2-4.2c1.2-.7 2.3-1.4 3.4-2.2 7.4-5 11.8-10.5 13.2-12.4-1.5-10.3-4.1-20.5-7.8-30.4-5.4 6.7-14.8 13.7-22.8 19.1zm-106.1 18.4s.3 0 .9-.5c2.2-1.5 5.8-5.6 8.1-8.7.4-.6.5-.6.7-.8l1.2-.8 1 1c.7.8.4 1.6.1 2.1l-.1.2c-.1.1-.1.1-.1.2-1.7 2.2-1.6 8.6-1.1 12.1l.3 2.7-11.9-4.5 1.3-3h-.4zm-43.2 41.6l-3-1 2.6-1.9c4.9-3.5 9.3-7.5 10-8.9-.5-1.3.4-2 .6-2.1 1.5-1 1.6-.9 8.5 8l1.1 1.4-1.9 1.2c-2.6 1.8-4.1 3.2-4.7 3.9.2.3.5.6.5 1.1v.9l-.8.5c-.7.6-1 .8-12.9-3.1zm12.5 75l5-7.2c.1-.1 6.2-9.1 12.5-29 3.2-10.2 4.8-21.9 4.8-22l3.3.2s.3 3.4 5.7 10.1c3.3 4.2 5.4 5.2 6.6 5.9 1.8 1 2.5 1.8 2.2 4.5-1.6 11.3-29.5 30.5-32.7 32.6l-7.4 4.9zm31.3 8.4l-.1.8-.7.4c-.6.4-.8.6-2.1-.3-1.3-.8-3.6-2.7-8.2-6.3l-2.7-2.1 3.3-.7s2.9-.7 7.4-3.7c4.8-3.3 9.6-7.9 14.2-13.8l1.4-1.8 6.3 9.3-1.1 1c-7.8 6.7-16.2 14.6-17.8 16.9.1 0 .1.1.1.3zm15.2 19.3l-8.6-9.3 20.2-17.3 5.7 8.5-17.3 18.1zm27-96.2c-.2.6-.6 1.1-1.1 1.4l-1.9 2.3-.1-2.6-.1-.1c-.7-.7-.5-1.5-.1-2.1-.9-2.2-6.3-8.5-11.2-13.6l-6.3-6.5 8.2 3.9c2.1 1 12.7-.6 19-1.5 9.5-1.4 11-1.6 11.7.1.1.3.4 1.4-.9 2.3l-.4.3c-3.7 2.5-14 12.8-16.8 16.1zm1.8 19.3l29.4-23.3 4.3 11.9-19.1 15.1-14.6-3.7zm25.6 25.9l-3.8-9.4 17.7-13.2 2.6 9-16.5 13.6z"/><path class="st1" d="M271.3 438.3c1.9 2.4 3.8 4.9 5.6 7.3 10.6 13.8 24.2 7.6 24.7 7.3l.5-.3.6-.1c.6-.1 1.2-.3 1.7-.6 3.3-2.2 4-10.3 3.6-16.8-12.1 2.6-24.5 3.7-36.7 3.2zM413.6 240.9c3.7 10 6.3 20.2 7.8 30.5v-.1c1.2-7.6-3.8-21.4-7.8-30.4zM401.6 372.2c4.7-1.7 8.7-3.7 12.1-6 7.5-5.1 9.6-10.1 10.2-12.2-1.3-2.4-3.5-7.5-7.6-18.7-4 13.1-9.9 25.7-17.5 37.3 1.3-.2 2.3-.3 2.8-.4z"/><path class="st2" d="M294.7 270c.4-.5.5-.5 0 0zM325.5 326.2c.2-.1.2-.3.2-.5-.5.5-.6.7-.2.5z"/><path class="st1" d="M255.7 153.9c-19 12.9-96.9 82.4-109.7 108.9-.6 1.3-6.6 10-11.5 17.1l-3.9 5.6c-.2 4.7-.2 9.5 0 14.2 10.3 6.6 30.9 9.6 39.8 7.3 3.4-.9 8.8-3.5 13.4-6.7 3.2-2.2 5.8-4.4 7.1-6.1 1.8-2.4 3.8-7.9 5.5-12.8 1.3-3.7 2.6-7.3 3.9-9.7 15.5-30 58.3-78.2 84.9-95.1 2.4-1.5 8.1-2.8 10.5-3.3l7-1.5-9.3 27.2 16.5-15.1c8.8-7.1 20.4-19 23.1-26.7-18.1-7.6-37.5-11.4-57.1-11.4-8.2 2.1-15.4 4.7-19.4 7.2-.1.5-.4.7-.8.9z"/><path class="st1" d="M333.2 157.5c.6-1.7.8-3.2.4-4.4-1.5-4.7-15.2-12.1-21.1-12.4-8.4-.3-23.5 2-36.4 5.4 19.6-.1 39 3.8 57.1 11.4zM130.7 285.7l-2.4 3.4-.9-8.4c-1.9 7.6-2.4 13.6-1.2 15.2 1.1 1.4 2.6 2.7 4.5 3.9-.3-4.7-.3-9.4 0-14.1z"/><path class="st1" d="M498.7 209.2L385.4 74.9c-75.1-89-208.6-100.3-297.5-25.2l-13 11c-89 75.1-100.3 208.6-25.2 297.5L163 492.5c36.4 43.1 87.4 69.4 143.5 74.2 6.1.5 12.1.8 18.1.8 49.7 0 97.4-17.4 135.8-49.8l13-11c43.1-36.4 69.4-87.4 74.2-143.5s-12.5-111-48.9-154zm-27.1 6.6c-5 4-9.9 8.3-14.6 12.7-4.7 4.5-9.2 9.1-13.3 14.3-1.5-5.1-3.2-10.1-5.2-15 3.9-2.2 7.7-4.5 11.4-7 5.5-3.7 10.8-7.6 15.9-11.7l5.8 6.7zM309 458.7c-1.3.9-2.8 1.5-4.4 1.8-7.2 3.2-22.9 4.9-34.2-10-3.3-4.4-6.8-8.8-10.2-13.1-8.6-1-17.1-2.7-25.4-5.2-2.8 1.3-5.9 2.1-9.1 2.2h-.8L191.3 422l7-4.4s.4-.3 1.2-1.1c-16.9-10.5-32-24.7-43.9-42.2-13.6-20-21.5-42.2-24.1-64.7-5-2.3-9.2-5.2-11.9-8.8-6.3-8.4 2.9-33.7 5.9-41.3l6.1-15.5 2 18.3c7.5-35.9 28.4-69 61.1-91.1 16.9-11.4 35.3-18.9 54.2-22.5.8-.6 1.6-1.1 2.2-1.6.4-.3.8-.5 1.1-.7 11.9-7.5 45.2-14.4 60.5-13.9 7.6.3 25.6 8.8 28.6 18 1 3.2.6 6.7-.8 10.3 22.3 10.8 42.2 27.5 57.2 49.6 4.8 7 8.8 14.3 12.2 21.8.2-.4.4-.7.5-1l3.3-8.6 4.2 8.2c1.5 2.9 14.5 29 11.4 43.1l-.2.7-.4.6c-.1.2-2.2 3.3-6.2 7.3.9 12.9 0 25.9-2.5 38.6 5 14.3 9.8 27.1 11.2 29.4l1.2 1.1-.1 1.9c-.1 1.1-1 10.7-14 19.5-4 2.7-8.8 5.1-14.3 7.1l-.8.2c-.4.1-5.7.9-11 1.6-9.2 11.9-20.5 22.6-33.6 31.5-12.6 8.6-26.1 14.9-40 19-.9.5-1.7.9-2.5 1.3.6 6.6.6 19.8-7.1 25zm146.2-262.3l5.7 6.8c-5.1 4.1-10 8.4-14.8 12.9-3 2.9-6 5.9-8.8 9-1.7-4.1-3.6-8.1-5.6-12.1 2.5-1.5 4.9-3 7.3-4.6 5.6-3.8 11-7.8 16.2-12zm-10.6-12.6l5.7 6.8c-5.2 4.1-10.2 8.5-15 13-1.9 1.8-3.7 3.7-5.6 5.6-1.9-3.5-3.9-6.9-6.1-10.3 1.5-1 3.1-2 4.6-3 5.5-3.7 10.9-7.7 16.1-11.9.1-.1.2-.1.3-.2zm-10.7-12.6l5.7 6.8s-.1 0-.1.1c-5.2 4.2-10.2 8.5-15.1 13.1-1.2 1.1-2.4 2.3-3.6 3.5-2.1-3.2-4.4-6.2-6.7-9.2 1.1-.7 2.1-1.4 3.1-2 5.5-3.7 10.9-7.7 16.1-11.9.3-.1.5-.3.6-.4zm-10.6-12.6l5.7 6.8c-.1.1-.2.2-.3.2-5.2 4.2-10.2 8.5-15.1 13.1-.9.9-1.8 1.7-2.7 2.6-2.4-2.9-4.9-5.7-7.4-8.4 1-.6 2-1.3 3-2 5.5-3.7 10.9-7.7 16.1-11.9.3 0 .5-.2.7-.4zM412.7 146l5.7 6.8c-.2.1-.3.3-.5.4-5.2 4.2-10.2 8.5-15.1 13.1-1 .9-1.9 1.9-2.9 2.8-2.7-2.7-5.5-5.3-8.4-7.9l4.2-2.7c5.5-3.7 10.9-7.7 16.1-11.9.3-.1.6-.4.9-.6zM402 133.4l5.7 6.8c-.2.2-.5.4-.7.5-5.2 4.2-10.2 8.5-15.1 13.1l-4.2 4.2c-3.2-2.6-6.4-5.1-9.8-7.5 2.4-1.4 4.7-2.9 6.9-4.4 5.5-3.7 10.9-7.7 16.1-11.9.4-.2.8-.5 1.1-.8zm-10.6-12.6l5.7 6.8c-.3.2-.6.5-.9.7-5.2 4.2-10.2 8.5-15.1 13.1-2.3 2.2-4.5 4.4-6.7 6.7-3.9-2.6-7.9-5.1-11.9-7.4 4-2.2 7.8-4.6 11.5-7 5.5-3.7 10.9-7.7 16.1-11.9.5-.3.9-.7 1.3-1zm-318.6 226c3.7-3.1 7.3-6.3 10.8-9.6 4.8-4.6 9.5-9.4 13.7-14.8-6.2 2.9-11.9 6.5-17.5 10.2-4.1 2.7-8 5.6-11.9 8.5-1.9-2.3-3.8-4.7-5.6-7 3.5-3 7-6.1 10.4-9.3 4.8-4.6 9.5-9.4 13.7-14.8-6.2 2.9-11.9 6.5-17.5 10.2-3.8 2.5-7.4 5.2-11 7.9-1.7-2.5-3.4-5-5-7.6 3-2.6 6-5.3 8.9-8 4.8-4.6 9.5-9.4 13.7-14.8-6.2 2.9-11.9 6.5-17.5 10.2-3.1 2-6 4.2-9 6.4-1.6-2.7-3.1-5.5-4.5-8.3 2.2-1.9 4.3-3.8 6.4-5.8 4.8-4.6 9.5-9.4 13.7-14.8-6.2 2.9-11.9 6.5-17.5 10.2-1.9 1.3-3.8 2.6-5.7 4-1.4-3.1-2.7-6.2-4-9.3.9-.8 1.7-1.6 2.6-2.4 4.8-4.6 9.5-9.4 13.7-14.8-6.2 2.9-11.9 6.5-17.5 10.2-.4.3-.8.6-1.2.8-1.3-3.6-2.4-7.3-3.5-11 4-3.9 7.8-8 11.3-12.4-4.4 2.1-8.6 4.5-12.7 7.1-1.1-4.6-2.1-9.2-2.9-13.9 1.6-1.8 3.2-3.7 4.8-5.6-1.8.8-3.5 1.8-5.2 2.7-2.2-14.4-2.7-29.2-1.5-44C29.8 156.8 53 111.9 91 79.8l13-11c33.9-28.6 75.9-43.9 119.7-43.9 5.3 0 10.6.2 16 .7 7.4.6 14.7 1.7 21.8 3.1-.9 1-1.7 2-2.5 3.1 1.7-.8 3.4-1.7 5.1-2.6 5.3 1.1 10.4 2.5 15.5 4.1-3.4 3.4-6.7 7-9.7 10.9 5.5-2.6 10.7-5.7 15.7-9 3.8 1.3 7.6 2.8 11.3 4.3-.8.7-1.6 1.5-2.4 2.2-4.8 4.6-9.5 9.4-13.7 14.8 6.2-2.9 11.9-6.4 17.5-10.1 1.9-1.3 3.7-2.5 5.5-3.8 3.1 1.5 6.2 3 9.2 4.7-2.6 2.2-5.1 4.6-7.6 6.9-4.8 4.6-9.5 9.4-13.7 14.8 6.2-2.9 11.9-6.4 17.5-10.1 3.7-2.5 7.2-5 10.7-7.7 2.7 1.6 5.4 3.3 8 5.1-4 3.3-7.9 6.8-11.7 10.3-4.8 4.6-9.5 9.4-13.7 14.8 6.2-2.9 11.9-6.4 17.5-10.1 4.9-3.3 9.7-6.8 14.4-10.5 2.4 1.8 4.9 3.7 7.2 5.6-5 4-9.8 8.2-14.5 12.6-4.8 4.6-9.5 9.4-13.7 14.8 6.2-2.9 11.9-6.4 17.5-10.1 5.5-3.7 10.9-7.7 16.1-11.9.2-.1.4-.3.5-.4 2.2 2 4.4 4 6.6 6.1-.3.3-.7.5-1 .8-5.2 4.2-10.2 8.5-15.1 13.1-4.8 4.6-9.5 9.4-13.7 14.8 6.2-2.9 11.9-6.4 17.5-10.1 5.5-3.7 10.9-7.7 16.1-11.9.5-.4 1.1-.9 1.6-1.3l6 6.6-1.5 1.2c-5.2 4.2-10.2 8.5-15.1 13.1-4.8 4.6-9.5 9.4-13.7 14.8 6.2-2.9 11.9-6.4 17.5-10.1 5.5-3.7 10.9-7.7 16.1-11.9.6-.4 1.1-.9 1.6-1.4l5.7 6.8c-.4.3-.9.7-1.3 1-5.2 4.2-10.2 8.5-15.1 13.1-4.8 4.6-9.5 9.4-13.7 14.8 6.2-2.9 11.9-6.4 17.5-10.1 5.5-3.7 10.9-7.7 16.1-11.9.5-.4 1-.8 1.4-1.2l5.7 6.8c-.4.3-.7.6-1.1.9-5.2 4.2-10.2 8.5-15.1 13.1-3.5 3.3-6.9 6.8-10.1 10.4-55.4-30.2-125.3-29.2-181.1 8.6-62.4 42.2-88.7 117.8-71.3 186.9-6 2.9-11.6 6.3-17.1 10-4.1 2.8-8.2 5.7-12.1 8.7l-6-6.3zm10.7 12.6c3.8-3.1 7.4-6.4 11-9.8 4.7-4.5 9.3-9.2 13.4-14.4 1.3 5.2 2.9 10.3 4.7 15.4-3.8 2.1-7.4 4.4-11 6.8-4.2 2.8-8.3 5.8-12.3 8.9l-5.8-6.9zM94.1 372c3.8-3.2 7.6-6.5 11.2-10 2.9-2.7 5.6-5.5 8.3-8.5 1.5 4.1 3.3 8.2 5.1 12.2-2.1 1.3-4.3 2.7-6.4 4.1-4.3 2.9-8.4 5.9-12.5 9l-5.7-6.8zm10.7 12.6c3.9-3.2 7.7-6.6 11.4-10.1 1.6-1.5 3.1-3 4.6-4.6 1.7 3.5 3.6 6.9 5.6 10.3-1 .7-2.1 1.3-3.1 2-4.4 2.9-8.6 6-12.7 9.2l-5.8-6.8zm10.6 12.6c4-3.3 7.8-6.7 11.6-10.3.7-.7 1.4-1.4 2.2-2.1l3.3 5.1c.9 1.4 1.9 2.7 2.8 4-.4.3-.8.5-1.2.8-4.4 3-8.7 6.1-12.9 9.3l-5.8-6.8zm10.6 12.6c4-3.3 8-6.8 11.8-10.4.3-.3.6-.6.9-.8 2.2 2.8 4.4 5.6 6.8 8.3-.2.1-.4.2-.5.3-4.5 3-8.9 6.2-13.1 9.5l-5.9-6.9zm10.7 12.6c4.1-3.4 8.1-6.9 12-10.6l.7-.7c2.5 2.6 5 5.2 7.6 7.7-.4.3-.8.5-1.2.8-4.6 3.1-9 6.3-13.3 9.7l-5.8-6.9zm10.6 12.6c4.2-3.5 8.3-7 12.2-10.8.6-.5 1.1-1.1 1.6-1.6 2.8 2.5 5.8 4.9 8.7 7.2l-3.3 2.1c-4.6 3.1-9.1 6.4-13.5 9.8l-5.7-6.7zm10.6 12.6c4.2-3.5 8.4-7.1 12.4-10.9 1.3-1.2 2.5-2.4 3.7-3.6 3.4 2.5 6.8 4.8 10.3 7-2.4 1.4-4.7 2.9-7 4.4-4.7 3.2-9.3 6.5-13.7 10l-5.7-6.9zm10.7 12.6c4.3-3.6 8.5-7.2 12.6-11.1 2.3-2.2 4.6-4.5 6.9-6.9 4.2 2.5 8.5 4.8 12.9 6.9-4.4 2.4-8.6 5-12.7 7.7-4.8 3.2-9.4 6.6-13.9 10.1l-5.8-6.7zm288.8 27.3l-13 11c-34.9 29.4-77.5 43.8-119.9 43.8-15.3 0-30.5-1.9-45.3-5.6.8-1 1.6-1.9 2.4-2.9-1.6.8-3.1 1.5-4.7 2.4-5.1-1.3-10.2-2.9-15.2-4.7 3.1-3.2 6.2-6.5 9-10.1-5.1 2.4-9.8 5.2-14.4 8.1-3.8-1.5-7.5-3.1-11.2-4.8.3-.3.7-.6 1-.9 4.8-4.6 9.5-9.4 13.7-14.8-6.2 2.9-11.9 6.5-17.5 10.2-1.2.8-2.4 1.6-3.6 2.5-3.1-1.6-6.1-3.3-9.2-5.1 1.9-1.7 3.8-3.4 5.7-5.2 4.8-4.6 9.5-9.4 13.7-14.8-6.2 2.9-11.9 6.5-17.5 10.2-2.8 1.9-5.6 3.9-8.4 5.9-2.7-1.7-5.3-3.5-7.9-5.4 3.1-2.7 6.2-5.4 9.2-8.2 4.8-4.6 9.5-9.4 13.7-14.8-6.2 2.9-11.9 6.5-17.5 10.2-3.9 2.7-7.8 5.4-11.6 8.3-2.4-1.9-4.7-3.8-7-5.9 3.9-3.3 7.8-6.7 11.5-10.2 4.8-4.6 9.5-9.4 13.7-14.8-6.2 2.9-11.9 6.5-17.5 10.2-4.6 3.1-9.1 6.4-13.4 9.8-2.2-2-4.3-4.2-6.4-6.3 4.4-3.6 8.6-7.3 12.7-11.2 4.8-4.6 9.5-9.4 13.7-14.8-6.2 2.9-11.9 6.5-17.5 10.2-4.8 3.3-9.5 6.7-14.1 10.3-.9-1.1-1.9-2.2-2.8-3.3l-3-3.5c4.4-3.6 8.7-7.3 12.8-11.3 3.8-3.6 7.5-7.4 11-11.5 53.7 25 118.7 22 171.3-13.6 64.4-43.6 90.3-122.6 69.5-193.4 6-2.9 11.6-6.3 17-9.9 5.4-3.6 10.7-7.5 15.7-11.6l3.1 3.7c.9 1 1.7 2.1 2.6 3.1-4.9 4-9.7 8.1-14.3 12.5-4.8 4.6-9.5 9.4-13.7 14.8 6.2-2.9 11.9-6.4 17.5-10.1 5.2-3.5 10.3-7.3 15.2-11.2 1.8 2.4 3.5 4.8 5.1 7.3-4.6 3.7-9 7.6-13.3 11.7-4.8 4.6-9.5 9.4-13.7 14.8 6.2-2.9 11.9-6.4 17.5-10.1 4.7-3.1 9.2-6.5 13.7-9.9 1.6 2.6 3.1 5.2 4.5 7.8-3.8 3.2-7.5 6.5-11.1 9.9-4.8 4.6-9.5 9.4-13.7 14.8 6.2-2.9 11.9-6.4 17.5-10.1 3.7-2.5 7.3-5.1 10.9-7.8 1.4 2.8 2.7 5.7 4 8.5-2.6 2.3-5.2 4.6-7.7 7-4.8 4.6-9.5 9.4-13.7 14.8 6.2-2.9 11.9-6.4 17.5-10.1 2.3-1.6 4.6-3.2 6.8-4.8 1.2 3.2 2.4 6.4 3.4 9.6-1.1 1-2.1 1.9-3.2 2.9-4.8 4.6-9.5 9.4-13.7 14.8 6.2-2.9 11.9-6.4 17.5-10.1.5-.3.9-.7 1.4-1 1.1 3.8 2 7.6 2.8 11.5-3.8 3.8-7.5 7.7-10.9 12.1 4.2-2 8.1-4.2 12-6.6.9 5 1.6 10 2.1 15.1-1.1 1.3-2.2 2.6-3.3 4 1.2-.6 2.4-1.2 3.5-1.8 5.4 57.9-16.9 117.8-65 158.4z"/></svg>
