<svg xmlns="http://www.w3.org/2000/svg" viewBox="-2 -202 715 1008"><path fill="currentColor" d="M463 114l-2 2c21 1 42 9 58 25l168 168c16 16 25 37 25 58s-9 43-25 59c-7 8-17 14-29 19-56 27-94 60-115 102-27 56-41 121-41 199 0 48-34 83-84 83-25 0-45-8-60-24L223 669-2 829l160-225L22 469c-21-20-32-56-17-91 15-36 41-53 79-53 79 0 146-11 198-40l9-5c38-21 70-59 95-114 4-11 10-21 17-28 16-16 37-24 60-24zm-46 633l1 1c0-91 18-169 52-236 29-59 81-106 157-141L462 200c-38 79-85 132-143 161l-11 5c-64 31-139 45-226 45z"/></svg>
