<svg xmlns="http://www.w3.org/2000/svg" viewBox="0 0 82.16 76.71"><path d="M80.62 32.69h-4.35C73.48 14.3 57.33 0 38.35 0 17.21 0 0 17.21 0 38.35S17.21 76.7 38.35 76.7c14.02 0 26.91-7.64 33.64-19.94.79-1.45.26-3.28-1.19-4.07-1.45-.8-3.28-.26-4.07 1.19A32.35 32.35 0 0 1 38.35 70.7C20.51 70.71 6 56.2 6 38.35S20.51 6 38.35 6c15.7 0 29.12 11.61 31.84 26.69h-3.76c-1.28 0-2 1.48-1.22 2.49l3.18 4.08 3.91 5.01c.62.79 1.81.79 2.43 0l3.91-5.01 3.18-4.08c.8-1.02.08-2.49-1.2-2.49z"/><path d="M38.35 9.55c-1.66 0-3 1.34-3 3v21.74a6.003 6.003 0 0 0-2.63 4.97c0 3.32 2.7 6.02 6.02 6.02 1.26 0 2.42-.39 3.39-1.05l12.04 7.63c.5.32 1.05.47 1.6.47.99 0 1.97-.49 2.54-1.39.89-1.4.47-3.25-.93-4.14l-12.65-8.01c-.17-2.17-1.51-4.02-3.38-4.93v-21.3c0-1.67-1.34-3.01-3-3.01zm.39 32.72c-1.66 0-3.02-1.35-3.02-3.02s1.35-3.02 3.02-3.02 3.02 1.35 3.02 3.02-1.35 3.02-3.02 3.02z"/></svg>
