<svg xmlns="http://www.w3.org/2000/svg" viewBox="0 -144 1008 1008"><path fill="currentColor" d="M556 151l54 68h88c-63-75-99-118-108-128s-20-15-33-15H454c-13 0-24 5-33 16L315 219h86l54-68h101zm67-123l43 48h-1c63 11 116 29 159 54s65 49 65 72v9c0 26-17 50-51 72s-81 39-140 52-123 19-192 19-133-6-192-19-105-30-139-52-51-46-51-72v-9c0-23 22-47 65-72s96-43 159-54l43-48c8-11 17-19 27-23s24-6 43-6h92c19 0 33 2 43 6s19 12 27 23zM226 908l-55-550h2c41 23 91 40 150 52s115 18 167 18 98-2 138-7c86-11 157-32 212-63l-56 550c-1 6-9 14-23 25s-33 22-56 33-53 21-89 29-73 12-111 12-75-4-111-12-66-18-89-29-42-22-56-33-22-19-23-25z"/></svg>
