<svg xmlns="http://www.w3.org/2000/svg" viewBox="0 0 26.9 19.6" overflow="scroll"><style>.st0{fill:#040000}</style><ellipse class="st0" cx="13.5" cy="3.8" rx="7.9" ry="3.8"/><path class="st0" d="M24.5 2.7c-.6.1-1.2.3-1.8.5-.3.1-.5.2-.7.3-.4.2-.6.2-.3.6.2.5-.1 1.1-.4 1.5-.8 1-1.9 1.7-3.1 2.1-1.9.6-4.1 1-6.1.8-1.4-.2-2.9-.4-4.2-1-1.7-.7-2.8-1.9-2.6-3.8-1.2-.5-2.6-1.2-3.8-1.1 0 0-1.6 0-1.5 2.6 0 0 .3 9.4 6.7 12.7 0 0 6 3.8 13 .2 0 0 7.4-3.4 7.1-14 0-1.4-1.2-1.6-2.3-1.4zM2 3.5s.9 6.7 9.9 6.4c0 0-9.4 1.9-9.9-6.4zm22.8 2.2c-.3.3-.7.6-1.1.9-4.3 3-10.1 3.7-15.1 2.5-.5-.1-1.1-.1-1.4-.4-.4-.4 0-.3.4-.2.4.1.8.1 1.2.2 1.7.3 3.5.5 5.2.5 4-.1 8.8-1 11.1-4.6.2-.3.3-.5.4-.8 0-.2 0-.5-.1-.6.6.7.1 1.8-.6 2.5z"/></svg>
