<svg xmlns="http://www.w3.org/2000/svg" viewBox="0 0 349.2 344.8"><path d="M286.1 55.9v-22h-39.5l39.5 22zM241.4 165c29.9 22.7 37.7 63.5 19.9 95.3l83.5 60.2c12.5 9-4.7 31.5-16.7 22L247.6 278c-25.9 24.6-66.6 27.6-96 5.2-32.7-24.8-39-71.4-14.2-104 24.8-32.6 71.4-39 104-14.2zm-12.2 16.2c-23.7-18-57.6-13.4-75.6 10.3-18 23.7-13.4 57.6 10.3 75.6 23.7 18 57.6 13.4 75.6-10.3 18-23.8 13.4-57.6-10.3-75.6zm12.3-154.5H291V13.5h-49.5v13.2zM5.3 90.4L167.4 0l162.1 90.4H5.3zM54 277.3c1.4 0 2.6 1.1 2.6 2.5s-1.1 2.5-2.6 2.5c-1.4 0-2.6-1.1-2.6-2.5s1.2-2.5 2.6-2.5zm-6.2-39.9v86.3H86v-86.3H47.8zm2.6 47.1h33.1v-44.6H50.4v44.6zm33 2.9v33.7h-33v-33.7h33zm212.8-134.3v28.5l24 13.8V100H14.6v98.5h105.2c3.5-10.6 9.4-20.6 17-28.8v-18.2h24.3c7.9-3.8 16.3-6.3 24.9-7.4h-15.1v-35.8H198v35.1h.6c12.2.4 23.7 3.2 34.5 8.7h.2l.2.1h.2l.3.1.7.4H262v17.5l7.1-4.1v-13.4h27.1v.4zm-61.2-7.4h27v-35.8h-27v35.8zm34.1-35.8v35.8h27.1v-35.8h-27.1zm-196.3 0h27.1v35.8H72.8v-35.8zm27 43.2V189h-27v-35.9h27zM65.7 189H38.6v-35.9h27.1V189zm-27.1-43.3v-35.8h27.1v35.8H38.6zm98.2-1.8h27.1v-35.8h-27.1v35.8zm-92.2 89.5v94.4h44.5v-94.4H44.6zm-15.4 96.2h75.4v5.4H29.2v-5.4zm125.1-36.4c-2.4-1.5-4.8-3.1-7.1-4.9V315h-27.1v-36H137c-2.2-2.3-4.1-4.8-6-7.3l-.1-.1h-10.8v-20.7c-2.5-7.1-3.9-14.5-4.4-22l-101.2.1v115.8H27v-5.1h79.8v5.1h89.4V305h-.2c-5-.1-9.7-.5-14.6-1.4V315h-27.1v-21.8zm104.7 2.5v21.6h-37.6v-16.1l-.2.1-.2.1-.2.1-.9.3-.5.2-1.2.3-.4.1-.2.1c-3.6.9-7.2 1.7-10.9 2.1h-.1V345h113.9L286 317.2h-5.8v-4.7L259 295.7zm21.1-50.1h37.6v47.2l14.9 10.7v-74.9l-55.4.1-.1 1.2c-.7 9.8-3.2 19.5-7.3 28.5l10.3 7.4v-20.2zm-16.8-67.1l.3.5c8.3 12.5 13 26.7 13.7 41.8h71.9l-79.7-45.9-6.2 3.6zm-147.6 42.2c.2-4.5.8-9 1.7-13.5v-.2h-107L0 220.7h115.7z" fill-rule="evenodd" clip-rule="evenodd" fill="#505050"/></svg>
