<svg xmlns="http://www.w3.org/2000/svg" viewBox="0 0 2546.3 2352" overflow="scroll"><style>.st0{fill:#040000}</style><path class="st0" d="M1396.9 945.4c-22.4 0-40.3 8.6-53.5 25.8-13.3 17.2-19.9 40.7-19.9 70.6 0 27.5 6.2 49.1 18.7 65 12.5 15.9 29.4 23.8 50.9 23.8 20.8 0 37.8-7.9 51-23.6 13.2-15.7 19.8-35.6 19.8-59.5v-32c0-19.9-6.4-36.5-19.3-50-12.8-13.4-28.7-20.1-47.7-20.1zM1083.2 945.4c-22.4 0-40.3 8.6-53.5 25.8-13.3 17.2-19.9 40.7-19.9 70.6 0 27.5 6.2 49.1 18.7 65 12.5 15.9 29.4 23.8 50.9 23.8 20.8 0 37.8-7.9 51-23.6 13.2-15.7 19.8-35.6 19.8-59.5v-32c0-19.9-6.4-36.5-19.3-50-12.9-13.4-28.8-20.1-47.7-20.1zM799.6 942.8c-16.9 0-31.6 6.4-44 19.1-12.5 12.7-20.2 29.6-23.2 50.5H858c-.2-22.4-5.3-39.6-15.4-51.6-10.1-12-24.4-18-43-18z"/><path class="st0" d="M2175.7 78.3S1716.4-188.1 1257 262c0 0-284.8-395-854.4-202.1 0 0-523.6 183.7-376.7 881.9 0 0 55.1 303.2 422.6 633.9 0 0 725.8 716.6 813 776.3l367.5-339.9s546.6-491.5 693.6-702.8c147.1-211.3 487-836-146.9-1231zM559 1168.9h-64.9l-70.3-256.7c-3.3-12.2-5.3-25-5.9-38.6h-.9c-1.3 14.4-3.5 27.2-6.6 38.4L339 1168.9h-65.8L169.5 802.2H232l68.7 268.3c3 11.8 4.9 24.8 5.7 38.8h1.7c.6-10.4 3.2-23.5 7.6-39.3l76-267.8h57.8l71.5 270.4c2.5 9.8 4.6 21.9 6.2 36.2h.9c.6-11.7 2.8-24.1 6.4-37.4l66.3-269.2h59.4L559 1168.9zm353-116H732.1c2.4 52.9 29.3 79.3 80.7 79.3 29 0 55.5-8.7 79.3-26v45.9c-23.4 15.3-54.1 23-92.1 23-38.8 0-69.2-11.8-91.2-35.5-21.9-23.7-32.9-56.8-32.9-99.4 0-40.4 11.8-73.7 35.4-99.9 23.6-26.2 53.2-39.3 88.7-39.3 35.4 0 62.9 11.2 82.5 33.5 19.7 22.3 29.5 53.1 29.5 92.2v26.2zm293.1 116h-55.4v-41.4h-1.2c-18.9 31.7-47.8 47.6-86.7 47.6-33.1 0-59.5-11.8-79.2-35.4-19.7-23.6-29.5-55.4-29.5-95.5 0-43.4 11-78.1 33.1-104.2 22.1-26 50.9-39.1 86.4-39.1s60.8 13.4 75.8 40.3h1.2V781.3h55.4v387.6zm313.7 0h-55.4v-41.4h-1.2c-18.9 31.7-47.8 47.6-86.7 47.6-33.1 0-59.5-11.8-79.2-35.4-19.7-23.6-29.5-55.4-29.5-95.5 0-43.4 11-78.1 33.1-104.2 22.1-26 50.9-39.1 86.4-39.1s60.8 13.4 75.8 40.3h1.2V781.3h55.4v387.6zm133.8 0H1597V907.1h55.6v261.8zm-2.8-328.7c-6.6 6.1-14.8 9.1-24.4 9.1-9.6 0-17.7-3.1-24.2-9.2-6.5-6.2-9.7-13.8-9.7-23 0-9.3 3.2-17 9.6-23.1 6.4-6.1 14.5-9.1 24.3-9.1 9.6 0 17.8 3 24.4 9.1 6.6 6.1 9.9 13.8 9.9 23.1s-3.3 17-9.9 23.1zm311.1 328.7h-55.4v-148c0-50.3-18.3-75.5-54.9-75.5-18.5 0-33.7 7-45.8 21-12.1 14-18.1 31.7-18.1 53.2V1169H1731V907.1h55.6V950h1.2c19.4-32.7 47.8-49 85.2-49 58.6 0 87.8 36 87.8 108v159.9zm309-24.1c0 98.2-49.1 147.3-147.3 147.3-33.3 0-61.6-5.7-84.8-17V1224c28.7 16.1 56.6 24.1 83.6 24.1 61.9 0 92.8-31.6 92.8-94.9v-26h-.9c-19.3 32-48.2 48.1-86.9 48.1-32.8 0-59.2-11.7-79-35.2-19.8-23.4-29.7-54.7-29.7-93.9 0-44.2 10.9-79.4 32.6-105.7 21.7-26.3 50.6-39.4 86.8-39.4 34.2 0 59.7 13.5 76.2 40.5h.9v-34.3h55.6v237.5z"/><path class="st0" d="M2148.2 945.4c-22.9 0-40.9 8.6-54.1 25.9-13.2 17.3-19.8 41.2-19.8 71.9 0 26.5 6.3 47.7 18.9 63.6 12.6 15.9 29.3 23.8 50 23.8 21 0 38.2-7.8 51.5-23.4 13.3-15.6 20-35.4 20-59.2v-32.4c0-19.4-6.4-35.9-19.2-49.6-12.8-13.7-28.5-20.6-47.3-20.6z"/></svg>
