<svg xmlns="http://www.w3.org/2000/svg" viewBox="0 0 28.78 22.21" overflow="visible"><style>.st0{fill:#c3a240}</style><path class="st0" d="M14.44 13.89c-.81 0-1.57-.31-2.14-.89L.15.85c-.2-.2-.2-.51 0-.71s.51-.2.71 0L13.01 12.3c.76.76 2.1.76 2.86 0L27.93.24c.2-.2.51-.2.71 0s.2.51 0 .71L16.58 13.01c-.57.57-1.33.88-2.14.88z"/><path class="st0" d="M14.44 22.21c-.81 0-1.57-.31-2.14-.89L.15 9.17c-.2-.2-.2-.51 0-.71s.51-.2.71 0l12.15 12.16c.76.76 2.1.76 2.86 0L27.93 8.56c.2-.2.51-.2.71 0s.2.51 0 .71L16.58 21.32c-.57.58-1.33.89-2.14.89z"/></svg>
