<svg xmlns="http://www.w3.org/2000/svg" viewBox="0 0 36.15 30.97"><path d="M13.59 3.54h18.67l.33.3 3.14 2.76.42.37v21.59H7.19v-2.41h26.57V8.99h-3.38l.02-.62.1-2.42H13.59V3.54zm-.35 14.44v1.6h12v-1.6h-12zm.58-3.96v1.6h12v-1.6h-12zm.6-3.78v1.6h12v-1.6h-12zM3.44 16.11l3.26.85c.59-1.74 1.12-3.44 1.57-5.08a38.49 38.49 0 0 0 1.67-9.46l-.48-.11H8.41l-.66-.45a38.838 38.838 0 0 0-3.17 9.06c-.4 1.63-.79 3.39-1.14 5.19zm2.74 2.37l-3.03-.8c-.33 1.87-.65 3.79-.95 5.75l.38.1h1.05l.38.1c.89-1.65 1.61-3.37 2.17-5.15zm-1.53 7.26l.5.13.25-.67c1.72-4.46 3.28-8.89 4.4-12.89a38.34 38.34 0 0 0 1.72-10.53v-.6l-.57-.15L9.86.75H8.82L7.57.15 7 0l-.32.52a38.426 38.426 0 0 0-3.66 10.01c-1 4.05-1.82 8.67-2.51 13.39l-.1.7.6.15-.97 2.34-.04.1.02.1.35 2.84.03.28.27.07.74.18.72.2.27.08.17-.22 1.7-2.29.07-.08.02-.13.29-2.5zm-.82.21l-.25 2.09-1.47 1.99-.47-.13h-.02l-.47-.12-.32-2.46.8-1.95 2.2.58zM33.44 7.79l-1.77-1.55-.07 1.55h1.84z" fill-rule="evenodd" clip-rule="evenodd" fill="#8e6526"/></svg>
