<svg xmlns="http://www.w3.org/2000/svg" viewBox="0 0 440.5 407.21"><style>.st0{fill:#fff}</style><path class="st0" d="M80.05 217.88h-5v-59.2c-2.29-13.63-11.87-27.36-25.86-27.37H40.1c-.16 0-.35.02-.55.04l-.42.04-.35-4.99.33-.03c.31-.03.62-.05.94-.06h9.13c16.84.01 28.25 15.99 30.82 31.77l.03.4v59.4z"/><path class="st0" d="M99.48 358.45l-16.96-16.96-.16-.27L1.18 205 0 94.93l2.39-.13.35-.03c.3-.03.61-.05.93-.05l9.08-.01c16.84.01 28.25 15.98 30.82 31.75l.03.4v58.42l21.51 22.73 61.71 61.71 2.25-2.26-37.71-37.54c-11.06-11.71-6.96-32.71 3.92-42.98l.13-.11s2.51-2.07 2.78-2.3l1.75-1.46 72.58 72.57 3.35 52.18v48.71h-5V307.9l-3.22-50.05-68.02-68.02c-.44.36-.82.68-.97.8-9.16 8.71-12.77 26.21-3.72 35.8l41.2 41.01-9.31 9.37-65.31-65.31-22.93-24.23v-60.2c-2.29-13.63-11.87-27.36-25.85-27.36l-7.7.01 1.11 103.86 80.33 134.8L103 354.9l-3.52 3.55z"/><path class="st0" d="M204.8 407.21h-5v-47.13H63.4v47.13h-5v-52.13h146.4z"/><path class="st0" d="M204.8 407.21h-5v-47.13H63.4v47.13h-5v-52.13h146.4z"/><g><path class="st0" d="M365.44 217.88h-5v-59.61l.03-.2c2.57-15.78 13.98-31.75 30.81-31.77h9.09c.37.01.68.03.99.06l.33.03-.35 4.99-.42-.03c-.2-.02-.39-.04-.6-.04h-9.05c-13.98.01-23.56 13.74-25.85 27.37v59.2z"/><path class="st0" d="M339.91 359.56l-3.54-3.54L354 338.39l80.33-134.8 1.11-103.86-7.71-.01c-13.98.01-23.56 13.74-25.85 27.36v60.2L379 211.47l-65.36 65.36-9.31-9.37 41.26-41.06c4.04-4.27 5.8-10.63 4.92-17.84-.84-6.84-4.08-13.53-8.69-17.91-.15-.12-.54-.44-.97-.8l-68.02 68.01-3.22 50.05v48.63h-5l.01-48.87 3.35-52.02 72.59-72.58 1.76 1.48c.27.23 2.77 2.28 2.77 2.29l.13.11c5.54 5.23 9.29 12.88 10.28 21 1.07 8.71-1.17 16.5-6.3 21.93l-37.77 37.59 2.25 2.26 61.76-61.76 21.47-22.68v-58.62l.03-.2c2.57-15.77 13.98-31.75 30.82-31.75l9.09.01c.32 0 .62.02.92.05l.35.03 2.39.13L439.32 205l-.35.58-80.99 135.92-.22.22-17.85 17.84z"/><path class="st0" d="M382.09 407.21h-5v-47.13H240.7v47.13h-5v-52.13h146.39z"/><path class="st0" d="M382.09 407.21h-5v-47.13H240.7v47.13h-5v-52.13h146.39z"/></g><g><path class="st0" d="M324.33 134.76h-5V12.67c0-4.23-3.44-7.67-7.67-7.67H128.52c-4.23 0-7.67 3.44-7.67 7.67v122.09h-5V12.67c0-6.99 5.69-12.67 12.67-12.67h183.14c6.99 0 12.67 5.69 12.67 12.67v122.09z"/><path class="st0" d="M187.72 118.77c-.34 0-.69-.01-1.03-.04-3.71-.3-7.1-2.23-9.31-5.29-3.56-4.95-2.81-12.13 1.76-16.7l30.42-30.42c2.12-2.13 2.88-5.25 1.88-7.77-4.12-10.43-1.61-21.28 6.88-29.78 10.34-10.34 27.45-12.05 35.91-3.6l1.77 1.77-17.99 17.99 10.85 10.85 17.99-17.99 1.77 1.77c8.46 8.46 6.74 25.57-3.6 35.91-8.49 8.5-19.35 11-29.77 6.88-2.52-1-5.65-.24-7.77 1.88l-30.8 30.8a12.56 12.56 0 0 1-8.96 3.74zm52.09-93.98c-6.15 0-13.04 2.62-17.95 7.54-7.02 7.02-9.12 15.91-5.77 24.4 1.75 4.42.57 9.58-3 13.14l-30.42 30.42c-2.85 2.85-3.38 7.25-1.23 10.24 1.36 1.89 3.37 3.04 5.65 3.22 2.25.19 4.46-.63 6.05-2.22l30.8-30.8c3.57-3.57 8.73-4.75 13.14-3 8.49 3.35 17.38 1.25 24.4-5.77 7.57-7.57 9.71-19.83 5.17-26.88l-17.79 17.79-17.92-17.92 17.79-17.79c-2.47-1.61-5.59-2.37-8.92-2.37zM316.74 157.61H123.43c-12.6 0-22.85-10.25-22.85-22.85v-2.5h95.1l5.09 5.09h38.63l5.09-5.09h95.1v2.5c0 12.6-10.25 22.85-22.85 22.85zm-210.98-20.35c1.22 8.66 8.68 15.35 17.67 15.35h193.31c8.99 0 16.46-6.69 17.67-15.35h-87.86l-5.09 5.09H198.7l-5.09-5.09h-87.85z"/></g></svg>
