<svg xmlns="http://www.w3.org/2000/svg" viewBox="0 0 222 214.01" overflow="visible"><style>.st0{fill:#fff}</style><path class="st0" d="M222 214.01H17.38v-18.45h6v12.45H216V104.88h-14.16v-6H222z"/><path class="st0" d="M204.62 197.93H0V82.79h204.62v115.14zM6 191.93h192.62V88.79H6v103.14z"/><path class="st0" d="M176.98 182.92H27.64l-.44-2.47c-.87-4.87-4.74-8.63-9.63-9.35l-2.57-.38v-60.96l2.56-.38c4.81-.71 8.67-4.39 9.6-9.17l.47-2.42h149.35l.47 2.42c.93 4.77 4.79 8.46 9.6 9.17l2.56.38v60.96l-2.56.38c-4.89.72-8.76 4.48-9.63 9.35l-.44 2.47zm-144.5-6h139.67c1.79-5.37 6.07-9.54 11.47-11.18v-51a17.557 17.557 0 0 1-11.39-10.95H32.39A17.557 17.557 0 0 1 21 114.74v50.99a17.5 17.5 0 0 1 11.48 11.19z"/><path class="st0" d="M102.31 166.44c-14.38 0-26.08-11.7-26.08-26.08 0-14.38 11.7-26.08 26.08-26.08 14.38 0 26.09 11.7 26.09 26.08-.01 14.38-11.71 26.08-26.09 26.08zm0-46.16c-11.07 0-20.08 9.01-20.08 20.08 0 11.07 9.01 20.08 20.08 20.08 11.08 0 20.09-9.01 20.09-20.08-.01-11.07-9.02-20.08-20.09-20.08zM137.76 137.36h34.12v6h-34.12zM137.76 123.31h25.42v6h-25.42zM137.76 151.41h25.42v6h-25.42zM32.74 137.36h34.12v6H32.74zM41.43 151.41h25.42v6H41.43zM41.43 123.31h25.42v6H41.43z"/><g><path class="st0" d="M139.95 66.25h-6V35.4h83.2v6h-77.2z"/></g><g><path class="st0" d="M137.2 73.58L118.62 55l4.24-4.24L137.2 65.1l14.34-14.34 4.24 4.24z"/></g><g><path class="st0" d="M83.64 66.25h-6V41.4H.45v-6h83.19z"/></g><g><path class="st0" d="M80.4 73.58L61.82 55l4.24-4.24L80.4 65.1l14.34-14.34L98.98 55z"/></g><g><path class="st0" d="M105.12 7.33h6v65.22h-6z"/></g><g><path class="st0" d="M122.7 22.82L108.36 8.48 94.03 22.82l-4.25-4.24L108.36 0l18.59 18.58z"/></g></svg>
