<svg xmlns="http://www.w3.org/2000/svg" viewBox="0 0 335.19 312.23" overflow="visible"><style>.st0{fill:#fff}</style><path class="st0" d="M181.78 245.31c-.29-.75-.75-1-1.38-.76-.64.25-.82.75-.53 1.5l2.03 5.24 1.91-.74-2.03-5.24zM118.75 170.02c16.01-5.33 24.88-22.98 19.3-39.29-5.54-16.18-23.18-24.66-39.11-19.31-16.19 5.43-24.82 23.02-19.58 38.97 5.45 16.53 23.39 25.21 39.39 19.63zM81.39 149.8a28.735 28.735 0 0 1 18.24-36.38c15.08-5.06 31.28 2.93 36.46 18.09 5.13 15.02-3 31.45-17.99 36.53-15.22 5.17-31.63-2.92-36.71-18.24z"/><path class="st0" d="M229.87 246.11c-29.01-76.94-58.1-153.85-87.11-230.8-6.21-16.46-9.94-18.25-26.7-11.94C81.22 16.49 46.39 29.63 11.57 42.79.18 47.09-2.28 52.4 1.93 63.99c5.39 14.86 10.91 29.68 16.48 44.48 17.02 45.24 34.12 90.45 51.13 135.7 7.17 19.07 14.17 38.21 21.3 57.29 3.13 8.37 8.68 13.07 17.86 9.64 38.14-14.25 76.27-28.55 114.18-43.4 4.39-1.72 7.4-6.95 10.34-9.86-1.61-5.71-2.25-8.81-3.35-11.73zM143.39 86.1c.18-1.04.56-2.07.97-3.05.86-2.06 3.4-1.99 4.52-.9.67.65 1.31 1.46 1.62 2.33 2.15 6.08 4.2 12.18 6.29 18.28h-.01c2.08 6.07 4.19 12.13 6.21 18.22.52 1.56.64 3.26 1.14 4.83 1.14 3.61 2.3 7.22 3.64 10.76 1.45 3.85 3.08 7.64 4.68 11.44 1.06 2.52 2.28 4.97 3.27 7.52.85 2.17 1.04 4.46.38 6.74-.14.5-.35 1-.61 1.44-.69 1.16-1.81 1.51-3.05.99-2.23-.94-3.57-2.76-4.53-4.84-1.27-2.75-1.79-5.73-2.44-8.68-.92-4.18-1.94-8.35-3.08-12.47-1.04-3.78-2.31-7.5-3.46-11.25-.3-.99-.86-1.73-1.68-2.38-2.25-1.75-3.96-3.97-5.35-6.46-3.6-6.47-6.04-13.41-7.87-20.54-1.02-3.89-1.33-7.94-.64-11.98zM75.36 197.29c-.16.67-.5 1.37-.97 1.86-.77.8-1.85.75-2.9.11-1.58-.98-2.63-2.44-3.51-4-1.93-3.43-2.92-7.21-3.86-10.99-.96-3.86-1.82-7.75-2.93-11.57-1.8-6.18-3.68-12.35-5.71-18.46-1-3.02-2.68-5.75-5.07-7.95-.22-.2-.47-.49-.73-.52-1.42-.17-1.82-1.34-2.3-2.36-2.01-4.18-3.34-8.6-4.56-13.06-.75-2.75-1.57-5.48-2.33-8.22-.42-1.5-.48-3.02-.25-4.56.08-.04.16-.07.24-.1.51 1.01 1.13 1.99 1.51 3.05 1.78 5.06 3.49 10.15 5.24 15.22.13.39.25.82.5 1.13.2.24.63.49.88.42.22-.06.44-.54.45-.84.01-.42-.14-.87-.28-1.28-1.68-4.92-3.4-9.83-5.02-14.77-.41-1.25-.46-2.62-.54-3.97 1.16.85 1.8 1.96 2.23 3.23 1.69 4.98 3.39 9.95 5.1 14.92.15.44.33.9.61 1.25.17.21.59.36.85.3.18-.04.38-.47.39-.72.01-.4-.11-.82-.24-1.2-1.68-4.95-3.39-9.89-5.06-14.84-.44-1.3-.67-2.64-.48-4.02.09-.04.19-.09.28-.13.54.87 1.22 1.69 1.58 2.63.97 2.53 1.81 5.11 2.7 7.67.92 2.67 1.82 5.34 2.75 8.01.13.39.27.81.53 1.11.2.23.63.41.91.35.19-.04.39-.52.39-.81.01-.43-.12-.88-.26-1.29-1.64-4.82-3.31-9.62-4.92-14.45-.44-1.32-.69-2.7-1.02-4.05.13-.06.27-.12.4-.18.61.85 1.33 1.64 1.8 2.56.76 1.47 1.38 3.01 2.02 4.54 2.12 5.14 4.26 10.27 5.77 15.63.28 1.01.48 2.04.7 3.07.17.81.03 1.52-.45 2.27-.37.59-.46 1.4-.53 2.13-.28 3.01.22 5.95 1.13 8.8 2.35 7.36 5.35 14.46 8.34 21.57 1.92 4.56 4 9.05 5.76 13.66 1.06 2.81 1.58 5.81.86 8.85zm-8.69-42.16c-7.91-23.12 4.48-48.59 27.83-56.52 23.09-7.84 48.42 4.56 56.35 27.68 7.98 23.25-4.42 48.6-27.65 56.56-23.24 7.96-48.58-4.48-56.53-27.72zm55.16 106.75l-5.61 2.17-1.59-4.11 5.61-2.17 1.59 4.11zM115 292.24c-2.53.98-4.2 1.19-4.99.62s-1.61-1.93-2.45-4.1l-5.39-13.93-2.5.97-1.31-3.38 2.5-.97-1.78-4.6 5.61-2.17 1.78 4.6 3.03-1.17 1.31 3.38-3.03 1.17 5.38 13.89c.26.67.63 1.04 1.12 1.12.49.08 1.41-.15 2.76-.67l1.5 3.88-3.54 1.36zm10.55-4.08l-8.84-22.85 5.61-2.17 8.84 22.85-5.61 2.17zm19.59-7.22c-4.44 1.72-7.27.97-8.52-2.25l-5.29-13.68c-1.24-3.21.35-5.68 4.79-7.4 4.32-1.67 7.07-.96 8.26 2.12l2.19 5.65-5.61 2.17-2.17-5.61c-.29-.75-.75-1-1.38-.76-.64.25-.82.75-.53 1.5l5.41 13.99c.3.78.77 1.04 1.41.79.63-.24.8-.75.5-1.53l-2.14-5.53 5.61-2.17 2.16 5.57c1.19 3.1-.38 5.47-4.69 7.14zm22.7-9.15l-6.61-6.93 3.19 8.25-5.61 2.17-10.92-28.22 5.61-2.17 4.9 12.67.04-8.41 5.8-2.24-.2 11.57 10.39 10.75-6.59 2.56zm20.17-7.44c-4.36 1.69-7.16.92-8.4-2.29l-5.29-13.68c-1.24-3.21.31-5.66 4.67-7.35 4.4-1.7 7.19-1.01 8.38 2.07l3.37 8.7-7.52 2.91 2.06 5.33c.3.77.77 1.04 1.41.79.63-.24.8-.75.5-1.53l-1.78-4.61 5.61-2.17 1.8 4.64c1.19 3.1-.41 5.49-4.81 7.19zm21.34-8.61c-2.53.98-4.2 1.19-4.99.62s-1.61-1.93-2.45-4.1l-5.39-13.93-2.5.97-1.31-3.38 2.5-.97-1.78-4.6 5.61-2.17 1.78 4.6 3.03-1.17 1.31 3.38-3.03 1.17 5.38 13.89c.26.67.63 1.04 1.12 1.12.49.07 1.41-.15 2.76-.67l1.5 3.88-3.54 1.36z"/><g><path class="st0" d="M222.54 143.07c15.67 6.26 33.84-1.48 40.11-17.54 6.22-15.93-1.78-33.79-17.4-39.99-15.87-6.3-33.82 1.55-40.1 17.12-6.53 16.13 1.56 34.34 17.39 40.41zm-15.48-39.56a28.738 28.738 0 0 1 37.42-16.01c14.78 5.88 22 22.43 16.16 37.36-5.78 14.79-22.59 22.08-37.32 16.29-14.96-5.89-22.27-22.66-16.26-37.64z"/><path class="st0" d="M322.35 42.45c-36.22-13.29-72.47-26.52-108.68-39.84-11.89-4.37-15.45-2.9-19.92 8.79-6.59 17.21-13.21 34.41-19.69 51.66-1.8 4.8-1.61 9.4.21 12.66l-.01.01 7.65 20.47c.84-2 1.69-4.01 2.5-6.03 1.19-2.96 1.67-6.12 1.26-9.34-.04-.3-.04-.68-.22-.87-.97-1.05-.52-2.2-.24-3.29 1.17-4.49 3-8.72 4.95-12.92 1.2-2.58 2.34-5.19 3.52-7.78.65-1.41 1.58-2.62 2.75-3.64.08.02.17.05.25.07-.27 1.1-.42 2.25-.82 3.3-1.91 5.02-3.88 10-5.83 15-.15.38-.34.79-.34 1.18-.01.31.16.78.39.89.21.1.69-.13.89-.35.28-.32.45-.75.61-1.16 1.9-4.84 3.75-9.7 5.71-14.52.5-1.22 1.34-2.3 2.15-3.38.34 1.4.1 2.66-.39 3.91-1.92 4.89-3.83 9.79-5.73 14.69-.17.43-.33.9-.34 1.35-.01.27.22.65.46.78.17.09.6-.11.76-.3.26-.3.44-.69.59-1.08 1.91-4.87 3.79-9.74 5.72-14.6.5-1.27 1.19-2.45 2.23-3.38.1.03.2.05.3.08-.15 1.01-.16 2.08-.49 3.02-.89 2.56-1.91 5.07-2.89 7.6-1.02 2.63-2.05 5.25-3.07 7.89-.15.38-.32.8-.31 1.19.01.3.22.72.47.86.16.09.63-.15.82-.36.28-.32.48-.74.64-1.15 1.86-4.74 3.68-9.49 5.57-14.21.52-1.29 1.22-2.51 1.84-3.76l.42.12c-.08 1.04-.05 2.11-.28 3.11-.37 1.61-.89 3.19-1.39 4.77-1.7 5.29-3.38 10.59-5.69 15.66-.43.95-.95 1.87-1.45 2.79-.39.73-.96 1.18-1.8 1.44-.66.21-1.26.77-1.78 1.29-2.16 2.12-3.68 4.68-4.82 7.45-1.52 3.66-2.86 7.39-4.12 11.14l4.68 12.51c-.27-6.01.68-12.16 3-18.11 8.89-22.76 34.79-34.21 57.75-25.2 22.7 8.92 34.03 34.74 25.16 57.52-8.92 22.9-34.75 34.26-57.63 25.34a44.21 44.21 0 0 1-18.64-13.76l29.33 78.45c.36 1.14.75 2.24 1.17 3.31h-.01l.02.02c.39 1 .82 1.97 1.27 2.9l8.65 29.46c.57 2.92.48 9.58-9.33 16.02-19.9 9.22-50.92 21.12-50.92 21.12 16.3 6.17 30 11.48 43.8 16.54 12.37 4.53 17.11 2.41 21.82-10.08 29.47-78.24 58.88-156.5 88.22-234.79 4.67-12.51 2.03-17.78-10.7-22.46zm-20.34 55.8c-2.28 6.03-4.65 12.02-7 18.02H295c-2.33 5.98-4.63 11.97-7.02 17.92-.61 1.53-1.61 2.9-2.25 4.42-1.46 3.49-2.9 7-4.17 10.56-1.38 3.88-2.58 7.82-3.81 11.75-.82 2.61-1.47 5.27-2.36 7.85-.75 2.21-2.08 4.08-4.06 5.4-.43.29-.91.54-1.4.71-1.27.44-2.36-.02-2.97-1.21-1.1-2.16-.94-4.41-.34-6.63.8-2.92 2.33-5.53 3.74-8.2 1.99-3.79 3.91-7.63 5.7-11.51 1.64-3.56 3.07-7.22 4.62-10.82.41-.95.46-1.88.25-2.9-.59-2.79-.47-5.59.08-8.38 1.43-7.27 4.04-14.14 7.25-20.77 1.76-3.63 4.13-6.93 7.26-9.56.81-.68 1.77-1.22 2.71-1.71 1.99-1.01 3.88.68 4.03 2.24.11.92.08 1.96-.25 2.82z"/></g></svg>
