<svg xmlns="http://www.w3.org/2000/svg" viewBox="0 0 456.97 389.4" overflow="visible"><style>.st0{fill:#69341a}</style><path class="st0" d="M456.66 163.64c-.63-7.56-2.17-14.98-4.62-21.92-2.38-6.74-5.66-13.08-9.78-18.71-4.46-6.05-9.39-10.86-14.62-14.55-5.59-3.9-11.51-6.55-17.56-8-3.83-.92-7.71-1.37-11.58-1.37-2.53 0-5.08.19-7.59.58-2.87.43-5.73 1.16-8.53 2.05-.02-3.76.43-7.37 1.23-10.96 1.61-7.39 4.58-14.59 7.35-22.4 5.13-14.43 9.32-28.85 2.75-44.27-.79-1.88-2.5-3.03-4.53-3.11-2.05-.07-3.83.99-4.74 2.79-6.84 13.49-35.38 7.9-46.67 5.27-10.65-2.46-19.82-5.78-28.8-9.3-9.08-3.54-17.99-7.27-28.03-10.45-18.98-6.02-39.09-9.08-58.98-9.3-20.33-.24-40.44 2.48-58.91 7.95-28.92 8.57-55.13 24.08-75.33 46.46-13.3 14.71-22.21 29.67-28.28 44.43-.51 1.2-.96 2.43-1.42 3.64-.12-.02-.27-.07-.39-.1-5.23-.67-10.52-.55-15.68.46-6.48 1.25-12.6 3.85-18.09 7.54-7.03 4.74-12.81 10.84-16.93 18.3C2.69 136.35.55 144.9.07 153.64c-.1 1.52-.1 3.03-.02 4.53.48 11.68 4.94 23.67 12.43 32.66 8.5 10.24 20.01 15.65 32.9 16.81-3.97 3.42-7.37 7.47-10.12 11.99-3.64 5.97-6.12 12.43-7.56 19.1-1.49 6.98-1.85 14.23-1.2 21.46 1.2 13.61 6.02 27.12 13.54 38.63 7.23 11.03 16.91 20.28 28.32 26.03 25.7 36.03 57.05 54.33 90.15 61.22 32.99 6.89 67.6 2.36 99.95-7.23 19.99.89 36.87-1.69 50.96-6.82 11.08-3.44 21.48-8.09 31-13.8 23.92-14.33 42.34-35.28 52.36-60.28 5.56-13.82 8.21-31.43 8.86-50.58 3.52-.65 7.01-1.59 10.38-2.87 5.39-2.02 10.57-4.82 15.37-8.33 4.65-3.4 8.96-7.49 12.72-12.19 3.59-4.53 6.72-9.63 9.2-15.29 3.06-6.94 5.23-14.33 6.45-21.89 1.23-7.62 1.52-15.44.9-23.15zM16.43 187.56c-7.35-8.81-10.86-20.01-11.27-29.57-.05-1.37-.05-2.72.02-4.05.43-8.02 2.38-15.8 6.24-22.81 3.47-6.26 8.48-11.92 15.32-16.52 4.84-3.25 10.28-5.61 16.18-6.74 4.21-.82 8.69-1.01 13.34-.48-4.19 12.36-6.57 24.81-7.61 37.35-.31 3.73-.48 7.47-.58 11.22-2.79-4.02-6.29-7.54-10.48-9.83-3.68-2.05-7.9-3.13-12.62-2.82 3.47.82 8.69 3.97 13.39 9.49 4.6 5.42 8.65 13.15 9.95 23.14.41 9.49 1.23 18.66 2.19 26.8h-.65c-15.33-.18-26.24-6.54-33.42-15.18zm347.38 99.36c-.24 6.98-1.37 14.16-3.37 21.31-5.49 19.68-16.88 37.86-35.84 49.93-16.21 10.31-37.98 16.18-66.4 14.86l-.5-.02-.46.12c-31.69 9.46-65.51 13.94-97.56 7.27-31.91-6.65-62.18-24.42-87.01-59.49l-.43-.63-.65-.31c-10.72-5.27-19.87-13.92-26.66-24.32-7.01-10.74-11.51-23.34-12.64-35.98-.6-6.62-.26-13.27 1.13-19.7 1.3-6.05 3.54-11.87 6.84-17.29 3.2-5.27 7.3-9.83 12.21-13.03 4.38-2.84 9.44-4.65 15.1-4.89l3.73-.19-1.08-3.56c-2.05-6.94-3.15-14.86-3.35-23.29-.22-8.67.55-17.87 2.22-27.07 2.96-16.26 7.8-30.76 14.86-42.58 6.45-10.86 14.79-19.46 25.19-25.1 12.23-6.65 27.14-9.18 41.01-5.54 11.87 3.11 23 10.77 31.04 24.32l1.95 3.3 2.65-2.79c8.5-8.89 17.15-15.75 25.75-20.74 9.06-5.27 18.06-8.48 26.83-9.87 14.72-2.36 29.67.24 42.94 6.7 13.49 6.55 25.26 17.1 33.31 30.44 9.01 14.93 13.58 33.4 13.17 53.47-.39 19.44-5.44 40.36-15.63 61.08l-2 4.05 4.5.14c4.84.17 9.32.84 13.44 2 12.28 3.44 21.41 11.03 27.36 21.07 6.02 10.16 8.81 22.85 8.35 36.33zm86.87-100.91c-1.16 7.13-3.18 14.11-6.05 20.64-2.31 5.23-5.2 9.95-8.55 14.14a60.88 60.88 0 0 1-11.73 11.27 59.762 59.762 0 0 1-14.14 7.66c-2.79 1.06-5.64 1.85-8.48 2.46-1.95.41-3.9.7-5.85.89-.36.05-.72.1-1.08.12l-.29.02-.22.02c-7.3.51-13.8-1.06-19.51-4.12-6.33-3.4-11.73-8.72-16.14-15.17-4.31-6.31-7.73-13.66-10.26-21.46-2.72-8.41-4.43-17.34-5.13-26.06l-.1-1.32v-.1c-.14-1.95-.19-3.88-.19-5.78 0-4.96.43-9.71 1.28-14.21 1.23-6.6 3.28-12.69 6-18.21 2.82-5.76 6.36-10.84 10.43-15.2 4.17-4.46 8.89-8.16 13.99-11.01.89-.51 1.81-.94 2.72-1.37 1.76-.84 3.54-1.61 5.35-2.26a48.05 48.05 0 0 1 8.91-2.24c5.71-.87 11.54-.67 17.24.7 5.42 1.3 10.74 3.68 15.8 7.23 4.79 3.37 9.34 7.8 13.44 13.39 3.83 5.2 6.84 11.08 9.08 17.36 2.31 6.55 3.76 13.54 4.36 20.66.62 7.26.3 14.68-.88 21.95z"/><path class="st0" d="M383.75 183.32c2.43-1.69 5.13-3.03 8.02-4.07 1.73-.63 3.52-1.13 5.4-1.54 2.87-.6 5.88-.96 9.03-1.06-2.87-2.12-6.19-3.01-9.61-3.01-1.66 0-3.37.19-5.06.55-.14.05-.29.1-.43.14-7.61 1.83-15.05 7.03-19.24 12.19-5.35 6.57-9.2 15.41-9.01 23.1.05 1.76.41 2.82 1.32 3.3.96.51 2.5.39 3.66-.96 2.99-3.49 9.06-6.24 15.61-7.75 3.66-.84 7.47-1.3 10.98-1.28 2.05 0 3.97.17 5.73.51 1.78.34 3.37.84 4.65 1.57-1.35-1.52-3.01-2.7-4.84-3.59-1.78-.89-3.76-1.49-5.85-1.85-2.26-.39-4.62-.51-7.03-.39-6.19.31-12.5 2.12-17.05 4.41 2.6-9.17 7.32-15.84 13.72-20.27zM302.18 316.69c-3.88-2.77-7.3-6.45-9.83-10.84-2.34-4-3.93-8.57-4.46-13.51-.51-4.58-.05-9.06.91-13.08 1.16-4.96 3.08-9.27 4.91-12.4-4.5 3.52-7.71 7.47-9.73 11.7-2.34 4.91-3.11 10.24-2.53 15.73.43 3.88 1.52 7.54 3.16 10.86-12.45 7.51-25.43 13.46-38.77 17.65 4.67-5.9 8.89-13.63 10.52-17.82 2.05-5.25 3.08-10.36 3.2-15.1.1-5.01-.82-9.63-2.7-13.63-2.6-5.56-7.03-9.87-13.01-12.33-5.39-2.22-12.04-2.89-19.75-1.52-5.18.92-10.36 2.87-15.05 5.88a40.34 40.34 0 0 0-11.49 11.2c-1.23 1.81-2.24 3.78-3.06 5.8-.82 2-1.47 4.07-1.97 6.09-.92 3.66-1.18 7.95-1.42 12.28-.41 6.79-.82 13.75-3.73 16.79-.75.79-1.66 1.49-2.75 2.12-1.18.7-2.53 1.33-4.09 1.88-3.42 1.25-6.96 2.19-6.96 2.19l-1.23.34-.84-.17c-18.59-3.76-38.08-11.27-55.25-22.49-15.08-9.85-28.37-22.57-37.64-38.1-2.58-4.29-4.77-9.49-5.08-14.28v-.03l.27-4.16c.84-4.12 3.69-7.54 9.63-9.27 3.3-.96 7.06-.84 10.81-.05-3.35-3.49-7.59-4.62-11.73-4.05-7.35 1.04-11.87 5.42-13.8 10.11-3.01 7.37-.1 16.76 4.77 24.93 9.83 16.4 23.77 29.79 39.59 40.12 14.09 9.22 29.7 16.02 45.18 20.38 3.97 1.13 7.97 2.09 11.99 2.91 5.27 1.08 10.48 1.88 15.65 2.41 7.68.79 15.32.99 23.02.55 6.94-.39 13.8-1.23 20.54-2.53 8.74-1.66 17.29-4.07 25.65-7.1 11.32-4.12 22.25-9.44 32.68-15.77l.07-.02c3.61 4.67 7.8 8.48 13.41 10.57 4.84 1.83 10.69 2.38 18.16 1.18-5.83.36-11.95-1.66-17.25-5.42zM261.7 103.21c1.3-.27 2.91-.53 4.58-.6 1.76-.1 3.54.12 5.3.55 8.45 2.12 16.45 9.8 17.8 18.4.34 2.14 1.35 4.62 3.16 4.82 3.32.39 6.46-16.21-7.68-25.36-10.62-6.84-19.77-4.24-23.84-.72-1.57 1.32-1.47 2.22-1.37 2.72.05.48.12.58 2.05.19zM234.1 239.91c19.1-2.1 33.64-22.93 32.49-46.55-1.18-23.6-17.63-41.06-36.73-38.97-19.12 2.09-33.67 22.93-32.49 46.55 1.16 23.61 17.6 41.04 36.73 38.97zm11.63-71.26c5.27-.58 9.8 4.24 10.11 10.74.34 6.5-3.68 12.23-8.94 12.81-5.27.58-9.8-4.21-10.14-10.74-.3-6.5 3.7-12.23 8.97-12.81z"/><path class="st0" d="M139.14 224.57c-3.81.89-7.68 3.23-8.04 6.33-.84 7.54 8.04 16.45 15.9 19.72-1.61 3.18-2.55 6.96-2.94 10.77-.79 7.73.72 15.94 3.35 19.72-.65-5.73-.6-11.68.65-17.34.92-4.21 2.48-8.24 4.89-11.87 8.6-.07 21.89-7.51 22.86-15.99.39-3.52-2.43-7.01-7.51-8.93-4.19-1.61-10.93-2.77-17.32-3.08-4.48-.22-8.74-.05-11.84.67zM122.83 217.88c16.57-1.81 29.19-19.89 28.18-40.34-1.01-20.47-15.27-35.6-31.84-33.79-16.57 1.81-29.19 19.87-28.15 40.34 1.01 20.47 15.24 35.59 31.81 33.79zm10.16-60.91c4.19-.46 7.8 3.37 8.04 8.53.26 5.18-2.91 9.75-7.1 10.21-4.19.46-7.8-3.37-8.07-8.55-.24-5.18 2.94-9.73 7.13-10.19zM95.88 119.42c1.37-.02 2.24-1.83 2.6-3.42 1.47-6.38 7.85-11.63 14.33-12.69 1.35-.22 2.7-.27 4-.1 1.25.17 2.46.46 3.42.75 1.42.41 1.47.36 1.57 0 .1-.39.19-1.04-.89-2.14-2.89-2.89-9.63-5.44-17.97-.96-11.08 5.97-9.56 18.63-7.06 18.56z"/></svg>
