<svg xmlns="http://www.w3.org/2000/svg" viewBox="0 -144 1008 1008"><path fill="currentColor" d="M360 360h504V216h-90c-30 0-54-24-54-54V72H360v288zm450 216v-72c0-10-8-18-18-18h-72c-10 0-18 8-18 18v72c0 10 8 18 18 18h72c10 0 18-8 18-18zm0 144v-72c0-10-8-18-18-18h-72c-10 0-18 8-18 18v72c0 10 8 18 18 18h72c10 0 18-8 18-18zm0 144v-72c0-10-8-18-18-18h-72c-10 0-18 8-18 18v72c0 10 8 18 18 18h72c10 0 18-8 18-18zM666 576v-72c0-10-8-18-18-18h-72c-10 0-18 8-18 18v72c0 10 8 18 18 18h72c10 0 18-8 18-18zm0 144v-72c0-10-8-18-18-18h-72c-10 0-18 8-18 18v72c0 10 8 18 18 18h72c10 0 18-8 18-18zm0 144v-72c0-10-8-18-18-18h-72c-10 0-18 8-18 18v72c0 10 8 18 18 18h72c10 0 18-8 18-18zM522 576v-72c0-10-8-18-18-18h-72c-10 0-18 8-18 18v72c0 10 8 18 18 18h72c10 0 18-8 18-18zm0 144v-72c0-10-8-18-18-18h-72c-10 0-18 8-18 18v72c0 10 8 18 18 18h72c10 0 18-8 18-18zm0 144v-72c0-10-8-18-18-18h-72c-10 0-18 8-18 18v72c0 10 8 18 18 18h72c10 0 18-8 18-18zm414-648v92c43 24 72 71 72 124v432c0 79-65 144-144 144H378c-50 0-90-41-90-90V54c0-30 24-54 54-54h378c30 0 71 17 92 38l86 86c21 21 38 62 38 92zm-846 0h72c50 0 90 41 90 90v612c0 49-40 90-90 90H90c-50 0-90-41-90-90V306c0-49 40-90 90-90z"/></svg>
