<svg xmlns="http://www.w3.org/2000/svg" viewBox="0 0 2.28 3.13"><style>.st0{fill:#fffdfc}</style><path class="st0" d="M.59 0S.2-.04.03.5c-.14.44.19.6.42.65l-.1 1.93c0 .03.04.06.08.06h.31c.05 0 .08-.03.08-.06l-.1-1.93c.24-.05.57-.21.43-.65C.98-.04.59 0 .59 0zM2.28.87V.59L2.26.02c0-.01-.01-.02-.03-.02-.02 0-.04.01-.04.02l-.04.57h-.08L2.05.02c0-.01-.01-.02-.03-.02-.02 0-.04.01-.04.02l-.03.57h-.08L1.84.02c0-.01-.01-.02-.03-.02s-.04.01-.04.02l-.03.57h-.08L1.63.02C1.63.01 1.62 0 1.6 0c-.02 0-.04.01-.04.02l-.03.57v.14l-.02.14c0 .11.11.21.26.25v.01l-.1 1.94c0 .03.04.06.08.06h.31c.05 0 .08-.03.08-.06l-.1-1.94v-.01c.14-.04.24-.13.24-.25z"/></svg>
