<svg xmlns="http://www.w3.org/2000/svg" viewBox="0 0 127.79 110.36"><style>.st0{fill:#ece9c9}</style><path class="st0" d="M31.03 69.66c0-3.03-.46-5.96-1.3-8.72a22.635 22.635 0 0 0-4.71 11.58 49.13 49.13 0 0 0 4.65 6.08c.88-2.83 1.36-5.83 1.36-8.94zM27 84.66c.78-1.35 1.46-2.76 2.03-4.23a50.177 50.177 0 0 1-4.14-5.06A22.382 22.382 0 0 0 27 84.66zM11.62 89.48c2.96 0 4.46-1.39 5.91-2.74 1.47-1.37 2.86-2.66 5.71-2.66.72 0 1.34.08 1.89.23-.51-1.23-.91-2.48-1.21-3.75-.22-.02-.44-.04-.69-.04-2.85 0-4.24 1.29-5.71 2.66-1.45 1.35-2.95 2.74-5.91 2.74s-4.46-1.39-5.91-2.74c-1.46-1.37-2.85-2.66-5.7-2.66v3.57c2.85 0 4.24 1.29 5.71 2.66 1.45 1.34 2.95 2.73 5.91 2.73zM75.07 86.22c-2.9-1.2-5.98-1.81-9.15-1.81-3.4 0-6.69.7-9.77 2.08l-.4.16-.8.19c3.61 1.61 7.55 2.46 11.52 2.46 3.87 0 7.6-.78 11.12-2.29-.42-.11-.84-.25-1.25-.4l-1.27-.39zM106.83 72.52c-.47-4.34-2.16-8.32-4.71-11.58a29.936 29.936 0 0 0 .06 17.65c1.71-1.89 3.26-3.92 4.65-6.07z"/><path class="st0" d="M31 80.01c8.86 9.11 21.24 14.78 34.93 14.78 13.68 0 26.06-5.67 34.92-14.78a31.562 31.562 0 0 1-.03-20.59c-.56-.6-1.15-1.17-1.77-1.71-2.67-2.31-4.31-5.51-4.64-8.9-1.12 3.7-1.73 7.63-1.73 11.69 0 1.13.07 3.01.15 4.12.85 1.25 1.58 2.6 2.03 4.02v.02c.49 1.47.75 3.04.75 4.56 0 7.88-6.41 14.29-14.29 14.29-.28 0-.56-.02-.83-.04-.24.16-.62.38-1.26.69-4.01 1.89-8.3 2.85-12.76 2.85-4.88 0-9.73-1.2-14.01-3.48l-.29-.14c-8.62.99-15.93-5.75-15.93-14.17 0-1.55.25-3.09.74-4.56v-.01c.44-1.37 1.14-2.68 1.96-3.9.15-1.5.23-3.04.23-4.24 0-4.11-.62-8.08-1.77-11.83-.31 3.44-1.89 6.69-4.6 9.03-.62.54-1.21 1.11-1.77 1.71 1.1 3.22 1.71 6.66 1.71 10.24 0 3.62-.62 7.1-1.74 10.35z"/><path class="st0" d="M40.89 60.5c0 .54-.02 1.15-.05 1.79 2.84-3.22 6.05-5.37 6.26-5.5 1.75-1.44 7.67-6.77 7.23-13.03-.23-3.27-1.98-6.06-4.8-7.67-.65-.37-1.36-.65-2.12-.94-.94-.36-1.91-.74-2.79-1.32-1.06-.7-2.06-1.74-2.89-3-.26-.4-.15-.93.25-1.19.4-.26.93-.15 1.19.25.7 1.07 1.53 1.93 2.4 2.51.72.48 1.57.81 2.46 1.15.78.3 1.59.62 2.35 1.05 3.33 1.89 5.4 5.19 5.67 9.04.49 7.08-5.94 12.91-7.93 14.53-.14.1-7.63 5.1-9.5 11.01 0 .01-.01.01-.01.01-.44 1.3-.66 2.66-.66 4.03 0 6.94 5.64 12.58 12.58 12.58.75 0 1.5-.07 2.23-.2l2.68-.67c3.03-1.36 6.25-2.09 9.58-2.2V79.4a.86.86 0 1 1 1.72 0v3.34c3.11.1 6.13.71 8.99 1.9l.19.08.96.28c1.46.54 2.93.81 4.44.81 6.94 0 12.58-5.64 12.58-12.58 0-1.34-.23-2.73-.66-4.03 0 0 0-.01-.01-.01-1.87-5.92-9.36-10.9-9.43-10.95-2.06-1.67-8.49-7.5-8-14.58.27-3.85 2.33-7.15 5.67-9.04.76-.43 1.56-.74 2.34-1.04.9-.35 1.74-.68 2.47-1.16.87-.57 1.7-1.44 2.4-2.51.26-.39.79-.5 1.19-.25.4.26.51.79.25 1.19-.83 1.26-1.83 2.29-2.89 3-.88.58-1.85.96-2.79 1.32-.75.29-1.47.57-2.12.94-2.83 1.6-4.58 4.4-4.8 7.67-.44 6.26 5.48 11.6 7.3 13.08.16.1 3.35 2.23 6.18 5.44-.02-.65-.04-1.28-.04-1.77 0-6.6 1.53-12.85 4.24-18.41 1.01-6.81-2-13.8-7.77-17.68-.61-.41-1.24-.78-1.87-1.11.66-.58 1.21-1.25 1.54-2.1.8-2.08.16-4.76-.93-6.62-.82-1.4-2.32-1.8-3.7-1.47-3.27.77-2.84 3.89-3.54 6.42-.16.59-.5 1.18-.52 1.8-1.43-.09-2.84-.03-4.23.21a9.143 9.143 0 0 0 1.33-3.49l.03-.16c.06-.41.1-.83.1-1.25 0-.6-.06-1.19-.18-1.75 0-.01 0-.02-.01-.03a8.19 8.19 0 0 0-.18-.71c-.02-.05-.03-.11-.04-.16-.07-.22-.15-.43-.23-.64-.03-.07-.05-.13-.08-.2-.08-.2-.18-.4-.28-.59-.03-.07-.07-.14-.1-.21-.1-.19-.21-.37-.32-.55-.04-.07-.08-.14-.13-.2-.12-.18-.24-.35-.37-.52-.05-.06-.1-.13-.15-.19-.13-.17-.28-.33-.42-.48-.05-.06-.11-.11-.16-.17-.15-.16-.31-.3-.47-.45-.06-.05-.11-.1-.17-.15-.17-.14-.34-.28-.52-.41-.06-.04-.11-.08-.17-.12a8.06 8.06 0 0 0-.57-.38c-.06-.03-.11-.07-.17-.1-.2-.12-.41-.23-.62-.33-.05-.03-.11-.05-.16-.08-.22-.1-.44-.2-.66-.28-.05-.02-.1-.03-.15-.05-.24-.09-.47-.17-.72-.23l-.12-.03a9.83 9.83 0 0 0-.78-.18c-.03 0-.05-.01-.08-.01-.28-.05-.56-.09-.84-.11v-.7l4.8-3.33c.39-.27.49-.8.22-1.19a.816.816 0 0 0-.55-.35.82.82 0 0 0-.64.14L66.8 4.58V.86a.875.875 0 0 0-.87-.86.86.86 0 0 0-.86.86v6.46c-.26.02-.52.06-.78.1-.05.01-.11.01-.16.02-.23.04-.46.1-.68.15l-.23.06c-.2.06-.4.13-.6.2-.09.03-.19.06-.28.1-.18.07-.35.15-.53.23-.11.04-.21.09-.31.14-.16.08-.31.16-.46.25-.11.06-.22.13-.33.2-.14.09-.27.18-.4.27-.12.08-.23.17-.35.25-.12.09-.23.18-.35.28-.12.1-.24.21-.36.31a7.53 7.53 0 0 0-.64.66l-.24.27c-.12.14-.23.29-.34.44-.06.09-.13.17-.19.26-.11.17-.22.34-.33.52-.05.08-.09.15-.14.23-.11.2-.21.4-.3.6-.03.07-.06.13-.09.19-.1.23-.19.46-.27.7-.02.05-.03.09-.05.14-.09.28-.16.56-.23.85 0 .01 0 .02-.01.02-.13.61-.2 1.24-.2 1.88 0 .07.01.14.02.2.01.32.03.63.07.94l.06.4c.05.29.12.58.19.87l.06.24c.12.38.26.76.42 1.12.01.01.01.02.02.03.17.36.36.7.57 1.04.01.02.02.04.03.05-1.38-.24-2.8-.3-4.23-.21-.03-.62-.36-1.21-.52-1.79-.7-2.54-.27-5.65-3.54-6.42-1.38-.32-2.87.08-3.7 1.47-1.1 1.86-1.73 4.54-.93 6.62.33.85.88 1.52 1.54 2.1-6.89 3.53-10.75 11.23-9.64 18.8a41.672 41.672 0 0 1 4.25 18.4zm49.53-26.03s-2.94 13.07-10.67 9.66c0 0 2.41-5.37 5.97-5.89 3.55-.52 3.63-2.02 4.7-3.77zm-30.58-12.9c-.12-.13-.23-.27-.34-.42-.05-.06-.1-.12-.14-.19-.09-.12-.17-.25-.25-.38-.06-.09-.12-.17-.17-.26-.06-.1-.11-.21-.16-.31-.06-.12-.13-.25-.19-.38-.03-.06-.05-.13-.08-.19-.36-.87-.56-1.81-.56-2.8 0-.78.12-1.54.35-2.25.01-.03.02-.06.03-.08.07-.2.14-.4.23-.6.02-.04.04-.08.06-.13.08-.18.17-.35.26-.52l.09-.15c.09-.16.19-.31.29-.46.04-.06.08-.11.12-.16.1-.14.21-.28.32-.41.05-.06.1-.11.15-.17.11-.12.23-.24.34-.36.06-.06.12-.11.17-.17.12-.11.24-.21.36-.32.07-.06.13-.11.2-.16.12-.09.25-.18.38-.27.08-.05.15-.11.23-.15.13-.08.26-.15.39-.23.09-.05.17-.1.26-.14.13-.07.26-.12.4-.18.1-.04.19-.09.29-.13.13-.05.27-.1.4-.14.1-.04.21-.08.31-.11.13-.04.27-.07.4-.1.26-.06.53-.11.8-.15.09-.01.18-.03.28-.04v1.55a.86.86 0 1 0 1.72 0V9.03c.7.07 1.37.24 2.01.47.05.02.1.03.15.05.17.07.33.14.5.22.06.03.12.05.18.08.15.08.3.16.45.25.06.04.12.07.18.11.14.09.28.18.42.28.06.04.12.08.18.13.13.1.26.21.39.31.06.05.11.1.17.15.12.11.24.23.35.34.05.05.1.11.15.16.11.12.22.25.32.37.05.06.09.12.14.17.1.13.2.27.29.4.04.06.08.12.11.18.09.14.18.29.26.44l.09.18c.08.15.15.31.22.47.02.05.04.11.06.17.07.17.13.34.18.51l.03.13c.05.19.11.38.15.58v.02c.09.46.14.94.14 1.42 0 2.19-.97 4.15-2.5 5.55-.89.81-1.98 1.43-3.18 1.78-.03.01-.06.01-.09.02-.21.06-.42.11-.64.15-.08.02-.17.02-.25.04-.17.03-.34.06-.51.07-.22.02-.45.03-.68.03-.04 0-.08.01-.11.01-.27 0-.54-.01-.81-.04l-.23-.03c-.19-.02-.37-.05-.55-.08-.12-.02-.23-.06-.35-.08-.13-.03-.27-.06-.4-.1-.14-.04-.28-.1-.42-.15-.1-.03-.2-.06-.29-.1-.16-.06-.31-.14-.47-.21-.07-.03-.14-.06-.21-.1-.16-.08-.32-.18-.48-.27-.06-.03-.11-.06-.17-.1-.16-.1-.31-.21-.46-.32-.05-.04-.1-.07-.15-.11-.14-.11-.28-.23-.42-.35-.05-.04-.1-.08-.15-.13-.14-.13-.27-.27-.41-.41-.05-.03-.09-.08-.13-.12zm6.9 54.97a.86.86 0 1 1-1.72 0v-1.51a.86.86 0 1 1 1.72 0v1.51zm10.12-9.09c.96.8 1.08 2.23.28 3.19s-3.24 2.29-4.2 1.48c-.96-.8-.07-3.44.73-4.39.8-.96 2.23-1.09 3.19-.28zm-18.67.27c.8.96 1.69 3.59.73 4.39-.96.8-3.4-.52-4.2-1.48s-.68-2.39.28-3.19 2.38-.67 3.19.28zM46.14 38.24c3.56.52 5.97 5.89 5.97 5.89-7.73 3.42-10.67-9.66-10.67-9.66 1.06 1.75 1.14 3.25 4.7 3.77zM106.82 77.76c.09-.81.13-1.61.15-2.4a50.426 50.426 0 0 1-4.14 5.06c.57 1.47 1.25 2.88 2.03 4.23a22.58 22.58 0 0 0 1.96-6.89z"/><path class="st0" d="M65.93 96.5c-13.88 0-26.46-5.63-35.59-14.72-.67 1.62-1.48 3.18-2.4 4.66 2.77 4.78 7.21 8.49 12.51 10.29 6.36 2.61 15.42 4.24 25.49 4.24 10.06 0 19.13-1.63 25.49-4.24 5.3-1.8 9.74-5.51 12.51-10.29-.92-1.48-1.73-3.03-2.4-4.66C92.39 90.87 79.8 96.5 65.93 96.5zM121.88 83.18c-1.47-1.37-2.86-2.66-5.71-2.66s-4.24 1.29-5.71 2.66c-1.2 1.11-2.44 2.24-4.49 2.6-.14.14-.31.25-.49.33.08.38.03.78-.17 1.13-.44.77-.94 1.49-1.45 2.2.23.02.45.04.7.04 2.96 0 4.46-1.39 5.91-2.74 1.47-1.37 2.86-2.66 5.71-2.66s4.24 1.29 5.71 2.66c1.45 1.35 2.95 2.74 5.91 2.74v-3.57c-2.97.01-4.47-1.38-5.92-2.73zM111.95 92.07c-2.62 0-3.9 1.19-5.25 2.44-1.33 1.24-2.71 2.52-5.43 2.52-1.84 0-3.06-.59-4.07-1.35-.74.47-1.5.9-2.28 1.29.31.26.62.54.92.83 1.33 1.24 2.71 2.52 5.43 2.52 2.72 0 4.1-1.28 5.43-2.52 1.35-1.26 2.63-2.44 5.25-2.44s3.9 1.19 5.25 2.44c1.33 1.24 2.71 2.52 5.43 2.52v-3.28c-2.72 0-4.1-1.28-5.43-2.52-1.35-1.26-2.63-2.45-5.25-2.45zM21.27 97.79c1.35-1.26 2.63-2.44 5.25-2.44s3.9 1.19 5.25 2.44c1.33 1.24 2.71 2.52 5.43 2.52 1.96 0 3.22-.67 4.27-1.5-.55-.2-1.11-.39-1.63-.61-.96-.33-1.89-.73-2.8-1.18-2.61-.05-3.96-1.3-5.27-2.51-1.35-1.26-2.63-2.44-5.25-2.44s-3.9 1.19-5.25 2.44c-1.33 1.24-2.71 2.52-5.43 2.52-2.72 0-4.1-1.28-5.43-2.52-1.35-1.26-2.63-2.44-5.25-2.44v3.28c2.62 0 3.9 1.19 5.25 2.44 1.33 1.24 2.71 2.52 5.43 2.52 2.72 0 4.09-1.28 5.43-2.52zM107.43 102.9c-2.37 0-3.53 1.08-4.76 2.21-1.21 1.12-2.45 2.28-4.92 2.28-2.47 0-3.71-1.16-4.92-2.28-1.23-1.14-2.38-2.21-4.76-2.21s-3.53 1.08-4.76 2.21c-1.21 1.12-2.45 2.28-4.92 2.28-2.47 0-3.71-1.16-4.92-2.28-1.23-1.14-2.38-2.21-4.76-2.21-2.37 0-3.53 1.08-4.76 2.21-1.21 1.12-2.45 2.28-4.92 2.28-2.47 0-3.71-1.16-4.92-2.28-1.23-1.14-2.38-2.21-4.76-2.21-2.37 0-3.53 1.08-4.76 2.21-1.21 1.12-2.45 2.28-4.92 2.28-2.47 0-3.71-1.16-4.92-2.28-1.23-1.14-2.38-2.21-4.76-2.21-2.37 0-3.53 1.08-4.76 2.21-1.21 1.12-2.45 2.28-4.92 2.28-2.47 0-3.71-1.16-4.92-2.28-1.23-1.14-2.38-2.21-4.76-2.21v2.97c2.37 0 3.53 1.08 4.76 2.21 1.21 1.12 2.45 2.28 4.92 2.28 2.47 0 3.71-1.16 4.92-2.28 1.23-1.14 2.38-2.21 4.76-2.21 2.37 0 3.53 1.08 4.76 2.21 1.21 1.12 2.45 2.28 4.92 2.28 2.47 0 3.71-1.16 4.92-2.28 1.23-1.14 2.38-2.21 4.76-2.21 2.37 0 3.53 1.08 4.76 2.21 1.21 1.12 2.45 2.28 4.92 2.28 2.47 0 3.71-1.16 4.92-2.28 1.23-1.14 2.38-2.21 4.76-2.21 2.37 0 3.53 1.08 4.76 2.21 1.21 1.12 2.45 2.28 4.92 2.28 2.47 0 3.71-1.16 4.92-2.28 1.23-1.14 2.38-2.21 4.76-2.21s3.53 1.08 4.76 2.21c1.21 1.12 2.45 2.28 4.92 2.28 2.47 0 3.71-1.16 4.92-2.28 1.23-1.14 2.38-2.21 4.76-2.21 2.37 0 3.53 1.08 4.76 2.21 1.21 1.12 2.45 2.28 4.92 2.28v-2.97c-2.47 0-3.71-1.16-4.92-2.28-1.23-1.14-2.39-2.21-4.76-2.21z"/></svg>
