<svg xmlns="http://www.w3.org/2000/svg" viewBox="0 0 54 54" overflow="visible"><style>.st0{fill:#fff}</style><path class="st0" d="M27 0C12.09 0 0 12.09 0 27s12.09 27 27 27 27-12.09 27-27S41.91 0 27 0zm0 51.67C13.4 51.67 2.33 40.6 2.33 27 2.33 13.4 13.4 2.33 27 2.33 40.6 2.33 51.67 13.4 51.67 27c0 13.6-11.07 24.67-24.67 24.67z"/><path class="st0" d="M15.66 32.61c-.85 0-1.57.8-1.57 1.8v1.25c0 1.22.84 1.73 1.54 1.73 1.11 0 1.71-1.02 1.71-2.42-.01-1.29-.58-2.36-1.68-2.36zM22.9 32.54c-1.22 0-1.68 1.3-1.68 2.47 0 1.33.63 2.45 1.67 2.45 1.03 0 1.67-1.12 1.67-2.47 0-1.12-.47-2.45-1.66-2.45z"/><path class="st0" d="M27 5.22C14.99 5.22 5.22 14.99 5.22 27S14.99 48.78 27 48.78c12.01 0 21.78-9.77 21.78-21.78S39.01 5.22 27 5.22zM15.92 38.53c-.81 0-1.48-.38-1.81-.93h-.02v3.54h-1.43V33.8c0-.89-.02-1.59-.05-2.19h1.25l.07 1.03h.02c.47-.76 1.21-1.18 2.15-1.18 1.52 0 2.67 1.35 2.67 3.46.02 2.49-1.42 3.61-2.85 3.61zm6.93 0c-1.76 0-3.1-1.29-3.1-3.48 0-2.29 1.4-3.58 3.2-3.58 1.86 0 3.07 1.4 3.07 3.48.01 2.53-1.64 3.58-3.17 3.58zM25.31 27V14.96h-.04l-2.36 1.3-.48-1.58 3.17-1.69h1.82V27h-2.11zm3.55 11.39h-1.43V31.6h1.43v6.79zm-.71-7.82c-.49 0-.82-.37-.82-.82 0-.48.34-.84.84-.84.49 0 .82.36.82.84-.01.45-.32.82-.84.82zm8.14 7.82h-1.43v-3.97c0-.96-.32-1.77-1.29-1.77-.7 0-1.45.58-1.45 1.66v4.08h-1.43v-4.87c0-.75-.02-1.33-.05-1.91h1.24l.07 1.01H32c.32-.58 1.03-1.16 2.05-1.16 1.06 0 2.24.69 2.24 2.78v4.15zm5.1-5.71h-1.61v3.43c0 .84.26 1.24.86 1.24.28 0 .46-.04.63-.09l.05 1.09c-.25.1-.63.16-1.11.16-.57 0-1.05-.18-1.34-.52-.34-.37-.5-.93-.5-1.82v-3.5h-.97V31.6h.96v-1.23l1.41-.44v1.67h1.61v1.08z"/></svg>
