<svg xmlns="http://www.w3.org/2000/svg" viewBox="-5 -189 882 1008"><path fill="currentColor" d="M780 771l-2 2c23-57 17-195 17-260s6-203-17-262c-16-39-46-69-85-85-57-23-195-17-260-17s-203-6-260 17c-39 16-68 46-84 85-24 57-18 195-18 260s-6 203 18 260c16 39 45 68 84 84 57 24 195 18 260 18s203 6 262-18c39-15 69-45 85-84zm94-443c4 73 4 291 0 364-4 71-20 134-71 185s-114 67-185 71c-73 4-291 4-364 0-71-4-134-20-185-71S2 763-2 692c-4-73-4-291 0-364 4-71 20-134 71-185s114-67 185-71c73-4 291-4 364 0 71 4 134 20 185 71s67 114 71 185zm-149-53c0 29-24 53-54 53-29 0-53-24-53-53 0-30 24-54 53-54 30 0 54 24 54 54zM441 653l-4 4c81 0 148-67 148-148s-65-148-146-148-146 65-146 146 67 146 148 146zm0-374c126 0 226 100 226 226S567 731 441 731 215 631 215 505s100-226 226-226z"/></svg>
