<svg xmlns="http://www.w3.org/2000/svg" viewBox="0 0 103.13 63.89"><style>.st0{fill:#707070}</style><path class="st0" d="M0 10.07V63.9h103.13V10.07H0zm102.13 52.82H1V11.07h101.13v51.82z"/><path class="st0" d="M101.37 11.83H1.76v50.3h99.61v-50.3zm-1 49.3H2.76v-48.3h97.61v48.3z"/><path class="st0" d="M23.87 42.5h10.28l2.6 6.81h2.92L30.4 25.33h-2.68L18.5 49.31h2.94l2.43-6.81zm4.72-12.77c.14-.35.27-.88.39-1.58h.08c.13.76.25 1.29.36 1.58l3.84 10.35h-8.45l3.78-10.35zM58.98 45.96c2.27-2.23 3.4-5.21 3.4-8.95 0-7.79-4.21-11.68-12.64-11.68h-6.5V49.3h6.25c4.06.01 7.22-1.11 9.49-3.34zM45.87 27.75h3.81c6.63 0 9.95 3.12 9.95 9.35 0 3.11-.89 5.51-2.66 7.23-1.77 1.71-4.26 2.57-7.44 2.57h-3.65V27.75zM82.91 45.96c2.27-2.23 3.4-5.21 3.4-8.95 0-7.79-4.21-11.68-12.64-11.68h-6.5V49.3h6.25c4.06.01 7.22-1.11 9.49-3.34zM69.8 27.75h3.81c6.63 0 9.95 3.12 9.95 9.35 0 3.11-.89 5.51-2.66 7.23-1.77 1.71-4.26 2.57-7.44 2.57H69.8V27.75zM11.78 0h3.06v7.04h-3.06zM85.48 0h3.06v7.04h-3.06z"/></svg>
