<svg xmlns="http://www.w3.org/2000/svg" viewBox="0 0 17.47 17.47"><path d="M8.73 15.56c-3.76 0-6.82-3.06-6.82-6.82s3.06-6.82 6.82-6.82c3.76 0 6.82 3.06 6.82 6.82s-3.05 6.82-6.82 6.82zm0-12.65c-3.21 0-5.82 2.61-5.82 5.82s2.61 5.82 5.82 5.82 5.82-2.61 5.82-5.82-2.61-5.82-5.82-5.82z"/><path d="M8.73 17.47C3.92 17.47 0 13.55 0 8.73S3.92 0 8.73 0s8.73 3.92 8.73 8.73-3.91 8.74-8.73 8.74zM8.73 1C4.47 1 1 4.47 1 8.73s3.47 7.73 7.73 7.73 7.73-3.47 7.73-7.73S13 1 8.73 1z"/><circle cx="8.73" cy="8.73" r="4"/></svg>
