<svg xmlns="http://www.w3.org/2000/svg" viewBox="0 0 40.97 138.62"><path d="M40.79 50.89c-.16-1.94-.37-3.88-.63-5.8-.1-.74-.43-1.44-.6-2.17-.57-2.43-1.27-4.82-2.58-6.98-.44-.73-.99-1.43-1.57-2.06-1.41-1.53-3.11-1.89-5.01-1.05-.77.34-1.53.47-2.37.26-.06-.15-.16-.3-.16-.45-.02-1.62.09-3.25-.19-4.86-.05-.31.05-.64.08-.97.07-.73-.18-1.39-.52-2.01-.22-.41-.69-.54-1.12-.34-.09.05-.17.13-.25.2-.2.19-.41.39-.7.26a.844.844 0 0 1-.51-.93c.06-.4.28-.78.46-1.24-.97-1.4-2.63-2.15-3.76-3.54-1.14.06-2.31.11-3.58.18.14-.38.24-.73.4-1.06 1.46-3.16 2.13-6.47 1.95-9.94-.09-1.8-.48-3.54-1.44-5.11C17.39 1.16 15.47.15 13 .13c-.49 0-.98-.01-1.45-.08-2.51-.34-4.32.7-5.74 3.35-.12.24-.21.49-.3.71-1.13.61-2.23 1.2-3.31 1.81-.33.18-.62.43-.92.66-1.07.82-1.03 2.56.13 3.36.35.24.76.4 1.17.53.35.12.74.1 1.09.22.34.13.91.12 1.34.36.14 1.33-.23 2.23-.33 3.62-.12 1.66.35 3.26 1.24 4.6.23.35.52.52.92.56.64.06 1.47.7 2.21.78.34 1.51.7 2.96-.28 4.37-.31.44-.53.96-.88 1.36-1.39 1.57-2.22 3.45-3.14 5.29-.72 1.45-1.38 2.94-2.07 4.41-.74 1.58-1.16 3.26-1.4 4.99-.13.9-.23 1.81-.37 2.97.8-1.45.77-2.9 1.49-4.27.31.82.19 1.46-.02 2.06-.78 2.32-1.19 4.72-1.69 7.1-.2.94-.37 1.91-.14 2.89.02.1.03.22.01.32-.42 2.93.25 5.83.3 8.75.01.81 0 1.61-.15 2.42-.3 1.65-.49 3.32-.7 4.98-.05.41.01.83.02 1.37.26-.17.38-.25.5-.33.12-.08.24-.17.5-.36-.03 1.21-.1 2.27-.1 3.33.01 1.14.07 2.27.15 3.41.07 1.08.17 2.16.27 3.33.55.28 1.12.56 1.8.9.05.95.89 1.43 1.65 1.92.06.04.11.07.16.11l-.24 4.62.44 6.22s.15 0 .39.01c.02 1.51-.02 3.01-.36 4.49-.2.83.51 1.13.54 2.11.02.55.28 1.16.18 1.75-.09.51.11 1.74-.07 1.89l1.27 1.47 4.9 23.63c-.28.02-.53.09-.67.25l.34 2.68.09.02c-1.87 1.04-7.47 2.56-9.83 4.33-.81.61.03 2.85.05 3.01.02.23 1.92.3 4.34-.03 2.06-.28 4.47-.95 6.82-1.02 2.28-.07 4.31-.1 5.53-.11.66-.01 1.16-.71 1.1-1.54l-.3-4.03c-.02-.33-.14-.62-.3-.85l-.03-2.77-.41-.07c.12-1.76.23-3.52.35-5.28.33-5.03.18-10.08-.38-15.09l.62-3.05 1.35-.37 1.53-.44-.22-4.36-.96-7c.03-.01.06-.03.1-.04.56-.21.65-.46.56-1.01-.06-.37-.16-.73-.26-1.15.76-.74 1.53-1.36 2.63-1.45.65-.05 1.28-.24 1.76-.74.41-.42.93-.52 1.49-.53.49-.01.98 0 1.46-.03.27-.01.54-.04.8-.12.74-.23 1.05-.75.94-1.49-.01-.05-.01-.11-.03-.16-.81-1.61-.64-3.39-.8-5.1-.23-2.5-.86-4.9-1.62-7.28-.36-1.13-.78-2.24-1.15-3.36-.04-.13.03-.31.06-.56.51.22.97.47 1.45.62.51.16 1.07.18 1.58.35.91.3 1.83.27 2.73.12 1.5-.24 2.76-.92 3.58-2.28 1.46-2.43 2.75-4.91 3.08-7.79.05-.41.22-.84.46-1.18.84-1.21 1.16-2.57 1.16-4-.04-1.41-.1-2.87-.22-4.33zM3.42 70.17c0 .36-.17.6-.42.82v.02c.15.72.21 1.44.01 2.34-.34-.91.01-1.63-.01-2.35v-.01c.41-.65.2-1.36.2-2.05 0-3.14-.04-6.28-.05-9.42 0-.34.06-.68.09-1.02.14.16.19.31.19.47.01 2.81.02 5.63.02 8.45.01.91-.03 1.83-.03 2.75zm3.05-36.71c.01-.01.09.08.09.08-.05.07-.1.14-.16.2l-.17-.14c.09-.04.16-.1.24-.14zm-2.31 4.93c-.02.04-.17 0-.26 0-.03-.12-.1-.24-.07-.31.54-1.11 1.08-2.22 1.64-3.33.06-.12.21-.2.53-.5-.17.54-.23.84-.36 1.1-.48 1.02-.98 2.03-1.48 3.04zm2.54 64.13l.32 1.52c-.2-.47-.38-1.05-.32-1.52zm0-23.39c-.7-.19-1.14-.7-1.51-1.28-.07-.1-.01-.29-.01-.6l1.6 1.79c.39 0 .6.23.84.54-.53.13-.75-.11-.92-.45zm3.65-42.27c-.38-.16-.79-.3-1.12-.54a.953.953 0 0 1-.34-.67c0-.31.3-.4.59-.41.16-.01.32 0 .53 0 .22.49.44.97.65 1.44-.14.08-.26.21-.31.18zm5.99-14.09c-.22.2-.38.53-.84.45-.19-.27-.4-.58-.64-.91.6-.43 1.16-.83 1.81-1.3l.33.96c-.24.3-.42.58-.66.8zm7.04 1.54c.33.04.56.35.51.68-.05.32-.4.58-.69.49-.27-.09-.44-.28-.43-.59 0-.35.29-.62.61-.58zm-2.36 61.16v-.12h.66v.12h-.66zm1.9-.27c-.09-.02-.18-.06-.27-.09.08-.04.16-.11.24-.11.05 0 .11.09.16.14-.04.02-.09.06-.13.06zm-.44-24.92l.06-.27c.05.02.12.03.13.06.03.09.03.18.04.27-.08-.02-.16-.04-.23-.06zm.99 2.64l-.07-.12.12-.01-.05.13zm.78-30.25c-.02.15-.13.29-.22.49-.35-.03-.71-.05-1.01-.07-.78-2.25-1.53-4.39-2.27-6.54-.04-.13-.02-.29-.01-.43-.01-.01-.02-.01-.03-.02 0-.01 0-.02.01-.04-.31-.11-.34-.34-.29-.62-.01 0-.02-.01-.03-.01 0-.01 0-.03.01-.05-.11-.06-.24-.11-.32-.2-.03-.04.04-.18.07-.27.09.07.21.13.26.22.03.06 0 .16-.01.25.01.01.02.01.03.01 0 .01 0 .03-.01.04.33.1.34.34.29.62.01 0 .02.01.03.01v.05c.86.54 1.62 1.13 1.81 2.25.06.34.34.69.62.92 1.04.93 1.27 2.08 1.07 3.39zM34.87 42.8c.42-.1.78-.22 1.15-.25.17-.01.47.12.52.26.17.46.14.94-.06 1.41-.14.34-.44.39-.73.49-.23.68-.73.75-1.41.6-.06-.93.31-1.69.53-2.51zm-2.96 18.77c.13-.39.25-.78.38-1.16 0-.01-.01-.02-.01-.04.01 0 .01 0 .02-.01l.3-2.65.3-2.03c.07.51.1 1.02.05 1.52-.02.18-.23.34-.35.51.05.69.1 1.38.13 2.07.01.29-.16.48-.43.58v.02c0 .01 0 .01-.01.02.05.24.11.48.12.72.03.33-.22.42-.5.45.05.19.12.38.16.57.09.41-.09.65-.5.72v.01c.18.51.33 1.01-.04 1.49v.12c-.02.01-.04.01-.06.02-.01.08-.03.17-.05.25-.01.04-.06.08-.09.12-.03-.09-.1-.21-.07-.26.04-.05.12-.08.2-.1 0-.02.01-.04.01-.07.02-.02.03-.05.05-.07.01-.5.03-.99.04-1.49v-.01c.37-.38.38-.84.35-1.3zm-1.53-10.59c.01.01.03.01.04.02.5-.29 1-.56.88-1.29-.03-.18.01-.44.38-.41.02.25.06.5.05.76-.01.3-.05.6-.08.87-.47.24-.85.28-1.23.08l-.01.01c-.01.03-.01.06-.02.08l.06.71c-.06 0-.12-.01-.19-.01.04-.23.08-.47.13-.7-.01-.05-.01-.08-.01-.12zm.67 14.7c-.03.05-.07.1-.11.15-.01-.04-.03-.08-.04-.12.02-.04.05-.08.07-.12.03.03.09.08.08.09zm-1.54-3.57c.12-2.27.23-4.54.35-6.81.01-.14.08-.27.22-.74.11 2.01.12 3.68.04 5.35-.09 1.78-.14 3.56-.21 5.34-.03.72.24 1.22 1.01 1.39.15.03.26.25.44.42-.98.3-.98.3-1.16.23-.37-.16-.64-.44-.7-.83-.08-.47-.14-.96-.13-1.43.01-.98.09-1.95.14-2.92zm3.52 6.15c-.46.11-.97.09-1.41.26-.95.36-1.75-.08-2.58-.38-.07-.02-.09-.18-.16-.35.16 0 .3-.04.4.01 1.01.44 2.04.45 3.1.15.39-.11.8-.15 1.21-.21-.15.29-.34.46-.56.52zm.96-4.79c-.02.48-.13.96-.24 1.44-.2.87-.65 1.6-1.44 2.06-.11.06-.28.01-.45.01.05-.14.06-.26.13-.31 1.03-.78 1.42-1.84 1.49-3.09.12-2.26.28-4.52.4-6.78.03-.58 0-1.16.33-1.69 0 2.78-.1 5.57-.22 8.36zm1.47-15.7c-.5.38-1.07.52-1.68.35-.22-.06-.4-.29-.6-.44 1.37.29 2.19-.57 3.07-1.25.98-.76 1.94-1.53 2.91-2.31.24.47-.08.8-.41 1.06-1.08.88-2.19 1.74-3.29 2.59zm1.71 15.58c-.32.63-.63 1.25-.95 1.88-.04-.73.21-1.32.67-1.83.05-.06.19-.03.28-.05 0-.01 0-.01 0 0v-.02l-.15-.48c.05-.01.1-.02.15-.04v.51c0 .01 0 .01.01.02 0 .01-.01.01-.01.01zm.33-1.32c-.02-.09-.04-.15-.05-.2.03.01.08.02.08.03.01.04-.01.08-.03.17zm2.28-6.36c-.1.59-.22 1.17-.34 1.75-.15.74-.3 1.49-.46 2.22-.08.36-.24.7-.76.75.15-.44.29-.82.4-1.22.11-.42.2-.84.28-1.27.09-.48.17-.96.25-1.44.07-.43.12-.86.19-1.28.06-.38-.14-.84.37-1.22.19.65.16 1.18.07 1.71z"/></svg>
