<svg xmlns="http://www.w3.org/2000/svg" viewBox="-1 -189 1008 1008"><path fill="currentColor" d="M0 966c0 24 19 42 42 42h924c24 0 42-18 42-42V788c0-23-13-56-29-71L672 462v-42l-1-8c-3-8-8-20-20-32s-32-23-66-31c-22-6-49-9-81-9-31 0-58 4-81 9-47 12-63 26-76 43-13 19-11 24-11 28v42L29 717c-16 15-29 48-29 71v178zm0-556l-1-168 8-8c17-19 56-55 139-89 56-23 116-43 210-54 47-5 96-9 147-9 70 0 135 6 197 18 63 11 109 24 144 37 35 15 66 30 94 49s45 32 53 39c7 7 14 13 17 17v168c0 23-18 39-41 35l-170-28c-23-3-41-27-41-50V244c-80-13-162-20-252-20s-172 7-252 20v123c0 23-18 47-41 50L41 445c-23 4-41-12-41-35z"/></svg>
