<svg xmlns="http://www.w3.org/2000/svg" viewBox="0 0 92.96 72.38" overflow="visible"><style>.st0{fill:#ddb75e}</style><path class="st0" d="M30.99 22.02h30.99v3.87H30.99z"/><path class="st0" d="M87.15 22.02H73.59v3.87h13.56c1.07 0 1.94.87 1.94 1.94v3.87c0 1.07-.87 1.94-1.94 1.94H75.53v3.87h7.27l-6.21 27.95a3.844 3.844 0 0 1-3.78 3.03H20.15c-1.83 0-3.38-1.25-3.78-3.03l-6.21-27.95h7.27v-3.87H5.81c-1.07 0-1.94-.87-1.94-1.94v-3.87c0-1.07.87-1.94 1.94-1.94h13.56v-3.87H5.81c-3.2 0-5.81 2.61-5.81 5.81v3.87c0 3.2 2.61 5.81 5.81 5.81h.38l6.4 28.79a7.7 7.7 0 0 0 7.56 6.07H72.8c3.66 0 6.77-2.49 7.56-6.07l6.4-28.79h.38c3.2 0 5.81-2.61 5.81-5.81v-3.87c.01-3.2-2.6-5.81-5.8-5.81z"/><path class="st0" d="M25.18 41.39h3.87v19.37h-3.87zM34.86 41.39h3.87v19.37h-3.87zM44.54 41.39h3.87v19.37h-3.87zM54.23 41.39h3.87v19.37h-3.87zM63.91 41.39h3.87v19.37h-3.87zM21.444 29.047L33.068-.003l3.593 1.438-11.624 29.05zM56.3 1.438L59.893.001l11.621 29.053-3.593 1.437z"/></svg>
