<svg xmlns="http://www.w3.org/2000/svg" viewBox="0 0 108.93 134.95" overflow="visible"><style>.st0{fill-rule:evenodd;clip-rule:evenodd;fill:#886126}</style><path class="st0" d="M78.18 80.21c-.48-.6-1.21-.96-1.98-.96H22.08c-1.39 0-2.52 1.13-2.52 2.52 0 1.39 1.13 2.52 2.52 2.52h50.93l-6.54 27.15H25.66L13.63 74.46a2.52 2.52 0 0 0-1.51-1.58L3.41 69.6a2.53 2.53 0 0 0-3.25 1.47 2.53 2.53 0 0 0 1.47 3.25l7.58 2.86 12.23 37.56a2.525 2.525 0 0 0 2.4 1.74h44.62c1.16 0 2.18-.8 2.45-1.93l7.75-32.19c.18-.75 0-1.55-.48-2.15z"/><path class="st0" d="M65 100.41c1.39 0 2.52-1.13 2.52-2.52 0-1.39-1.13-2.52-2.52-2.52H26.62c-1.39 0-2.52 1.13-2.52 2.52 0 1.39 1.13 2.52 2.52 2.52H65zM27.4 119.97c-4.13 0-7.49 3.36-7.49 7.49s3.36 7.49 7.49 7.49 7.49-3.36 7.49-7.49c0-4.13-3.36-7.49-7.49-7.49zm0 9.94c-1.35 0-2.45-1.1-2.45-2.45s1.1-2.45 2.45-2.45 2.45 1.1 2.45 2.45-1.1 2.45-2.45 2.45zM62.58 119.97c-4.13 0-7.49 3.36-7.49 7.49s3.36 7.49 7.49 7.49 7.49-3.36 7.49-7.49c0-4.13-3.36-7.49-7.49-7.49zm0 9.94c-1.35 0-2.45-1.1-2.45-2.45s1.1-2.45 2.45-2.45 2.45 1.1 2.45 2.45-1.1 2.45-2.45 2.45zM31.77 19.59l8.28.35 2.11.06V8.29h58.57v92.12h8.2V0H35.27L34 1.47l-9.42 10.87-1.01 1.15v59.86h8.2z"/><path class="st0" d="M77.84 41.1h5.86v26.21h-5.86zM62.31 41.1h5.86v26.21h-5.86zM46.78 41.55h5.86v26.21h-5.86z"/></svg>
