<svg xmlns="http://www.w3.org/2000/svg" viewBox="0 -202 756 1008"><path fill="currentColor" d="M0 493c0-106 36-194 110-268s162-110 268-110 193 36 267 110c75 74 111 162 111 268 0 105-36 193-111 268-74 74-161 110-267 110s-194-36-268-110S0 599 0 493zm527-215c-17 7-31 24-31 47 0 29 21 51 50 51 24 0 39-14 46-31s4-39-11-54c-16-15-37-18-54-13zm-90 274h-2c34-34 33-85 1-119s-86-34-118 0-33 85 1 119c32 34 86 34 118 0zm147 149c58-58 86-127 86-209H544c0 46-16 86-50 120-32 32-72 49-119 49s-86-17-120-49c-32-34-49-74-49-120H80c0 82 29 151 85 209 58 58 128 86 210 86s151-28 209-86z"/></svg>
