<svg xmlns="http://www.w3.org/2000/svg" viewBox="0 -189 1008 1008"><path fill="currentColor" d="M358 899V741c0-25 22-47 48-47h198c26 0 48 22 48 47v158c0 25-22 47-48 47H406c-26 0-48-22-48-47zm603 47H762c-26 0-47-22-47-47V741c0-25 21-47 47-47h199c25 0 47 22 47 47v158c0 25-22 47-47 47zm0-315H762c-26 0-47-22-47-47V426c0-25 21-47 47-47h199c25 0 47 22 47 47v158c0 25-22 47-47 47zM0 899V741c0-25 22-47 47-47h199c26 0 47 22 47 47v158c0 25-21 47-47 47H47c-25 0-47-22-47-47zm47-520h199c26 0 47 22 47 47v158c0 25-21 47-47 47H47c-25 0-47-22-47-47V426c0-25 22-47 47-47zm603-268v158c0 25-22 47-48 47H404c-26 0-48-22-48-47V111c0-25 22-47 48-47h198c26 0 48 22 48 47zm63 158V111c0-25 21-47 47-47h199c25 0 47 22 47 47v158c0 25-22 47-47 47H760c-26 0-47-22-47-47zm-63 157v158c0 25-22 47-48 47H404c-26 0-48-22-48-47V426c0-25 22-47 48-47h198c26 0 48 22 48 47zM293 111v158c0 25-21 47-47 47H47c-25 0-47-22-47-47V111c0-25 22-47 47-47h199c26 0 47 22 47 47z"/></svg>
