<svg xmlns="http://www.w3.org/2000/svg" viewBox="0 -190 882 1008"><path fill="currentColor" d="M356 820h-47c-14 0-24-10-24-24V371c0-14 10-24 24-24h47c14 0 24 10 24 24v425c0 14-10 24-24 24zm-197 95h567V253H159v662zm182-814l-36 57h274l-34-57c-2-3-6-6-9-6H350c-3 0-7 2-9 6zm348 57h163c18 0 32 14 32 32v31c0 18-14 32-32 32h-31v662c0 51-43 94-95 94H159c-51 0-94-43-94-94V253H33c-17 0-31-14-31-32v-31c0-18 14-32 31-32h162l67-112c15-26 51-45 81-45h198c30 0 66 19 81 45zM575 820h-47c-14 0-24-10-24-24V371c0-14 10-24 24-24h47c14 0 24 10 24 24v425c0 14-10 24-24 24z"/></svg>
