<svg xmlns="http://www.w3.org/2000/svg" viewBox="0 0 118.55 108.81"><path d="M118.54 101.65c-.22 3.93-3.53 7.01-7.53 7.01h-10.89c-1.33 0-2.31-1.14-2.24-2.47v-.03c.01-.21.01-.41.01-.62-.04-1.3.93-2.39 2.23-2.39h10.89c1.01 0 1.93-.72 2.02-1.72.11-1.15-.79-2.12-1.91-2.12h-3.14c-1.04 0-1.88-.84-1.88-1.88V61.3c0-1.03-.84-1.87-1.87-1.87h-17.2v-5.51h17.2c4.08 0 7.38 3.31 7.38 7.38v32.52c1.85.12 3.62.95 4.9 2.3a7.484 7.484 0 0 1 2.03 5.53zM97.38 82.79h3.87c.42 0 .77-.35.77-.77v-5.19c0-.42-.35-.77-.77-.77h-3.87a.77.77 0 0 0-.77.77v5.19c-.01.43.34.77.77.77zm-7.98 0h3.88c.42 0 .77-.35.77-.77v-5.19c0-.42-.35-.77-.77-.77H89.4c-.42 0-.77.35-.77.77v5.19c0 .43.35.77.77.77zm0-10.09h3.88c.42 0 .77-.35.77-.77v-5.19c0-.42-.35-.77-.77-.77H89.4c-.42 0-.77.35-.77.77v5.19c0 .42.35.77.77.77zm7.98 0h3.87c.42 0 .77-.35.77-.77v-5.19c0-.42-.35-.77-.77-.77h-3.87a.77.77 0 0 0-.77.77v5.19c-.01.42.34.77.77.77zm-79.31 30.46H7.54c-1.01 0-1.93-.72-2.02-1.72-.11-1.15.79-2.12 1.91-2.12h3.14c1.04 0 1.88-.84 1.88-1.88V61.31c0-1.04.84-1.88 1.88-1.88h17.21v-5.51H14.32c-4.08 0-7.38 3.3-7.38 7.38v32.53a7.43 7.43 0 0 0-6.93 7.8c.22 3.95 3.53 7.03 7.53 7.03h10.53c1.5 0 2.63-1.26 2.6-2.76v-.06c-.01-1.46-1.13-2.68-2.6-2.68zm-.76-20.37h3.87c.43 0 .77-.35.77-.77v-5.19c0-.42-.35-.77-.77-.77h-3.87c-.42 0-.77.35-.77.77v5.19c0 .43.35.77.77.77zm7.97 0h3.88c.42 0 .77-.35.77-.77v-5.19c0-.42-.35-.77-.77-.77h-3.88c-.42 0-.77.35-.77.77v5.19c.01.43.35.77.77.77zm0-10.09h3.88c.42 0 .77-.35.77-.77v-5.19c0-.42-.35-.77-.77-.77h-3.88c-.42 0-.77.35-.77.77v5.19c.01.42.35.77.77.77zm-7.97 0h3.87c.43 0 .77-.35.77-.77v-5.19c0-.42-.35-.77-.77-.77h-3.87c-.42 0-.77.35-.77.77v5.19c0 .42.35.77.77.77zm72.99 30.06c1.72 0 3.1 1.44 3.01 3.17-.09 1.63-1.55 2.85-3.18 2.85l-61.88.02h-.01c-1.17 0-2.28-.64-2.73-1.71-.93-2.2.66-4.31 2.74-4.31v-.03h4.92c1.62 0 2.94-1.32 2.94-2.94V43.18c0-1.62 1.32-2.94 2.94-2.94H79.5c1.62 0 2.94 1.32 2.94 2.94v56.64c0 1.62 1.32 2.94 2.94 2.94h4.92zM67.54 59.84c0 .66.54 1.2 1.2 1.2h6.07c.66 0 1.2-.54 1.2-1.2V51.7c0-.66-.54-1.2-1.2-1.2h-6.07c-.66 0-1.2.54-1.2 1.2v8.14zm0 15.81c0 .66.54 1.2 1.2 1.2h6.07c.66 0 1.2-.54 1.2-1.2v-8.13c0-.66-.54-1.2-1.2-1.2h-6.07c-.66 0-1.2.54-1.2 1.2v8.13zm-12.5-15.81c0 .66.54 1.2 1.2 1.2h6.07c.66 0 1.2-.54 1.2-1.2V51.7c0-.66-.54-1.2-1.2-1.2h-6.07c-.66 0-1.2.54-1.2 1.2v8.14zm0 15.81c0 .66.54 1.2 1.2 1.2h6.07c.66 0 1.2-.54 1.2-1.2v-8.13c0-.66-.54-1.2-1.2-1.2h-6.07c-.66 0-1.2.54-1.2 1.2v8.13zM42.54 51.7v8.13c0 .66.54 1.2 1.2 1.2h6.07c.66 0 1.2-.54 1.2-1.2V51.7c0-.66-.54-1.2-1.2-1.2h-6.07c-.66 0-1.2.54-1.2 1.2zm7.27 25.15c.66 0 1.2-.54 1.2-1.2v-8.13c0-.66-.54-1.2-1.2-1.2h-6.07c-.66 0-1.2.54-1.2 1.2v8.13c0 .66.54 1.2 1.2 1.2h6.07zm10.97 5.5v20.42h7.99V83.55c0-.66-.54-1.2-1.2-1.2H50.98c-.66 0-1.2.54-1.2 1.2v19.22h7.99V82.35h3.01zm-5.74 8.76a1.451 1.451 0 0 0 0 2.9 1.451 1.451 0 0 0 0-2.9zm8.48 2.9a1.451 1.451 0 0 0 0-2.9 1.451 1.451 0 0 0 0 2.9zM52.25 14.66c.22.22.32.53.27.84l-1.17 6.81c-.13.77.68 1.36 1.37.99l6.11-3.21c.27-.14.6-.14.88 0l6.11 3.21c.69.36 1.5-.22 1.37-.99l-1.17-6.81c-.05-.31.05-.62.27-.84l4.94-4.82c.56-.55.25-1.5-.52-1.61l-6.83-.99a.958.958 0 0 1-.7-.52L60.12.53c-.35-.7-1.35-.7-1.69 0l-3.06 6.19c-.14.28-.4.47-.71.52l-6.83.99c-.77.11-1.08 1.06-.52 1.61l4.94 4.82zm25.81 8.38l5.15-.47c.23-.02.46.07.61.25l3.31 3.97c.37.45 1.1.28 1.23-.3l1.14-5.04a.7.7 0 0 1 .43-.5l4.8-1.92c.54-.22.6-.96.1-1.26l-4.44-2.64a.693.693 0 0 1-.34-.56l-.34-5.16a.705.705 0 0 0-1.17-.48l-3.89 3.41c-.17.15-.41.21-.64.15L79 11.22a.705.705 0 0 0-.82.96l2.04 4.75c.09.21.07.46-.05.66l-2.76 4.37c-.32.49.07 1.13.65 1.08zm32.48 11.41l-2.59-3.47a.586.586 0 0 1-.09-.54l1.39-4.1a.592.592 0 0 0-.75-.75l-4.1 1.39c-.18.06-.39.03-.54-.09l-3.47-2.59a.588.588 0 0 0-.94.48l.06 4.33c0 .19-.09.38-.25.49l-3.53 2.5c-.4.28-.3.9.17 1.05l4.13 1.28c.19.06.33.2.39.39l1.28 4.13c.15.47.76.57 1.05.17l2.5-3.53c.11-.16.3-.25.49-.25l4.33.06c.47 0 .76-.55.47-.95zM41.16 21.96l-2.76-4.37a.732.732 0 0 1-.05-.66l2.04-4.75c.23-.54-.26-1.11-.82-.96l-5.01 1.27c-.23.06-.46 0-.64-.15l-3.89-3.41a.705.705 0 0 0-1.17.48l-.34 5.16c-.02.23-.14.44-.34.56l-4.44 2.64c-.5.3-.44 1.05.1 1.26l4.8 1.92a.7.7 0 0 1 .43.5l1.14 5.04c.13.57.86.75 1.23.3l3.31-3.97c.15-.18.38-.27.61-.25l5.15.47c.57.05.96-.59.65-1.08zM8.5 35.4l4.33-.06c.19 0 .38.09.49.25l2.5 3.53c.28.4.9.3 1.05-.17l1.28-4.13c.06-.19.2-.33.39-.39l4.13-1.28c.47-.15.57-.76.17-1.05l-3.53-2.5a.597.597 0 0 1-.25-.49l.06-4.33a.588.588 0 0 0-.94-.48l-3.47 2.59c-.16.12-.36.15-.54.09l-4.1-1.39a.592.592 0 0 0-.75.75l1.39 4.1c.06.18.03.39-.09.54l-2.59 3.47c-.3.4-.02.95.47.95z" fill="#fff"/></svg>
