<svg xmlns="http://www.w3.org/2000/svg" viewBox="0 0 38.16 54.09" overflow="visible"><path d="M3.19 16.01c0-4.48 1.52-8.19 4.7-11.38C11.08 1.44 14.79 0 19.19 0c4.48 0 8.19 1.44 11.23 4.63 3.19 3.19 4.7 6.9 4.7 11.38 0 4.4-1.52 8.12-4.7 11.3-3.03 3.03-6.75 4.63-11.23 4.63-4.4 0-8.12-1.59-11.3-4.63-3.19-3.19-4.7-6.9-4.7-11.3zm25.49 0v-.08c0-2.73-.99-4.78-2.81-6.68s-4.1-2.81-6.75-2.81-4.93.91-6.83 2.81c-1.82 1.82-2.73 4.02-2.73 6.75 0 2.66.91 4.93 2.73 6.75 1.9 1.82 4.17 2.81 6.83 2.81 2.73 0 4.93-.99 6.75-2.81 1.89-1.89 2.81-4.09 2.81-6.74zM5.31 38.92h-.08c3.57-2.66 8.12-3.87 13.81-3.87 5.61 0 10.09 1.21 13.65 3.87 3.64 2.58 5.46 5.54 5.46 8.88 0 1.59-1.74 3.11-5.54 4.32-3.64 1.29-8.04 1.97-13.5 1.97-5.77 0-10.24-.53-13.81-1.97C1.74 50.9 0 49.39 0 47.79c0-3.34 1.74-6.29 5.31-8.87zm25.79 7.13l-.15.08c-1.74-2.58-6.07-4.78-12.06-4.78-6.07 0-10.47 2.05-12.06 4.7 3.19 1.14 7.21 1.74 12.21 1.74 5.08 0 9.03-.6 12.06-1.74z" fill="#69533b"/></svg>
