<svg xmlns="http://www.w3.org/2000/svg" viewBox="0 0 206.63 240"><path d="M206.63 103.32C206.63 46.35 160.28 0 103.32 0S0 46.35 0 103.32c0 15.71 3.44 30.81 10.22 44.86 1.39 2.89 4.86 4.1 7.76 2.71a5.815 5.815 0 0 0 3.23-5.98l.29.41 2.33 26.98a3.515 3.515 0 0 0 3.78 3.18l26.18-2.26a3.515 3.515 0 0 0 3.18-3.78l-5.18-60.07a3.515 3.515 0 0 0-3.78-3.18l-26.18 2.26a3.515 3.515 0 0 0-3.18 3.78l1.27 14.75H14.7a91.574 91.574 0 0 1-3.08-23.66c0-50.56 41.14-91.7 91.7-91.7s91.7 41.14 91.7 91.7c0 8.1-1.04 16.01-3.08 23.66h-5.22l1.27-14.75a3.508 3.508 0 0 0-3.18-3.78l-26.18-2.26c-1.91-.17-3.61 1.26-3.78 3.18l-5.18 60.07c-.17 1.91 1.26 3.61 3.18 3.78l26.18 2.26c1.91.17 3.61-1.26 3.78-3.18l2.33-26.98.29-.41c-.31 2.41.92 4.86 3.23 5.98.77.37 1.58.55 2.39.57-2.16 15.95-7.45 42.47-19.67 57.23-8.84 10.68-17 14.96-22.94 16.59v-4.79c0-1.26-1.03-2.29-2.29-2.29h-22.63c-1.26 0-2.29 1.03-2.29 2.29v17.23c0 1.26 1.03 2.29 2.29 2.29h22.63c1.26 0 2.29-1.03 2.29-2.29v-5.5c7.37-1.6 17.53-6.36 28.16-19.21 8.29-10.01 14.61-25.61 18.79-46.35 2.06-10.22 3.05-19.08 3.49-23.98 5.14-12.47 7.75-25.68 7.75-39.36z" fill="#223541"/></svg>
