<svg xmlns="http://www.w3.org/2000/svg" viewBox="0 0 19.73 26.12" overflow="visible"><style>.st0{fill:#333}</style><path class="st0" d="M9.87 12.84c-3.54 0-6.42-2.88-6.42-6.42S6.33 0 9.87 0s6.42 2.88 6.42 6.42-2.88 6.42-6.42 6.42zm0-12.09C6.74.75 4.2 3.29 4.2 6.42s2.54 5.67 5.67 5.67 5.67-2.54 5.67-5.67S12.99.75 9.87.75zM19.36 26.12H.38a.38.38 0 0 1-.38-.38c0-4.45 1.39-9.83 4.04-11.52 1.08-.69 2.28-.74 3.57-.14 1.27.59 2.96.56 4.31-.08 1.21-.57 2.41-.51 3.49.17 2.71 1.71 4.33 7.23 4.33 11.57-.01.21-.17.38-.38.38zM.75 25.37h18.23c-.09-4-1.59-9.05-3.97-10.56-.87-.55-1.78-.59-2.77-.13-1.55.73-3.49.77-4.95.08-1.05-.49-1.98-.46-2.85.09C2.12 16.34.83 21.29.75 25.37z"/></svg>
