<svg xmlns="http://www.w3.org/2000/svg" viewBox="0 0 225.22 188.99"><style>.st0{fill:#f4ed62}</style><path class="st0" d="M74.25 158.21l3.87 6.56 8.92-5.26 3.87 6.56 8.92-5.26 3.87 6.56 8.92-5.26 8.92-5.26 8.92-5.26 8.92-5.26 5.05-2.98 4.81-2.83 8.04-4.74 8.92-5.26 8.92-5.26 9.81-5.78-3.87-6.56 8.92-5.26-3.87-6.56 8.92-5.26-3.87-6.56 8.92-5.26-3.87-6.56 8.92-5.26-3.87-6.56-4.29-7.27-3.45-5.85 8.92-5.26-4.29-7.27-3.45-5.85-4.29-7.27-8.92 5.26-3.45-5.84-4.29-7.27-8.92 5.26-3.87-6.56-.03.02-3.77-6.39-8.92 5.26-2.55-4.33-1.47-2.5-8.92 5.26-3.72-6.31-8.92 5.26-9.81 5.78-8.04 4.74-3.77-6.39-8.92 5.26-8.91 5.25-7.64 4.5-2.19 1.29-8.02 4.73-9.81 5.78.08.14 3.63 6.16.05.08-8.04 4.74-9.81 5.78-8.92 5.26 3.72 6.31-8.92 5.26.08.14 3.94 6.69-8.92 5.26 3.77 6.39-.03.02 3.87 6.56-8.92 5.26 4.29 7.27 3.45 5.84-8.92 5.26 4.29 7.27 3.45 5.85 4.29 7.27 8.92-5.26 3.87 6.56 3.87 6.56 3.87 6.56 8.92-5.26 3.87 6.56 8.95-5.25zM66.67 43.29l1.62 2.75-8.04 4.74-3.16-5.36 8.04-4.74 1.54 2.61zm86.24 85.03l-8.04 4.74-3.25-5.51 8.04-4.74 1.62 2.75 1.63 2.76zM52.67 60.35l1.5 2.54-8.04 4.74-1.58-2.68-1.54-2.61 8.04-4.74 1.62 2.75zm40.75-32.83l1.62 2.75-4.02 2.37-4 2.36-3.16-5.36 8.02-4.73 1.54 2.61zm20.96-7.27l8.04-4.74 1.95 3.31 1.17 1.98-8.04 4.74L116 23l-1.62-2.75zm49.84 23.27l8.04-4.74 3.25 5.51-8.04 4.74-1.62-2.75-1.63-2.76zm6.53 74.28l-8.04 4.74-1.62-2.75-1.62-2.75 8.04-4.74 1.62 2.75 1.62 2.75zm-18.58 7.25l-1.62-2.75 8.04-4.74 3.25 5.51-8.04 4.74-1.63-2.76zm-17.16 13.83l-8.04 4.74-3.25-5.51 8.04-4.74 1.62 2.75 1.63 2.76zm-8.93 5.26l-8.04 4.74-1.62-2.75-1.62-2.75 8.04-4.74 1.62 2.75 1.62 2.75zM51.72 99.6l-8.04 4.74-3.25-5.51 8.04-4.74 1.62 2.75 1.63 2.76zm-6.23-12.59l3.4-2.01 4.64-2.74 1.62 2.75 1.62 2.75-8.04 4.74-1.62-2.75-1.62-2.74zm119.47-40.22l1.62 2.75-8.04 4.74-3.25-5.51 8.04-4.74 1.63 2.76zm9.36 15.87l-8.04 4.74-1.62-2.75-1.62-2.75 8.04-4.74 1.62 2.75 1.62 2.75zm-3.56 12.35l8.04-4.74 3.25 5.51-8.04 4.74-1.62-2.75-1.63-2.76zM64.88 49.44l4.02-2.37 1.54 2.61 1.58 2.68-8.04 4.74-1.49-2.53-1.62-2.75 4.01-2.38zm39.69-23.41l1.62 2.75 1.49 2.53-8.04 4.74-.82-1.4-.67-1.14-1.62-2.75 4.02-2.37 4.02-2.36zm20.36 14.13l.03-.02 3.25 5.51-8.04 4.74-1.62-2.75-1.62-2.75.4-.24 7.6-4.49zm48.2 40.88l-8.04 4.74-1.62-2.75-1.62-2.75 8.04-4.74 1.62 2.75 1.62 2.75zm-10.11 23.64l-8.04 4.74-1.62-2.75-1.62-2.75 8.04-4.74 2.25 3.82.99 1.68zm-5.06 11.82l-8.04 4.74-1.62-2.75-1.62-2.75 8.04-4.74 1.62 2.75 1.62 2.75zM63.33 76.49l4.93-2.91 3.11-1.84L73 74.5l1.62 2.75-8.04 4.74-1.62-2.75-1.63-2.75zm74.12-17.19l8.04-4.74 1.62 2.75 1.62 2.75-8.04 4.74-1.62-2.75-1.62-2.75zm-34.26 64.4l8.04-4.74 1.62 2.75 1.62 2.75-8.04 4.74-1.62-2.75-1.62-2.75zm41.99-51.28l8.04-4.74 3.25 5.51-8.04 4.74-1.62-2.75-1.63-2.76zm-1.19 18.38l8.04-4.74 1.62 2.75 1.62 2.75-8.04 4.74-1.62-2.75-1.62-2.75zm-48.85.87l-8.04 4.74-1.62-2.75-1.62-2.75 8.04-4.74 1.62 2.75 1.62 2.75zm33.07 33.54l-3.25-5.51 4.03-2.38 3.96-2.33 3.25 5.51-3.96 2.33-4.03 2.38zm-26.82-63.74l-7.99 4.71-3.25-5.51 7.99-4.71 3.25 5.51zm.62 1.05l3.25 5.51-7.99 4.71-3.25-5.51 4.03-2.38 3.96-2.33zm3.87 6.56l3.25 5.51-4.03 2.38-3.96 2.33-3.25-5.51 3.96-2.33 4.03-2.38zm18.46 49.57l-3.25-5.51 4.03-2.38 3.96-2.33 3.25 5.51-4.03 2.38-3.96 2.33zm-7.73-13.12l-3.25-5.51 4.03-2.38 3.96-2.33 3.25 5.51-3.96 2.33-4.03 2.38zm-3.87-6.56l-3.25-5.51 7.99-4.71 3.25 5.51-6.55 3.86-1.44.85zM105 85.85l-3.25-5.51 7.99-4.71 3.25 5.51-3.96 2.33-4.03 2.38zm8.61-3.65l3.25 5.51-7.99 4.71-3.25-5.51 7.99-4.71zm11.6 19.67l3.25 5.51-7.99 4.71-3.25-5.51 7.99-4.71zm8.05 11.52l-1.62-2.75-1.62-2.75 8.04-4.74 3.25 5.51-8.05 4.73zm4.18-11.3l-8.04 4.74-1.62-2.75-1.62-2.75 8.04-4.74 1.62 2.75 1.62 2.75zm-3.87-6.56l-8.04 4.74-1.62-2.75-1.62-2.75 8.04-4.74 1.62 2.75 1.62 2.75zm-3.87-6.56l-8.04 4.74-1.62-2.75-1.62-2.75 8.04-4.74 1.62 2.75 1.62 2.75zm-3.87-6.56l-8.04 4.74-1.62-2.75-1.62-2.75 8.04-4.74 1.62 2.75 1.62 2.75zM97.64 55.07l-3.51 2.07-4.51 2.66L88 57.05l-1.62-2.75 8.02-4.73 1.62 2.75 1.62 2.75zm-12.05-2.1l-1.62-2.75-.45-.76-1.04-1.77 1.29-.76 6.73-3.97 1.58 2.68 1.54 2.61-8.03 4.72zm4.25-11.12l-1.29.76-6.73 3.97-1.58-2.68-1.54-2.61 8.02-4.73 1.62 2.75 1.5 2.54zM73.55 52.94l8.02-4.73 3.12 5.29-8.02 4.73-1.54-2.61-1.58-2.68zm17.84-10.52l8.02-4.73 1.58 2.68 1.54 2.61-8.02 4.73-3.12-5.29zM74.16 56l1.62 2.75-8.04 4.74-1.62-2.75-1.49-2.54 8.04-4.74L74.16 56zm10.89 16.52l8.04-4.74 1.62 2.75 1.62 2.75-8.04 4.74-1.62-2.75-1.62-2.75zm3.86 6.56l8.04-4.74 1.62 2.75 1.62 2.75-8.04 4.74-1.62-2.75-1.62-2.75zm3.87 6.56l8.04-4.74 1.62 2.75 1.62 2.75-8.04 4.74-1.62-2.75-1.62-2.75zm57.45 17.74l-8.04 4.74-1.62-2.75-1.62-2.75 8.04-4.74 1.62 2.75 1.62 2.75zm-3.87-6.55l-8.04 4.74-1.62-2.75-1.62-2.75 8.04-4.74 1.62 2.75 1.62 2.75zm-11.91-1.82l-1.62-2.75-1.62-2.75 8.04-4.74 3.25 5.51-8.05 4.73zm4.17-11.3l-8.04 4.74-1.62-2.75-1.62-2.75 8.04-4.74 1.62 2.75 1.62 2.75zm-11.9-1.82l-1.62-2.75-1.62-2.75 8.04-4.74 3.25 5.51-8.05 4.73zm-4.75-6.04l-8.04 4.74-3.25-5.51 8.04-4.74 1.62 2.75 1.63 2.76zm-10.51-38.14l-8.04 4.74-1.62-2.75-1.49-2.54 8.04-4.74 1.58 2.68 1.53 2.61zM64.82 60.56l.49.84 1.54 2.61-8.04 4.74-1.54-2.61-.61-1.03-.97-1.65 8.04-4.74 1.09 1.84zm12.63-1.01l8.02-4.73 3.25 5.51-.02.01-4.89 2.88-3.11 1.84-1.62-2.75-1.63-2.76zm3.73 6.41l6.95-4.1 1.09-.64 3.25 5.51-8.04 4.74-1.62-2.75-1.63-2.76zm-5.06 11.82l8.04-4.74 1.62 2.75 1.62 2.75-8.04 4.74-1.62-2.75-1.62-2.75zm8.48 16.39l1.62 2.75-8.04 4.74-3.25-5.51 8.04-4.74 1.63 2.76zm12.05-1.97l8.04-4.74 1.62 2.75 1.62 2.75-8.04 4.74-1.62-2.75-1.62-2.75zm3.87 6.56l8.04-4.74 1.62 2.75 1.62 2.75-8.04 4.74-1.62-2.75-1.62-2.75zm3.86 6.56l8.04-4.74 3.25 5.51-8.04 4.74-1.62-2.75-1.63-2.76zm3.87 6.55l8.04-4.74 3.25 5.51-8.04 4.74-1.62-2.75-1.63-2.76zm3.87 6.56l8.04-4.74 1.62 2.75 1.62 2.75-8.04 4.74-1.62-2.75-1.62-2.75zm19.96 13.34l-3.25-5.51 3.96-2.33 4.03-2.38 3.25 5.51-4.03 2.38-3.96 2.33zm13.09-16.57l-8.04 4.74-1.62-2.75-1.62-2.75 8.04-4.74 1.62 2.75 1.62 2.75zm2.38-36.75l-8.04 4.74-1.62-2.75-1.62-2.75 8.04-4.74 1.62 2.75 1.62 2.75zm-16.66-7.86l-8.04 4.74-1.62-2.75-1.62-2.75 8.04-4.74 1.62 2.75 1.62 2.75zm-12.79-1.3l-8.04 4.74-1.62-2.75-1.62-2.75 8.04-4.74 1.62 2.75 1.62 2.75zm-3.87-6.56l-8.04 4.74-1.62-2.75-1.62-2.75 8.04-4.74 1.62 2.75 1.62 2.75zm-3.87-6.56l-8.04 4.74-1.62-2.75-1.62-2.75 8.04-4.74 1.62 2.75 1.62 2.75zm18.94-28.98l-8.04 4.74-1.54-2.61-1.58-2.68 8.04-4.74 1.49 2.54 1.63 2.75zm-8.92 5.26l-8.04 4.74-1.54-2.61-.61-1.03-.97-1.65 8.04-4.74 3.12 5.29zM57.94 69.27l-8.04 4.74-1.62-2.75-.45-.76-1.04-1.77 8.04-4.74.82 1.4.67 1.14 1.62 2.74zm18.62-9.2l1.62 2.75 1.62 2.75-8.04 4.74-3.25-5.51 8.05-4.73zm-4.31 11.15l8.04-4.74 1.62 2.75 1.62 2.75-8.04 4.74-1.62-2.75-1.62-2.75zm2.99 7.08l1.62 2.75 1.62 2.75-8.04 4.74-3.25-5.51 8.05-4.73zm4.75 6.04l8.04-4.74 3.25 5.51-8.04 4.74-1.62-2.75-1.63-2.76zm7.73 13.12l8.04-4.74 1.62 2.75L99 98.22l-8.04 4.74-1.62-2.75-1.62-2.75zm3.87 6.56l8.04-4.74 1.62 2.75 1.62 2.75-8.04 4.74-1.62-2.75-1.62-2.75zm3.87 6.56l8.04-4.74 1.62 2.75 1.62 2.75-8.04 4.74-.99-1.69-2.25-3.81zm3.87 6.56l8.04-4.74 1.62 2.75 1.62 2.75-8.04 4.74-1.62-2.75-1.62-2.75zm16.65 7.85l8.04-4.74 3.25 5.51-8.04 4.74-1.62-2.75-1.63-2.76zm38.11-15.05l-8.04 4.74-1.62-2.75-1.62-2.75 8.04-4.74 1.62 2.75 1.62 2.75zm5.06-11.82l-8.04 4.74-3.25-5.51 8.04-4.74 1.62 2.75 1.63 2.76zm5.06-11.82l-8.04 4.74-3.25-5.51 8.04-4.74 1.62 2.75 1.63 2.76zM151.42 85l-8.04 4.74-1.62-2.75-1.62-2.75 8.04-4.74 1.62 2.75 1.62 2.75zm-7.74-13.11l-8.04 4.74-3.25-5.51 8.04-4.74 1.62 2.75 1.63 2.76zm-3.87-6.56l-8.04 4.74-1.62-2.75-1.62-2.75 8.04-4.74 1.62 2.75 1.62 2.75zm-12.79-1.3l-8.04 4.74-1.62-2.75-1.62-2.75 8.04-4.74 1.62 2.75 1.62 2.75zm-3.87-6.56l-8.04 4.74-1.62-2.75-1.62-2.75 8.04-4.74 1.62 2.75 1.62 2.75zm-3.86-6.56l-8.04 4.74-1.62-2.75-1.63-2.75 8.04-4.74 1.62 2.75 1.63 2.75zm-12.73-1.1l-8.02 4.73-3.25-5.51 8.02-4.73 1.62 2.75 1.63 2.76zM95.65 31.3l1.54 2.61.61 1.03.97 1.65-8.02 4.73-.82-1.4-2.29-3.89 4-2.36 4.01-2.37zM77.8 41.82l3.12 5.29-8.02 4.73-3.12-5.29 4.02-2.37 4-2.36zM71.07 89.6l8.04-4.74 1.62 2.75 1.62 2.75-8.04 4.74-1.62-2.75-1.62-2.75zm-5.06 11.82l8.04-4.74 3.25 5.51-8.04 4.74-1.62-2.75-1.63-2.76zm12.79 1.3l8.04-4.74 1.62 2.75 1.62 2.75-8.04 4.74-1.62-2.75-1.62-2.75zm3.87 6.56l8.04-4.74 1.62 2.75 1.62 2.75-8.04 4.74-1.62-2.75-1.62-2.75zm3.87 6.56l8.04-4.74 1.62 2.75 1.62 2.75-8.04 4.74-1.62-2.75-1.62-2.75zm3.86 6.56l8.04-4.74 1.62 2.75 1.62 2.75-8.04 4.74-1.62-2.75-1.62-2.75zm16.66 7.85l8.04-4.74 1.62 2.75 1.62 2.75-8.04 4.74-1.62-2.75-1.62-2.75zm12.79 1.3l8.04-4.74 1.62 2.75 1.62 2.75-8.04 4.74-1.62-2.75-1.62-2.75zM141 126.5l-1.62-2.75-1.62-2.75 8.04-4.74 3.25 5.51-8.05 4.73zm27.07-33.64l-8.04 4.74-1.62-2.75-1.62-2.75 8.04-4.74 1.62 2.75 1.62 2.75zm-7.73-13.12l-8.04 4.74-1.62-2.75-1.62-2.75 8.04-4.74 1.62 2.75 1.62 2.75zm5.05-11.82l-8.04 4.74-1.62-2.75-1.62-2.75 8.04-4.74 1.62 2.75 1.62 2.75zm-12.79-1.29l-8.04 4.74-1.62-2.75-1.62-2.75 8.04-4.74 1.62 2.75 1.62 2.75zm-16.66-7.86l-8.04 4.74-1.62-2.75-1.62-2.76 8.04-4.74 1.62 2.75 1.62 2.76zm-3.86-6.56l-8.04 4.74-1.62-2.75-1.62-2.75 8.04-4.74 1.62 2.75 1.62 2.75zm-16.6-7.67l-8.04 4.74-1.62-2.75-1.62-2.75 8.04-4.74 1.62 2.75 1.62 2.75zm-30.9-11.62l1.54 2.61-4 2.36-2.25 1.32-1.77 1.05-1.62-2.75-1.54-2.61 8.02-4.73 1.62 2.75zM37.85 73.99l8.04-4.74 3.12 5.29-8.04 4.74-1.54-2.61-1.58-2.68zm21.75-3.91l8.04-4.74 3.25 5.51-3.4 2.01-4.64 2.74-1.62-2.75-1.63-2.77zm-5.19 11.67l8.04-4.74 1.62 2.75 1.62 2.75-8.04 4.74-1.62-2.75-1.62-2.75zm3.87 6.56l8.04-4.74 3.25 5.51-8.04 4.74-1.62-2.75-1.63-2.76zm3.86 6.56l8.04-4.74 1.62 2.75 1.62 2.75-8.04 4.74-1.62-2.75-1.62-2.75zm-5.05 11.82l8.04-4.74 1.62 2.75 1.62 2.75-8.04 4.74-1.62-2.75-1.62-2.75zm12.79 1.29l8.04-4.74 1.62 2.75 1.62 2.75-8.04 4.74-1.62-2.75-1.62-2.75zm3.87 6.56l8.04-4.74 1.62 2.75 1.62 2.75-8.04 4.74-1.62-2.75-1.62-2.75zm3.86 6.56l8.04-4.74 1.62 2.75 1.62 2.75-8.04 4.74-1.62-2.75-1.62-2.75zm13.54 4.57l1.62 2.75-8.04 4.74-3.25-5.51 8.04-4.74 1.63 2.76zm3.12 3.29l8.04-4.74 3.25 5.51-8.04 4.74-1.62-2.75-1.63-2.76zm3.87 6.56l8.04-4.74 3.25 5.51-8.04 4.74-1.62-2.75-1.63-2.76zm12.79 1.29l8.04-4.74 3.25 5.51-8.04 4.74-1.62-2.75-1.63-2.76zm25.01 1.51l-3.25-5.51 4.03-2.38 3.96-2.33 3.25 5.51-4.03 2.38-3.96 2.33zm30.94-27.08l-8.04 4.74-1.62-2.75-1.62-2.75 8.04-4.74 1.62 2.75 1.62 2.75zm2.08-18.9l-1.62-2.75-1.62-2.75 8.04-4.74 3.24 5.5-8.04 4.74zm.3-17.86l-8.04 4.74-1.62-2.75-1.62-2.75 8.04-4.74 1.62 2.75 1.62 2.75zm-7.73-13.12l-8.04 4.74-1.62-2.75-1.62-2.75 8.04-4.74 1.62 2.75 1.62 2.75zm-3.87-6.55l-8.04 4.74-3.25-5.51 8.04-4.74 1.62 2.75 1.63 2.76zm-12.79-1.3l-8.04 4.74-1.62-2.75-1.62-2.75 8.04-4.74 1.62 2.75 1.62 2.75zM141 46.95l-8.04 4.74-1.62-2.75-1.62-2.75 8.04-4.74 1.62 2.75 1.62 2.75zm-16.59-7.67l-6.57 3.87-1.47.87-1.62-2.75-1.62-2.75 8.04-4.74 1.62 2.75 1.62 2.75zm13.82-17.35l-8.04 4.74-1.54-2.61-1.58-2.68 8.04-4.74 1.58 2.68 1.54 2.61zM50.68 75.34l8.04-4.74 1.62 2.75 1.62 2.75-8.04 4.74-1.62-2.75-1.62-2.75zm-1.33 18.23l8.04-4.74 1.62 2.75 1.62 2.75-8.04 4.74-1.62-2.75-1.62-2.75zm3.87 6.56l8.04-4.74 1.62 2.75 1.62 2.75-8.04 4.74-1.62-2.75-1.62-2.75zm-5.05 11.82l8.04-4.74 1.62 2.75 1.62 2.75-8.04 4.74-1.62-2.75-1.62-2.75zm12.79 1.29L69 108.5l1.62 2.75 1.62 2.75-8.04 4.74-1.62-2.74-1.62-2.76zm3.86 6.56l8.04-4.74 1.62 2.75 1.62 2.75-8.04 4.74-1.62-2.75-1.62-2.75zm3.87 6.56l8.04-4.74 1.62 2.75 1.62 2.75-8.04 4.74-1.62-2.75-1.62-2.75zm16.66 7.86l8.04-4.74 1.62 2.75 1.62 2.75-8.04 4.74-1.62-2.75-1.62-2.75zm3.87 6.56l8.04-4.74 1.62 2.75 1.62 2.75-8.04 4.74-1.62-2.75-1.62-2.75zm12.79 1.29l8.04-4.74 1.62 2.75 1.62 2.75-8.04 4.74-.99-1.69-2.25-3.81zm73.8-36.09l-8.04 4.74-1.62-2.75-1.62-2.75 8.04-4.74 1.62 2.75 1.62 2.75zm-3.87-6.56l-8.04 4.74-3.25-5.51 8.04-4.74 1.62 2.75 1.63 2.76zm-1.8-25.46l-1.62-2.75-1.62-2.75 8.04-4.74 3.25 5.51-8.05 4.73zm5.06-11.82l-1.62-2.75-1.62-2.75L180 51.9l3.25 5.51-8.05 4.73zm-4.75-6.04l-8.04 4.74-1.62-2.75-1.62-2.75 8.04-4.74 1.62 2.75 1.62 2.75zm-16.66-7.85l-8.04 4.74-1.62-2.75-1.62-2.75 8.04-4.74 1.62 2.75 1.62 2.75zm-3.87-6.56l-8.04 4.74-1.62-2.75-1.62-2.75 8.04-4.74 1.62 2.75 1.62 2.75zm-12.79-1.3l-8.04 4.74-3.25-5.51 8.04-4.74 1.62 2.75 1.63 2.76zm-3.8-6.37l-8.01 4.72-.03.02-1.62-2.75-1.62-2.75 8.04-4.74 1.62 2.75 1.62 2.75zM41.75 80.6l8.04-4.74 1.62 2.75 1.62 2.75-4.93 2.91-3.1 1.84-1.62-2.75-1.63-2.76zm5.53 31.87l1.62 2.75 1.62 2.75-8.04 4.74-3.25-5.51 8.05-4.73zm4.75 6.04l8.04-4.74 1.62 2.75 1.62 2.75-8.04 4.74-1.62-2.75-1.62-2.75zm3.87 6.56l8.04-4.74 1.62 2.75 1.62 2.75-8.04 4.74-1.62-2.75-1.62-2.75zm11.91 1.81l1.62 2.75 1.62 2.75-8.04 4.74-3.25-5.51 8.05-4.73zm4.75 6.04l8.04-4.74 3.25 5.51-8.04 4.74-1.62-2.75-1.63-2.76zm3.87 6.56l8.04-4.74 1.62 2.75 1.62 2.75-8.04 4.74-1.62-2.75-1.62-2.75zm16.65 7.86l8.04-4.74 1.62 2.75 1.62 2.75-8.04 4.74-1.62-2.75-1.62-2.75zm12.79 1.29l8.04-4.74 1.62 2.75 1.62 2.75-8.04 4.74-1.62-2.75-1.62-2.75zm70.82-43.17l-1.62-2.75-1.62-2.75 8.04-4.74 3.25 5.51-8.05 4.73zm4.17-11.3l-8.04 4.74-1.62-2.75-1.62-2.75 8.04-4.74 1.62 2.75 1.62 2.75zm5.06-11.82l-8.04 4.74-1.62-2.75-1.62-2.75 8.04-4.74 1.62 2.75 1.62 2.75zm5.05-11.82l-8.04 4.74-1.62-2.75-1.62-2.75 8.04-4.74 1.62 2.75 1.62 2.75zm-11.6-19.68l-8.04 4.74-2.25-3.82-.99-1.69 8.04-4.74 1.62 2.75 1.62 2.76zm-16.66-7.86l-8.04 4.74-1.62-2.75-1.62-2.75 8.04-4.74 1.62 2.75 1.62 2.75zm-3.86-6.55l-8.04 4.74-1.62-2.75-1.62-2.75 8.04-4.74 1.62 2.75 1.62 2.75zm-12.79-1.3l-8.04 4.74-1.62-2.75-1.62-2.75 8.04-4.74 1.62 2.75 1.62 2.75zm-3.81-6.37l-8.04 4.74-1.62-2.75-1.62-2.75 8.04-4.74 1.62 2.75 1.62 2.75zm-27.22-5.38l1.58 2.68-8.04 4.74-3.12-5.29 8.04-4.74 1.54 2.61zm-15.08 4l-4.02 2.37-1.54-2.61-1.62-2.75 8.04-4.74 3.16 5.36-4.02 2.37zm-25.87 8.13l3.11 5.28-4 2.36-4.02 2.37-1.54-2.61-1.62-2.75 8.02-4.73.05.08zM63.09 57.62l-8.04 4.74-1.58-2.68-1.54-2.61 8.04-4.74 3.12 5.29zm-22.22 23.5l1.62 2.75 1.62 2.75-8.04 4.74-3.25-5.51 8.05-4.73zm-4.31 11.15l8.04-4.74 3.25 5.51-8.04 4.74-1.62-2.75-1.63-2.76zm2.99 7.08l1.62 2.75 1.62 2.75-8.04 4.74-3.25-5.51 8.05-4.73zm4.75 6.04l8.04-4.74 3.25 5.51-8.04 4.74-1.62-2.75-1.63-2.76zm-1.19 18.38l8.04-4.74 1.62 2.75 1.62 2.75-8.04 4.74-1.62-2.75-1.62-2.75zm3.87 6.56l8.04-4.74 1.62 2.75 1.62 2.75-8.04 4.74-1.62-2.75-1.62-2.75zm16.66 7.85l8.04-4.74 1.62 2.75 1.62 2.75-8.04 4.74-1.62-2.75-1.62-2.75zm3.86 6.56l8.04-4.74 1.62 2.75 1.62 2.75-8.04 4.74-1.62-2.75-1.62-2.75zm12.79 1.3l8.04-4.74 3.25 5.51-8.04 4.74-1.62-2.75-1.63-2.76zm3.87 6.56l8.04-4.74 1.62 2.75 1.62 2.75-8.04 4.74-1.62-2.75-1.62-2.75zm12.79 1.29l8.04-4.74 1.62 2.75 1.62 2.75-8.04 4.74-1.62-2.75-1.62-2.75zm42.86-9.01l-3.25-5.51 4.03-2.38 3.96-2.33 3.25 5.51-3.96 2.33-4.03 2.38zm39.86-32.34l-8.04 4.74-3.25-5.51 8.04-4.74 1.62 2.75 1.63 2.76zm10.12-23.64l-8.04 4.74-1.62-2.75-1.62-2.75 8.04-4.74 1.62 2.75 1.62 2.75zm5.05-11.82l-8.04 4.74-1.62-2.75-1.62-2.75 8.04-4.74 1.62 2.75 1.62 2.75zm-7.73-13.12l-8.04 4.74-1.62-2.75-1.62-2.75 8.04-4.74 1.62 2.75 1.62 2.75zm5.05-11.82l-8.04 4.74-1.62-2.75-1.62-2.75 8.04-4.74 1.62 2.75 1.62 2.75zm-3.86-6.56l-8.04 4.74-1.62-2.75-1.62-2.75 8.04-4.74 1.62 2.75 1.62 2.75zm-3.87-6.56l-8.04 4.74-1.62-2.75-1.62-2.75 8.04-4.74 1.62 2.75 1.62 2.75zm-12.79-1.3l-8.04 4.74-1.62-2.75-1.62-2.75 8.04-4.74 1.62 2.75 1.62 2.75zm-3.87-6.56l-8.04 4.74-1.62-2.75-1.62-2.75 8.04-4.74 1.62 2.75 1.62 2.75zm-12.79-1.29l-8.04 4.74-1.62-2.75-1.62-2.75 8.04-4.74 1.62 2.75 1.62 2.75zm-3.8-6.37l-8.04 4.74-1.62-2.75-1.62-2.75 8.04-4.74 1.62 2.75 1.62 2.75zm-4.03-6.83l-8.04 4.74-1.62-2.75-1.49-2.54-.05-.08 8.04-4.74 1.02 1.72 2.14 3.65zm-12.69-1.13l-8.04 4.74-1.08-1.84-.5-.84-1.54-2.61 8.04-4.74.87 1.47 2.25 3.82zM34.09 67.6l8.04-4.74 1.54 2.61.61 1.03.97 1.65-8.04 4.74-1.17-1.98-1.95-3.31zm-5.2 11.57l8.04-4.74 1.54 2.61 1.62 2.75-8.04 4.74-1.95-3.31-1.21-2.05zm6.79 13.62l1.62 2.75 1.62 2.75-8.04 4.74-3.25-5.51 8.05-4.73zm-.3 17.86l8.04-4.74 1.62 2.75 1.62 2.75-8.04 4.74L37 113.4l-1.62-2.75zm-5.06 11.82l8.04-4.74 1.16 1.96 2.09 3.54-8.04 4.74-1.62-2.75-1.63-2.75zm3.87 6.56l8.04-4.74 1.62 2.75 1.62 2.75-8.04 4.74-1.62-2.75-1.62-2.75zm3.86 6.56l8.04-4.74 1.62 2.75 1.62 2.75-8.04 4.74-1.62-2.75-1.62-2.75zm12.79 1.3l8.04-4.74 1.62 2.75 1.62 2.75-8.04 4.74-1.62-2.75-1.62-2.75zm3.87 6.55l8.04-4.74 1.62 2.75 1.62 2.75-8.04 4.74-1.62-2.75-1.62-2.75zm3.87 6.56l8.04-4.74 3.25 5.51-8.04 4.74-1.62-2.75-1.63-2.76zm12.79 1.3l8.04-4.74 1.62 2.75 1.62 2.75-8.04 4.74-1.62-2.75-1.62-2.75zm15.16 7.33l-8.04 4.74-3.25-5.51 8.04-4.74 1.62 2.75 1.63 2.76zm4.75 6.03l-3.25-5.51 8.04-4.74 1.62 2.75 1.62 2.75-8.03 4.75zm12.79 1.3l-3.25-5.51 8.04-4.74 3.25 5.51-8.04 4.74zm16.96-10l-8.04 4.74-3.25-5.51 8.04-4.74 1.62 2.75 1.63 2.76zm8.92-5.26l-8.04 4.74-1.62-2.75-1.62-2.75 8.04-4.74 1.62 2.75 1.62 2.75zm8.93-5.27l-8.04 4.74-1.62-2.75-1.62-2.75 8.04-4.74 1.62 2.75 1.62 2.75zm17.89-10.55l-8.04 4.74-3.25-5.51 8.04-4.74 1.62 2.75 1.63 2.76zm8.93-5.26l-8.04 4.74-3.25-5.51 8.04-4.74 1.62 2.75 1.63 2.76zm8.92-5.26l-8.04 4.74-1.62-2.75-1.62-2.75 8.04-4.74 1.62 2.75 1.62 2.75zm.88-.52l-1.62-2.75-1.62-2.75 8.04-4.74 3.25 5.51-8.05 4.73zm5.06-11.82l-1.62-2.75-1.62-2.75 8.04-4.74 3.25 5.51-8.05 4.73zm5.05-11.82l-1.62-2.75-1.62-2.75 8.04-4.74 3.25 5.51-8.05 4.73zm5.06-11.82l-1.62-2.75-1.62-2.75 8.04-4.74 3.25 5.51-8.05 4.73zm5.05-11.83l-1.62-2.75-1.62-2.75 8.04-4.74 3.25 5.51-8.05 4.73zM191.86 70l-3.25-5.51 8.04-4.74 3.25 5.51-8.04 4.74zm-3.87-6.56l-1.62-2.75-1.62-2.75 8.04-4.74 3.25 5.51-8.05 4.73zm5.06-11.82l-1.62-2.75-1.62-2.75 8.04-4.74 3.25 5.51-8.05 4.73zm-3.87-6.56l-1.62-2.75-1.62-2.75 8.04-4.74 3.25 5.51-8.05 4.73zm.92-16.81l3.25 5.51-8.04 4.74-1.62-2.75-1.62-2.75 8.03-4.75zm-17.58 8.95l-1.62-2.75-1.62-2.75 8.04-4.74 3.25 5.51-8.05 4.73zm-7.11-12.06l8.04-4.74 3.25 5.51-8.04 4.74-1.62-2.75-1.63-2.76zm-9.55 4.21l-1.62-2.75-1.62-2.75.4-.24 7.64-4.5 3.25 5.51-8.05 4.73zm.99-16.62l3.25 5.51-4.64 2.73-3.4 2.01-1.62-2.75-1.62-2.75 8.03-4.75zM23.91 91.12l8.04-4.74 3.25 5.51-8.04 4.74-3.25-5.51zm6.71 13.49l3.25 5.51-8.04 4.74-3.25-5.51 8.04-4.74zm3.87 6.56l1.62 2.75 1.62 2.75-8.04 4.74-3.25-5.51 8.05-4.73zm-5.05 11.82l1.62 2.75 1.62 2.75-8.04 4.74-3.25-5.51 8.05-4.73zm3.86 6.56l1.62 2.75 1.62 2.75-8.04 4.74-3.25-5.51 8.05-4.73zm-.92 16.81l-3.25-5.51 8.04-4.74 1.62 2.75 1.62 2.75-8.03 4.75zm17.58-8.95l1.62 2.75 1.62 2.75-8.04 4.74-3.25-5.51 8.05-4.73zm3.87 6.55l1.62 2.75 1.62 2.75-8.04 4.74-3.25-5.51 8.05-4.73zm7.11 12.07l-8.04 4.74-3.25-5.51 8.04-4.74 1.62 2.75 1.63 2.76zm12.79 1.3l-8.04 4.74-3.25-5.51 8.04-4.74 1.62 2.75 1.63 2.76z"/><path class="st0" d="M216.98 38.37c-3.84-6.64-8.87-12.41-14.92-17.21-26.33-27-80.93-28.73-130.65-1.86-56.35 30.46-85.4 86.29-64.77 124.45.34.64.7 1.26 1.07 1.88.34.68.68 1.36 1.05 2.03 3.57 6.61 8.27 12.34 13.87 17.19 11.88 13.35 29.82 21.64 51.74 23.66 3.46.32 6.96.48 10.5.48 23.9 0 49.37-7.22 72.78-20.77 26.88-15.56 47.86-37.61 59.08-62.11 11.23-24.55 11.32-48.61.25-67.74zM12.83 147.31c-7.18-17.52-5.9-38.38 3.83-59.64 11.13-24.3 31.97-46.2 58.67-61.66 26.7-15.45 56.06-22.61 82.69-20.16 2 .18 3.97.43 5.9.72 19.63 4.39 35.8 14.59 45.09 30.25 17.79 36.52-10.58 88.98-64.33 118.04-52.01 28.11-109.34 24.33-131.85-7.55zm20.21 21.02c0 .01-.01.03-.01.04-.13-.08-.27-.16-.4-.25.14.07.28.14.41.21zM72.96 22.18C98.49 8.39 125.5 2.66 149.18 4.41c-24.36-.33-50.42 6.89-74.35 20.74-26.88 15.55-47.86 37.61-59.08 62.1-9.01 19.66-10.85 39.01-5.54 55.76-17.96-38.55 9.47-92.02 62.75-120.83zm142.85 83.52c-11.13 24.31-31.97 46.2-58.67 61.66-26.7 15.45-56.07 22.6-82.69 20.16-18.43-1.7-34-7.87-45.45-17.78 29.52 19.92 77.67 19.5 121.46-4.17 30.98-16.75 53.42-41.7 63.72-67.47.64-1.32 1.25-2.65 1.8-4.02.23-.57.28-1.08.22-1.55 6.38-19.31 5.85-38.78-3.1-55.33-.36-.67-.74-1.33-1.13-1.99-.32-.65-.64-1.29-.99-1.92a53.62 53.62 0 0 0-4.1-6.44c3.57 3.6 6.66 7.62 9.21 12.03 10.93 18.84 10.82 42.57-.28 66.82z"/></svg>
