<svg xmlns="http://www.w3.org/2000/svg" viewBox="0 0 118.59 127" overflow="visible"><style>.st0{fill-rule:evenodd;clip-rule:evenodd;fill:#8b6326}</style><path class="st0" d="M117.78 44.54a3.811 3.811 0 0 0-2.98-1.45H33.26c-2.1 0-3.79 1.7-3.79 3.79 0 2.1 1.7 3.79 3.79 3.79h76.72l-9.85 40.9H38.66L20.53 35.89a3.803 3.803 0 0 0-2.27-2.38L5.14 28.56a3.795 3.795 0 0 0-2.68 7.1l11.42 4.31L32.3 96.55a3.804 3.804 0 0 0 3.61 2.62h67.22c1.75 0 3.28-1.2 3.69-2.91l11.67-48.49c.27-1.12.01-2.32-.71-3.23z"/><path class="st0" d="M97.92 74.98a3.79 3.79 0 1 0 0-7.58H40.1c-2.1 0-3.79 1.7-3.79 3.79 0 2.1 1.7 3.79 3.79 3.79h57.82zM41.28 104.44c-6.22 0-11.28 5.06-11.28 11.28S35.06 127 41.28 127s11.28-5.06 11.28-11.28-5.06-11.28-11.28-11.28zm0 14.97c-2.03 0-3.69-1.65-3.69-3.69a3.7 3.7 0 0 1 3.69-3.69c2.03 0 3.69 1.65 3.69 3.69s-1.65 3.69-3.69 3.69zM94.27 104.44c-6.22 0-11.28 5.06-11.28 11.28S88.05 127 94.27 127s11.28-5.06 11.28-11.28-5.06-11.28-11.28-11.28zm0 14.97c-2.03 0-3.69-1.65-3.69-3.69 0-2.03 1.65-3.69 3.69-3.69 2.03 0 3.69 1.65 3.69 3.69s-1.66 3.69-3.69 3.69zM55.1 6.81l3.34.12.85.02V2.88h23.63V34.9h3.31V0H56.51L56 .51l-3.8 3.78-.41.4v30.37h3.31z"/><path class="st0" d="M72.67 14.9h2.2v18.84h-2.2zM67.22 15.07h2.2v18.84h-2.2zM61.01 15.23h2.2v18.84h-2.2z"/></svg>
