<svg xmlns="http://www.w3.org/2000/svg" viewBox="0 -144 1008 1008"><path fill="currentColor" d="M1008 396v522c0 49-40 90-90 90H90c-50 0-90-41-90-90V396c0-20 8-39 23-53C138 236 271 144 351 78c39-33 94-78 152-78h2c58 0 113 45 152 78 74 61 215 161 328 265 15 14 23 33 23 53zm-72 522V396c-56-52-48-48-308-249-28-22-84-75-123-75h-2c-39 0-95 53-123 75C120 348 128 344 72 396v522c0 10 8 18 18 18h828c10 0 18-8 18-18zM829 514l22 28c6 8 5 19-3 25-56 44-185 143-191 148-40 33-94 77-152 77h-2c-58 0-112-44-152-77-6-5-131-101-186-144-8-6-9-17-4-25l21-29c6-9 18-10 26-3 38 30 92 71 172 132 28 22 84 74 123 74h2c39 0 95-52 123-74 83-63 138-105 176-136 8-6 19-4 25 4z"/></svg>
