<svg xmlns="http://www.w3.org/2000/svg" viewBox="0 -190 1008 1008"><path fill="currentColor" d="M977 322h1c24 18 38 45 38 75v21L827 554V190H197v364L8 418v-21c0-26 16-59 35-75 18-14 34-28 57-45v-87c0-53 42-95 95-95h153c6-3 12-7 18-11 34-24 99-83 144-83s110 59 144 83c5 4 11 8 17 11h154c53 0 94 42 94 95v87c24 17 40 31 58 45zM504 822h4c31 0 63-10 91-30l411-297v420c0 53-41 94-95 94H96c-53 0-94-41-94-94V495l411 297c28 20 60 30 91 30zM315 584v-32c0-17 14-31 32-31h315c17 0 31 14 31 31v32c0 17-14 31-31 31H347c-18 0-32-14-32-31zm347-158H347c-18 0-32-14-32-31v-32c0-17 14-31 32-31h315c17 0 31 14 31 31v32c0 17-14 31-31 31z"/></svg>
