<svg xmlns="http://www.w3.org/2000/svg" viewBox="0 -192 1008 1008"><path fill="currentColor" d="M348 381h504V192h-63c-17 0-31-14-31-32V97H348v284zm473 220v-63c0-17-14-31-32-31h-63c-17 0-31 14-31 31v63c0 18 14 32 31 32h63c18 0 32-14 32-32zm0 252v-63c0-17-14-31-32-31h-63c-17 0-31 14-31 31v63c0 18 14 32 31 32h63c18 0 32-14 32-32zM569 601v-63c0-17-14-31-32-31h-63c-17 0-31 14-31 31v63c0 18 14 32 31 32h63c18 0 32-14 32-32zm0 252v-63c0-17-14-31-32-31h-63c-17 0-31 14-31 31v63c0 18 14 32 31 32h63c18 0 32-14 32-32zm376-700v163l2 2c35 0 63 28 63 63v567c0 35-28 63-63 63H317c-35 0-63-28-63-63V66c0-35 28-63 63-63h478c16 0 32 6 44 18l88 88c12 12 18 28 18 44zM63 253h63c35 0 63 28 63 63v630c0 35-28 63-63 63H63c-35 0-63-28-63-63V316c0-35 28-63 63-63z"/></svg>
