<svg xmlns="http://www.w3.org/2000/svg" viewBox="0 0 241.89 281.99" overflow="visible"><path d="M184.21 145.41V80.08h-24.63V51.57h-15.7V36.42h-19.22V0h-6.4v36.42H99.04v15.14h-15.7v28.51H59.79v65.33H0v136.58h241.89V145.41h-57.68zM28.37 190.63c0-.19.15-.34.34-.34h8.26c.19 0 .34.15.34.34v8.26c0 .19-.15.34-.34.34h-8.26c-.19 0-.34-.15-.34-.34v-8.26zm-6.69 69.8c0 .19-.15.34-.34.34h-8.26c-.19 0-.34-.15-.34-.34v-8.26c0-.19.15-.34.34-.34h8.26c.19 0 .34.15.34.34v8.26zm0-15.56c0 .19-.15.34-.34.34h-8.26c-.19 0-.34-.15-.34-.34v-8.26c0-.19.15-.34.34-.34h8.26c.19 0 .34.15.34.34v8.26zm0-15.57c0 .19-.15.34-.34.34h-8.26c-.19 0-.34-.15-.34-.34v-8.26c0-.19.15-.34.34-.34h8.26c.19 0 .34.15.34.34v8.26zm0-15.57c0 .19-.15.34-.34.34h-8.26c-.19 0-.34-.15-.34-.34v-8.26c0-.19.15-.34.34-.34h8.26c.19 0 .34.15.34.34v8.26zm0-14.84c0 .19-.15.34-.34.34h-8.26c-.19 0-.34-.15-.34-.34v-8.26c0-.19.15-.34.34-.34h8.26c.19 0 .34.15.34.34v8.26zm0-15.57c0 .19-.15.34-.34.34h-8.26c-.19 0-.34-.15-.34-.34v-8.26c0-.19.15-.34.34-.34h8.26c.19 0 .34.15.34.34v8.26zm0-15.57c0 .19-.15.34-.34.34h-8.26c-.19 0-.34-.15-.34-.34v-8.26c0-.19.15-.34.34-.34h8.26c.19 0 .34.15.34.34v8.26zm15.64 92.68c0 .19-.15.34-.34.34h-8.26c-.19 0-.34-.15-.34-.34v-8.26c0-.19.15-.34.34-.34h8.26c.19 0 .34.15.34.34v8.26zm.29-15.56c0 .19-.15.34-.34.34H29c-.19 0-.34-.15-.34-.34v-8.26c0-.19.15-.34.34-.34h8.26c.19 0 .34.15.34.34v8.26zm0-15.57c0 .19-.15.34-.34.34H29c-.19 0-.34-.15-.34-.34v-8.26c0-.19.15-.34.34-.34h8.26c.19 0 .34.15.34.34v8.26zm0-15.57c0 .19-.15.34-.34.34H29c-.19 0-.34-.15-.34-.34v-8.26c0-.19.15-.34.34-.34h8.26c.19 0 .34.15.34.34v8.26zm0-30.41c0 .19-.15.34-.34.34H29c-.19 0-.34-.15-.34-.34v-8.26c0-.19.15-.34.34-.34h8.26c.19 0 .34.15.34.34v8.26zm0-15.57c0 .19-.15.34-.34.34H29c-.19 0-.34-.15-.34-.34v-8.26c0-.19.15-.34.34-.34h8.26c.19 0 .34.15.34.34v8.26zm15.34 92.68c0 .19-.15.34-.34.34h-8.26c-.19 0-.34-.15-.34-.34v-8.26c0-.19.15-.34.34-.34h8.26c.19 0 .34.15.34.34v8.26zm0-15.56c0 .19-.15.34-.34.34h-8.26c-.19 0-.34-.15-.34-.34v-8.26c0-.19.15-.34.34-.34h8.26c.19 0 .34.15.34.34v8.26zm0-15.57c0 .19-.15.34-.34.34h-8.26c-.19 0-.34-.15-.34-.34v-8.26c0-.19.15-.34.34-.34h8.26c.19 0 .34.15.34.34v8.26zm0-15.57c0 .19-.15.34-.34.34h-8.26c-.19 0-.34-.15-.34-.34v-8.26c0-.19.15-.34.34-.34h8.26c.19 0 .34.15.34.34v8.26zm0-14.84c0 .19-.15.34-.34.34h-8.26c-.19 0-.34-.15-.34-.34v-8.26c0-.19.15-.34.34-.34h8.26c.19 0 .34.15.34.34v8.26zm0-15.57c0 .19-.15.34-.34.34h-8.26c-.19 0-.34-.15-.34-.34v-8.26c0-.19.15-.34.34-.34h8.26c.19 0 .34.15.34.34v8.26zm0-15.57c0 .19-.15.34-.34.34h-8.26c-.19 0-.34-.15-.34-.34v-8.26c0-.19.15-.34.34-.34h8.26c.19 0 .34.15.34.34v8.26zm42.17 60.29H81.96v-13.16h13.16v13.16zm0-23.7H81.96v-13.16h13.16v13.16zm0-23.7H81.96v-13.16h13.16v13.16zm0-23.69H81.96v-13.16h13.16v13.16zm0-23.7H81.96v-13.16h13.16v13.16zm0-23.7H81.96V96.39h13.16v13.16zm8.61-49.63h13.16v13.16h-13.16V59.92zm13.7 168.12h-13.16v-13.16h13.16v13.16zm0-23.7h-13.16v-13.16h13.16v13.16zm0-23.7h-13.16v-13.16h13.16v13.16zm0-23.69h-13.16v-13.16h13.16v13.16zm0-23.7h-13.16v-13.16h13.16v13.16zm0-23.7h-13.16V96.39h13.16v13.16zm8.6-49.63h13.16v13.16h-13.16V59.92zm13.7 168.12h-13.16v-13.16h13.16v13.16zm0-23.7h-13.16v-13.16h13.16v13.16zm0-23.7h-13.16v-13.16h13.16v13.16zm0-23.69h-13.16v-13.16h13.16v13.16zm0-23.7h-13.16v-13.16h13.16v13.16zm0-23.7h-13.16V96.39h13.16v13.16zm22.3 118.31h-13.16V214.7h13.16v13.16zm0-23.67h-13.16v-13.16h13.16v13.16zm0-23.67h-13.16v-13.16h13.16v13.16zm0-23.67h-13.16v-13.16h13.16v13.16zm0-23.67h-13.16v-13.16h13.16v13.16zm0-23.66h-13.16V96.35h13.16v13.17zm42.25 49.97c0-.19.15-.34.34-.34h8.26c.19 0 .34.15.34.34v8.26c0 .19-.15.34-.34.34h-8.26c-.19 0-.34-.15-.34-.34v-8.26zm0 15.57c0-.19.15-.34.34-.34h8.26c.19 0 .34.15.34.34v8.26c0 .19-.15.34-.34.34h-8.26c-.19 0-.34-.15-.34-.34v-8.26zm0 30.4c0-.19.15-.34.34-.34h8.26c.19 0 .34.15.34.34v8.26c0 .19-.15.34-.34.34h-8.26c-.19 0-.34-.15-.34-.34v-8.26zm0 15.57c0-.19.15-.34.34-.34h8.26c.19 0 .34.15.34.34v8.26c0 .19-.15.34-.34.34h-8.26c-.19 0-.34-.15-.34-.34v-8.26zm-6.4 39.4c0 .19-.15.34-.34.34h-8.26c-.19 0-.34-.15-.34-.34v-8.26c0-.19.15-.34.34-.34h8.26c.19 0 .34.15.34.34v8.26zm0-15.56c0 .19-.15.34-.34.34h-8.26c-.19 0-.34-.15-.34-.34v-8.26c0-.19.15-.34.34-.34h8.26c.19 0 .34.15.34.34v8.26zm0-15.57c0 .19-.15.34-.34.34h-8.26c-.19 0-.34-.15-.34-.34v-8.26c0-.19.15-.34.34-.34h8.26c.19 0 .34.15.34.34v8.26zm0-15.57c0 .19-.15.34-.34.34h-8.26c-.19 0-.34-.15-.34-.34v-8.26c0-.19.15-.34.34-.34h8.26c.19 0 .34.15.34.34v8.26zm0-14.84c0 .19-.15.34-.34.34h-8.26c-.19 0-.34-.15-.34-.34v-8.26c0-.19.15-.34.34-.34h8.26c.19 0 .34.15.34.34v8.26zm0-15.57c0 .19-.15.34-.34.34h-8.26c-.19 0-.34-.15-.34-.34v-8.26c0-.19.15-.34.34-.34h8.26c.19 0 .34.15.34.34v8.26zm0-15.57c0 .19-.15.34-.34.34h-8.26c-.19 0-.34-.15-.34-.34v-8.26c0-.19.15-.34.34-.34h8.26c.19 0 .34.15.34.34v8.26zm6.4 77.12v-8.26c0-.19.15-.34.34-.34h8.26c.19 0 .34.15.34.34v8.26c0 .19-.15.34-.34.34h-8.26c-.19 0-.34-.16-.34-.34zm9.24 15.56c0 .19-.15.34-.34.34h-8.26c-.19 0-.34-.15-.34-.34v-8.26c0-.19.15-.34.34-.34h8.26c.19 0 .34.15.34.34v8.26zm0-61.54c0 .19-.15.34-.34.34h-8.26c-.19 0-.34-.15-.34-.34v-8.26c0-.19.15-.34.34-.34h8.26c.19 0 .34.15.34.34v8.26zm15.63 61.54c0 .19-.15.34-.34.34h-8.26c-.19 0-.34-.15-.34-.34v-8.26c0-.19.15-.34.34-.34h8.26c.19 0 .34.15.34.34v8.26zm0-15.56c0 .19-.15.34-.34.34h-8.26c-.19 0-.34-.15-.34-.34v-8.26c0-.19.15-.34.34-.34h8.26c.19 0 .34.15.34.34v8.26zm0-15.57c0 .19-.15.34-.34.34h-8.26c-.19 0-.34-.15-.34-.34v-8.26c0-.19.15-.34.34-.34h8.26c.19 0 .34.15.34.34v8.26zm0-15.57c0 .19-.15.34-.34.34h-8.26c-.19 0-.34-.15-.34-.34v-8.26c0-.19.15-.34.34-.34h8.26c.19 0 .34.15.34.34v8.26zm0-14.84c0 .19-.15.34-.34.34h-8.26c-.19 0-.34-.15-.34-.34v-8.26c0-.19.15-.34.34-.34h8.26c.19 0 .34.15.34.34v8.26zm0-15.57c0 .19-.15.34-.34.34h-8.26c-.19 0-.34-.15-.34-.34v-8.26c0-.19.15-.34.34-.34h8.26c.19 0 .34.15.34.34v8.26zm0-15.57c0 .19-.15.34-.34.34h-8.26c-.19 0-.34-.15-.34-.34v-8.26c0-.19.15-.34.34-.34h8.26c.19 0 .34.15.34.34v8.26z" fill="#414042"/></svg>
