<svg xmlns="http://www.w3.org/2000/svg" viewBox="0 0 248.54 281.12" overflow="visible"><path d="M120.89 246.41c-1.81-2.46-2.86-5.45-2.87-8.75-.09-4.53 2.4-9.58 6.93-12.61 4.51-3.08 10.45-4.53 18.24-4.55 1.27 0 2.59.04 3.96.12-1.74-2.7-3.51-5.48-5.33-8.33H19.6c-3.08 0-5.6-2.52-5.6-5.6V19.6c0-3.08 2.52-5.6 5.6-5.6h142.77c3.08 0 5.6 2.52 5.6 5.6v142.17c.83-.84 1.72-1.56 2.63-2.12 3.46-2.2 7.31-3.16 11.24-3.18h.13V11.2c0-6.16-5.04-11.2-11.2-11.2H11.2C5.04 0 0 5.04 0 11.2v231.88c0 6.16 5.04 11.2 11.2 11.2h131.65c-4.61-1.58-9.32-2.32-13.65-2.84-3.77-.49-6.51-2.62-8.31-5.03zm-11.01-6.36c0 1.54-1.26 2.8-2.8 2.8h-32.2c-1.54 0-2.8-1.26-2.8-2.8v-7c0-1.54 1.26-2.8 2.8-2.8h32.19c1.54 0 2.8 1.26 2.8 2.8v7zm122.33-34.74c-3.97-15.86-17.03-32.25-22.98-41.87-5.95-9.62-19.25-3.15-19.25 3.5-4.9-6.65-20.65-3.15-18.89 5.6-4.55-7.35-17.67-4.37-17.67 1.4 0 0-12.77-18.55-23.62-34.99-10.85-16.45-31.86-6.06-20.64 10.5 26.45 39.07 38.61 59.84 52.37 80.36-43.86-9.56-39.19 13.76-31.49 14.7 7.7.94 17.73 2.57 26.59 9.1 8.87 6.53 16.1 13.76 24.73 13.76 8.63 0 12.25 2.92 14.7 5.36 2.45 2.45 6.3 8.4 6.3 8.4s30.56-21.7 46.19-32.19c-6.08-10.74-12.38-27.77-16.34-43.63z"/></svg>
