<svg xmlns="http://www.w3.org/2000/svg" viewBox="0 0 29.12 31.56" overflow="visible"><style>.st0{fill:#333}</style><path class="st0" d="M27.51 31.56H1.6c-.44 0-.88-.19-1.19-.51-.29-.31-.44-.7-.42-1.11L1.23 7.9c.05-.89.75-1.58 1.6-1.58h23.45c.85 0 1.55.7 1.6 1.58l1.23 22.04c.02.41-.13.8-.42 1.11-.3.32-.74.51-1.18.51zM2.83 7.07c-.46 0-.82.38-.85.87L.75 29.98c-.01.2.06.4.21.55.17.18.4.28.64.28h25.91c.24 0 .47-.1.64-.28.15-.16.23-.35.21-.55L27.14 7.94c-.03-.49-.4-.87-.85-.87H2.83z"/><path class="st0" d="M9.4 11.61c-.73 0-1.33-.6-1.33-1.33 0-.73.6-1.33 1.33-1.33s1.33.6 1.33 1.33c0 .73-.59 1.33-1.33 1.33zm0-1.91a.58.58 0 1 0 0 1.16.58.58 0 0 0 0-1.16zM19.72 11.61c-.73 0-1.33-.6-1.33-1.33 0-.73.6-1.33 1.33-1.33s1.33.6 1.33 1.33c0 .73-.6 1.33-1.33 1.33zm0-1.91a.58.58 0 1 0 0 1.16.58.58 0 0 0 0-1.16z"/><path class="st0" d="M19.72 10.44a.38.38 0 0 1-.38-.38V5.54c0-2.64-2.15-4.79-4.79-4.79S9.77 2.9 9.77 5.54v4.53a.38.38 0 1 1-.76 0V5.54C9.02 2.48 11.5 0 14.56 0s5.54 2.48 5.54 5.54v4.53c0 .2-.17.37-.38.37zM14.57 25.2c-.84 0-1.67-.29-2.35-.84-.94-.75-1.5-1.9-1.5-3.07v-3.78a.38.38 0 1 1 .76 0v3.78c0 .94.45 1.87 1.22 2.48.73.59 1.61.8 2.49.61 1.43-.31 2.46-1.71 2.46-3.32V17.5a.38.38 0 1 1 .76 0v3.56c0 1.96-1.28 3.66-3.05 4.05-.27.06-.53.09-.79.09z"/><path class="st0" d="M12.36 17.88H9.84a.38.38 0 1 1 0-.76h2.52c.21 0 .38.17.38.38s-.18.38-.38.38zM19.28 17.88h-2.52a.38.38 0 1 1 0-.76h2.52c.21 0 .38.17.38.38s-.18.38-.38.38z"/></svg>
