<svg xmlns="http://www.w3.org/2000/svg" viewBox="0 0 110.54 110.54" overflow="visible"><style>.st0{fill-rule:evenodd;clip-rule:evenodd;fill:#d3a100}</style><path class="st0" d="M55.27 0C24.79 0 0 24.8 0 55.28c0 30.47 24.79 55.27 55.27 55.27 30.48 0 55.27-24.79 55.27-55.27C110.54 24.8 85.75 0 55.27 0zm0 109.6C25.31 109.6.94 85.23.94 55.28.94 25.32 25.31.95 55.27.95c29.96 0 54.33 24.37 54.33 54.33 0 29.95-24.37 54.32-54.33 54.32z"/><path class="st0" d="M54.68 58.2c-8.76 0-15.86 7.1-15.86 15.87 0 8.76 7.1 15.87 15.86 15.87 8.75 0 15.86-7.1 15.86-15.87 0-8.76-7.11-15.87-15.86-15.87z"/><path class="st0" d="M55.27 8.14c-26.03 0-47.13 21.1-47.13 47.14 0 26.02 21.09 47.13 47.13 47.13 26.03 0 47.13-21.1 47.13-47.13 0-26.04-21.1-47.14-47.13-47.14zm-.17 91.47c-19.78 0-35.81-16.03-35.81-35.81 0-19.79 16.04-35.83 35.81-35.83 19.79 0 35.83 16.03 35.83 35.83 0 19.78-16.04 35.81-35.83 35.81z"/></svg>
