<svg xmlns="http://www.w3.org/2000/svg" viewBox="0 0 31.65 28.06" overflow="visible"><style>.st1{fill:#fff}</style><path d="M16.53 0C8.18 0 1.41 6.19 1.41 13.84c0 3.47 1.4 6.63 3.7 9.06C3.6 25.13 1.96 26.9 0 27c3.47 2.09 7.13.64 10.37-.53 1.88.77 3.97 1.2 6.16 1.2 8.35 0 15.12-6.19 15.12-13.84C31.65 6.19 24.88 0 16.53 0z" fill="#af944f"/><path class="st1" d="M9.77 13.82c-.2.2-.3.46-.3.76 0 .29.1.55.3.74.21.22.47.33.77.33.29 0 .56-.11.75-.31.21-.21.31-.47.31-.76s-.1-.55-.3-.75c-.41-.4-1.15-.38-1.53-.01zM15.27 13.82c-.2.2-.3.46-.3.76 0 .29.1.55.3.74.21.22.47.33.77.33.29 0 .56-.11.75-.31.21-.21.31-.47.31-.76s-.1-.55-.3-.75c-.42-.4-1.15-.38-1.53-.01zM20.77 13.82c-.2.2-.3.46-.3.76 0 .29.1.55.3.74.21.22.47.33.77.33.29 0 .56-.11.75-.31.21-.21.31-.47.31-.76s-.1-.55-.3-.75c-.41-.4-1.15-.38-1.53-.01z"/></svg>
