<svg xmlns="http://www.w3.org/2000/svg" viewBox="0 0 77.32 88.63" overflow="visible"><style>.st0{fill:#fff}</style><path class="st0" d="M64.02 61.92v-9.2c.04-.51.08-1.02.12-1.5l-.12-.01V1.43l-9.18 3.84L51.81.54l-5.77 5.15L40.97.76l-4.26 4.46L30.62.49 25.83 5.2 20.47.3 16.3 4.88l-6-3.55-4.08 4.14L0 0l.33 80.94c-.04.84.28 2.1 1.34 3.27 2.61 2.92 8.61 4.4 17.86 4.4 22.16-.26 51.32.01 51.61.01h.48l.43-.22c.22-.11 5.28-2.72 5.28-8.32V61.92H64.02zM19.5 84.61c-11.79 0-14.96-2.6-15.17-3.57L4.04 8.87l2.38 2.1 4.53-4.6 6.12 3.62 3.66-4.03 5.2 4.75 5-4.93 6.17 4.79 3.96-4.15 4.84 4.72 5.05-4.51 2.31 3.61 6.73-2.82v45.12c-.51 6.61-1.45 24.33 2.07 32-5.26-.03-12.32-.06-19.91-.06-7.45.02-15.43.05-22.65.13zm53.82-4.52c0 2.49-1.89 3.99-2.71 4.53-.64-.01-1.84-.02-3.45-.03l-.01-.14c-.17.02-.35.01-.65-.29-2.16-2.15-2.92-9.99-2.96-18.24h9.78v14.17z"/><circle class="st0" cx="12.94" cy="29.99" r="4.07"/><path class="st0" d="M12.94 41.25c-2.25 0-4.07 1.82-4.07 4.07s1.82 4.07 4.07 4.07 4.07-1.82 4.07-4.07-1.82-4.07-4.07-4.07zM12.94 59.03c-2.25 0-4.07 1.82-4.07 4.07s1.82 4.07 4.07 4.07 4.07-1.82 4.07-4.07-1.82-4.07-4.07-4.07zM20.28 28.45h33.07v2H20.28zM20.28 43.88h33.07v2H20.28zM20.28 62.09h33.07v2H20.28z"/></svg>
