<svg xmlns="http://www.w3.org/2000/svg" viewBox="0 0 33.26 28.81" overflow="visible"><style>.st0{fill:#fff}</style><path class="st0" d="M5.11 28.81c-1.35 0-2.72-.3-4.07-1.11L0 27.07 1.22 27c1.5-.08 2.94-1.23 4.65-3.7-2.32-2.55-3.6-5.77-3.6-9.1C2.27 6.38 9.22 0 17.77 0c8.54 0 15.49 6.38 15.49 14.21 0 7.84-6.95 14.21-15.49 14.21-2.14 0-4.21-.4-6.17-1.18l-.2.07c-1.98.73-4.12 1.5-6.29 1.5zm-2.74-1.28c2.93 1.21 6.02.09 8.78-.92l.47-.17.13.05c1.9.78 3.93 1.17 6.02 1.17 8.13 0 14.74-6.04 14.74-13.46S25.9.75 17.77.75C9.64.75 3.03 6.79 3.03 14.21c0 3.23 1.28 6.36 3.6 8.8l.21.22-.17.25c-1.09 1.61-2.52 3.42-4.3 4.05z"/><path class="st0" d="M11.01 14.2c-.2.2-.3.46-.3.76 0 .29.1.55.3.74.21.22.47.33.77.33.29 0 .56-.11.75-.31.21-.21.31-.47.31-.76s-.1-.55-.3-.75c-.42-.4-1.15-.39-1.53-.01zM16.51 14.2c-.2.2-.3.46-.3.76 0 .29.1.55.3.74.21.22.47.33.77.33.29 0 .56-.11.75-.31.21-.21.31-.47.31-.76s-.1-.55-.3-.75c-.42-.4-1.15-.39-1.53-.01zM22.01 14.2c-.2.2-.3.46-.3.76 0 .29.1.55.3.74.21.22.47.33.77.33.29 0 .56-.11.75-.31.21-.21.31-.47.31-.76s-.1-.55-.3-.75c-.42-.4-1.15-.39-1.53-.01z"/></svg>
