<svg xmlns="http://www.w3.org/2000/svg" viewBox="0 0 21.72 19.25"><path d="M21.65 5.33l-3.05-3a.457.457 0 0 0-.35-.12h-.97V.29c0-.16-.19-.29-.42-.29H5.39c-.24 0-.43.13-.43.29V2.2H3.48a.55.55 0 0 0-.35.12l-3.05 3c-.01 0-.01.01-.02.02-.07.08-.08.2-.01.29.1.11.24.17.38.16h1.1V17.3H.87c-.24 0-.42.13-.42.29v1.37c0 .16.19.29.42.29h19.98c.23 0 .42-.13.42-.29v-1.37c0-.16-.19-.29-.42-.29h-.65V5.79h1.1c.14.01.28-.05.38-.16l.02-.02c.05-.09.03-.22-.05-.28zm-4.21 8.81c0 .44-.36.8-.8.8H5.08c-.44 0-.8-.36-.8-.8V8.39c0-.44.36-.8.8-.8h11.56c.44 0 .8.36.8.8v5.75z" fill="#fff"/></svg>
