<svg xmlns="http://www.w3.org/2000/svg" viewBox="0 0 159.17 148.36" overflow="visible"><path d="M51.65 121.84c-3.61 0-6.55 2.94-6.55 6.54a6.56 6.56 0 0 0 6.55 6.55c3.61 0 6.54-2.94 6.54-6.55.01-3.61-2.93-6.54-6.54-6.54zM136.46 66.21c-.06 0-.12.01-.18.02-.56.13-1.01.87-1.23 2.03-.25 1.32-.17 3 .22 4.73.57 2.52 1.74 4.7 2.92 5.45.33.21.64.28.9.22.42-.1.78-.54 1.02-1.24.08-.24.15-.5.21-.79.25-1.33.17-3-.22-4.73-.39-1.72-1.04-3.27-1.84-4.36-.15-.2-.29-.37-.44-.53-.02-.02-.03-.04-.05-.05-.14-.15-.28-.27-.42-.38-.02-.01-.03-.02-.05-.04-.14-.1-.28-.18-.41-.23-.01-.01-.03-.01-.04-.01a.924.924 0 0 0-.39-.09c.01 0 0 0 0 0zM139.11 108.19c-10.92 0-19.79 8.88-19.79 19.79 0 10.91 8.88 19.79 19.79 19.79 10.91 0 19.79-8.88 19.79-19.79.01-10.91-8.87-19.79-19.79-19.79zm-.18 27.16c-4.16 0-7.55-3.38-7.55-7.55s3.39-7.55 7.55-7.55 7.55 3.38 7.55 7.55-3.39 7.55-7.55 7.55z"/><path d="M127.7 108.36c11.17-6.25 22.57-3.41 31.48 7.75-1.31-9.6-7.99-13.15-15.09-15.51l-.27-.09-.36-1.65c-1.14-5.28-2.44-11.24-5.7-16.06-.06.02-.12.03-.18.05-.21.05-.41.08-.62.1-.06.01-.12.01-.18.01-.15.01-.31.01-.46 0-.07 0-.13-.01-.2-.01-.16-.01-.32-.03-.48-.06l-.16-.03c-.43-.09-.85-.23-1.27-.43l-.18-.09c-.15-.07-.3-.16-.44-.24-.07-.04-.14-.08-.21-.13-.14-.09-.29-.19-.43-.3-.06-.05-.12-.09-.18-.14-.2-.16-.39-.32-.59-.5-1.62-1.54-2.83-3.78-3.41-6.32-.08-.35-.14-.7-.2-1.05-.02-.11-.02-.23-.04-.34-.03-.23-.06-.47-.08-.7-.01-.14-.01-.27-.02-.41-.01-.21-.02-.42-.02-.62 0-.14.01-.28.01-.41.01-.2.01-.4.03-.59.01-.14.03-.27.05-.41.02-.19.04-.38.07-.57.02-.14.05-.27.08-.4.04-.18.07-.36.11-.53.03-.13.08-.26.12-.39.05-.17.1-.34.16-.5.05-.13.1-.25.15-.38.05-.12.1-.25.16-.37.02-.05.04-.11.07-.16l.01-.02c0 .01-.01.01-.01.02l-.08.12c-.39-2.16-.66-3.99-.77-4.79-1.28-.01-5.26-.02-9.65.08 1.02 1.28 1.42 2.93 1.2 4.94-.07.6-.17 1.14-.3 1.62 1.68-.08 2.51-.13 2.51-.13l.43-.02 6.77 32.65-20.13 17.66-31.51-.35-6.91-21.11h.69c1.88 0 3.41-1.53 3.41-3.41 0-1.88-1.53-3.41-3.41-3.41l-3.93-.07c-2.05.68-4.52 1.17-7.4-.14l-35.85-.68c-1.87 0-3.4 1.53-3.4 3.41 0 1.88 1.53 3.41 3.41 3.41h.48l.02.48c.04.85.89 20.94-1.38 24.67-1.05 1.74-1.12 3.92-.19 5.58.75 1.32 2.01 2.07 3.48 2.07h.37c.49 0 1.24 0 2.21.01-.03-.39-.04-.76-.04-1.13 0-12.42 10.11-22.53 22.53-22.53 12.42 0 22.53 10.11 22.53 22.53 0 .44-.02.9-.06 1.44h.35l40.54-.32c.19-2.62 1.67-15.13 12.36-21.1z"/><path d="M130.35 66.98v.01l.03.15c.06.33.12.64.18.96.03.15.06.32.09.47.05.28.11.54.16.8.04.22.09.44.13.65.04.2.09.39.13.59.06.26.11.52.17.76.04.15.07.3.11.45.06.27.13.54.19.79.03.13.07.25.1.38.07.26.13.52.2.76.04.13.07.25.11.37.06.22.13.45.19.66.05.17.1.32.16.48.05.15.1.3.15.44.1.29.2.56.3.81.53.34 1.04.7 1.53 1.09.16.13.32.28.48.41.32.27.64.53.94.82.18.18.36.37.54.56.26.27.53.54.78.83.18.21.35.45.53.67.19.24.38.48.57.74.08.11.16.2.24.31.02.03.03.06.05.09.1.14.18.29.27.43.01.01.01.02.02.04l.03-.01-.03-.04-.29-.42c2.77-1.36 4.15-5.64 3.12-10.2-1.14-5.06-4.82-8.54-8.21-7.77-1.27.29-2.32 1.14-3.08 2.34-.04-.24-.08-.48-.12-.71 0 0 0 .01-.01.01l.13.7.11.58zm8.72-.03c.88 1.2 1.59 2.88 2.01 4.73.42 1.85.5 3.68.23 5.13-.13.67-.32 1.22-.58 1.67-.07.12-.14.23-.21.33-.03.04-.07.08-.1.12-.07.08-.14.16-.22.23-.04.04-.08.07-.12.1-.08.06-.17.12-.25.17-.04.02-.07.05-.11.06a1.9 1.9 0 0 1-.4.14c-.06.01-.12.01-.18.02-.11.01-.22.01-.34.01-.15-.01-.3-.03-.45-.07-.04-.01-.09-.03-.13-.04-.19-.07-.38-.15-.56-.27-1.43-.9-2.72-3.23-3.36-6.07-.42-1.86-.5-3.68-.23-5.14.3-1.6 1.01-2.6 1.99-2.82.13-.03.25-.04.38-.04.03 0 .06.01.1.01.1 0 .19.01.29.03.75.14 1.52.72 2.24 1.7zM137.74 82.8l.01.02.36-.13h.01-.01c-.12.04-.24.07-.37.11zM129.71 66.23l-.29.6c.09-.19.2-.38.3-.55-.01-.01-.01-.03-.01-.05z"/><path d="M129.71 68.97a.43.43 0 0 0-.02.12c-.08.33-.13.66-.18 1-.01.1-.03.2-.04.3-.04.4-.07.8-.07 1.21v.09c0 .39.03.78.07 1.17.01.11.02.22.04.32.05.43.12.85.22 1.28.53 2.35 1.64 4.42 3.12 5.82.17.16.35.32.53.46.05.04.1.07.14.1.13.1.27.2.4.29.05.03.11.06.16.09.13.08.26.16.4.22.05.03.11.05.17.07.13.06.26.12.39.17.06.02.12.04.17.05.13.04.26.08.38.11l.19.03c.12.02.24.04.36.05.07.01.14.01.22.01h.33c.08 0 .16-.01.24-.02.05-.01.1-.01.15-.01h.02l-.01-.01c-.14-.19-.3-.36-.44-.54-.16-.2-.32-.41-.49-.6-.25-.28-.51-.55-.77-.81-.16-.17-.32-.34-.49-.5-.3-.28-.6-.54-.92-.79-.15-.12-.29-.25-.44-.37-.47-.36-.96-.71-1.47-1.02l-.14-.08-.06-.15c-.12-.3-.25-.63-.37-.97-.04-.11-.07-.22-.11-.33a33.9 33.9 0 0 1-.24-.75l-.12-.39c-.08-.26-.15-.53-.23-.8-.03-.12-.07-.25-.1-.37-.09-.33-.17-.66-.26-1-.02-.07-.03-.13-.05-.2-.1-.41-.2-.83-.29-1.24l-.06-.26c-.07-.33-.14-.66-.21-.98-.02-.12-.05-.24-.07-.35.01-.13-.02-.28-.05-.42zM51.84 108.77c-10.91 0-19.79 8.88-19.79 19.79 0 10.91 8.88 19.79 19.79 19.79s19.79-8.88 19.79-19.79c0-10.91-8.88-19.79-19.79-19.79zm-.19 27.16c-4.16 0-7.55-3.39-7.55-7.55s3.39-7.54 7.55-7.54 7.54 3.38 7.54 7.54c.01 4.16-3.38 7.55-7.54 7.55zM92.05 13.91c-1.41-.2-2.57-.37-3.28-.44-3.51 7.01-7 8.11-8.78 8.14h-.06c-.52 0-1.01-.09-1.46-.26 2.29 4.67 6.97 7.99 12.53 8.28 8.18.43 15.15-5.86 15.58-14.03.01-.16 0-.32 0-.48-3.51.38-10.12-.57-14.53-1.21zM59.48 89.5c.33.19.65.37.97.52 2.54 1.19 4.74.96 7.21.14.42-.14.86-.3 1.3-.48 1.04-.41 2.14-.88 3.34-1.38 4.04-.44 15.42 2.13 17.49 4.77 2.04 2.6 9.26 14.7 10.32 19.16.61 2.57 1.54 4.77 3.51 5.72 1.13.55 2.6.68 4.55.22.2-.05.37-.1.55-.16h.3l.18-.16c1.68-.61 2.61-1.59 3.09-2.71.67-1.6.43-3.5.12-5.11-1.12-5.88-7.83-20.7-13.48-26.49-2-2.06-15.24-10.17-22.37-10.76-2.82-12.36 2.7-11.74 8.55-15.18 3.64 3.38 7 6.51 8.71 8.38 4.72 5.16 19.11 5.34 19.11 5.34 2.95.64 4.88.42 5.9-1.42.09-.16.19-.32.26-.51.24-.6.41-1.32.51-2.21.27-2.4-.42-4.17-1.86-5.36a6.87 6.87 0 0 0-.68-.48c-.78-.48-1.71-.84-2.77-1.07 0 0-8.93-.92-13.66-4.13-1.88-1.28-4.71-4.59-7.73-8.26.76-2 1.41-4.37 1.91-7.23 2.34-6-24.61-16.8-29.98-11.66-6.32 6.07-24.88 43.1-8.28 58.29 1.05.96 2.01 1.68 2.93 2.22z"/><path d="M79.98 20.6c1.27-.02 4.59-.82 8.04-7.89l.15-.3.34.02c.69.05 2.01.24 3.69.48 4.28.62 10.67 1.54 14.09 1.23.05-1.18-.06-2.35-.3-3.47C104.27 4.79 99.01.36 92.55.02c-3.79-.2-7.31 1.05-10.05 3.26a14.04 14.04 0 0 0-3.95 6.49l-.2.68c-.54 1.82-1.16 3.91-1.32 5.73.11 1.23.36 2.43.76 3.56.45.49 1.19.9 2.19.86zM78.72 7.82c-.88 1.63-1.45 3.44-1.67 5.37.31-1.22.68-2.44 1.01-3.56.19-.63.41-1.23.66-1.81z"/><g><path d="M30.15 59.73c1.46-.02 2.92-.01 4.48-.01-.43-1.23-1.1-1.98-2.34-2.09-1.13-.1-1.96.39-2.53 1.36-.28.47-.3.75.39.74zM21.36 72.61c-1.11-.29-2.24.12-2.87 1.05-1.08 1.58-.29 3.34 1.87 4.17-.11.05-.32.17-.24.19.34.06.74.23 1.04-.12l-.21-.06c.28-.1.57-.18.84-.31 1.05-.48 1.59-1.45 1.49-2.67-.09-1.07-.86-1.97-1.92-2.25zM22.18 57.63a2.938 2.938 0 0 0-2.91 2.97c.02 1.61 1.4 2.98 2.97 2.94 1.63-.04 2.89-1.35 2.88-3-.01-1.66-1.29-2.92-2.94-2.91zM28.36 74.24v-.06.06z"/><path d="M44.5 43.49H4.05C1.82 43.49 0 45.35 0 47.64v37.47c0 2.29 1.82 4.15 4.05 4.15H44.5c.14 0 .27-.03.41-.04 2.04-.21 3.65-1.96 3.65-4.11V47.64c-.01-2.29-1.83-4.15-4.06-4.15zM38.02 56.3c.48.07 1.37-.49 1.14.77.56-.26.88-.79 1.44-.78.44.01 1.1-.49 1.22.4.1.68.07 1.2-.93 1.18-1.05-.02-1.64.8-1.69 2.13-.04 1.32-.03 2.64 0 3.96.01.61-.03.94-.82.95-.82.01-.9-.31-.89-.98.03-2.26 0-4.53.02-6.8.02-.33-.24-.94.51-.83zm-10.21 3.13c.47-1.97 2.35-3.41 4.41-3.36 2.28.05 4.15 2.03 4.19 4.36.01.69-.32.7-.82.7-1.81-.01-3.63.03-5.44-.02-.74-.02-.71.27-.5.78.64 1.56 2.79 2.24 4.19 1.16.84-.64 1.38-.73 2.01.23-1.45 1.8-3.67 2.32-5.72 1.3-1.87-.92-2.82-3.04-2.32-5.15zM14.13 79.51c-2.19-.06-4.38-.05-6.57-.01-.72.01-.89-.25-.88-.92.03-3.32.03-6.64 0-9.97-.01-.71.16-1 .93-.98 2.19.05 4.38.06 6.57 0 .84-.02.91.37.88 1.02-.02.59.06 1.11-.84 1.07-1.73-.07-3.47-.03-5.21-.04-.01.97-.02 1.94-.04 2.91 1.61 0 3.22-.01 4.83.02.33.01.76-.22 1 .24v1.37c-.06.63-.55.37-.86.38-1.67.05-3.34.05-5.02.07 0 .91.01 1.81.01 2.72 1.74.01 3.47.07 5.21.02.81-.02.92.33.91 1.01.01.68-.01 1.12-.92 1.09zm.26-15.74c-1.8 1.41-3.48 1.68-5.23.81-1.78-.89-2.43-2.49-2.44-4.39-.01-2.08.04-4.16-.03-6.24-.03-.84.32-.88.98-.9.66-.01.91.12.89.86-.06 2.08-.05 4.16-.01 6.24.04 2.17 1.18 3.35 3.03 3.25 1.5-.08 2.57-1.1 2.63-2.71.08-2.23.07-4.46.03-6.69-.01-.75.2-.94.94-.95.81-.02.9.3.89.98-.03 3.29-.01 6.58-.02 9.86 0 .42.26 1.06-.61.99-.59-.04-1.39.24-1.05-1.11zm11 15.61c0 .02-.06.04-.09.06h-1.81c-.25-.15-.26-.82-.84-.29-.36.33-.9.51-1.45.49-.45-.28-.89-.29-1.34.01a4.553 4.553 0 0 1-4.07-4.5c0-2.29 1.75-4.23 4.07-4.51h1.11c.64-.08 1.25.13 1.68.51.6.53.58-.16.83-.29.6 0 1.21-.01 1.81-.01.03.02.09.03.1.05.21 2.82.21 5.65 0 8.48zm-5.98-15.37c.1 1.16-.72.88-1.34.86-.81-.02-.45-.66-.46-1.02-.03-3.29 0-6.58-.03-9.88 0-.62.04-.97.82-.93.67.04 1.04.08.97.91-.08 1.04-.02 2.09-.02 3.18 2.65-1.59 4.9-1.38 6.56.58 1.35 1.59 1.34 4.09-.02 5.74-1.53 1.87-3.9 2.09-6.48.56zm10.97 13.15c.68.66 1.63-.03 2.35.47.17 1.85.17 1.86-1.64 1.84-.41 0-.83-.05-1.24-.07-.81-.1-1.39-.49-1.58-1.33-.05-.05-.06-.11-.04-.18-.38-1.33-.12-2.69-.15-4.04-.01-.74-.13-1.17-.98-1.04-.59.09-.71-.26-.67-.75.03-.34.03-.68.04-1.02.45-.49 1.02-.15 1.53-.23.02-.41.11-.84.05-1.24-.17-1.09.33-1.31 1.32-1.29.83.02 1.08.3.96 1.05-.2 1.16.24 1.68 1.44 1.46.87-.16 1.06.23 1.06 1.06 0 .84-.3 1.04-1.06.98-.48-.04-.98.03-1.47.06.03 1.42.06 2.84.08 4.27zm11.22.68c-.56 1.27-1.63 1.7-2.92 1.79-.6.1-1.19.09-1.79-.01-1.51-.1-2.64-.75-3.26-2.2-.23-.54-.13-.77.48-.74.76.03 1.51-.15 2.06.73.37.59 2.23.63 2.88.26.28-.16.49-.37.45-.71-.03-.29-.27-.44-.54-.5-.99-.24-1.98-.43-2.96-.71-.98-.28-1.97-.61-2.26-1.78-.15-.44-.14-.89 0-1.33.41-1.49 1.58-1.88 2.92-2.02h1.56c1.7.07 2.94.93 3.3 2.25.14.49.05.72-.49.7-.75-.04-1.46.15-2.08-.7-.57-.79-1.64-.59-2.53-.33a.63.63 0 0 0-.46.7c.04.32.28.45.54.51 1.03.24 2.07.43 3.08.71.87.24 1.74.56 2.04 1.58.37.61.3 1.21-.02 1.8z"/></g></svg>
