<svg xmlns="http://www.w3.org/2000/svg" viewBox="0 -144 864 1008"><path fill="currentColor" d="M864 504c0 60 0 119-3 178-3 69-19 131-70 181-50 51-112 67-181 70-59 3-118 3-178 3s-119 0-178-3c-69-3-131-19-181-70C22 813 6 751 3 682c-3-59-3-118-3-178s0-119 3-178c3-69 19-131 70-181 50-51 112-67 181-70 59-3 118-3 178-3s119 0 178 3c69 3 131 19 181 70 51 50 67 112 70 181 3 59 3 118 3 178zM432 150c-63 0-198-5-255 17-20 8-34 18-49 33s-25 29-33 49c-22 57-17 192-17 255s-5 198 17 255c8 20 18 34 33 49s29 25 49 33c57 22 192 17 255 17s198 5 255-17c20-8 34-18 49-33 16-15 25-29 33-49 22-57 17-192 17-255s5-198-17-255c-8-20-17-34-33-49-15-15-29-25-49-33-57-22-192-17-255-17zm282 123c0 29-23 52-51 52-29 0-52-23-52-52 0-28 23-51 52-51 28 0 51 23 51 51zm-60 231c0 123-99 222-222 222s-222-99-222-222 99-222 222-222 222 99 222 222zm-78 0c0-79-65-144-144-144s-144 65-144 144 65 144 144 144 144-65 144-144z"/></svg>
