<svg xmlns="http://www.w3.org/2000/svg" viewBox="-3 -189 776 1008"><path fill="currentColor" d="M0 228l-1 1c0-17 9-25 26-25h724c17 0 26 8 26 25v48c0 1-1 3-4 6 0 1-7 5-10 5L391 505c-1 1-1 2-2 2-1 1-3 0-3-3L4 287c-3-3-4-5-4-5v-54zm765 133l-2 1c3-3 6-3 9 0 1 1 2 2 2 3v349c0 4-1 6-4 6l-2 2c-1 0-2-1-3-2L554 493v-6c0-3 1-4 2-4zM229 496h-1c0 3-1 5-2 6L6 705c-1 1-2 2-3 2H1c-3-3-4-5-4-6V372c0-1 1-3 4-6s5-3 6 0l218 126zm255 28l1 1c3-3 6-2 10 2l250 269c7 7-3 12-6 12H23c-3 0-6-1-13-4-3-3-4-5-4-6 0-3 1-5 2-6l279-257c4-4 7-5 8-2l75 43c9 5 20 4 32-3z"/></svg>
