<svg xmlns="http://www.w3.org/2000/svg" viewBox="0 -144 1008 1008"><path fill="currentColor" d="M566 566l2-10c109-109 149-179 119-209l-14-14-18-18s-11-13-17-23-9-19-9-27 1-18 3-30c4-21 21-50 51-87 20-25 41-42 64-52 13-6 31-5 54 2 12 4 24 11 36 22s23 22 33 32 16 17 19 20c25 25 29 71 12 137-19 73-57 149-114 228-57 78-124 148-202 210-57 46-115 83-174 111-51 24-98 38-141 42-40 3-69-4-86-21-3-3-10-9-20-19l-21-21s-10-11-18-21-13-18-15-24-4-14-6-24-1-20 3-29c10-23 27-44 50-62s43-31 60-39 31-13 42-15 23 0 35 6 21 12 27 18l21 21 15 15c30 30 100-10 209-119z"/></svg>
