<svg xmlns="http://www.w3.org/2000/svg" viewBox="0 0 18.59 16.87"><path d="M18.52 14.92l-1.95-5.79c-.2-.6-.76-1-1.39-1h-2.85c.76-1.38 1.38-2.79 1.38-3.72C13.71 1.98 11.73 0 9.3 0 6.86 0 4.88 1.98 4.88 4.42c0 .92.62 2.33 1.38 3.72H3.42c-.63 0-1.19.4-1.39 1L.08 14.93a1.47 1.47 0 0 0 1.39 1.94h15.65c.47 0 .92-.23 1.19-.61.28-.39.36-.89.21-1.34zM9.3 2.44c1.09 0 1.98.89 1.98 1.98S10.39 6.4 9.3 6.4s-1.98-.89-1.98-1.98c0-1.09.89-1.98 1.98-1.98zm8 13.08c-.02.03-.08.09-.17.09H1.47c-.1 0-.15-.06-.17-.09s-.06-.1-.03-.19l1.95-5.79c.03-.09.11-.15.2-.15H6.9c.03 0 .06 0 .09-.01 1 1.64 1.99 2.99 2.07 3.11.06.08.14.12.24.12s.18-.04.24-.12c.08-.11 1.07-1.47 2.07-3.1H15.19c.09 0 .17.06.2.15l1.95 5.79c.02.08-.02.15-.04.19z" fill="#fff"/></svg>
