<svg xmlns="http://www.w3.org/2000/svg" viewBox="0 0 56 44" overflow="visible"><style>.st0{fill:#fff}</style><path class="st0" d="M18 42h-3c-.55 0-1 .45-1 1s.45 1 1 1h3c.55 0 1-.45 1-1s-.45-1-1-1zM44 32c0-.55-.45-1-1-1H4c-.55 0-1 .45-1 1v8c0 .55.45 1 1 1h48c.55 0 1-.45 1-1v-8c0-.55-.45-1-1-1h-6c-.55 0-1 .45-1 1s.45 1 1 1h5v6H5v-6h38c.55 0 1-.45 1-1z"/><circle class="st0" cx="28" cy="36" r="1.5"/><path class="st0" d="M53 0H32c-.55 0-1 .45-1 1s.45 1 1 1h21c.55 0 1 .45 1 1v6c0 .55.45 1 1 1s1-.45 1-1V3c0-1.65-1.35-3-3-3zM28 2h1c.55 0 1-.45 1-1s-.45-1-1-1h-1c-.55 0-1 .45-1 1s.45 1 1 1z"/><path class="st0" d="M55 11c-.55 0-1 .45-1 1v15c0 .55-.45 1-1 1H21c-.55 0-1-.45-1-1V3c0-.55.45-1 1-1h4c.55 0 1-.45 1-1s-.45-1-1-1h-4c-1.65 0-3 1.35-3 3v7.18c-.31-.11-.65-.18-1-.18h-6V8h4c1.1 0 2-.9 2-2V2c0-1.1-.9-2-2-2H5C3.9 0 3 .9 3 2v4c0 1.1.9 2 2 2h4v2H3c-1.65 0-3 1.35-3 3v2c0 .55.45 1 1 1s1-.45 1-1v-2c0-.55.45-1 1-1h14c.55 0 1 .45 1 1v14c0 .55-.45 1-1 1H3c-.55 0-1-.45-1-1v-5c0-.55-.45-1-1-1s-1 .45-1 1v5c0 .77.3 1.47.78 2-.48.53-.78 1.23-.78 2v10c0 1.65 1.35 3 3 3h9c.55 0 1-.45 1-1s-.45-1-1-1H3c-.55 0-1-.45-1-1V31c0-.55.45-1 1-1h50c.55 0 1 .45 1 1v10c0 .55-.45 1-1 1H21c-.55 0-1 .45-1 1s.45 1 1 1h32c1.65 0 3-1.35 3-3V31c0-.77-.3-1.47-.78-2 .48-.53.78-1.23.78-2V12c0-.55-.45-1-1-1zM5 2h10v4H5V2z"/><path class="st0" d="M22 5v20c0 .55.45 1 1 1h28c.55 0 1-.45 1-1V5c0-.55-.45-1-1-1H23c-.55 0-1 .45-1 1zm2 1h26v18H24V6zM1 20c.55 0 1-.45 1-1v-1c0-.55-.45-1-1-1s-1 .45-1 1v1c0 .55.45 1 1 1zM4.42 25.81c.26.19.59.24.9.14l2.61-.87 1.63.81c.28.14.61.14.89 0l1.63-.81 2.61.87c.1.03.2.05.31.05.21 0 .41-.06.58-.19.27-.19.42-.49.42-.81v-9c.55 0 1-.45 1-1s-.45-1-1-1H4c-.55 0-1 .45-1 1s.45 1 1 1v9c0 .32.15.62.42.81zM14 16v7.61l-1.68-.56a.957.957 0 0 0-.76.05l-1.56.78-1.55-.78c-.14-.06-.3-.1-.45-.1-.11 0-.21.02-.32.05L6 23.61V16h8z"/><path class="st0" d="M8 22h4c.55 0 1-.45 1-1s-.45-1-1-1H8c-.55 0-1 .45-1 1s.45 1 1 1zM8 19h4c.55 0 1-.45 1-1s-.45-1-1-1H8c-.55 0-1 .45-1 1s.45 1 1 1zM13 4c0-.55-.45-1-1-1H8c-.55 0-1 .45-1 1s.45 1 1 1h4c.55 0 1-.45 1-1z"/></svg>
