<svg xmlns="http://www.w3.org/2000/svg" viewBox="0 0 543.56 709.36" overflow="visible"><path d="M134.71 431.91c-18.78-9.18-37.01-19.68-57.61-24.59-16.73-3.98-33.43-7.02-50.51-1.58-15.97 5.08-25.31 17.75-26.5 33.9-1.14 15.51 8.43 28.94 23.7 35.92 8.73 3.99 17.38 8.38 25.41 13.6 23.4 15.21 43.72 34.25 64.16 53.07 15.67 14.43 30.42 29.87 46.34 44 18.73 16.63 38.12 32.53 57.55 48.34 6.87 5.59 14.36 10.68 22.21 14.75 8.89 4.61 18.51 7.82 28.52 11.93v48.08h98.14c47.5.01 94.99.03 142.49.03 7.16 0 7.18-.03 7.18-7.01.01-16-.11-32 .12-48 .03-2.39 1.22-5.1 2.68-7.07 3.55-4.79 7.96-8.96 11.33-13.86 10.41-15.11 13.45-32.41 13.51-50.29.14-42.16-.04-84.32.03-126.48l.1-51.38c-.08-33.16 0-66.33-.04-99.49-.01-4.15-.33-8.31-.73-12.44-2.8-28.86-35.21-48.31-63.08-33.04-10.43 5.71-17 14.48-21.03 26.24.97-24.18-13.93-41.34-32.99-46.11-16.11-4.02-39.42.79-51.58 28.21.57-11.41-3.34-21.35-10.42-29.84-7.2-8.64-16.77-13.91-28.01-14.7-22.54-1.58-37.5 9.23-46.06 30.44v-2.23c.02-69.5.26-138.99-.22-208.48-.06-8.14-2-17.71-6.59-24.07C272.43 5.39 257.93-2.57 239.01.75 219.49 4.17 204 21.84 203.93 41.54c-.18 49.81-.38 99.62-.46 149.43-.11 65.66-.21 131.32.04 196.98.02 5.51-.88 10.91-.57 16.55 1.02 18.61.41 37.31.43 55.97 0 3.06-1.21 3.87-4.06 2.5" fill="#fff"/></svg>
