<svg xmlns="http://www.w3.org/2000/svg" viewBox="0 0 383.129 284.71"><path d="M316.458 203.586c13.169-19.309 20.755-41.819 20.755-65.874 0-71.619-66.991-129.678-149.628-129.678S37.956 66.092 37.956 137.712c0 71.619 66.991 129.678 149.628 129.678 34.575 0 66.386-10.191 91.723-27.259l37.827 21.595c6.458 3.686 13.472-3.64 11.341-11.847l-12.017-46.293z" fill="#4d976f"/><g fill="#fff"><path d="M134.877 205.266h3.819l1.375 7.284 2.012-7.284h3.805l2.017 7.274 1.376-7.274h3.799l-2.868 13.011h-3.942l-2.282-8.192-2.273 8.192h-3.942l-2.896-13.011zM170.68 214.46h-7.242c.065.58.222 1.012.47 1.296.349.408.805.612 1.367.612a2.06 2.06 0 0 0 1.012-.266c.195-.112.405-.311.63-.595l3.559.328c-.544.947-1.201 1.626-1.97 2.037-.769.411-1.873.617-3.31.617-1.248 0-2.231-.176-2.947-.528s-1.309-.911-1.779-1.677-.706-1.667-.706-2.703c0-1.473.472-2.666 1.416-3.577s2.247-1.367 3.91-1.367c1.349 0 2.414.204 3.195.612.781.408 1.376 1 1.784 1.775.408.775.612 1.784.612 3.026v.41zm-3.674-1.73c-.071-.698-.259-1.198-.564-1.5s-.706-.453-1.203-.453c-.574 0-1.032.228-1.376.683-.219.284-.358.707-.417 1.269h3.56zM178.535 205.266h3.612v2.458h-3.612v-2.458zm0 3.585h3.612v9.426h-3.612v-9.426zM201.992 205.266h4.429l2.303 4.003 2.241-4.003h4.384l-4.05 6.301 4.432 6.71h-4.518l-2.569-4.18-2.569 4.18h-4.491l4.488-6.781-4.08-6.23zM222.973 205.266h3.612v2.458h-3.612v-2.458zm0 3.585h3.612v9.426h-3.612v-9.426zM234.955 208.851h3.364v1.535c.503-.627 1.012-1.075 1.527-1.345.515-.269 1.142-.404 1.882-.404 1 0 1.782.297 2.348.892.565.595.848 1.513.848 2.756v5.991h-3.63v-5.183c0-.592-.109-1.01-.328-1.256-.219-.246-.527-.368-.923-.368-.438 0-.793.166-1.065.497-.272.331-.408.926-.408 1.784v4.526h-3.612v-9.425z"/></g><path d="M201.548 192.014c-3.748.001-6.28-4.159-8.733-8.189-1.896-3.114-4.251-6.983-6.213-6.983l-.049.001c-1.892.063-4.02 3.777-5.729 6.762-2.387 4.168-4.858 8.477-8.949 8.027-2.966-.328-4.449-2.927-6.019-5.68-3.084-5.407-5.321-9.616-6.916-12.772-8.861 9.685-17.543 16.466-28.512 17.815-3.504.43-12.595.859-21.342-4.481-6.901-4.213-10.274-10.001-11.383-11.903-1.832-3.143-4.9-9.672-4.853-18.071.054-9.674 4.486-21.097 10.31-26.57 2.371-2.228 4.875-3.339 7.237-3.203 4.19.237 7.206 4.188 10.398 8.371 2.808 3.679 5.99 7.848 10.123 9.727 2.255 1.025 4.555 1.288 5.725 1.353 1.654.094 4.151.231 5.411-.929.866-.798.967-2.085 1.056-3.221.091-1.162.243-3.105 2.174-3.616 2.364-.623 4.128.895 8.92 11.938 2.342 5.397 4.579 11.259 5.432 13.529.006.014.138.361.445 1.071 2.745-3.235 5.556-6.717 8.503-10.367a403.276 403.276 0 0 1 7.936-9.525 323.141 323.141 0 0 1 5.276-5.973 239.394 239.394 0 0 1 3.406-3.692 378.822 378.822 0 0 0-1.736-2.208c-2.629-3.32-4.046-5-5.841-7.127-1.953-2.314-4.384-5.195-9.293-11.287-7.363-9.139-15.709-19.496-16.244-32.079-.269-6.294.751-15.459 7.123-23.747 8.959-11.651 22.442-13.504 27.822-13.76 5.993-.288 17.461.545 27.015 9.304 3.062 2.807 8.502 8.908 10.531 18.232 2.255 10.367-1.123 18.775-3.141 23.798-2.15 5.352-5.727 9.907-12.851 18.982l-.598.761c-5.266 6.708-10.28 12.275-12.974 15.265a235.395 235.395 0 0 1-3.844 4.177c.452.597.89 1.183 1.322 1.764l1.59 2.142c1.422 1.914 2.627 3.535 4.012 5.432a561.807 561.807 0 0 1 4.376 6.074 178.263 178.263 0 0 0 8.304 10.82 577.404 577.404 0 0 0 2.59-10.575c2.619-11.004 3.229-13.612 6.04-13.528 1.989.066 2.485 1.959 2.724 2.869.231.88.518 1.975 1.375 2.958 3.04 3.488 10.33 2.295 10.403 2.282 6.267-1.066 9.65-6.276 12.922-11.314 3.039-4.679 6.181-9.517 11.604-9.733.126-.005.253-.008.379-.008 9.526 0 17.275 14.306 19.245 24.816.155.827 3.642 20.401-10.288 32.389-5.23 4.5-12.164 7.162-19.527 7.494-11.137.507-19.177-4.895-24.497-8.466-.268-.18-4.34-2.96-10.796-9.837a236.34 236.34 0 0 1-3.331 10.699c-1.351 3.988-3.202 9.451-7.453 9.956a5.41 5.41 0 0 1-.617.036zm-14.935-19.716c4.506 0 7.467 4.864 10.085 9.164 1.373 2.257 3.656 6.006 4.867 6.006a.463.463 0 0 0 .065-.004c1.403-.166 3.12-5.235 3.684-6.901a240.921 240.921 0 0 0 4.038-13.232c-3.153-3.635-6.709-8.094-10.553-13.502a517.956 517.956 0 0 0-4.371-6.068c-1.377-1.887-2.575-3.499-3.989-5.402l-1.592-2.146c-.277-.373-.556-.747-.84-1.126-.785.839-1.69 1.818-2.836 3.085a324.636 324.636 0 0 0-5.204 5.891 394.938 394.938 0 0 0-7.794 9.354l-.048.06c-3.446 4.268-6.718 8.321-9.927 12.037 1.575 3.202 4.002 7.861 7.61 14.187.849 1.489 1.906 3.342 2.571 3.416 1.112.092 3.244-3.565 4.506-5.769 2.39-4.171 5.097-8.9 9.522-9.045.066-.003.136-.005.206-.005zm-76.6-40.999c-1.053 0-2.375.699-3.739 1.981-4.323 4.063-8.825 13.883-8.878 23.284-.041 7.319 2.636 13.014 4.235 15.757.966 1.657 3.903 6.699 9.824 10.313 7.527 4.595 15.388 4.222 18.419 3.85 10.028-1.234 18.267-8.032 26.922-17.715-.988-2.132-1.376-3.158-1.413-3.258-3.491-9.284-6.438-16.051-8.357-19.751a7.148 7.148 0 0 1-1.892 2.869c-2.673 2.462-6.472 2.252-8.741 2.124-1.488-.082-4.423-.42-7.354-1.753-5.172-2.352-8.722-7.003-11.854-11.107-2.54-3.328-4.939-6.472-7.042-6.591-.042-.001-.086-.003-.13-.003zm104.369 34.843c7.225 8.029 11.832 11.201 11.9 11.247 5.111 3.43 12.108 8.139 21.756 7.697 6.443-.291 12.242-2.504 16.768-6.399 11.968-10.299 8.922-27.385 8.787-28.107-1.81-9.657-8.772-21.109-14.79-21.109-.062 0-.124.001-.187.004-3.073.123-5.344 3.619-7.974 7.668-3.448 5.31-7.74 11.918-15.971 13.319-1.007.17-9.974 1.52-14.59-3.776a9.589 9.589 0 0 1-.67-.863c-.503 1.925-1.067 4.296-1.622 6.629-.935 3.922-2.043 8.581-3.407 13.69zM188.959 49.721c-.612 0-1.183.016-1.707.04-4.749.226-16.636 1.846-24.436 11.991-5.539 7.204-6.422 15.243-6.189 20.719l.003.081c.471 11.073 7.98 20.393 15.241 29.405 4.876 6.052 7.289 8.91 9.227 11.207a252.81 252.81 0 0 1 5.932 7.237c.461.583.905 1.146 1.333 1.694.884-.943 1.902-2.046 3.276-3.572 2.844-3.157 7.605-8.442 12.776-15.029l.598-.761c6.858-8.734 10.301-13.119 12.208-17.869 1.942-4.833 4.876-12.136 2.918-21.138-1.762-8.098-6.496-13.406-9.161-15.849-7.511-6.888-16.458-8.156-22.019-8.156z" fill="#fff"/><path d="M187.585 248.791c-61.876 0-112.216-49.83-112.216-111.079 0-61.249 50.34-111.079 112.216-111.079 61.876 0 112.215 49.83 112.215 111.079 0 61.249-50.339 111.079-112.215 111.079zm0-217.615c-59.37 0-107.672 47.791-107.672 106.535s48.301 106.535 107.672 106.535c59.37 0 107.671-47.791 107.671-106.535S246.955 31.176 187.585 31.176z" fill="#fff"/></svg>
