<svg xmlns="http://www.w3.org/2000/svg" viewBox="0 -202 756 1008"><path fill="currentColor" d="M0 493c0-106 37-194 111-268s163-110 268-110c106 0 193 36 267 110 75 74 111 162 111 268 0 105-36 192-111 267-74 75-163 111-268 111s-192-36-267-111C37 685 0 598 0 493zm290-288l-20 74-20-74h-38l40 116v83h37v-83l40-116h-39zm89 48c-23 0-41 19-41 42v72c0 23 18 42 41 42s42-19 42-42v-72c0-23-19-42-42-42zm10 118c0 7-3 11-11 11-7 0-10-4-10-11v-80c0-7 4-10 11-10s10 3 10 10v80zm56 8h-2c0 17 7 27 22 27 11 0 22-5 33-14v12h33V256h-33v111c-5 5-10 9-15 9-3 0-5-3-5-7V256h-33v123zm-68 374v1c121 0 187-7 203-22 5-5 11-21 15-41 3-19 5-39 6-58l1-27c3-70-7-113-22-128-5-5-26-10-61-14-34-3-66-5-97-6l-46-1c-122-3-188 6-203 21-7 7-12 23-15 42-4 20-6 41-7 58l-1 27c-3 71 7 111 22 126 7 7 28 12 62 16 34 3 66 6 97 6h46zm-159-60V542h-30v-26h90v26h-30v151h-30zm196-121h1c8-8 17-11 26-11 16 0 24 11 24 32v73c0 17-9 29-24 29-11 0-21-5-24-9l-3-3v10h-26V516h26v56zm69 25c0-23 16-38 39-38 21 0 37 15 37 38v34h-50v25c0 12 6 17 13 17 5 0 12-6 12-17v-6h25v6c0 27-19 40-38 40s-38-13-38-40v-59zm-68 71v1c8 8 22 10 22-5v-69c0-15-14-18-22-9v82zm106-85c-8 0-12 4-12 15v14h25v-14c0-11-4-15-13-15zm-199 81v-1c3 15 14 9 22 0V563h26v131h-26v-14c-8 8-19 15-30 15s-19-6-19-22V563h27v101z"/></svg>
