<svg xmlns="http://www.w3.org/2000/svg" viewBox="0 -189 756 1008"><path fill="currentColor" d="M693 126h1c35 0 63 28 63 63v63c0 35-28 62-63 63v567c0 35-28 63-63 63H190c-35 0-63-28-63-63V315c-35-1-63-28-63-63v-63c0-35 28-63 63-63h252V94c0-20 16-31 31-31s31 11 31 31v32h252zm-62 725l-3-536h-63v472c0 21-16 32-31 32s-31-11-31-32V315h-63v472c0 21-16 32-31 32s-31-11-31-32V315h-63v472c0 21-16 32-31 32s-31-11-31-32V315h-63v536c0 19 13 31 32 31h378c19 0 31-12 31-31zm60-615v-31c0-11-5-16-16-16H140c-11 0-16 5-16 16v31c0 11 5 16 16 16h535c11 0 16-5 16-16z"/></svg>
