<svg xmlns="http://www.w3.org/2000/svg" viewBox="0 0 96.42 95.5"><style>.st0{fill:#fff}</style><path class="st0" d="M38.33 63.29c-1.67 0-3.36-.23-5.02-.7l1.09-3.85c8.97 2.54 18.69-3.98 21.68-14.53 1.27-4.48 1.16-9.21-.31-13.33l-.23-.66 3.32-9.7v-9.65c0-3.79-3.09-6.88-6.88-6.88h-1.32v12.24l-3.97 5.56-12.9 14.1a13.654 13.654 0 0 0-3.38 6.17l-.37 1.53h-5.93v-4h2.86c.82-2.39 2.14-4.59 3.89-6.42l12.79-13.98 3-4.23V.12l1.9-.1c.21-.01.34-.02.46-.02h2.96c6 0 10.88 4.88 10.88 10.88V21.2l-3.08 9.03c1.52 4.73 1.58 10.06.16 15.08-3.06 10.76-12.14 17.98-21.6 17.98zM69.77 88.29H43.62c-5.26 0-10.11-2.28-13.47-6.3h-6.04v-4h8.01l.6.8c2.61 3.49 6.58 5.49 10.9 5.49h26.15v4.01z"/><path class="st0" d="M87.33 45.74H67.49c-5.01 0-9.09-4.08-9.09-9.09s4.08-9.09 9.09-9.09h19.84c5.01 0 9.09 4.08 9.09 9.09s-4.08 9.09-9.09 9.09zM67.49 31.57c-2.81 0-5.09 2.28-5.09 5.09 0 2.8 2.28 5.09 5.09 5.09h19.84c2.8 0 5.09-2.28 5.09-5.09 0-2.8-2.28-5.09-5.09-5.09H67.49z"/><path class="st0" d="M83.55 59.91H63.71c-5.01 0-9.09-4.08-9.09-9.09s4.08-9.09 9.09-9.09h19.84c5.01 0 9.08 4.08 9.08 9.09s-4.07 9.09-9.08 9.09zM63.71 45.74c-2.8 0-5.09 2.28-5.09 5.09s2.28 5.09 5.09 5.09h19.84c2.8 0 5.08-2.28 5.08-5.09s-2.28-5.09-5.08-5.09H63.71z"/><path class="st0" d="M81.66 74.08H61.82c-5.01 0-9.09-4.08-9.09-9.09s4.08-9.09 9.09-9.09h19.84c5.01 0 9.08 4.08 9.08 9.09.01 5.02-4.07 9.09-9.08 9.09zM61.82 59.91c-2.81 0-5.09 2.28-5.09 5.09 0 2.8 2.28 5.09 5.09 5.09h19.84c2.8 0 5.08-2.28 5.08-5.09a5.09 5.09 0 0 0-5.08-5.09H61.82z"/><path class="st0" d="M75.99 88.25H61.82c-5.01 0-9.09-4.08-9.09-9.09s4.08-9.09 9.09-9.09h14.17c5.01 0 9.09 4.08 9.09 9.09 0 5.02-4.08 9.09-9.09 9.09zM61.82 74.08c-2.81 0-5.09 2.28-5.09 5.09 0 2.8 2.28 5.09 5.09 5.09h14.17c2.8 0 5.09-2.28 5.09-5.09 0-2.8-2.28-5.09-5.09-5.09H61.82zM0 39.75h21.83V95.5H0"/><g><path class="st0" d="M7.13 85.24h4v4.06h-4z"/></g></svg>
