<svg xmlns="http://www.w3.org/2000/svg" viewBox="0 0 148.21 145.84"><style>.st0{fill:#fff}</style><path class="st0" d="M129.88 89.18c-.31-.54-.87-.91-1.49-.99a1.99 1.99 0 0 0-1.68.6l-6.1 6.32-17.37-26c-.35-.53-.93-.85-1.56-.89a1.92 1.92 0 0 0-1.64.72L89.81 81.28 63.76 30.06A2.015 2.015 0 0 0 62 28.97h-.02c-.74 0-1.41.4-1.76 1.05l-22.5 41.9H20.49c-4.5 0-8.15 3.66-8.15 8.15 0 1.14.25 2.26.7 3.28H8.15C3.66 83.35 0 87 0 91.5c0 4.46 3.65 8.11 8.13 8.15l14.62.13-16.36 30.48a2 2 0 0 0 .82 2.71c.3.16.63.24.94.24.71 0 1.4-.38 1.76-1.05l52.01-96.87 37.67 74.05H75.73c-4.28 0-7.77 3.46-7.81 7.73H55.44c-5.47 0-9.56 5.68-9.58 10.77h-6.88c-4.53-.14-8.44 1.79-10.47 5.11-1.53 2.51-1.67 5.43-.36 7.83 1 1.82 3.73 4.91 10.89 5.06h77.75c.35 0 .7-.09 1.01-.27a8.506 8.506 0 0 0 4.21-7.32c0-1.24-.28-2.45-.79-3.55h4.07c4.57 0 9.69-3.62 9.69-8.47s-5.12-8.47-9.69-8.47h-10.86c.02-.2.02-.41.02-.61 0-4.3-3.5-7.81-7.81-7.81h-2.77c-.01-.27-.08-.54-.21-.79L91.79 85.17l9.61-11.6 17.26 25.83a2 2 0 0 0 1.48.88c.6.05 1.2-.17 1.62-.6l5.98-6.2 16.73 29.04c.37.64 1.04 1 1.73 1 .34 0 .68-.09 1-.27.96-.55 1.29-1.77.73-2.73l-18.05-31.34zM8.17 95.65C5.87 95.63 4 93.77 4 91.5c0-2.29 1.86-4.15 4.15-4.15h9.18a2.001 2.001 0 0 0 1.03-3.72 4.189 4.189 0 0 1-2.03-3.56c0-2.29 1.86-4.15 4.15-4.15h15.09L24.89 95.8l-16.72-.15zm102.29 21.5c0 .6-.14 1.17-.41 1.71-.31.62-.28 1.36.08 1.95.36.59 1.01.95 1.7.95h13.45c2.51 0 5.69 2.11 5.69 4.47 0 2.37-3.18 4.47-5.69 4.47h-8.44a2.001 2.001 0 0 0-1.03 3.72c1.35.81 2.18 2.28 2.18 3.84 0 1.42-.69 2.75-1.82 3.59H39.09c-3.73-.08-6.43-1.17-7.43-2.98-.62-1.14-.53-2.53.26-3.82 1.23-2.02 3.7-3.2 6.7-3.2h9.51c.62 0 1.21-.29 1.59-.79s.5-1.14.34-1.74c-.13-.47-.19-.96-.19-1.45 0-3.06 2.57-6.8 5.58-6.8h14.81a2.001 2.001 0 0 0 1.88-2.67c-.14-.4-.22-.83-.22-1.26 0-2.1 1.71-3.81 3.81-3.81h30.92c2.11.01 3.81 1.71 3.81 3.82zM116.4 45.81c7.72 0 14-6.28 14-14s-6.28-14-14-14-14 6.28-14 14 6.28 14 14 14zm0-24.01c5.52 0 10 4.49 10 10s-4.49 10-10 10-10-4.49-10-10 4.49-10 10-10zM116.6 12.43c1.1 0 2-.9 2-2V2c0-1.1-.9-2-2-2s-2 .9-2 2v8.43c0 1.1.9 2 2 2zM100.01 17.96c.39.39.9.59 1.41.59s1.02-.2 1.41-.59c.78-.78.78-2.05 0-2.83l-5.96-5.96c-.78-.78-2.05-.78-2.83 0-.78.78-.78 2.05 0 2.83l5.97 5.96zM86.6 33.61h8.43c1.1 0 2-.9 2-2s-.9-2-2-2H86.6a2 2 0 1 0 0 4zM99.73 45.37l-5.96 5.96a2.004 2.004 0 0 0 1.41 3.42c.51 0 1.02-.2 1.41-.59l5.96-5.96c.78-.78.78-2.05 0-2.83-.77-.79-2.03-.79-2.82 0zM114.21 53.18v8.43c0 1.1.9 2 2 2s2-.9 2-2v-8.43c0-1.1-.9-2-2-2s-2 .9-2 2zM129.97 45.64c-.78.78-.78 2.05 0 2.83l5.96 5.96c.39.39.9.59 1.41.59a2.004 2.004 0 0 0 1.41-3.42l-5.96-5.96c-.78-.78-2.04-.78-2.82 0zM135.78 32c0 1.1.9 2 2 2h8.43c1.1 0 2-.9 2-2s-.9-2-2-2h-8.43a2 2 0 0 0-2 2zM131.66 18.83c.51 0 1.02-.2 1.41-.59l5.96-5.96c.78-.78.78-2.05 0-2.83s-2.05-.78-2.83 0l-5.96 5.96a2.004 2.004 0 0 0 1.42 3.42z"/></svg>
