<svg xmlns="http://www.w3.org/2000/svg" viewBox="0 -144 1008 1008"><path fill="currentColor" d="M30 202h343c10 0 17 2 22 7s8 10 9 16 1 14 1 25v23s-1 9-3 14c-3 10-12 15-27 15H32c-10 0-17-2-22-7s-8-10-9-16-1-14-1-25v-23s1-9 3-14c3-10 12-15 27-15zm0 504h343c10 0 17 2 22 7s8 10 9 16 1 14 1 25v23s-1 9-3 14c-3 10-12 15-27 15H32c-10 0-17-2-22-7s-8-10-9-16-1-14-1-25v-23s1-9 3-14c3-10 12-15 27-15zm0-252h343c10 0 17 2 22 7s8 10 9 16 1 14 1 25v23s-1 9-3 14c-3 10-12 15-27 15H32c-10 0-17-2-22-7s-8-10-9-16-1-14-1-25v-23s1-9 3-14c3-10 12-15 27-15zm777 0h171c10 0 17 2 22 7s8 10 9 16 1 14 1 25v23s-1 9-3 14c-3 10-12 15-27 15H809v171c0 10-2 17-7 22s-10 8-16 9-14 1-25 1h-23s-9-1-14-3c-10-3-15-12-15-27V556H538c-10 0-17-2-22-7s-8-10-9-16-1-14-1-25v-23s1-9 3-14c3-10 12-15 27-15h171V285c0-10 2-17 7-22s10-8 16-9 14-1 25-1h23s9 1 14 3c10 3 15 12 15 27v171z"/></svg>
