<svg xmlns="http://www.w3.org/2000/svg" viewBox="0 -144 936 1008"><path fill="currentColor" d="M792 918V90c0-10-8-18-18-18H90c-10 0-18 8-18 18v828c0 10 8 18 18 18h684c10 0 18-8 18-18zm144-684v108c0 10-8 18-18 18h-54v72h54c10 0 18 8 18 18v108c0 10-8 18-18 18h-54v72h54c10 0 18 8 18 18v108c0 10-8 18-18 18h-54v126c0 49-41 90-90 90H90c-49 0-90-40-90-90V90C0 40 41 0 90 0h684c49 0 90 41 90 90v126h54c10 0 18 8 18 18zM551 486c108 0 125 128 125 210 0 48-30 96-82 96H270c-52 0-82-48-82-96 0-79 17-210 122-210h3c37 22 75 49 119 49s82-27 119-49zm27-124c0 81-66 146-146 146s-146-65-146-146 66-146 146-146 146 65 146 146z"/></svg>
