<svg xmlns="http://www.w3.org/2000/svg" viewBox="0 -144 1008 1008"><path fill="currentColor" d="M886 136v-5c11 8 18 19 20 33s0 25-6 34-27 38-63 87-61 80-74 93-25 24-36 33-24 17-39 23-28 11-39 15-26 7-46 9c-27 3-63 6-108 8L659 56c5-13 14-22 27-27s26-5 39 0 22 14 27 27 5 26 0 39L634 389l182-242c8-11 19-18 33-20s26 1 37 9zM714 498c48-20 96-62 144-126 20 19 30 38 30 58v101c0 26-5 58-15 96s-21 72-33 102-28 60-49 91-45 58-72 82-61 43-102 58-83 23-126 23-81-5-114-14-61-21-85-37-46-34-66-55-36-43-49-66-24-47-34-72-18-48-23-69-9-42-12-62c-5-32-8-57-8-76V431c0-40 36-76 108-107s167-47 285-47h2l-30 74c-51 2-99 9-145 21s-80 25-103 38-34 24-34 33 13 20 38 34 63 27 113 39 103 18 159 18h5c85 0 138-9 158-15s39-13 58-21z"/></svg>
