<svg xmlns="http://www.w3.org/2000/svg" viewBox="0 -192 1008 1008"><path fill="currentColor" d="M187 469h2c-19-46-29-86-29-124 0-96 33-177 100-244C328 33 409-1 505-1c95 0 176 34 244 102s103 147 103 243c0 74-45 164-103 265-28 50-44 90-55 117s-22 60-31 98c-11 38-20 63-27 82-7 17-14 34-26 53-24 39-52 51-106 51-40 4-67-8-87-28-21-20-34-48-45-76-7-19-16-44-25-82-11-38-23-71-32-98-11-29-28-65-57-116-28-48-51-95-71-141zm171 192l297 1c11-23 28-56 53-100 56-101 83-173 83-216 0-79-27-145-83-200-55-56-122-83-201-83s-145 27-201 83c-55 55-82 121-82 200 0 44 26 114 82 215 25 44 43 77 52 100zm149-503v1c11 0 16 8 16 16s-5 16-16 16c-44 0-83 18-111 46-28 29-46 68-46 111 0 11-8 17-16 17s-16-6-16-17c0-52 21-99 56-134 34-34 81-56 133-56zM385 726l19 62 214-28c3-8 4-19 11-34H385zm46 152l156-20 12-37c3-8 7-25 7-28l-194 24h1zm12 30v-1c16 34 29 40 63 40 20 0 32-2 43-10s19-21 28-45z"/></svg>
