<svg xmlns="http://www.w3.org/2000/svg" viewBox="0 -144 1008 1008"><path fill="currentColor" d="M642 822c6-12 7-25 3-38s-12-23-24-29-25-7-38-3-23 12-29 24-7 25-3 38 12 23 24 29 25 7 38 3 23-12 29-24zm232-674l90 46c12 6 20 16 24 29s3 26-3 38L663 889c-6 12-16 20-29 24s-26 3-38-3l-90-46c-12-6-20-16-24-29s-3-26 3-38l322-628c6-12 16-20 29-24s26-3 38 3zm-159-4l-4 102-211 412 12-516c0-14 5-26 15-36s22-15 36-15l101 2c14 0 26 5 36 15s16 22 15 36zm-454 33l92-42-1-1c13-6 26-6 39-1s22 14 28 27l41 91-11 463-214-470c-6-13-6-26-1-39s14-22 27-28zM160 302l77 64 192 421L31 457c-11-9-17-20-18-34s3-26 12-37l64-78c9-11 20-17 34-18s26 3 37 12z"/></svg>
