<svg xmlns="http://www.w3.org/2000/svg" viewBox="0 -144 1008 1008"><path fill="currentColor" d="M1008 576c0 92-59 173-150 226 20 46 44 68 66 93 7 7 14 14 11 25-2 10-10 17-19 16-17-2-33-5-49-9-56-15-109-39-156-72-31 6-65 9-99 9-102 0-195-28-265-74 16 1 33 2 49 2 121 0 235-35 322-98 94-68 146-161 146-262 0-29-4-58-13-86 95 53 157 136 157 230zM792 432c0 159-177 288-396 288-34 0-68-3-99-9-47 33-100 57-156 72-16 4-32 7-49 9h-1c-9 0-17-7-18-16-3-11 4-18 11-25 22-25 46-47 66-93C59 605 0 523 0 432c0-159 177-288 396-288s396 129 396 288z"/></svg>
