<svg xmlns="http://www.w3.org/2000/svg" viewBox="0 -144 1152 1008"><path fill="currentColor" d="M1008 72c79 0 144 65 144 144 0 65-45 123-108 139v581H108V355C45 339 0 281 0 216 0 137 65 72 144 72s144 65 144 144c0 64-43 121-105 139l177 295 177-295c-62-18-105-75-105-139 0-79 65-144 144-144s144 65 144 144c0 64-43 121-105 139l177 295 177-295c-62-18-105-75-105-139 0-79 65-144 144-144zM468 216c0 59 49 108 108 108s108-49 108-108-49-108-108-108-108 49-108 108zm-432 0c0 59 49 108 108 108s108-49 108-108-49-108-108-108S36 157 36 216zm972 684V360L792 720 576 360 360 720 144 360v540h864zm0-576c59 0 108-49 108-108s-49-108-108-108-108 49-108 108 49 108 108 108z"/></svg>
