<svg xmlns="http://www.w3.org/2000/svg" viewBox="0 -144 864 1008"><path fill="currentColor" d="M720 344c0-31-22-56-54-56H198c-30 0-54 24-54 54s32 64 55 79c50 33 101 64 150 97 22 14 57 40 83 40s61-26 83-40c50-33 100-65 150-98 22-14 55-48 55-76zm0 322V421c-11 12-23 22-36 31-53 34-108 67-160 103-26 19-59 39-92 39s-66-20-92-39c-52-36-108-68-160-104-13-9-23-21-36-30v245c0 30 24 54 54 54h468c30 0 54-24 54-54zM162 72h540c89 0 162 73 162 162v540c0 89-73 162-162 162H162C73 936 0 863 0 774V234C0 145 73 72 162 72z"/></svg>
