<svg xmlns="http://www.w3.org/2000/svg" viewBox="0 -144 864 1008"><path fill="currentColor" d="M648 486v-36c0-10-8-18-18-18H234c-10 0-18 8-18 18v36c0 10 8 18 18 18h396c10 0 18-8 18-18zm0 144v-36c0-10-8-18-18-18H234c-10 0-18 8-18 18v36c0 10 8 18 18 18h396c10 0 18-8 18-18zm0 144v-36c0-10-8-18-18-18H234c-10 0-18 8-18 18v36c0 10 8 18 18 18h396c10 0 18-8 18-18zm-90-414h306v594c0 30-24 54-54 54H54c-30 0-54-24-54-54V54C0 24 24 0 54 0h450v306c0 30 24 54 54 54zm38-322l230 230c5 5 10 12 16 20H576V22c8 6 15 11 20 16z"/></svg>
