<svg xmlns="http://www.w3.org/2000/svg" viewBox="0 -144 864 1008"><path fill="currentColor" d="M234 720h396c10 0 18 8 18 18v36c0 10-8 18-18 18H234c-10 0-18-8-18-18v-36c0-10 8-18 18-18zm0-144h396c10 0 18 8 18 18v36c0 10-8 18-18 18H234c-10 0-18-8-18-18v-36c0-10 8-18 18-18zm-18-90v-36c0-10 8-18 18-18h396c10 0 18 8 18 18v36c0 10-8 18-18 18H234c-10 0-18-8-18-18zM72 936h720V360H558c-30 0-54-24-54-54V72H72v864zM576 76v212h212c-4-10-9-19-13-23L599 89c-4-4-13-9-23-13zm74-38l176 176c21 21 38 62 38 92v648c0 30-24 54-54 54H54c-30 0-54-24-54-54V54C0 24 24 0 54 0h504c30 0 71 17 92 38z"/></svg>
