<svg xmlns="http://www.w3.org/2000/svg" viewBox="0 -144 1008 1008"><path fill="currentColor" d="M703 270l-1 1c13 0 25-3 36-9s19-14 25-25 9-23 9-36-3-25-9-36c-13-23-31-35-54-35s-41 7-55 21-21 29-21 45 3 29 9 40 14 19 25 25 23 9 36 9zM273 869c9 4 20 6 34 6s28-7 42-21 21-30 21-49-7-35-21-49-30-21-49-21-35 7-49 21-21 28-21 42 2 25 6 34 9 16 15 22 13 11 22 15zm27-739c-19 0-35 7-49 21s-21 30-21 49 7 35 21 49 30 21 49 21 35-7 49-21 21-30 21-49-7-35-21-49-30-21-49-21zm510 11l-2-2c11 19 16 40 16 63s-7 44-20 64-30 35-51 45c-2 62-23 111-63 147-26 23-51 40-75 51-29 14-60 27-93 39s-58 22-75 30-34 18-50 29c-30 21-46 51-48 90 21 10 38 25 51 45s19 44 19 73-12 55-36 79-53 36-86 36-62-12-86-36-36-50-36-79 6-53 19-73 30-35 51-45V311c-21-10-38-25-51-45s-19-44-19-73 12-55 36-79 53-36 86-36 62 12 86 36 36 50 36 79-6 53-19 73-30 35-51 45v208c28-18 65-36 111-53s77-29 94-37 34-18 50-29c30-21 46-51 48-90-29-13-49-34-61-63-6-14-9-29-9-45 0-33 12-62 36-86s53-36 86-36c22 0 42 5 61 16s34 26 45 45z"/></svg>
