<svg xmlns="http://www.w3.org/2000/svg" viewBox="0 -144 1008 1008"><path fill="currentColor" d="M705 875l1 1c19 0 35-7 49-21s21-30 21-49-7-35-21-49-29-21-45-21-29 3-40 9c-23 13-35 31-35 54s7 41 21 55 30 21 49 21zm-48-725l-1 1c-14 14-21 29-21 45s3 29 9 40 14 19 25 25 23 9 36 9 25-3 36-9 19-14 25-25 9-23 9-36-3-25-9-36c-13-23-31-35-54-35s-41 7-55 21zm99 162v385l1-2c21 10 38 25 51 45s19 41 19 64-5 44-16 63-26 34-45 45-39 16-61 16c-33 0-62-12-86-36s-36-50-36-79 6-53 19-73 30-35 51-45V309c-29-13-50-34-62-63-6-14-9-29-9-45 0-33 12-62 36-86s53-36 86-36c22 0 42 5 61 16s34 26 45 45 16 40 16 63-6 44-19 64-30 35-51 45zm-503-60v-1c14 14 29 21 45 21s29-3 40-9c23-13 35-33 35-60s-12-47-35-61c-11-6-24-9-40-9s-31 7-45 21-21 30-21 49 7 35 21 49zm119 555c0-19-7-35-21-49s-30-21-49-21-35 7-49 21-21 28-21 42 2 25 6 34 9 16 15 22c14 14 30 21 49 21s35-7 49-21 21-30 21-49zm16-691v1c24 24 36 50 36 79s-6 53-19 73-30 35-51 45v385c21 10 38 25 51 45s19 44 19 73-12 55-36 79-53 36-86 36-62-12-86-36-36-50-36-79 6-53 19-73 30-35 51-45V313c-21-10-38-25-51-45s-19-44-19-73 12-55 36-79 53-36 86-36 62 12 86 36z"/></svg>
