<svg xmlns="http://www.w3.org/2000/svg" viewBox="0 -145 1008 1008"><path fill="currentColor" d="M805 584l-1 1c3 16 0 29-10 38s-22 12-36 9-24-13-30-29c-1-3-3-10-7-20s-7-19-10-27-7-18-12-31-9-23-13-31-9-17-14-27c-10-18-22-35-36-52-8 57-3 134 15 231 7 37 16 81 26 131 17 85 26 138 27 160s0 36-3 42-7 11-11 15c-10 10-20 15-30 15s-18-1-24-4c-13-6-23-15-27-28-15-47-42-129-84-245l-21-58c-54 148-89 249-104 302-4 10-10 18-19 24s-19 9-31 9-23-5-33-15-15-22-15-36c1-36 9-91 24-164s28-144 39-213 13-125 6-167c-25 28-46 64-63 108-6 15-12 31-18 49s-10 28-11 31c-6 16-16 26-30 29s-26 0-36-9-13-22-10-38c34-155 68-254 102-296s100-63 199-63 165 21 199 63 68 141 102 296zM504 202c-28 0-52-10-72-30s-30-44-30-72 10-52 30-72 44-30 72-30 52 10 72 30 30 44 30 72-10 52-30 72-44 30-72 30z"/></svg>
