<svg xmlns="http://www.w3.org/2000/svg" viewBox="0 -144 1008 1008"><path fill="currentColor" d="M504 0c278 0 504 226 504 504s-226 504-504 504S0 782 0 504 226 0 504 0zm0 936c238 0 432-194 432-432S742 72 504 72 72 266 72 504s194 432 432 432zm36-466c103 13 180 78 180 160s-77 147-180 160v74h-72v-74c-127-11-166-81-179-125l70-20c11 42 48 66 109 73V538c-103-13-180-78-180-160s77-147 180-160v-74h72v74c127 11 166 81 179 125l-70 20c-11-42-48-66-109-73v180zm-180-92c0 41 47 77 108 87V291c-61 10-108 46-108 87zm180 339c61-10 108-46 108-87s-47-77-108-87v174z"/></svg>
