<svg xmlns="http://www.w3.org/2000/svg" viewBox="0 -144 1008 1008"><path fill="currentColor" d="M899 635L736 131c-46-7-97-1-154 18s-98 56-122 112l158 488c33-44 76-74 129-91s104-25 152-23zM552 773L393 283c-53-31-108-37-165-18s-102 45-135 78l164 503c38-30 83-54 136-71s106-18 159-2zM405 203l-1 1c44-82 120-131 228-146 37-5 70-6 99-3s47 5 55 7l12 3 206 635c2 6 2 12-1 18s-7 10-13 13-12 3-18 1c-59-21-124-20-195 3s-116 67-136 132c-3 8-8 14-16 17s-15 2-22-3c-54-42-117-51-188-28s-124 60-160 111c-6 8-14 11-24 9s-17-8-20-18L5 321c30-38 73-72 130-102 96-52 186-57 270-16zm-23 270l22 69 1 1c-46-4-98 10-157 42l-22-67c56-30 108-45 156-45zm-48-145l22 69 1 1c-46-4-98 10-157 42l-22-67c56-30 108-45 156-45zm92 287l22 69 1 1c-46-4-98 10-157 42l-22-67c56-30 108-45 156-45zm353-121l22 67h-1c-66 9-117 28-152 58l-22-69c39-28 90-47 153-56zm-46-144l22 67h-1c-66 9-117 28-152 58l-22-69c39-28 90-47 153-56zm-46-144l22 67h-1c-66 9-117 28-152 58l-22-69c39-28 90-47 153-56z"/></svg>
