<svg xmlns="http://www.w3.org/2000/svg" viewBox="0 -144 864 1008"><path fill="currentColor" d="M864 504c0 238-193 432-432 432S0 742 0 504 193 72 432 72s432 194 432 432zM432 144C233 144 72 305 72 504s161 360 360 360 360-161 360-360-161-360-360-360zm207 252c0 80-56 111-97 134-29 17-47 28-47 46v18c0 10-8 18-18 18h-90c-10 0-18-8-18-18v-38c0-69 50-91 89-109 34-16 55-27 55-52 0-33-41-57-78-57-20 0-41 6-54 15-12 9-24 21-45 47-3 4-8 7-14 7-4 0-8-2-10-4l-61-46c-7-5-9-16-4-24 46-73 111-108 196-108 93 0 196 73 196 171zM495 675v90c0 10-8 18-18 18h-90c-10 0-18-8-18-18v-90c0-10 8-18 18-18h90c10 0 18 8 18 18z"/></svg>
