<svg xmlns="http://www.w3.org/2000/svg" viewBox="0 -144 1008 1008"><path fill="currentColor" d="M792 576c119 0 216 97 216 216s-97 216-216 216-216-97-216-216c0-22 3-43 9-63l-195-98c-39 54-102 89-174 89C97 720 0 623 0 504s97-216 216-216c72 0 135 35 174 89l195-98c-6-20-9-41-9-63C576 97 673 0 792 0s216 97 216 216-97 216-216 216c-72 0-135-35-174-89l-195 98c6 20 9 41 9 63s-3 43-9 63l195 98c39-54 102-89 174-89zm0-504c-79 0-144 65-144 144s65 144 144 144 144-65 144-144S871 72 792 72zM216 648c79 0 144-65 144-144s-65-144-144-144S72 425 72 504s65 144 144 144zm576 288c79 0 144-65 144-144s-65-144-144-144-144 65-144 144 65 144 144 144z"/></svg>
