<svg xmlns="http://www.w3.org/2000/svg" viewBox="0 -147 1008 1008"><path fill="currentColor" d="M153 808h252l1 99c0 35 9 69 28 101H154c-28 0-52-10-72-30s-30-44-30-72V100c0-18 5-35 14-50s21-27 36-36 32-14 50-14h605c28 0 52 10 72 30s30 44 30 72v50H758v-50H153v706zm454 0h252V354H607v454zm79 135l2 1c12 10 25 15 38 15s23-1 31-4 15-7 21-11c12-10 18-21 18-33s-3-22-9-30-14-14-24-18-21-6-32-6-22 2-32 6c-21 10-31 23-31 40s6 30 18 40zm-81-691h252c28 0 52 10 72 30s30 44 30 72v555c0 28-10 52-30 72s-44 30-72 30H605c-28 0-52-10-72-30s-30-44-30-72V354c0-28 10-52 30-72s44-30 72-30z"/></svg>
