<svg xmlns="http://www.w3.org/2000/svg" viewBox="-1 -189 654 1008"><path fill="currentColor" d="M327 636h-1c3 0 6-1 9-4l39-69v-4c0-5-3-8-8-8h-79c-4 0-7 3-7 8v2l2 2 37 69h2c3 3 5 4 6 4zm-48 236H36c-21 0-37-20-37-43V650c0-21 8-35 24-42l163-74 63-30c-29-19-52-42-68-77-15-31-22-63-22-97 0-15 1-34 8-57 11-40 33-74 61-99 28-24 63-38 99-38 78 0 140 56 161 142 5 17 6 34 6 53 0 29-5 60-20 89-17 39-40 65-65 81l65 32 159 74c15 7 22 21 22 42v179c0 23-15 43-38 43H375V729l-39-67v-2c-3-1-6-3-9-3s-4 2-7 3l-41 69h2c0 3-2 2-2 5v138z"/></svg>
