<svg xmlns="http://www.w3.org/2000/svg" viewBox="0 -144 1152 1008"><path fill="currentColor" d="M1152 576v-36H288v36h864zm0-360v-36H288v36h864zm0 720v-36H288v36h864zM108 108c-40 0-72 32-72 72s32 72 72 72 72-32 72-72-32-72-72-72zm0-36c59 0 108 49 108 108s-49 108-108 108S0 239 0 180 49 72 108 72zm0 396c-40 0-72 32-72 72s32 72 72 72 72-32 72-72-32-72-72-72zm0-36c59 0 108 49 108 108s-49 108-108 108S0 599 0 540s49-108 108-108zm0 396c-40 0-72 32-72 72s32 72 72 72 72-32 72-72-32-72-72-72zm0-36c59 0 108 49 108 108s-49 108-108 108S0 959 0 900s49-108 108-108z"/></svg>
