<svg xmlns="http://www.w3.org/2000/svg" viewBox="0 -189 1008 1008"><path fill="currentColor" d="M588 548v261c96-10 143-52 143-127 0-71-51-107-143-134zM391 261v-2c0 34 10 58 21 73 4 7 12 13 25 19 12 7 19 9 26 12l32 8 9 3V144c-34 4-61 15-82 32s-31 45-31 85zM248 642l120 3c5 88 54 143 138 160V523c-7-1-21-6-24-6-51-16-83-25-127-52-62-38-97-92-100-188-3-51 12-96 36-134C342 65 416 31 504 23v-65h84v66c43 4 77 14 124 38 67 35 116 99 124 216H702c-4-40-14-70-29-91s-43-35-85-42v258l54 11c38 9 68 15 112 40 23 12 41 27 57 43 31 35 57 92 57 162 0 78-25 140-75 188-51 48-119 74-205 80v65h-84v-66c-85-9-151-38-199-88-23-23-38-49-45-78-7-30-11-69-12-118z"/></svg>
