<svg xmlns="http://www.w3.org/2000/svg" viewBox="0 -144 1008 1008"><path fill="currentColor" d="M943 972l23-101-354-106V663c84-8 205-21 280-64-55-24-92-79-92-139 0-34 10-66 10-100 0-170-130-324-306-324S198 190 198 360c0 34 10 66 10 100 0 60-37 115-92 139 75 43 196 56 280 64v102L42 871l23 101h878zM648 738l360 108-36 162H36L0 846l360-108v-43c-55-5-306-36-306-119 64 0 118-52 118-116 0-33-10-66-10-100C162 169 308 0 504 0s342 169 342 360c0 34-10 67-10 100 0 64 54 116 118 116 0 83-251 114-306 119v43z"/></svg>
