<svg xmlns="http://www.w3.org/2000/svg" viewBox="0 0 448.72 180.79"><style>.st0{fill:#fff}</style><path class="st0" d="M392.48 128.33c-.89-3.92-3.19-6.66-5.09-8.62-3.3-3.38-7.39-4.9-11.8-4.38l-.48.06c-.51.06-1.02.12-1.51.17 1.38-1.05 2.32-2.55 2.71-4.39.05-.26.08-.52.09-.78.07-2.76-1.23-4.71-2.09-6-.18-.26-.36-.53-.51-.8-1.64-2.88-4.24-4.51-7.43-4.71l1.56-.46c1.4-.41 2.49-1.49 2.92-2.88l.13-.39c.2-.55.47-1.3.57-2.23.14-1.32.19-2.66.17-3.99-.01-.69.15-1.31.53-2.06.84-1.64 1.98-3.29 3.71-5.36.9-1.08 2.1-2.78 2.23-5.16.19-3.47-.86-6.39-3.13-8.67-1.56-1.57-3.31-2.37-4.97-3.01-.15-.06-.3-.09-.45-.14.53-.13 1.06-.25 1.58-.38 1.01-.25 2.02-.51 3.04-.72 4.24-.86 7.65-.84 10.7.08-.03.02-.06.05-.09.08-.42.24-1.24.64-2.07 1.05-3.48 1.72-4.92 2.44-5.18 4.92 0 .02-.01.04-.01.07-.19 2.1.35 3.76 1.6 4.95.67.63 2.14 1.66 4.45 1.31 1-.15 2.11-.16 3.29-.18 1.97-.03 4.21-.07 6.55-.72.83-.23 1.82-.35 2.88-.48 1.03-.13 2.09-.26 3.22-.5 4.25-.93 7.58-2.72 10.16-5.45 2.4-2.54 3.3-5.72 2.56-8.94-1.05-4.57-5.17-7.99-8.78-9.35-5.04-1.91-10.22-1.5-14.8-1.57-1.41-.01-2.82 0-4.23.02-.21 0-.43.01-.64.01 5.2-3.16 5.03-7.63 4.44-10.05-.07-.31-.18-.6-.32-.88-2.48-5.07-6.75-6.58-10.18-7.79-.74-.26-1.49-.53-2.25-.84-2.21-.91-4.57-.94-7-.08-1.58.56-3.41 1.35-4.97 2.98-.53.56-.9 1.25-1.08 2-.48 2.05-.48 4.05.01 5.92-.23.63-1.41 1.81-3.38 3.08.08-.29.17-.57.27-.85.34-.96.52-1.89.67-2.75.6-3.38 1.4-5.98 2.53-8.21 2.1-4.14 1.52-8.3-1.58-11.4-.45-.45-.99-.79-1.59-1.01l-.55-.21c-.57-.22-1.21-.48-1.99-.66l-1.19-.28c-2.42-.56-4.71-1.1-6.89-1.86-3.23-1.13-5.6-.32-7.02.56-.4.24-.75.55-1.05.91-3.07 3.69-2.24 7.89-1.97 9.27.28 1.43.37 2.96.47 4.57.04.7.08 1.4.14 2.1.12 1.47.18 2.93.23 4.41-.54.18-1.09.44-1.72.91-2.59 1.91-5.37 3.37-8.26 4.35l-.23-.72c-.55-1.71-1.95-3.01-3.85-3.55-2.86-.81-7.74.04-9.67 1.68-1.44 1.23-2.39 2.92-2.8 5.02-.74 3.77-1.58 8.04-1.25 12.54.18 2.5.59 5.17 2.28 7.72.38.57.89 1.04 1.49 1.38.35.2.71.36 1.06.52-.03.15-.08.3-.1.46-.14 1.73.38 3.34 1.46 4.53a5.542 5.542 0 0 0 4.02 1.84c.16.04.6.29.93.47l.39.22c1.18.64 2.4 1.05 3.64 1.28-.08 1.36.45 2.69 1.51 3.58.36.3.82.8 1.19 2.01.44 1.42.98 2.59 1.64 3.57.49.72.83 1.64 1.08 2.88.39 1.96.76 3.93 1.09 5.68l.34 1.81c.11.6.35 1.16.69 1.66l3.77 5.44c-8.15 2.45-12.24 4.32-13.21 7.8-.48 1.73-.03 3.57 1.21 4.93 1.47 1.62 4.93 5.41 10.46 5.4l2.27-.01h1.1c-.01.24-.03.5-.05.76 0 .03 0 .06-.01.09-.18.09-.33.17-.47.22-2.29.85-4.18 1.46-5.92 1.91-3.2.82-5.74 2.5-7.98 3.97l-.82.54c-2.25 1.47-3.37 3.74-3.15 6.42.03.37.11.73.23 1.08.88 2.5 2.78 4.3 5.35 5.06.52.16 1.04.32 1.56.49.87.28 1.74.56 2.63.8 1.89.51 3.67.76 5.37.75 2.95-.01 5.62-.8 8.1-2.38 2.08-1.32 4.62-2.15 7.79-2.54l1.55-.19c2.62-.31 5.32-.64 8.02-1.15 1.97-.38 3.85-.43 5.75-.15 5.9.86 11.66.86 17.52.8.54-.01 1.08-.08 1.73-.19.53-.07 1.05-.24 1.52-.49 1.47-.88 4.8-3.33 3.61-8.53zM317.7 63.17c-1.16-1.75-1.42-3.65-1.56-5.63-.28-3.88.44-7.63 1.18-11.39.23-1.19.72-2.01 1.36-2.56.84-.72 6.08-1.71 6.59-.1.42 1.3.79 2.46 1.12 3.5.78.69 1.52.85 2.36.59.51-.15 1.05-.21 1.56-.37 3.58-1.11 6.99-2.86 10.15-5.19.54-.4.53-.4 1.82-.4 0 .49.19 1.09-.03 1.46-.54.91-1.18 1.79-1.91 2.55-2.9 3.02-5.56 6.27-8.01 9.64-2.15 2.95-4.88 5.18-7.67 7.37-2.13 1.65-4.55 1.88-6.96.53zm7.71 8.01c-1.01-.55-1.96-1.17-3.21-1.2-.89-.02-1.42-.69-1.34-1.72 1.7-2.52 4.33-3.76 7.03-4.9.33-.14.73-.13 1.02-.31 2.58-1.54 5.46-2.16 8.33-2.88 1.64-.41 3.21-1.07 4.81-1.61 1.42-3.21 2.27-6.44 2.13-9.92-.22-5.25-.06-10.52-.48-15.77-.19-2.39-.2-4.78-.67-7.17-.38-1.93-.39-3.94 1.05-5.67 1.04-.64 2.18-.55 3.3-.15 2.78.97 5.65 1.59 8.51 2.27.69.16 1.34.47 2.06.73 1.92 1.91 1.92 4.13.78 6.38-1.51 2.98-2.35 6.15-2.93 9.41-.12.7-.27 1.41-.5 2.08-.92 2.64-1.25 5.39-1.48 8.15-.04.42.06.86.1 1.34 1.36.01 2.27-.8 3.3-1.27 2.97-1.35 10.74-5.45 9.49-10.01-.36-1.33-.31-2.65-.01-3.94.92-.97 2.08-1.46 3.26-1.88 1.3-.46 2.59-.55 3.92 0 4.08 1.68 8.05 2.16 10.18 6.52.65 2.69-.66 4.32-2.8 5.52-2.97 1.66-6.09 2.97-9.41 3.75-3.48.81-6.86 1.93-10.23 3.12-1.76.62-3.63.9-5.92 1.45-.32.22-1.04.7-1.83 1.22 1.17.66 1.17.67 1.99.54 2.56-.42 5.11-.85 7.66-1.28.18-.03.35-.08.53-.09 4.62-.44 9.2-1.16 13.88-.92 3.57.18 7.15-.01 10.72.03 4.41.05 9.11-.3 13.32 1.29 4.39 1.66 8.66 6.97 4.6 11.27-2.17 2.3-4.93 3.53-7.94 4.2-2.09.46-4.28.47-6.33 1.05-3.08.86-6.23.34-9.31.79-.92.14-1.22-.35-1.11-1.58.02-.21 4.87-2.44 5.43-2.87 3.29-2.5 4.35-5.92-.48-7.56-4.47-1.52-8.97-1.32-13.48-.39-2.8.57-5.54 1.47-8.36 1.85-3.2.43-6.27 1.39-9.41 2.02-4.66.93-9.03 2.76-13.58 4.02-1.81.5-3.56 1.23-5.38 1.61-1.9.4-3.46 1.35-5.01 2.39-.44.3-.85.64-1.21.92-1.81.33-3.44.01-4.99-.83zM386.77 133c-.34.04-.78.15-1.22.15-5.63.07-11.26.06-16.85-.75-2.41-.35-4.77-.28-7.19.18-3.06.59-6.18.92-9.28 1.29-3.42.42-6.71 1.35-9.59 3.18-3.25 2.07-6.55 2.03-10.02 1.1-1.37-.37-2.72-.85-4.08-1.26-1.31-.39-2.11-1.25-2.5-2.34-.1-1.2.41-1.92 1.19-2.43 2.38-1.55 4.68-3.22 7.51-3.95 2.15-.55 4.27-1.27 6.35-2.04 1.07-.4 2.03-1.08 3.2-1.72-.01-2.63.53-5.03-.19-7.58-.45-.05-.96-.16-1.46-.16-1.97-.01-3.93.01-5.9.01-3.15 0-5.3-1.84-7.25-3.99-2.36-2.59 11.47-5.96 12.74-6.49.77-1.3.47-2.69.82-4.05-1.56-2.25-3.11-4.49-4.97-7.18-.41-2.13-.9-4.84-1.44-7.53-.32-1.58-.82-3.08-1.74-4.45-.49-.73-.83-1.59-1.1-2.44-.49-1.57-1.25-2.95-2.54-4.04.07-.47.13-.89.17-1.22.3-.15.47-.3.62-.28.53.05 1.08.08 1.57.27 1.57.6 3.17.43 4.77.34 2.53-.15 4.88-.9 7.14-2.05 1.03-.52 2.16-.82 3.24-1.25 1.4-.56 2.78-1.19 4.2-1.72 1.59-.59 3.19-1.15 4.81-1.63 1.37-.41 2.76-.73 4.16-1.02 2.26-.47 4.45-.04 6.57.77 1.25.47 2.45 1.01 3.44 2.01 1.51 1.52 1.99 3.35 1.88 5.39-.06 1.02-.59 1.85-1.24 2.62-1.6 1.92-3.08 3.91-4.23 6.16-.68 1.33-1.03 2.63-1 4.1.02 1.16-.03 2.33-.15 3.48-.06.59-.34 1.16-.53 1.79-4.09 1.2-8.09 2.38-12.22 3.59.42 2.47 1.99 4.28 2.44 6.54 1.35-.02 2.37-.36 3.41-.54 1.58-.28 3.18-.51 4.77-.64 2.13-.18 3.83.58 4.93 2.52.83 1.45 2.09 2.7 2.04 4.54-.32 1.52-1.38 2.27-2.79 2.54-2.19.42-4.39.79-6.6 1.08-1.86.25-3.73.35-5.59.55-.52.06-1.04.24-1.54.42-.24.08-.44.28-.78.51 1.01 1.96-.06 4.22.95 6.37.43 0 .87.05 1.29-.02 1.06-.16 2.12-.16 3.18-.2 1.76-.07 3.52-.54 5.26-.92 1.75-.39 3.49-.6 5.3-.57 1.78.03 3.57-.2 5.34-.41 3.28-.38 5.97.82 8.2 3.11 1.82 1.87 3.37 3.91 3.97 6.56.38 1.58.14 2.82-1.47 3.7z"/><path class="st0" d="M356.18 81.23c.2-.83.08-1.59-.64-2.13-.85-.17-1.58.02-2.32.45-1.39.81-2.86 1.47-4.24 2.28-.74.44-1.63.75-2.04 1.58.21 2.77 1.18 5.31 2.59 6.81 1.5-.48 1.55-.44 2.22-1.29 1.09-1.38 2.28-2.65 3.1-4.27.58-1.13 1.04-2.23 1.33-3.43zM318.31 74.67c-.68-2.46-1.51-4.39-2.61-6.08a4.87 4.87 0 0 0-1.49-1.47 4.336 4.336 0 0 0-3.28-.85l-1.02.15c-3.1.46-4.38 3.33-6.92 9.04-.42.94-1 2.24-1.14 2.5-3.95 5.98-5.29 11.51-3.98 16.42 1.35 5.04 5.34 10.01 11.15 9.99.54 0 1.09-.05 1.66-.14 5.59-.91 7.07-5.97 7.87-8.7.12-.41.24-.81.36-1.19.9-2.68 1.86-5.81 1.95-9.2.08-3.04-.86-5.64-1.69-7.93-.31-.84-.62-1.68-.86-2.54zm-3.51 18.3c-.91 2.72-1.38 6.42-4.82 6.98-4.11.67-6.98-3.14-7.93-6.69-1.2-4.48.96-9.21 3.41-12.92.86-1.3 3.96-9.48 5.09-9.65.42-.06.76-.11 1.01-.15.23.18.41.26.5.39.98 1.51 1.59 3.15 2.07 4.89.85 3.08 2.48 5.97 2.39 9.2-.07 2.75-.86 5.37-1.72 7.95zM157.89 88.38c-.27-2.67-.47-5.35-.85-8a27.97 27.97 0 0 0-1.18-4.94c-.81-2.39-2.46-4.14-4.75-5.2-1.89-.88-3.68-.18-5.42.58-1.96.86-3.91 1.72-5.84 2.63-.78.37-1.59.79-1.98 1.77.96 1.11 2.52 1.03 3.52 2.03.47 1.19.96 2.43 1.42 3.59-.04.78-.11 1.49-.12 2.2-.05 3.18-.81 6.18-2.27 9-.95 1.82-1.98 3.6-2.95 5.41-.24.44-.4.93-.62 1.46.84.61 1.51 1.22 2.28 1.63 1.36.72 2.55 1.64 3.67 2.67 1.58 1.45 3.12 2.95 4.77 4.3 1.92 1.57 2.92 3.55 3.14 5.89-.39 1-.71 1.93-1.1 2.83-.45 1.02-1.28 1.43-2.37 1.39-.86-.03-1.56-.37-2.1-1.02-1.07-1.3-2.28-2.47-3.23-3.9-2.11-3.18-5.3-5.25-8.41-7.33-.51-.34-1.34-.22-2.06-.32-1.11 1.89-3.26 2.64-4.2 4.42.45 1.24 1.44 1.76 2.2 2.49.96.93 1.95 1.86 2.75 2.92.74.99 1.37 2.12.78 3.53-3.81 3.1-7.63 1.76-11.42.11-.3-1.07.26-1.52 1-1.67.94-.2 1.69-.54 2.07-1.56-.06-.77.27-1.75-.91-2.27-1.36.56-2.64 1.35-3.87 2.23-.73.52-1.43 1.11-2.23 1.48-3.66 1.7-6.88 4.08-10.21 6.35 0 .78.01 1.49.01 2.2 0 .69.01 1.38.01 2.23.69-.04 1.31 0 1.88-.13 2.25-.53 4.42-1.32 6.74-1.66 2.19-.32 4.37-.93 6.48-1.63 2.07-.68 4.14-1.06 6.31-1.02 2.63.05 5.06-1 7.61-1.43.14-.02.26-.23.38-.34-.56-2.23-2.49-3.83-2.87-6.08.97-.81 1.59-.37 2.22.23 3.25 3.08 7.01 5.51 10.64 8.09 1.76 1.25 3.57 1.53 5.87.75 1.72-3 2.95-6.18 3.44-9.54.3-2.03.53-4.07.94-6.08.46-2.28.7-4.59.75-6.92.04-2.32.13-4.65.35-6.96.14-1.43.27-2.84-.03-4.26-.16-.71-.17-1.44-.24-2.15zm-4.76 8.09c-1.19.33-2.4.59-3.68.36-1.95-.35-3.91-.34-5.83.05-.8.46-1.57.9-2.39 1.37-.52-.18-1.01-.35-1.55-.53l-.4-1.2c.1-.27.12-.47.22-.6 1.47-1.95 2.51-4.09 3.01-6.48.13-.61.25-1.22.45-1.81.11-.32.38-.59.6-.91 2.57-.63 4.76.19 6.75 1.69 1.49 1.13 3.02 2.25 3.88 3.99.31.63.55 1.3.74 1.75-.08 1.37-.8 2.04-1.8 2.32z"/><path class="st0" d="M166 69.63c-3.15-3.32-6.64-6.02-9.94-8.44-4.34-3.19-9.53-3.98-15.02-2.3-1.41.43-2.81.93-4.2 1.43-2.01.72-3.91 1.4-5.82 1.85.11-.59.23-1.17.37-1.74.6-2.52 1.03-5.05 1.31-7.75.68.02 1.36.06 2.04.11 4.82.36 9.62.38 14.95.37 1.31-.08 2.75-.25 4.44-.78 1.54-.48 2.97-1.6 3.81-2.97 1.29-2.1 1.61-4.63.88-6.94-1.25-3.93-3.86-6.65-7.57-7.86-1.11-.36-2.36-.61-3.8-.75-3.73-.36-7.56.2-11.41 1.69-.69.27-1.43.48-2.21.68-.1-1.12-.25-2.34-.59-3.58-1.76-6.4-6.15-8.48-9.53-9.1-2.38-.44-4.74-1.02-7.23-1.64l-1.46-.36c-2.92-.71-5.67-1.39-7.93-2.77-2.55-1.56-5.56-1.29-8.05.72-.86.69-1.43 1.76-1.58 2.85l-.04.24c-.11.58-.29 1.54-.13 2.65.28 1.94.81 4.47 2.46 6.86 2.31 3.34 5.41 6.09 9.3 8.22l.03.51c.03.47.05.93.06 1.4l.14 13.4c.04 3.17-.09 6.34-.38 9.45l-.12 1.16c-.15 1.38-.33 2.95-.24 4.63-.47.27-.95.55-1.44.86-1.02.65-2.12 1.34-3.22 2.15-.4-1.61-1.66-2.87-3.36-3.17-.61-.18-2.22-.66-3.95.19-1.07.53-2.52 1.5-3.33 3.15-1.42 2.88-2.56 6.32-3.41 9.96-.08-.25-.16-.49-.28-.75-.45-.95-1.09-1.54-1.43-1.86l-.17-.16a4.29 4.29 0 0 0-3.8-1.26c-1.4.23-2.6 1.12-3.21 2.4l-.82 1.74c-.13.27-.25.53-.38.8-.22-1.47-.57-2.98-1.1-4.49-.21-.6-.36-1.22-.52-1.84-.25-.98-.53-2.08-.98-3.2-.62-1.55-1.05-3.22-1.43-4.79-.37-1.54-1-2.88-1.55-4.07l-.29-.62c.64-.19 1.31-.48 2.02-.91 1.98-1.21 4.24-2.74 6.07-4.99 1.7-2.09 2.6-4.33 3.37-6.45.77-2.09.93-4.22.49-6.32-.87-4.16-2.82-7.78-5.78-10.77-.45-.45-.96-.86-1.48-1.24-.18-.14-.38-.26-.53-.42-1.58-1.63-3.39-2.37-4.84-2.97-.36-.15-.73-.3-1.08-.46-1.16-.55-2.51-.73-4.02-.53-1.31.17-2.2.81-2.86 1.28a4.366 4.366 0 0 0-2 2.89c-.23 1.2.06 2.44.8 3.42 4.94 6.53 5.51 13.04 1.76 20.5-.75 1.5-.55 3.22.38 4.5-1.31.84-2.57 2.39-2.56 5.33l-.03 2.42c-.03 2.4-.05 4.8-.1 7.19-.01.36-.06.76-.16 1.17-.87 3.54-1.76 7.07-2.67 10.61-.3 1.16-.6 2.32-.91 3.48-.4 1.52-.81 3.04-1.19 4.57-.38 1.51-.74 3-.96 4.59a57.8 57.8 0 0 0-.32 2.95c-.11 1.23-.21 2.4-.42 3.46-.86 4.35-1.04 8.46-.55 12.54.24 1.99.54 3.67.94 5.27.94 3.71 3.19 6.32 6.71 7.78.37.15.76.25 1.16.3.4.05.79.07 1.17.06 1.6-.01 2.96-.4 4.1-.72.26-.08.52-.15.79-.22 3.05-.79 5.42-2.67 6.84-5.42.47-.92 1.09-1.84 1.75-2.83.98-1.46 2.09-3.13 2.9-5.07.63-1.5 1.33-2.97 2.04-4.44.35-.73.7-1.46 1.04-2.19.3-.64.48-1.26.54-1.91.06-.64.37-1.43.72-2.35.28-.73.56-1.47.78-2.22l.1-.35c.29-.99.57-2.02.83-3.08.29 2.38.67 4.7 1.03 6.84.44 2.63 1.06 5.18 1.66 7.65l.12.49c.91 3.74 2.18 7.65 5.32 10.85.56.58 1.15 1.13 1.7 1.64l.59.56c.66.63 1.49 1.03 2.39 1.16l.68.09.69.85c.75.92 1.84 1.49 3.02 1.58l.88.07c.54.04 1.04.08 1.55.13 1.79.19 3.21.47 4.33 1.24 1.05.72 2.15 1.17 2.87 1.47.17.07.33.13.45.19.44.21.91.34 1.39.39 3.14.34 5.44-.54 7.33-1.39 1.57-.7 3.3-1.25 5.45-1.73l2.46-.54c2.09-.45 4.18-.91 6.26-1.42.97-.24 1.63-.39 2.26-.36 1.72 2.21 3.75 4.38 6.22 6.65 1.94 1.78 4.2 2.68 6.65 2.67.95 0 1.92-.14 2.91-.42a4.36 4.36 0 0 0 2.19-1.43c.18-.22.38-.41.57-.6.79-.79 1.98-1.99 2.63-3.85l.67-1.88c.89-2.48 1.81-5.05 2.39-7.85.4-1.92.83-3.84 1.27-5.75l1.58-7c.79-3.49 1.58-6.98 2.32-10.49.41-1.93.77-3.87 1.14-5.82.36-1.92.72-3.84 1.13-5.75 1.83-8.53-.46-16.28-6.81-22.97zM67.48 35.84c.49-.3.81-.63 1.17-.68.52-.07 1.12-.07 1.58.15 1.6.76 3.37 1.19 4.67 2.53.61.63 1.42 1.08 2.05 1.71 2.39 2.41 3.92 5.29 4.62 8.61.28 1.34.16 2.63-.32 3.94-.68 1.85-1.4 3.66-2.66 5.21-1.37 1.69-3.14 2.91-4.96 4.02-1.35.82-2.09.68-3.95-.42 4.4-8.81 3.82-17.13-2.2-25.07zm17.36 66.08c-.29 1.57-.76 3.12-1.21 4.66-.53 1.79-1.47 3.46-1.66 5.36-.02.17-.09.35-.16.51-1.05 2.26-2.18 4.49-3.14 6.79-1.15 2.75-3.15 4.97-4.5 7.58-.86 1.66-2.21 2.74-4.08 3.22-1.47.38-2.89.95-4.47.77-2.2-.91-3.56-2.44-4.17-4.84-.4-1.57-.65-3.12-.84-4.72-.45-3.77-.24-7.47.5-11.19.43-2.18.47-4.43.78-6.64.2-1.4.53-2.78.87-4.15.67-2.68 1.41-5.35 2.09-8.02.91-3.55 1.81-7.09 2.68-10.65.17-.69.27-1.4.29-2.11.07-3.22.09-6.43.13-9.65.01-.79-.11-1.65 1.13-1.98.24.24.66.48.82.84.59 1.29 1.26 2.58 1.59 3.94.44 1.83.92 3.62 1.61 5.38.62 1.57.88 3.27 1.44 4.87 1.14 3.27 1.29 6.63 1.21 10.05-.03 1.42.15 2.85.21 4.27.03.87.01 1.75.02 2.87 1.86-1.16 2.41-3.03 3.4-4.52 1.09-1.63 2.03-3.36 2.95-5.1.86-1.63 1.61-3.32 2.5-5.17.36.38.66.57.79.85.14.31.2.69.18 1.04-.27 5.24-.01 10.53-.96 15.74zm83.74-10.17c-.82 3.84-1.45 7.72-2.27 11.57-1.05 4.97-2.2 9.93-3.31 14.89-.62 2.79-1.28 5.56-1.86 8.36-.66 3.16-1.86 6.15-2.91 9.18-.47 1.36-1.61 2.1-2.46 3.14-2.08.58-3.86.21-5.47-1.27-2.11-1.94-4.09-3.99-5.84-6.26-.33-.42-.7-.81-1.03-1.19-1.91-.59-3.73-.31-5.58.15-2.86.71-5.74 1.3-8.62 1.93-2.16.48-4.26 1.1-6.29 2.01-1.46.65-2.98 1.26-5.1 1.03-.66-.31-1.79-.68-2.73-1.32-1.93-1.32-4.09-1.74-6.33-1.97-.8-.08-1.6-.13-2.53-.21-.53-.65-1.08-1.33-1.76-2.17-.62-.09-1.4-.2-2.36-.33-.65-.62-1.44-1.34-2.19-2.1-2.41-2.46-3.42-5.61-4.2-8.84-.63-2.6-1.28-5.2-1.72-7.84-.64-3.86-1.29-7.74-1.43-11.66-.26-7.23 1.35-16.38 4.53-22.86.25-.5.83-.92 1.36-1.18.3-.15.8.11 1.2.18-.01 6.61 1.33 12.89 2.77 19.15.24 1.05.49 2.09.76 3.21 1.96 1.21 4.19 1.89 6.36 2.66 1.7.6 3.54.12 5.31-.22 1.57-.3 3.14-.55 4.83-.85.22.63.39 1.1.59 1.7-1.63 2.22-3.22 4.46-4.9 6.63-.65.84-1.5 1.51-2.15 2.14-1.62.52-2.83.07-3.91-.84-.75-.63-1.45-1.32-2.19-1.96-.65-.57-1.24-1.26-2.36-1.33.33 5.23 1.32 10.24 2.32 15.73 2.04-3.25 4.69-5.37 7.01-7.79 1.55-1.61 3.08-3.23 4.63-4.83 1.01-1.04 1.75-2.25 2.45-3.49.87-1.55 1.73-3.1 2.69-4.83-1.09-1.33-2.43-2.07-3.9-2.79-2.39-1.18-4.83-2.27-7.2-3.48-.73-.37-1.44-.63-2.22-.81-.5-.12-.96-.41-1.32-.58-.27-.86.15-1.27.69-1.35 1.06-.14 2.15-.24 3.2-.14 2.04.19 4.09.46 6.1.84 1.12.21 2.2.7 3.29 1.1 1.67.6 3.33 1.22 5.03 1.85 2.49-2.59 5.91-8.31 7.3-12.28-.11-.61-.24-1.31-.37-1.99-.86-1.24-2.02-2.04-3.39-2.73-1.53.62-3.09 1.26-4.63 1.91-.14.06-.22.27-.37.48.07 1.73 1.56 2.67 2.52 4.09.04.5.17 1.12.13 1.73-.14 2.1-1.66 3.62-3.79 3.78-.89.07-1.78.02-2.91.02-.66-.22-1.37-.7-1.77-1.52.23-1.91 2.2-3.42 1.1-5.66-1.13.12-2.04.66-2.99 1.14-1.51.76-2.92 1.72-4.59 2.16-2.02.53-4.03.68-6.08.26-1.47-.3-2.93-.63-4.64-1-.3-.65-.7-1.53-1.1-2.38 1.46-3.56 4.51-5.46 7.52-7.36 1.2-.76 2.47-1.41 3.79-2.15-.82-2.58-.32-5.17-.09-7.7.31-3.31.44-6.6.4-9.91-.06-4.47-.09-8.93-.14-13.4-.01-.8-.07-1.61-.11-2.41-.06-1.48-.78-2.48-2.09-3.18-3.18-1.7-5.89-3.97-7.96-6.96-1.05-1.51-1.48-3.24-1.74-5.01-.08-.59.12-1.22.19-1.77 1.02-.82 2.03-1.03 3.06-.39 3.02 1.85 6.42 2.61 9.8 3.44 2.76.68 5.52 1.38 8.31 1.89 3.45.63 5.27 2.86 6.13 5.99.42 1.53.46 3.17.61 4.76.08.87.04 1.75.05 2.72.5.06.86.21 1.16.13 2.23-.62 4.51-.98 6.7-1.82 3-1.16 6.18-1.74 9.44-1.42.97.09 1.96.26 2.88.56 2.48.81 4.01 2.62 4.78 5.05.36 1.14.19 2.34-.44 3.36-.3.49-.88.94-1.42 1.11-1.01.32-2.1.57-3.15.58-4.85.01-9.81.01-14.62-.35-1.87-.14-3.74-.15-5.53-.22-.82.48-.91 1.22-.96 1.92-.22 3.12-.67 6.2-1.4 9.26-.66 2.76-.97 5.61-1.43 8.4.45.45.85.08 1.24-.03 1.63-.45 3.25-1 4.9-1.38 3.58-.83 6.93-2.32 10.42-3.39 3.94-1.21 7.72-.89 11.19 1.65 3.31 2.43 6.53 4.95 9.36 7.93 5.16 5.4 7.33 11.69 5.75 19.13zM245.28 96.42c.05-.05.1-.11.15-.16l-.05-.05c-.04.07-.07.14-.1.21z"/><path class="st0" d="M274.79 89.52c-3.32-1.18-6.71-1.95-10.21-2.61 1.4-.9 2.79-1.76 4.18-2.56 6.31-3.62 12.05-16.01 9.04-22.79-1.05-2.37-2.86-5.77-6.38-7.92-3.07-1.87-6.74-3.12-10.06-3.42l-.24-.02c-1.5-.14-3.55-.33-5.58.45a4.337 4.337 0 0 0-2.72 3.28c-.27 1.49.27 3.02 1.41 4.02 4.63 4.07 3.62 6.04 2.96 7.34-3.04 5.92-5.75 10.57-8.52 14.61-.64.93-1.43 1.85-2.26 2.82-2.56 2.98-5.74 6.69-5.76 12.58-.01 1.78-.02 5.48 2.66 7.71 2.35 1.95 5.32 1.69 7.64 1.24.36-.07.89-.18 1.52-.32.59-.13 1.14-.24 1.66-.35-1.15.67-2.32 1.28-3.16 1.58a4.33 4.33 0 0 0-6.05 5.61c4.67 9.91 14.81 10.18 20.87 10.34.44.01.88.02 1.31.02 10.27-.04 16.89-4.04 19.69-11.88 1.07-3.01.83-6.3-.7-9.53-2.13-4.46-6.66-8.55-11.3-10.2zm7.91 18.27c-2.86 8.03-10.51 9.16-16.8 8.99-6.03-.16-13.59-.47-17.07-7.86 1.37 2.92 10.51-3.44 11.74-4.47 1.14-.95 4.12-3.39 3.43-5.26-.87-2.38-11.39.31-13.88.79-4.21.81-5.17-.35-5.16-4.68.02-5.89 4.43-8.84 7.26-12.96 3.29-4.79 6.15-9.91 8.8-15.09 2.47-4.82.31-8.82-3.95-12.57 1.17-.45 2.67-.27 3.88-.16 2.78.25 5.8 1.34 8.2 2.81 2.26 1.38 3.62 3.61 4.68 5.98 2.01 4.53-2.59 14.62-7.23 17.28-4.39 2.52-8.53 5.47-13.39 8.62 7.37 1.51 14 2.22 20.12 4.39 5.01 1.78 11.46 8.33 9.37 14.19z"/><path class="st0" d="M245.62 124.37c-.36-3.16-1.47-6.03-2.62-8.66-.87-1.99-1.43-4.05-1.72-6.29-.58-4.52-.92-8.54-1.04-12.31-.31-9.88.28-19.63 1.74-29 1.08-6.9 3.05-13.87 4.97-20.62.59-2.08 1.18-4.16 1.8-6.43.74-2.71 1.57-5.79 1.25-9.23-.42-4.51-2.74-7.36-7.1-8.72-2.45-.76-4.77-1.13-7.08-1.13h-.04c-4.79.02-8.82 1.62-11.96 4.75a4.37 4.37 0 0 0-1.23 2.41c-.43 2.8.16 5.42 1.75 7.8.26.38.34.69.32 1.12-.09 1.49-.16 2.99-.22 4.48-.05 1.09-.09 2.19-.15 3.28-.06 1.03-.13 2.05-.19 3.08-.11 1.67-.23 3.33-.28 5.04-.25 7.28-.48 14.15-1.38 21.12l-.21 1.62c-.24 1.83-.48 3.69-.7 5.55-.82-.14-1.65-.06-2.42.26.44-1.05.87-2.11 1.29-3.17 1.06-2.65.54-5.37-1.38-7.27-4.31-4.26-14.89-2.74-16.99-1.86-2.36.98-4.33 2.31-6.23 3.6-1.54 1.05-3 2.03-4.48 2.68-.37.16-1.55.19-2.49.2-.88.02-1.81.04-2.81.12-1.5.13-2.83 1.02-3.51 2.37-1.99 3.96-.58 7.7 2.71 13.22 2.73 4.57 6.59 5.14 9.74 4.82-.16.46-.32.93-.47 1.39-1.85 5.42-4.37 12.83.25 20.61 1.22 2.05 3 4.47 6.06 5.07.45.09.9.13 1.35.13 1.73-.01 3.48-.68 5.24-1.99 1.73-1.3 2.91-2.95 3.94-4.41.33-.46.65-.92 1-1.36 3.57-4.53 6.07-9.39 7.98-14.16 0 9.51.4 18.83 2.69 28.02.16.63.35 1.25.54 1.88.18.6.37 1.19.5 1.8.6 2.94 2.05 5.57 4.45 8.04 1.39 1.43 3.12 2.27 5.29 2.58.6.08 1.18.12 1.74.12 1.94-.01 3.64-.47 5.14-.92.64-.19 1.22-.53 1.7-.98 3.65-3.42 4.09-7.89 4.33-10.29.23-2.3-.23-4.31-.63-6.08-.19-.83-.36-1.6-.44-2.28zm-36.69-10.41c-1.34 1.7-2.46 3.72-4.14 4.99-2.84 2.14-4.51 1.08-6.31-1.96-3.46-5.83-1.8-11.36.13-17 .88-2.59 1.79-5.18 2.85-8.25-4.57-.05-9.35 3.68-12.49-1.58-3.22-5.38-3.47-7.24-2.56-9.05 2.7-.23 4.92.09 6.67-.67 3.78-1.65 6.82-4.66 10.63-6.24 2.21-.92 14.79-1.74 12.69 3.52-2.32 5.79-4.88 11.48-7.37 17.21-.54 1.23 4.76-2.31 4.91-2.45 2.3-2.01 4.6-4 6.9-6.01-2.25 8.21-5 18.71-11.91 27.49zm33.45 18.32c-.27 2.75-.75 5.46-2.98 7.56-1.66.5-3.26.91-5.02.66-1.12-.16-2.02-.52-2.79-1.31-1.65-1.7-2.85-3.59-3.31-5.88-.26-1.3-.75-2.56-1.08-3.86-2.55-10.27-2.64-21.05-2.54-31.56.07-7.46 1.11-14.87 2.07-22.27.93-7.19 1.17-14.34 1.42-21.57.09-2.67.33-5.33.47-7.99.14-2.58.21-5.16.37-7.73.09-1.39-.26-2.63-1.04-3.8-.93-1.39-1.35-2.89-1.07-4.72 2.36-2.35 5.37-3.48 8.95-3.49 2-.01 3.91.35 5.78.93 2.73.85 3.83 2.3 4.07 4.99.25 2.73-.48 5.31-1.18 7.89-2.44 8.98-5.36 18.04-6.81 27.32-1.54 9.86-2.1 19.85-1.79 29.8.13 4.25.53 8.5 1.07 12.72.33 2.54.98 5.03 2.04 7.47 1.03 2.36 1.99 4.83 2.29 7.42.3 2.49 1.33 4.89 1.08 7.42zM408.9 105.74c-.14.35-.29.69-.41 1.04-.03.08.05.18.08.26.14-.35.28-.7.41-1.05-.02-.08-.05-.16-.08-.25zM415.14 115.56c.45 0 1.05-.26 1.32-1.52.15-1 .38-1.94.66-2.8.66-2.09 1.26-4.3 1.76-6.61 0-.18-.16-.36-.53-.35h-.15l-.06.13c-1.53 3.46-2.28 5.2-2.28 5.2-.22.39-.35.44-.43.44-.01-.01-.09-.11-.09-.65-.01-2.84.2-5.32.64-7.34.23-.8.34-1.36.34-1.71 0-.76-.29-1.51-.85-2.23-.48-.59-.96-.89-1.43-.88-.33 0-.53.18-.53.51.02.2.05.38.07.54.05.35.09.63.09.82 0 .77-.16 2.12-.47 4.34-.44 2.84-.66 5.14-.65 6.83.01 1.64.22 2.88.65 3.8.49 1.01 1.13 1.48 1.94 1.48zM414.96 93.19c0 .29-.08.69-.29 1.31l-.01.42h.23c.19 0 .42-.07.66-.22.41-.19 1.36-.31 2.59-.31.63 0 .98-.35.98-.97 0-.96-.53-1.78-1.55-2.44-.99-.63-2.02-.93-3.16-.92-.18 0-.49.08-.49.62 0 .1.03.25.38.89.55.91.66 1.38.66 1.62zM414.29 146.69c.23.31.49.67.75 1.03.04-.08.15-.18.12-.23-.22-.37-.46-.74-.69-1.11a3.5 3.5 0 0 1-.18.31zM408.82 122.24c.02.33.1.66.16.99.08-.25.17-.49.27-.78-.08-.23-.17-.48-.27-.74-.06.18-.17.36-.16.53zM409.04 103.56c.02.32.15.63.24.94.09-.21.19-.42.29-.66-.06-.21-.11-.43-.17-.64-.12.11-.37.24-.36.36zM409.69 135.67c.07.66.12 1.32.24 1.97.02.14.28.26.42.38.11-.14.21-.28.36-.47-.25-.65-.49-1.28-.75-1.91-.01-.01-.18.02-.27.03zM428.14 153.4c.14.02.3-.08.45-.12-.1-.1-.18-.24-.31-.28-.81-.23-1.63-.47-2.46-.65-.23-.05-.51.06-.76.1.19.18.39.36.58.54.83.14 1.66.29 2.5.41zM440.68 149.78c.13-.09.25-.2.34-.32.06-.07.07-.18.12-.33-.19.06-.25.06-.29.09-.57.46-1.15.91-1.71 1.38-.03.03.04.14.06.21.5-.34.99-.68 1.48-1.03zM441.45 145.82c.05-.06-.12-.23-.19-.35-.31.27-.62.54-1.11.97.25.09.5.22.54.19.28-.24.54-.52.76-.81zM425.68 153.03l-.04-.04c.01.01.03.02.04.04zM428.24 82.83c-.22-.13-.44-.26-.68-.39-.19.1-.32.16-.45.23.23.11.45.25.7.32.12.02.29-.1.43-.16zM436.96 90.09c.01-.12.09-.27.02-.35-.66-.85-1.33-1.69-2.03-2.52-.07-.08-.27-.09-.41-.14-.03.09-.05.17-.08.26.73.87 1.46 1.73 2.2 2.59.07.08.2.11.3.16zM427.04 106.01c.27-.62.39-1.1.39-1.54v-.35h-.23c-.12 0-.19.08-.24.13-.01.01-.03.03-.02.03-.06.04-.09.04-.15.04-.34 0-.46-.11-.53-.22l-.08-.07c-.13-.07-.28-.15-.45-.15-.23 0-.3.21-.38.45l-.02.07c-.11.38-.23.9-.23 1.19 0 .36.06.64.16.84.1.35.34.54.64.54.46-.02.84-.33 1.14-.96z"/><path class="st0" d="M440.29 99.13c0-1.09-.38-1.99-1.11-2.68-.65-.54-1.59-.82-2.8-.81-1.73.01-3.8.38-6.2 1.12l-.06.03c.05-.66.18-1.39.38-2.14 3.6-.46 5.34-1.29 5.34-2.56-.04-.45-.34-.98-1.56-.98-.6 0-1.5.23-2.83.71.07-.28.1-.51.1-.7 0-.85-.21-1.57-.62-2.15l-.02-.02c-.4-.45-.93-.68-1.54-.68-.39 0-.86.1-1.4.29-.69.38-.91.58-.91.81v.12l.11.07c.26.16.44.44.51.77.16.55.27 2.53.32 5.44 0 .6.09 1.11.27 1.54-3.1 1-3.1 1.27-3.09 1.5 0 .32.18.48.53.48.56 0 1.66-.12 3.1-.34 4.19-.59 6.3-.83 7.28-.83.63 0 .95.17.95.51.22 7.1.35 11.52.36 13.06v.06c-.28-.11-.64-.16-1.11-.15-.85.03-4.02.7-9.42 1.98-.81.16-1.17.36-1.17.68 0 .58.53.87 1.56.86.72 0 1.81-.1 3.28-.24 2.32-.24 4.11-.47 5.76-.74.2.35.39.74.6 1.19.32.77.7 1.14 1.17 1.13.72-.04 1.32-.41 1.73-1.08.48-.82.71-1.86.7-3.18-.01-1.72-.05-4.27-.12-7.78-.03-1.59-.06-3.35-.09-5.29zM442.78 109.78c.04.19.17.38.27.56.1-.1.2-.19.33-.31-.14-.22-.27-.42-.4-.62-.08.12-.22.25-.2.37zM441.05 97.35c-.68-2.37-1.39-4.84-2.12-7.31-.03-.1-.23-.17-.35-.25-.03.13-.11.26-.08.38.29 1.36.57 2.72.91 4.07.33 1.32.72 2.62 1.1 3.93.03.1.15.18.23.27.04-.08.1-.17.12-.25.06-.25.11-.48.19-.84zM440.96 99.45c-.05.18-.15.35-.14.53.01.24.09.47.15.71.53 2.06 1.07 4.13 1.6 6.19l.39 1.47c.16-.53.32-1.06.48-1.6.01-.05 0-.1 0-.14.33-2.46-.94-4.59-2.04-6.75-.08-.17-.29-.28-.44-.41zM419.32 149.98c-.08.13-.24.36-.23.37.79.36 1.6.71 2.41 1.05.04.02.16-.09.24-.13-.02-.05-.02-.11-.05-.13-.8-.39-1.58-.77-2.37-1.16z"/><path class="st0" d="M448.49 126.84c-.09-2.52-.18-5.04-.21-7.56-.03-2.53.01-5.06.05-7.6.03-1.94.06-3.87.06-5.81l.01-.55c.02-1.42.06-3.37-.95-5.29-.77-1.48-1.09-3.16-1.46-5.12-.22-1.15-.44-2.35-.78-3.58-.5-1.81-1.35-3.49-2.46-4.85-.9-1.09-1.94-1.91-2.85-2.62-.3-.24-.61-.48-.9-.72-3.32-2.83-6.61-4.48-10.05-5.06-2.49-.42-4.89-.28-7.22-.14-.84.05-1.68.1-2.49.12-.88.01-2.15.29-3.3 1.52-.3.31-.55.66-.74 1.03-.8-.08-1.64.07-2.4.47-.39.16-1.29.55-2.05 1.45-1.9 2.24-4.15 5.34-4.61 9.43-.1.87-.14 1.75-.18 2.62-.09 2.11-.18 3.36-.93 4.5-2.04 3.09-2.02 6.41-2.02 9.08 0 .42 0 .83-.01 1.24-.02 1.01.27 1.83.48 2.33-.07.19-.14.37-.2.56-.08.23-.18.46-.28.69-.56 1.31-1.62 3.81-.53 6.58 0 .03 0 .07.01.1-.43 1.04-1.4 3.42.09 6.04.08.13.12.27.13.34.2 1.54.37 3.08.55 4.62.29 2.56.59 5.13.96 7.68.39 2.65 1.3 4.59 2.8 5.94.92.83 1.46 1.95 2.13 3.37l.52 1.08c.69 1.38 1.94 3.28 3.99 4.46 3.43 1.99 6.82 3.28 10.34 3.95.43.26 1 .53 1.7.67.53.11 1.1.16 1.66.21.18.01.37.02.54.05 1.38.57 2.68.79 3.88.78 2.78-.01 5-1.23 6.39-1.99.47-.26.95-.5 1.44-.74.61-.31 1.23-.62 1.82-.95 2.3-1.27 4.78-3.01 5.69-6.21.49-1.74.79-3.18.94-4.54l.07-.61c.02-.18.03-.36.03-.53.04-.17.07-.35.1-.54.26-2.32.5-4.59.48-6.9-.03-3.01-.14-6.01-.24-9zm-4.56 15.4c-.11-.34-.32-.68-.63-1.02v-.06h.13c-.03-.23-.05-.46-.08-.69-.11.15-.23.3-.33.46-.23-.22-.49-.44-.8-.67-1.15-.78-2.89-1.39-5.32-1.88-.93-.17-1.71-.29-2.31-.36l.1-2.63c0-.27 0-.6.02-.97 1.21-.24 2.46-.43 3.72-.56 1.53-.01 1.85-.53 1.85-.97 0-.42-.39-.83-1.13-1.2-.85-.36-1.76-.53-2.78-.52-.17 0-.48.12-1.44.5.11-.97.27-2.12.45-3.4.07-.01.14-.02.22-.04l.11-.02c1.12-.21 2.61-.61 2.6-1.62 0-.46-.24-1.22-1.82-1.22-.16 0-.3.01-.45.02-.05 0-.1.01-.15.01.04-.28.06-.55.06-.81-.09-1.18-.54-2.09-1.38-2.72-.83-.44-1.66-.69-2.57-.76-.5 0-.79.33-.79.87 0 .24.21.84.55 1.59.34.85.48 1.39.48 1.78 0 .16-.01.3-.02.45 0 .11-.01.21-.01.32-1.27.42-2.27.66-2.98.73-.36.05-.95.12-.95.55 0 .28.31.51.96.9.59.3 1.21.44 1.92.44.26 0 .57 0 .97-.04l-.06 1.8c-.03.84-.05 1.63-.09 2.4-1.78.76-4.17 1.83-7.98 3.56-.37.19-.57.31-.57.52 0 .58.8.58 1.1.58.76 0 1.84-.3 3.11-.87.92-.37 1.85-.72 2.79-1.05-.69 1.09-1.44 2.15-2.29 3.24-1.61 2.08-3.61 4.09-5.92 5.98l-.5.41h.76c.68 0 1.62-.45 2.89-1.37 2.19-1.54 4.32-3.71 6.33-6.45-.17 2.13-.37 3.72-.59 4.74-.28 1.28-.41 2.48-.41 3.57.05.77.22 1.45.53 2 .43.72.95 1.07 1.68 1.1.44-.09.79-.53 1.04-1.33.2-.88.3-1.67.3-2.39l.26-5.97c2.23 1.05 3.94 2.18 5.21 3.42.76.79 1.69 1.22 2.69 1.31.04.13.09.25.12.38.09-.12.2-.24.31-.35.42-.04.74-.24.94-.58-.02.2-.05.41-.07.61-.14 1.29-.45 2.57-.8 3.83-.47 1.67-1.98 2.7-3.61 3.6-1.06.59-2.18 1.1-3.24 1.68-2.05 1.12-4.06 2.07-6.64.96-.83-.36-1.94-.26-2.91-.46-.32-.06-.58-.33-.86-.52-3.63-.56-6.89-1.88-9.86-3.6-1.02-.59-1.79-1.66-2.28-2.65-1-2.01-1.76-4.04-3.62-5.73-.9-.81-1.24-2.19-1.42-3.36-.59-4.07-.98-8.15-1.5-12.22-.08-.66-.32-1.33-.66-1.93-.83-1.46.87-2.69.48-4.11-.07-.26.18-.63.04-.83-1.19-1.74-.05-3.3.51-4.9.31-.87.67-1.73.95-2.61.11-.35.22-.87-.63-.53-.13-.37-.36-.74-.36-1.1.05-2.72-.26-5.64 1.31-8.02 1.94-2.94 1.45-5.99 1.79-9.01.31-2.71 1.79-4.96 3.61-7.11.14-.17.45-.25.68-.37-.07.2-.08.43-.21.61-.89 1.31-1.8 2.6-2.68 3.91-.15.23-.16.52-.23.79.2-.19.43-.36.6-.57.57-.73.97-1.61 1.71-2.19 1.32-1.03 2.52-2.15 3.8-3.2.7-.57 2.13-.57 3.25-.72.8-.11 1.5-.85 2.47-.26.17.1.78-.29 1.19-.45-.36-.08-.71-.23-1.07-.23-1.35-.01-2.71.04-4.06.05-.17 0-.34-.05-.51-.07.1-.08.19-.24.29-.24 2.98-.06 6.07-.51 8.93-.03 3.07.52 5.72 2.18 7.97 4.09 1.09.93 2.35 1.75 3.21 2.8.78.95 1.32 2.11 1.63 3.23.87 3.18.97 6.49 2.58 9.57.59 1.13.45 2.55.45 3.83 0 4.49-.17 8.98-.11 13.46.07 5.51.41 11.01.44 16.51.06 2.12-.17 4.25-.41 6.38z"/><path class="st0" d="M424.78 103.74c-.01-1.48-.05-2.53-.13-3.12l-.01-.04c-.23-.76-.33-.92-.47-.98l-.06-.02-.06.01c-.51.06-.62.3-.62.47-.43 4.81-.9 8.7-1.43 11.58 0 .53.01 2.13 1.56 2.12.58 0 1.29-.35 1.39-2 0-.3-.04-.59-.08-.88-.06-.37-.07-2.92-.09-7.14zM423.5 130.96h-.11l-.07.08c-.54.64-1.1 1.22-1.64 1.72.89-1.52 1.28-2.39 1.28-2.84-.05-1.15-1.17-1.72-3.34-1.71-1 0-2.75 1.18-5.32 3.58-.08.07-.16.14-.22.21-.24-.22-.51-.4-.79-.53h-.01c-.34-.14-.72-.21-1.19-.21-.81 0-.98.39-.98.71 0 .33.15.67.42.99.4.61.66 1.19.81 1.78.32 2.09.63 3.39.95 3.95.38.77.86.93 1.19.93.59 0 1.29-.48 1.28-2.76-.08-.79-.28-1.72-.64-2.89.58-.27 1.55-1.14 3.13-2.79.14.02.14.09.14.16 0 .79-.25 1.69-.76 2.76-.47.88-.7 1.62-.7 2.27.01 1.33.69 1.61 1.26 1.6.33 0 .65-.24.96-.72.11-.13.53-.54 2.11-1.68 1.74-1.22 2.62-2.61 2.62-4.13 0-.27-.17-.48-.38-.48zM431.22 108.78c-.81-.38-1.32-.53-1.76-.53-.25 0-.38.18-.38.36v.09l.06.06c.2.23.46.75.84 1.57.27.73.68.88.98.88.83-.04 1.3-.45 1.38-1.23 0-.41-.34-.78-1.11-1.19l-.01-.01z"/><path class="st0" d="M428.29 108.97c.83-.52 1.73-1.34 2.75-2.48.28.29.56.6.85.91.24.26.48.52.72.77.68.79 1.17 1.14 1.58 1.13 1.03 0 1.55-.33 1.54-1.02-.09-.45-.64-1.11-1.67-2.02-.3-.26-.58-.51-.86-.75.19.04.45.02 1.14-.18.65-.18 1.39-.53 2.21-1.03.32-.18.49-.41.49-.65 0-.37-.22-.71-.66-1.05l-.02-.01c-.44-.27-.91-.42-1.33-.42-.16 0-.34.12-.34.39 0 .25-.15.62-.44 1.09-.43.59-.82 1.01-1.24 1.35l-.09.07v.11c0 .04 0 .08.02.11-.2-.16-.39-.32-.58-.47.43-.58.9-1.22 1.38-1.93.62-.92.94-1.92.93-2.87 0-.38-.24-.74-.71-1.05-.4-.27-.87-.42-1.3-.42-.18 0-.61.08-.6.84 0 1.13-.47 2.51-1.41 4.12-.83-.59-1.46-.99-2.03-1.28-.84-.44-1.35-.63-1.7-.63-.48 0-.53.34-.53.49 0 .11.05.27.42.52 1.11.94 2.01 1.74 2.82 2.49-1.09 1.61-2.44 3.11-4.04 4.48l-.08.07v.11c0 .36.4.35.53.35.47 0 1.23-.39 2.25-1.14z"/><path class="st0" d="M429.88 101.4c.88 0 .95-.55.95-.71 0-.35-.15-.68-.47-1.07l-.03-.03c-.4-.34-.79-.5-1.21-.5-.39 0-.53.24-.53.45 0 .46.15.9.46 1.32.18.25.44.54.83.54zM14.95 41.89c-1.51.01-2.74-.22-3.69-.6l.01 3.24c0 .46.25.81.84.96.51.3 1.47.36 2.71.35l2.53-.01-.02-3.94h-2.38zM37.12 20.87c-.63-.44-1.55-.61-2.88-.6l-8.5.04.02 4.32 12.32-.05-.01-1.78c-.01-.87-.3-1.57-.95-1.93zM20.1 41.87l.02 3.94 2.55-.01c1.29-.01 2.22-.14 2.78-.38.61-.18.91-.51.91-1.02l-.01-2.57-6.25.04z"/><path class="st0" d="M35.33 6.24l-22.6.1c-3.59.02-6.5 2.67-6.48 5.93l.25 58.64c.01 3.28 2.95 5.94 6.53 5.93l22.6-.1c3.6-.02 6.51-2.7 6.49-5.98l-.26-58.64c0-3.26-2.94-5.89-6.53-5.88zM27.7 72.3c-.82 0-1.22-.28-1.22-.91l-.02-4.06c0-.74-.31-1.24-.92-1.54-.56-.34-1.49-.48-2.78-.47l-2.55.01.03 6.09c0 .63-.49.92-1.38.92-.93 0-1.38-.28-1.38-.91l-.03-6.09-2.53.01c-1.25.01-2.2.15-2.71.5-.59.27-.83.81-.83 1.55l.02 4.06c0 .63-.46.92-1.34.92-.82 0-1.23-.28-1.24-.91l-.02-3.89c-.01-1.68.48-2.79 1.48-3.56.93-.7 2.6-1.08 4.77-1.09l2.39-.01-.01-1.2c0-.61.44-.94 1.37-.95.89 0 1.39.32 1.39.93l.01 1.2 2.55-.01c2.22-.01 3.77.36 4.71 1.05 1.01.76 1.52 1.87 1.52 3.55l.02 3.89c-.01.63-.4.91-1.3.92zm5.83-.03c-.85 0-1.26-.28-1.26-.91l-.07-16.22c0-.63.41-.97 1.26-.98.86 0 1.25.33 1.25.97l.07 16.22c0 .63-.39.92-1.25.92zm5.75-29.24c.91.94 1.42 2.52 1.42 4.65l.1 23.65c0 .63-.47.92-1.28.92-.83 0-1.24-.28-1.25-.91l-.07-18.46-.06.11c-.45.31-1.05.53-1.76.64-.66.18-1.64.23-2.78.24l-2.48.01c-.66 0-.98-.39-.98-1.37 0-.92.31-1.34.97-1.34l3.61-.02c.72 0 1.24-.08 1.59-.14.37 0 .63-.06.76-.11l.6-.31-.17-.43-.52-.53c-.07-.13-.37-.18-.73-.32-.37 0-.92 0-1.68.01l-4.07.02c-.73 0-1.09-.48-1.09-1.4 0-.87.35-1.38 1.08-1.38l2.71-.01c1.24-.01 2.29.06 3.04.29.81.2 1.41.52 1.87.93l.06.05-.01-1.47c0-.67-.2-1.22-.69-1.48-.37-.36-1.05-.5-1.99-.5l-5.23.02c-.67 0-.97-.45-.98-1.36 0-.6.13-.99.4-1.2h-.82l.01 2.97c.01 1.34-.5 2.27-1.49 2.83-1.01.62-2.53.92-4.7.93l-2.55.01.01 1.47 8.6-.04c.65 0 .96.39.96 1.19 0 .81-.3 1.2-.95 1.2l-8.6.04.01 1.68 8.84-.04c.63 0 .9.43.9 1.22 0 .81-.26 1.29-.89 1.3l-8.84.04.01 1.42 8.98-.04c.6 0 .94.33.94 1.14 0 .74-.33 1.18-.93 1.18l-20.6.11c-.62 0-.92-.44-.92-1.17 0-.82.29-1.15.91-1.15l8.86-.04-.01-1.42-8.6.04c-.65 0-.94-.48-.94-1.29 0-.79.29-1.22.93-1.23l8.6-.04-.01-1.68-8.46.04c-.65 0-.95-.38-.96-1.19 0-.81.29-1.2.95-1.2l8.47-.04-.01-1.47-2.39.01c-2.17.01-3.8-.28-4.78-.8-1-.65-1.5-1.51-1.5-2.81l-.03-7.7c0-.02.02-.03.02-.05 0-.1-.02-.18-.02-.29v-.08c-.01-1.7.48-2.93 1.48-3.76.93-.69 2.6-1.11 4.77-1.12l19.38-.08c1.33-.01 2.25-.27 2.93-.7.59-.49.88-1.15.87-2.09l-.01-1.81-23.2.1c-2.17.01-3.8-.47-4.78-1.23-1-.87-1.5-2.21-1.51-4.07l-.02-4.45c0-.64.41-.94 1.23-.95.88 0 1.35.3 1.35.94l.02 4.66c0 .83.31 1.41.84 1.85.6.32 1.58.5 2.86.49l8.41-.04-.05-11.11-13.46.07c-.62 0-.94-.46-.95-1.4 0-.95.32-1.41.93-1.41l29.33-.13c.66 0 .95.41.95 1.35 0 .92-.28 1.35-.94 1.36l-13.4.06.02 4.45 8.59-.04c2.16-.01 3.72.44 4.81 1.35.91.98 1.45 2.46 1.46 4.65l.02 4.73c.01 2.11-.52 3.59-1.42 4.59-1.08.99-2.64 1.46-4.8 1.47l-19.46.09c-1.28.01-2.26.09-2.85.31-.54.16-.83.54-.83.97l.01 1.31v.52c0 .46.3.87.84 1.06.6.21 1.58.34 2.86.33l24.94-.11c.6 0 .93.43.93 1.36 0 .87-.32 1.33-.92 1.33l-3.05.01c1.01.22 1.83.61 2.43 1.24z"/><path class="st0" d="M35.3 0L12.7.1C5.67.13-.03 5.6 0 12.3l.26 58.64c.03 6.73 5.77 12.17 12.81 12.14l22.6-.1c7.04-.03 12.74-5.53 12.71-12.25l-.26-58.64C48.09 5.39 42.34-.03 35.3 0zm.34 78.65l-22.6.1c-4.64.02-8.44-3.49-8.46-7.83l-.25-58.64c-.02-4.31 3.74-7.83 8.39-7.85l22.6-.1c4.65-.02 8.45 3.47 8.47 7.77l.26 58.64c.01 4.35-3.76 7.89-8.41 7.91zM65.59 160.54h-3.18v15.62h11.08v-2.65h-7.9zM98.87 169.57c0 1.63-.08 2.66-.23 3.08s-.43.77-.84 1.05a2.4 2.4 0 0 1-1.39.42c-.45 0-.82-.11-1.12-.32-.29-.21-.5-.5-.61-.86-.11-.36-.17-1.34-.17-2.95v-5.24h-3.02v7.22c0 1.07.14 1.92.41 2.52.27.61.71 1.08 1.32 1.42.61.34 1.3.5 2.06.5.75 0 1.47-.18 2.14-.53s1.22-.83 1.64-1.44v1.71h2.8v-11.41h-3.02v4.83zM152.46 167.47c-.74-.39-1.89-.77-3.43-1.13s-2.52-.72-2.92-1.05c-.32-.26-.47-.58-.47-.96 0-.41.17-.73.5-.98.52-.38 1.25-.57 2.17-.57.9 0 1.57.18 2.01.53.45.35.74.94.88 1.75l3.18-.14c-.05-1.45-.57-2.6-1.57-3.47-1-.87-2.49-1.3-4.46-1.3-1.21 0-2.24.18-3.1.55-.86.37-1.51.9-1.97 1.6-.46.7-.68 1.45-.68 2.25 0 1.25.48 2.3 1.45 3.17.69.62 1.88 1.14 3.59 1.56 1.32.33 2.17.56 2.55.69.54.19.93.42 1.14.68.22.26.33.58.33.95 0 .58-.26 1.09-.78 1.52-.52.43-1.29.65-2.31.65-.97 0-1.73-.24-2.3-.73-.57-.49-.95-1.25-1.13-2.29l-3.09.3c.21 1.76.84 3.1 1.91 4.02 1.07.92 2.6 1.38 4.59 1.38 1.37 0 2.51-.19 3.43-.57.92-.38 1.63-.97 2.13-1.76s.75-1.63.75-2.54c0-1-.21-1.83-.63-2.51s-1.03-1.21-1.77-1.6zM182.96 165.87c-.28-.4-.7-.73-1.26-.99s-1.19-.39-1.88-.39c-1.35 0-2.52.57-3.49 1.71v-5.79h-3.02v15.75h3.02v-5.71c0-.96.09-1.68.27-2.18.18-.49.47-.86.86-1.1.39-.24.84-.37 1.34-.37.44 0 .8.1 1.09.28.29.19.49.45.61.77.11.32.17 1.08.17 2.28v6.03h3.02v-6.69c0-1.02-.05-1.78-.16-2.27-.09-.48-.28-.93-.57-1.33zM209.89 169.57c0 1.63-.08 2.66-.23 3.08s-.43.77-.84 1.05a2.4 2.4 0 0 1-1.39.42c-.45 0-.82-.11-1.12-.32-.29-.21-.5-.5-.61-.86-.11-.36-.17-1.34-.17-2.95v-5.24h-3.02v7.22c0 1.07.14 1.92.41 2.52.27.61.71 1.08 1.32 1.42.61.34 1.3.5 2.06.5.75 0 1.47-.18 2.14-.53s1.22-.83 1.64-1.44v1.71h2.8v-11.41h-3.02v4.83zM240.25 166.18c-.98-1.12-2.32-1.68-4.02-1.68-1.51 0-2.76.54-3.75 1.61-.99 1.07-1.48 2.55-1.48 4.44 0 1.58.38 2.89 1.13 3.93.95 1.3 2.42 1.94 4.4 1.94 1.25 0 2.3-.29 3.13-.86.83-.58 1.45-1.42 1.83-2.52l-3.01-.5c-.17.57-.41.99-.73 1.25s-.72.39-1.19.39c-.69 0-1.27-.25-1.74-.75s-.71-1.19-.73-2.09h7.56c.05-2.32-.42-4.04-1.4-5.16zm-6.1 3.3c-.01-.82.2-1.48.63-1.96s.97-.72 1.63-.72c.62 0 1.14.23 1.57.68.43.46.66 1.12.68 1.99h-4.51zM259.95 164.75h3.02v11.41h-3.02zM259.95 160.41h3.02v2.79h-3.02zM302.75 163.08h4.68v13.08h3.18v-13.08h4.66v-2.67h-12.52zM342.36 172.41l.03-3.52c0-1.31-.13-2.21-.4-2.7-.27-.49-.73-.9-1.39-1.21-.66-.32-1.66-.48-3.01-.48-1.48 0-2.6.27-3.35.79-.75.53-1.28 1.35-1.59 2.45l2.74.49c.19-.53.43-.9.73-1.11.3-.21.72-.32 1.26-.32.79 0 1.34.12 1.62.37s.43.66.43 1.24v.3c-.54.23-1.52.48-2.93.74-1.05.2-1.85.44-2.4.7-.56.27-.99.66-1.29 1.16s-.46 1.08-.46 1.72c0 .97.34 1.78 1.01 2.42.68.64 1.6.96 2.78.96.67 0 1.29-.13 1.88-.38s1.14-.63 1.65-1.13c.02.06.06.18.11.35.11.39.21.69.29.89h2.99c-.26-.54-.45-1.05-.54-1.53-.11-.45-.16-1.19-.16-2.2zm-2.93-1.12c0 .72-.04 1.21-.12 1.47-.11.39-.35.73-.72 1-.49.36-1.01.54-1.56.54-.49 0-.89-.15-1.2-.46a1.46 1.46 0 0 1-.47-1.1c0-.43.2-.78.59-1.06.26-.17.81-.35 1.64-.53.84-.18 1.45-.33 1.84-.46v.6zM370.83 165.77c-.28-.37-.7-.68-1.25-.92s-1.16-.36-1.83-.36c-1.51 0-2.76.64-3.76 1.93v-1.68h-2.8v11.41h3.02V171c0-1.27.08-2.15.23-2.62.15-.47.44-.85.85-1.14.42-.29.88-.43 1.41-.43.41 0 .76.1 1.05.3.29.2.5.48.63.84s.19 1.16.19 2.39v5.82h3.02v-7.09c0-.88-.06-1.56-.17-2.03-.11-.47-.31-.89-.59-1.27zM398.12 166.35c-.92-1.24-2.08-1.86-3.49-1.86-1.37 0-2.51.5-3.43 1.51-.92 1.01-1.38 2.47-1.38 4.38 0 1.53.35 2.8 1.05 3.82.9 1.3 2.11 1.94 3.64 1.94 1.38 0 2.51-.62 3.42-1.85v1.67c0 .67-.05 1.13-.14 1.39-.14.35-.34.6-.6.76-.39.24-.98.35-1.77.35-.62 0-1.07-.11-1.35-.32-.21-.15-.34-.43-.4-.83l-3.45-.42c-.01.14-.01.26-.01.37 0 1.02.4 1.86 1.21 2.52.81.66 2.18.99 4.11.99 1.02 0 1.87-.11 2.54-.32.67-.21 1.2-.51 1.61-.89.4-.38.71-.9.93-1.57s.33-1.67.33-3.02v-10.24h-2.83v1.62zm-.9 6.51c-.51.58-1.13.86-1.87.86-.69 0-1.27-.28-1.74-.84-.47-.56-.7-1.45-.7-2.66 0-1.15.23-2.01.7-2.57s1.07-.84 1.79-.84c.75 0 1.36.29 1.85.86.49.57.73 1.45.73 2.63 0 1.13-.26 1.98-.76 2.56z"/></svg>
