<svg xmlns="http://www.w3.org/2000/svg" viewBox="0 -189 778 1008"><path fill="currentColor" d="M522 504l-26-91 67 67 26-13-34-136-27 15 27 97-71-71-17 10 25 96-69-70-27 15 100 97zm-134-77l-83 47 67 117 83-48-14-21-57 33-16-25 57-34-12-22-57 34-13-26 57-33zM270 650l-44-75 99 43 23-14-66-116-24 14 41 73-96-41-26 15 67 116zm496-168v-1c16 11 16 34 0 45l-95 55 54 90c4 7 3 16-2 27-5 8-9 12-20 12H597v108h-2c0 11-5 15-12 20-9 5-18 6-26 2l-92-53-54 92c-9 16-32 16-43 0l-53-91-96 56c-15 7-38-3-38-22V714H73c-19 0-29-23-22-38l53-94-92-55c-16-11-16-34 0-45l94-55-53-90c-4-8-3-17 2-26 4-8 11-12 20-12h106V191c0-19 23-29 38-22l94 53 53-92c9-16 33-16 44 0l53 90 96-55c15-7 38 3 38 22v108h108c16 0 29 23 21 38v2l-53 92z"/></svg>
