<svg xmlns="http://www.w3.org/2000/svg" viewBox="0 -189 772 1008"><path fill="currentColor" d="M567 939H53c-29 0-53-24-53-53V173c0-29 24-53 53-53h148V85c0-11 5-16 16-16h187c11 0 15 5 15 16v35h148c31 0 53 24 53 53v134c0 9-4 14-12 14h-76c-8 0-12-5-12-14v-87h-49v32c0 12-7 18-20 18H169c-12 0-19-6-19-18v-32h-50v619h420v-89c0-8 4-12 12-12h76c8 0 12 4 12 12v136c0 29-22 53-53 53zm100-589l1-1c7-5 13-5 18 0l85 83c3 7 3 16 0 19L542 679l-116 32c-4 3-7 3-14-4-3-4-3-8-2-12l31-116zM517 653l-49-52-20 69z"/></svg>
