<svg xmlns="http://www.w3.org/2000/svg" viewBox="0 -189 1008 1008"><path fill="currentColor" d="M1010 346v2c0 79-27 146-83 201L581 894c-15 16-31 17-46 2-13-15-13-31 2-46l341-343c44-44 65-95 65-154 0-62-21-114-65-157-43-44-95-65-157-65s-111 22-154 65L110 647c-31 31-46 70-46 110s15 81 46 112 71 46 113 46c40 0 80-15 111-46l460-455c39-38 39-96 0-134-38-39-96-39-134 0L315 626c-15 15-32 15-45 0-15-15-15-31 0-46l344-347c31-31 71-46 113-46 40 1 80 17 111 48s47 71 48 111c0 42-15 82-46 113L379 912c-44 43-100 64-156 65-58 0-115-21-158-64S1 815 1 757c0-56 22-113 66-157l459-454c56-56 122-83 200-83 79 0 146 27 201 83 56 55 83 121 83 200z"/></svg>
