<svg xmlns="http://www.w3.org/2000/svg" viewBox="0 0 48 60" overflow="visible"><style>.st0{fill:#4d5152}</style><path class="st0" d="M9.9 4C9.43 1.72 7.41 0 5 0 2.24 0 0 2.24 0 5v50c0 2.76 2.24 5 5 5h37v-4h6V4H9.9zM2 5c0-1.65 1.35-3 3-3s3 1.35 3 3v46.03A4.924 4.924 0 0 0 5 50c-1.13 0-2.16.39-3 1.03V5zm38 53H5c-1.65 0-3-1.35-3-3s1.35-3 3-3 3 1.35 3 3v1h32v2zm6-4H10V6h36v48z"/><path class="st0" d="M14 16h13v12H14zM14 30h13v12H14zM29 30h13v12H29zM14 10h19v2H14zM14 44h8v2h-8zM24 44h18v2H24zM34 48h8v2h-8zM14 48h18v2H14zM29 28h13V16H29v12zm1.08-11h10.83v10H30.08V17z"/></svg>
