<svg xmlns="http://www.w3.org/2000/svg" viewBox="0 -144 1008 1008"><path fill="currentColor" d="M507 506l1-1c4 4 10 6 18 5s18-2 29-4 21-4 31-6c23-5 34-3 34 7 0 20-5 38-15 55s-24 30-41 40-38 15-64 15-50-11-72-32-33-47-33-77 11-56 33-77 48-32 79-32c12 0 15 11 9 32-13 43-16 68-9 75zm-2 217l2 1c62 0 115-21 159-63s66-93 66-153-22-111-66-153-97-63-159-63-115 21-159 63-66 93-66 153c0 39 10 75 30 108s47 59 81 78 71 29 112 29zM325 247l1 2c57-17 114-26 171-26s110 6 159 18 91 28 126 47 68 40 98 62 54 44 72 65c38 45 57 75 57 91 0 15-11 35-32 61s-42 48-62 67-44 38-73 56-60 35-93 50c-73 33-155 49-245 49-62 0-122-9-179-26s-104-38-142-63-71-51-100-78-50-51-63-72-20-36-20-45 7-24 20-45 34-45 63-72 62-53 100-78 85-46 142-63z"/></svg>
