<svg xmlns="http://www.w3.org/2000/svg" viewBox="0 -168 1008 1008"><path fill="currentColor" d="M841 504c0-30-4-61-14-95-26 6-57 10-95 10-143 0-258-59-342-177-43 104-116 181-221 227-2 7-2 19-2 35 0 93 33 172 99 238s145 99 238 99 171-34 236-99c67-67 101-145 101-238zM207 209c82-83 181-124 297-124s214 42 295 124c82 81 124 179 124 295s-41 215-124 297c-80 81-179 122-295 122s-216-40-297-122C125 720 85 620 85 504s41-215 122-295zm386 301c48-46 124 24 74 73-49 49-122-28-74-73zm-252 0c48-46 124 24 74 73-49 49-122-28-74-73z"/></svg>
