<svg xmlns="http://www.w3.org/2000/svg" viewBox="0 0 89.81 89.81"><path d="M44.9 0C20.1 0 0 20.1 0 44.9c0 24.8 20.1 44.9 44.9 44.9 24.8 0 44.9-20.1 44.9-44.9C89.81 20.1 69.7 0 44.9 0zm12.94 20.3c-1.5.15-2.98.29-4.45.41-1.74.25-3.07.86-3.99 1.83-1.5 1.62-2.25 5.73-2.25 12.34 1.01 0 2.6.03 4.77.09 2.17.06 3.81.09 4.91.09.73 0 1.1.28 1.1.83 0 .86.03 2.13.09 3.83.06 1.7.09 2.96.09 3.78 0 .58-.31.87-.92.87-1.07 0-2.69-.05-4.86-.16-2.17-.11-3.78-.16-4.82-.16v13.71c0 2.14.08 5.38.23 9.72.15 4.34.23 7.58.23 9.72 0 .83-.31 1.24-.92 1.24h-8.39c-.8 0-1.19-.47-1.19-1.42V45.48c0-.83-.93-1.22-2.8-1.19-2.02.03-3.09-.05-3.21-.23-.09-.09-.14-.66-.14-1.7 0-.67-.03-1.67-.09-3s-.09-2.33-.09-3c0-.64 1.94-1.07 5.82-1.28-.09-1.96-.14-3.55-.14-4.77 0-5.41.96-9.37 2.89-11.88 1.71-2.26 4.22-4.04 7.52-5.32 2.97-1.16 6.04-1.74 9.22-1.74.31 0 .52.17.64.5.03.06.3 1.35.8 3.88.5 2.52.76 3.83.76 3.92.01.35-.26.57-.81.63z" fill="#4267b2"/><path d="M57.1 11.86c-.12-.34-.34-.5-.64-.5-3.18 0-6.25.58-9.22 1.74-3.3 1.28-5.81 3.06-7.52 5.32-1.93 2.51-2.89 6.47-2.89 11.88 0 1.22.05 2.81.14 4.77-3.88.21-5.82.64-5.82 1.28 0 .67.03 1.67.09 3s.09 2.33.09 3c0 1.04.05 1.6.14 1.7.12.18 1.19.26 3.21.23 1.86-.03 2.8.37 2.8 1.19v31.55c0 .95.4 1.42 1.19 1.42h8.39c.61 0 .92-.41.92-1.24 0-2.14-.08-5.38-.23-9.72-.15-4.34-.23-7.58-.23-9.72V44.05c1.04 0 2.64.05 4.82.16 2.17.11 3.79.16 4.86.16.61 0 .92-.29.92-.87 0-.83-.03-2.09-.09-3.78-.06-1.7-.09-2.97-.09-3.83 0-.55-.37-.83-1.1-.83-1.1 0-2.74-.03-4.91-.09s-3.76-.09-4.77-.09c0-6.6.75-10.72 2.25-12.34.92-.98 2.25-1.59 3.99-1.83 1.47-.12 2.95-.26 4.45-.41.55-.06.83-.28.83-.64 0-.09-.25-1.4-.76-3.92-.52-2.53-.79-3.82-.82-3.88z" fill="#fff"/></svg>
