<svg xmlns="http://www.w3.org/2000/svg" viewBox="0 0 82 82"><path d="M81 40h-8.44C72.04 23.38 58.62 9.96 42 9.44V1c0-.55-.45-1-1-1s-1 .45-1 1v8.44C23.38 9.96 9.96 23.38 9.44 40H1c-.55 0-1 .45-1 1s.45 1 1 1h8.44C9.96 58.62 23.38 72.04 40 72.56V81c0 .55.45 1 1 1s1-.45 1-1v-8.44C58.62 72.04 72.04 58.62 72.56 42H81c.55 0 1-.45 1-1s-.45-1-1-1zM42 70.56v-5.32c0-.55-.45-1-1-1s-1 .45-1 1v5.32C24.48 70.04 11.96 57.52 11.44 42h5.32c.55 0 1-.45 1-1s-.45-1-1-1h-5.32C11.96 24.48 24.48 11.96 40 11.44v5.32c0 .55.45 1 1 1s1-.45 1-1v-5.32c15.52.52 28.04 13.04 28.56 28.56h-5.32c-.55 0-1 .45-1 1s.45 1 1 1h5.32C70.04 57.52 57.52 70.04 42 70.56z"/><path d="M46.57 6.72a34.612 34.612 0 0 1 28.71 28.71 1 1 0 0 0 .99.84c.05 0 .11 0 .16-.01.55-.09.92-.6.83-1.15A36.641 36.641 0 0 0 46.89 4.74c-.55-.09-1.06.28-1.15.83s.29 1.06.83 1.15zM76.43 45.75a.998.998 0 0 0-1.15.83 34.613 34.613 0 0 1-28.71 28.7c-.55.09-.92.6-.83 1.15a1 1 0 0 0 .99.84c.05 0 .11 0 .16-.01a36.608 36.608 0 0 0 30.36-30.37.989.989 0 0 0-.82-1.14zM5.57 36.25c.05.01.11.01.16.01.48 0 .91-.35.99-.84a34.613 34.613 0 0 1 28.71-28.7c.55-.09.92-.6.83-1.15s-.6-.92-1.15-.83A36.62 36.62 0 0 0 4.75 35.11c-.09.54.28 1.06.82 1.14zM35.43 75.28A34.612 34.612 0 0 1 6.72 46.57c-.09-.54-.6-.92-1.15-.83-.55.09-.92.6-.83 1.15A36.63 36.63 0 0 0 35.1 77.26c.05.01.11.01.16.01.48 0 .91-.35.99-.84a.999.999 0 0 0-.82-1.15zM47.95 40.01c-.25 0-.45.2-.45.45v6.72h-13v-6.72c0-.25-.2-.45-.45-.45s-.45.2-.45.45v7.17c0 .25.2.45.45.45h13.91c.25 0 .45-.2.45-.45v-7.17a.463.463 0 0 0-.46-.45z"/><path d="M55.04 34.86c0-.03-.01-.06-.02-.09a.3.3 0 0 0-.04-.08c-.01-.02-.01-.03-.02-.05l-4.49-5.81a2.248 2.248 0 0 0-2.24-2.08c-.74 0-1.39.36-1.81.91-.41-.55-1.07-.91-1.81-.91s-1.39.36-1.81.91c-.41-.55-1.07-.91-1.81-.91s-1.4.36-1.81.91c-.41-.55-1.07-.91-1.81-.91s-1.39.36-1.81.91c-.41-.55-1.07-.91-1.81-.91-1.18 0-2.15.92-2.24 2.08l-4.49 5.81c-.01.02-.02.04-.03.05-.01.02-.03.05-.04.08-.01.03-.02.06-.02.1 0 .02-.01.03-.01.05v.07c.03 1.34.89 2.47 2.09 2.9v14.3h-.24c-.16 0-.31.02-.45.04a.406.406 0 0 0-.19-.04c-.25 0-.45.2-.45.45v2.16c0 .25.2.45.45.45h24.62c.3 0 .57-.03.81-.07.07.04.14.07.23.07.25 0 .45-.2.45-.45v-2.16c0-.25-.2-.45-.45-.45h-.88v-14.3c1.2-.43 2.07-1.56 2.09-2.9v-.02-.04c.05-.03.04-.05.04-.07zm-22.85-5.41h2.69l-2.32 5.01h-4.24l3.87-5.01zm13.94 0l2.32 5.01H44.1l-.78-5.01h2.81zm-3.71 0l.78 5.01h-4.4l.77-5.01h2.85zm-4.53 5.02h-4.35l2.32-5.01h2.8l-.77 5.01zm-.11.89a2.275 2.275 0 0 1-2.23 1.82c-1.1 0-2.02-.78-2.23-1.82h4.46zm5.45 0A2.275 2.275 0 0 1 41 37.18c-1.1 0-2.02-.78-2.23-1.82h4.46zm5.44 0a2.275 2.275 0 0 1-2.23 1.82c-1.1 0-2.02-.78-2.23-1.82h4.46zm.78-.89l-2.32-5.01h2.69l3.87 5.01h-4.24zm-1.22-6.82c.59 0 1.09.38 1.28.91h-2.55c.18-.53.68-.91 1.27-.91zm-3.62 0c.59 0 1.09.38 1.28.91h-2.55c.19-.53.68-.91 1.27-.91zm-3.61 0c.59 0 1.09.38 1.28.91h-2.55c.18-.53.68-.91 1.27-.91zm-3.61 0c.59 0 1.09.38 1.27.91h-2.55c.19-.53.69-.91 1.28-.91zm-3.62 0c.59 0 1.09.38 1.28.91H32.5c.18-.53.68-.91 1.27-.91zm-5.88 7.71h4.45a2.275 2.275 0 0 1-2.23 1.82c-1.09.01-2.01-.78-2.22-1.82zm6.16 18.99h-5.42v-1.28c.06 0 .12.02.19.02h17.61c.03 0 .06-.01.09-.01.01 0 .02.01.04.01h6.84v1.3a5.3 5.3 0 0 0-.59-.04H34.05zm18-2.16h-5.51c-.01 0-.02.01-.04.01-.03 0-.06-.01-.09-.01H29.95V38.07c.06 0 .11.02.17.02 1.15 0 2.17-.62 2.72-1.54.55.92 1.57 1.54 2.72 1.54 1.15 0 2.17-.62 2.72-1.54.55.92 1.57 1.54 2.72 1.54 1.15 0 2.17-.62 2.72-1.54.55.92 1.57 1.54 2.72 1.54 1.15 0 2.17-.62 2.72-1.54.55.92 1.57 1.54 2.72 1.54.06 0 .11-.01.17-.02v14.12zm-.17-15c-1.1 0-2.02-.78-2.23-1.82h4.45a2.265 2.265 0 0 1-2.22 1.82z"/></svg>
