<svg xmlns="http://www.w3.org/2000/svg" viewBox="0 0 70.6 82"><style>.st0{fill:#505050}</style><path class="st0" d="M59.53 68.74c-.55 0-1 .45-1 1v6.63c0 2-1.63 3.63-3.63 3.63H5.63C3.63 80 2 78.37 2 76.37V14.98h9.13c2.14 0 3.88-1.74 3.88-3.88V2h39.9c2 0 3.63 1.63 3.63 3.63v17.02c0 .55.45 1 1 1s1-.45 1-1V5.63C60.53 2.53 58 0 54.9 0H14.24c-.05 0-.11.01-.16.02C14.05.01 14.03 0 14 0c-.29 0-.55.13-.73.33-.07.05-.13.1-.19.16L.48 13.09c-.04.04-.08.09-.12.14a.97.97 0 0 0-.36.75c0 .03.01.06.02.09-.01.05-.02.11-.02.18v62.12C0 79.47 2.53 82 5.63 82H54.9c3.11 0 5.63-2.53 5.63-5.63v-6.63c0-.55-.45-1-1-1zm-48.4-55.76H3.41L13 3.39v7.71c0 1.04-.84 1.88-1.87 1.88z"/><path class="st0" d="M14.27 20.5c.55 0 1-.45 1-1s-.45-1-1-1H7.6c-.55 0-1 .45-1 1v9c0 .55.45 1 1 1h9c.55 0 1-.45 1-1V25c0-.55-.45-1-1-1s-1 .45-1 1v2.5h-7v-7h5.67zM43.27 27.5h-21c-.55 0-1 .45-1 1s.45 1 1 1h21c.55 0 1-.45 1-1s-.45-1-1-1zM43.27 43.5h-21c-.55 0-1 .45-1 1s.45 1 1 1h21c.55 0 1-.45 1-1s-.45-1-1-1zM43.27 59.5h-21c-.55 0-1 .45-1 1s.45 1 1 1h21c.55 0 1-.45 1-1s-.45-1-1-1zM69.88 28.02c-.79-1.25-2.07-1.69-2.84-1.78-1.17-.46-2.37-.44-3.46.07-2.85 1.33-4.24 5.63-4.41 6.18L45.22 64.62v.03c-.04.1-.06.21-.07.32v.16l.97 9.99c.04.38.28.7.64.84.12.04.24.07.36.07.25 0 .49-.09.68-.26l7.07-6.49.01-.01c.01-.01.01-.02.02-.02a.8.8 0 0 0 .18-.27c.01-.01.02-.02.02-.03l13.99-32.19c1.7-3.95 1.97-6.88.79-8.74zm-5.44.1c.62-.29 1.27-.28 1.97.02.11.05.24.08.36.08.04 0 .93.06 1.44.89.41.66.83 2.28-.57 5.89l-6.26-2.72c.53-1.37 1.62-3.48 3.06-4.16zm-3.8 6.03l5.97 2.59.25.11-13.19 30.36-6.21-2.7 13.18-30.36zM47.91 72.92l-.62-6.3 5.08 2.21-4.46 4.09z"/><path class="st0" d="M19.38 17.21a1 1 0 0 0-1.4.17l-5.39 6.93-1.99-2.88a.996.996 0 0 0-1.39-.25c-.45.31-.57.94-.25 1.39l2.77 4c.18.26.48.42.79.43h.03c.31 0 .6-.14.79-.39l6.23-8c.32-.43.25-1.06-.19-1.4zM6.6 44.5c0 .55.45 1 1 1h9c.55 0 1-.45 1-1V41c0-.55-.45-1-1-1s-1 .45-1 1v2.5h-7v-7h5.67c.55 0 1-.45 1-1s-.45-1-1-1H7.6c-.55 0-1 .45-1 1v9z"/><path class="st0" d="M19.38 33.21a1 1 0 0 0-1.4.17l-5.39 6.93-1.99-2.88a.996.996 0 0 0-1.39-.25c-.45.31-.57.94-.25 1.39l2.77 4c.18.26.48.42.79.43h.03c.31 0 .6-.14.79-.39l6.23-8c.32-.43.25-1.06-.19-1.4zM6.6 60.5c0 .55.45 1 1 1h9c.55 0 1-.45 1-1V57c0-.55-.45-1-1-1s-1 .45-1 1v2.5h-7v-7h5.67c.55 0 1-.45 1-1s-.45-1-1-1H7.6c-.55 0-1 .45-1 1v9z"/><path class="st0" d="M19.38 49.21a1 1 0 0 0-1.4.17l-5.39 6.93-1.99-2.88a.998.998 0 1 0-1.64 1.14l2.77 4c.18.26.48.42.79.43h.03c.31 0 .6-.14.79-.39l6.23-8c.32-.43.25-1.06-.19-1.4z"/></svg>
