<svg xmlns="http://www.w3.org/2000/svg" viewBox="0 0 69.14 65.87"><style>.st1{fill:#fff}</style><path d="M63.76 13.06a29.541 29.541 0 0 0-5.84-5.66C50.95 2.31 43.09.07 34.64 0c-5.86.06-11.42 1.08-16.69 3.47-4.25 1.92-8.04 4.47-11.19 7.94C2.68 15.92.24 21.13.01 27.28c-.24 6.3 1.96 11.78 5.9 16.55 2.79 3.39 6.26 6.02 10.21 7.99 3.51 1.75 7.19 2.93 11.04 3.65 1.29.24 2.59.58 3.82 1.04.44.17.89.81.98 1.29.17.98.17 2 .09 3-.1 1.23-.4 2.44-.51 3.67-.09 1.09.27 1.49 1.35 1.4.68-.06 1.4-.31 2.01-.66 2.87-1.63 5.75-3.25 8.54-5 1.85-1.16 3.61-2.47 5.35-3.8 3.14-2.41 6.36-4.73 9.29-7.37 2.27-2.05 4.27-4.43 6.16-6.85 2.66-3.39 4.34-7.27 4.77-11.59.65-6.55-1.21-12.38-5.25-17.54zm-42 24.07c-.28.11-.6.14-.91.14-2.16.01-4.33.02-6.49 0-1.14-.01-2.03-.89-2.03-2.03-.01-4.42-.04-8.84.04-13.26.01-.61.44-1.51.92-1.72.6-.27 1.56-.17 2.15.16.4.22.58 1.11.59 1.71.05 3.37.02 6.74.02 10.11 0 .39.04.79.07 1.31 1.7 0 3.33-.01 4.96.01.78.01 1.55.66 1.65 1.34.19 1.15-.12 1.9-.97 2.23zm6.47-12.21v10.02c0 .31-.01.62-.09.92-.24.96-1.05 1.51-2.01 1.4-.73-.08-1.64-.98-1.65-1.74-.01-4.67-.01-9.34.02-14.01.01-.99.84-1.66 1.87-1.66.98 0 1.76.7 1.82 1.73.07 1.11.04 2.22.04 3.34zM43.5 37.16c-.88.31-1.65.06-2.21-.71-.89-1.22-1.74-2.47-2.64-3.69-1.31-1.77-2.65-3.51-4.16-5.5-.03.59-.06.9-.06 1.21 0 2.23 0 4.45-.01 6.68 0 1.3-.71 2.11-1.81 2.13-1.15.02-1.91-.8-1.91-2.13-.01-4.42-.01-8.84.01-13.26.01-1.35.78-2.15 1.97-2.01.47.06 1.04.34 1.32.7 2.24 2.94 4.41 5.93 6.61 8.9.03.04.1.06.37.23v-1.13c0-2.26-.01-4.51.01-6.77.01-1.24.75-1.97 1.86-1.96 1.13.01 1.86.74 1.86 1.97.02 4.48.01 8.96.01 13.45 0 .89-.36 1.59-1.22 1.89zm12.47.08c-2.44.06-4.88.05-7.32 0-.88-.02-1.6-.83-1.6-1.74-.02-4.6-.02-9.21 0-13.81.01-1.09.71-1.81 1.81-1.83 2.29-.04 4.57-.04 6.86 0 1.17.02 1.89.79 1.89 1.83 0 1.07-.69 1.79-1.89 1.85-1.14.05-2.29.01-3.43.02-.49.01-.98.04-1.5.07v3.07c1.31 0 2.6-.02 3.89.01.57.01 1.15.08 1.7.24.9.26 1.33.97 1.22 1.86-.1.86-.78 1.56-1.66 1.59-1.36.06-2.72.04-4.08.05-.33 0-.66.03-1.1.05 0 .9-.05 1.73.04 2.55.02.19.5.47.77.48 1.17.05 2.35.02 3.52.02.31 0 .61.02.92.06.99.14 1.62.87 1.61 1.83-.01.93-.69 1.78-1.65 1.8z" fill="#03c302"/><path class="st1" d="M42.86 19.86c-1.12-.01-1.85.72-1.86 1.96-.02 2.26-.01 4.51-.01 6.77v1.13c-.27-.16-.34-.18-.37-.23-2.2-2.97-4.37-5.96-6.61-8.9-.28-.37-.85-.65-1.32-.7-1.19-.14-1.96.66-1.97 2.01-.02 4.42-.01 8.84-.01 13.26 0 1.33.76 2.15 1.91 2.13 1.1-.02 1.81-.84 1.81-2.13.01-2.23 0-4.45.01-6.68 0-.31.03-.63.06-1.21 1.51 1.99 2.85 3.74 4.16 5.5.9 1.21 1.75 2.46 2.64 3.69.56.77 1.33 1.01 2.21.71.86-.3 1.22-.99 1.23-1.88 0-4.48.01-8.96-.01-13.45-.02-1.24-.74-1.97-1.87-1.98zM56.01 33.61c-.3-.04-.61-.06-.92-.06-1.17-.01-2.35.03-3.52-.02-.28-.01-.75-.29-.77-.48-.09-.82-.04-1.65-.04-2.55.43-.02.76-.05 1.1-.05 1.36-.02 2.72 0 4.08-.05.88-.04 1.56-.73 1.66-1.59.11-.88-.32-1.6-1.22-1.86-.55-.16-1.13-.22-1.7-.24-1.29-.03-2.57-.01-3.89-.01v-3.07c.52-.03 1.01-.06 1.5-.07 1.14-.01 2.29.03 3.43-.02 1.21-.06 1.9-.78 1.89-1.85 0-1.04-.72-1.8-1.89-1.83-2.29-.05-4.57-.04-6.86 0-1.09.02-1.8.73-1.81 1.83-.02 4.6-.02 9.21 0 13.81 0 .91.73 1.73 1.6 1.74 2.44.05 4.88.05 7.32 0 .95-.02 1.63-.87 1.64-1.8.02-.96-.61-1.68-1.6-1.83zM21.08 33.55c-1.63-.02-3.26-.01-4.96-.01-.03-.53-.07-.92-.07-1.31 0-3.37.03-6.74-.02-10.11-.01-.6-.19-1.48-.59-1.71-.59-.33-1.56-.43-2.15-.16-.48.22-.91 1.12-.92 1.72-.08 4.42-.05 8.84-.04 13.26 0 1.14.89 2.02 2.03 2.03 2.16.02 4.33.01 6.49 0 .3 0 .63-.04.91-.14.85-.33 1.16-1.07.98-2.23-.11-.67-.88-1.32-1.66-1.34zM26.38 19.85c-1.03 0-1.87.66-1.87 1.66-.03 4.67-.03 9.34-.02 14.01 0 .76.91 1.66 1.65 1.74.96.11 1.76-.44 2.01-1.4.07-.29.08-.61.09-.92.01-2.13 0-4.27 0-6.4v-3.62c0-1.11.03-2.23-.03-3.34-.06-1.04-.84-1.73-1.83-1.73z"/></svg>
