<svg xmlns="http://www.w3.org/2000/svg" viewBox="0 0 512 512"><style>.st0{fill:#040000}</style><path class="st0" d="M488.43 0H23.57C10.55 0 0 10.55 0 23.57v464.87C0 501.45 10.55 512 23.57 512h464.86c13.01 0 23.57-10.55 23.57-23.57V23.57C512 10.55 501.45 0 488.43 0zm-46.7 244.42c-2.33 23.24-11.38 44.18-25.69 62.43-10.2 13.01-20.99 25.86-33.21 36.9-15.78 14.24-33.14 26.75-50.04 39.72-9.34 7.17-18.83 14.25-28.8 20.49-15.07 9.42-30.56 18.18-46.03 26.95-3.26 1.85-7.13 3.22-10.82 3.53-5.79.48-7.78-1.68-7.27-7.53.58-6.62 2.23-13.15 2.76-19.77.42-5.35.42-10.88-.5-16.14-.46-2.62-2.91-6.06-5.28-6.96-6.62-2.5-13.59-4.29-20.56-5.6-20.74-3.89-40.59-10.25-59.5-19.67-21.29-10.61-39.95-24.8-55.01-43.04-21.24-25.72-33.05-55.26-31.78-89.18 1.24-33.1 14.36-61.2 36.35-85.49 16.93-18.7 37.4-32.47 60.26-42.82 28.4-12.87 58.35-18.34 89.94-18.68 45.52.39 87.91 12.47 125.42 39.85 11.89 8.68 22.37 18.88 31.48 30.5 21.78 27.83 31.81 59.24 28.28 94.51z"/><path class="st0" d="M300.82 186.55c-6.01-.08-9.96 3.89-10.03 10.55-.13 12.16-.06 24.31-.07 36.47v6.07c-1.45-.88-1.81-.98-1.98-1.22-11.84-16-23.57-32.09-35.62-47.94-1.5-1.97-4.58-3.49-7.1-3.79-6.4-.77-10.57 3.58-10.61 10.83-.12 23.81-.08 47.63-.05 71.44.01 7.14 4.07 11.57 10.29 11.47 5.93-.1 9.75-4.5 9.77-11.48.05-11.99.01-23.98.03-35.97 0-1.69.16-3.38.32-6.54 8.11 10.73 15.33 20.14 22.4 29.66 4.85 6.54 9.44 13.26 14.21 19.86 3 4.15 7.18 5.46 11.91 3.81 4.61-1.61 6.6-5.36 6.61-10.15.01-24.15.04-48.3-.05-72.45-.03-6.62-3.93-10.54-10.03-10.62zM371.71 260.66c-1.63-.24-3.29-.32-4.94-.33-6.33-.03-12.66.17-18.98-.12-1.49-.07-4.05-1.56-4.16-2.61-.47-4.4-.2-8.87-.2-13.72 2.33-.12 4.12-.26 5.91-.28 7.33-.09 14.66.02 21.98-.28 4.76-.19 8.38-3.95 8.94-8.57.58-4.76-1.74-8.62-6.59-10-2.94-.84-6.08-1.19-9.15-1.27-6.93-.18-13.87-.06-20.94-.06v-16.54c2.8-.14 5.43-.35 8.06-.38 6.16-.07 12.33.18 18.48-.11 6.5-.31 10.22-4.18 10.2-9.96-.01-5.62-3.87-9.72-10.17-9.85-12.32-.25-24.65-.22-36.97-.02-5.89.1-9.71 3.96-9.74 9.84-.13 24.81-.12 49.62-.01 74.43.02 4.92 3.91 9.3 8.63 9.4 13.15.26 26.3.29 39.45-.01 5.13-.11 8.79-4.7 8.85-9.72.07-5.15-3.33-9.06-8.65-9.84zM183.5 260.36c-8.78-.11-17.56-.03-26.7-.03-.16-2.85-.38-4.97-.38-7.08-.01-18.15.16-36.3-.12-54.45-.05-3.21-1.03-8-3.18-9.2-3.18-1.77-8.39-2.31-11.61-.86-2.59 1.16-4.89 6.02-4.95 9.28-.42 23.8-.27 47.62-.21 71.43.01 6.12 4.81 10.88 10.95 10.93 11.66.09 23.32.06 34.97 0 1.63-.01 3.37-.2 4.88-.78 4.59-1.76 6.26-5.78 5.26-12.03-.58-3.63-4.71-7.15-8.91-7.21zM221.88 195.82c-.3-5.57-4.51-9.31-9.81-9.32-5.56-.02-10.06 3.57-10.1 8.92-.18 25.16-.18 50.32-.11 75.48.01 4.09 4.93 8.94 8.87 9.38 5.15.58 9.49-2.37 10.81-7.54.4-1.58.45-3.29.46-4.94.04-11.5.02-23 .02-34.49 0-6.5.01-13 0-19.5-.01-6 .18-12.01-.14-17.99z"/></svg>
