<svg xmlns="http://www.w3.org/2000/svg" viewBox="0 -190 1008 1008"><path fill="currentColor" d="M240 707h1c-76-114-114-225-114-330 0-106 36-194 110-268S399-1 505-1s194 36 268 110 110 162 110 268c0 105-38 216-114 330-39 56-72 103-103 142-29 38-64 83-110 134-13 17-30 26-49 26h-4c-19 0-35-9-50-26-46-51-83-96-112-134-31-39-62-86-101-142zm265 238l4-3 100-120c27-31 56-74 95-130 79-113 116-217 116-313 0-87-30-160-93-222-62-63-135-93-222-93s-160 30-222 93c-62 62-93 135-93 222 0 96 38 200 114 313 39 56 68 99 95 130l102 120h2c1 1 2 2 2 3zm0-385c-50 0-98-19-134-55s-55-84-55-134 19-98 55-134 84-55 134-55 98 19 134 55 55 84 55 134-19 98-55 134-84 55-134 55zm-1-346c-40 0-79 15-111 47-31 31-46 71-46 111s15 80 46 111 71 46 111 46 80-15 111-46c32-32 47-71 47-111s-16-80-47-111-71-47-111-47z"/></svg>
