<svg xmlns="http://www.w3.org/2000/svg" viewBox="0 0 551.59 477.99" overflow="visible"><path d="M334.97 346.57c-3.22-5.64-6.52-11.25-9.65-16.95-.18-.32-.35-.65-.98-.64-16 27.95-32.05 55.98-48.19 84.18-.49-.72-.86-1.18-1.15-1.68L56.36 33.9c-.03-.05 0-.14.02-.2.02-.07.05-.13.09-.21.21-.02.43-.07.64-.07 18.86-.01 37.72 0 56.58-.08 1.87-.01 2.81.66 3.73 2.25 20.48 35.52 41.02 71 61.55 106.49 29.68 51.3 59.35 102.59 89.03 153.89 2.53 4.37 5.08 8.74 7.77 13.39.38-.51.58-.72.72-.96 5.82-10.02 11.61-20.06 17.48-30.05.66-1.13.28-1.88-.25-2.8-4.06-6.97-8.12-13.94-12.15-20.93-6.85-11.88-13.65-23.78-20.51-35.66-5.13-8.89-10.32-17.74-15.45-26.62-4.87-8.44-9.68-16.93-14.56-25.37-6.05-10.48-12.16-20.92-18.2-31.4-5.89-10.22-11.72-20.48-17.6-30.71-3.91-6.8-7.9-13.55-11.82-20.35-7.28-12.64-14.53-25.31-21.82-37.95-3.22-5.59-6.54-11.12-9.76-16.72-5.41-9.4-10.81-18.81-16.13-28.26-.75-1.33-1.66-1.55-3.01-1.55C89.06.05 45.4.05 1.73.06 1.18.06.58-.14 0 .3c.22.97.81 1.73 1.27 2.54 7.84 13.59 15.71 27.18 23.55 40.77 18.03 31.26 36.05 62.52 54.09 93.77 16.09 27.89 32.19 55.77 48.28 83.66 16.97 29.41 33.93 58.83 50.9 88.24 21.78 37.73 43.58 75.45 65.36 113.18 9.02 15.62 18.01 31.26 27.01 46.9 1.54 2.67 3.03 5.36 4.55 8.04.17.3.34.7.79.57.29-.08.5-.41.45-.69-.17-.99.44-1.67.87-2.42 6.69-11.55 13.39-23.1 20.08-34.65 15.01-25.89 30.01-51.78 45.08-77.63.9-1.54.73-2.57-.15-3.94-2.53-3.94-4.85-8.02-7.16-12.07z" fill="#305d7a"/><path d="M549.03.01c-42.86.05-85.72.04-128.58.04-.29 0-.59.04-.88-.01-1.2-.18-1.85.39-2.43 1.41-8.61 14.93-17.26 29.84-25.91 44.75-9.97 17.19-19.95 34.39-29.93 51.57-.27.47-.36 1.15-1.17 1.23-.3-.47-.62-.96-.91-1.46a26910.7 26910.7 0 0 1-16.7-28.72c-12.93-22.26-25.87-44.51-38.76-66.8-.83-1.44-1.7-2.02-3.42-2.01-43.37.06-86.74.04-130.12.04h-2.6l192.23 332.09c.68-1.16 1.17-1.97 1.64-2.79 16.3-28.11 32.59-56.22 48.89-84.33 14.09-24.3 28.19-48.6 42.28-72.9 17.33-29.89 34.64-59.78 51.97-89.67C520 55.92 535.37 29.4 550.78 2.89 552.16.52 551.93 0 549.03.01zm-188.27 268.4c-1.16-1.13-135.19-232.39-135.9-234.53 2.03-.33 4.06-.51 6.11-.51 16.88.02 33.75.06 50.63.01 1.97-.01 3.13.53 4.17 2.32 13.53 23.35 27.14 46.65 40.74 69.97 10.97 18.82 21.94 37.63 32.92 56.45.25.43.41.94 1.19 1.28 2.61-4.52 5.18-8.96 7.75-13.4 22.11-38.3 44.22-76.6 66.3-114.91.64-1.1 1.26-1.75 2.69-1.75 18.78.07 37.57.06 56.35.09.57 0 1.16-.11 1.71.16-.41 1.67-131.41 230.1-134.66 234.82z" fill="#f46628"/></svg>
