<svg xmlns="http://www.w3.org/2000/svg" viewBox="-1 -189 782 1008"><path fill="currentColor" d="M260 421h-1c0 58 19 106 57 145 39 39 91 58 145 58 52 0 104-19 143-58 40-39 59-87 59-145 0-56-19-103-59-141-40-40-92-59-144-59s-103 19-143 59c-38 38-57 85-57 141zm426 235h2c-63 63-138 94-228 94-51 0-99-12-145-33L154 878v-2c-39 39-95 37-129 2-17-16-26-39-26-63 0-23 9-46 28-65h-2l157-155c-31-55-47-110-47-168 0-90 31-165 94-228 64-64 139-95 229-95s165 31 228 95c64 63 95 138 95 228s-31 165-95 229z"/></svg>
