<svg xmlns="http://www.w3.org/2000/svg" viewBox="0 -168 1008 1008"><path fill="currentColor" d="M589 483c57 0 102-43 102-104s-43-104-104-104c-57 0-103 43-103 104s44 104 105 104zm0-397c82 0 151 29 206 84 56 55 85 124 87 209-12 120-61 238-148 356-84 116-134 179-145 189-14-10-64-72-148-189-85-117-134-236-148-356 2-85 32-154 87-209s124-84 209-84zM211 379c3 101 44 201 110 301 66 101 114 166 142 195l-44 49c-11-10-62-72-147-189-86-117-134-236-146-356 2-136 87-244 211-282-79 71-130 170-126 282z"/></svg>
