<svg xmlns="http://www.w3.org/2000/svg" viewBox="0 -190 1008 1008"><path fill="currentColor" d="M738 0l1-1c71 0 133 26 187 81 51 50 76 108 81 174 5 64-14 118-57 161L470 900c-15 15-33 26-56 31l-265 71c-3 3-24 4-39 7-31 0-58-12-78-32S0 930 0 899c1-7 1-14 2-21 1-3 1-7 1-12l75-269c7-21 17-39 32-54l327-326v-2l2-2L591 59c40-42 89-59 147-59zm114 424l55-54c31-32 44-69 41-112-3-50-26-95-64-133-42-43-90-63-145-63-40 0-74 13-102 41l-51 52c72 0 133 26 187 80 48 50 72 104 79 168v21zm-609 78v-1c31 3 60 8 91 20l297-298c-60-13-107-4-146 35zm185 80l-1-2c15 15 28 32 43 55l299-301c-11-23-24-40-40-55-20-21-42-36-66-45L363 535c27 15 48 28 65 47zm56 82c12 28 22 55 22 83v24l244-246v-2c40-42 51-94 32-158zM228 779l-2-1c35 34 53 74 54 121l116-30 12-6c28-32 38-73 34-117-5-43-25-86-61-121-35-34-75-54-115-61-42-5-81 3-113 26-5 4-9 12-12 21l-32 114c46 1 85 19 119 54zM110 941v-1c4 0 11-1 22-4l116-31c3-40-12-75-43-107-31-29-64-45-107-42L67 876c-3 9-4 15-4 18 0 25 22 47 47 47z"/></svg>
