<svg xmlns="http://www.w3.org/2000/svg" viewBox="-4 -189 1008 1008"><path fill="currentColor" d="M894 226l91 126c13 17 20 35 20 56v32c0 54-40 94-94 94v410c0 34-30 64-64 64H154c-35 0-63-30-63-64V534c-55 0-95-40-95-94v-32c0-21 7-39 20-56l94-126c3-4 6-6 13-13V63c0-34 30-64 64-64h630c34 0 64 30 64 64v150c7 7 10 9 13 13zm-78-37V63H186v126h630zm95 283v-1c17 0 31-12 31-31v-32c0-5-2-13-6-18l-94-126c-5-8-14-12-26-12h-91l126 220h60zM60 408l1 33c0 19 13 31 32 31h59l126-220h-91c-11 0-20 4-27 12L66 390c-4 5-6 13-6 18zm631-156h-69l63 220h132zm-102 0h-71v220h134zm-103 0h-71l-63 220h134V252zM187 472h132l63-220h-69zm473 473h189V535H156v410h204V630c0-19 13-32 32-32h236c19 0 32 13 32 32v315zm-268 0h236V630H392v315z"/></svg>
