<svg xmlns="http://www.w3.org/2000/svg" viewBox="0 -202 756 1008"><path fill="currentColor" d="M36 151c24-24 54-36 90-36h504c36 0 66 12 90 36s36 54 36 90v504c0 35-12 65-36 89-24 25-54 37-90 37H126c-36 0-66-12-90-37-24-24-36-54-36-89V241c0-36 12-66 36-90zm532 86v-1c-17 7-31 24-31 47 0 29 20 50 51 50 23 0 40-14 47-31 5-17 2-38-13-53-15-16-37-19-54-12zm-64 255c0-36-12-66-36-90s-54-36-90-36-66 12-90 36-36 54-36 90c0 35 12 65 36 89s54 37 90 37 66-13 90-37 36-54 36-89zM84 744c0 25 17 42 42 42h504c25 0 42-17 42-42V492h-84c0 59-19 108-61 150-40 40-89 60-149 60-59 0-109-20-149-60-40-42-61-91-61-150H84v252z"/></svg>
