<svg xmlns="http://www.w3.org/2000/svg" viewBox="0 -202 756 1008"><path fill="currentColor" d="M645 760l1 1c-74 75-163 111-268 111s-193-36-268-111C36 687 0 598 0 493c0-106 36-194 110-269 74-74 162-109 268-109s195 35 267 109c75 74 111 163 111 269 0 105-36 192-111 267zm-58-475l1-1c-58-58-127-86-209-86s-152 28-210 86c-56 56-85 126-85 209 0 82 29 150 85 208 59 58 127 87 209 87s151-29 209-87 86-127 86-207c0-83-28-151-86-209zM387 461l1 1c-1-7-2-13-2-16-3-29 17-52 42-63s55-8 75 16c15-3 29-10 44-17-4 15-14 28-29 37 16-3 28-6 39-11-9 13-20 25-35 36v9c0 71-30 126-90 166-29 20-64 30-104 30-39 0-74-11-106-31 1 0 7 1 16 1 32 0 60-10 85-30-32-1-57-21-65-48 4 1 8 2 12 2 7 0 13-1 18-2-31-7-54-33-54-69 7 4 18 8 31 9-20-16-31-35-31-58 0-12 3-23 10-34 38 46 85 69 143 72z"/></svg>
