<svg xmlns="http://www.w3.org/2000/svg" viewBox="0 -144 1008 1008"><path fill="currentColor" d="M144 864h72V432h-72v432zm720-250c0-25-13-48-32-64 4-9 6-20 6-31 0-49-46-87-93-87H558c36-71 72-123 72-205 0-38-21-83-64-83-27 0-62-1-62 36 0 79-115 237-144 284v333c58 35 146 67 216 67h134c46 0 92-35 90-83v-3c23-15 38-41 38-69 0-10-2-21-6-31 19-15 32-39 32-64zm144 0c0 36-9 72-26 104-2 48-19 94-49 131-31 96-123 159-223 159H576c-74 0-148-21-216-50v50H0V288h299c15-26 33-52 47-78 6-11 12-22 14-34 3-20 4-38 11-58C397 48 465 0 540 0c138 0 234 84 234 227 0 21-1 42-4 62 113 12 207 106 212 221 17 32 26 68 26 104z"/></svg>
