<svg xmlns="http://www.w3.org/2000/svg" viewBox="0 -144 1008 1008"><path fill="currentColor" d="M1008 394c0 36-9 72-26 104-5 115-99 209-212 221 3 20 4 41 4 62 0 143-96 227-234 227-75 0-143-48-169-118-7-20-8-38-11-58-2-12-8-23-14-34-14-26-32-52-47-78H0V0h360v50C428 21 502 0 576 0h134c100 0 192 63 223 159 30 37 47 83 49 131 17 32 26 68 26 104zm-144 0c0-25-13-49-32-64 4-10 6-21 6-31 0-28-15-54-38-69v-3c2-48-44-83-90-83H576c-70 0-158 32-216 67v333c29 47 144 205 144 284 0 37 35 36 62 36 43 0 64-45 64-83 0-82-36-134-72-205h187c47 0 93-38 93-87 0-11-2-22-6-31 19-16 32-39 32-64zM216 144h-72v432h72V144z"/></svg>
