<svg xmlns="http://www.w3.org/2000/svg" viewBox="0 -189 1008 1008"><path fill="currentColor" d="M672 588H420V252h84v252h168v84zM258 259l1 1c-68 68-102 149-102 245s34 177 102 245 149 102 245 102 177-34 245-102c69-69 103-150 103-246 0-95-34-176-103-245S599 156 504 156c-96 0-177 34-246 103zM72 756C26 679 4 596 4 505s22-174 68-251c44-78 104-138 182-182C331 26 414 4 505 4s174 22 251 68c78 44 138 104 182 182 46 77 68 160 68 251s-22 174-68 251c-44 78-104 138-182 182-77 46-160 68-251 68s-174-22-251-68c-78-44-138-104-182-182z"/></svg>
