<svg xmlns="http://www.w3.org/2000/svg" viewBox="0 0 570.89 486.06"><style>.st0{fill:#58b43a}</style><path class="st0" d="M402.42 164.99h-3.25c-5.78.01-11.56-.11-17.34.08-3.96.13-7.91.64-11.85 1.06-4.01.43-8.04.83-12.02 1.47-18.35 2.91-35.95 8.31-52.75 16.25-14.59 6.9-28.09 15.52-40.27 26.12-17.06 14.85-30.46 32.43-39.22 53.38-4.08 9.75-6.84 19.87-8.39 30.34-1.38 9.3-1.46 18.62-.79 27.98.65 9.11 2.61 17.97 5.26 26.69.19.61.38 1.22.55 1.84.03.11-.02.25-.05.52-2.07.1-4.17.26-6.26.29-11.7.18-23.35-.52-34.95-2.08-8.98-1.2-17.84-2.96-26.61-5.19-1.85-.47-3.69-.94-5.52-1.48-5.48-1.63-10.66-.89-15.58 1.93-6.35 3.64-12.69 7.3-19.03 10.95-7.73 4.46-15.45 8.92-23.18 13.38-1.46.84-2.95 1.59-4.71 1.37-3.94-.49-6.52-3.97-5.67-7.88.64-2.94 1.53-5.83 2.31-8.74 2.42-9.05 4.74-18.12 7.28-27.13 1.63-5.79-.51-11.31-5.09-14.61a174.665 174.665 0 0 1-20.98-17.8c-8.86-8.81-16.73-18.45-23.38-29.05-9.47-15.11-16.12-31.34-19.51-48.88-1.18-6.12-1.89-12.29-2.24-18.52-.37-6.56-.17-13.08.41-19.61 1.64-18.25 6.95-35.4 15.42-51.62 6.98-13.36 15.83-25.34 26.26-36.2 14.15-14.73 30.44-26.55 48.51-35.99 17.23-9 35.4-15.35 54.38-19.4 4.07-.87 8.22-1.35 12.31-2.12 6.23-1.17 12.52-1.78 18.83-2.26 9.55-.72 19.12-.7 28.68-.28 4.04.18 8.06.6 12.08.99 8.29.82 16.5 2.11 24.64 3.89 20.49 4.49 39.96 11.69 58.31 21.89 10.92 6.07 21.19 13.1 30.68 21.22 16.28 13.91 29.75 30.11 39.58 49.22 6.16 11.95 10.56 24.49 13.15 37.98zm-151.91-26.88c-.43 13.13 9.69 26.2 25.46 26.35 14.92.14 25.3-11.55 25.81-24.56.58-14.87-11.25-26.46-25.06-26.66-7.08-.1-13.22 2.26-18.31 7.15-5.02 4.83-7.54 10.81-7.9 17.72zm-128.6.8c.31 14.28 11.23 25.6 25.7 25.56 15.78-.05 25.77-12.95 25.61-25.79-.18-14.19-11.55-25.51-25.75-25.44-13.71.06-25.33 10.89-25.56 25.67z"/><path class="st0" d="M231.06 311.51c.21-4.47.13-8.74.69-12.92.91-6.86 2.24-13.65 4.29-20.29 4.88-15.79 12.73-29.96 23.23-42.68 9.93-12.04 21.6-22.11 34.72-30.52 14.1-9.03 29.24-15.73 45.3-20.4 9.13-2.65 18.43-4.57 27.86-5.77 10.19-1.29 20.42-1.83 30.69-1.5 3.53.11 7.06.32 10.57.65 2.82.26 5.6.93 8.42 1.1 6.83.42 13.45 1.94 20.06 3.52 18.03 4.31 35 11.25 50.76 21.02 18.08 11.21 33.45 25.32 45.22 43.14 9.46 14.32 15.83 29.9 18.41 46.94 1.06 6.97 1.72 13.98 1.36 21.03-.17 3.31-.84 6.6-.97 9.9-.17 4.4-1.09 8.66-2.11 12.88-4.19 17.37-12.11 32.93-23.12 46.96-8.06 10.27-17.43 19.18-27.88 26.98-1.08.8-2.2 1.6-3.09 2.59-2.33 2.57-3.41 5.62-2.56 9.06 1.55 6.22 3.23 12.41 4.88 18.61 1.02 3.84 2.09 7.67 3.12 11.51.17.62.3 1.25.35 1.89.31 4.13-3.81 7.06-7.55 5.26-2.25-1.08-4.37-2.43-6.54-3.68-9.62-5.55-19.25-11.08-28.85-16.66-3.6-2.09-7.38-3.35-11.57-2.66-1.95.32-3.86.88-5.79 1.34-2.98.71-5.95 1.51-8.95 2.12-4.32.87-8.67 1.65-13.02 2.39-2.51.42-5.03.74-7.56.99-9.79 1-19.61 1.17-29.44.74-3.78-.16-7.54-.69-11.32-.93-5.82-.37-11.5-1.6-17.19-2.71-3.13-.61-6.25-1.32-9.34-2.11a177.52 177.52 0 0 1-31.91-11.61c-11.82-5.62-22.86-12.49-32.98-20.8-17.37-14.26-30.95-31.41-39.56-52.3-4.38-10.63-7.17-21.67-8.07-33.15-.26-3.36-.38-6.77-.56-9.93zm128.6-42.84c.2-10.96-8.48-21.35-21.1-21.52-11.32-.15-21.53 8.62-21.58 21.26-.05 12.69 10.08 21.33 21.02 21.42 11.98.11 21.58-9.32 21.66-21.16zm85.69 21.17c11.18.08 21.31-8.69 21.46-21.13.14-11.9-9.43-21.6-21.25-21.58-11.3.02-21.33 8.68-21.4 21.26-.08 12.61 9.99 21.35 21.19 21.45z"/></svg>
