<svg xmlns="http://www.w3.org/2000/svg" viewBox="0 0 83.9 58.23" overflow="visible"><path d="M83.7 23.08c-.24-4.12-.71-8.23-1.24-12.32-.47-3.61-2.28-6.42-5.55-8.2-1.84-1-3.86-1.33-5.89-1.46C64.53.7 58.03.32 51.53.1 46.76-.05 41.98 0 37.21.04c-4.64.04-9.28.07-13.9.31-4.29.22-8.61.41-12.83 1.12-4.81.82-8.2 3.68-9.15 8.68-.58 3.03-.95 6.13-1.1 9.21C0 23.97 0 28.58 0 33.19c0 4.5.31 8.98 1.01 13.43.86 5.52 4.24 9.12 9.69 10.09 2.27.41 4.59.68 6.9.78 7.03.31 14.07.5 21.1.74 0-.09 0-.19.01-.28 5.31 0 10.62.12 15.92-.03 5.52-.16 11.04-.53 16.56-.9 3.27-.22 6.17-1.37 8.53-3.77 2.02-2.06 2.71-4.64 3.09-7.35 1.06-7.58 1.34-15.19.89-22.82zM33.86 42V16.1c7.02 4.32 13.94 8.58 21.03 12.95C47.84 33.39 40.9 37.66 33.86 42z"/></svg>
