<svg xmlns="http://www.w3.org/2000/svg" viewBox="0 0 89.17 107.77" overflow="visible"><path d="M66.08 10.26h5.45V40.3h-5.45v-3.31c-2.14 2.57-4.28 3.74-6.2 3.74-1.71 0-2.99-.75-3.53-2.25-.32-.86-.53-2.35-.53-4.49V10.25h5.45V32.4c0 1.18 0 1.92.11 2.03.11.86.53 1.39 1.28 1.39 1.07 0 2.25-.86 3.42-2.67V10.26zm-14.65 9.73v10.58c0 3.21-.64 5.56-1.71 7.06-1.5 2.03-3.64 3.1-6.42 3.1-2.67 0-4.81-1.07-6.31-3.1-1.18-1.5-1.71-3.85-1.71-7.06V19.99c0-3.1.64-5.45 1.71-7.06 1.5-2.03 3.64-2.99 6.31-2.99 2.78 0 4.92.96 6.42 2.99 1.07 1.61 1.71 3.96 1.71 7.06zm-26.41-4.17L29.08 0h6.2l-7.27 23.95v16.36h-5.99V23.95c-.64-2.89-1.82-7.16-3.74-12.72C17 7.49 15.61 3.75 14.43 0h6.31l4.28 15.82zm64.15 60.95c0 6.84 0 14.33-1.6 21.06-1.07 4.7-5.03 8.13-9.62 8.66-11.01 1.28-22.24 1.28-33.36 1.28s-22.35 0-33.36-1.28c-4.6-.53-8.55-3.96-9.62-8.66C0 91.09 0 83.61 0 76.77c0-6.95 0-14.33 1.6-21.06 1.07-4.81 4.92-8.23 9.62-8.77 11.01-1.28 22.24-1.28 33.36-1.28s22.35 0 33.36 1.28c4.7.53 8.55 3.96 9.62 8.77 1.61 6.73 1.61 14.11 1.61 21.06zm-43.3-45.23V18.92c0-2.78-.75-4.17-2.57-4.17-1.71 0-2.57 1.39-2.57 4.17v12.62c0 2.78.86 4.28 2.57 4.28 1.82 0 2.57-1.5 2.57-4.28zM82.43 86.5v-.75h-5.45c0 2.14 0 3.31-.11 3.64-.32 1.39-1.07 2.14-2.35 2.14-1.92 0-2.78-1.39-2.78-4.17v-5.24h10.69v-6.2c0-3.1-.43-5.45-1.6-6.95-1.5-2.03-3.64-3.1-6.31-3.1-2.78 0-4.92 1.07-6.52 3.1-1.07 1.5-1.6 3.85-1.6 6.95V86.4c0 3.21.53 5.45 1.71 6.95 1.6 2.03 3.64 3.1 6.52 3.1 2.78 0 5.03-1.07 6.42-3.21.75-.96 1.18-2.03 1.28-3.21.1-.65.1-1.82.1-3.53zm-20.31.53V75.27c0-2.78-.11-4.81-.53-5.99-.64-2.25-2.14-3.42-4.28-3.42-1.92 0-3.85 1.18-5.56 3.31V56.13H46.4v39.88h5.35v-2.89c1.82 2.25 3.64 3.31 5.56 3.31 2.14 0 3.64-1.18 4.28-3.31.42-1.28.53-3.31.53-6.09zM36.35 92.7v3.31h5.35V66.29h-5.35v22.67c-1.18 1.71-2.35 2.57-3.42 2.57-.75 0-1.18-.43-1.28-1.28V66.3H26.2v23.52c0 2.14.21 3.42.53 4.38.53 1.5 1.71 2.25 3.53 2.25 1.92-.01 3.95-1.29 6.09-3.75zm-17.32 3.31V61.8h6.42v-5.67H6.74v5.67h6.31v34.21h5.98zm58.06-21.17v2.78h-5.35v-2.78c0-2.67.86-4.06 2.67-4.06s2.68 1.39 2.68 4.06zm-20.32 0v12.62c0 2.78-.75 4.06-2.35 4.06-.86 0-1.82-.43-2.67-1.28V72.06c.86-.86 1.82-1.28 2.67-1.28 1.61 0 2.35 1.39 2.35 4.06z" fill="#8a017b"/></svg>
