<svg xmlns="http://www.w3.org/2000/svg" viewBox="0 -144 1008 1008"><path fill="currentColor" d="M697 605l-1-101h-50v101H344V504h-50v101c0 19 8 34 25 44 8 5 16 7 25 7h302c14 0 26-5 36-15s15-22 15-36zm226-333l30 30-6 1c2 2 7 6 14 12s11 10 13 12 5 6 9 12 6 11 7 16c2 15 1 31-2 48s-10 60-22 129-24 137-35 204-18 108-21 122-9 25-19 33-20 13-29 14l-13 1H147c-25 0-43-11-54-32-3-6-5-14-7-24s-14-81-37-214-36-208-39-225-5-29-5-37 0-15 1-20 3-10 7-16 7-10 9-12 6-6 13-12 12-10 14-12l30-30v80h844v-80zm-68-20l-2 50H151v-50c0-23 11-39 33-47 5-2 11-3 18-3h602c21 0 36 9 45 26 4 7 6 15 6 24zM304 101h401-1c21 0 36 9 45 26 4 7 6 15 6 24H253c0-23 11-39 33-47 5-2 11-3 18-3z"/></svg>
