<svg xmlns="http://www.w3.org/2000/svg" viewBox="0 -144 792 1008"><path fill="currentColor" d="M792 36v936c0 20-16 36-36 36H36c-20 0-36-16-36-36V36C0 16 16 0 36 0h720c20 0 36 16 36 36zM504 810v126h216V72H72v864h216V810c0-10 8-18 18-18h180c10 0 18 8 18 18zm144-648v36c0 10-8 18-18 18h-36c-10 0-18-8-18-18v-36c0-10 8-18 18-18h36c10 0 18 8 18 18zm-144 0v36c0 10-8 18-18 18h-36c-10 0-18-8-18-18v-36c0-10 8-18 18-18h36c10 0 18 8 18 18zm144 144v36c0 10-8 18-18 18h-36c-10 0-18-8-18-18v-36c0-10 8-18 18-18h36c10 0 18 8 18 18zM360 162v36c0 10-8 18-18 18h-36c-10 0-18-8-18-18v-36c0-10 8-18 18-18h36c10 0 18 8 18 18zm144 144v36c0 10-8 18-18 18h-36c-10 0-18-8-18-18v-36c0-10 8-18 18-18h36c10 0 18 8 18 18zm144 144v36c0 10-8 18-18 18h-36c-10 0-18-8-18-18v-36c0-10 8-18 18-18h36c10 0 18 8 18 18zM216 162v36c0 10-8 18-18 18h-36c-10 0-18-8-18-18v-36c0-10 8-18 18-18h36c10 0 18 8 18 18zm144 144v36c0 10-8 18-18 18h-36c-10 0-18-8-18-18v-36c0-10 8-18 18-18h36c10 0 18 8 18 18zm144 144v36c0 10-8 18-18 18h-36c-10 0-18-8-18-18v-36c0-10 8-18 18-18h36c10 0 18 8 18 18zm144 144v36c0 10-8 18-18 18h-36c-10 0-18-8-18-18v-36c0-10 8-18 18-18h36c10 0 18 8 18 18zM216 306v36c0 10-8 18-18 18h-36c-10 0-18-8-18-18v-36c0-10 8-18 18-18h36c10 0 18 8 18 18zm144 144v36c0 10-8 18-18 18h-36c-10 0-18-8-18-18v-36c0-10 8-18 18-18h36c10 0 18 8 18 18zm144 144v36c0 10-8 18-18 18h-36c-10 0-18-8-18-18v-36c0-10 8-18 18-18h36c10 0 18 8 18 18zm144 144v36c0 10-8 18-18 18h-36c-10 0-18-8-18-18v-36c0-10 8-18 18-18h36c10 0 18 8 18 18zM216 450v36c0 10-8 18-18 18h-36c-10 0-18-8-18-18v-36c0-10 8-18 18-18h36c10 0 18 8 18 18zm144 144v36c0 10-8 18-18 18h-36c-10 0-18-8-18-18v-36c0-10 8-18 18-18h36c10 0 18 8 18 18zm-144 0v36c0 10-8 18-18 18h-36c-10 0-18-8-18-18v-36c0-10 8-18 18-18h36c10 0 18 8 18 18zm0 144v36c0 10-8 18-18 18h-36c-10 0-18-8-18-18v-36c0-10 8-18 18-18h36c10 0 18 8 18 18z"/></svg>
