<svg xmlns="http://www.w3.org/2000/svg" viewBox="0 -189 1008 1008"><path fill="currentColor" d="M788 94h135c48 0 85 38 85 85v744c0 48-37 85-85 85H85c-48 0-85-37-85-85V179c0-47 37-85 85-85h136V31c0-20 16-31 32-31 15 0 31 11 31 31v63h189V31c0-20 16-31 32-31 15 0 31 11 31 31v63h189V31c0-20 16-31 32-31 15 0 31 11 31 31v63zm135 851c15 0 22-7 22-22V179c0-15-7-22-22-22H788v63c0 21-16 32-31 32-16 0-32-11-32-32v-63H536v63c0 21-16 32-31 32-16 0-32-11-32-32v-63H284v63c0 21-16 32-31 32-16 0-32-11-32-32v-63H85c-15 0-22 7-22 22v744c0 15 7 22 22 22h838zM662 378h126v94H662v-94zm-221 0h126v94H441v-94zm-220 0h126v94H221v-94zm441 157h126v95H662v-95zm-221 0h126v95H441v-95zm-220 0h126v95H221v-95zm441 158h126v94H662v-94zm-221 0h126v94H441v-94zm-220 0h126v94H221v-94z"/></svg>
