<svg xmlns="http://www.w3.org/2000/svg" viewBox="0 -189 1008 1008"><path fill="currentColor" d="M95 31h819c54 0 94 41 94 95v630c0 54-40 94-94 94H599v38l196 25c16 4 24 15 24 32 0 19-14 32-31 32H221c-19 0-32-13-32-32 0-17 8-28 24-32l197-25v-38H95c-55 0-95-40-95-94V126c0-54 40-95 95-95zm819 756c17 0 31-12 31-31V126c0-19-14-32-31-32H95c-19 0-32 13-32 32v630c0 19 13 31 32 31h819zM158 157h693c17 0 31 13 31 32v441c0 19-14 31-31 31H158c-19 0-32-12-32-31V189c0-19 13-32 32-32zm0 473h693V189H158v441z"/></svg>
