<svg xmlns="http://www.w3.org/2000/svg" viewBox="0 -144 864 1008"><path fill="currentColor" d="M864 360v522c0 30-24 54-54 54H54c-30 0-54-24-54-54V126c0-30 24-54 54-54h522c30 0 71 17 92 38l158 158c21 21 38 62 38 92zm-360-18V162c0-10-8-18-18-18H378c-10 0-18 8-18 18v180c0 10 8 18 18 18h108c10 0 18-8 18-18zm216 288v234h72V360c0-11-10-34-17-41L617 161c-8-8-30-17-41-17v234c0 30-24 54-54 54H198c-30 0-54-24-54-54V144H72v720h72V630c0-30 24-54 54-54h468c30 0 54 24 54 54zm-504 18v216h432V648H216z"/></svg>
