<svg xmlns="http://www.w3.org/2000/svg" viewBox="0 -144 1008 1008"><path fill="currentColor" d="M504 881l1 1c19 0 35-7 49-21s21-30 21-49-7-35-21-49-29-21-45-21-29 3-40 9c-23 13-35 31-35 54s7 41 21 55 30 21 49 21zm0-744c-13 0-25 3-36 9s-19 14-25 25-9 23-9 36 3 25 9 36 14 19 25 25 23 9 36 9 25-3 36-9 19-14 25-25 9-23 9-36-3-25-9-36-14-19-25-25-23-9-36-9zm50 175v390c29 13 50 34 62 63 6 14 9 29 9 45 0 33-12 62-36 86s-53 36-86 36-62-12-86-36-36-50-36-79 6-53 19-73 30-35 51-45V313c-21-10-38-25-51-45s-19-44-19-73 12-55 36-79 53-36 86-36 62 12 86 36 36 53 36 86-11 61-34 84c-11 11-23 20-37 26z"/></svg>
