<svg xmlns="http://www.w3.org/2000/svg" viewBox="0 -144 1008 1008"><path fill="currentColor" d="M828 919l1-1c11 6 24 9 40 9s31-7 45-21 21-30 21-49c0-23-10-42-29-56-12-9-27-13-44-13s-33 7-47 21-21 29-21 45 3 29 9 40 14 19 25 25zm-353 0c11 6 24 9 40 9s31-7 45-21 21-28 21-42-2-25-6-34-9-16-15-22c-14-14-30-21-49-21s-35 7-49 21-21 29-21 45 3 29 9 40 14 19 25 25zm-317 10l-1-1c13 0 25-3 36-9 23-13 35-31 35-54s-7-41-21-55-30-21-49-21-35 7-49 21-21 29-21 45 3 29 9 40 14 19 25 25 23 9 36 9zM510 83l1 1c-13 0-25 3-36 9-23 13-35 33-35 60 0 19 7 35 21 49s30 21 49 21 35-7 49-21 21-29 21-45-3-29-9-40-14-19-25-25-23-9-36-9zm397 547v117l6 2c21 10 38 25 51 45s19 44 19 73-12 55-36 79-53 36-86 36-62-12-86-36-36-50-36-79 6-53 19-73 30-35 51-45V632c0-21-7-39-22-54s-33-22-54-22H632c-26 0-51-6-76-18v210c21 10 38 25 51 45s19 44 19 73-12 55-36 79-53 36-86 36-62-12-86-36-36-50-36-79 6-53 19-73 30-35 51-45V538c-25 12-50 18-76 18H275c-21 0-39 7-54 22s-22 33-22 54v117c29 13 50 34 62 63 6 14 9 29 9 45 0 33-12 62-36 86s-53 36-86 36-62-12-86-36-36-50-36-79 6-53 19-73 30-35 51-45V629c0-49 17-91 51-125s76-51 125-51h101c21 0 39-7 54-22s22-33 22-54V260c-21-10-38-25-51-45s-19-44-19-73 12-55 36-79 53-36 86-36 62 12 86 36 36 50 36 79-6 53-19 73-30 35-51 45v117c0 21 7 39 22 54s33 22 54 22h101c32 0 62 8 89 24s48 37 64 64 24 57 24 89z"/></svg>
