<svg xmlns="http://www.w3.org/2000/svg" viewBox="0 -144 1008 1008"><path fill="currentColor" d="M504 36c-36 0-73 4-108 13v111c-54 20-91 42-136 78l-96-55c-50 53-88 117-108 187l96 55c-9 57-9 101 0 158l-96 55c20 70 58 134 108 187l96-55c45 36 82 58 136 78v111c35 9 72 13 108 13s73-4 108-13V848c54-20 91-42 136-78l96 55c50-53 88-117 108-187l-96-55c9-57 9-101 0-158l96-55c-20-70-58-134-108-187l-96 55c-45-36-82-58-136-78V49c-35-9-72-13-108-13zm0 684c-119 0-216-97-216-216s97-216 216-216 216 97 216 216-97 216-216 216zm0-720c49 0 97 7 144 21v114c37 15 72 35 103 60l99-57c71 67 122 154 144 249l-98 57c5 40 5 80 0 120l98 57c-22 95-73 182-144 249l-99-57c-31 25-66 45-103 60v114c-47 14-95 21-144 21s-97-7-144-21V873c-37-15-72-35-103-60l-99 57C87 803 36 716 14 621l98-57c-5-40-5-80 0-120l-98-57c22-95 73-182 144-249l99 57c31-25 66-45 103-60V21C407 7 455 0 504 0zm0 684c99 0 180-81 180-180s-81-180-180-180-180 81-180 180 81 180 180 180z"/></svg>
