<svg xmlns="http://www.w3.org/2000/svg" viewBox="0 -144 1008 1008"><path fill="currentColor" d="M371 891c42 14 85 21 129 21 83 0 159-23 228-69-8-15-24-25-49-30s-47-7-66-5-42 8-69 19-43 17-49 18-14 3-24 6c-22 6-38 9-48 9s-20 4-29 13-17 15-23 18zm72-799l1-1c-75 10-142 39-201 86S141 282 114 351c3 0 9 1 18 2s17 2 23 3 14 2 23 3 16 3 22 5c26 8 33 23 22 44l-18 36s-10 28-10 41 3 24 8 32 11 15 18 20l21 15c18 12 27 26 27 42s3 38 9 65 9 42 9 44c0 9 12 27 36 55s41 42 52 42c12 0 15-26 9-78-2-22-3-38-3-49s4-29 11-54 16-43 27-55 22-20 33-25c31-14 50-30 57-47s11-33 11-48-2-28-6-38-10-19-18-27-17-15-27-20-20-9-31-13-21-7-30-9-17-4-25-6-15-4-22-6-19-3-36-4-29 0-36 3-16-1-27-11-17-19-17-27 5-18 15-29 22-23 36-36 23-24 28-32 11-14 17-19 14-10 23-16 17-12 23-17 16-12 30-21 23-17 27-24zm385 660h-1c57-74 85-157 85-248s-26-173-78-245-120-122-203-150c-12 14-18 25-17 32 2 21 6 36 13 46s15 14 23 13 17-3 26-6 17-6 24-10 12-4 15 0c18 19 15 39-8 59-26 22-42 45-48 70-3 14 0 31 9 50s19 33 29 43c17 17 40 26 69 26 25 0 44 25 56 74 6 27 8 58 5 94s-8 61-15 76c-6 18-7 33-3 46s10 23 19 30zM504 20l-3-3c66 0 129 13 189 39s111 60 154 103 77 94 103 154 39 123 39 189c0 88-22 169-66 244-43 73-101 131-174 174-75 44-156 66-244 66-108 0-203-31-286-93-84-63-142-142-173-237-16-49-24-103-24-162s13-118 39-178 60-111 103-154 94-77 154-103 123-39 189-39z"/></svg>
