<svg xmlns="http://www.w3.org/2000/svg" viewBox="0 -144 936 1008"><path fill="currentColor" d="M936 498c0 62-11 121-34 177l-11 28-104 18c-16 61-72 107-139 107v18c0 10-8 18-18 18h-36c-10 0-18-8-18-18V522c0-10 8-18 18-18h36c10 0 18 8 18 18v18c54 0 101 30 125 74l39-7c10-35 16-71 16-109 0-170-168-318-360-318S108 328 108 498c0 38 6 74 16 109l39 7c24-44 71-74 125-74v-18c0-10 8-18 18-18h36c10 0 18 8 18 18v324c0 10-8 18-18 18h-36c-10 0-18-8-18-18v-18c-67 0-123-46-139-107L45 703l-11-28C11 619 0 560 0 498 0 267 214 72 468 72s468 195 468 426z"/></svg>
