<svg xmlns="http://www.w3.org/2000/svg" viewBox="0 -144 1008 1008"><path fill="currentColor" d="M801 635h-1c77 0 116-44 116-133s-39-133-116-133c-57 0-114 21-171 64-27 20-50 43-70 69 41 54 93 93 155 116 30 11 59 17 87 17zm-595 0c42 0 85-12 130-37s82-57 112-96c-30-39-67-71-112-96s-88-37-130-37c-77 0-116 44-116 133s39 133 116 133zm516-342l-1-2c27-7 54-11 80-11s51 4 75 12 46 20 66 37 36 40 48 70 18 64 18 103-6 73-18 103-28 53-48 70c-40 33-87 49-141 49-71 0-141-23-210-69-33-22-62-48-88-77-53 61-117 104-191 129-99 33-181 23-246-31-20-17-36-40-48-70S0 542 0 503s6-73 18-103 28-53 48-70c40-33 86-49 139-49s106 13 160 40 100 63 139 108c61-69 134-114 218-136z"/></svg>
