<svg xmlns="http://www.w3.org/2000/svg" viewBox="0 -146 1008 1008"><path fill="currentColor" d="M419 1010h1c-49 0-72-30-70-89 1-24 7-53 15-88l61-257c7-31 11-48 9-52s-5-6-9-6-11 2-21 5-21 7-33 12c-28 12-52 25-72 39l-27-44c61-52 125-94 191-126s117-48 152-48c26 0 42 15 48 45s1 69-12 118l-70 270c-11 43-9 64 6 64 10 0 27-5 50-16s46-26 69-45l30 41c-57 58-116 102-177 132s-108 45-141 45zM529 40v2c24-27 54-40 91-40s64 9 82 28 27 44 27 75-13 59-39 84-56 38-91 38-61-9-79-27-27-42-27-73 12-60 36-87z"/></svg>
