<svg xmlns="http://www.w3.org/2000/svg" viewBox="0 -144 1008 1008"><path fill="currentColor" d="M820 650l-2-1c9 5 15 7 19 5s7-14 8-37-3-56-11-99-22-86-41-130-42-85-68-123-48-66-67-84-31-26-36-24-8 16-9 42 2 61 10 106 20 86 35 122 30 66 45 91 30 46 44 63 27 31 40 43 24 21 33 26zm48-296l-3 1c40 93 63 180 69 260s-7 127-39 140c-21 9-44 6-68-8-11-6-24-13-38-21s-29-17-45-26-35-17-57-24c-50-15-106-19-168-13-18 2-32 8-42 19s-12 23-6 37c2 4 18 40 48 108 3 7 11 15 24 23s21 16 24 23 3 15-1 24-12 16-23 20c-33 12-67 25-103 39-9 3-19 0-30-9s-18-18-22-27-24-56-60-140c-3-8-9-13-18-15s-19-5-31-9-23-12-32-25c-20 6-33 10-38 12-22 9-47 5-74-11s-46-36-57-59-13-50-6-81 22-51 44-60c74-30 138-61 192-93s95-62 123-90 50-56 67-83 28-52 34-75 11-44 15-62 9-34 16-47 18-23 32-29c32-13 76 11 131 71s102 137 142 230z"/></svg>
