<svg xmlns="http://www.w3.org/2000/svg" viewBox="0 -189 1008 1008"><path fill="currentColor" d="M801 49l189 189c12 12 18 26 18 45v599c0 54-40 95-94 95H95c-55 0-95-41-95-95V126c0-54 40-95 95-95h661c19 0 33 6 45 18zm144 234L755 94v126c0 35 30 63 64 63h126zm-32 630c17 0 31-12 31-31V315H818c-54 0-94-40-94-95V94H94c-19 0-32 13-32 32v756c0 19 13 31 32 31h819zM377 441H157c-19 0-32-13-32-32V220c0-17 13-31 32-31h220c19 0 32 14 32 31v189c0 19-13 32-32 32zm110-189c-11 0-16-8-16-16s5-16 16-16h158c11 0 16 8 16 16s-5 16-16 16H487zm-141 0H188v126h158V252zm141 94c-11 0-16-8-16-16 0-7 5-15 16-15h158c11 0 16 8 16 15 0 8-5 16-16 16H487zm0 63h378c11 0 16 8 16 16s-5 16-16 16H487c-11 0-16-8-16-16s5-16 16-16zm378 95c11 0 16 8 16 15 0 8-5 16-16 16H141c-11 0-17-8-17-16 0-7 6-15 17-15h724zm0 94c11 0 16 8 16 16s-5 16-16 16H141c-11 0-17-8-17-16s6-16 17-16h724zm0 95c11 0 16 8 16 15 0 8-5 16-16 16H141c-11 0-17-8-17-16 0-7 6-15 17-15h724zm0 94c11 0 16 8 16 16s-5 16-16 16H141c-11 0-17-8-17-16s6-16 17-16h724z"/></svg>
