<svg xmlns="http://www.w3.org/2000/svg" viewBox="0 -144 1008 1008"><path fill="currentColor" d="M926 477l-25-25c95-95 95-250 0-345s-250-95-345 0L107 556c-95 95-95 250 0 345s250 95 345 0l309-310c70-70 70-183 0-253-33-34-78-52-126-52s-93 18-127 52L292 554c-44 45-44 117 0 162 45 44 117 44 162 0l194-195 26 26-195 194c-58 59-154 59-212 0-59-58-59-154 0-212l216-216c40-41 94-63 152-63 57 0 111 22 152 63 84 84 84 220 0 304L477 926c-54 55-126 82-197 82-72 0-144-27-198-82-109-109-109-286 0-395L531 82C640-27 817-27 926 82s109 286 0 395z"/></svg>
