<svg xmlns="http://www.w3.org/2000/svg" viewBox="0 -144 864 1008"><path fill="currentColor" d="M864 144v252c0 20-16 36-36 36H576c-20 0-36-16-36-36 0-10 4-19 11-25l77-78c-53-49-123-77-196-77-100 0-193 52-245 137-14 22-21 43-30 66-3 8-9 13-17 13H28c-10 0-18-8-18-18v-4C59 210 224 72 432 72c110 0 218 44 298 119l73-72c6-7 15-11 25-11 20 0 36 16 36 36zm-14 450c0 1 0 3-1 4-47 199-212 338-419 338-110 0-216-43-296-119l-73 72c-6 7-15 11-25 11-20 0-36-16-36-36V612c0-20 16-36 36-36h252c20 0 36 16 36 36 0 10-4 19-11 25l-77 77c53 50 123 78 196 78 100 0 193-52 245-137 14-22 21-43 30-66 3-8 8-13 17-13h108c10 0 18 8 18 18z"/></svg>
