<svg xmlns="http://www.w3.org/2000/svg" viewBox="0 -189 927 1008"><path fill="currentColor" d="M179 776l-1-2c-17 0-27-11-27-32V610c0-16 6-27 17-31l168-77c-20-15-37-30-50-57-12-25-17-48-17-71 0-13 2-27 6-40 16-62 62-103 118-103 58 0 104 43 119 105 4 11 6 25 6 40 0 24-5 44-16 67-12 25-28 44-49 59l49 24 116 55c12 5 18 15 18 31v132c0 21-9 32-28 32H179zm747-445c0 11-5 17-17 17H564c-3-5-4-18-4-25-7-27-18-48-35-75h384c12 0 17 6 17 18v65zm-706 43l1-1c0 32 8 62 21 93l10 19-104 47c-31 15-46 42-46 77v111H22c-15 0-22-9-22-26V588c0-11 5-19 14-24l136-63c-36-24-55-58-55-102 0-32 11-61 30-82 17-21 41-34 69-34 15 0 27 3 42 10-3 4-6 11-9 26-4 16-7 35-7 55zm329 88l-1 2c3-3 2-12 5-15h357c12 0 17 6 17 18v65c0 11-5 17-17 17H662c-7-7-14-12-22-16l-104-49c1-7 10-15 13-22zm135 289V651h225c12 0 17 5 17 17v65c0 12-5 18-17 18H684z"/></svg>
