<svg xmlns="http://www.w3.org/2000/svg" viewBox="0 -144 1008 1008"><path fill="currentColor" d="M259 102l-92 101h688l-92-101H259zm248 504l4-1c22 0 43-5 62-14s35-20 48-33 25-29 36-49 20-38 26-54 12-34 17-55c6-25 11-50 15-75h-93c-25 126-63 189-114 189-50 0-88-63-113-189h-93c8 51 17 90 27 116s21 49 32 69 23 36 36 49 29 24 48 33 40 14 62 14zm406-441l3 2c19 16 27 36 24 60-1 9-10 71-26 185s-27 195-34 243-13 92-19 132c-13 90-20 138-21 143s-3 9-6 13c-7 9-16 14-27 14H202c-8 0-15-3-21-8s-10-11-11-18-17-124-49-352-48-346-49-354c-3-24 5-44 24-60 5-4 23-21 55-50s52-47 60-54 25-10 51-10h485c26 0 43 3 51 10s28 25 60 54 50 46 55 50z"/></svg>
