<svg xmlns="http://www.w3.org/2000/svg" viewBox="0 -144 864 1008"><path fill="currentColor" d="M726 368h93v64H555v-64h94V125c0-7 1-15 1-20v-9h-1l-4 6c-3 5-7 11-15 18l-35 32-46-48L657 0h69v368zm110 403c0 114-62 237-196 237-25 0-46-4-61-9-9-3-16-6-23-8l22-64c5 2 11 4 17 6 11 4 26 7 42 7 68 0 103-56 113-114h-1c-15 17-49 28-82 28-81 0-135-64-135-137 0-77 60-141 142-141 90 0 162 73 162 195zm-422 39c0 5-2 10-6 13l-179 180c-4 4-8 5-13 5s-9-1-13-5L23 823c-5-5-7-13-4-20 3-6 10-11 17-11h108V18c0-10 8-18 18-18h108c10 0 18 8 18 18v774h108c10 0 18 8 18 18zm343-71c0-47-38-96-83-96-39 0-64 33-64 74s26 75 80 75c36 0 67-22 67-53z"/></svg>
