<svg xmlns="http://www.w3.org/2000/svg" viewBox="0 -189 1008 1008"><path fill="currentColor" d="M504 819h2c-105 0-201-25-293-83C121 680 53 607 6 519v-2c-1-1-2-3-2-6v-15c0-1 1-1 2-2v-4c47-88 116-159 207-214 92-58 188-85 293-85 103 0 200 27 292 85 94 56 163 127 207 215l2 2v4c3 8 3 8 0 16v4l-2 2c-46 88-114 161-208 217-91 55-187 83-293 83zM255 321c-76 44-139 106-183 182 44 76 107 138 183 182s162 69 250 69c90 0 177-25 253-69s139-106 183-182c-44-76-107-138-183-182s-163-69-253-69c-88 0-174 25-250 69zm251-37c56 0 112 21 156 64 43 44 64 100 64 156s-21 112-64 156c-44 43-100 65-156 65s-112-22-156-65c-43-44-65-100-65-156s22-112 65-156c44-43 100-64 156-64zm0 409c50 0 98-19 134-55s55-84 55-134-19-98-55-134-84-55-134-55-98 19-134 55-55 84-55 134 19 98 55 134 84 55 134 55zm0-315h-1c11 0 16 8 16 15 0 8-5 16-16 16-24 0-47 11-64 27-17 17-29 41-29 68 0 11-8 17-16 17s-16-6-16-17c0-36 14-67 37-90s54-36 89-36z"/></svg>
