<svg xmlns="http://www.w3.org/2000/svg" viewBox="0 -189 1008 1008"><path fill="currentColor" d="M97 718l-3 5c-5-34-6-66 2-125 9-59 44-124 103-175-13 35-12 89 3 131s46 73 92 62c31-7 43-26 54-47 7-13 8-39 7-54 1-9 0-20-3-34l-5-33c-1-7-3-20-6-36-4-17-6-28-7-35-8-47-6-93 7-140 11-46 28-84 50-116 21-31 45-60 74-89 29-28 50-45 61-54 12-9 21-16 29-20-43 127-50 224-31 298s64 122 128 149c11 4 20 6 28 7 40 3 49-40 27-130-12-48-24-84-36-109 92 63 160 141 206 235 48 96 61 190 39 286-16 76-56 139-95 177-19 19-43 37-73 54-29 17-52 30-72 37-19 8-44 18-76 29-68 16-89 8-89-16 3-15 2-19 10-36 8-19 11-24 22-47 25-50 42-89 49-127 9-56 3-107-22-154-24-47-58-93-102-139 11 23 15 67 11 133-4 67-15 118-33 154-19 39-52 91-92 126s-87 53-131 25c-39-24-68-54-89-91-19-35-31-68-37-101z"/></svg>
