<svg xmlns="http://www.w3.org/2000/svg" viewBox="0 0 65.61 71.31"><path d="M45.85 21.95c-.55 0-1 .45-1 1C44.83 32.9 39.43 41 32.81 41c-6.62 0-12.02-8.1-12.04-18.06 0-.55-.45-1-1-1s-1 .45-1 1C18.79 34.01 25.09 43 32.81 43c7.72 0 14.02-9 14.04-20.05 0-.55-.44-1-1-1z"/><path d="M31.83 22.68c.32.01.65 0 .97 0 .33 0 .66.02.97 0 6.17-.04 16.64-.5 17.83-3.04.11-.21.17-.43.17-.72.01-.96-.33-1.8-.98-2.46-.64-.63-1.55-1.03-2.62-1.16v-1.11C48.17 4.88 40.43 0 32.78 0c-3.99 0-7.72 1.25-10.5 3.52-3.17 2.59-4.85 6.28-4.85 10.67v1.11c-1.07.13-1.98.53-2.62 1.16-.67.66-1.01 1.51-.99 2.49 0 .23.06.46.15.64 1.22 2.58 11.69 3.04 17.86 3.09zm-15.61-4.8c.44-.43 1.21-.64 2.18-.62.28.02.53-.09.73-.28.2-.19.31-.45.31-.72v-2.07c0-3.77 1.42-6.93 4.11-9.13 1.54-1.26 3.43-2.16 5.51-2.64v8.54c0 .55.45 1 1 1s1-.45 1-1V2.1c.57-.06 1.14-.1 1.72-.1.59 0 1.18.04 1.77.11v8.86c0 .55.45 1 1 1s1-.45 1-1V2.44c5.12 1.22 9.62 5 9.62 11.75v2.07c0 .27.11.53.31.72s.46.3.73.28c.97-.03 1.74.19 2.18.62.24.24.37.53.39.89-.89.77-6.29 1.84-16.05 1.91h-1.84c-9.79-.07-15.19-1.14-16.05-1.91.01-.35.14-.65.38-.89zM63.33 53.14c-.41-3.11-2.82-4.49-5.35-5.53l-4.08-1.67a.998.998 0 0 0-.54-.06 1.01 1.01 0 0 0-.46-.54l-6.8-3.56a.993.993 0 0 0-.96.02c-.3.17-.49.47-.5.81l-.96 17.09H21.93l-.96-17.09a.992.992 0 0 0-.5-.81c-.3-.17-.66-.17-.96-.02l-6.8 3.56c-.24.13-.41.34-.49.59-.24-.09-.51-.09-.75.01l-3.86 1.67c-.35.15-.72.26-1.11.37-.81.24-1.72.5-2.44 1.26-.95 1.01-1.58 2.39-1.79 3.89L.01 70.18c-.04.29.05.57.24.79.19.22.46.34.75.34h11.71c.12 0 .23-.03.34-.07.11.04.22.07.34.07h38.83c.08 0 .15-.03.23-.05.08.02.15.05.23.05h11.93a1.001 1.001 0 0 0 .99-1.13l-2.27-17.04zM2.14 69.31L4.26 53.4c.15-1.09.59-2.08 1.26-2.78.34-.36.87-.52 1.54-.71.41-.12.87-.25 1.34-.46l2.51-1.09.75 20.95H2.14zm11.5-22.19l5.42-2.84.93 16.48c.03.53.47.94 1 .94h23.64c.53 0 .97-.41 1-.94l.93-16.48 5.43 2.84c.17.09.36.11.54.09l-.79 22.1H13.67l-.79-22.12c.24.07.52.05.76-.07zm40.08 22.19l.75-20.98 2.75 1.13c2.35.96 3.86 1.96 4.12 3.94l2.12 15.91h-9.74z"/></svg>
