<svg xmlns="http://www.w3.org/2000/svg" viewBox="0 0 150.13 171.74"><style>.st0{fill:#510303}</style><path class="st0" d="M147.97 61.99h2.17l-2.17-1.52v-.54h-.76l-22.5-15.79-22.41-.17-.07-.08-.09.08-77.66-.58L2.7 59.93h-1v.76L0 61.99h1.71v6.14h12.77v103.48h4.83v.12H132.6v-.12h5.08V68.13h10.29v-6.14zm-47.67-2.06l-5.25-14.01 6.33.05 12.22 13.96h-13.3zm-2.13 0H87.4l-1.76-14.08 7.27.05 5.26 14.03zm-12.79 0H73.43l-.89-14.18 11.08.08 1.76 14.1zm-13.95 0H59.51l.89-14.27 10.14.08.89 14.19zm-13.92 0H43.77l5.38-14.36 9.25.07-.89 14.29zm-15.88 0H25.26L37 45.48l10.02.08-5.39 14.37zm102.09 0h-11.74l.12-.15-16.45-13.71 8.4.06 19.67 13.8zm-30.67-13.88l-.22.26 16.33 13.61h-12.99l.04-.04-12.17-13.91 9.01.08zm-87.91-.66l9.3.07-11.75 14.46.01.01H6.01l19.13-14.54zm-8.67 124.22V68.13h2.96v49.86c-.06.29-.1.57-.12.82v24.5l-1.41 1.41h1.41v24.89h-2.84zm114.25-28.28l-10.84-11.5h-87.1l-11.35 11.35v-23c.34-1.41 1.59-4.45 6.06-4.45h96.36c.28.02 6.87.51 6.87 5.08v22.52zm-97.11-9.5h85.41l10.26 10.89H22.72l10.89-10.89zm97.11-17.5c-1.95-1.76-4.89-2.48-6.81-2.6H27.5c-2.85 0-4.79 1.03-6.06 2.38V68.48l11.2 4.48 10.1.09v.96c-3.91.49-6.94 3.83-6.94 7.87 0 3.15 1.85 5.87 4.51 7.15.98.65 2.16 1.04 3.43 1.04s2.44-.38 3.43-1.04c2.67-1.28 4.51-4 4.51-7.15 0-4.04-3.03-7.38-6.94-7.87v-.94l31.46.27v.67c-3.91.49-6.94 3.83-6.94 7.87 0 3.15 1.85 5.87 4.51 7.15.98.65 2.16 1.04 3.43 1.04s2.44-.38 3.43-1.04c2.66-1.28 4.51-4 4.51-7.15 0-4.04-3.03-7.38-6.94-7.87v-.66l31.46.27v.39c-3.91.49-6.94 3.83-6.94 7.87 0 3.15 1.85 5.87 4.51 7.15.98.65 2.16 1.04 3.43 1.04s2.44-.38 3.43-1.04c2.67-1.28 4.51-4 4.51-7.15 0-4.04-3.03-7.38-6.94-7.87v-.37l8.39.07 10.67-5.12v45.74zm-52.53-46.2h31.46v3.49l-31.46-.27v-3.22zm-2 3.2l-31.46-.27v-2.94h31.46v3.21zm35.47-3.2h15.41l-7.46 3.58-7.95-.07v-3.51zm-68.93 0v2.92l-9.71-.08-7.09-2.83h16.8zm1 19.69c-.85 0-1.66-.18-2.39-.51a4.202 4.202 0 0 1-1.81-3.45c0-2.32 1.89-4.21 4.21-4.21s4.21 1.89 4.21 4.21c0 1.43-.72 2.69-1.81 3.45-.75.32-1.56.51-2.41.51zm5.93-5.78c-.78-2.54-3.14-4.39-5.93-4.39s-5.15 1.85-5.93 4.39c0-.06-.01-.11-.01-.16 0-3.28 2.67-5.94 5.94-5.94s5.94 2.67 5.94 5.94c0 .05 0 .11-.01.16zm27.53 5.78c-.85 0-1.66-.18-2.39-.51a4.202 4.202 0 0 1-1.81-3.45c0-2.32 1.89-4.21 4.21-4.21s4.21 1.89 4.21 4.21c0 1.43-.72 2.69-1.81 3.45-.75.32-1.55.51-2.41.51zm5.94-5.78c-.78-2.54-3.14-4.39-5.93-4.39-2.79 0-5.15 1.85-5.93 4.39 0-.05-.01-.11-.01-.16 0-3.28 2.66-5.94 5.94-5.94s5.94 2.67 5.94 5.94c-.01.05-.01.1-.01.16zm27.53 5.78c-.85 0-1.66-.18-2.4-.51a4.202 4.202 0 0 1-1.81-3.45c0-2.32 1.89-4.21 4.21-4.21s4.21 1.89 4.21 4.21c0 1.43-.72 2.69-1.81 3.45-.74.32-1.55.51-2.4.51zm5.93-5.78c-.78-2.54-3.14-4.39-5.93-4.39-2.79 0-5.15 1.85-5.93 4.39 0-.05-.01-.11-.01-.16 0-3.28 2.67-5.94 5.94-5.94s5.94 2.67 5.94 5.94c0 .05-.01.11-.01.16zm14.01 87.7H21.43v-25.02H130.6v25.02zm5.08-.13h-2.96v-24.89h1.19l-1.19-1.27V68.13h2.96v101.48zm2-103.48V66H14.48v.12H3.71v-4.14h142.26v4.14h-8.29zM77.63 0h2v27.65h-2zM102.876 27.095l12.148-18.293 1.666 1.106-12.148 18.293zM40.564 9.904l1.667-1.106 12.143 18.297-1.666 1.106z"/></svg>
