<svg xmlns="http://www.w3.org/2000/svg" viewBox="0 -168 1008 1008"><path fill="currentColor" d="M504 304c89 0 158 67 159 160-5 65-34 125-80 183-46 56-73 86-79 88-6-2-34-31-81-88-46-57-73-118-78-183 2-93 70-160 159-160zm0 223c83 0 83-132 0-126-83-6-83 126 0 126zm0-441c120 0 219 43 297 122 79 78 122 177 122 297s-43 219-122 297c-78 79-177 122-297 122s-219-43-297-122C128 724 85 625 85 505s43-219 122-297c78-79 177-122 297-122zm0 756c96 0 175-36 238-99s99-142 99-238-36-175-99-238-142-99-238-99-175 36-238 99-99 142-99 238 36 175 99 238 142 99 238 99z"/></svg>
