<svg xmlns="http://www.w3.org/2000/svg" viewBox="-34 -189 1008 1008"><path fill="currentColor" d="M-4 838l3-3c-27-44-37-92-30-146 8-53 30-98 68-137l431-430c40-40 71-66 93-79C611 12 665-3 726-3c45 0 87 9 128 28 88 42 147 117 164 216 20 105-13 210-89 285L495 955l-58-50-6-6 213-215 211-209c52-51 77-105 82-161 4-54-10-103-43-147-34-44-77-70-130-79-13-2-27-3-41-3-31 0-61 7-90 22s-52 30-70 46c-17 15-40 37-69 66L202 511c-11 11-24 22-37 35l-47 45c-11 11-22 24-37 43-27 36-35 69-28 108 11 72 68 109 130 109 41 0 76-15 105-44l460-459c20-21 26-42 17-63s-24-31-45-31c-15 0-29 8-42 20-11 9-21 20-33 32L329 619l-58-56 6-6 326-333c39-40 72-57 123-57 5 0 13 1 24 2 50 9 83 38 99 88 16 54 2 113-37 152L481 740c-11 9-26 27-49 51-23 25-39 41-51 53-12 13-26 26-43 39-19 15-36 24-55 33-31 16-64 24-100 24-79 0-148-38-187-102z"/></svg>
