<svg xmlns="http://www.w3.org/2000/svg" viewBox="0 0 51.35 45.28"><path d="M51.26 23c-.14 1.83-.59 3.59-1.29 5.29-1.37 3.33-3.54 6.07-6.32 8.35a25.764 25.764 0 0 1-5.26 3.32 28.182 28.182 0 0 1-6.58 2.19c-.91.18-1.82.37-2.74.43-.6.04-1.2.12-1.81.15-1.57.07-3.14.04-4.7-.12-.4-.04-.81-.09-1.21-.16-.69-.12-1.39-.24-2.08-.38-.48-.1-.95-.23-1.43-.34-.31-.07-.61-.16-.92-.21-.67-.11-1.27.09-1.85.42-1.53.89-3.07 1.77-4.61 2.66-.35.2-.68.42-1.04.59-.6.29-1.25-.18-1.21-.84.01-.1.03-.2.06-.3.16-.61.34-1.22.5-1.84.26-.99.53-1.98.78-2.97.14-.55-.04-1.04-.41-1.45-.14-.15-.32-.27-.49-.4-1.67-1.25-3.16-2.67-4.45-4.31-1.76-2.24-3.02-4.72-3.69-7.5-.16-.67-.31-1.35-.34-2.06-.02-.52-.13-1.04-.15-1.57-.06-1.13.05-2.24.22-3.36.41-2.72 1.43-5.21 2.94-7.49C5.05 8.25 7.5 6 10.39 4.21c2.52-1.56 5.22-2.67 8.1-3.36C19.55.6 20.6.36 21.69.29c.45-.03.89-.13 1.34-.18.56-.05 1.12-.09 1.69-.1 1.64-.05 3.27.03 4.9.24 1.51.19 2.99.5 4.45.92 2.56.75 4.98 1.82 7.23 3.26 2.09 1.34 3.96 2.95 5.54 4.87 1.68 2.03 2.93 4.29 3.71 6.81.33 1.06.54 2.14.68 3.24.09.67.08 1.35.11 2.06-.02.51-.04 1.06-.08 1.59zm-14.98 1.04a3.373 3.373 0 0 0 3.36-3.42c-.01-2.02-1.64-3.42-3.44-3.39-2.01.03-3.4 1.69-3.37 3.44 0 1.88 1.54 3.38 3.45 3.37zm-17.76-3.43c-.01-2.01-1.61-3.39-3.42-3.39-1.89 0-3.41 1.55-3.39 3.44.02 1.99 1.64 3.39 3.43 3.37 1.79-.01 3.4-1.4 3.38-3.42zm10.56 0c-.01-2.01-1.61-3.39-3.42-3.39-1.89 0-3.41 1.55-3.39 3.44.02 1.99 1.64 3.39 3.43 3.37 1.78-.01 3.39-1.4 3.38-3.42z" fill="#2dc100"/></svg>
