<svg xmlns="http://www.w3.org/2000/svg" viewBox="-4 -194 1260 1008"><path fill="currentColor" d="M799 525h284v-24L886 304h-87v221zm134 401l-8 8c53 0 97-43 97-96s-42-97-93-97-92 42-92 93 43 92 96 92zm-622-8l-8 8c53 0 97-43 97-96s-42-97-93-97-92 42-92 93 43 92 96 92zm886-224h32l-4 4c17 0 31 14 31 31v63c0 18-14 32-31 32h-95c0 104-85 189-189 189s-189-85-189-189H500c0 104-85 189-189 189s-189-85-189-189V572h299c8 0 16-8 16-16v-31c0-8-8-16-16-16H12c-8 0-16-8-16-16v-31c0-8 8-16 16-16h472c8 0 16-8 16-16v-31c0-8-8-16-16-16H75c-8 0-16-8-16-16v-31c0-8 8-16 16-16h472c8 0 16-8 16-16v-31c0-8-8-16-16-16H12c-8 0-16-8-16-16v-31c0-8 8-16 16-16h110V99c0-53 43-96 97-96h504c53 0 96 41 96 92v95h87c25 0 49 10 67 28l196 196c18 18 28 42 28 67v213z"/></svg>
