<svg xmlns="http://www.w3.org/2000/svg" viewBox="0 0 50.11 50.11" overflow="visible"><style>.st0{fill:#040000}</style><path class="st0" d="M49.94 14.73c-.17-4-1.1-7.6-4.06-10.5-2.9-2.96-6.5-3.89-10.5-4.06C31.96 0 28.54 0 25.06 0c-3.48 0-6.9 0-10.32.17-4 .17-7.6 1.1-10.5 4.06-2.96 2.9-3.89 6.5-4.06 10.5C0 18.15 0 21.58 0 25.06c0 3.48 0 6.9.17 10.32.17 4 1.1 7.6 4.06 10.5 2.9 2.96 6.5 3.89 10.5 4.06 3.42.17 6.84.17 10.32.17 3.48 0 6.9 0 10.32-.17 4-.17 7.6-1.1 10.5-4.06 2.96-2.9 3.89-6.5 4.06-10.5.17-3.42.17-6.84.17-10.32.01-3.48.01-6.91-.16-10.33zM44.6 39.85c-.46 1.16-.99 1.97-1.91 2.84-.87.87-1.68 1.45-2.84 1.91-3.31 1.28-11.14.99-14.79.99-3.65 0-11.48.29-14.79-.99-1.16-.46-1.97-1.04-2.84-1.91-.87-.87-1.45-1.68-1.91-2.84-1.28-3.31-.99-11.14-.99-14.79s-.3-11.49.98-14.79c.46-1.16 1.04-1.97 1.91-2.84.87-.87 1.68-1.45 2.84-1.91 3.31-1.28 11.14-.99 14.79-.99 3.65 0 11.48-.29 14.79.99 1.16.46 1.97 1.04 2.84 1.91.93.87 1.45 1.68 1.91 2.84 1.28 3.31.99 11.14.99 14.79s.3 11.48-.98 14.79z"/><path class="st0" d="M27.56 16.8v4.38h-4.68v5.52h4.68v13.9h5.7V26.7h4.47l.74-5.52h-5.15v-3.82c0-1.57.4-2.68 2.71-2.68v-.06h2.93v-4.9c-.49-.06-2.25-.18-4.25-.18-4.26-.01-7.15 2.54-7.15 7.26z"/></svg>
