<svg xmlns="http://www.w3.org/2000/svg" viewBox="-2 -189 1008 1008"><path fill="currentColor" d="M882 504v-2c43 0 63-16 63-45v-22c0-25-12-41-37-46-29-8-142-12-340-12 15-40 23-67 24-84 5-17 6-42 6-80 0-39-14-76-33-104s-41-46-60-46c-20 0-31 10-31 31-1 63-15 123-46 175s-78 95-144 123c-1 0-2 1-3 1 0 0-1 1-2 1-19 7-26 15-26 34v435c0 17 9 26 28 27l145 35c60 15 115 20 174 20h173c28 0 46-9 57-28l8-23c8-16-1-44-32-44h-49c-11 0-17-8-17-15 0-8 6-16 17-16h51c34-4 51-9 63-20 11-9 15-22 20-41 13-44 2-65-40-65h-63c-11 0-17-8-17-16s6-16 17-16h74c39 0 61-22 69-66 3-31-9-60-51-60h-61c-11 0-17-8-17-16 0-7 6-15 17-15h63zM189 943c19 0 32-13 32-32V407c0-17-13-31-32-31H95c-19 0-32 14-32 31v504c0 19 13 32 32 32h94zm-79-111c16-17 43-22 64-1s16 48 0 65c-17 16-45 22-66 1s-15-49 2-65zm32 49c8 0 16-6 16-17s-8-16-16-16-16 5-16 16 8 17 16 17zm47 125l-96 1c-55 0-95-40-95-95V408c0-54 40-94 95-94h94c23 0 44 9 63 26l-2-2 34-16c84-40 123-119 126-229 0-54 40-94 94-94 38 0 73 21 107 65 34 42 51 91 51 149 0 46-1 78-8 105 161 4 248 7 267 14 58 16 89 64 89 106v24c0 25-9 47-28 68 12 21 16 45 12 73-5 39-18 64-41 87 11 25 11 52 0 84-12 39-29 67-53 82 7 19 7 38 0 55-4 12-9 23-14 34-21 42-58 61-112 61H599c-63 0-124-7-188-22l-127-29h-2c0-3-5-2-8-2v-2c-17 38-46 55-85 55z"/></svg>
