<svg xmlns="http://www.w3.org/2000/svg" viewBox="0 -192 1134 1008"><path fill="currentColor" d="M752 130l-1 2c87 86 130 189 130 311 0 71-17 141-55 209 9 5 16 9 20 14l126 126c20 20 38 61 38 90 0 36-14 68-37 92-24 23-56 37-92 37-29 0-70-18-90-38L665 847l-15-17c-66 35-134 52-209 52-123 0-226-43-312-129S0 564 0 441s43-225 129-311C216 43 319 0 441 0s225 43 311 130zM217 666c62 62 136 92 223 92 90 0 164-31 224-91 62-60 91-134 91-224 0-88-30-161-92-223s-135-92-223-92c-87 0-161 30-223 92s-92 135-92 223c0 87 30 161 92 223z"/></svg>
