<svg xmlns="http://www.w3.org/2000/svg" viewBox="0 -201 1008 1008"><path fill="currentColor" d="M287 360c0 60 21 110 63 152s92 63 152 63 110-21 152-63c43-43 64-93 64-153s-21-110-64-152c-42-42-92-63-152-63s-110 21-152 63c-42 44-63 94-63 153zm-163 22l2 2c0-70 17-134 51-194S257 82 315 46C374 9 437-9 506-9S638 8 697 44c58 36 103 83 137 143 68 119 71 252-11 421-42 64-87 129-141 199-52 68-94 121-126 157l-48 56c-6-5-13-12-22-22l-57-59c-28-29-53-60-80-91s-55-70-89-116c-32-44-58-87-83-130-36-79-53-152-53-220z"/></svg>
