<svg xmlns="http://www.w3.org/2000/svg" viewBox="-1 -202 799 1008"><path fill="currentColor" d="M476 156l-1-3c38-38 83-56 134-56 52 0 96 18 134 57 38 38 56 82 56 134 0 15-2 32-7 51 13 42 5 78-26 109L578 638c-21 20-45 30-74 30h-3l-91 91c-16 16-37 29-62 40-7 3-102 34-292 98-7 1-11 2-14 2-28 0-49-27-40-55 64-189 95-284 98-291 11-25 24-46 41-63zM340 704l9-8 102-102c-17-24-15-56 8-77l155-155-115-115-299 300-8 9zm265-522h-1c-28 1-56 12-77 33l115 115c21-21 43-27 68-19 3-8 3-17 3-25 0-29-11-54-32-74s-48-30-76-30zM501 581l1-1c7 0 11-2 15-6l189-189c9-9 9-18-2-27-9-11-18-12-29-1L486 545c-13 13-2 36 15 36zM214 752l-1-1c23-7 52-17 86-30L171 593l-12 36c-7 19-12 36-17 51zm-109 34l63-21-42-42z"/></svg>
