<svg xmlns="http://www.w3.org/2000/svg" viewBox="0 0 109.86 50.22" overflow="visible"><path d="M101.02 12.18c-6.2 1.94-8.89 6.25-9.58 11.77-4.61 0-8.89-.06-13.17.01-8.23.14-8.23.17-9.71 8.15-.16-.04-.44-.04-.45-.11-1.72-7.92-1.72-7.92-10.43-8.07-1.33-.02-2.67-.08-3.99.01-3.15.21-6.84-.41-9.25 1.05-1.9 1.15-2.22 4.91-3.23 7.49-.06-.04-.51-.15-.53-.33-1.12-8.04-1.11-8.06-9.67-8.2-3.81-.06-7.63-.01-11.96-.01-.5-5.63-3.43-9.76-9.07-11.5C11.88 5.74 18.55.28 26 .19 45.46-.05 64.95-.08 84.42.2c7.66.12 12.83 4.72 16.6 11.98z"/><path d="M15.28 36.61h79.98V24.2c.01-4.33 2.49-7.28 6.37-7.7 2.31-.25 5.81 1.3 7.13 3.19 2.13 3.05.98 6.58-1.67 9.49-.96 1.06-1.64 2.76-1.69 4.2-.2 5.28-.08 10.58-.08 16.06-4.98.17-9.01 2.15-12.54-1.81-.85-.96-3.12-.9-4.73-.89-20.82.1-41.64.26-62.46.44-3.72.03-7.26-.34-10.81 2.33-1.9 1.43-5.76.25-9.47.25 0-5.17.18-10.28-.1-15.37-.09-1.69-1.02-3.63-2.17-4.9-2.46-2.71-4.3-5.84-1.9-8.85 1.71-2.14 5.09-4.2 7.63-4.1 3.45.15 6.38 2.85 6.49 7.02.1 4.15.02 8.3.02 13.05z"/></svg>
