<svg xmlns="http://www.w3.org/2000/svg" viewBox="0 -189 1008 1008"><path fill="currentColor" d="M252 1008h4c-36 0-67-13-90-36s-36-54-36-90V346c-34 0-64-28-64-63v-68c0-25 12-46 29-62s40-26 65-26h94V95c0-54 40-94 95-94h315c54 0 94 40 94 94v32h95c24 0 47 10 64 26s29 37 29 62v68c0 35-30 63-64 63v536c0 36-13 67-36 90s-54 36-90 36H252zm99-945c-19 0-32 14-32 31v32h378V94c0-17-14-31-31-31H351zm535 220v-63c0-17-14-31-31-31H162c-19 0-32 14-32 31v63h756zM760 945h-2c34 0 64-30 64-64V345H192v536c0 34 30 64 64 64h504zm-33-63h-63c-19 0-32-13-32-32V441c0-19 13-32 32-32h63c17 0 31 13 31 32v409c0 19-14 32-31 32zm-189 0h-63c-19 0-32-13-32-32V441c0-19 13-32 32-32h63c17 0 31 13 31 32v409c0 19-14 32-31 32zm-189 0h-63c-19 0-32-13-32-32V441c0-19 13-32 32-32h63c17 0 31 13 31 32v409c0 19-14 32-31 32zm378-441h-63v409h63V441zm-189 0h-63v409h63V441zm-189 0h-63v409h63V441z"/></svg>
