<svg xmlns="http://www.w3.org/2000/svg" viewBox="0 0 175.48 165.16" overflow="visible"><path d="M175.19 68.81a19.46 19.46 0 0 0-11.37-17.52l-7.4-3.39-11.01 20.12-2.37-14.52 3.13-5.96h-8.24l3.13 5.96-2.18 13.36-11.1-18.68-10.03 4.93a19.508 19.508 0 0 0-6.85 5.61l-10.27 13.36-25.3-14.7c-3.98 5.4-2.96 12.99 2.31 17.14l19.7 15.54a8.761 8.761 0 0 0 10.92-1.02l12.44-11.93c.07 2.52-.55 88.05-.55 88.05h45.61v-55.68l9.72-11.27-.29-29.4zM45.31 90.5c10.23 0 18.52-6.21 18.52-23.58 0-17.37-8.29-23.58-18.52-23.58s-18.52 6.21-18.52 23.58c0 17.37 8.29 23.58 18.52 23.58zM141.06 41.13c8.92 0 16.15-5.42 16.15-20.56S149.98 0 141.06 0c-8.92 0-16.15 5.42-16.15 20.56 0 15.15 7.23 20.57 16.15 20.57zM70.91 102.93c-1.88-.71-5.24-1.8-8.47-2.81-5.68-1.78-11.43-2.66-17.13-2.66s-11.45.89-17.13 2.66c-3.24 1.01-6.6 2.1-8.47 2.81-4.64 1.76-8.37 5.34-9.49 9.03-1.16 3.81-7.69 25.31-10.22 33.65h21.14v.22h48.32v-.22h21.15c-2.53-8.34-9.06-29.84-10.21-33.65-1.12-3.69-4.86-7.27-9.49-9.03z"/></svg>
