<svg xmlns="http://www.w3.org/2000/svg" viewBox="0 0 44.03 44.83" overflow="visible"><path d="M3.87 27.48L.05 9.74c-.13-.58 0-1.11.4-1.56.31-.49.8-.71 1.47-.71H35.4l1.42-6.05C37 .53 37.8 0 38.65 0h3.51c1.02 0 1.87.8 1.87 1.87s-.84 1.87-1.87 1.87h-2l-7.52 35.89c-.04.13-.09.22-.22.4-.18.31-1.07 1.07-1.96 1.07H29.3v1.87c0 1.02-.8 1.87-1.87 1.87s-1.87-.84-1.87-1.87V41.1H14.37v1.87c0 1.02-.8 1.87-1.87 1.87s-1.87-.84-1.87-1.87V41.1H8.77c-1.07 0-1.87-.84-1.87-1.87 0-1.07.8-1.87 1.87-1.87h19.97l1.82-7.47H6.9c-1.6-.01-2.8-1.3-3.03-2.41z" fill="#69533b"/></svg>
