<svg xmlns="http://www.w3.org/2000/svg" viewBox="0 0 369.33 264.62"><style>.st0{fill:#fff}</style><path class="st0" d="M354.07 239.27V119.68c0-6.99-5.69-12.67-12.67-12.67H227.59c-.73-26.03-23.63-47.68-54.11-51.17C170.29 24.39 143.22 0 111.13 0 76.56 0 48.44 27.86 48.44 62.1c0 .84.02 1.71.07 2.67C23.06 71.46 6.08 89.75 6.08 110.7c0 2.47.25 4.93.73 7.35H2.92c-1.61 0-2.92 1.54-2.92 3.42V256.2c0 1.88 1.32 3.42 2.92 3.42h59.33c1.61 0 2.92-1.54 2.92-3.42V136.81h7.07V256.2c0 1.88 1.32 3.42 2.92 3.42h59.33c1.08 0 2.01-.7 2.52-1.71 4.14 4.14 9.86 6.71 16.16 6.71h193.31c12.6 0 22.85-10.25 22.85-22.85v-2.5h-15.26zm-5-119.59v119.59h-74.84l-5.09 5.09h-38.63l-5.09-5.09h-74.84V119.68c0-4.23 3.44-7.67 7.67-7.67H341.4c4.23-.01 7.67 3.44 7.67 7.67zm-211.65 17.13h8.17v102.45h-8.17V136.81zm-81.16 22.57H8.08v-12.69h48.18v12.69zm0-18.22H8.08v-12.69h48.18v12.69zm15.99-19.69v11.34h-7.07v-11.34c0-1.88-1.32-3.42-2.92-3.42H10.89c-.54-2.42-.81-4.88-.81-7.35 0-19.51 16.48-36.57 41-42.46l1.65-.39-.12-1.69a57.06 57.06 0 0 1-.16-4.07C52.44 30.06 78.77 4 111.13 4c30.58 0 56.28 23.63 58.51 53.8l.13 1.69 1.69.16c29.24 2.69 51.39 22.94 52.15 47.36h-65.33c-6.99 0-12.67 5.69-12.67 12.67v13.14h-8.17v-11.34c0-1.88-1.32-3.42-2.92-3.42H75.17c-1.61-.01-2.92 1.53-2.92 3.41zm56.26 37.91H80.32v-12.69h48.18v12.69zm0-18.22H80.32v-12.69h48.18v12.69zm217.97 118.46H153.17c-6.82 0-12.75-3.85-15.75-9.48v-5.87h85.94l5.09 5.09h42.77l5.09-5.09h87.86c-1.23 8.66-8.69 15.35-17.69 15.35z"/><path class="st0" d="M143.53 58.67c.49.49 1.13.73 1.77.73s1.28-.24 1.77-.73c.98-.98.98-2.56 0-3.54-36.48-36.48-74.91-.41-75.29-.04-1 .96-1.03 2.54-.07 3.53.95 1 2.54 1.03 3.53.08.09-.08 9.02-8.53 21.91-12.67 16.95-5.43 32.56-1.18 46.38 12.64z"/><path class="st0" d="M135.43 72.19c.49.49 1.13.73 1.77.73a2.499 2.499 0 0 0 1.77-4.27c-28.64-28.61-58.8-.32-59.1-.04a2.496 2.496 0 1 0 3.45 3.61c1.09-1.03 26.97-25.15 52.11-.03zM90.54 82.38a2.496 2.496 0 1 0 3.45 3.61c.64-.61 15.95-14.84 30.76-.04.49.49 1.13.73 1.77.73s1.28-.24 1.77-.73c.98-.98.97-2.56 0-3.54-18.3-18.28-37.56-.22-37.75-.03zM109.4 90.37c-3.51 0-6.36 2.85-6.36 6.36s2.85 6.36 6.36 6.36 6.36-2.85 6.36-6.36-2.85-6.36-6.36-6.36z"/></svg>
