<svg xmlns="http://www.w3.org/2000/svg" viewBox="0 0 39 36.83"><style>.st0{fill:#fff}</style><path class="st0" d="M.32 32.43c-.46-.49-.42-1.26.09-1.7l10.44-9.23c.5-.44 1.29-.41 1.74.08l3.73 4.01c.46.49.42 1.25-.09 1.7L5.79 36.52c-.5.44-1.29.41-1.74-.08L.32 32.43zM25.33 0c1.48 0 2.99.24 4.47.73 7.13 2.4 10.91 9.98 8.44 16.92-1.95 5.5-7.25 8.96-12.91 8.96-1.48 0-2.99-.24-4.47-.74-7.13-2.4-10.91-9.98-8.44-16.92C14.38 3.45 19.67 0 25.33 0m0 3.61c-4.24 0-8.02 2.62-9.41 6.53-.87 2.45-.71 5.08.45 7.41s3.19 4.08 5.7 4.93c1.06.36 2.15.54 3.26.54 4.24 0 8.02-2.62 9.41-6.53.87-2.45.71-5.08-.45-7.41S31.1 5 28.59 4.15c-1.05-.36-2.15-.54-3.26-.54z"/></svg>
