<svg xmlns="http://www.w3.org/2000/svg" viewBox="0 0 807.69 758.39" overflow="visible"><style>.st0{fill:#fff}</style><path class="st0" d="M504.28 615.02c-3.8-10.06-9.78-18.48-18.6-24.85-13.17-9.5-27.97-15-43.81-17.63-24.29-4.03-48.87-4.28-73.4-4.55-17.46-.19-31.82 6.65-42.8 20.61-5.3 6.74-11.41 12.84-17.46 19.58-65.98-28.62-116.44-74.59-150.59-138.11.34-.64.37-.81.46-.87.94-.51 1.88-1.02 2.84-1.48 12.69-5.93 23.32-14.46 32.04-25.39 7.06-8.85 11.68-18.79 9.77-30.27-3.31-19.91-6.81-39.82-11.19-59.52-5.54-24.89-15.46-48.15-29.74-69.33-6.27-9.29-14.89-14.91-26.85-14.33-11.71.57-23.47.24-35.17.93-13.53.8-26.74 3.35-38.77 10.13-10.11 5.71-18.54 13.41-25.88 22.33-8.81 10.7-18.31 20.93-24.48 33.54-11.16 22.79-12.81 46.82-8.36 71.37 5.98 32.99 16.03 64.77 29.71 95.4 12.14 27.17 26.87 52.85 44.3 76.94 22.24 30.73 48.05 58.14 77.44 82.16 26.52 21.68 55.17 40.01 86 54.94 32.4 15.69 66.19 27.38 101.54 34.22 23.93 4.63 47.92 9.38 72.54 6.81 20.52-2.14 39.78-8.2 55.46-21.99 10.69-9.4 20.36-20.02 29.96-30.57 7.19-7.91 12.02-17.4 12.71-28.27.46-7.23-.04-14.54-.49-21.79-.83-13.6-2.31-27.13-7.18-40.01zM650.48 320.89c2.4 6.53 4.64 13.15 6.68 19.87 10.37 34.18 15.45 69.11 15.82 104.78.18 17.56 12.79 30.54 29.58 30.33 16.91-.21 29.66-13.27 29.29-30.73-.3-14.14-.75-28.32-2.22-42.37-2.59-24.84-7.25-49.32-14.25-73.38-1.68-5.76-3.47-11.46-5.36-17.1-16.92 5.64-35.01 8.7-53.82 8.7-1.92 0-3.82-.03-5.72-.1zM505.2 71.84c-56.87-29.91-117.53-45.8-181.74-48.33-5 0-10-.12-14.99.02-16.25.46-29.14 13.63-29.08 29.6.06 15.97 12.53 28.65 28.72 29.35 12.13.53 24.27.89 36.36 1.88 24.78 2.05 49.11 7.01 72.75 14.47a362.403 362.403 0 0 1 65.95 28.26c1.43.79 2.83 1.61 4.25 2.41 2.58-20.54 8.82-39.94 18.05-57.53-.09-.03-.18-.08-.27-.13zM553.2 458.55c.4 6.81.15 13.75 1.42 20.4 2.71 14.25 16.44 23.86 30.58 22.19 14.92-1.76 25.49-13.64 25.42-29.08-.1-20.18-1.81-40.21-5.69-60.06-7.63-39.08-21.48-75.3-41.95-108.66l-53.17 22.2c25.93 39 40.47 83.32 43.39 133.01zM509.46 236.88c-2.85-2.73-5.73-5.43-8.69-8.06-37.7-33.48-80.95-56.99-129.55-70.47-24.14-6.69-48.75-10.68-73.84-11.61-4.66 0-9.34-.26-13.98.05-12.06.82-20.97 6.67-25.27 18.05-7.37 19.46 5.9 37.62 27.05 38.82 17.42.99 35.01 2.02 52.08 5.32 50.4 9.75 94.45 32.63 131.63 68.09 9.21 8.79 17.67 17.93 25.4 27.42l22.98-55.53c-2.78-3.91-5.38-7.94-7.81-12.08zM305.72 321.54c53.09 10.01 92.95 38.93 119.49 85.82 14.29 25.23 20.99 52.69 21.04 81.75.02 12.04 9.05 22.51 20.45 24.2 12.45 1.84 23.86-4.68 27.34-16.52 1.56-5.3 1.4-11.1 2.02-16.67-2.76-43.63-15.78-83.55-41.68-118.66-44.11-59.79-103.61-90.51-178.01-91.88-14.16-.26-24.93 10.5-25.1 24.3-.17 13.63 10.58 24.13 24.7 24.83 9.95.47 20 .99 29.75 2.83z"/><path class="st0" d="M655.89 0C572.06 0 504.1 67.96 504.1 151.79c0 32.6 10.31 62.78 27.8 87.51l-32.8 79.27 82.48-34.44c21.97 12.36 47.31 19.45 74.31 19.45 83.83 0 151.79-67.96 151.79-151.79C807.69 67.96 739.73 0 655.89 0zm-49.41 199.32c-5.46 5.88-12.18 8.82-20.16 8.82-10.34 0-18.72-4.9-25.14-14.69-6.42-9.79-9.64-23.65-9.64-41.57 0-16.59 2.81-29.61 8.42-39.06 5.61-9.45 12.58-14.18 20.89-14.18 5.76 0 10.8 2.98 15.14 8.93h.3v-7.31h16.91v35.88h-16.91c-.89-13.14-4.06-19.71-9.52-19.71-3.64 0-5.81 2.64-6.5 7.91-.69 5.27-1.03 14.41-1.03 27.42 0 15.86.53 26.26 1.59 31.19s3.43 7.39 7.13 7.39c2.9 0 5.03-1.74 6.39-5.22 1.35-3.48 2.25-8.88 2.7-16.19l19.34 5.76c-1.15 10.54-4.45 18.75-9.91 24.63zm91.33-59.84h-15.87v-23.33H673v74.42h8.56v15.87h-42.45v-15.87h8.64v-74.42h-8.93v23.33h-15.87v-39.21h74.87v39.21zm52.72-23.33H739.6v74.42h10.93v15.87h-46.44v-15.87h10.26v-74.42h-10.26v-15.87h46.44v15.87z"/></svg>
