<svg xmlns="http://www.w3.org/2000/svg" viewBox="0 -144 1008 1008"><path fill="currentColor" d="M691 697c87-64 149-108 194-142 8-6 9-16 3-25l-21-29c-6-8-17-9-25-3-45 33-106 77-193 140-35 26-98 82-145 82s-110-56-145-82c-87-63-148-107-192-140-9-6-20-5-26 3l-21 29c-6 9-5 19 3 25 45 34 106 78 194 142 44 32 113 95 187 95s145-65 187-95zm317-329v550c0 49-40 90-90 90H90c-50 0-90-41-90-90V368c0-5 2-10 6-14 59-51 60-58 353-272 36-26 98-82 145-82s110 57 145 82c293 214 294 221 353 272 4 4 6 9 6 14z"/></svg>
