<svg xmlns="http://www.w3.org/2000/svg" viewBox="0 -190 1008 1008"><path fill="currentColor" d="M896 552l-18-25 4-2c-6-8-16-10-24-4-45 33-110 81-208 151-34 24-99 83-144 83s-110-57-144-81c-98-70-163-118-208-151-8-6-18-4-24 4l-18 25c-2 2-4 6-4 8 0 4 2 10 6 12 45 33 111 80 209 152 40 29 110 94 181 94s141-65 181-94c98-72 164-119 209-152 4-2 6-8 6-12 0-2-2-6-4-8zm112-155v518c0 53-41 94-94 94H95c-54 0-95-41-95-94V397c0-26 16-59 35-75 50-39 91-71 325-240 34-24 99-83 144-83s110 59 144 83c234 169 275 201 325 240 19 16 35 49 35 75z"/></svg>
