<svg xmlns="http://www.w3.org/2000/svg" viewBox="0 0 85.19 47.38" overflow="visible"><style>.st0{fill:#fff}</style><path class="st0" d="M61.49 47.38c-13.06 0-23.69-10.63-23.69-23.69S48.43 0 61.49 0s23.69 10.63 23.69 23.69-10.62 23.69-23.69 23.69zm0-45.51c-12.03 0-21.82 9.79-21.82 21.82s9.79 21.82 21.82 21.82 21.82-9.79 21.82-21.82S73.53 1.87 61.49 1.87z"/><path class="st0" d="M57.16 42.88v-18.8H0v-2h57.16V4.5l22.19 19.58H59.16v14.83l15.13-11.18 1.19 1.61-18.32 13.54zm2-20.8h14.9L59.16 8.94v13.14z"/></svg>
