<svg xmlns="http://www.w3.org/2000/svg" viewBox="0 0 1026.94 662.17" overflow="visible"><style>.st1{fill:#fff}</style><path d="M554.11 579.24c-12.01-.24-24.16 11.11-24.29 23.76-.13 12.65 12.26 24.59 24.24 24.24 11.65-.33 23.73-10.58 22.92-23.85.88-13.56-11.01-23.91-22.87-24.15z" fill="none"/><path class="st1" d="M1026.82 105.1c-.05-11.02-.73-21.96-4.17-32.8-4.21-13.28-10.05-25.31-18.56-36.36-9.38-12.18-20.89-21.68-34.49-28.33C958.9 2.38 947.22.05 935.13.09c-30.7.1-61.39 0-92.09 0C766.55.08 690.07.07 613.58.12c-2.01 0-4.01.59-6.02.9-1.3-.31-2.6-.89-3.91-.89C567 .07 530.33.08 493.66.13c-1.31 0-2.61.58-3.92.89-1.83-.31-3.66-.9-5.5-.9C385.17.08 286.09.18 187.02 0c-19.41-.04-38.6.14-55.81 10.77-5.36 3.31-10.94 6.52-15.54 10.74-5.4 4.94-9.72 11.05-14.75 16.42-7.96 8.51-11.93 19.17-15.88 29.72-4.67 12.49-5.7 25.64-5.64 38.96.18 41.74.09 83.48.09 125.22.01 52.14.03 104.28.04 156.42 7.62-.52 15.33-.71 22.86-1.69 4.34-.57 9.74-2.26 12.36-5.38 5.38-6.38 11.36-11.9 17.78-16.56 0-80 0-160.01.08-240.01.01-11.4-.37-23.07 1.8-34.15 2.98-15.23 12.54-26.27 27.83-31.01 5.29-1.64 11.05-2.47 16.59-2.48 119.07-.13 238.13-.09 357.2-.15 2.86 0 5.72-.73 8.58-1.13 2.79-.02 5.58-.04 8.36-.07 1.39.41 2.78 1.18 4.17 1.18 112.01.06 224.03.23 336.04-.35 7.55-.04 15.05.73 22.59.45 5.73-.22 11.48-.25 17.2.03 12.74.62 22.67 6.39 30.68 16.32 8.24 10.23 10.93 22.07 10.95 34.63.13 72.32.06 144.65.06 216.97v207.79H387.7c-12.83 31.68-35.32 52.94-68.23 62.9-6.75 2.04-9.85 4.77-10.1 12.43-.52 16.02-1.97 32.01-3.36 48 206.27.06 412.55.06 618.82.07 13.52 0 27.15.19 39.61-5.96 8.44-4.16 17.13-8.4 24.39-14.24 8.2-6.59 15.22-14.6 20.98-23.81 7.19-11.49 12.35-23.67 15.03-36.75 1.62-7.88 1.94-16.14 1.95-24.23.12-97.02.08-194.04.08-291.06.02-51.63.17-103.26-.05-154.89zM554.06 627.24c-11.98.34-24.36-11.59-24.24-24.24.13-12.65 12.28-24.01 24.29-23.76 11.86.24 23.75 10.59 22.87 24.15.81 13.27-11.27 23.52-22.92 23.85z"/><path class="st1" d="M179.25 662.17c-27.53 0-55.06.01-82.59 0-12.72-.01-18.2-5.05-19.1-17.73-1.03-14.66-2.31-29.32-2.7-44-.17-6.49-2.69-9-8.66-10.81-30.89-9.32-51.78-29.76-61.54-60.21-16.8-52.44 13.52-104.81 63.25-117.67 11.57-2.99 24.08-2.22 36.08-3.79 3.77-.49 8.46-1.97 10.74-4.67 30.16-35.73 81.93-40.74 118.29-11.07.48.39 1.06.77 1.36 1.29 8.13 14.09 20.93 14.15 35.59 14.8 66.06 2.93 104.2 69.26 82.37 125.15-11.04 28.28-30.75 47.2-59.81 56-5.87 1.78-8.55 4.15-8.77 10.79-.5 15.3-1.97 30.57-3.28 45.83-.95 11.1-5.77 15.65-16.75 15.69-28.16.12-56.32.04-84.49.04.01.12.01.24.01.36zm79.57-200.48c-15.8-35.11-40.01-58.56-79.14-58.93-39.69-.38-63.57 24.03-79.77 58.43l-1.69-23.05c-18.88-2.64-34.68 3.8-47.6 15.88-19.2 17.95-25.91 40.7-17.76 65.89 8.33 25.76 26.83 40.65 54.14 43.87 11.11 1.31 14.75 4.73 15.75 15.9 1.31 14.64 2.42 29.32 2.99 44.01.25 6.42 2.28 8.44 8.85 8.4 43.2-.26 86.41-.09 129.61-.1 2.16 0 4.31-.35 7.67-.65.9-14.68 1.98-29.27 2.63-43.87.79-17.75 3.97-21.6 21.29-24.52 44.17-7.46 66.72-55.78 44.05-94.37-12.85-21.86-39.21-34.94-59.49-29.54l-1.53 22.65z"/><path class="st1" d="M168.61 561.95c.01-11.88.1-23.76-.03-35.64-.08-7.33 2.72-12.43 10.51-12.61 8.15-.2 10.59 5.55 10.62 12.51.11 23.76.15 47.52-.02 71.28-.05 6.78-2.12 12.75-10.52 12.55-8.56-.21-10.75-5.82-10.62-13.38.18-11.57.05-23.14.06-34.71zM211.03 597.9c2.82-24.13 5.54-48.28 8.53-72.39.92-7.41 4.61-12.34 13.12-10.87 8.02 1.39 8.37 7.61 7.67 13.65-2.76 23.83-5.87 47.63-8.77 71.44-.79 6.48-3.9 10.69-10.75 10.35-7.46-.36-10.24-5.02-9.8-12.18zM147.41 594.86c.67 10.44-2.56 14.69-9.81 15.16-6.79.44-10.29-3.28-11.1-9.88-2.96-24.13-6-48.24-8.93-72.37-.81-6.68 1.11-11.87 8.62-13.06 7.81-1.24 11.27 2.34 12.2 10.15 2.88 24.44 6.25 48.82 9.02 70zM210.99 103.8H419.9v20H210.99zM210.99 190.1H419.9v20H210.99zM210.99 278.8H419.9v20H210.99zM210.99 362.15H419.9v20H210.99zM469.57 103.8h208.91v20H469.57zM469.57 190.1h208.91v20H469.57zM469.57 278.8h208.91v20H469.57zM469.57 362.15h208.91v20H469.57zM721.44 103.8h208.91v20H721.44zM721.44 190.1h208.91v20H721.44z"/><g><path class="st1" d="M721.44 278.8h208.91v20H721.44z"/></g><g><path class="st1" d="M721.44 362.15h208.91v20H721.44z"/></g><g><path class="st1" d="M469.57 455.19h208.91v20H469.57z"/></g><g><path class="st1" d="M721.44 455.19h208.91v20H721.44z"/></g></svg>
