<svg xmlns="http://www.w3.org/2000/svg" viewBox="0 -168 1008 1008"><path fill="currentColor" d="M504 86c118 0 216 43 295 122 81 79 124 177 124 297s-43 219-122 297c-78 79-177 122-297 122s-219-43-297-122C128 724 85 625 85 505s43-219 122-297c78-79 177-122 297-122zm0 764c100 0 189-42 252-111-91 26-169 35-234 22s-101-22-105-26c-70-21-72 24-47 87 41 18 87 28 134 28zm297-174c14-25 26-51 34-77-83-13-170-50-262-108-93-58-142-92-150-100-116-87-197-53-250 18-10 29-14 63-14 96 0 51 10 98 32 144 8-26 24-52 49-51 49 1 85 37 162 63l120 39c120 39 226 2 279-24zM522 318c126 118 238 211 325 224 2-11 2-23 2-37 0-33-4-67-14-98-22 29-51 23-85-20-33-43-51-69-55-79-77-102-201-130-321-122-41 18-77 41-108 71 21-14 53-19 98-18s99 24 158 79z"/></svg>
