<svg xmlns="http://www.w3.org/2000/svg" viewBox="0 0 107.9 85.08"><style>.st0{fill:#fff}</style><path class="st0" d="M107.52 23.55L92.35 10.28c-.5-.38-1.11-.58-1.74-.55h-4.84V1.28c0-.71-.95-1.28-2.11-1.28h-56.9c-1.17 0-2.11.58-2.11 1.28v8.45h-7.36c-.63-.02-1.24.17-1.74.55L.38 23.55a.9.9 0 0 0-.14 1.35c.5.48 1.18.73 1.87.69h5.47v50.88H4.32c-1.17 0-2.11.58-2.11 1.28v6.06c0 .71.95 1.28 2.11 1.28h99.25c1.16 0 2.11-.57 2.11-1.28v-6.06c0-.71-.95-1.28-2.11-1.28h-3.26V25.58h5.47c.69.04 1.37-.21 1.88-.69.03-.03.05-.06.08-.1.28-.4.18-.96-.22-1.24zm-61.27-.54l2.37-10.7h10.64l2.39 10.7h-15.4zm-1.87-10.7l-2.39 10.7H25.73l7.39-10.7h11.26zm21.54 10.7l-2.39-10.7h11.22l7.41 10.7H65.92zM28.88 2.58h52.67v7.15H28.88V2.58zm-10.5 9.73h10.17l-7.41 10.7H6.15l12.23-10.7zm83.08 70.2H6.43v-3.49h95.02v3.49zm-5.38-6.06H11.8l.01-50.88h84.27v50.88zm2.12-53.44H86.76l-7.41-10.7h10.16l12.23 10.7H98.2z"/><path class="st0" d="M22.55 34.99c-1.17 0-2.11.58-2.11 1.28v23.59c0 .71.95 1.28 2.11 1.28h62.79c1.17 0 2.11-.58 2.11-1.28V36.28c0-.71-.95-1.28-2.11-1.28H22.55zm60.68 23.59H24.66V37.56h58.57v21.02z"/></svg>
