<svg xmlns="http://www.w3.org/2000/svg" viewBox="0 0 284.51 274.58"><style>.st0{fill:#fff}</style><path class="st0" d="M193.64 274.58H19.41C8.71 274.58 0 265.93 0 255.29V40.77C0 30.15 8.71 21.5 19.41 21.5h46.98v22.54H22.54V238.9h167.82V44.04h-43.48V21.5h46.76c10.82 0 19.62 8.65 19.62 19.28V255.3c0 10.63-8.8 19.28-19.62 19.28zM19.41 26.5C11.46 26.5 5 32.9 5 40.77v214.52c0 7.88 6.46 14.29 14.41 14.29h174.23c8.06 0 14.62-6.41 14.62-14.29V40.77c0-7.87-6.56-14.28-14.62-14.28h-41.76v12.54h43.48v204.86H17.54V39.04h43.84V26.5H19.41z"/><path class="st0" d="M146.76 52.08H66.13V14.19h26.24v-.07C92.38 6.34 98.72 0 106.52 0c7.8 0 14.15 6.34 14.15 14.13v.06h26.09v37.89zm-75.63-5h70.63V19.19h-27.12l.81-3.13c.13-.51.21-1.23.21-1.93 0-5.04-4.1-9.13-9.15-9.13-5.04 0-9.15 4.09-9.15 9.13 0 .69.08 1.43.21 1.94l.81 3.13H71.13v27.88zm35.39-24.59c-4.59 0-8.32-3.73-8.32-8.32s3.73-8.32 8.32-8.32 8.32 3.73 8.32 8.32-3.73 8.32-8.32 8.32zm0-11.65c-1.83 0-3.32 1.49-3.32 3.32 0 1.83 1.49 3.32 3.32 3.32s3.32-1.49 3.32-3.32a3.312 3.312 0 0 0-3.32-3.32zM169.48 92.27H43.42c-4.4 0-7.98-3.58-7.98-7.98s3.58-7.98 7.98-7.98h126.06c4.4 0 7.98 3.58 7.98 7.98s-3.58 7.98-7.98 7.98zM43.42 81.3c-1.64 0-2.98 1.34-2.98 2.98 0 1.65 1.34 2.98 2.98 2.98h126.06c1.64 0 2.98-1.34 2.98-2.98s-1.34-2.98-2.98-2.98H43.42zM169.48 129.53H43.42c-4.4 0-7.98-3.58-7.98-7.98s3.58-7.98 7.98-7.98h126.06c4.4 0 7.98 3.58 7.98 7.98s-3.58 7.98-7.98 7.98zM43.42 118.57c-1.64 0-2.98 1.34-2.98 2.98 0 1.65 1.34 2.98 2.98 2.98h126.06c1.64 0 2.98-1.34 2.98-2.98s-1.34-2.98-2.98-2.98H43.42zM169.48 163.88H43.42c-4.4 0-7.98-3.58-7.98-7.98s3.58-7.98 7.98-7.98h126.06c4.4 0 7.98 3.58 7.98 7.98s-3.58 7.98-7.98 7.98zM43.42 152.92c-1.64 0-2.98 1.34-2.98 2.98 0 1.65 1.34 2.98 2.98 2.98h126.06c1.64 0 2.98-1.34 2.98-2.98s-1.34-2.98-2.98-2.98H43.42zM140.92 202.61H43.01c-3.8 0-6.77-3.51-6.77-7.98 0-4.47 2.97-7.98 6.77-7.98h97.91c3.8 0 6.77 3.5 6.77 7.98 0 4.47-2.97 7.98-6.77 7.98zm-97.91-10.96c-.83 0-1.77 1.27-1.77 2.98s.93 2.98 1.77 2.98h97.91c.83 0 1.77-1.28 1.77-2.98 0-1.71-.93-2.98-1.77-2.98H43.01z"/><g><path class="st0" d="M262.77 254.95c-2.33 0-4.61-1.42-5.53-3.71l-31.03-76.8c-.85-2.1-1.28-5.38-1.01-7.63l2.2-17.93c.22-1.79 1.16-3.16 2.59-3.73 1.43-.58 3.05-.25 4.46.88l14.03 11.37c1.76 1.43 3.73 4.08 4.57 6.19l31.03 76.8c.58 1.43.57 3.01-.01 4.46-.6 1.49-1.73 2.63-3.18 3.22l-16.04 6.48c-.67.27-1.38.4-2.08.4zm-30.55-104.28l-2.05 16.75c-.17 1.39.15 3.84.68 5.15l31.03 76.8c.18.44.72.71 1.11.55l16.04-6.48c.24-.1.36-.32.41-.44.09-.24.1-.5.01-.72l-31.03-76.8c-.52-1.3-2-3.29-3.08-4.17l-13.12-10.64zm-1.05-.84z"/></g></svg>
