<svg xmlns="http://www.w3.org/2000/svg" viewBox="0 -202 808 1008"><path fill="currentColor" d="M177 150l9 49h580c24 0 46 24 42 49l-42 294c-3 20-20 35-41 35H249l7 43h426c24 0 43 19 43 42s-19 41-43 41H221c-13 0-26-8-38-23 0-3-3-9-4-12l-78-470H42c-23 0-42-18-42-41s19-42 42-42h94c20 0 38 15 41 35zm379 218h150l12-84H556v84zm-168 0h126v-84H388v84zm-167 0h126v-84H200l15 85zm167 126h126v-84H388v84zm-41 0v-84H221l14 84h112zm353-84H556v84h132zM283 872c-42 0-62-21-62-64 0-42 20-62 62-62 43 0 64 20 64 62 0 43-21 64-64 64zm378 0c-42 0-62-21-62-64 0-42 20-62 62-62 43 0 64 20 64 62 0 43-21 64-64 64z"/></svg>
