<svg xmlns="http://www.w3.org/2000/svg" viewBox="0 -189 726 1008"><path fill="currentColor" d="M0 213c0-40 31-71 71-71h585c39 0 70 31 70 71v582c0 40-31 71-70 71H71c-40 0-71-31-71-71V213zm272-26l-24 93-26-93h-37l24 65c9 27 14 51 21 75v96h36v-96l41-140h-35zm47 75c-7 11-10 26-10 43v61c0 16 3 30 10 42 8 11 20 17 37 17 16 0 29-6 38-17 7-12 10-26 10-42v-61c0-17-3-32-10-43-9-12-22-18-38-18s-29 6-37 18zm51 110c0 16-5 24-14 24s-15-8-15-24v-75c0-16 6-23 15-23s14 7 14 23v75zm61 41v-1c5 16 34 20 57-9v19h34V245h-34v136c-15 19-27 16-27 8V245h-32v140c0 15 1 25 2 28zm128 399v-2c31-4 50-22 57-51 5-24 8-65 8-124 0-60-3-101-8-124-7-31-26-47-57-51-43-7-107-8-197-8-87 0-151 1-195 8-31 4-50 20-57 51-5 27-10 67-10 125s5 98 10 125c8 29 26 47 57 51 35 4 99 6 195 6 99 0 163-2 197-6zm-382-65V546h-37v-33h110v33h-37v201h-36zm229-157c9-12 20-18 31-18 13 0 22 7 26 20 3 9 4 21 4 33v71c0 15-1 26-4 35-4 13-13 20-26 20-12 0-22-7-31-20v16h-32V513h32v77zm94 0l1-1c11-12 23-18 39-18 17 0 30 6 38 18 7 9 10 20 10 39v37h-65v32c0 15 6 23 17 23 8 0 13-5 14-13v-20h34v4c0 8-2 17-2 20-3 8-6 12-9 19-9 13-22 20-38 20-13 0-26-5-37-20-8-11-12-23-12-39v-61c0-17 3-31 10-40zm-78 130h-1c9 0 14-8 14-23v-75c0-16-5-24-14-24-5 0-9 3-14 8v107c4 4 10 7 15 7zm100-98v16h31v-16c0-16-8-23-15-23-8 0-16 7-16 23zM315 728c-12 15-25 22-37 22-9 0-16-5-20-14-1-3-2-12-2-25V573h31v140c0 9 12 13 28-8V573h32v173h-32v-18z"/></svg>
