<svg xmlns="http://www.w3.org/2000/svg" viewBox="-1 -189 726 1008"><path fill="currentColor" d="M77 169v146h23V169H77zm43 0v146h24V169h-24zm67 146V169h-26v146h26zm459 0c23 0 43-20 43-43v-59c0-24-20-44-43-44h-69c-24 0-43 20-43 44v59c0 23 19 43 43 43h69zM32 213v103h25V174c-16 5-25 18-25 39zm-32-5h1c0-40 31-71 71-71h585c39 0 70 31 70 71v141H509c-38-50-86-72-146-72-58 0-106 22-144 72H0V208zm522 250l1 1c0 42-15 82-47 114-31 31-72 46-112 46-42 0-84-15-115-46s-46-73-46-115c0-40 15-81 46-112 32-32 72-47 114-47 40 0 81 16 112 47s47 72 47 112zm-30 1c0-32-13-65-37-89-25-24-57-37-91-37s-66 13-90 37-36 55-36 89 12 66 36 90c24 25 56 38 90 38s67-13 91-38c24-24 37-56 37-90zm1 128h-3c32-34 52-78 52-129 0-31-6-55-17-79h200v423c0 40-31 71-70 71H70c-40 0-71-31-71-71V379h201c-15 27-20 52-20 79 0 51 20 95 54 129s78 54 129 54 96-20 130-54z"/></svg>
