<svg xmlns="http://www.w3.org/2000/svg" viewBox="0 0 29.12 31.56" overflow="visible"><style>.st0{fill:#333}</style><path class="st0" d="M27.51 31.56H1.6c-.44 0-.88-.19-1.19-.51-.29-.31-.44-.7-.42-1.11L1.23 7.9c.05-.89.75-1.58 1.6-1.58h23.45c.85 0 1.55.7 1.6 1.58l1.23 22.04c.02.41-.13.8-.42 1.11-.3.32-.74.51-1.18.51zM2.83 7.07c-.46 0-.82.38-.85.87L.75 29.98c-.01.2.06.4.21.55.17.18.4.28.64.28h25.91c.24 0 .47-.1.64-.28.15-.16.23-.35.21-.55L27.14 7.94c-.03-.49-.4-.87-.85-.87H2.83z"/><path class="st0" d="M9.4 11.61c-.73 0-1.33-.6-1.33-1.33 0-.73.6-1.33 1.33-1.33s1.33.6 1.33 1.33c0 .73-.59 1.33-1.33 1.33zm0-1.91a.58.58 0 1 0 0 1.16.58.58 0 0 0 0-1.16zM19.72 11.61c-.73 0-1.33-.6-1.33-1.33 0-.73.6-1.33 1.33-1.33s1.33.6 1.33 1.33c0 .73-.6 1.33-1.33 1.33zm0-1.91a.58.58 0 1 0 0 1.16.58.58 0 0 0 0-1.16z"/><path class="st0" d="M19.72 10.44a.38.38 0 0 1-.38-.38V5.54c0-2.64-2.15-4.79-4.79-4.79S9.77 2.9 9.77 5.54v4.53a.38.38 0 1 1-.76 0V5.54C9.02 2.48 11.5 0 14.56 0s5.54 2.48 5.54 5.54v4.53c0 .2-.17.37-.38.37zM16.86 25.54c-.03.03-.05.06-.08.09-1.01 1.01-2.31 1.19-3.75.88-.59-.13-1.08-.43-1.25-.94-.16-.48-.31-1.29-.31-1.78-.03-2.41-.01-4.82-.02-7.23h-1.42v.03c-.01 1.22-.01 2.43 0 3.65 0 .88-.02 1.76.01 2.65.01.55.05 1.4.15 1.94.11.59.47 1.09 1.06 1.43 1.28.74 2.69.93 4.16.54 1.08-.28 1.86-.88 2.21-1.84.02-.05.03-.1.05-.15-.27.28-.55.53-.81.73zM17.92 16.55H17.47c.02.05.02.11.02.18 0 2.33.02 4.66-.02 6.98 0 .11 0 .43-.02.54.31-.26.36-.46.41-.69.03-.28.05-.56.05-.84v-5.44-.02l.01-.71z"/></svg>
