<svg xmlns="http://www.w3.org/2000/svg" viewBox="0 -190 882 1008"><path fill="currentColor" d="M614 64h237c17 0 31 14 31 31v63c0 18-14 32-31 32H32c-18 0-32-14-32-32V95c0-17 14-31 32-31h236l17-37c7-15 28-26 44-26h224c16 0 37 11 44 26zM221 410v442c0 17 13 31 31 31s32-14 32-31V410c0-17-14-31-32-31s-31 14-31 31zm189 0v442c0 17 13 31 31 31s32-14 32-31V410c0-17-14-31-32-31s-31 14-31 31zm189 0v442c0 17 13 31 31 31s32-14 32-31V410c0-17-14-31-32-31s-31 14-31 31zM63 915V253h756v662c0 51-43 94-94 94H158c-52 0-95-43-95-94z"/></svg>
