<svg xmlns="http://www.w3.org/2000/svg" viewBox="0 -202 630 1008"><path fill="currentColor" d="M546 241l2 42h42c23 0 42 18 42 41s-19 43-42 43v335c0 46-17 86-51 120-32 34-71 51-118 51H211c-47 0-86-17-120-51-32-34-49-73-49-120V367c-23 0-42-20-42-43s19-41 42-41h42v-42c0-23 9-44 25-60 15-15 35-24 59-24h294c24 0 44 9 60 24 15 16 24 37 24 60zm-82 42v-42H170v42h294zm-42 504c47 0 84-37 84-85V367H128v335c0 48 37 85 84 85h210zM191 431c11 0 21 6 21 19v252c0 13-10 20-21 20s-21-7-21-20V450c0-13 10-19 21-19zm84 0c11 0 21 6 21 19v252c0 13-10 20-21 20s-21-7-21-20V450c0-13 10-19 21-19zm84 0c11 0 21 6 21 19v252c0 13-10 20-21 20s-21-7-21-20V450c0-13 10-19 21-19zm84 0c11 0 21 6 21 19v252c0 13-10 20-21 20s-21-7-21-20V450c0-13 10-19 21-19z"/></svg>
