<svg xmlns="http://www.w3.org/2000/svg" viewBox="0 0 79.03 66.36"><style>.st0{fill:#fffcfb}</style><path class="st0" d="M8.54.02S2.93-.77.48 10.53c-2.02 9.33 2.76 12.76 6.12 13.69L5.1 65.15c0 .67.54 1.22 1.22 1.22h4.43c.67 0 1.21-.54 1.21-1.22l-1.49-40.93c3.36-.93 8.15-4.36 6.12-13.69C14.15-.77 8.54.02 8.54.02zM79.03 18.53l-.1-5.95L78.73.5c0-.28-.23-.5-.5-.5-.28 0-.5.23-.5.5l-.55 12.07-1.21-.01L75.71.5c0-.28-.23-.5-.5-.5-.28 0-.5.23-.5.5l-.55 12.06-1.21-.01L72.69.5c0-.28-.22-.5-.5-.5s-.5.23-.5.5l-.55 12.04-1.21-.01L69.67.5c0-.28-.23-.5-.5-.5-.28 0-.5.23-.5.5l-.55 12.02h-.01l-.04 1.17-.07 1.52c0 .06 0 .12.01.17l-.11 3.15a5.58 5.58 0 0 0 3.71 5.25c-.02.09-.03.18-.03.28l-1.5 41.08c0 .67.54 1.22 1.22 1.22h4.43c.67 0 1.22-.54 1.22-1.22l-1.5-41.08c0-.11-.02-.21-.04-.31a5.56 5.56 0 0 0 3.62-5.22z"/><path class="st0" d="M40.81 8.12c-14.36 0-26.05 11.69-26.05 26.06 0 14.36 11.69 26.05 26.05 26.05 14.37 0 26.06-11.69 26.06-26.05 0-14.37-11.69-26.06-26.06-26.06zm0 48.83c-12.55 0-22.77-10.22-22.77-22.77 0-12.56 10.22-22.78 22.77-22.78 12.56 0 22.78 10.22 22.78 22.78 0 12.55-10.22 22.77-22.78 22.77z"/><path class="st0" d="M40.81 15.94c-10.05 0-18.23 8.18-18.23 18.24 0 10.05 8.18 18.23 18.23 18.23 10.06 0 18.24-8.18 18.24-18.23 0-10.06-8.18-18.24-18.24-18.24zm0 35.16c-9.33 0-16.92-7.59-16.92-16.92s7.59-16.92 16.92-16.92 16.93 7.59 16.93 16.92-7.6 16.92-16.93 16.92z"/></svg>
