<svg xmlns="http://www.w3.org/2000/svg" viewBox="-1 -202 811 1008"><path fill="currentColor" d="M335 833l-1 1c-25-24-38-54-38-88 0-12 2-23 5-32 4-11 14-30 27-53H125c-35 0-65-12-90-36-24-25-36-55-36-90 0-36 12-65 36-89 25-25 55-37 90-37h203c-5-12-18-32-22-39-5-13-10-30-10-46 0-35 13-64 37-88 23-24 52-36 88-36 38 0 68 12 91 36l299 299-299 298c-25 25-54 38-89 38-34 0-63-13-88-38zm57-477l138 138H125c-23 0-42 19-42 42s19 41 42 41h405L392 716c-16 17-16 43 0 59s43 16 60 0l239-239-239-240c-13-13-31-14-46-9-15 7-26 21-26 38 0 12 4 22 12 31z"/></svg>
