<svg xmlns="http://www.w3.org/2000/svg" viewBox="0 -189 1008 1008"><path fill="currentColor" d="M504 993c-89 0-169-21-244-65-75-43-134-102-177-177-44-75-65-155-65-244s21-169 65-244c43-75 102-134 177-177 75-44 155-65 244-65s169 21 244 65c75 43 134 102 177 177 44 75 65 155 65 244s-21 169-65 244c-43 75-102 134-177 177-75 44-155 65-244 65zm0-882c-71 0-136 18-197 53-61 36-108 83-144 144-35 61-53 126-53 197s18 136 53 197c36 61 83 108 144 144 61 35 126 53 197 53s136-18 197-53c61-36 108-83 144-144 35-61 53-126 53-197s-18-136-53-197c-36-61-83-108-144-144-61-35-126-53-197-53zm39 646c6 0 12-2 16-6s6-10 6-16V507h132c10 0 18-4 22-14s2-18-4-25L520 273c-6-4-12-6-18-6s-12 2-16 6L291 470c-7 5-9 13-6 23 4 10 12 16 22 16h132v228c0 6 2 12 6 16s10 6 16 6z"/></svg>
