<svg xmlns="http://www.w3.org/2000/svg" viewBox="0 -168 1008 1008"><path fill="currentColor" d="M504 86c120 0 219 43 297 122 79 78 122 177 122 297s-43 219-122 297c-78 79-177 122-297 122s-219-43-297-122C128 724 85 625 85 505s43-219 122-297c78-79 177-122 297-122zm0 82c-96 0-175 36-238 99s-99 142-99 238 36 175 99 238 142 99 238 99 175-36 238-99 99-142 99-238-36-175-99-238-142-99-238-99zm41 504v44h-82v-44h-85v-82h167v-44H419c-23 0-41-17-41-41V379c0-24 18-41 41-41h44v-44h82v44h85v82H463v44h126c23 0 41 17 41 41v126c0 24-18 41-41 41h-44z"/></svg>
