<svg xmlns="http://www.w3.org/2000/svg" viewBox="0 -144 1008 1008"><path fill="currentColor" d="M951 542c9-190-122-320-300-369-3 0-15-5 8-8 434 15 450 709-23 717 154-43 305-150 315-340zm35-193C785-105-42 62 50 681-140 61 643-223 933 218c24 36 51 99 53 131zM824 511c0 159-128 289-286 289S251 670 251 511s129-288 287-288 286 129 286 288zm135 253C799 1155 82 1056 97 548c2-64 20-108 39-169-119 486 543 768 815 385 10-14 13-13 8 0zM754 441c20-30-3-107-72-153-68-45-155-42-175-12s22 11 99 40c127 47 129 155 148 125z"/></svg>
