<svg xmlns="http://www.w3.org/2000/svg" viewBox="0 -144 1009 1008"><path fill="currentColor" d="M1009 504c0 278-226 504-504 504C226 1008 0 782 0 504S226 0 505 0c278 0 504 226 504 504zm-134 87c5-33-42-34-52-53-27-49-56-75-111-62 24-16 48-12 48-12 0-13 0-26-19-51 8-25 0-45 0-45 32-18 55-50 59-88 8-63-38-120-101-128-45-5-89 16-110 53-47 81 3 144 45 165-29-3-69-24-81-70-14-52 6-101 18-125 0 0-9-11-16-18 0 0-28 0-50 11 24-31 51-29 51-29 0-13-1-31-8-44-11-23-50-26-65 9 0-2 1-3 2-4-10 24-2 113 34 177-5 3-18 12-26 20-44 20-114 123-114 123-58 22-158 103-144 162 0 6 2 11 6 15-6 4-11 10-17 17-24 28-11 71 36 49 32-15 61-41 74-62 0 0-12-10-34-9 57-13 71-19 95-18 16 8 16-70 16-70 0-30-4-63-22-84 25 24 59 66 56 123-1 37-30 46-30 46-22 33-88 134-62 216 0 0-20-30-21-45-36 39-95 106-51 131 54 30 222-180 257-289 71-42 113-96 130-132 45 89 195 193 207 121zM762 319c-26 48-92 68-133 39-40-29-68-87-24-138s83-35 122 2c24 23 59 50 35 97zm-227 56c-6 5-15 5-21 0-6-7-6-16 0-22s15-6 21 0 6 15 0 22zm61 73l-19 19c-10 10-25 10-34 0l-22-21c-9-9-9-24 0-34l20-19c9-9 25-10 34 0l21 22c9 9 9 24 0 33zm-93-42c-6 6-15 6-21 0s-6-15 0-21 15-6 21 0 6 15 0 21zm223-138c-18-20-47 14-31 32 15 19 65 5 31-32z"/></svg>
