<svg xmlns="http://www.w3.org/2000/svg" viewBox="0 -144 1152 1008"><path fill="currentColor" d="M1152 162v684c0 49-40 90-90 90H90c-49 0-90-41-90-90V162c0-49 41-90 90-90h972c50 0 90 41 90 90zm-72 684V216H72v630c0 10 8 18 18 18h972c10 0 18-8 18-18zm-72-468v36c0 10-8 18-18 18H594c-10 0-18-8-18-18v-36c0-10 8-18 18-18h396c10 0 18 8 18 18zm0 144v36c0 10-8 18-18 18H882c-10 0-18-8-18-18v-36c0-10 8-18 18-18h108c10 0 18 8 18 18zm-216 0v36c0 10-8 18-18 18H594c-10 0-18-8-18-18v-36c0-10 8-18 18-18h180c10 0 18 8 18 18zm216 144v36c0 10-8 18-18 18H594c-10 0-18-8-18-18v-36c0-10 8-18 18-18h396c10 0 18 8 18 18zM432 432c0 60-48 108-108 108s-108-48-108-108 48-108 108-108 108 48 108 108zm72 250c0 41-27 74-60 74H204c-33 0-60-33-60-74 0-75 18-160 92-160 23 23 54 36 88 36s65-13 88-36c74 0 92 85 92 160z"/></svg>
