<svg xmlns="http://www.w3.org/2000/svg" viewBox="-4 -189 882 1008"><path fill="currentColor" d="M758 468l2-4c0-48-14-91-43-130-30-40-69-71-118-95-50-23-103-35-162-35s-112 12-161 35c-50 24-89 55-118 95-30 39-44 82-44 130 0 65 26 122 77 171s116 79 193 89c16 3 26 9 27 17 2 8 2 24-1 49l-2 8c-6 22 5 28 29 18s61-34 114-71c63-43 110-83 140-116 45-51 67-104 67-161zm122-241v561c0 46-16 83-47 115-32 31-69 47-114 47H158c-46 0-83-16-115-47-31-32-47-69-47-115V227c0-45 16-82 47-114 32-31 69-47 115-47h561c45 0 82 16 114 47 31 32 47 69 47 114zM652 399h-91c-4 0-6 2-6 6v139c0 4 2 6 6 6h91c4 0 6-2 6-6v-21c0-4-2-6-6-6h-61v-24h61c4 0 6-2 6-6v-23c0-4-2-6-6-6h-61v-24h61c4 0 6-2 6-6v-23c0-4-2-6-6-6zM321 515l-63 2V405c0-4-2-6-8-6h-22c-4 0-6 2-6 6v139c0 2 0 4 2 4h97c4 0 6-2 6-6v-21c0-4-2-6-6-6zm53-118h-22c-4 0-5 2-7 6v139c2 4 3 6 7 6h22c4 0 6-2 6-6V403c0-4-2-6-6-6zm162 6v139c0 4-2 6-6 6h-22c-2 0-4 0-6-2l-65-86v82c0 6-2 8-6 8h-21c-4 0-6-2-6-8V403c0-4 2-6 6-6h21c2 0 4 0 6 2l63 86v-82c0-4 2-6 6-6h24c4 0 6 2 6 6z"/></svg>
