<svg xmlns="http://www.w3.org/2000/svg" viewBox="0 -202 672 1008"><path fill="currentColor" d="M99 211l-2 2c66-64 144-96 238-96s173 32 239 96 97 141 97 233-31 169-97 233L336 913 99 679C33 613 0 536 0 445s33-168 99-234zm414 62c-48-50-108-73-179-73-68 0-128 23-179 73-48 47-73 104-73 174 0 68 25 124 73 174l179 176 179-176c50-50 73-107 73-174 0-70-23-127-73-174zM186 452v1c0-39 15-73 44-104 29-29 63-43 103-43s75 14 103 43c29 29 44 63 44 103s-15 74-44 103c-28 28-63 43-103 43s-74-15-103-43c-29-29-44-63-44-103zm223-73l1-1c-20-19-47-31-75-31s-52 11-73 32c-20 20-31 47-31 74s11 54 31 74 44 30 73 30 53-10 73-30c21-21 32-45 32-73s-12-55-31-75z"/></svg>
