<svg xmlns="http://www.w3.org/2000/svg" viewBox="0 -202 756 1008"><path fill="currentColor" d="M84 493c0 23 19 42 42 42h210v211c0 23 19 41 42 41s42-19 42-42V535h211c23 0 41-19 41-42 0-24-19-43-42-43H420V241c0-25-19-43-42-43s-42 19-42 43v209H126c-24 0-42 19-42 43zm204 340c-24-24-36-54-36-88l2-128-127 2c-35 0-65-13-90-37-24-25-37-54-37-89 0-36 12-65 36-89 25-25 55-37 90-37l128-2-2-123c-1-36 12-64 36-89s54-37 90-37c35 0 65 12 89 37 24 24 37 54 37 89l2 124 125 2c35 0 64 12 88 37s37 52 37 88c0 35-12 64-37 89-24 24-53 37-89 37l-124-2-2 129c-1 35-13 64-37 87-25 25-54 38-89 38s-65-13-90-38z"/></svg>
