<svg xmlns="http://www.w3.org/2000/svg" viewBox="0 -144 936 1008"><path fill="currentColor" d="M936 936c0 40-32 72-72 72-19 0-37-8-51-21L620 794c-65 46-144 70-224 70C177 864 0 687 0 468S177 72 396 72s396 177 396 396c0 80-24 159-70 224l193 193c13 13 21 32 21 51zM648 468c0-139-113-252-252-252S144 329 144 468s113 252 252 252 252-113 252-252zm-72-18v36c0 10-8 18-18 18H432v126c0 10-8 18-18 18h-36c-10 0-18-8-18-18V504H234c-10 0-18-8-18-18v-36c0-10 8-18 18-18h126V306c0-10 8-18 18-18h36c10 0 18 8 18 18v126h126c10 0 18 8 18 18z"/></svg>
