<svg xmlns="http://www.w3.org/2000/svg" viewBox="0 -144 720 1008"><path fill="currentColor" d="M688 328c0 180-147 327-328 327-25 0-50-2-74-8-16-3-25-19-22-35 4-15 20-26 35-22 20 5 41 7 61 7 149 0 269-121 269-269 0-149-121-270-269-270C211 58 91 179 91 328c0 43 10 84 29 123 7 14 2 32-13 39-14 7-31 2-39-13-23-46-36-97-36-149C32 147 179 0 360 0s328 147 328 328zm-214-6c0 59-49 108-109 108-23 0-44-7-62-19-21 22-43 49-65 82-92 137-130 300-114 483 2 16-10 30-26 32h-3c-15 0-28-11-29-26-22-247 56-421 125-524 26-38 51-68 74-93-6-13-9-28-9-43 0-60 49-109 109-109s109 49 109 109z"/></svg>
