<svg xmlns="http://www.w3.org/2000/svg" viewBox="0 -144 1008 1008"><path fill="currentColor" d="M138 863l257-250 76 86-247 243c-13 13-27 15-38 4l-48-47c-5-5-8-11-8-18s3-13 8-18zm861-706h-7c5 1 8 7 10 18s3 26 3 45-1 41-4 66-8 44-15 58c-31 59-82 80-154 64-18-4-36-3-55 4s-34 16-45 27l-83 79-68-79 68-71c17-17 28-35 33-54s7-41 7-65 1-41 4-52 6-20 10-27 9-13 15-19 12-12 18-17 13-10 21-15 15-9 21-13 13-8 21-12l18-9s9-4 15-6l9-3c8-4 14-3 18 3s4 11 1 15c-11 17-22 35-32 54s-16 30-18 34-4 8-5 12-2 10-2 18c0 15 13 32 39 50 40 28 72 21 97-21 5-9 12-20 20-33 17-27 27-42 29-46s6-6 11-5zM451 375l415 483c5 6 7 13 6 20s-4 13-10 18l-49 41c-6 5-12 7-19 6s-13-4-18-10L358 457c-6-7-6-14 1-20l72-63c7-6 14-6 20 1zm-259-44l5 1c-11 2-21 6-30 13s-15 15-17 24-3 18-3 26-1 12-2 13-4 3-8 7-9 9-15 14-11 9-14 12-8 4-14 3-10-3-13-7l-69-77c-8-8-7-17 1-24 2-2 8-7 18-15s17-14 21-17 13-5 27-5 26-5 36-14 17-22 20-38 6-26 10-30c26-23 45-39 58-48s25-17 35-24 17-12 21-15 11-8 22-15 19-12 25-16 14-8 24-13 19-9 27-12c20-8 38-13 54-15s65-2 146 0c9 0 6 3-10 10-62 27-100 44-114 51-85 47-110 93-75 139 20 27 32 43 36 48s3 10-3 15c-1 1-10 9-26 24-32 29-49 44-50 45-9 7-15 9-19 5-27-31-48-50-64-57s-29-10-40-8z"/></svg>
