<svg xmlns="http://www.w3.org/2000/svg" viewBox="0 -144 576 1008"><path fill="currentColor" d="M550 667c0 114-82 205-201 225v98c0 10-8 18-18 18h-76c-10 0-18-8-18-18v-98C105 873 33 794 30 791c-5-7-6-16-1-23l58-76c3-4 8-6 13-7 5 0 10 1 14 5 1 1 80 76 179 76 55 0 115-29 115-93 0-54-66-80-143-111-101-40-227-90-227-231 0-104 81-189 199-212V18c0-10 8-18 18-18h76c10 0 18 8 18 18v99c114 13 175 75 177 77 6 6 7 15 3 21l-46 83c-3 5-7 8-13 9-5 1-10-1-15-4-1-1-69-61-153-61-71 0-121 35-121 86 0 60 69 87 149 117 103 40 220 86 220 222z"/></svg>
