<svg xmlns="http://www.w3.org/2000/svg" viewBox="-8 -189 977 1008"><path fill="currentColor" d="M801 741l-2 2c46-65 73-144 73-228 0-217-177-394-394-394-216 0-393 177-393 394 0 84 27 163 73 228 49-61 124-102 208-102 20 0 51 20 114 20s95-20 115-20c84 0 159 39 206 100zM480 907c99 0 187-36 256-95-29-45-78-77-136-79-41 12-80 18-120 18-39 0-78-6-120-18-57 2-106 34-136 79 69 59 158 95 256 95zm0-882c270 0 489 218 489 488s-219 488-489 488C211 1001-8 783-8 513S211 25 480 25zm8 464l-8 8c54 0 97-43 97-96 0-54-41-97-93-97-51 0-92 42-92 93s43 92 96 92zm0-283c105 0 189 84 189 189 0 104-84 189-189 189-104 0-189-85-189-189 0-105 85-189 189-189z"/></svg>
