<svg xmlns="http://www.w3.org/2000/svg" viewBox="0 -144 1008 1008"><path fill="currentColor" d="M656 554h252v-50H656v50zm-428-32c-5-21-3-35 6-42-3-19-5-35-6-48s1-26 7-40 13-24 22-31 18-15 27-23 17-14 23-18c16-12 38-17 66-16-13 7-20 11-21 12s2 4 8 8c16 5 29 15 40 30 18 25 27 51 24 77l-6 50c6 3 9 11 9 23s-1 21-3 27-4 9-6 10c-6 2-10 7-11 14-3 18-8 32-15 42s-11 18-11 25 1 13 3 19 6 11 11 16 10 10 15 14 12 9 21 14 17 9 23 12 15 7 26 12c15 7 30 13 44 19s24 12 31 18V252H101v492c7-5 16-10 28-15s21-9 28-12 18-8 32-15 25-13 33-18 16-11 25-18c17-14 26-29 26-45 0-8-4-17-11-27s-11-20-13-31-3-17-4-19-2-3-3-4-3-2-5-3c-4-3-7-8-9-15zm630-169H656v50h202v-50zM51 151h907c14 0 26 5 36 15s15 22 15 36v605c0 14-5 26-15 36s-22 15-36 15H51c-14 0-26-5-36-15S0 821 0 807V202c0-14 5-26 15-36s22-15 36-15z"/></svg>
