<svg xmlns="http://www.w3.org/2000/svg" viewBox="0 -144 1008 1008"><path fill="currentColor" d="M939 184c67 73 84 173 56 261-7 20-28 31-48 25-21-7-32-28-26-49 21-62 8-133-39-185s-116-72-181-59c-20 5-41-9-46-30-4-20 9-41 30-45 91-19 188 8 254 82zm-101 92c31 35 41 84 27 127-6 17-25 27-42 21-17-5-27-24-21-42 6-21 2-45-14-62s-39-24-60-20c-18 4-36-7-39-25-4-18 7-35 25-39 44-10 91 4 124 40zm41 351c0 126-182 285-456 285C214 912 0 811 0 644c0-87 55-188 150-283 127-127 275-184 331-129 24 25 27 67 11 118-8 26 24 11 24 12 103-44 192-46 225 1 17 25 16 59 0 100-7 19 2 21 16 26 58 18 122 61 122 138zm-173-3c-11-109-155-185-322-168-167 16-293 118-282 228s155 185 322 169c167-17 293-119 282-229zm-176 90c-34 77-131 118-214 91-81-25-115-105-80-176 35-70 125-109 204-89 83 21 124 99 90 174zm-97-60c5-10 2-21-8-25s-23 1-28 11c-6 10-3 21 7 25s23-1 29-11zm-53 68c16-26 7-55-19-67-26-10-59 1-75 26s-9 55 17 67c25 11 61 0 77-26z"/></svg>
