<svg xmlns="http://www.w3.org/2000/svg" viewBox="0 -144 1152 1008"><path fill="currentColor" d="M1152 637c0 91-61 173-143 234l31 102-112-61c-41 10-82 21-122 21-195 0-347-133-347-296s152-296 347-296c183 0 346 133 346 296zM819 321c-13-2-26-2-39-2-194 0-347 144-347 322 0 30 5 59 13 86-13 1-25 1-38 1-51 0-92-10-143-20l-142 72 40-123C61 586 0 493 0 381 0 187 183 35 408 35c200 0 376 122 411 286zm150 224c0-21-21-41-52-41-20 0-40 20-40 41 0 20 20 41 40 41 31 0 52-21 52-41zM611 259c0-31-20-51-50-51-31 0-61 20-61 51s30 51 61 51c30 0 50-20 50-51zm133 286c0-21-20-41-51-41-20 0-40 20-40 41 0 20 20 41 40 41 31 0 51-21 51-41zM326 259c0-31-20-51-51-51-30 0-61 20-61 51s31 51 61 51c31 0 51-20 51-51z"/></svg>
