<svg xmlns="http://www.w3.org/2000/svg" viewBox="0 -144 864 1008"><path fill="currentColor" d="M440 69c234 0 424 190 424 424S674 917 440 917c-72 0-142-18-205-53L0 939l76-227c-39-66-60-142-60-219C16 259 206 69 440 69zm0 777c195 0 353-159 353-353 0-195-159-354-353-354-195 0-353 159-353 354 0 74 23 147 67 207l-44 131 136-43c57 37 125 58 194 58zm114-298c10 0 101 48 105 54 1 3 1 7 1 9 0 14-4 30-9 43-13 31-65 51-97 51-27 0-83-23-107-34-81-37-131-100-179-171-22-31-40-70-40-109v-5c0-37 14-63 41-88 9-8 18-13 30-13 6 0 13 2 20 2 16 0 18 4 24 19 4 10 33 86 33 92 0 21-39 45-39 58 0 3 1 6 3 9 12 26 36 56 57 77 26 24 54 41 85 57 4 2 8 3 12 3 17 0 45-54 60-54z"/></svg>
