<svg xmlns="http://www.w3.org/2000/svg" viewBox="0 -189 1008 1008"><path fill="currentColor" d="M488 0h1c138 0 249 48 345 144s144 206 144 344c0 135-48 249-144 347-96 95-207 142-345 142-137 0-251-47-346-142C47 739 1 627 1 489c0-137 47-251 142-345C239 48 353 0 488 0zm-14 283V63h-2c-62 51-107 115-141 193 46 16 92 26 143 27zm173-27c-35-78-79-142-141-193h-2v220c50-1 96-11 143-27zm-453-73h-1c34 27 71 47 109 63 31-70 70-129 118-177-87 13-162 51-226 114zm590 0C720 121 647 83 557 68c51 50 90 109 118 177 40-17 75-37 109-62zm-495 93h1c-42-19-80-40-119-69-70 76-104 164-108 265h189c3-68 16-134 37-196zm437 196h189c-4-102-39-190-109-265-38 29-77 50-119 69 23 62 36 128 39 196zM505 315v156h189c-1-64-13-126-34-186-50 17-101 27-155 30zm-31-1l1 1c-54-3-105-13-155-30-23 60-34 122-35 186h189V314zm205 414c40 16 76 37 111 61 79-79 121-172 126-285H727c-1 79-17 153-48 224zM254 504l-191-1c7 114 49 207 127 285 35-25 73-44 111-60-29-71-44-145-47-224zm250 188l-2-1c50 3 98 12 145 27 27-70 43-139 46-215H504v189zm-33-1l-1-188H281c1 76 17 145 45 215 46-15 94-24 145-27zm30 32v189h2c54-46 94-99 129-167-42-12-85-19-131-22zm-161 22c34 68 74 121 129 167h2V723c-47 3-89 10-131 22zm421 65l1-1c-31-21-64-39-102-52-27 58-63 106-106 150 80-13 148-46 207-97zm-550-1v-1c59 51 127 84 206 97-43-44-78-93-106-149-35 15-69 30-100 53z"/></svg>
