<svg xmlns="http://www.w3.org/2000/svg" viewBox="0 -192 1134 1008"><path fill="currentColor" d="M752 130l-2 1c87 86 130 189 130 311 0 72-17 143-55 213 7 4 12 8 16 11l130 126c20 20 38 61 38 90 0 36-14 68-37 92-24 23-56 37-92 37-29 0-70-18-90-38L664 843c-3-4-7-9-11-16-68 36-136 55-212 55-123 0-226-43-312-129S0 564 0 441s43-225 129-311C216 43 319 0 441 0s225 43 311 130zM216 665v1c62 62 136 92 223 92 79 0 146-25 205-76 12-19 26-33 39-40l4-3c46-59 67-123 67-197 0-88-30-161-92-223s-135-92-223-92c-87 0-161 30-223 92s-92 135-92 223c0 87 30 161 92 223zm34-285h126V254h126v126h126v126H502v126H376V506H250V380z"/></svg>
