<svg xmlns="http://www.w3.org/2000/svg" viewBox="-1 -202 706 1008"><path fill="currentColor" d="M588 471l-3-1c0 32-5 61-14 92l31 31c7 7 16 19 31 34l32 32c27 25 39 56 39 92 0 35-12 67-39 92-25 27-55 40-91 40-38 0-69-12-94-39l-95-94c-32 9-62 15-91 15-82 0-151-28-209-86S-1 553-1 470c0-82 28-151 86-207 58-58 127-86 209-86 83 0 152 28 208 86 58 58 86 126 86 208zM291 261c-59 0-108 19-150 61-40 42-61 91-61 149 0 59 21 109 61 151 42 40 91 61 150 61s108-21 150-61c42-42 61-92 61-151 0-58-19-107-61-149s-91-61-150-61zm20 105v83h85c13 0 20 10 20 21 0 12-7 22-20 22h-85v83c0 13-7 21-20 21-12 0-21-9-21-21v-83h-85c-13 0-20-7-20-22s7-21 20-21h85v-83c0-12 9-22 21-22 13 0 20 7 20 22z"/></svg>
