<svg xmlns="http://www.w3.org/2000/svg" viewBox="-1 -202 706 1008"><path fill="currentColor" d="M588 471l-2 1c0 29-4 59-15 91l94 96c27 25 39 56 39 92 0 35-12 67-39 92-25 27-55 40-91 40-35 0-65-9-89-34l-101-99c-32 9-61 15-90 15-82 0-151-28-209-86S-1 553-1 470c0-82 28-151 86-207 58-58 127-86 209-86 83 0 152 28 208 86 58 58 86 126 86 208zM292 263c-59 0-108 19-150 61-40 42-61 91-61 149 0 59 21 109 61 151 42 40 91 61 150 61s108-21 150-61c42-42 61-92 61-151 0-58-19-107-61-149s-91-61-150-61zm20 105v83h85c13 0 20 10 20 21 0 12-7 22-20 22h-85v83c0 13-11 20-20 20-11 0-21-7-21-20v-83h-83c-15 0-21-10-21-22 0-11 6-21 21-21h83v-83c0-13 10-21 21-21 9 0 20 8 20 21zm308 385h1c0-15-6-25-14-34L502 614c-19 27-41 49-69 68l106 105c9 8 21 13 34 13 27 0 47-22 47-47z"/></svg>
