<svg xmlns="http://www.w3.org/2000/svg" viewBox="0 0 75.9 57.5"><path d="M49.4 28.7c.6 6.2 5.8 11.1 12.1 11.1s11.6-4.9 12.1-11.1H49.4zm3.9-2.2h16.5l-8.3-17-8.2 17zm-51 2.2c.5 6.2 5.7 11.1 12.1 11.1 6.3 0 11.6-4.9 12.1-11.1H2.3zm3.8-2.2h16.5l-8.3-17-8.2 17zm45.8 31H24.1c-.6 0-1.1-.5-1.1-1.1 0-.6.5-1.1 1.1-1.1h12.8V8.1H16.2l9 18.4h2.6c.6 0 1.1.5 1.1 1.1 0 7.9-6.5 14.4-14.4 14.4C6.5 42 0 35.5 0 27.6c0-.6.5-1.1 1.1-1.1h2.6l9.7-20c.2-.4.5-.6 1-.6h22.5V1.1C36.8.5 37.3 0 38 0c.6 0 1.1.5 1.1 1.1v4.7h22.4c.4 0 .8.2 1 .6l9.7 20h2.6c.6 0 1.1.5 1.1 1.1 0 7.9-6.5 14.4-14.4 14.4s-14.4-6.5-14.4-14.4c0-.6.5-1.1 1.1-1.1h2.6l9-18.4H39.1v47.2h12.8c.6 0 1.1.5 1.1 1.1 0 .7-.5 1.2-1.1 1.2z"/></svg>
