<svg xmlns="http://www.w3.org/2000/svg" viewBox="0 -168 1008 1008"><path fill="currentColor" d="M295 754c57 57 128 87 209 87s150-30 207-87 86-128 86-209c0-80-29-149-86-206s-126-87-207-87-152 30-209 87-84 126-84 206c0 81 27 152 84 209zm-59-474c74-75 164-113 268-113s194 38 268 113c72 73 110 161 110 265 0 105-37 194-110 268-73 73-164 110-268 110s-195-37-268-110c-73-74-110-163-110-268 0-104 38-192 110-265zm227 309V337h63v220l167 99-31 51zM85 240L278 79l53 63-193 161zm592-98l53-63 193 161-53 65z"/></svg>
