<svg xmlns="http://www.w3.org/2000/svg" viewBox="0 -189 620 1008"><path fill="currentColor" d="M53 939c-29 0-53-24-53-53V173c0-29 24-53 53-53h148V85c0-11 5-16 16-16h187c11 0 15 5 15 16v35h148c31 0 53 24 53 53v713c0 29-22 53-53 53H53zm467-100V220h-49v32c0 12-7 18-20 18H169c-12 0-19-6-19-18v-32h-50v619h420zM163 453c-8 0-13-4-13-12v-26c0-9 5-13 13-13h24v2l2-2c8 0 12 4 12 13v26c0 8-4 12-12 12h-26zm294-51c9 0 14 4 14 13v26c0 8-5 12-14 12H264c-9 0-14-4-14-12v-26c0-9 5-13 14-13h193zM163 553c-8 0-13-4-13-12v-25c0-9 5-14 13-14h24v2l2-2c8 0 12 5 12 14v25c0 8-4 12-12 12h-26zm294-51c9 0 14 5 14 14v25c0 8-5 12-14 12H264c-9 0-14-4-14-12v-25c0-9 5-14 14-14h193zM163 654c-8 0-13-4-13-12v-26c0-8 5-12 13-12h26c8 0 12 4 12 12v26c0 8-4 12-12 12h-26zm294-50c9 0 14 4 14 12v26c0 8-5 12-14 12H264c-9 0-14-4-14-12v-26c0-8 5-12 14-12h193z"/></svg>
