<svg xmlns="http://www.w3.org/2000/svg" viewBox="0 0 1032.2 713.5" overflow="scroll"><style>.st0{fill:#3e3a39}</style><path class="st0" d="M301 666.3c-26.9-15.9-28-51.8-27.9-79.7l2-452.1c.2-35.2 8.3-72 43.5-87.3 18.5-8.1 40.6-11.5 60.7-11.5H405V17H0v18.8h25.7c48.3 0 101.1 22.6 113.8 72.5 11.6 45.2 4.8 92.7 4.8 138.7v329.5c0 34-5.3 68-35.7 87.7-24 15.6-55.1 21.3-82.9 21.3H0v18.8h405v-18.8h-25.7c-24.9-.1-56.7-6.4-78.3-19.2z"/><path class="st0" d="M515.2 301.3l-36.4-118.7-34 120.7-133.3-8.4 93.4 69.8L354.5 495l121.3-79.3L592.6 485l-36.5-131.2 85.4-58.4z"/><path class="st0" d="M650.1 0C511.3 0 389.8 69.2 322.9 172.6c46.9-39.3 108.9-63.2 176.8-63.2 146.3 0 264.9 110.7 264.9 247.4S646 604.1 499.7 604.1c-68 0-129.9-23.9-176.8-63.2 66.9 103.4 188.4 172.6 327.3 172.6 211 0 382-159.7 382-356.7S861.1 0 650.1 0z"/></svg>
