<svg xmlns="http://www.w3.org/2000/svg" viewBox="0 0 568.33 566.93"><path d="M334.88 199.05c-6 1.4-8.8 6-8.8 13v52.01h-.8c-.8-.8-1.2-1.4-1.8-2.6-13.6-18.8-27.81-37.41-41.41-56.21-.8-1.2-1.8-2.2-2.6-3.4-3.6-3.4-8.6-4-13-1.8-4.8 2.6-6.6 6.6-6.6 11.8v87.02c0 5.2 3 9.6 7.8 11 7.8 2.6 15.2-3 15.6-11.4v-50.01-4c1.2 1.4 1.8 2.6 2.6 3.4 8.2 10.8 16 21.8 24.01 32.61 6 8.2 12.2 16.6 18.2 24.81 4 5.6 10.4 7 16.2 3.4 4-2.6 5.2-6.6 5.2-11.4v-85.42c0-1.2 0-2.6-.4-3.6-1.2-6.61-7.8-10.61-14.2-9.21zM242.86 242.06v-31.41c0-5.6-3.4-9.2-8.2-10.8-8.2-2.2-14.8 3.4-14.8 12.6v85.02c0 1.4 0 3.4.4 4.8 1.2 5.2 6.2 8.6 11.4 8.6s10-3.6 11-8.8c.4-1.8.4-3.4.4-5.2-.4-13.6-.4-27.41-.4-41.41.2-4.6.2-9 .2-13.4zM197.24 288.27h-11.8c-6.6-.4-13.6-.4-20.8-.4v-3.6-72.22c0-7.4-4.8-12.6-11.4-12.6s-11.8 4.8-11.8 12.2v87.62c0 7.4 5.2 11.8 12.2 12.2h43.61c6.6 0 11.8-5.2 11.4-11.8 0-6.2-5.2-11-11.41-11.4zM419.7 287.87h-31.61v-20.8h24.01c3.6 0 7 0 10.8-.4 6-1.2 10-7 8.8-13-1.2-6.2-5.6-9.6-12.6-10H387.89v-21h30.41c1.4 0 3.4 0 4.8-.4 5.6-1.4 9.2-6.6 8.6-12.2-.8-6.2-5.6-10.8-12.2-10.8h-43.01c-7.4 0-12.2 4.8-12.2 12.6v86.22c0 8.2 4.8 12.6 13 12.6h42.21c7.4 0 12.6-4.8 12.6-11.4.2-6.62-5-11.42-12.4-11.42z"/><path d="M521.52 0H46.81C21 0 0 21 0 46.81v473.31c0 25.81 21 46.81 46.81 46.81h474.71c25.81 0 46.81-21 46.81-46.81V46.81C568.33 21 547.32 0 521.52 0zm-16.4 270.46c-3.4 27.41-14.4 51.81-31.01 73.62-18.8 25.21-41.81 46.61-66.62 66.22-34.81 27.81-71.82 53.01-110.23 75.22-6 3.4-12.6 6-18.8 8.8-1.4.8-3 .8-4.8 1.2-7.4.8-10.8-2.6-9.6-10 1.2-7.8 2.6-15.2 3.4-23.01.8-5.6.8-11 .8-16.6 0-5.2-3-8.6-7.4-11-6-3.4-12.6-4.4-19.2-5.6-50.41-8.6-95.02-28.41-131.43-65.21-24.01-24.41-40.41-53.61-45.81-87.62-5.6-34.01 0-65.81 16.2-96.22 18.4-34.81 46.61-60.01 80.62-78.42 30.01-16.2 62.61-25.81 96.62-28.81 8.8-.8 17.8-1.2 22.21-1.4 51.01.4 95.02 11 135.83 35.21 30.81 18.2 55.81 42.21 72.62 74.02 14.79 27.79 20.6 57.79 16.6 89.6z"/></svg>
