<svg xmlns="http://www.w3.org/2000/svg" viewBox="0 0 26.8 11.7" overflow="scroll"><style>.st0{fill:#040000}</style><path class="st0" d="M26.7 7.9c-.4-1.5-1.9-2.7-3.5-2.9-.6-.1-.9 0-1 .1l-.2-.6c-.8-1.9-2.5-2.8-4-3.4-2.5-1-6-1.8-9.1-.3C6.5 2 6.1 5.2 6.1 5.2c-.1.3-.2.3-.2.3-.4-.1-.5-.5-.6-.8-.2-.4-.3-.9-.8-1-.5-.2-1.2-.1-2 .3-.7.2-1.3.6-1.7 1.2-.5.6-.8 1.5-.8 2.3 0 .9.7 1.4 1.4 1.9s1.6.9 2.4 1c0 0 1.6.2 1.9 0l.1-.1s.1-.9.7-1.4c0 0 .1 0 .1-.1.3-.2.7-.4 1.2-.5.2-.1.4-.1.6-.2.2 0 .5-.1.7-.1.4-.1.9-.2 1.4-.3 1.7-.2 3.4-.3 5.3-.2.8 0 1.7.1 2.5.3.3 0 .5.1.8.1.6.1 1.1.1 1.6.4.6.3 1.1.7 1.3 1.1.2.4.3.9.3 1.4v.5c0 .3.2.3.2.4h.2c.2 0 .4-.1.6-.1h.2c.3-.1.6-.1.8-.2.5-.2 1-.4 1.4-.7.9-.8 1.3-1.8 1-2.8zm-4.5 1.4c-.3-.5-.8-1-1.4-1.2-.5-.2-1.1-.3-1.7-.4-.3 0-.5-.1-.8-.1-.9-.2-1.8-.2-2.5-.3h-1.6c-1.3 0-2.6.1-3.8.3-.4 0-.9.1-1.4.2-.2 0-.4.1-.6.1-.3.1-.5.2-.7.3-.5.1-.9.3-1.2.5l-.1.1c-.7.5-.8 1.3-.8 1.5-.2.1-1.1 0-1.8-.1-.8-.1-1.6-.4-2.3-.9C.8 8.8.2 8.3.2 7.5s.2-1.6.7-2.2c.4-.5.9-.9 1.6-1.1.9-.4 1.5-.5 1.9-.4.4.1.5.5.7.9.1.4.3.8.7 1H6c.1-.1.2-.2.3-.5 0 0 .4-3.1 2.7-4.2 2-1 4.2-.9 6.2-.5-.7-.1-1.4-.1-1.9-.2h-.8c-1.3 0-2.9.3-4.1 1.1-1.7 1.2-2 3.1-2.1 3.9 0 .8.1 1.3-.3 1.3-.3.1-1.3-1.3-1.5-1.7-.2-.4-.3-.7-1.3-.2-1 .5-.9.6-.9.6s-.9-.3-1 .8c0 0-1.5 1.2-.3 2.2s2.6 1.5 3.7 1.5c0 0 .7.2.6-.5 0 0-.1-.7.9-1.3s2-1 2.7-1.1c.6-.1 1.3-.4 2.4-.4s5.3 0 7.1.3c1.8.3 3.2.7 3.7 1.3.4.6.6 1.6.5 2v.1c-.2-.3-.2-.6-.4-.9zM3 6.3c.3 0 .5.2.5.5s-.2.6-.5.6-.6-.2-.6-.5.3-.6.6-.6zm-.9.2c-.4 0-.6-.2-.6-.5s.2-.5.5-.5.5.2.5.5c.1.3-.1.5-.4.5zm1.7.7c.3 0 .5.2.5.5s-.2.5-.5.5-.5-.2-.5-.5.2-.5.5-.5zm1.1.6c.3 0 .5.2.5.5s-.2.5-.5.5-.5-.2-.5-.5.2-.5.5-.5zm4-2.5c0 .2.2.3.3.3.4.2.8.4 1.1.8 0 0 .1 0 0 .1s-.3.1-.5.2c-.3 0-.5.1-.8.1-.1 0-.2 0-.2-.1-.2-.3-.4-.8-.2-1.2 0-.2.2-.6.4-.6 0 .1-.2.2-.1.4zm12.5.4c.9.5.8 1.8.3 1.9-.5 0-.8-.3-.8-.3.9-.4.5-1.6.5-1.6zm4.2 4.8c-.4.3-.8.5-1.3.7-.3.1-.5.2-.8.2h-.2c-.2.1-.6.1-.7.1 0 0-.1 0-.1-.2v-.5c.2.2.6.2 1.9-.2 2.3-.7 2-2.8.9-4 0 0-.9-1-2.3-.6l-.6.3c-.1.1-.4-.5-.3-.7.1-.2-.4-1.6-1.1-2.2-.3 0-.7 0-.9-.1l.1.6c.1.3.3.7.3 1-.1.5-.7.7-1.1.7-.3 0-.9-.3-1.1-.1 0 0-.1.2.2.7.2.5 0 .4 0 .4s-.3.1-.7 0c0 0 .1-.7 0-1.1H17l-.2-.2c-.2-.1-.4.4-.6.5-.4.3-.8-.3-.9-.6 0 0-.2-.3-.6.2 0 0-.1.1-.2 0s-.4-.5-.8.1c0 0-.2.5-.2.9h-1s.2-.9.2-1.3-.9-.2-1.1-.1c0 0-.8.5-.8-.7 0 0 0-.4.4-1 0 0 .7-1 .7-1.1 0-.1-.6.1-1.1.2-.5.1-2.5.6-3 .8-.8.3-.8.4-.8.4s.1-1 .8-1.2c0 0 2.7-1 4.3-.6 0 0 .2 0 0 .3s-1 1.9-1 1.9.2.6.6.5c.4-.1.4-1.3.8-1.5 0 0 .1-.1.2 0s-.3.6 0 1.1c0 0 .4.9 1.1.2l.2-.4s-.3.1-.5-.1c0 0-.1-1.1.8-1.5.3-.2 1.5-.8 1.8-.3.1.2.2.5.4.7l-.1-.1c-.4-.2-1-.1-1.2.3-.2.4-.1 1 .3 1.2s1 .1 1.2-.3c.2-.3.1-.6 0-.8.1.1.2.2.3.2 0 0 .8.3.7.8 0 0 0 .5-.2.6l-.3-.1s.1.6.6.4c.7-.3.5-.9.8-1.4.3.3.2.7.2 1.1 0 .4.2.7.6.5 0 0 .5-.4 0-1.6 0 0-.7-1-.4-1.2 0 0 .1 0 .3-.1.4.1.9.4 1.1.4.6.5 1.1 1.1 1.4 1.9l.3.8.1-.1s.3-.2 1-.1c1.5.2 2.9 1.4 3.3 2.8.3 1 0 1.9-.9 2.6zm-2.8-1.6c0-.3.2-.5.3-.5.2 0 .3.2.3.5s-.2.5-.3.5c-.2-.1-.3-.3-.3-.5zm1.6-.8c0 .3-.2.5-.3.5-.2 0-.3-.2-.3-.5s.2-.5.3-.5c.2 0 .3.3.3.5zm0-1c0-.3.2-.5.3-.5s.3.2.3.5 0 .5-.2.5-.4-.2-.4-.5z"/></svg>
