<svg xmlns="http://www.w3.org/2000/svg" viewBox="0 -144 1008 1008"><path fill="currentColor" d="M988 254l-52 52-162-162 52-52c21-21 55-21 76 0l86 86c21 21 21 55 0 76zM360 558l378-378 162 162-378 378H360V558zm432 37v107c0 89-73 162-162 162H162C73 864 0 791 0 702V234C0 145 73 72 162 72h468c23 0 45 5 66 14 5 2 9 7 10 13s-1 12-5 16l-28 28c-5 5-11 7-18 4-8-2-17-3-25-3H162c-49 0-90 41-90 90v468c0 49 41 90 90 90h468c49 0 90-41 90-90v-71c0-4 2-9 5-12l36-36c6-6 13-7 20-4s11 9 11 16zm-45-334c-5-5-14-4-19 1L532 458c-5 5-6 14-1 19s14 4 19-1l196-196c5-5 6-14 1-19zM468 666h32l65-65-86-86-65 65v32h54v54z"/></svg>
