<svg xmlns="http://www.w3.org/2000/svg" viewBox="0 0 45.9 55.4"><style>.st0{fill:#514f4e}</style><circle class="st0" cx="22.7" cy="13.6" r="13.6"/><path class="st0" d="M40.8 26.8c-.5-.5-.9-.9-1.4-1.3-2.1-1.7-5.2-1.7-7.1.3-2.5 2.4-5.8 3.9-9.5 3.9-3.6 0-6.8-1.4-9.3-3.7-2-1.9-5.1-1.9-7.2-.1-3.3 2.8-5 7-5.6 11.2-.7 4.4-1.5 10.4 1 14.3 1.6 2.5 4.4 4 7.3 4h27.9c6.2 0 8.5-5.2 8.8-10.7.5-6.4-.3-13.1-4.9-17.9zM23 49.9c-4.4 0-8-3.6-8-8s3.6-8 8-8 8 3.6 8 8c-.1 4.5-3.7 8-8 8z"/><path class="st0" d="M27.5 40.8h-3.3v-3.3c0-.7-.5-1.2-1.2-1.2s-1.2.5-1.2 1.2v3.3h-3.3c-.7 0-1.2.5-1.2 1.2s.5 1.2 1.2 1.2h3.3v3.3c0 .7.5 1.2 1.2 1.2s1.2-.5 1.2-1.2v-3.3h3.3c.7 0 1.2-.5 1.2-1.2s-.6-1.2-1.2-1.2z"/></svg>
