<svg xmlns="http://www.w3.org/2000/svg" viewBox="0 -144 1008 1008"><path fill="currentColor" d="M327 771c0 50-41 90-90 90-50 0-90-40-90-90 0-49 40-90 90-90 49 0 90 41 90 90zm267 111c0 49-41 90-90 90s-90-41-90-90 41-90 90-90 90 41 90 90zM216 504c0 49-41 90-90 90s-90-41-90-90 41-90 90-90 90 41 90 90zm129-267c0 59-49 108-108 108-60 0-108-49-108-108 0-60 48-108 108-108 59 0 108 48 108 108zm516 534c0 50-40 90-90 90-49 0-90-40-90-90 0-49 41-90 90-90 50 0 90 41 90 90zm111-267c0 49-41 90-90 90s-90-41-90-90 41-90 90-90 90 41 90 90zM630 126c0 69-57 126-126 126s-126-57-126-126S435 0 504 0s126 57 126 126zm285 111c0 79-65 144-144 144s-144-65-144-144S692 93 771 93s144 65 144 144z"/></svg>
