<svg xmlns="http://www.w3.org/2000/svg" viewBox="0 0 318 222.8"><path d="M315.2 98l-53.5-67c1-1.2 1.7-2.8 1.7-4.5 0-3.8-3-6.8-6.8-6.8s-6.8 3.1-6.8 6.8c0 1.7.7 3.3 1.7 4.5L198 98h-2.8c0 29.4 27.5 53.2 61.4 53.2S318 127.4 318 98h-2.8zM201 98l52.3-65.5c1 .5 2 .8 3.2.8 1.2 0 2.3-.3 3.2-.8L312.1 98H201zM120 98L66.5 31c1-1.2 1.7-2.8 1.7-4.5 0-3.8-3.1-6.8-6.8-6.8-3.8 0-6.8 3.1-6.8 6.8 0 1.7.7 3.3 1.7 4.5L2.8 98H0c0 29.4 27.5 53.2 61.4 53.2s61.4-23.8 61.4-53.2H120zM5.9 98l52.3-65.5c1 .5 2 .8 3.2.8 1.2 0 2.3-.3 3.2-.8L116.9 98H5.9z"/><path d="M259.5 26.9v-4.8h-98.1v-.2c4.9-1.1 8.7-5.5 8.7-10.8C170.1 5 165.1 0 159 0s-11.1 5-11.1 11.1c0 5.3 3.7 9.7 8.7 10.8v.2H58.4v4.8h98.1v171h-15.3v9.5H59.9v15.4H258v-15.4h-81.3v-9.5h-15.3v-171h98.1zM159 17.3c-3.4 0-6.2-2.8-6.2-6.2 0-3.4 2.8-6.2 6.2-6.2 3.4 0 6.2 2.8 6.2 6.2 0 3.4-2.8 6.2-6.2 6.2z"/></svg>
