<svg xmlns="http://www.w3.org/2000/svg" viewBox="0 0 57.5 57.5"><path d="M13.8 23.4c.2 0 .4.1.6.2l4 2.5c.8.5 2.1.3 2.7-.3l4.7-4.7c.6-.6.8-1.9.3-2.7l-2.5-4c-.1-.2-.2-.4-.2-.7.3-3.1-.9-6.2-3.1-8.4-2-2-4.7-3.1-7.5-3.1S7.3 3.3 5.3 5.3c-4.1 4.1-4.1 10.9 0 15 2.2 2.2 5.3 3.3 8.5 3.1zM38 31.1c-.6 0-1.2.2-1.5.6l-4.7 4.7c-.6.6-.8 1.9-.3 2.7l2.5 4c.1.2.2.4.2.7-.3 3.1.9 6.2 3.1 8.4 2 2 4.7 3.1 7.5 3.1s5.5-1.1 7.5-3.1 3.1-4.7 3.1-7.5-1.1-5.5-3.1-7.5c-2.2-2.2-5.3-3.3-8.4-3.1-.2 0-.5 0-.7-.2l-4-2.5c-.4-.1-.8-.3-1.2-.3zm-6.3 2.2l-7.5-7.5-1.6 1.6c-.8.8-1.9 1.2-3.1 1.2-.9 0-1.7-.2-2.3-.6l-3.7-2.3c-3.7.2-7.2-1.2-9.7-3.7-5-5-5-13.1 0-18.1C6.2 1.3 9.4 0 12.8 0s6.6 1.3 9.1 3.8c2.6 2.6 3.9 6.1 3.7 9.7l2.3 3.7c1.1 1.7.8 4.1-.6 5.4l-1.6 1.6 7.5 7.5 1.6-1.6c.8-.8 1.9-1.2 3.1-1.2.8 0 1.7.2 2.3.6l3.7 2.3c3.7-.2 7.2 1.2 9.7 3.7 2.4 2.4 3.8 5.6 3.8 9.1 0 3.4-1.3 6.6-3.8 9.1-2.4 2.4-5.6 3.8-9.1 3.8-3.4 0-6.6-1.3-9.1-3.8-2.6-2.6-3.9-6.1-3.7-9.7l-2.3-3.7c-1.1-1.7-.8-4.1.6-5.4l1.7-1.6zm3.4 1.8c.6-.6 1.6-.6 2.2 0 .6.6.6 1.6 0 2.2-.6.6-1.6.6-2.2 0-.7-.6-.7-1.6 0-2.2zm9.6 18c-2.2 0-4.3-.9-5.9-2.5-1.6-1.6-2.5-3.7-2.5-5.9s.9-4.3 2.5-5.9c1.6-1.6 3.7-2.5 5.9-2.5s4.3.9 5.9 2.5 2.5 3.7 2.5 5.9-.9 4.3-2.5 5.9c-1.6 1.6-3.7 2.5-5.9 2.5zm0-14.6c-1.6 0-3.2.6-4.4 1.8-1.2 1.2-1.8 2.7-1.8 4.4 0 1.6.6 3.2 1.8 4.4 1.2 1.2 2.7 1.8 4.4 1.8s3.2-.6 4.4-1.8c1.2-1.2 1.8-2.7 1.8-4.4 0-1.7-.6-3.2-1.8-4.4-1.2-1.2-2.8-1.8-4.4-1.8zM12.8 21.2c-2.2 0-4.3-.9-5.9-2.5a8.39 8.39 0 0 1 0-11.9c1.6-1.6 3.7-2.5 5.9-2.5s4.3.9 5.9 2.5c3.3 3.3 3.3 8.6 0 11.9-1.5 1.6-3.7 2.5-5.9 2.5zm0-14.6c-1.6 0-3.2.6-4.4 1.8-2.4 2.4-2.4 6.3 0 8.7 1.2 1.2 2.7 1.8 4.4 1.8 1.6 0 3.2-.6 4.4-1.8 2.4-2.4 2.4-6.3 0-8.7-1.2-1.1-2.7-1.8-4.4-1.8zm7.4 13.6c.6-.6 1.6-.6 2.2 0 .6.6.6 1.6 0 2.2-.6.6-1.6.6-2.2 0-.6-.6-.6-1.6 0-2.2z"/></svg>
