<svg xmlns="http://www.w3.org/2000/svg" viewBox="0 -144 1152 1008"><path fill="currentColor" d="M1152 162v684c0 49-41 90-90 90H864v-54c0-10-8-18-18-18h-36c-10 0-18 8-18 18v54H360v-54c0-10-8-18-18-18h-36c-10 0-18 8-18 18v54H90c-49 0-90-41-90-90V162c0-49 41-90 90-90h972c50 0 90 41 90 90zm-144 180v-36c0-10-8-18-18-18H666c-10 0-18 8-18 18v36c0 10 8 18 18 18h324c10 0 18-8 18-18zm0 142v-32c0-11-9-20-20-20H668c-11 0-20 9-20 20v32c0 11 9 20 20 20h320c11 0 20-9 20-20zm0 146v-36c0-10-8-18-18-18H666c-10 0-18 8-18 18v36c0 10 8 18 18 18h324c10 0 18-8 18-18zM488 344c0-71-58-128-128-128s-128 57-128 128 58 127 128 127 128-56 128-127zm88 292c0-87-21-184-110-184-28 16-65 43-106 43s-78-27-106-43c-89 0-110 97-110 184 0 49 32 84 72 84h288c40 0 72-35 72-84z"/></svg>
