<svg xmlns="http://www.w3.org/2000/svg" viewBox="0 0 897 1083.5" overflow="scroll"><style>.st0{fill:#fff}</style><path class="st0" d="M484.7 651.6c1.5-7.9 1.1-15.8.6-23.9-10.6-169.6 104.4-234.3 253.2-240.5 14.8-.6 110.8-2.5 83.9-2.5C601.6 384.4 477.7 217.3 519.1 0c-54 283.5-263.2 351-263.2 351 54.2-9 141.5 69 168.1 111.8 19.4 31.2 67.3 153.9 60.7 188.8zM893.2 869.2c-177.5-.3-277-134.4-243.7-309C606.1 787.8 438.1 842 438.1 842c43.5-7.2 113.7 55.4 135 89.8 15.6 25.1 54.1 123.7 48.8 151.7 1.2-6.3.9-12.7.5-19.2-8.5-136.2 83.9-188.2 203.4-193.1 11.9-.5 89-2 67.4-2zM178.7 455.3C142 647.7 0 693.5 0 693.5c36.8-6.1 96.1 46.9 114.1 75.9 13.2 21.2 45.7 104.5 41.3 128.2 1-5.4.7-10.7.4-16.2-7.2-115.1 70.9-159.1 171.9-163.2 10.1-.4 75.2-1.7 57-1.7-150-.3-234.1-113.7-206-261.2z"/></svg>
