<svg xmlns="http://www.w3.org/2000/svg" viewBox="-10 -189 1008 1008"><path fill="currentColor" d="M984 332c8 0 14 4 18 10 4 5 5 14 2 21l-16 47c-2 10-10 16-21 16h-57c19 12 35 28 47 47 12 20 18 42 18 65v95c0 31-10 59-32 83v122c0 14-4 25-14 35s-21 14-35 14h-95c-13 0-25-4-35-14s-14-21-14-35v-79H246v79c0 14-4 25-14 35s-21 14-35 14h-95c-13 0-25-4-35-14s-14-21-14-35V716c-21-24-31-52-31-83v-95c0-23 6-45 17-65 12-19 28-35 48-47H30c-12 0-20-6-22-16l-16-47c-2-7-2-16 2-21 4-6 10-10 18-10h108l16-42c18-48 49-88 92-118 44-29 91-45 144-45h240c53 0 101 16 144 45 43 30 74 70 93 118l15 42h120zm-730 4l-30 74h536l-30-74c-10-26-25-46-47-61-21-16-45-24-71-24H372c-25 0-49 8-71 24-21 15-37 35-47 61zm-93 311h8c26 0 46-2 57-4 20-4 30-14 30-28 0-17-12-37-35-61-24-23-44-35-62-35-17 0-33 6-45 17-12 12-18 28-18 46 0 17 6 33 18 45s26 18 44 18zm658-2c18 0 32-6 43-18 12-12 18-26 18-43 0-18-6-32-18-44-11-11-27-17-45-17s-37 12-61 35c-24 24-35 43-35 61 0 14 9 24 29 28 12 2 32 4 57 4z"/></svg>
