<svg xmlns="http://www.w3.org/2000/svg" viewBox="0 -192 1008 1008"><path fill="currentColor" d="M0 798c39 28 94 50 163 65 65 15 136 20 213 20s148-5 213-20c69-15 124-37 163-65v85c0 22-18 43-51 63-34 20-79 35-136 47s-120 18-189 18-132-6-189-18-102-27-136-47c-33-20-51-41-51-63v-85zm630-545c-69 0-132-6-189-18s-102-27-136-47c-33-20-51-41-51-63s18-43 51-63c34-20 79-35 136-47S561-3 630-3s132 6 189 18 102 27 136 47c33 20 51 41 51 63s-18 43-51 63c-34 20-79 35-136 47s-120 18-189 18zM0 592c39 33 95 58 163 76 67 18 138 26 215 26s148-8 215-26c68-18 124-43 163-76v102c0 22-18 43-51 63-34 20-79 35-136 47s-120 18-189 18-132-6-189-18-102-27-136-47c-33-20-50-41-51-63zm823 21V489c83-14 146-37 189-69v85c0 22-18 43-51 63-34 20-79 35-136 45h-2zM384 316c69 0 132 8 189 22 57 13 102 33 136 57 33 23 51 49 51 78 0 30-18 56-51 79-34 24-79 44-136 57-57 14-120 22-189 22s-132-8-189-22c-57-13-102-33-136-57-33-23-51-49-51-79 0-29 18-55 51-78 34-24 79-44 136-57 57-14 120-22 189-22zm431 110c-16-45-55-82-118-112 67-2 126-10 179-24 57-14 102-33 136-57v85c0 24-18 45-53 65-36 20-85 35-146 45z"/></svg>
