<svg xmlns="http://www.w3.org/2000/svg" viewBox="0 0 49.71 14"><style>.st0{fill:#fff}</style><path class="st0" d="M22.44 3.74c.1-.12.23-.38.34-.38.3.02.61.13.9.25.06.03.09.22.09.34-.01 1.17-.03 2.35-.03 3.52 0 .29.06.58.15.85.16.49.56.56.89.15.26-.32.39-.68.34-1.12-.11-.89-.04-1.78.27-2.64.19-.52.48-.96.93-1.3.6-.45 1.36-.38 1.87.18.06.07.12.14.18.2.03-.02.06-.03.06-.04.07-.47.12-.51.61-.41.1.02.2.05.3.08.25.06.34.22.33.48-.03 1.21-.03 2.43-.05 3.64v.32c.03.02.07.03.1.05.02-.05.04-.1.07-.14.55-.82 1.02-1.68 1.3-2.64.06-.22.07-.4-.11-.59-.27-.29-.23-.65-.09-1a.76.76 0 0 1 .66-.49c.48-.05.73.19.72.67 0 .08-.01.16-.03.31.28-.05.54-.09.8-.14.19-.03.39-.09.58-.11.63-.07.91.26.78.88-.13.6-.25 1.2-.34 1.8-.1.62-.03 1.23.2 1.8.08.19.28.44.44.45.19.01.43-.16.58-.32.2-.21.28-.48.22-.8-.17-.99-.11-1.97.24-2.91.2-.56.49-1.06 1.04-1.35.63-.33 1.34-.18 1.8.37l.14.17c.07-.16.12-.42.19-.42.29-.02.58.02.86.09.21.05.23.26.23.48-.01 1.22-.02 2.45-.01 3.67 0 .25.08.51.18.75.14.35.49.42.75.15.37-.38.63-.82.63-1.38 0-1.18.01-2.37.01-3.55 0-.39.05-.43.43-.38.04.01.08.01.12.01.61.08.64.12.64.74V5.7c.03 0 .05.01.08.01.05-.15.11-.29.16-.44.19-.51.37-1.03.58-1.54.2-.48.35-.56.77-.47.53.11.8.39.82.83.04.81.07 1.62.11 2.43 0 .06.01.12.08.2.02-.07.05-.13.07-.2.28-.93.53-1.87.83-2.8.16-.48.39-.57.87-.42.17.05.33.12.48.21.25.14.37.36.36.67-.02 1.03-.03 2.05-.01 3.08.01.37.11.74.23 1.09.05.14.26.32.4.32.14.01.35-.15.42-.29.14-.28.2-.61.32-.9.04-.1.16-.18.24-.26.04.1.14.21.12.31-.07.41-.11.82-.26 1.2-.17.46-.54.73-1.06.74-.52.01-.9-.22-1.14-.67-.32-.58-.4-1.22-.43-1.86 0-.62.01-1.23.01-1.84 0-.11 0-.22-.07-.36-.05.09-.11.18-.15.27-.47 1.08-.71 2.21-.8 3.37-.02.21.08.47-.23.58-.32.11-.7.05-.86-.25-.18-.34-.31-.73-.36-1.1-.1-.85-.14-1.72-.2-2.58-.01-.08-.02-.15-.05-.33-.12.17-.21.27-.26.37-.49.97-.68 2.02-.77 3.09-.03.31-.04.62-.05.93 0 .08 0 .19-.05.24-.28.29-.62.16-.94.11-.22-.03-.4-.13-.41-.39-.01-.14-.02-.28-.04-.5-.39.57-.77 1.03-1.46.93-.68-.1-.96-.59-1.13-1.27-.39.66-.84 1.14-1.58 1.26-.79.13-1.28-.26-1.66-.95-.08.12-.13.21-.19.3-.52.81-1.44.9-2.1.2-.44-.48-.66-1.05-.64-1.66.02-.76.13-1.51.2-2.26.01-.11.04-.22.07-.38-.33 0-.63-.01-.93.01-.07.01-.16.12-.19.2-.48 1.38-1.26 2.59-2.16 3.73-.1.12-.15.31-.16.47-.05.93-.05 1.87-.14 2.79-.05.56-.28 1.08-.69 1.5-.58.59-1.51.74-2.25.36-.66-.33-.98-1.11-.62-1.8.26-.52.65-.98 1.04-1.42.39-.44.84-.84 1.29-1.21.3-.25.3-.51.18-.87-.41.57-.91.95-1.6 1-.74.06-1.14-.43-1.53-1-.35.53-.68 1.08-1.42.98-.7-.1-1.01-.59-1.19-1.29-.44.81-1.04 1.34-1.94 1.29-.97-.05-1.28-.83-1.56-1.66-.07.15-.11.24-.16.32-.22.32-.4.69-.68.96-.55.54-1.32.45-1.79-.16-.31-.42-.44-.91-.51-1.42a.503.503 0 0 0-.12-.3c-.07.14-.14.29-.22.43-.46.85-1.05 1.56-2.06 1.76-.62.12-1.25.1-1.83-.15-.19-.08-.48-.34-.45-.47.05-.25.27-.48.45-.69.04-.04.23.01.33.06.19.1.36.26.55.34.45.19.8.01.94-.45.12-.41.05-.79-.22-1.11-.33-.38-.69-.74-1.07-1.15-.11.16-.17.24-.22.33-.4.66-.8 1.31-1.2 1.97-.29.47-.64.9-1.13 1.18-.61.38-1.14.19-1.29-.53-.12-.55-.13-1.13-.13-1.7 0-.83.05-1.66.08-2.49 0-.08-.01-.16-.03-.32-.15.14-.26.23-.34.33-.64.83-1.03 1.77-1.32 2.77-.17.61-.3 1.23-.42 1.85-.05.23-.16.28-.36.27-.71-.03-.88-.19-.88-.93 0-1.64.01-3.28.01-4.92 0-.27.11-.36.36-.31.09.01.19.03.28.05.46.12.51.18.5.66 0 .72-.01 1.43-.01 2.15 0 .08.01.16.07.25.07-.19.13-.4.23-.58.32-.65.61-1.32 1.01-1.92.47-.71 1.03-.77 1.75-.34.29.18.43.42.42.77-.04.95-.07 1.91-.09 2.86-.01.28.01.56.07.83.06.28.26.33.45.13.2-.21.39-.44.54-.68.38-.61.72-1.24 1.09-1.85.09-.15.06-.25-.03-.39-.31-.43-.3-.89-.05-1.35.26-.48.69-.71 1.22-.74.41-.02.64.22.56.63-.06.31-.23.59-.36.88-.07.14-.17.25-.28.4.23.17.44.32.65.49.28.23.57.45.84.7.46.41.69.92.61 1.57.6-.51 1.01-1.11 1.04-1.9.03-.9.01-1.81.02-2.71 0-.21-.06-.3-.28-.29-.33.01-.66-.01-1 0-.2 0-.28-.09-.28-.28-.01-.48.17-.67.65-.66.23.01.46 0 .69.02.21.01.3-.05.3-.28 0-.43.03-.85.05-1.28.01-.33.11-.41.45-.38.06.01.12.01.19.03.74.13.77.18.74.91-.01.34 0 .68 0 1.07.47.03.96.06 1.45.08.43.02.54.19.35.57-.05.1-.21.2-.33.21-.43.04-.87.04-1.31.05-.19 0-.26.07-.26.25-.02 1.36-.07 2.72-.07 4.08 0 .32.09.66.2.97.11.31.39.39.66.19.19-.14.35-.33.47-.53.27-.47.45-.97.45-1.53 0-.83.18-1.63.61-2.35.47-.79 1.25-1.12 1.97-.8.28.13.51.36.72.51zm6.07 2.21c-.1-.47-.16-.96-.33-1.4-.21-.53-.73-.62-1.13-.23-.22.22-.4.51-.5.8-.26.71-.32 1.46-.22 2.2.04.34.12.7.27 1.01.26.53.77.58 1.15.12.18-.22.34-.48.41-.75.15-.56.23-1.14.35-1.75zm8.14.83c.02 0 .03 0 .05.01 0 .12-.02.25 0 .37.08.39.12.81.28 1.17.26.58.79.62 1.18.13.15-.19.28-.42.36-.65.27-.74.36-1.51.26-2.29-.04-.33-.13-.68-.29-.97-.28-.5-.85-.54-1.21-.09-.18.23-.33.51-.39.8-.12.49-.16 1.01-.24 1.52zm-16.31-.11c.03 0 .06.01.09.01 0 .22-.04.44.01.65.08.36.16.74.34 1.05.24.43.69.46 1.01.09.19-.22.36-.49.46-.76.3-.86.36-1.74.2-2.63-.1-.57-.42-.95-.81-.99-.41-.04-.8.26-.97.86-.16.55-.22 1.14-.33 1.72zm8.3 3.45c-.05-.02-.09-.03-.14-.05-.74.66-1.42 1.37-1.77 2.34-.02.05-.03.1-.04.15-.12.61.32 1.05.93.92.46-.09.7-.44.76-.85.13-.82.18-1.67.26-2.51zM2.41.74c-.13.16-.27.31-.39.47-.73.93-.99 2-.83 3.16.04.31.23.59.34.89.04.1.04.21.06.32-.11 0-.22.03-.32 0C.41 5.3-.15 4.32.03 3.38.28 2.06.97 1.03 2.09.28c.48-.32.95-.37 1.47-.11.2.1.31.24.31.49-.01 2.38 0 4.75 0 7.13 0 .6-.07 1.18-.33 1.73-.22.46-.52.85-1.01 1.05-.09.04-.19.02-.29.03 0-.09-.03-.19 0-.26.3-.82.31-1.67.31-2.52l.03-6.63c0-.12-.01-.24-.02-.36C2.5.79 2.45.76 2.41.74z"/></svg>
