<svg xmlns="http://www.w3.org/2000/svg" viewBox="0 0 275.4 375.8" overflow="scroll"><style>.st0{fill:url(#SVGID_1_)}.st1{fill:url(#SVGID_2_)}.st2{fill:url(#SVGID_3_)}.st3{fill:url(#SVGID_4_)}.st4{fill:url(#SVGID_5_)}.st5{fill:url(#SVGID_6_)}</style><linearGradient id="SVGID_1_" gradientUnits="userSpaceOnUse" x1="158.698" y1="315.737" x2="188.94" y2="232.648"><stop offset=".018" stop-color="#72af2d"/><stop offset=".5" stop-color="#b6cf68"/><stop offset="1" stop-color="#d7e0a1"/></linearGradient><path class="st0" d="M167.8 314.5c8.6-1.4 15.2-4.9 19.9-10.6 4.7-5.7 6.5-11.7 5.5-18.1-1-6.4-5.5-12.6-13.3-18.7-5.7-4.4-9.4-7.7-11-9.8-1.6-2.1-2.6-4.4-3-6.9-.5-2.8.1-5.4 1.7-7.6 1.6-2.2 3.6-3.5 6.1-3.9 2.9-.5 6.2 1 9.7 4.5 1.9 1.8 3.3 2.9 4.2 3.3.9.4 2 .5 3.1.3 1.8-.3 3.2-1.1 4.2-2.5 1.1-1.4 1.4-2.9 1.2-4.6-.4-2.7-2.3-4.9-5.5-6.5-3.3-1.6-7.6-2-13-1.1-7.4 1.2-13.1 4.4-17.2 9.6-4.1 5.2-5.6 10.8-4.7 16.7 1 6.5 5.3 12.7 12.7 18.7 5.3 4.3 8.8 7.4 10.5 9.4 1.6 2 2.6 4 3 6.2.4 2.2 0 4.6-1 7.1s-2.7 4.5-5 6-5.1 2.5-8.3 3c-2.8.5-5.2.1-7-1-1.9-1.1-3-2.7-3.3-4.7-.1-.5-.2-1.2-.3-2-.1-1-.2-1.8-.3-2.4-.2-1.5-1.1-2.7-2.4-3.7-1.4-.9-2.9-1.2-4.6-1-1.9.3-3.5 1.3-4.6 2.9-1.1 1.6-1.5 3.5-1.2 5.6.7 4.3 3 7.6 7 10 4.1 2.3 9.7 3 16.9 1.8z"/><linearGradient id="SVGID_2_" gradientUnits="userSpaceOnUse" x1="189.982" y1="379.473" x2="247.11" y2="222.517"><stop offset=".018" stop-color="#72af2d"/><stop offset=".5" stop-color="#b6cf68"/><stop offset="1" stop-color="#d7e0a1"/></linearGradient><path class="st1" d="M259.9 236.6c-.4 1.9-.8 3.4-1 4.6v.1c-.6 2.6-1.8 2-2.5 1.4-2-2.5-4.1-4.1-6.4-4.8-2.9-.9-6.5-.8-10.7.4-5.5 1.5-10.6 4.5-15.4 8.9-4.8 4.4-8.8 9.6-12 15.3-3.2 5.8-5.5 11.9-6.7 18.3-1.2 6.4-1.1 12.4.4 17.9 1.2 4.3 3.4 7.6 6.7 10.2 3.3 2.5 7.2 3.2 11.8 1.9 3-.8 5.8-2.1 8.3-3.8 2.5-1.7 4.7-3.6 6.7-5.8 1.7-1.9 3.3-3.9 4.7-6.1.7-.4 1.8-.2 1.1 4.6 0 .2 0 .3-.1.4-.1.4-.2.8-.4 1.2-1.6 5.5-3.4 11.1-5.4 16.8-2 5.7-4.2 11.3-6.7 16.8-2.5 5.6-5.4 10.7-8.6 15.5-3.2 4.7-6.9 8.8-11 12.2-4.1 3.4-8.8 5.9-14.1 7.3-2.9.8-5.6 1-8.2.7-2.6-.3-4.9-1.1-7-2.3-1.9-1.1-16.6-9.2-11.5-22.9.5-1.2 1.5-2.5 2.8-3.9.7-.3 4.5-4.6 13 3.3 2.1 1.9 3.8 2.9 4.9 3.2 1 .3 2.2.4 3.4.1 1.9-.4 3.3-1.5 4.4-3.1 1-1.6 1.3-3.3.9-5-.7-2.9-2.9-5.1-6.5-6.6-2.2-.9-4.7-1.2-7.7-1.1v-.1c-.2 0-.4.1-.5.1-1.9.1-3.8.3-5.9.8-.4.1-.8.3-1.2.4-.7.2-1.3.3-1.8.4-2.8.8-5.5 2-8 3.5-2.5 1.6-4.6 3.5-6.3 5.7-1.7 2.2-2.8 4.7-3.5 7.4-.6 2.8-.5 5.7.3 8.7 1.1 4 2.9 7.2 5.3 9.5s5.3 3.9 8.6 4.8c3.3.9 22.8 7.6 45.9-8.5 8.7-6.1 12.4-10.8 16.6-16.9 4.3-6.2 8.3-12.2 11.9-19.3 3.5-7.1 8.1-22.2 9.2-25.5 3.6-12.2 6.9-24.4 9.8-36.5 2.9-12.1 6.5-26.1 7.8-31.5 1.3-5.3-13.7-6.1-15.4 1.3zm-7.4 30c-.6 3.8-1.6 7.7-2.8 11.6-1.2 3.9-2.6 7.6-4.2 10.8-1.6 3.3-3.4 6.1-5.4 8.4-2 2.4-4.2 3.9-6.5 4.5-3.8 1-6.6.6-8.3-1.3-1.7-1.9-3.1-4.5-3.9-7.8-1-3.7-1.2-8.3-.6-13.9s1.9-11.2 3.8-16.7 4.4-10.4 7.6-14.7c3.2-4.3 6.8-7 10.9-8.2 1.6-.4 2.9-.5 3.9-.1 1.1.4 2 1 2.7 1.9.7.9 1.3 1.9 1.8 3s.9 2.3 1.2 3.5c.6 2.1.9 4.9.8 8.2 0 3.5-.4 7-1 10.8z"/><linearGradient id="SVGID_3_" gradientUnits="userSpaceOnUse" x1="27.198" y1="279.412" x2="113.962" y2="41.03"><stop offset=".018" stop-color="#72af2d"/><stop offset=".5" stop-color="#b6cf68"/><stop offset="1" stop-color="#d7e0a1"/></linearGradient><path class="st2" d="M143.6 214.1c1.4 7.7 2.4 15.8 3 24.3 6-2.4 8.1-3.1 13.5-6.8 35.9-24.3 30.9-71.7 30.6-73C175.1 59.4 29.4 9.2 0 0c21.4 19.9 33.3 41.7 37.2 68.3 3.7 24.9-.2 51.4-4.9 78.6-4.3 24.9 1.2 47.3 15.9 64.8 19.6 23.3 49.2 31.6 68.5 31.6 2.3 0 4.5-.1 6.6-.3.1 1.6.5 4.7.5 4.7 1.8 30.8-2.9 33.9-7.5 54.9-.6 1.2-1 2.6-.8 4 0 .1-.1.2-.1.3h.1v.3c.8 4.5 5.4 7.6 10.4 7 5-.6 8.3-4.8 7.6-9.2 0-.1 0-.1-.1-.1 3.8-23 3.9-24 2.7-61.6-.7-17.2-1.2-29.4-3.3-40.8-4.6-1.1-26.4-6.9-38.9-19.4 11.2 6.4 33 12.2 37.7 13.6-2-8.9-5.1-17.8-9.9-28.8-5-1.7-19.3-7.2-26.5-16.9 6.5 4.4 17.8 8.5 23.6 10.5-6.5-13.9-15.7-31.3-28.8-55.6 0 0 15.4 14.3 30.2 41.6 2.2-2.2 15-13.7 20.3-22.6-3 12.7-13.7 23.4-17.9 27.2 3.4 6.7 6.8 14.1 9.9 22.2 8.3-6.9 25.3-21.2 29.8-28.6-3.8 12.4-19.4 26.8-27.9 33.8 3.1 8.9 5.9 18.6 8 29 6.9-6 22.3-19.4 26.9-26.9-4.3 12.3-18.9 26.4-25.7 32.5zM85 87.1c-.6 4.7-5.3 7.9-10.4 7.3-5.2-.6-8.9-4.9-8.3-9.5.6-4.6 5.3-7.9 10.4-7.3 5.2.6 8.9 4.9 8.3 9.5z"/></svg>
