<svg xmlns="http://www.w3.org/2000/svg" viewBox="0 0 36 36"><style>.st0{fill:#231815}</style><path class="st0" d="M34.5 13c-.83 0-1.5.67-1.5 1.5V20H16V3h5.5c.83 0 1.5-.67 1.5-1.5S22.33 0 21.5 0h-7c-.83 0-1.5.67-1.5 1.5V13H1.5c-.83 0-1.5.67-1.5 1.5v7c0 .83.67 1.5 1.5 1.5H13v11.5c0 .83.67 1.5 1.5 1.5h7c.83 0 1.5-.67 1.5-1.5V23h11.5c.83 0 1.5-.67 1.5-1.5v-7c0-.83-.67-1.5-1.5-1.5zM3 16h10v4H3v-4zm17 17h-4V23h4v10z"/><path class="st0" d="M23 9.5c0-.83-.67-1.5-1.5-1.5S20 8.67 20 9.5v5c0 .83.67 1.5 1.5 1.5h6c.83 0 1.5-.67 1.5-1.5s-.67-1.5-1.5-1.5H23V9.5z"/></svg>
