<svg xmlns="http://www.w3.org/2000/svg" viewBox="0 0 754.4 806.2"><style>.st0{fill:#fff}</style><path class="st0" d="M752.9 65.3c-1.4-21.8-3-43.7-6.3-65.3 0 0-.6 3.9-2.7 10.8s-6 16.7-12 28.5c-6.2 11.7-14.8 25.2-26.2 39.4-11.4 14.1-25.8 28.7-42.8 43-17 14.3-36.8 28.1-58.7 41.1-21.9 13-46.1 25.1-71.8 36.2-6.4 2.9-13 5.4-19.6 8.1-3.3 1.3-6.6 2.7-9.9 4-3.3 1.3-6.7 2.5-10.1 3.8-13.5 5.2-27.4 9.7-41.4 14.6l-21.3 6.6-11.4 3.6-11 3.6c-7.3 2.4-14.6 4.9-22 7.3l-22.9 8.9-11.4 4.6-11 5.1c-7.3 3.5-14.7 6.7-21.9 10.4-7.1 3.8-14.3 7.7-21.3 11.6l-5.3 3-5.1 3.3-10.2 6.5c-3.4 2.2-6.8 4.4-10.1 6.5-3.3 2.4-6.5 4.8-9.7 7.2-6.4 4.9-12.9 9.5-18.8 15-3 2.6-6 5.3-9 7.9-3 2.6-6 5.2-8.7 8.1-2.8 2.9-5.5 5.7-8.3 8.5-2.7 2.9-5.6 5.5-8 8.7-20.8 23.5-36.9 50-47.4 76.9-10.6 26.9-15.5 53.9-16.5 78.5-1 24.7 1.7 47 5.9 66.1 4.2 19.1 9.8 35.1 15.2 47.9 5.3 12.8 10.6 22.2 14.3 28.6 2.8 4.8 4.8 7.8 5.6 9-4.6 2.1-9.1 4.3-13.8 6.2-7.1 3-14.2 6.2-21.3 9-7.1 2.9-14.3 5.7-21.6 8.3-14.4 5.3-29 10.4-43.6 14.6-7.3 2.2-14.6 4.2-22 6-3.6.9-7.3 1.8-10.9 2.5-1.8.4-3.6.8-5.4 1.1l-4.8.9-7 1.3-4.7 4-4.6 3.8c-.8.6-1.5 1.4-2.3 2.1l-2.3 2.2c-.8.7-1.5 1.6-2.3 2.4l-2.3 2.6c-.8.9-1.5 1.9-2.2 2.9-.7 1-1.5 1.9-2.2 3.1l-2.1 3.5c-.7 1.3-1.3 2.6-1.9 4-.6 1.3-1.2 3-1.7 4.5s-1 3.3-1.3 5c-.4 1.7-.6 3.7-.8 5.6-.1 2-.2 4 0 6.2.2 2.1.6 4.4 1.2 6.8.4 1.3.7 2.4 1.3 3.8.3.7.5 1.3.9 2.1l.7 1.3.4.8.9 1.4 9.3 15.3 17.7-4.2 12.2-2.9c4-1 7.8-2.2 11.8-3.3 4-1.1 7.7-2.4 11.5-3.6 3.8-1.2 7.6-2.5 11.3-3.9 7.5-2.6 14.8-5.4 22.1-8.3 3.7-1.4 7.2-2.9 10.8-4.4l10.8-4.5c7.2-3 14.2-6.2 21.2-9.4s14-6.5 20.9-9.9c7-3.3 13.9-6.7 20.7-10.2l10.3-5.3 3.4-1.8c8.6.7 17.1 1.3 25.7 1.7 11.3.2 22.6 1 34 .6l17-.2c5.7-.2 11.4-.6 17-.9 11.4-.4 22.7-1.8 34.1-2.9 22.7-2.9 45.3-6.6 67.6-12.7 22.2-5.9 44.3-13 65.4-22.3 21.2-9.3 41.8-20.1 61.2-32.7 19.4-12.7 37.8-26.8 54.7-42.4 17-15.6 32.6-32.5 46.8-50.5 14.2-17.9 26.9-36.9 38.5-56.4 11.5-19.5 21.7-39.7 30.6-60.4 8.9-20.6 16.8-41.6 23.5-62.9 6.7-21.3 12.5-42.8 17.3-64.5 4.7-21.7 8.6-43.5 11.8-65.3 3.1-21.9 5.3-43.8 6.9-65.8 1.5-21.9 2.7-43.9 2.8-65.8.1-22.1-.3-44-1.4-65.8zM51.1 773.6c0 .1-.2.3-.1.2v-.1l.1-.1zM744.5 65.2c-1.2 21.7-3 43.3-5.4 64.8-2.5 21.5-5.1 43-8.7 64.2-3.5 21.3-7.6 42.4-12.3 63.4-4.6 21-10 41.7-16.1 62.2-6 20.5-12.8 40.7-20.5 60.5C666.2 419.9 647.7 458 625 493c-11.4 17.5-23.8 34.1-37.2 49.9-13.4 15.8-27.9 30.4-43.5 43.7-15.6 13.3-32 25.4-49.4 36.2-17.4 10.7-35.7 19.7-54.6 27.5-18.8 8-38.4 14-58.3 18.9-19.9 5.1-40.3 8.1-60.8 10.7-10.3.9-20.6 2.2-31 2.5-5.2.2-10.4.6-15.6.7l-15.6.1h-2.4c5.3-3.2 10.5-6.5 15.8-9.8 13.7-8.9 27.3-17.8 40.4-27.4 6.7-4.7 13.1-9.6 19.6-14.5 6.5-4.9 13-9.8 19.2-15 6.3-5.2 12.6-10.2 18.8-15.4l18.3-16.1c6.1-5.3 11.9-11 17.8-16.5l8.8-8.3c2.9-2.8 5.7-5.7 8.6-8.6l17-17.3 16.4-17.8c5.5-5.9 10.8-12 16-18.2 5.2-6.2 10.5-12.3 15.6-18.5l14.9-19c2.5-3.2 5-6.3 7.4-9.5l7.1-9.7 14.2-19.5 13.5-19.9c9.1-13.2 17.3-27.1 25.7-40.7 4.3-6.7 8.2-13.8 12.1-20.7l11.7-21c7.5-14.1 14.5-28.4 21.6-42.7-9.1 13.1-17.8 26.5-26.9 39.5l-14 19.3c-4.6 6.5-9.1 12.9-14.1 19.1-9.7 12.6-19.1 25.3-29.4 37.3l-15 18.3-15.6 17.8-7.8 8.9c-2.6 2.9-5.4 5.8-8.1 8.7L470 463.2c-5.5 5.7-11.1 11.1-16.7 16.7-5.5 5.6-11 11.2-16.8 16.5l-17.1 16.1-17.6 15.5c-2.9 2.6-5.8 5.2-8.8 7.7l-9 7.5c-6.1 4.9-12 10.1-18.2 14.8l-18.5 14.3c-6.2 4.7-12.6 9.2-18.9 13.8-6.2 4.7-12.7 9-19.2 13.4-6.4 4.4-12.9 8.8-19.5 12.9-13.1 8.5-26.3 16.5-39.8 24.3-6.8 3.8-13.5 7.7-20.3 11.4L209 658.9c-7 3.4-13.9 6.9-20.8 10.2-2.4 1.1-4.8 2.2-7.1 3.3-.4-1.3-1.5-4.7-3-10.1-2-7-4.4-17.3-6.8-30.5-2.3-13.2-4.4-29.2-5-47.4-.6-18.2.4-38.7 4.4-60.1s11.2-43.8 22.4-65.4c11.2-21.6 26.5-42.3 45.4-61.1 4.6-4.8 9.9-9 14.8-13.7 2.4-2.4 5.1-4.5 7.8-6.6 2.7-2.1 5.4-4.3 8.1-6.4 5.2-4.5 11.3-8.2 17-12.2l8.7-6 9.2-5.5 9.2-5.5 4.6-2.8 4.8-2.5c6.5-3.3 12.9-6.7 19.3-10.1 6.6-3.2 13.3-6.1 20-9.2l10-4.6 10.2-4 20.2-8.2c7.3-2.5 14.6-5 21.8-7.5 14.6-5 29.2-10.1 43.6-15 7.3-2.8 14.6-5.6 21.9-8.3 7.2-2.7 14.3-6 21.4-9 3.5-1.5 7.1-3 10.5-4.6 3.5-1.6 6.9-3.2 10.4-4.9 6.9-3.2 13.7-6.5 20.3-10.1 26.7-13.7 51.5-29.1 73.8-45.6 22.2-16.5 41.8-34.3 57.9-52.4 16.2-18.1 29.1-36.4 38.4-53.7 9.4-17.3 15.4-33.4 19-46.9 2.7-10.3 4-19.1 4.6-26 .2 16.7-.4 32.7-1.5 48.7z"/></svg>
