<svg xmlns="http://www.w3.org/2000/svg" viewBox="0 0 377.16 313.63"><style>.st0{fill:#231815}</style><path class="st0" d="M288.72 63.75H7.96C3.57 63.75 0 67.31 0 71.68v234c0 4.37 3.57 7.95 7.96 7.95h280.76c4.38 0 7.96-3.58 7.96-7.95v-234c0-4.37-3.57-7.93-7.96-7.93zM186.19 82.22c1.02-1.19 2.64-2.11 4.9-2.78 2.26-.68 4.95-1 8.14-1 3.51 0 6.45.37 8.92 1.1 2.45.73 4.08 1.65 4.88 2.76.77 1.11 1.2 3 1.2 5.67v1.31h-12.48V86.8c0-1.16-.14-1.89-.47-2.21-.32-.31-.86-.47-1.59-.47-.81 0-1.4.22-1.83.65-.42.43-.63 1.08-.63 1.94 0 1.12.22 1.95.7 2.52.43.57 1.72 1.25 3.78 2.06 6 2.28 9.75 4.18 11.28 5.65 1.57 1.47 2.35 3.87 2.35 7.13 0 2.4-.45 4.16-1.29 5.29-.88 1.14-2.54 2.07-5.01 2.84-2.47.76-5.33 1.15-8.6 1.15-3.59 0-6.66-.44-9.2-1.32-2.54-.89-4.19-2.02-4.99-3.38-.78-1.36-1.16-3.31-1.16-5.82v-2.19h12.44v4.08c0 1.27.17 2.07.53 2.44.34.35.99.53 1.87.53.9 0 1.55-.23 1.97-.68.46-.45.67-1.13.67-2.02 0-1.98-.42-3.28-1.25-3.87-.85-.61-2.94-1.62-6.29-3.05-3.33-1.44-5.53-2.47-6.62-3.12-1.09-.65-1.99-1.55-2.69-2.69-.71-1.14-1.05-2.61-1.05-4.39.02-2.59.5-4.46 1.52-5.65zm-43.2-3.08l1.42 11.68 1.38 11.31c.49-5.86 1.72-13.51 3.68-22.99h13.95c.2.97.67 4.65 1.47 11.04l1.47 12.75c.78-8.11 2.03-16.04 3.76-23.79h13.02l-5.97 33.49h-16.75c-1.52-5.14-2.89-10.99-4.07-17.57-.54 2.81-1.79 8.68-3.73 17.57h-16.66l-6-33.49h13.03zm-37.49 0h22.38v6.69h-8.96v6.36h8.39v6.38h-8.39v7.35h9.85v6.71H105.5V79.14zm-35.34 0h11.22l7.52 15.08V79.14h11.22v33.49H88.35l-6.97-15.22v15.22H70.16V79.14zm60.82 201.52c0 3.31-2.72 6.03-6.05 6.03H21.63c-3.32 0-6.04-2.73-6.04-6.03V171.11c0-3.32 2.72-6.04 6.04-6.04h103.3c3.33 0 6.05 2.72 6.05 6.04v109.55zm155.1 4.11c0 1.06-.85 1.92-1.91 1.92H150.25c-1.07 0-1.91-.86-1.91-1.92v-12.45c0-1.05.84-1.91 1.91-1.91h133.92c1.05 0 1.91.86 1.91 1.91v12.45zm0-35.1c0 1.05-.85 1.91-1.91 1.91H150.25c-1.07 0-1.91-.86-1.91-1.91v-12.46c0-1.05.84-1.91 1.91-1.91h133.92c1.05 0 1.91.86 1.91 1.91v12.46zm0-35.12c0 1.06-.85 1.92-1.91 1.92H150.25c-1.07 0-1.91-.86-1.91-1.92V202.1c0-1.05.84-1.92 1.91-1.92h133.92c1.05 0 1.91.87 1.91 1.92v12.45zm0-35.12c0 1.06-.85 1.92-1.91 1.92H150.25c-1.07 0-1.91-.86-1.91-1.92v-12.45c0-1.05.84-1.92 1.91-1.92h133.92c1.05 0 1.91.87 1.91 1.92v12.45zm0-35.11c0 1.06-.85 1.92-1.91 1.92H12.52c-1.05 0-1.93-.86-1.93-1.92v-12.44c0-1.06.88-1.91 1.93-1.91h271.66c1.05 0 1.91.85 1.91 1.91v12.44zM277.55 58.47s0 .01-.03.01h2.84c-.25-.11-.53-.21-.88-.29-.81-.15-1.44-.05-1.93.28zM158.72 58.49h4.69l-2.52-10.74z"/><path class="st0" d="M370.81 55.93L95.6.16c-4.28-.87-8.48 1.92-9.35 6.2L75.68 58.49h71.58l6.28-30.87 10.98 2.23 4.39 16.27 2.99-14.79 11 2.25-5.04 24.92h5.46l4.85-23.85 21.93 4.44-1.32 6.56-8.79-1.77-1.26 6.22 8.22 1.68-1.26 6.24-8.22-1.67-.43 2.15h14.66l.44-19 12.77 2.59-.92 11.73-.37 4.68h1.66c1.56-4.38 3.54-9.37 6-15.13l13.66 2.77c-.01 1-.28 4.7-.78 11.13l-.08 1.23h2.9c1.41-3.73 2.9-7.43 4.5-11.03l12.78 2.58-3.35 8.45h3.22c.54-2.28 1.34-3.91 2.5-4.82 1.25-.96 3.01-1.54 5.36-1.75 2.32-.2 5.04 0 8.21.64 3.39.7 6.22 1.64 8.48 2.85 1.92 1 3.18 2.05 3.88 3.08h5.08c3.99 0 7.25 3.28 7.25 7.28v44.39l48.29 9.78c1.04.21 1.72 1.22 1.51 2.25l-2.48 12.2a1.923 1.923 0 0 1-2.25 1.5l-45.08-9.13v19.22l41.32 8.37c1.04.21 1.71 1.22 1.51 2.25l-2.48 12.21c-.21 1.02-1.24 1.7-2.26 1.48l-38.09-7.71v19.21l34.35 6.95c1.04.21 1.71 1.23 1.51 2.26l-2.48 12.21c-.21 1.02-1.23 1.71-2.26 1.5l-31.12-6.3v19.21l27.37 5.55a1.93 1.93 0 0 1 1.51 2.25l-2.48 12.21a1.936 1.936 0 0 1-2.26 1.5l-24.14-4.91v19.23l20.41 4.12c1.03.22 1.7 1.22 1.5 2.26l-2.48 12.2c-.21 1.04-1.24 1.71-2.25 1.5l-17.18-3.48v27.48l16.3 3.29c4.28.87 8.48-1.92 9.36-6.21L377.01 65.3c.86-4.29-1.94-8.5-6.2-9.37z"/></svg>
