<svg xmlns="http://www.w3.org/2000/svg" viewBox="0 0 235 222.6"><style>.st0{fill:#3d3f43}</style><path class="st0" d="M98.3 168.2H86.9l-23.3 18.7v-18.7h-24c-12.4 0-22.5-10.1-22.5-22.5V39.6c0-12.4 10.1-22.5 22.5-22.5h106.1c12.4 0 22.5 10.1 22.5 22.5v20.8h17.1V39.6c0-21.9-17.7-39.6-39.6-39.6H39.6C17.7 0 0 17.7 0 39.6v106.1c0 21.9 17.7 39.6 39.6 39.6h6.8v37.4l23.9-19.2 22.6-18.2h8.6c-2.1-4.6-3.2-9.7-3.2-15.1v-2z"/><path class="st0" d="M63.8 31.1c-19.4 0-32.4 13.9-32.4 33.6 0 22.8 13.5 34.2 33 34.2 2.6 0 5.2-.2 7.5-.6 2.1 5.7 7 10.7 15 10.7 9.6 0 14.5-6.8 14.5-15.4v-4.9H95v2.8c0 1.6-.2 4.3-1.9 4.3-2.4 0-3.5-3.3-4.2-6.3 5.3-5.8 8-14 8-24.1-.1-20.6-10.3-34.3-33.1-34.3zm.6 53.2c-2.3 0-4.5-1.1-6.5-3.2 1.4-3.9 3.3-7 6.5-7 3.3 0 4.4 3.3 5.1 8.1-1.6 1.4-3.3 2.1-5.1 2.1zm10.8-15.2c-3.1-2.2-6.7-3.8-10.8-3.8-5.7 0-9.2 2.3-11.4 4.6-.3-1.6-.4-3.4-.4-5.3 0-11.3 5.3-19.6 11.1-19.5 7.1 0 11.7 9.1 11.7 20.2 0 1.4-.1 2.6-.2 3.8zM165.6 136.6H177l-5.7-18.7z"/><path class="st0" d="M208 71h-72.3c-14.9 0-27 12.1-27 27v72.3c0 14.9 12.1 27 27 27h36l15.4 12.4 16.3 13.1v-25.4h4.6c14.9 0 27-12.1 27-27V98c0-15-12.1-27-27-27zm.5 93.2h-34.7v-11.3h8.2l-1.8-5.9h-17.7l-1.8 5.9h6.8v11.3H140v-11.3h5.9l11.7-38H154v-11.2h33.3l15.3 49.2h6.1v11.3z"/></svg>
