<svg xmlns="http://www.w3.org/2000/svg" viewBox="0 0 49 38.41"><style>.st0{fill:#505050}</style><path class="st0" d="M33 13.91v-2c0-.28-.22-.5-.5-.5h-16c-.28 0-.5.22-.5.5v2c0 .28.22.5.5.5h16c.28 0 .5-.22.5-.5z"/><path class="st0" d="M45.5 11.41h-7c-.28 0-.5.22-.5.5v2c0 .28.22.5.5.5h7c.32 0 .5.18.5.5v2c0 .32-.18.5-.5.5h-6c-.28 0-.5.22-.5.5v2c0 .28.22.5.5.5h3.18L39.61 34.2c-.16.71-.78 1.21-1.51 1.21H10.9c-.71 0-1.29-.48-1.51-1.21L6.32 20.41H9.5c.28 0 .5-.22.5-.5v-2c0-.28-.22-.5-.5-.5h-6c-.32 0-.5-.18-.5-.5v-2c0-.32.18-.5.5-.5h7c.28 0 .5-.22.5-.5v-2c0-.28-.22-.5-.5-.5h-7c-1.96 0-3.5 1.54-3.5 3.5v2c0 1.89 1.43 3.39 3.3 3.49l3.21 14.51c.46 2.06 2.26 3.49 4.39 3.49h27.2c2.13 0 3.93-1.44 4.39-3.49L45.7 20.4c1.86-.1 3.3-1.6 3.3-3.49v-2c0-1.96-1.54-3.5-3.5-3.5z"/><path class="st0" d="M13.5 21.41c-.28 0-.5.22-.5.5v10c0 .28.22.5.5.5h2c.28 0 .5-.22.5-.5v-10c0-.28-.22-.5-.5-.5h-2zM18.5 21.41c-.28 0-.5.22-.5.5v10c0 .28.22.5.5.5h2c.28 0 .5-.22.5-.5v-10c0-.28-.22-.5-.5-.5h-2zM23.5 21.41c-.28 0-.5.22-.5.5v10c0 .28.22.5.5.5h2c.28 0 .5-.22.5-.5v-10c0-.28-.22-.5-.5-.5h-2zM28.5 21.41c-.28 0-.5.22-.5.5v10c0 .28.22.5.5.5h2c.28 0 .5-.22.5-.5v-10c0-.28-.22-.5-.5-.5h-2zM33.5 32.41h2c.28 0 .5-.22.5-.5v-10c0-.28-.22-.5-.5-.5h-2c-.28 0-.5.22-.5.5v10c0 .28.22.5.5.5zM11.41 16.01l1.86.74c.06.02.12.04.19.04s.13-.01.2-.04a.51.51 0 0 0 .27-.27l6.01-15.04c.1-.26-.02-.55-.28-.65L17.8.05a.5.5 0 0 0-.65.27l-6.01 15.04c-.11.25.01.54.27.65zM35.13 16.49a.494.494 0 0 0 .65.27l1.86-.74a.5.5 0 0 0 .27-.65L31.9.33c-.1-.26-.4-.38-.65-.28l-1.86.74a.5.5 0 0 0-.27.65l6.01 15.05z"/></svg>
