<svg xmlns="http://www.w3.org/2000/svg" viewBox="0 0 886 886"><style>.st0{fill:#fff}</style><path class="st0" d="M94.6 674c-12.4 7.1-28.2 2.9-35.3-9.5-7.1-12.4-2.9-28.2 9.5-35.3l211-121.8c12.4-7.1 28.2-2.9 35.3 9.5 7.1 12.4 2.9 28.2-9.5 35.3L94.6 674zM606.2 378.6c-12.4 7.1-28.2 2.9-35.3-9.5-7.1-12.4-2.9-28.2 9.5-35.3l211-121.8c12.4-7.1 28.2-2.9 35.3 9.5 7.1 12.4 2.9 28.2-9.5 35.3l-211 121.8zM256.8 817.2c-7.1 12.4-22.9 16.6-35.3 9.5-12.4-7.1-16.6-22.9-9.5-35.3l121.8-211c7.1-12.4 22.9-16.6 35.3-9.5 12.4 7.1 16.6 22.9 9.5 35.3l-121.8 211zM552.1 305.7c-7.1 12.4-22.9 16.6-35.3 9.5-12.4-7.1-16.6-22.9-9.5-35.3l121.8-211c7.1-12.4 22.9-16.6 35.3-9.5s16.6 22.9 9.5 35.3l-121.8 211zM468.8 860.2c0 14.3-11.6 25.8-25.8 25.8-14.3 0-25.8-11.6-25.8-25.8V616.5c0-14.3 11.6-25.8 25.8-25.8 14.3 0 25.8 11.6 25.8 25.8v243.7zM468.8 269.5c0 14.3-11.6 25.8-25.8 25.8-14.3 0-25.8-11.6-25.8-25.8V25.8C417.2 11.6 428.7 0 443 0s25.8 11.6 25.8 25.8v243.7zM674 791.4c7.1 12.4 2.9 28.2-9.5 35.3-12.4 7.1-28.2 2.9-35.3-9.5l-121.8-211c-7.1-12.4-2.9-28.2 9.5-35.3 12.4-7.1 28.2-2.9 35.3 9.5l121.8 211zM378.6 279.8c7.1 12.4 2.9 28.2-9.5 35.3-12.4 7.1-28.2 2.9-35.3-9.5L212 94.7c-7.1-12.4-2.9-28.2 9.5-35.3 12.4-7.1 28.2-2.9 35.3 9.5l121.8 210.9zM817.2 629.2c12.4 7.1 16.6 22.9 9.5 35.3-7.1 12.4-22.9 16.6-35.3 9.5l-211-121.8c-12.4-7.1-16.6-22.9-9.5-35.3 7.1-12.4 22.9-16.6 35.3-9.5l211 121.8zM305.7 333.9c12.4 7.1 16.6 22.9 9.5 35.3-7.1 12.4-22.9 16.6-35.3 9.5l-211-121.8c-12.4-7.1-16.6-22.9-9.5-35.3 7.1-12.4 22.9-16.6 35.3-9.5l211 121.8zM860.2 417.2c14.3 0 25.8 11.6 25.8 25.8 0 14.3-11.6 25.8-25.8 25.8H616.5c-14.3 0-25.8-11.6-25.8-25.8 0-14.3 11.6-25.8 25.8-25.8h243.7zM269.5 417.2c14.3 0 25.8 11.6 25.8 25.8 0 14.3-11.6 25.8-25.8 25.8H25.9C11.6 468.8 0 457.3 0 443s11.6-25.8 25.8-25.8h243.7z"/></svg>
