<svg xmlns="http://www.w3.org/2000/svg" viewBox="0 0 351.484 317.419"><path d="M194.774 229.372c-4.949.001-8.292-5.491-11.53-10.813-2.503-4.111-5.613-9.22-8.204-9.22l-.064.001c-2.498.083-5.308 4.987-7.564 8.929-3.152 5.504-6.415 11.192-11.815 10.599-3.917-.433-5.875-3.865-7.947-7.5-4.072-7.14-7.026-12.697-9.131-16.864-11.7 12.788-23.164 21.741-37.646 23.522-4.626.568-16.63 1.134-28.179-5.917-9.112-5.563-13.565-13.205-15.029-15.717-2.419-4.15-6.47-12.771-6.408-23.86.072-12.774 5.924-27.856 13.613-35.083 3.131-2.942 6.437-4.409 9.556-4.229 5.533.313 9.514 5.529 13.729 11.052 3.707 4.857 7.909 10.362 13.366 12.844 2.978 1.354 6.015 1.7 7.56 1.786 2.184.124 5.48.305 7.144-1.227 1.144-1.054 1.277-2.753 1.394-4.252.12-1.534.321-4.1 2.871-4.775 3.122-.823 5.451 1.182 11.778 15.763 3.092 7.126 6.046 14.866 7.173 17.863.007.019.182.477.587 1.414 3.624-4.271 7.336-8.869 11.227-13.688a529.83 529.83 0 0 1 10.479-12.577 434.285 434.285 0 0 1 6.967-7.887 317.03 317.03 0 0 1 4.497-4.875 489.663 489.663 0 0 0-2.292-2.916c-3.471-4.384-5.343-6.603-7.713-9.411-2.579-3.056-5.789-6.859-12.271-14.903-9.722-12.066-20.741-25.742-21.448-42.356-.355-8.31.992-20.412 9.405-31.355 11.829-15.384 29.631-17.83 36.736-18.168 7.913-.38 23.056.72 35.67 12.285 4.043 3.706 11.226 11.762 13.904 24.074 2.978 13.688-1.482 24.79-4.147 31.423-2.839 7.067-7.562 13.081-16.969 25.063l-.789 1.004c-6.953 8.857-13.573 16.207-17.131 20.155a315.12 315.12 0 0 1-5.075 5.515c.597.788 1.176 1.562 1.745 2.33l2.1 2.828a976.078 976.078 0 0 1 5.297 7.173 730.18 730.18 0 0 1 5.777 8.02c3.911 5.502 7.593 10.238 10.965 14.286 1.321-5.139 2.444-9.858 3.42-13.962 3.458-14.53 4.264-17.973 7.976-17.862 2.626.087 3.281 2.586 3.597 3.788.305 1.162.685 2.608 1.815 3.906 4.014 4.605 13.64 3.031 13.735 3.014 8.274-1.408 12.742-8.287 17.062-14.938 4.013-6.178 8.161-12.566 15.322-12.852.166-.007.334-.01.5-.01 12.578 0 22.81 18.889 25.41 32.767.205 1.092 4.809 26.938-13.584 42.766-6.905 5.941-16.062 9.456-25.783 9.896-14.705.669-25.32-6.463-32.346-11.179-.354-.237-5.73-3.908-14.255-12.988a313.6 313.6 0 0 1-4.398 14.127c-1.784 5.266-4.228 12.479-9.841 13.146a7.895 7.895 0 0 1-.818.045zm-19.72-26.033c5.949 0 9.859 6.423 13.315 12.101 1.813 2.979 4.827 7.931 6.427 7.931a.61.61 0 0 0 .086-.006c1.853-.22 4.12-6.912 4.864-9.112 2.041-6.024 3.8-11.919 5.331-17.472-4.163-4.8-8.858-10.688-13.935-17.828-.229-.322-.974-1.37-1.964-2.752-1-1.394-2.3-3.197-3.808-5.261-1.818-2.491-3.4-4.62-5.268-7.133l-2.103-2.833c-.365-.492-.734-.987-1.109-1.486a322.917 322.917 0 0 0-3.745 4.073 425.702 425.702 0 0 0-6.871 7.778 526.534 526.534 0 0 0-10.292 12.351l-.063.079c-4.55 5.636-8.87 10.986-13.107 15.894 2.08 4.228 5.284 10.38 10.048 18.732 1.121 1.966 2.516 4.412 3.394 4.51 1.468.122 4.283-4.707 5.949-7.617 3.155-5.508 6.73-11.751 12.573-11.943a6.48 6.48 0 0 1 .278-.006zm-101.14-54.134c-1.391 0-3.135.922-4.937 2.616-5.708 5.364-11.653 18.331-11.722 30.744-.054 9.664 3.48 17.184 5.592 20.806 1.275 2.188 5.154 8.845 12.971 13.617 9.938 6.067 20.318 5.574 24.32 5.083 13.241-1.629 24.12-10.605 35.547-23.391-1.304-2.814-1.817-4.17-1.866-4.302-4.609-12.259-8.5-21.193-11.034-26.079-.47 1.296-1.231 2.622-2.498 3.789-3.529 3.251-8.545 2.973-11.542 2.804-1.965-.109-5.84-.555-9.709-2.315-6.829-3.105-11.516-9.247-15.652-14.666-3.354-4.395-6.522-8.545-9.298-8.702a4.878 4.878 0 0 0-.172-.004zm137.806 46.006c9.539 10.602 15.623 14.789 15.712 14.85 6.748 4.529 15.987 10.747 28.726 10.163 8.508-.384 16.164-3.306 22.141-8.449 15.802-13.599 11.78-36.158 11.602-37.112-2.39-12.75-11.582-27.872-19.528-27.872-.082 0-.164.001-.247.005-4.058.162-7.057 4.779-10.528 10.125-4.553 7.011-10.22 15.736-21.088 17.585-1.33.224-13.169 2.006-19.265-4.986a12.816 12.816 0 0 1-.885-1.139c-.664 2.542-1.409 5.673-2.142 8.753-1.234 5.18-2.697 11.331-4.498 18.077zM178.151 41.492c-.809 0-1.563.021-2.254.053-6.271.298-21.965 2.438-32.264 15.832-7.313 9.512-8.48 20.127-8.171 27.357l.004.106c.622 14.621 10.537 26.926 20.125 38.826 6.438 7.991 9.624 11.765 12.184 14.797 2.404 2.849 4.304 5.098 7.833 9.556.608.77 1.194 1.513 1.76 2.236a312.798 312.798 0 0 0 4.326-4.716c3.755-4.169 10.041-11.147 16.869-19.844l.789-1.005c9.055-11.533 13.601-17.322 16.119-23.594 2.564-6.381 6.438-16.024 3.853-27.911-2.326-10.693-8.577-17.701-12.096-20.926-9.92-9.093-21.733-10.767-29.077-10.767z" fill="#4d976f"/><path d="M173.855 304.338c-81.7 0-148.167-65.794-148.167-146.667 0-80.872 66.467-146.667 148.167-146.667 81.699 0 148.166 65.794 148.166 146.667s-66.467 146.667-148.166 146.667zm0-287.333c-78.391 0-142.167 63.103-142.167 140.667s63.776 140.667 142.167 140.667 142.166-63.103 142.166-140.667S252.245 17.005 173.855 17.005z" fill="#4d976f"/><g fill="#4d976f"><path d="M101.204 246.869h5.042l1.815 9.617 2.657-9.617h5.024l2.663 9.605 1.817-9.605h5.016l-3.787 17.18h-5.206l-3.013-10.816-3.001 10.816h-5.206l-3.821-17.18zM148.477 259.009h-9.563c.086.766.293 1.336.621 1.711.461.539 1.063.809 1.805.809.469 0 .914-.117 1.336-.352.258-.148.535-.41.832-.785l4.699.434c-.719 1.25-1.586 2.146-2.602 2.689s-2.473.814-4.371.814c-1.648 0-2.945-.232-3.891-.697s-1.729-1.203-2.35-2.215-.932-2.201-.932-3.568c0-1.945.623-3.52 1.869-4.723s2.967-1.805 5.162-1.805c1.781 0 3.188.27 4.219.809s1.816 1.32 2.355 2.344.809 2.355.809 3.996v.539h.002zm-4.851-2.285c-.094-.922-.342-1.582-.744-1.98s-.932-.598-1.588-.598c-.758 0-1.363.301-1.816.902-.289.375-.473.934-.551 1.676h4.699zM158.848 246.869h4.77v3.246h-4.77v-3.246zm0 4.734h4.77v12.445h-4.77v-12.445zM189.821 246.869h5.848l3.041 5.285 2.959-5.285h5.789l-5.348 8.32 5.852 8.859h-5.965l-3.393-5.52-3.393 5.52h-5.93l5.926-8.953-5.386-8.226zM217.524 246.869h4.77v3.246h-4.77v-3.246zm0 4.734h4.77v12.445h-4.77v-12.445zM233.344 251.603h4.441v2.027c.664-.828 1.336-1.42 2.016-1.775s1.508-.533 2.484-.533c1.32 0 2.354.393 3.1 1.178s1.119 1.998 1.119 3.639v7.91h-4.793v-6.844c0-.781-.145-1.334-.434-1.658s-.695-.486-1.219-.486c-.578 0-1.047.219-1.406.656-.359.438-.539 1.223-.539 2.355v5.977h-4.77v-12.446h.001z"/></g></svg>
