<svg xmlns="http://www.w3.org/2000/svg" viewBox="0 0 102.36 84.72"><style>.st0{fill:#282d33}.st1{fill:#f8c44f}.st2{fill:#5eb4e7}</style><path class="st0" d="M93.6 72.56H42.5c-3.25 0-5.57-.96-6.9-2.86-1.85-2.64-.9-5.91-.66-6.6l1.73-6.43 3.86 1.04-1.8 6.66c-.18.52-.51 2.1.16 3.04.67.95 2.34 1.15 3.61 1.15h51.1v4z"/><path class="st1" d="M48.67 79.15c0 3.07-2.49 5.57-5.57 5.57-3.07 0-5.57-2.5-5.57-5.57 0-3.08 2.49-5.57 5.57-5.57s5.57 2.49 5.57 5.57zM90.17 79.15c0 3.07-2.49 5.57-5.57 5.57-3.07 0-5.57-2.5-5.57-5.57 0-3.08 2.49-5.57 5.57-5.57s5.57 2.49 5.57 5.57z"/><path class="st0" d="M98.09 54.93H34.23L17.31 11.49l-2.7-1.01 1.4-3.75 4.38 1.64 1.91 4.91 80.05 10.69-4.26 30.96zm-61.12-4h57.64l3.24-23.53-73.89-9.86 13.01 33.39z"/><path class="st0" d="M26.047 28.664l.44-3.976 72.502 8.002-.44 3.976zM31.483 42.432l.23-3.994 65 3.75-.23 3.994z"/><path class="st0" d="M29.934 17.177l3.83-1.15 10.499 34.998-3.832 1.15zM39.746 18.919l3.881-.97 8.332 33.336-3.88.97zM49.55 19.638l3.93-.742 6.167 32.662-3.93.742zM59.282 21.355l3.966-.522 4.084 31-3.966.523zM69.27 22.553l3.994-.234 1.748 29.829-3.993.234zM78.684 52.422l.17-29.17 4 .024-.17 29.17zM86.356 52.416l2.495-27.828 3.984.357-2.495 27.828z"/><path class="st2" d="M2.57 7.98A4.149 4.149 0 0 1 .3 2.58 4.152 4.152 0 0 1 4.14 0c.54 0 1.06.1 1.57.31L17.6 5.17l-2.63 7.87-12.4-5.06z"/><path class="st2" d="M15.11 6.31L4.95 2.16c-1.09-.45-2.34.08-2.79 1.17a2.15 2.15 0 0 0 1.17 2.8l10.42 4.26 1.36-4.08z"/></svg>
