<svg xmlns="http://www.w3.org/2000/svg" viewBox="0 0 631.24 629.69"><path d="M579.24 0H52C23.29.03.03 23.29 0 52v525.69c.03 28.71 23.29 51.97 52 52h527.24c28.71-.03 51.97-23.29 52-52V52c-.04-28.7-23.3-51.96-52-52zm-18.21 300.31a167.666 167.666 0 0 1-34.44 81.76 399.447 399.447 0 0 1-73.99 73.55 991.366 991.366 0 0 1-122.43 83.55c-6.66 3.78-14 6.66-20.88 9.69-1.7.7-3.5 1.15-5.33 1.33-8.21.9-12.11-2.88-10.66-11.12 1.33-8.67 2.88-16.95 3.78-25.55.74-6.11 1.04-12.27.9-18.43a13.565 13.565 0 0 0-8.21-12.11 65.216 65.216 0 0 0-21.34-6.22 259.669 259.669 0 0 1-146.01-72.32 177.173 177.173 0 0 1-50.86-97.31c-6.27-36.66.09-74.36 18.04-106.93a211.525 211.525 0 0 1 89.61-87.19 275.752 275.752 0 0 1 107.31-31.99c9.69-.9 19.76-1.33 24.68-1.55a289.907 289.907 0 0 1 150.74 39.19 207.962 207.962 0 0 1 80.55 82.2 164.02 164.02 0 0 1 18.54 99.45z" fill="#fff"/></svg>
