<svg xmlns="http://www.w3.org/2000/svg" viewBox="0 0 6.5 1.82"><path d="M.91 1.82c-.5 0-.91-.41-.91-.91S.41 0 .91 0s.91.41.91.91-.41.91-.91.91zm0-1.57C.55.25.25.54.25.91s.29.66.66.66a.66.66 0 1 0 0-1.32zM3.15 1.82c-.5 0-.91-.41-.91-.91S2.65 0 3.15 0s.91.41.91.91-.41.91-.91.91zm0-1.57c-.36 0-.66.29-.66.66s.29.66.66.66.66-.29.66-.66-.29-.66-.66-.66zM5.59 1.82c-.5 0-.91-.41-.91-.91S5.09 0 5.59 0s.91.41.91.91-.41.91-.91.91zm0-1.57c-.36 0-.66.29-.66.66s.29.66.66.66.66-.29.66-.66-.3-.66-.66-.66z"/></svg>
