<svg xmlns="http://www.w3.org/2000/svg" viewBox="0 0 21.31 21.31" overflow="visible"><style>.st0{fill:#333}</style><path class="st0" d="M10.66 21.31C4.78 21.31 0 16.53 0 10.66S4.78 0 10.66 0s10.66 4.78 10.66 10.66-4.79 10.65-10.66 10.65zm0-20.56C5.2.75.75 5.19.75 10.66s4.44 9.91 9.91 9.91 9.91-4.44 9.91-9.91S16.12.75 10.66.75z"/><path class="st0" d="M9.81 13.5c-.46.23-1.03.35-1.73.35-.89 0-1.61-.28-2.15-.84-.54-.56-.81-1.3-.81-2.23 0-.96.3-1.75.9-2.38s1.37-.93 2.31-.93c.59 0 1.09.08 1.48.25v.97c-.43-.25-.92-.38-1.45-.38-.67 0-1.21.22-1.62.66s-.6 1.03-.6 1.74c0 .68.19 1.24.57 1.66.38.42.89.63 1.53.63.6 0 1.12-.14 1.57-.41v.91zM16.18 13.74h-1.07l-2.95-4.55c-.11-.17-.19-.31-.24-.43h-.02c.02.16.04.46.04.9v4.09H11V7.57h1.13L15 12.03c.14.21.23.36.27.44h.02c-.03-.19-.04-.49-.04-.88V7.57h.93v6.17z"/></svg>
