<svg xmlns="http://www.w3.org/2000/svg" viewBox="0 0 15.82 22.65"><path d="M1.66 0h12.5c.45 0 .87.19 1.17.49.3.3.49.72.49 1.17v16.18l-.74.04.3-.45-.77-4.25-.17-.22-.02-.03V1.66c0-.07-.03-.13-.07-.18a.267.267 0 0 0-.18-.07H1.66c-.07 0-.13.03-.18.07-.05.05-.07.11-.07.18v17.29c0 .07.03.13.07.18.04.04.11.07.18.07h5.78l.46.34-.66.16.22.92h-5.8c-.46 0-.87-.19-1.17-.49-.3-.31-.49-.72-.49-1.18V1.66C0 1.21.19.79.49.49.79.19 1.21 0 1.66 0zm1.66 15.2v.94h2.31v-.94H3.32zm0-11.2v.94h8.96V4H3.32zm0 1.86v.94h8.96v-.94H3.32zm0 2.05v.94h8.96v-.94H3.32zm0 2.65v.94h2.31v-.94H3.32zm0 2.16v.94h2.31v-.94H3.32zm9.81 6.88l-.36-1.36-.04-.16.09-.14.6-.91-.57-3.14-.05-.06-.21.09-.18.08-.18-.13c-.08-.06-.18-.11-.27-.16-.04-.02-.08-.04-.11-.06l-.05.03c-.06.03-.12.06-.16.09l-.2.16-.22-.1-.43-.2-.37.2-.47.26-.12-.52-.82-3.21a.49.49 0 0 0-.26-.13c-.04 0-.07 0-.1.01s-.06.03-.08.05c-.05.05-.09.13-.11.22l.84 4.14.05.32-.9.36-.42-1.67c-.04.09-.2.32-.21.45l.87 3.77.98.72.12.09.03.15.32 1.45 2.99-.69zm-3.75.87l-.26.06-.62.14.15.62.32 1.35 1.24-.29-.17-.73 3.95-.92.24 1.2 1.25-.25-.38-1.84-.13-.64-.64.15-.44.1-.32-1.18.6-.9.09-.13-.03-.16-.62-3.39-.02-.09-.06-.08-.3-.38-.19-.24-.28.12-.29.12c-.05-.03-.1-.06-.15-.08-.09-.05-.18-.1-.27-.16l-.25-.17-.24.19c-.04.03-.1.06-.16.09-.03.01-.05.03-.08.04l-.41-.19-.18-.08-.18.1-.08.05-.73-2.82v-.14l-.08-.08a1.39 1.39 0 0 0-.79-.43.936.936 0 0 0-.47.04c-.15.05-.28.13-.39.24-.18.18-.3.43-.35.73l-.01.06.01.06.49 2.08-.13.05c-.3.11-.55.28-.72.52-.17.24-.27.55-.27.93v.04l.01.05.91 3.97.03.15.12.09.98.72.3 1.31zm-4.2-2V18h-2.5V2.9h10.57v7.71h.47V2.43H2.21v16.03h2.97z" fill-rule="evenodd" clip-rule="evenodd" fill="#020202"/></svg>
