<svg xmlns="http://www.w3.org/2000/svg" viewBox="0 0 142.37 254.04" overflow="visible"><style>.st0{fill:#fff}</style><path class="st0" d="M111.25 169.42V50.99c0-2.12-1.72-3.84-3.84-3.84H21.78c-2.12 0-3.84 1.72-3.84 3.84v118.43c0 2.12 1.72 3.84 3.84 3.84h85.63c2.12 0 3.84-1.72 3.84-3.84zm-7.67-3.84H25.62V54.83h77.96v110.75zM64.6 36.73a6.21 6.21 0 1 0 0-12.42 6.21 6.21 0 1 0 0 12.42z"/><path class="st0" d="M142.35 3.51c-.01-.15-.04-.3-.07-.44-.01-.04-.01-.07-.02-.11 0-.01-.01-.03-.01-.04-.05-.19-.11-.37-.18-.55-.02-.05-.04-.09-.06-.13-.06-.13-.13-.26-.2-.38-.03-.06-.07-.11-.11-.16a2.1 2.1 0 0 0-.26-.33c-.03-.04-.07-.08-.1-.12-.13-.14-.27-.27-.41-.39-.03-.03-.07-.05-.1-.07-.09-.07-.18-.14-.28-.2l-.06-.03c-.25-.15-.51-.27-.78-.36-.05-.02-.11-.03-.16-.04-.23-.06-.47-.1-.72-.12-.06 0-.13-.01-.19-.02-.04 0-.07-.01-.11-.01H16.62c-.61 0-1.21.15-1.76.43L2.08 7.01c-.08.04-.14.09-.21.13-.09.05-.17.1-.25.16-.13.09-.24.19-.36.29-.06.05-.12.1-.17.15-.15.16-.3.33-.42.51 0 .01-.01.01-.01.02-.13.19-.23.39-.33.6-.03.08-.05.15-.08.23-.05.15-.1.29-.14.44-.02.09-.03.17-.05.26-.03.16-.04.31-.05.47 0 .05-.01.1-.01.15v175.45c0 2.12 1.72 3.84 3.84 3.84h31v26.52l-24.27 10.33h-.01c-.22.09-.43.21-.62.34l-.15.12c-.14.1-.27.21-.39.32-.06.06-.11.12-.17.18-.1.11-.2.22-.28.34l-.15.24c-.07.12-.14.24-.2.36-.04.09-.08.18-.11.27-.05.13-.09.27-.13.41-.02.09-.05.18-.06.27-.03.17-.04.33-.05.51 0 .06-.02.11-.02.17v20.1c0 2.12 1.72 3.84 3.84 3.84H64.6c.29 0 .58-.04.85-.1.08-.02.15-.05.22-.07.2-.06.4-.13.59-.22.04-.02.08-.02.12-.04l35.55-18.64a3.844 3.844 0 0 0 2.06-3.4v-41.85h21.37c.29 0 .56-.04.83-.1.07-.02.14-.05.21-.07.2-.06.4-.12.58-.21l.09-.03 13.17-6.58c1.3-.65 2.12-1.98 2.12-3.43V3.84c0-.05-.01-.09-.01-.14.01-.06 0-.13 0-.19zM7.68 14.26h113.84v167.78H7.67V14.26zm58.26 210.8l-2.82 1.2H30.87l8.59-3.66h31.17l-4.69 2.46zm20.75-35.35v24.48l-1.42.75H42.51v-25.22h44.18zm-70.8 44.23h44.87v12.43H15.89v-12.43z"/></svg>
