<svg xmlns="http://www.w3.org/2000/svg" viewBox="0 0 72.44 72.99"><style>.st0{fill:#e3b726}</style><path class="st0" d="M62.39 41.03l-.09.67c-.02.18-2.5 17.14-19.35 20.95-2.79.63-5.46.95-7.96.95-8.63 0-12.99-3.84-14.24-5.16l46.61-41.43-.3-.46C60.29 6.18 48.88 0 36.54 0c-1.59 0-3.22.11-4.81.31C11.78 2.94-2.32 21.32.32 41.27 2.7 59.35 18.24 72.99 36.45 72.99c1.6 0 3.22-.11 4.82-.31a36.492 36.492 0 0 0 31.05-29.13l.12-.64-10.05-1.88zm-6.55-25.45L14.97 51.83c-5.27-5.66-5.49-15.5-5.49-15.61-.46-13.48 9.77-25.44 23.29-27.23 2.13-.27 4.03-.41 5.82-.41 6.96 0 12.31 2.16 17.25 7z"/><path class="st0" d="M30.74 17.84c0 2.32 1.89 4.21 4.21 4.21 2.33 0 4.22-1.89 4.22-4.21a4.22 4.22 0 0 0-4.22-4.22c-2.33 0-4.21 1.89-4.21 4.22z"/></svg>
