<svg xmlns="http://www.w3.org/2000/svg" viewBox="0 0 21.31 21.31" overflow="visible"><style>.st0{fill:#333}</style><path class="st0" d="M10.66 21.31C4.78 21.31 0 16.53 0 10.66S4.78 0 10.66 0s10.66 4.78 10.66 10.66-4.79 10.65-10.66 10.65zm0-20.56C5.2.75.75 5.19.75 10.66s4.44 9.91 9.91 9.91 9.91-4.44 9.91-9.91S16.12.75 10.66.75z"/><path class="st0" d="M9.22 13.74H5.8V7.57h3.28v.82H6.75v1.82h2.16v.82H6.75v1.9h2.46v.81zM15.52 13.74h-1.07L11.5 9.19c-.11-.17-.19-.31-.24-.43h-.02c.02.16.04.46.04.9v4.09h-.93V7.57h1.13l2.87 4.46c.14.21.23.36.27.44h.02c-.03-.19-.04-.49-.04-.88V7.57h.93v6.17z"/></svg>
