<svg xmlns="http://www.w3.org/2000/svg" viewBox="0 -192 1008 1008"><path fill="currentColor" d="M823 495l29 38-1 2c7 9 5 25-4 33-58 45-117 92-140 110-46 35-118 110-203 110s-159-74-203-110c-21-17-81-65-138-110-9-8-11-24-4-33l30-38c8-10 22-12 32-4 57 46 115 93 139 112 35 28 99 89 146 89s110-61 146-91c23-19 82-66 139-112 10-8 24-6 32 4zm89 410l3-502c0-4-1-8-3-10-32-26-215-174-262-211-36-28-99-88-146-88s-110 61-146 90c-47 38-230 185-262 211-1 2-3 6-3 10v500c0 6 5 11 11 11h796c6 0 11-5 12-11zm63-579l-2 2c19 16 35 49 35 73v515c0 54-41 95-94 95H95c-54 0-95-41-95-95V399c0-26 16-60 35-75 8-6 219-175 266-213C346 76 419 1 504 1s159 75 203 110c47 38 258 207 268 215z"/></svg>
