<svg xmlns="http://www.w3.org/2000/svg" viewBox="0 0 122.35 53.04" overflow="visible"><style>.st0{fill:#fff}</style><path class="st0" d="M61.02 28.52c-.21 0-.42-.04-.61-.13L.89 2.87C.13 2.53-.21 1.65.13.89.47.13 1.35-.21 2.11.13L61.07 25.4l59.25-23.3c.77-.29 1.64.09 1.94.87.29.77-.09 1.64-.87 1.94L61.56 28.43c-.18.06-.36.09-.54.09zM59.87 53.04c-.22 0-.43-.05-.63-.14L9.74 30.77A1.499 1.499 0 0 1 11 28.05l48.92 21.86L111.44 30c.77-.29 1.64.11 1.93.88.29.78-.11 1.64-.88 1.93l-52.1 20.14c-.17.06-.35.09-.52.09z"/></svg>
