<svg xmlns="http://www.w3.org/2000/svg" viewBox="0 0 155.5 262.24" overflow="visible"><style>.st0{fill:#ff9c9c}</style><path class="st0" d="M82.35 155.76h10.14v-19.04H81.67v-3.54h7.54v-9.52H78.52v3.93h-2.64v-12.52H89.25v18.11h15.65v6.92h10.69v-6.92h10.7v-6.37h5.22v-13.83H94.46v1.16h-2.31v-13.81h-8.29V87.81h8.29V73.07H77.41v10.56h-2.64v-8.34H61.85v25.04h9.1v6.13h-9.1v6.52h-6.26v16.96h-5.54v-15.8H29.77v9.52h-6.82v9.52h22.11v5.29H59.8v-6.45h13.34v4.7h-.93v16.43H62.07v7.31h-.22v12.78h14.03v-7.3h2.64v7.3h14.02v-12.78H82.35z"/><path class="st0" d="M58.82 70.85H21v37.83h37.83V70.85zm-5.69 32.14H26.69V76.54h26.44v26.45zM96.68 70.85v37.83h37.83V70.85H96.68zm32.14 32.14h-26.44V76.54h26.44v26.45zM96.68 181.54h37.83v-37.83H96.68v37.83zm5.69-32.13h26.44v26.44h-26.44v-26.44zM21 181.54h37.83v-37.83H21v37.83zm5.69-32.13h26.44v26.44H26.69v-26.44z"/><path class="st0" d="M0 12.53v237.18c0 6.92 5.61 12.53 12.53 12.53h130.44c6.92 0 12.53-5.61 12.53-12.53V12.53C155.5 5.61 149.89 0 142.97 0H12.53C5.61 0 0 5.61 0 12.53zm56.48-2.16h2.73V7.63h37.08v2.74h2.73v3.91H56.48v-3.91zm85.64 212.28H13.38V29.74h128.74v192.91z"/></svg>
