<svg xmlns="http://www.w3.org/2000/svg" viewBox="0 0 947.54 656.05" overflow="visible"><style>.st0{fill:#fff}</style><path class="st0" d="M947.43 105.1c-.05-11.02-.73-21.96-4.17-32.8-4.21-13.28-10.05-25.31-18.56-36.36-9.38-12.18-20.89-21.68-34.49-28.33-10.7-5.23-22.38-7.56-34.47-7.52-30.7.1-61.39 0-92.09 0C687.17.08 610.68.07 534.2.11c-2.01 0-4.01.59-6.02.9-1.3-.31-2.6-.89-3.91-.89C487.6.07 450.93.08 414.26.13c-1.31 0-2.61.58-3.92.89-1.83-.31-3.66-.9-5.5-.9C305.77.08 206.69.18 107.62 0 88.21-.03 69.02.14 51.8 10.77c-5.36 3.31-10.94 6.52-15.54 10.74-5.4 4.94-9.72 11.05-14.75 16.42-7.96 8.51-11.93 19.18-15.87 29.73C.97 80.15-.05 93.29 0 106.61c.18 41.74.09 83.48.09 125.22C.1 338.27.21 444.71.01 551.16c-.03 17.15 3.39 33.31 10.25 48.86 1.51 3.42 2.89 7.05 5.15 9.94 6.43 8.23 12.29 16.82 20.41 23.81 10.83 9.33 22.86 16.1 36.41 19.72 7.57 2.02 15.75 2.46 23.66 2.46 249.85.12 499.71.09 749.56.1 13.52 0 27.15.19 39.61-5.96 8.44-4.16 17.13-8.4 24.39-14.24 8.2-6.59 15.22-14.6 20.98-23.81 7.19-11.49 12.35-23.67 15.03-36.76 1.62-7.88 1.94-16.14 1.95-24.23.12-97.02.08-194.04.08-291.06.01-51.63.15-103.26-.06-154.89zM474.66 627.24c-11.98.34-24.36-11.59-24.24-24.24.13-12.65 12.28-24.01 24.29-23.76 11.86.24 23.75 10.59 22.87 24.15.81 13.27-11.27 23.52-22.92 23.85zm420.61-148.5V532.66H53.13V527c0-19.27.01-38.55.01-57.82 0-114.85-.04-229.7.07-344.56.01-11.4-.37-23.07 1.8-34.15 2.98-15.23 12.54-26.27 27.83-31.01 5.29-1.64 11.05-2.47 16.59-2.47 119.07-.13 238.13-.09 357.2-.15 2.86 0 5.72-.73 8.58-1.13 2.79-.02 5.58-.04 8.36-.07 1.39.41 2.78 1.18 4.17 1.18 112.01.06 224.03.23 336.04-.35 7.55-.04 15.05.73 22.59.45 5.73-.22 11.48-.25 17.2.03 12.74.62 22.67 6.39 30.68 16.32 8.24 10.23 10.93 22.07 10.95 34.63.13 72.32.06 144.65.06 216.97.01 51.29.01 102.58.01 153.87z"/><path class="st0" d="M833.82 221.06H497.65c-6.62 0-12-5.38-12-12v-96.57c0-6.62 5.38-12 12-12h336.17c6.62 0 12 5.38 12 12v96.57c0 6.62-5.38 12-12 12zM497.65 102.49c-5.51 0-10 4.49-10 10v96.57c0 5.51 4.49 10 10 10h336.17c5.51 0 10-4.49 10-10v-96.57c0-5.51-4.49-10-10-10H497.65zM146.2 171.64h-23.78c-6.05 0-11-4.95-11-11v-13.22c0-6.05 4.95-11 11-11h23.78c6.05 0 11 4.95 11 11v13.22c0 6.05-4.95 11-11 11zM409.16 171.64H184.05c-6.05 0-11-4.95-11-11v-13.22c0-6.05 4.95-11 11-11h225.11c6.05 0 11 4.95 11 11v13.22c0 6.05-4.95 11-11 11zM146.2 270.86h-23.78c-6.05 0-11-4.95-11-11v-13.22c0-6.05 4.95-11 11-11h23.78c6.05 0 11 4.95 11 11v13.22c0 6.05-4.95 11-11 11zM409.16 270.86H184.05c-6.05 0-11-4.95-11-11v-13.22c0-6.05 4.95-11 11-11h225.11c6.05 0 11 4.95 11 11v13.22c0 6.05-4.95 11-11 11zM146.2 366.09h-23.78c-6.05 0-11-4.95-11-11v-13.22c0-6.05 4.95-11 11-11h23.78c6.05 0 11 4.95 11 11v13.22c0 6.05-4.95 11-11 11zM409.16 366.09H184.05c-6.05 0-11-4.95-11-11v-13.22c0-6.05 4.95-11 11-11h225.11c6.05 0 11 4.95 11 11v13.22c0 6.05-4.95 11-11 11zM146.2 459.37h-23.78c-6.05 0-11-4.95-11-11v-13.22c0-6.05 4.95-11 11-11h23.78c6.05 0 11 4.95 11 11v13.22c0 6.05-4.95 11-11 11zM409.16 459.37H184.05c-6.05 0-11-4.95-11-11v-13.22c0-6.05 4.95-11 11-11h225.11c6.05 0 11 4.95 11 11v13.22c0 6.05-4.95 11-11 11zM557.25 294.4c-37.08 0-67.14 30.06-67.14 67.14 0 37.09 30.06 67.15 67.14 67.15 37.09 0 67.15-30.06 67.15-67.15s-30.06-67.14-67.15-67.14zm0 123.05c-30.87 0-55.9-25.04-55.9-55.91 0-30.88 25.03-55.9 55.9-55.9 30.87 0 55.91 25.02 55.91 55.9 0 30.87-25.04 55.91-55.91 55.91z"/><path class="st0" d="M555.63 363.31c1.2 0 2.18-.97 2.18-2.19 0-1.2-.98-2.19-2.18-2.19-1.2 0-2.18.99-2.18 2.19 0 1.21.98 2.19 2.18 2.19zM546.66 395.27c-1.2 0-2.19.98-2.19 2.18 0 1.21.98 2.19 2.19 2.19a2.185 2.185 0 0 0 0-4.37zM524.81 352.22c-1.21 0-2.18.98-2.18 2.19 0 1.2.97 2.18 2.18 2.18a2.185 2.185 0 0 0 0-4.37zM524.81 344.11c-1.21 0-2.18.98-2.18 2.19 0 1.2.97 2.19 2.18 2.19 1.2 0 2.18-.98 2.18-2.19s-.98-2.19-2.18-2.19zM532.36 351.16c1.2 0 2.18-.97 2.18-2.19 0-1.21-.97-2.18-2.18-2.18-1.21 0-2.19.97-2.19 2.18 0 1.22.98 2.19 2.19 2.19zM569.16 329.3c1.21 0 2.19-.98 2.19-2.19 0-1.19-.98-2.18-2.19-2.18s-2.18.98-2.18 2.18c0 1.21.98 2.19 2.18 2.19zM569.16 337.42c1.21 0 2.19-.98 2.19-2.18 0-1.2-.98-2.18-2.19-2.18s-2.18.98-2.18 2.18c0 1.19.98 2.18 2.18 2.18zM555.63 355.19a2.185 2.185 0 0 0 0-4.37 2.185 2.185 0 0 0 0 4.37zM563.18 357.86c1.2 0 2.18-.98 2.18-2.19 0-1.2-.98-2.17-2.18-2.17-1.21 0-2.19.97-2.19 2.17 0 1.22.98 2.19 2.19 2.19z"/><path class="st0" d="M557.25 310.21c-28.34 0-51.33 22.98-51.33 51.33 0 28.35 22.99 51.33 51.33 51.33 28.35 0 51.34-22.98 51.34-51.33-.01-28.35-22.99-51.33-51.34-51.33zm30.48 27.33c5.27-.34 9.85 4.28 10.25 10.32.38 6.04-3.57 11.22-8.83 11.56-2.06.13-4.01-.5-5.66-1.67-.8-.57-1.02-.84-.54-.63.3.12.61.19.93.17 1.12-.07 2.31-.61 3.19-1.95.53-.84-.05-1.91-1.04-1.92-3.36-.04-6.6 2.42-10.15 1.15-1.55-3.24-1.8-7.09-.68-10.49 3.38-1.72 6.93.34 10.27-.17.99-.15 1.44-1.31.82-2.08-1.05-1.28-2.36-1.55-3.53-1.48-.31.03-.62.13-.9.3-.45.27-.27-.04.45-.7 1.5-1.4 3.36-2.26 5.42-2.41zm-16.33-17.03c5.97 0 10.82 4.9 10.82 10.93s-4.85 10.92-10.82 10.92c-5.98 0-10.82-4.89-10.82-10.92s4.84-10.93 10.82-10.93zm-13.43 25.89c6.04 0 10.93 4.89 10.93 10.92 0 6.04-4.89 10.93-10.93 10.93s-10.93-4.89-10.93-10.93c0-6.03 4.89-10.92 10.93-10.92zm-20.69-26.28c4.85-3.63 11.33-3.16 14.51 1.06 1.23 1.65 1.78 3.63 1.7 5.64-.05.98-.15 1.33-.24.8a2.08 2.08 0 0 0-.36-.88c-.68-.89-1.79-1.61-3.39-1.59-1 0-1.57 1.07-1.04 1.91 1.82 2.83 5.64 4.18 6.51 7.85-1.86 3.07-4.94 5.39-8.39 6.31-3.29-1.88-3.51-5.97-5.78-8.49-.67-.74-1.88-.48-2.18.46-.5 1.58-.01 2.82.7 3.75.18.24.43.44.72.6.48.23.12.24-.83 0-1.96-.47-3.7-1.55-4.96-3.2-3.16-4.22-1.8-10.58 3.03-14.22zm-21.06 30.5c0-6.03 4.9-10.92 10.93-10.92 6.04 0 10.92 4.89 10.92 10.92s-4.88 10.92-10.92 10.92-10.93-4.89-10.93-10.92zm19.27 32.58c.28-.18.51-.39.68-.66.57-.96.83-2.24.22-3.73-.38-.92-1.59-1.07-2.16-.26-1.96 2.74-1.81 6.79-4.89 8.97-3.54-.61-6.84-2.61-8.97-5.48.53-3.75 4.25-5.47 5.76-8.51.44-.9-.24-1.93-1.23-1.86-1.65.13-2.62 1.04-3.23 2.03-.17.28-.26.58-.29.91-.04.53-.17.2-.31-.78-.28-1.99.08-4.01 1.15-5.77 2.74-4.51 9.16-5.61 14.32-2.46 5.17 3.16 7.13 9.36 4.39 13.87-1.08 1.76-2.72 3-4.63 3.67-.91.3-1.27.33-.81.06zM549 404.58c-6.04 0-10.93-4.89-10.93-10.93 0-6.03 4.89-10.93 10.93-10.93 6.03 0 10.92 4.9 10.92 10.93 0 6.04-4.89 10.93-10.92 10.93zm27.77-3.55c-6.04.54-11.29-3.29-11.76-8.55-.18-2.05.39-4.02 1.53-5.69.56-.81.82-1.05.63-.55-.12.31-.18.62-.16.93.1 1.12.67 2.3 2.04 3.14.86.52 1.9-.08 1.89-1.08-.06-3.36-2.57-6.53-1.4-10.11 3.2-1.63 7.04-1.96 10.46-.94 1.81 3.34-.15 6.93.43 10.26.18.99 1.35 1.43 2.1.78 1.25-1.08 1.48-2.4 1.4-3.56a2.08 2.08 0 0 0-.32-.89c-.28-.45.03-.28.71.43 1.41 1.43 2.33 3.27 2.51 5.33.47 5.26-4.03 9.95-10.06 10.5zm16.69-16.87c-6.04 0-10.92-4.89-10.92-10.92 0-6.04 4.88-10.93 10.92-10.93 6.03 0 10.93 4.89 10.93 10.93 0 6.03-4.9 10.92-10.93 10.92z"/><path class="st0" d="M591.13 374.85c-1.21 0-2.19.98-2.19 2.19a2.18 2.18 0 0 0 4.36 0c-.01-1.21-.98-2.19-2.17-2.19zM591.13 366.74c-1.21 0-2.19.98-2.19 2.18 0 1.21.97 2.19 2.19 2.19 1.19 0 2.17-.98 2.17-2.19-.01-1.2-.98-2.18-2.17-2.18zM598.67 369.41c-1.21 0-2.18.98-2.18 2.18 0 1.21.97 2.19 2.18 2.19 1.2 0 2.19-.98 2.19-2.19a2.207 2.207 0 0 0-2.19-2.18zM554.2 389.83c-1.21 0-2.18.97-2.18 2.18s.97 2.18 2.18 2.18c1.21 0 2.19-.98 2.19-2.18s-.97-2.18-2.19-2.18zM576.72 331.98c1.2 0 2.18-.98 2.18-2.19 0-1.2-.98-2.19-2.18-2.19s-2.19.98-2.19 2.19.99 2.19 2.19 2.19zM546.66 387.15c-1.2 0-2.19.97-2.19 2.18 0 1.21.98 2.19 2.19 2.19a2.185 2.185 0 0 0 0-4.37z"/><g><path class="st0" d="M857.58 427.56c-4.52-8.72-8.46-17.43-12.04-26.45-.35-11.68-2.66-23.39-5.47-34.62-1.85-7.44-4.29-14.73-6.77-21.98-1.47-4.21-2.79-9.65-5.22-13.84 2.26-1.36 4.34-2.8 6.08-4.18.74-.58 1-1.6.76-2.28 1.18-5.52-1.45-10.43-4.01-15.2-2.37-4.42-10.29-15.46-15.9-13.02-1.77-6.56-6.46-11.89-12.22-15.1-3.53-1.97-7.84-.52-11.5 2.21-4.89-10.97-17.6-24.73-29.42-19.19-6.59 3.07-10.82 6.48-16.49 10.95-1.11.89-3.33-.38-5.75.04-8.36 1.48-15.45 5.75-21.56 11.56-2.73 2.61-7.75 7.89-8.94 12.57-.63 1.08-1.18 2.44-.76 3.47l-.03.42c.37 3.08 2.82 6.13 4.58 8.62.43.61.98 1.46 1.6 2.32-.3.28-.51.59-.65.91l-.26.64c-12.52 13.67-19.45 34.29-23.22 51.66-2.33 10.76-3.27 22.1-1.79 33.02.48 3.66 1.48 6.77 2.86 9.65l.03.17c-3.96 5.73-5.43 12.87-7.09 19.66-.3 1.17-.3 2.35.8 3.1 5.92 4.14 12.35 6.06 19.36 7.44 6.35 1.25 14.5 2.72 20.91.63 16.15 7.07 34.96 9.11 52.12 8.83 15.66-.24 34.06-2.02 49.61-8.45 10.32 1.79 22.35-3.12 29.56-10.31.69-.73 1.33-2.3.82-3.25zm-125.7-135.48c3.67-3.66 8.84-6.76 12.89-9.59 5.45-3.83 11.14-7.37 17.06-10.4 11.07-5.68 16.54 9.8 24.74 15.71-1.48 1.95-2.57 3.99-2.99 5.78-.16.77.55.92 1.11.71 6.03-2.38 10.93-10.43 16.98-4.44 3.87 3.83 6.7 10.19 11.68 12.68 1.11.56 2.36-.4 2.74-1.53.15.68.47 1.31.66 1.97.13.42.26.8.36 1.17-1.12.63-2.25 1.31-3.52 1.83-4 1.65-8.57 2.06-12.82 2.47-11.01 1.08-21.98.44-32.88-1.5-9.71-1.71-19.29-5.05-28.14-9.33-1.52-.73-5.06-2.93-7.88-5.42l.01-.11zm-17.91 9.96c2.39-4.44 5.07-8.45 8.92-11.96l.45-.38c.19 1.95.75 3.87 1.41 4.86 6.09 9.26 17.4 13.74 27.3 17.31 15.07 5.43 30.81 7.44 46.75 6.57 6.53-.37 18.4-1.18 23.68-6.72.65 1.62 1.4 3.2 2.12 4.74.89 1.97 1.57 4.67 2.89 6.63-1.93.97-3.8 2.23-5.62 3.19-1.16.63-2.34 1.18-3.52 1.71-5.97 1.62-12.16 2.7-17.65 3.73-11.69 2.18-23.36 2.75-35.19 1.64-1.79-.4-3.59-.77-5.29-1.24-6.89-1.88-13.55-4.16-20-7.19-5.82-2.73-11.2-6.29-16.06-10.46-4.19-3.63-6.68-8.42-10.19-12.43zM837.45 435.9c1.03-.64 11.71-7.92 6.91-8.34-2.73-.24-6.14 1.6-8.65 2.47-29.55 10.15-61.72 15.03-92.72 9.28-8.29-1.55-16.43-3.8-24.27-6.9-3.5-1.38-7.15-4.11-11.09-3.27.72 1.08 1.88 2.14 2.93 3.12-4.69-.35-16.59.12-19.95-3.92-2.69-3.26 1-8.57 2.38-11.82 1.03 3.4 5.85 6.72 8.84 8.38.68.37 11.76 3.73 9.41.16-.67-1.03-1.27-2.09-1.88-3.17-10.48-18.82-14.61-49.87-1.87-68.57 5.01-7.38 13.19-15.43 22.69-16.11 11.08-.8 21.62 2.87 32.7 3.69 13.53 1.01 27.33.05 40.55-3.07 1.18-.28 2.4-.57 3.67-.89 14.98-3.73 22.45 16.25 25.42 26.94 2.9 10.54 3.38 21.51 3.09 32.35-.17 6.48-.14 13.03-1.25 19.43-.29 1.6-5.22 15.52-.03 11.02 1.91-1.64 3.61-3.48 5.43-5.21 1.91-1.81 4.48-3 5.64-5.52 1.21 2.47 2.48 4.88 3.94 7.21 1.11 1.81 3.31 4.46 1.87 6.63-1.32 1.95-4.64 2.79-6.68 3.67a42.31 42.31 0 0 1-7.08 2.44z"/></g><g><path class="st0" d="M591.11 155.26c-6.63-2.06-9.95-7.68-9.95-16.87v-9.44c0-10.66 7.39-15.99 22.16-15.99 5.92 0 11.08 1.28 15.49 3.84 4.41 2.56 6.61 6.61 6.61 12.15v9.44c0 9.19-3.32 14.82-9.95 16.87 6.97 1.68 10.45 6.32 10.45 13.92v18.57c0 11.42-7.58 17.13-22.73 17.13-15.03 0-22.54-5.71-22.54-17.13v-18.57c.01-7.65 3.49-12.29 10.46-13.92zm15.49-8.38v-18.83c0-1.8-1.09-2.71-3.27-2.71-2.23 0-3.34.9-3.34 2.71v18.83c0 1.8 1.11 2.71 3.34 2.71 2.18 0 3.27-.9 3.27-2.71zm0 42.69v-26.32c0-1.8-1.09-2.71-3.27-2.71-2.23 0-3.34.9-3.34 2.71v26.32c0 1.81 1.11 2.71 3.34 2.71 2.18 0 3.27-.9 3.27-2.71zM659.19 155.26c-6.63-2.06-9.95-7.68-9.95-16.87v-9.44c0-10.66 7.39-15.99 22.16-15.99 5.92 0 11.08 1.28 15.49 3.84 4.41 2.56 6.61 6.61 6.61 12.15v9.44c0 9.19-3.32 14.82-9.95 16.87 6.97 1.68 10.45 6.32 10.45 13.92v18.57c0 11.42-7.58 17.13-22.73 17.13-15.03 0-22.54-5.71-22.54-17.13v-18.57c0-7.65 3.49-12.29 10.46-13.92zm15.48-8.38v-18.83c0-1.8-1.09-2.71-3.27-2.71-2.23 0-3.34.9-3.34 2.71v18.83c0 1.8 1.11 2.71 3.34 2.71 2.18 0 3.27-.9 3.27-2.71zm0 42.69v-26.32c0-1.8-1.09-2.71-3.27-2.71-2.23 0-3.34.9-3.34 2.71v26.32c0 1.81 1.11 2.71 3.34 2.71 2.18 0 3.27-.9 3.27-2.71zM727.26 155.26c-6.63-2.06-9.95-7.68-9.95-16.87v-9.44c0-10.66 7.39-15.99 22.16-15.99 5.92 0 11.08 1.28 15.49 3.84 4.41 2.56 6.61 6.61 6.61 12.15v9.44c0 9.19-3.32 14.82-9.95 16.87 6.97 1.68 10.45 6.32 10.45 13.92v18.57c0 11.42-7.58 17.13-22.73 17.13-15.03 0-22.54-5.71-22.54-17.13v-18.57c.01-7.65 3.49-12.29 10.46-13.92zm15.49-8.38v-18.83c0-1.8-1.09-2.71-3.27-2.71-2.23 0-3.34.9-3.34 2.71v18.83c0 1.8 1.11 2.71 3.34 2.71 2.17 0 3.27-.9 3.27-2.71zm0 42.69v-26.32c0-1.8-1.09-2.71-3.27-2.71-2.23 0-3.34.9-3.34 2.71v26.32c0 1.81 1.11 2.71 3.34 2.71 2.17 0 3.27-.9 3.27-2.71z"/></g></svg>
