<svg xmlns="http://www.w3.org/2000/svg" viewBox="0 0 131.66 160.01" overflow="visible"><style>.st0{fill:#fff}</style><path class="st0" d="M88.68 20.17c-1.96-.1-3.58-.26-5.2-.27-23.33-.02-46.66.1-69.99-.1-4.47-.04-6.03 1.05-5.98 5.77.24 21.66.1 43.33.12 64.99.01 15.81.06 31.62.12 47.43 0 .64.2 1.28.44 2.66H89.3c0-10.05.02-19.59-.02-29.14-.01-1.49-.75-3.2-.23-4.41.76-1.77 2.36-3.19 3.6-4.75 1.3 1.63 3.38 3.11 3.72 4.92.57 3.04-.03 6.28-.03 9.44.02 10.16.29 20.33.07 30.48-.16 7.59-5.58 12.73-13.19 12.76-23.31.09-46.61.08-69.92-.01-6.8-.03-11.6-4.29-12.82-10.95-.3-1.63-.43-3.3-.44-4.96C.02 101.7.02 59.37 0 17.04 0 9.94 1.52 3.7 9.08.98 10.9.33 12.95.06 14.9.05 37.23-.01 59.56-.02 81.89.04c8.99.02 14.31 5.22 14.58 14.11.12 4 .44 8.05-.12 11.97-.28 2-2.16 5.21-3.56 5.34-3.3.31-3.98-2.65-3.87-5.61.08-1.78-.14-3.58-.24-5.68zm-40.56-5.85v-.05c4.16 0 8.34.26 12.46-.13 1.54-.14 2.94-1.79 4.4-2.75-1.45-1.18-2.87-3.31-4.37-3.37-8.3-.34-16.63-.32-24.93-.03-1.4.05-2.73 2.01-4.09 3.09 1.35 1.08 2.63 2.94 4.08 3.09 4.11.43 8.29.15 12.45.15zm1.82 137.9c.83.06 2.65.66 4.07.15 1.55-.55 3.82-2.13 3.8-3.24-.02-1.44-1.87-3.95-3.12-4.08-4.24-.41-8.6-.24-12.83.31-1.28.17-2.31 2.28-3.45 3.5 1.25 1.12 2.35 2.85 3.79 3.21 2.18.55 4.6.15 7.74.15z"/><path class="st0" d="M92.71 54.92c0 1.21.83 2.39 2.49 3.52v-5.72c-.76 0-1.37.23-1.82.7-.44.47-.67.97-.67 1.5zM98.05 67.95v6.43c1.65-.25 2.48-1.15 2.48-2.68 0-1.36-.83-2.61-2.48-3.75z"/><path class="st0" d="M122.2 41.5H71.14c-5.2 0-9.46 4.26-9.46 9.46V77.8c0 5.2 4.26 9.46 9.46 9.46h2.53l-5.71 15.7S81 93.34 87.19 87.26h35.01c5.2 0 9.46-4.26 9.46-9.46V50.96c0-5.2-4.26-9.46-9.46-9.46zm-18.35 31.79c-.64.98-1.39 1.71-2.25 2.2-.86.49-2.05.78-3.54.89v2.71h-2.81V76.1c-.9-.37-1.5-.66-1.8-.86-.26-.18-.47-.26-.61-.26-.24 0-.46.24-.64.71-.12.29-.25.46-.38.52s-.54.09-1.22.09c-.21 0-.36-.26-.45-.79l-1.01-5.85c-.05-.31-.08-.49-.08-.54 0-.39.37-.58 1.11-.58.58 0 .95.07 1.11.22.16.14.47.62.92 1.44 1.1 1.98 2.12 3.19 3.06 3.62v-7.65c-4.47-2.5-6.71-5.48-6.71-8.95 0-1.19.18-2.18.55-2.98.36-.8 1.02-1.53 1.97-2.2.95-.67 2.34-1.03 4.18-1.07v-1.59h2.81v1.8c.32.08 1.04.38 2.16.91.16-.14.3-.31.4-.51.18-.33.4-.5.66-.5h.83l.3-.02c.17.02.27.18.31.46 0 .02.03.18.1.48l.76 4.03c.01.07.03.18.07.33.19.84.28 1.35.28 1.55 0 .25-.31.38-.94.38-.62 0-.98-.02-1.09-.06-.11-.04-.29-.32-.54-.83-1.01-2.02-2.11-3.31-3.29-3.88v6.51c2.76 1.74 4.58 3.3 5.46 4.67.88 1.38 1.31 2.96 1.31 4.74-.03 1.58-.35 2.87-.99 3.85z"/></svg>
