<svg xmlns="http://www.w3.org/2000/svg" viewBox="0 -202 843 1008"><path fill="currentColor" d="M613 115c-12 0-22 4-30 12l-67 66c-16 16-16 44 0 60l45 45 126-126-45-45c-8-8-17-12-29-12zm0-84v-1c35 0 64 12 89 36l75 76c34 34 58 76 65 148 3 35 1 71-8 110-19 78-81 181-182 282-127 127-248 191-366 191-71 0-129-22-173-66l-75-74c-24-25-37-55-37-89 0-36 13-66 37-90l67-66c24-25 56-37 88-37s63 13 88 37l59 57 175-174-58-59c-25-25-38-54-38-89s13-65 38-89l66-67c24-24 54-36 90-36zM96 613h-1c-16 16-17 43 0 59l46 45 126-126-46-45c-17-16-41-16-58 0zm188 175l2-1c95 0 196-55 307-166 88-88 139-174 155-234 13-48 11-88 4-119-8-31-22-54-35-67L591 327l12 12c16 17 16 44 0 60L368 634c-8 8-17 12-29 12s-23-4-31-12l-12-13-126 127c28 27 66 40 114 40z"/></svg>
