<svg xmlns="http://www.w3.org/2000/svg" viewBox="0 0 240.09 189.63"><path d="M121.14 189.63c11.85-.01 23.63-.67 35.23-3.31 5.94-1.35 11.71-3.2 17.16-5.96 3.87-1.97 7.42-4.38 10.38-7.62 1.37-1.49 2.15-3.12 1.75-5.21-.42-2.2-.66-4.42-1.07-6.62-1.29-7.07-2.63-14.13-3.92-21.2-.68-3.72-2.4-6.86-4.9-9.69-5.61-6.37-12.32-11.03-20.25-14.08-5.55-2.14-11.25-2.11-17-1.9-.77.03-1.54.36-2.28.64-10.89 4.15-21.94 3.91-32.91.71-4.2-1.22-8.17-1.34-12.23-.19-9.35 2.63-17.13 7.63-23.12 15.4-2.2 2.85-3.9 5.84-4.49 9.39-1.48 8.98-2.82 17.98-4.4 26.94-.5 2.88.49 4.95 2.34 6.92 2.66 2.83 5.79 5.01 9.21 6.8 5.14 2.68 10.61 4.41 16.23 5.71 11.27 2.61 22.74 3.25 34.27 3.27zM150.02 63.96c-.24-5.08-.25-9.39-.69-13.66-1.13-11.18-7.62-18.32-17.72-22.38-7-2.81-14.28-3.16-21.64-1.45-14.23 3.3-22.17 14.92-23.02 25.69-.31 3.96-.55 7.92-.84 12.11-3.09 2.1-4.3 5.18-3.69 9.02.67 4.23 4 5.85 7.02 7.18 1.59 3.24 2.93 6.14 4.43 8.96 2.04 3.84 4.67 7.24 8.01 10.06 3.73 3.14 7.9 5.44 12.73 6.28 7.88 1.37 14.43-1.42 20.1-6.72 4.51-4.21 7.63-9.39 10.27-14.9.61-1.28 1.18-2.59 1.71-3.75 3.57-1.44 6.56-3.1 7.23-7.17.66-4.07-.88-7.14-3.9-9.27zM202.28 162.99c3.26-.6 5.93-.99 8.55-1.58 7.19-1.63 14.14-3.95 20.45-7.88 2.86-1.78 5.47-3.87 7.6-6.51 1.07-1.33 1.42-2.75 1.09-4.46-.64-3.29-1.09-6.61-1.71-9.9-1.22-6.42-2.5-12.84-3.76-19.25-.44-2.23-1.37-4.22-2.76-6.03-6.46-8.34-14.65-14.26-24.82-17.07-6.2-1.71-12.53-2.32-18.73.46-1.29.58-2.75.83-4.15 1.1-6.65 1.27-13.33 1.15-20.01.29-1.07-.14-2.16-.12-3.28-.18-1.24 2.09-2.39 3.99-3.49 5.93-.3.53-.42 1.17-.62 1.73.38.25.61.52.88.58 1.25.25 2.51.48 3.77.66 8.48 1.19 15.82 4.8 22.13 10.54 7.48 6.8 11.77 15.41 13.95 25.12 1.22 5.44 2.05 10.97 3.07 16.46.56 3.1 1.14 6.22 1.84 9.99zM76.29 92.24c-.56-.15-.86-.3-1.16-.29-1.11.03-2.23.12-3.34.19-7.54.5-14.99.34-22.11-2.68-.72-.3-1.52-.5-2.3-.55-7.77-.57-15.25.31-22.27 4.06-5.85 3.13-10.93 7.12-15.26 12.15-2.24 2.6-3.84 5.43-4.46 8.85-1.73 9.57-3.51 19.13-5.31 28.69-.26 1.39.11 2.55.93 3.57.9 1.11 1.86 2.2 2.91 3.17 3.33 3.06 7.22 5.25 11.32 7.07 6.46 2.88 13.27 4.52 20.19 5.77.73.13 1.52-.11 2.3-.17.31-.94.66-1.67.79-2.44.74-4.24 1.35-8.51 2.14-12.74 1.36-7.2 2.42-14.46 5.56-21.22 6.12-13.19 16.08-21.55 30.3-24.78 1.33-.3 2.64-.71 4.25-1.16-1.65-2.77-3.12-5.21-4.48-7.49zM203.91 39.4c0-2.13.02-3.55 0-4.98-.04-2.71.02-5.43-.17-8.13-.46-6.46-3-11.98-7.61-16.58-5.08-5.06-11.3-7.66-18.26-8.65-8.49-1.2-16.54.2-23.97 4.59-3.64 2.15-6.61 5.02-8.55 8.82-.41.8-.54 1.74-.82 2.71.7.45 1.2.85 1.75 1.12 12.1 5.73 17.86 15.88 19.55 28.64.52 3.9.08 7.94.08 12.16.65.51 1.3.98 1.91 1.49 2.62 2.2 3.06 5.12 2.56 8.27-.34 2.15-1.57 3.82-3.23 5.16-1.77 1.43-2.4 3.26-2.13 5.52.61.34 1.13.76 1.72.93 4.77 1.34 9.47 1.16 14.04-.81 5.12-2.2 9.26-5.73 12.39-10.25 2.44-3.53 4.49-7.34 6.47-11.15.84-1.61 1.39-3.2 3.42-3.61.45-.09.86-.42 1.26-.68 4.78-3.03 5.53-8.95 1.62-13.12-.65-.7-1.56-1.13-2.03-1.45zM92.43 16.17c-1.03-3.41-3.16-5.59-5.44-7.56-11.77-10.16-28.8-11.38-41.47-3.4-7.3 4.6-11.67 11.23-12.29 20.01-.22 3.18-.38 6.38-.21 9.56.12 2.27-.45 3.82-2.11 5.46-4.02 3.97-3.15 10.07 1.66 13.07 1.07.67 2.27 1.11 2.96 1.44 2.39 4.32 4.36 8.34 6.75 12.09 3.22 5.05 7.44 9.16 12.94 11.78 3.54 1.68 7.26 2.41 11.16 2.01 1.24-.13 2.54-.29 3.31-1.49-.12-3.04-.28-5.88-2.24-8.58-2.12-2.92-1.47-7.51 1.12-10.14 1.61-1.64 2.33-3.29 2.04-5.51-.15-1.1-.2-2.24-.09-3.35.36-3.64.31-7.43 1.34-10.89 2.68-8.98 8-16.26 15.7-21.7 1.43-.99 3.03-1.75 4.87-2.8z"/></svg>
