<svg xmlns="http://www.w3.org/2000/svg" viewBox="0 -189 1008 1008"><path fill="currentColor" d="M630 693c87 0 160-31 222-93 63-62 93-135 93-222s-30-160-93-222c-62-63-135-93-222-93s-160 30-222 93c-62 62-93 135-93 222 0 86 31 159 93 222 63 62 136 93 222 93zm0-536v-1c11 0 16 8 16 16s-5 16-16 16c-52 0-99 22-133 56-35 35-56 82-56 134 0 11-8 17-15 17-8 0-16-6-16-17 0-62 21-113 64-156 46-44 97-65 156-65zM73 935c19 19 52 26 79-1l254-254c-31-23-56-48-79-79L73 855c-27 27-20 60 0 80zm222-381v-1c-28-55-43-114-43-177 0-105 38-191 110-266C437 35 525-2 630-2s193 37 268 112c74 75 110 163 110 268s-36 193-110 267-162 110-268 110c-63 0-122-15-177-43L191 974c-23 23-50 33-81 33s-58-12-78-32-32-47-32-78 12-57 33-81z"/></svg>
