<svg xmlns="http://www.w3.org/2000/svg" viewBox="0 0 29.66 30.94" overflow="visible"><style>.st0{fill:#333}</style><path class="st0" d="M14.69 17.66c-4.87 0-8.83-3.96-8.83-8.83S9.82 0 14.69 0s8.83 3.96 8.83 8.83-3.96 8.83-8.83 8.83zm0-16.66c-4.32 0-7.83 3.51-7.83 7.83s3.51 7.83 7.83 7.83 7.83-3.51 7.83-7.83S19.01 1 14.69 1zM29.15 30.94H0v-.5c0-10.83 3.64-12.22 6.82-12.22 1.62 0 2.67.33 3.68.66 1.1.35 2.25.72 4.29.72 2.14 0 3.57-.36 4.95-.71 1.15-.29 2.24-.57 3.56-.57 1.33 0 2.48.49 3.42 1.46 3.08 3.15 2.94 10.37 2.94 10.68l-.01.49h-.5zM1 29.94h27.65c-.03-1.65-.3-7.06-2.65-9.47-.76-.78-1.64-1.16-2.7-1.16-1.2 0-2.18.25-3.32.54-1.38.35-2.94.74-5.2.74-2.2 0-3.47-.41-4.59-.76-.98-.31-1.91-.61-3.37-.61-1.86 0-5.7 0-5.82 10.72z"/></svg>
