<svg xmlns="http://www.w3.org/2000/svg" viewBox="0 -192 882 1008"><path fill="currentColor" d="M433 107c-104 0-189 85-189 189 0 105 85 189 189 189s189-84 189-189c0-104-85-189-189-189zm8 465l-8 8c-155 0-281-128-281-286C152 137 280 9 437 9c158 0 286 126 286 281 0 156-126 282-282 282zM91 918h693l4-51c7-94-77-171-172-171-29 0-75 31-177 31-100 0-148-31-177-31-95 0-171 77-171 171v51zm527-319l-4 4c146 0 264 119 264 264v51c0 52-41 93-92 93H93c-52 0-93-43-93-96v-52c0-145 118-264 264-264 57 0 84 32 177 32s120-32 177-32z"/></svg>
