<svg xmlns="http://www.w3.org/2000/svg" viewBox="0 0 251.24 292.45"><style>.st0{fill:#fff}</style><path class="st0" d="M245.88 292.45H183c-2.44 0-4.36-2.79-4.36-6.34V169.87c0-3.56 1.91-6.34 4.36-6.34h62.88c2.44 0 4.36 2.79 4.36 6.34v116.24c0 3.55-1.91 6.34-4.36 6.34zm-62.87-125.93c-.42 0-1.36 1.26-1.36 3.34V286.1c0 2.08.94 3.34 1.36 3.34h62.88c.42 0 1.36-1.26 1.36-3.34V169.87c0-2.08-.94-3.34-1.36-3.34h-62.88z"/><path class="st0" d="M237.31 200.43h-45.73c-2.53 0-4.36-1.24-4.36-2.95v-11.62c0-1.71 1.83-2.95 4.36-2.95h45.73c2.53 0 4.36 1.24 4.36 2.95v11.62c0 1.71-1.84 2.95-4.36 2.95zm-47.09-3.27c.23.12.7.27 1.36.27h45.73c.66 0 1.13-.15 1.36-.27v-10.99c-.23-.12-.7-.27-1.36-.27h-45.73c-.66 0-1.13.15-1.36.27v10.99zM237.31 221.49h-45.73c-2.53 0-4.36-1.24-4.36-2.95v-11.62c0-1.71 1.83-2.95 4.36-2.95h45.73c2.53 0 4.36 1.24 4.36 2.95v11.62c0 1.7-1.84 2.95-4.36 2.95zm-47.09-3.28c.23.12.7.27 1.36.27h45.73c.66 0 1.13-.15 1.36-.27v-10.99c-.23-.12-.7-.27-1.36-.27h-45.73c-.66 0-1.13.15-1.36.27v10.99zM237.31 242.12h-45.73c-2.53 0-4.36-1.24-4.36-2.95v-11.62c0-1.71 1.83-2.95 4.36-2.95h45.73c2.53 0 4.36 1.24 4.36 2.95v11.62c0 1.71-1.84 2.95-4.36 2.95zm-47.09-3.27c.23.12.7.27 1.36.27h45.73c.66 0 1.13-.15 1.36-.27v-10.99c-.23-.12-.7-.27-1.36-.27h-45.73c-.66 0-1.13.15-1.36.27v10.99zM237.31 274.81h-45.73c-2.4 0-4.36-1.92-4.36-4.28v-22.21c0-2.36 1.96-4.28 4.36-4.28h45.73c2.4 0 4.36 1.92 4.36 4.28v22.21c0 2.37-1.96 4.28-4.36 4.28zm-45.73-27.76c-.75 0-1.36.57-1.36 1.28v22.21c0 .7.61 1.28 1.36 1.28h45.73c.74 0 1.36-.58 1.36-1.28v-22.21c0-.7-.61-1.28-1.36-1.28h-45.73z"/><g><path class="st0" d="M179.39 290.92H24.2v-66.38l73.65 23.94v-23.9l81.53 25.5v40.84zm-150.19-5h145.19v-32.17l-71.53-22.37v23.98L29.2 231.43v54.49zM145.81 144.14c-8.62 0-16.7-3.85-22.17-10.57l-.39-.48-.61.02c-.26.01-.51.02-.77.02H59.98h-.02c-1.49 0-2.88-.25-4.23-.74l-.34-.13c-.2-.08-.41-.17-.61-.27l-.35-.17c-.2-.1-.4-.2-.59-.31l-.4-.24c-.17-.1-.33-.21-.49-.32-.08-.06-.15-.11-.21-.16-.37-.27-.69-.53-1-.81-.15-.13-.25-.22-.35-.32-.12-.12-.23-.24-.35-.36-.15-.16-.27-.29-.39-.42-.12-.14-.23-.28-.34-.42-.11-.14-.23-.3-.34-.45-.11-.16-.2-.28-.28-.4-.13-.2-.25-.39-.36-.59-.09-.15-.14-.24-.19-.33-.17-.31-.32-.63-.46-.95-.04-.09-.07-.17-.1-.26a9.649 9.649 0 0 1-.39-1.14c-.07-.25-.13-.49-.19-.72-.03-.14-.06-.27-.08-.4-.05-.26-.09-.52-.12-.77-.02-.17-.04-.27-.04-.37-.03-.37-.06-.75-.06-1.14 0-3.62 1.6-7.03 4.39-9.36 2.77-2.32 6.41-3.27 9.98-2.63l1.61.29-.17-1.63c-.11-1.04-.17-2.08-.17-3.08 0-15.77 12.83-28.61 28.61-28.61.77 0 1.55.03 2.32.09l1.27.1.05-1.28a20.983 20.983 0 0 1 21.05-20.29c1.24 0 2.51.12 3.78.34l1.61.29-.17-1.63c-.19-1.76-.28-3.52-.28-5.21 0-.74.02-1.48.06-2.21l.04-.64c.03-.56.08-1.11.13-1.66l.06-.6c.07-.69.16-1.38.26-2.06l.11-.68c.08-.47.16-.94.25-1.4l.18-.89c.09-.41.19-.82.29-1.24.12-.5.25-.99.39-1.48.11-.41.21-.74.3-1.07.12-.39.24-.77.37-1.15l.24-.72c.49-1.41 1.06-2.83 1.68-4.2l.1-.21a48.427 48.427 0 0 1 3.21-5.84C138.19 8.34 153.4 0 169.92 0c20.71 0 39.11 13.17 45.77 32.78l.31.9.95-.08c1.02-.08 1.87-.12 2.69-.12 17.42 0 31.6 14.18 31.6 31.61 0 15.6-11.63 29.04-27.04 31.27l-1.01.15-.04 1.02a35.663 35.663 0 0 1-35.74 34.34 35.46 35.46 0 0 1-14.87-3.24l-1.04-.48-.55 1.01c-5 9.24-14.64 14.98-25.14 14.98zM125.55 128l1.97 2.42c4.51 5.55 11.18 8.73 18.29 8.73 8.66 0 16.62-4.74 20.76-12.37l2.77-5.11 5.29 2.42c4.03 1.85 8.34 2.78 12.79 2.78 16.58 0 30.09-12.97 30.74-29.54l.2-5.17 5.13-.74c12.97-1.88 22.76-13.19 22.76-26.32 0-14.67-11.93-26.61-26.6-26.61-.68 0-1.41.03-2.29.11l-4.84.39-1.56-4.59A43.33 43.33 0 0 0 169.92 5c-14.81 0-28.45 7.48-36.49 20-.81 1.27-1.56 2.58-2.23 3.9l-.05.1c-.18.37-.39.8-.59 1.23l-.09.21c-.56 1.22-1.06 2.49-1.5 3.75-.07.22-.15.43-.22.64-.11.34-.22.68-.33 1.03-.09.29-.17.58-.25.87-.14.52-.26.96-.37 1.41-.09.37-.18.74-.26 1.11-.06.26-.11.53-.16.79-.08.42-.15.83-.22 1.25l-.1.61c-.09.61-.17 1.23-.24 1.85l-.05.54c-.05.49-.08.99-.11 1.48l-.03.58c-.03.66-.05 1.32-.05 1.99 0 1.52.09 3.09.26 4.68l.89 8.27-8.19-1.48c-.97-.18-1.94-.26-2.89-.26-8.69 0-15.74 6.8-16.05 15.47l-.24 6.5-6.48-.52c-.63-.05-1.28-.08-1.92-.08-13.02 0-23.61 10.59-23.61 23.61 0 .83.05 1.69.14 2.55l.89 8.27-8.18-1.48c-2.14-.39-4.23.16-5.89 1.55a7.188 7.188 0 0 0-2.6 5.52c0 .23.01.45.04.68l.03.22c.02.15.04.3.07.45l.05.24c.03.13.07.27.1.4l.07.23c.05.14.1.28.16.42l.06.15c.1.23.19.42.28.6l.11.19c.07.12.14.24.22.36l.14.2c.1.13.16.22.23.31s.13.17.2.24c.07.08.14.15.21.23.1.11.17.18.23.24l.21.19c.18.16.37.32.57.46l.13.1c.1.07.19.13.28.18l.26.16c.11.06.22.12.34.18l.21.1c.1.05.22.1.35.15l.22.08c.78.28 1.6.43 2.42.43h.04l6.38-.11v.11h55.56c.19 0 .38-.01.56-.02l3.11-.11z"/><path class="st0" d="M44.06 130.09H11.89v-.07C5.52 129.35.54 123.95.54 117.41c0-7.12 5.9-12.93 13.06-12.68-.01-.34-.02-.67-.02-1 0-14.75 12.16-26.69 26.99-26.36a20.01 20.01 0 0 1 19.96-17.83c.55 0 1.12.02 1.68.07-.06-.92-.09-1.83-.09-2.72 0-23.62 19.21-42.83 42.83-42.83 5.55 0 10.96 1.05 16.08 3.13l1.65.67-.94 1.51a51.6 51.6 0 0 0-7.83 27.33c0 .4 0 .81.02 1.22l.04 1.54h-1.54c-11.91 0-22.05 8.47-24.13 20.15l-.21 1.21-1.22.03c-17.15.46-30.84 14.26-31.17 31.41l-.03 1.35-1.34.12c-8.01.69-14.28 7.54-14.28 15.58 0 3 .87 5.93 2.51 8.47l1.5 2.31zm-29.17-3h23.87a18.514 18.514 0 0 1-1.72-7.79c0-9.14 6.8-16.98 15.7-18.41.99-17.75 15.09-31.92 32.84-33 2.67-12 13.03-20.73 25.33-21.4.04-9.56 2.57-18.91 7.35-27.16a39.478 39.478 0 0 0-13.3-2.28c-21.96 0-39.83 17.87-39.83 39.83 0 1.4.08 2.85.23 4.3l.21 1.99-1.97-.36c-1.03-.19-2.06-.28-3.07-.28-9.24 0-16.73 7.23-17.07 16.46l-.06 1.57-1.56-.13c-.62-.05-1.26-.08-1.89-.08-12.88 0-23.37 10.48-23.37 23.37 0 .83.05 1.67.14 2.52l.21 1.99-1.97-.36c-.58-.1-1.16-.16-1.74-.16-5.34 0-9.68 4.34-9.68 9.68s4.34 9.68 9.68 9.68l1.66-.03v.05zM77.37 239.25L45.21 228.8l3.23-91.13h25.33l3.6 101.58zm-27.03-14.04l21.78 7.08-3.17-89.62H53.26l-2.92 82.54z"/><g><path class="st0" d="M21.75 291.27H0l5.44-153.6h25.33l3.1 87.44-12.12-3.94v70.1zm-16.57-5h11.57v-71.98l11.87 3.86-2.67-75.48H10.27l-5.09 143.6z"/></g></g></svg>
