<svg xmlns="http://www.w3.org/2000/svg" viewBox="0 0 150.07 165.97"><style>.st0{fill:#5e8234}</style><g id="XMLID_1_"><path id="XMLID_7_" class="st0" d="M139.28 120.56a40.742 40.742 0 0 0-5.27-2.86c-4.23-2.07-9.25-2.9-14.11-3.69-6.46-1.05-16-2.04-18.72-5.96-2.95-4.26-.62-8.31 1.4-10.98 4.04-6.84 3.47-14.07 1.53-19.3-2.38-6.47-6.4-11.77-10.04-15.07-.02-.02-.4-.42-.44-.84-.04-.34.1-.84.41-1.12.71-.64 2.32-.78 3.44-.7 0 0 .09.01.2.03 1.21.1 3.3.45 6.29 1.56l-.02-.01c8.21 3.18 13.87 11.21 15.18 19.78.66 3.98.54 7.38.54 7.42-.01.07-.93 4.04 1.87 5.67 4.5 2.63 8.36-1.39 8.4-1.43l.08-.09.11.05c1.9.97 3.65 1.17 5.2.59 2.53-.94 3.66-3.65 3.68-3.67l.02-.07.07-.03c1.68-.62 2.89-2.22 3.33-4.39 1.02-5.08-2.27-11.75-8.8-17.84v-.01c-8.25-7.2-17.92-11.94-27.1-13.74l-1.8-.34c-5.58-1.09-11.06-.9-15.2-.62-4.34.3-6.23-1.57-6.99-2.71-1.42-2.16-1.11-4.73-1.09-4.84.38-3.75 1.11-4.39 1.21-4.44 5.68-4.55 9.7-9.52 10.73-16.79.96-6.75-1.46-12.66-4.83-16.96C85.44 3.17 80.62.67 74.99.1c-.13-.02-.28-.03-.41-.04-8.72-.69-19.25 4.4-21.95 15.42l-.03.1h-.11c-2.47-.07-4.6 1.79-4.85 4.23-.26 2.58 1.63 4.9 4.21 5.18l.12.01v.12c.62 7.99 3.9 13.27 10.64 17.1l.31.17c3.06 1.68 6.17 3.58 6.17 5.49 0 1.8-1.02 4.12-3.89 4.76-.01 0-1.91.46-4.76.45h-.21c-2.24-.03-4.21-.37-6.49-.75-.51-.09-1.04-.18-1.59-.27l-.04.05c-.05-.01-.1-.02-.15-.02-.51-.11-1.05-.21-1.61-.32-6.42-1.23-11.5-4.07-14.72-8.02l1.76 14.78c2.46.78 4.94 1.34 7.38 1.68 1.2.17 2.48.3 3.81.41 2.32.2 4.48.28 6.67.23 2.32-.03 4.61-.18 6.72-.5 1.43-.12 5.7-.05 8.78 4.28 2.08 2.92 3.3 5.8 4.03 8.91.39 1.64.57 3.42.58 5.61h-.14.14c-.02 3.11-1.11 5.79-3.08 7.53-2 1.78-4.84 2.51-8.19 2.12-6.15-.72-10.6 3.94-10.65 3.99-2.34 2.44-4.17 5.35-8.1 5.56-4.77.25-7.57-2.32-9.88-5.13-3.32-4.05-5.34-6.01-7.45-7.26-4.1-2.44-7.97-2.54-8.16-2.54h-.01C12.4 83.35 6.47 88.8 6.31 95.85c-.09 4.15 1.67 7.87 5.38 11.38.04.02 6.81 4.41 9.11 12.15.02.08 2.15 5.65 4.54 8.45 2.66 3.16 4.57 5.04 9.78 5.21.12 0-.12.01 0 .01 9.11.1 12.02-7.38 13.28-10.15.08-.18.15-.33.21-.45.7-1.46 2.63-6.5 2.65-6.55 1.01-2.59 3.72-6.5 5.64-8.66 6.71-7.47 11.79-8.32 15.04-8.31h.14c3.48.04 6.89 1.04 9.87 2.88 2.79 1.73 4.89 4.03 5.95 6.48.04.1.08.21.12.31.01.01 0 .02 0 .02s3.04 10.62 13.9 14.39v.02c.27.07.54.14.76.22.04.02.47.18.51.2 6.72 2.63 10.89 9.12 10.81 16.7-.05 4.17-1.37 6.23-3.39 8.95 0 0-2.78 3.65-2.71 6.51.04 1.99.59 3.28 1.81 4.75 3.61 4.23 9.46 5.55 15.61 5.61 6.52.08 12.69-2.57 17.4-7.45 4.67-4.84 7.28-11.22 7.36-17.96.08-8.15-3.65-15.06-10.8-20"/><g id="XMLID_5_"><path id="XMLID_6_" class="st0" d="M22.17 19.71l-1.23-8.74c-.03-.13-.19-1.57 1.89-3.04C22.85 7.92 26.9 5 26.9 5l-2.04-2.36-4.05 2.92c-3.02 2.15-3.45 4.74-3.22 5.94 0-.1 1.24 8.64 1.24 8.64l3.34-.43z"/></g><path id="XMLID_2_" class="st0" d="M37.72 59.59l-4.78-40.11 2.41-.42-.42-3.52L0 21.33l.86 3.43 2.29-.34L13.37 64l.41 1.62 1.91-.35L36 61.6l1.93-.36-.21-1.65zm-20.86 1.23L9.03 30.86l.05-.01-1.84-7.11 21.62-3.59 4.8 37.64-16.8 3.03z"/></g></svg>
