<svg xmlns="http://www.w3.org/2000/svg" viewBox="0 -144 864 1008"><path fill="currentColor" d="M633 96h51v281h-51v-31c-20 24-40 35-58 35-16 0-28-7-33-21-3-8-5-22-5-42V96h51v207c0 11 0 18 1 19 1 8 5 13 12 13 10 0 21-8 32-25V96zm-137 91v99c0 30-6 52-16 66-14 19-34 29-60 29-25 0-45-10-59-29-11-14-16-36-16-66v-99c0-29 6-51 16-66 14-19 34-28 59-28 26 0 46 9 60 28 10 15 16 37 16 66zm-247-39L287 0h58l-68 224v153h-56V224c-6-27-17-67-35-119-12-35-25-70-36-105h59zm600 570c0 64 0 134-15 197-10 44-47 76-90 81-103 12-208 12-312 12s-209 0-312-12c-43-5-80-37-90-81-15-63-15-133-15-197 0-65 0-134 15-197 10-45 46-77 90-82 103-12 208-12 312-12s209 0 312 12c44 5 80 37 90 82 15 63 15 132 15 197zM444 295V177c0-26-7-39-24-39-16 0-24 13-24 39v118c0 26 8 40 24 40 17 0 24-14 24-40zm342 514v-7h-51c0 20 0 31-1 34-3 13-10 20-22 20-18 0-26-13-26-39v-49h100v-58c0-29-4-51-15-65-14-19-34-29-59-29-26 0-46 10-61 29-10 14-15 36-15 65v98c0 30 5 51 16 65 15 19 34 29 61 29 26 0 47-10 60-30 7-9 11-19 12-30 1-6 1-17 1-33zm-190 5V704c0-26-1-45-5-56-6-21-20-32-40-32-18 0-36 11-52 31V525h-50v373h50v-27c17 21 34 31 52 31 20 0 34-11 40-31 4-12 5-31 5-57zm-241 53v31h50V620h-50v212c-11 16-22 24-32 24-7 0-11-4-12-12V620h-51v220c0 20 2 32 5 41 5 14 16 21 33 21 18 0 37-12 57-35zm-162 31V578h60v-53H78v53h59v320h56zm543-198v26h-50v-26c0-25 8-38 25-38s25 13 25 38zm-190 0v118c0 26-7 38-22 38-8 0-17-4-25-12V674c8-8 17-12 25-12 15 0 22 13 22 38z"/></svg>
