<svg xmlns="http://www.w3.org/2000/svg" viewBox="0 -144 864 1008"><path fill="currentColor" d="M864 234v540c0 89-73 162-162 162H162C73 936 0 863 0 774V234C0 145 73 72 162 72h540c89 0 162 73 162 162zM581 382v23h38V197h-38v159c-8 12-16 17-24 17-5 0-8-2-9-9V197h-38v165c0 14 1 24 4 31 3 10 12 15 24 15 14 0 28-9 43-26zm-102-45v-73c0-22-4-38-12-49-10-14-25-21-43-21-20 0-34 7-44 21-8 11-12 27-12 49v73c0 22 4 39 12 49 10 14 24 22 44 22 18 0 33-8 43-22 8-10 12-27 12-49zm-162 68V292l50-167h-42l-29 110-29-110h-44c8 26 18 52 26 78 13 40 22 69 26 89v113h42zm424 253c0-48 1-99-10-146-8-33-35-57-67-61-77-8-154-8-232-8-77 0-155 0-231 8-33 4-60 28-67 61-11 47-11 98-11 146s0 99 11 146c7 33 34 57 66 61 77 9 155 9 232 9s155 0 232-9c32-4 59-28 66-61 11-47 11-98 11-146zM442 257v88c0 19-7 28-18 28-13 0-18-9-18-28v-88c0-19 5-29 18-29 11 0 18 10 18 29zm215 464h38v5c0 12 0 20-1 24-1 8-4 16-8 22-10 15-26 23-45 23-20 0-35-8-46-22-8-10-12-26-12-48v-72c0-22 4-38 12-49 10-14 25-21 45-21 18 0 33 7 43 21 8 11 12 27 12 49v42h-75v37c0 19 7 28 20 28 9 0 14-5 16-14 0-2 1-11 1-25zm-103-73v82c0 19-1 33-4 41-5 16-14 24-30 24-13 0-26-8-38-23v20h-38V515h38v90c12-14 25-22 38-22 15 0 25 8 30 23 3 9 4 22 4 42zm-179-62h37v206h-37v-23c-15 17-29 26-43 26-12 0-20-5-24-16-2-6-3-16-3-30V586h37v151c0 9 0 14 1 15 0 6 3 8 8 8 8 0 15-5 24-17V586zm-206-71h130v39h-45v238h-41V554h-44v-39zm451 130v19h38v-19c0-19-7-29-19-29s-19 10-19 29zm-103 88v-88c0-19-6-29-16-29-7 0-13 3-19 9v126c6 7 12 9 19 9 10 0 16-8 16-27z"/></svg>
