<svg xmlns="http://www.w3.org/2000/svg" viewBox="0 0 50 50"><path d="M9 4C6.25 4 4 6.25 4 9v32c0 2.75 2.25 5 5 5h32c2.75 0 5-2.25 5-5V9c0-2.75-2.25-5-5-5H9zm0 2h6.576C12.118 9.598 10 14.324 10 19.5c0 5.361 2.268 10.249 5.95 13.889-.135-.128.039.094.056.486.018.405-.043.96-.207 1.512-.328 1.101-1.013 2.117-2.115 2.484a1 1 0 0 0 .12 1.93c2.76.552 4.712-.28 6.151-.94 1.439-.66 2.216-1.105 3.67-.517a1 1 0 0 0 .012.004A24.324 24.324 0 0 0 32.5 40c4.197 0 8.131-1.049 11.5-2.877V41c0 1.668-1.332 3-3 3H9c-1.668 0-3-1.332-3-3V9c0-1.668 1.332-3 3-3zm9.496 0H41c1.668 0 3 1.332 3 3v25.805C40.727 36.813 36.775 38 32.5 38c-2.89 0-5.636-.54-8.125-1.512-2.113-.853-3.834-.097-5.254.555-.769.353-1.527.646-2.385.809.425-.605.787-1.251.979-1.895.226-.76.318-1.505.289-2.17-.03-.662-.087-1.269-.647-1.818l-.002-.002C14.017 28.665 12 24.299 12 19.5c0-5.323 2.486-10.112 6.496-13.5zm14.488 8.986A1 1 0 0 0 32 16v9a1 1 0 1 0 2 0v-9a1 1 0 0 0-1.016-1.014zM18 16a1 1 0 1 0 0 2h3.197l-4.045 6.47A1 1 0 0 0 18 26h5a1 1 0 1 0 0-2h-3.197l4.045-6.47A1 1 0 0 0 23 16h-5zm11.984 2.986a1 1 0 0 0-.822.457A3.44 3.44 0 0 0 27.5 19a3.515 3.515 0 0 0-3.5 3.5c0 1.921 1.579 3.5 3.5 3.5a3.44 3.44 0 0 0 1.66-.443A1 1 0 0 0 31 25v-5a1 1 0 0 0-1.016-1.014zM38.5 19a3.515 3.515 0 0 0-3.5 3.5c0 1.921 1.579 3.5 3.5 3.5s3.5-1.579 3.5-3.5-1.579-3.5-3.5-3.5zm-11 2c.84 0 1.5.66 1.5 1.5s-.66 1.5-1.5 1.5-1.5-.66-1.5-1.5.66-1.5 1.5-1.5zm11 0c.84 0 1.5.66 1.5 1.5s-.66 1.5-1.5 1.5-1.5-.66-1.5-1.5.66-1.5 1.5-1.5z"/></svg>
