<svg xmlns="http://www.w3.org/2000/svg" viewBox="0 0 88.8 100.6"><path d="M21 43.9h-1.5c4.6-.8 8.1-4.9 8.1-9.7 0-5.5-4.4-9.9-9.9-9.9s-9.9 4.4-9.9 9.9c0 4.9 3.5 8.9 8.1 9.7h-1.5C7.3 43.9 0 47.3 0 55v18.8c.1 2.4 2 3.5 3.8 3.5 1.8 0 3.7-1.4 3.7-3.8V57.9c0-.5.1-.8.3-.9.1.1.2.4.2.8 0 .6-.3 15.7 0 20.2.2 3.5 1.1 17 1.1 17 0 1.3-.3 2.2-.6 2.8-.2.6-.5 1.3-.1 1.9.5.7 1.4.8 2.9.8h3.8c1.3 0 2.3-1 2.3-2.3V77.4c0-.4.1-.7.3-.9.1.1.3.4.3.9v20.8c0 .6.2 1.2.7 1.6.4.4 1 .7 1.6.7H24c1.5 0 2.4-.1 2.9-.8.4-.6.2-1.3 0-1.9-.2-.6-.6-1.5-.6-2.8 0 0 .8-13.6 1.1-17.1.3-4.5 0-19.6 0-20.2 0-.5.1-.8.3-.9.1.1.3.5.3.9v15.6c0 2.4 1.9 3.7 3.7 3.8 1.8 0 3.7-1.1 3.8-3.5V54.8c-.1-7.5-7.4-10.9-14.5-10.9zM9.8 34.1c0-4.4 3.6-7.9 7.9-7.9 4.3 0 7.9 3.5 7.9 7.9S22.1 42 17.7 42s-7.9-3.5-7.9-7.9zm23.6 39v.6c-.1 1.2-1 1.6-1.8 1.6s-1.7-.5-1.7-1.8V57.9c0-1.7-1-3-2.3-3-1.3 0-2.3 1.3-2.3 3 0 .2.3 15.6 0 20-.2 3.5-1.1 17.1-1.1 17.2 0 1.6.4 2.8.7 3.5h-4.7c-.1 0-.2-.1-.2-.1s-.1-.1-.1-.2V77.5c0-1.6-1-2.9-2.3-2.9-1.3 0-2.3 1.3-2.3 2.9v20.8c0 .2-.1.3-.3.3h-4.8c.3-.7.7-1.9.7-3.5 0 0-.9-13.6-1.1-17.1-.3-4.5 0-19.9 0-20.1 0-1.7-1-3-2.3-3s-2.3 1.3-2.3 3v15.6c0 1.3-1.1 1.7-1.7 1.8-.8 0-1.7-.4-1.8-1.6v-.6L2 55c0-6.3 6.3-9.1 12.4-9.1H21c6.2 0 12.4 2.8 12.4 9.1v18.1zM57.7 33.7c0 5.2 4.2 9.5 9.5 9.5 5.2 0 9.5-4.2 9.5-9.5 0-5.2-4.3-9.5-9.5-9.5-5.3 0-9.5 4.3-9.5 9.5zm9.4-7.5c4.1 0 7.5 3.4 7.5 7.5s-3.4 7.5-7.5 7.5-7.5-3.3-7.5-7.5c.1-4.1 3.4-7.5 7.5-7.5zM88.7 72.7c-.1-1.1-1.4-5.2-7.6-23.6-1-3-4-5.1-8.3-5.8-.2 0-.5 0-.7.2-2.3 1.6-4.1 2.7-4.8 3.1-.7-.3-2.5-1.5-4.8-3.1-.2-.1-.5-.2-.7-.2-4.5.6-7.6 2.7-8.6 5.8l-7.5 23.3v1c.1 2.4 1.9 3.6 3.6 3.5 1.7 0 3.4-1.3 3.5-3.6 2-6.3 4.3-13.3 5.4-16.1-.5 2-5.3 21.5-5 26 .1.9.8.9 1.9 1h4.2c.3 3.9.9 10.8.9 10.8 0 1.3-.3 2.2-.5 2.9-.2.7-.5 1.3 0 2s1.4.7 2.8.7H65c.6 0 1.1-.2 1.5-.6.4-.4.7-1 .7-1.7L67 84h.3v14.3c0 .6.2 1.2.6 1.6.4.5 1 .7 1.6.7H72c1.4 0 2.3-.1 2.8-.7.4-.6.2-1.3 0-1.9-.2-.7-.5-1.5-.5-2.8 0-.1.7-7 .9-10.9h2c4 0 4 0 4.1-1 .3-4.6-4.6-24.1-5-26.1v-.1c.1.2.1.4.2.7.7 2.2 2.1 6.7 5.2 15.7.8 2.2 2.6 3.6 4.5 3.3 1.2-.2 2.5-1.2 2.6-3.4 0-.3 0-.5-.1-.7zm-1.9.6c0 .4-.1 1.4-.9 1.5-.7.1-1.8-.6-2.3-2-3.1-8.9-4.5-13.4-5.2-15.6-.8-2.5-.9-2.9-2-2.9-1.2 0-2.2 1.3-2.2 3v.2c1.7 6.8 4.8 20.1 5 24.7h-2.1c-3.9 0-3.9 0-3.9 1-.2 3.5-1 11.7-1 11.8 0 1.7.4 2.8.7 3.5h-3.4c-.1 0-.1 0-.1-.1-.1-.1-.1-.2-.1-.2V83.7c0-1-.9-1.8-2.2-1.8-1.3 0-2.2.8-2.2 1.8v14.5c0 .1 0 .2-.1.3l-.1.1h-3.4c.3-.7.6-1.9.6-3.6 0-.1-.8-8.1-1-11.7 0-1 0-1-4.1-1h-1.9c.3-4.7 3.3-17.9 5-24.6v-.2c0-1.7-.9-3-2.2-3-.9 0-1.4 0-7.2 18.5v.3c0 1.2-.8 1.8-1.6 1.8-.7 0-1.5-.4-1.6-1.6v-.4l7.5-23.2c.7-2.2 3.1-3.8 6.6-4.4 1.8 1.2 4 2.7 4.9 3.1.4.2 1 .2 1.4 0 .9-.4 3.1-1.8 4.9-3.1 1.8.3 5.3 1.3 6.3 4.4 6.6 19.6 7.5 22.6 7.6 23.1.3-.1.3.1.3.3zM63.2 13.7C63.3 5.8 59.2.8 52 .1c-4-.4-7.9 1.8-9.6 3.9-1.7-2.1-5.3-4.4-9.7-3.9-5.9.6-11.6 5.1-11.2 13.7.7 14 20 27.3 20.8 27.3 1-.1 20.7-13.4 20.9-27.4zM42.4 38.8c-3-2.1-18.3-13.4-18.8-25.2C23.2 5.8 28.4 2.5 33 2c.3 0 .7-.1 1-.1 4.2 0 6.8 2.8 7.3 4 .2.4.6.7 1.1.7.5 0 .9-.3 1.1-.7.7-1.5 4.3-4.3 8.3-3.9 3.6.4 9.5 2.3 9.4 11.6-.2 11.6-15.7 23-18.8 25.2z"/><path d="M36.7 4.5c0-.5-.3-.9-.8-1-.8-.1-1.6-.2-2.4-.1-4.5.5-9 4.1-8.6 10.9 0 1.1.2 2.1.5 3.2.1.4.5.7.9.7h.2c.5-.1.9-.6.8-1.1h-.6.6C27 9.7 31.5 6.2 35.9 5.5c.5-.1.8-.5.8-1zM52.8 14.6l-2.7-2.7c-.8-.8-2.2-.8-3 0l-2.5 2.5-2.5-2.5c-.8-.8-2.2-.8-3 0l-2.7 2.7c-.4.4-.6.9-.6 1.5s.2 1.1.6 1.5l2.5 2.5-2.5 2.5c-.4.4-.6.9-.6 1.5s.2 1.1.6 1.5l2.7 2.7c.8.8 2.2.8 3 0l2.5-2.5 2.5 2.5c.4.4.9.6 1.5.6s1.1-.2 1.5-.6l2.7-2.7c.8-.8.8-2.2 0-3l-2.5-2.5 2.5-2.5c.8-.8.8-2.2 0-3zm-1.4 1.6l-3.2 3.2c-.2.2-.3.4-.3.7s.1.5.3.7l3.2 3.2v.2l-2.7 2.7h-.2l-3.2-3.2c-.4-.4-1-.4-1.4 0l-3.2 3.2h-.2l-2.7-2.7V24l3.2-3.2c.2-.2.3-.4.3-.7s-.1-.5-.3-.7l-3.2-3.2V16l2.7-2.7h.2l3.2 3.2c.4.4 1 .4 1.4 0l3.2-3.2h.2l2.7 2.7v.2z"/></svg>
