<svg xmlns="http://www.w3.org/2000/svg" viewBox="0 -202 756 1008"><path fill="currentColor" d="M635 152v1c25 24 37 54 37 89v8c51 17 84 63 84 118v378c0 34-12 64-37 88-25 25-54 38-89 38H126c-35 0-65-13-90-38-24-24-36-53-36-88V368c0-55 33-101 84-118v-8c0-36 12-65 36-89 25-25 55-37 90-37s64 12 88 37c25 25 38 52 38 88h84c0-36 13-65 37-89 25-25 54-37 89-37s65 12 89 37zm-89 47c-23 0-42 19-42 43v83c0 23 19 43 42 43 24 0 42-20 42-43v-83c0-24-18-43-42-43zm-336 0c-24 0-42 19-42 43v83c0 23 18 43 42 43 23 0 42-20 42-43v-83c0-24-19-43-42-43zm420 589c23 0 42-19 42-42V494H84v252c0 23 19 42 42 42h504z"/></svg>
