<svg xmlns="http://www.w3.org/2000/svg" viewBox="0 -168 1008 1008"><path fill="currentColor" d="M504 446l108-108 59 59-108 108 108 108-59 59-108-108-108 108-59-59 108-108-108-108 59-59zm0-360c120 0 219 43 297 122 79 78 122 177 122 297s-43 219-122 297c-78 79-177 122-297 122s-219-43-297-122C128 724 85 625 85 505s43-219 122-297c78-79 177-122 297-122zm0 756c95 0 173-36 236-99 65-65 101-143 101-238s-37-172-101-236-141-101-236-101-173 36-238 101c-63 63-99 141-99 236s35 174 99 238 143 99 238 99z"/></svg>
