<svg xmlns="http://www.w3.org/2000/svg" viewBox="-2 -202 776 1008"><path fill="currentColor" d="M262 514v1c0-36 12-65 36-89 25-25 55-37 90-37s65 12 89 37 37 52 37 88c0 35-12 64-37 89-24 24-53 37-89 37-35 0-65-13-90-37-24-24-36-54-36-89zm186 60l-1 3c34-34 33-85 1-119-34-32-87-33-119-1-16 16-25 38-25 59s9 42 25 58c32 32 85 32 119 0zm181-269l-143 41-35-144H325l-37 144-142-41-63 110 107 103L83 621l63 108 142-40 37 143h126l35-143 143 40 62-108-106-103 106-103zM243 182h1c9-38 41-63 81-63h126c38 0 71 25 80 63l15 60 60-18c8-3 16-3 23-3 32 0 55 14 72 43l62 109c19 34 14 75-14 102l-44 44 44 42c28 27 33 69 14 103l-62 110c-16 27-39 41-73 41-7 0-15 0-23-3l-60-16-14 59c-9 39-42 64-81 64H324c-40 0-72-25-81-64l-15-59-59 17c-8 3-15 3-23 3-32 0-56-14-72-42L10 665c-19-34-14-77 14-104l45-42-45-43c-28-27-33-69-14-103l64-109c17-29 41-43 72-43 8 0 15 0 23 3l59 18z"/></svg>
