<svg xmlns="http://www.w3.org/2000/svg" viewBox="0 -189 685 1008"><path fill="currentColor" d="M408 193c0 40-19 61-61 61s-62-21-62-61c0-42 20-61 62-61s61 19 61 61zM4 274c0-42 21-61 61-61s59 19 59 61c0 40-19 61-59 61S4 314 4 274zm675 0c0 40-19 61-61 61-40 0-61-21-61-61 0-42 21-61 61-61 42 0 61 19 61 61zM65 736c-19 0-30-10-33-29h-1V411h1c0-21 11-31 32-31 9 0 16 3 21 8 0 1 1 2 2 2h2l67 69 161-160c15-13 33-13 48 0l162 160 69-69c0-3 1-4 2-4h1c8-5 15-8 20-8 19 0 34 16 34 33v296c-1 17-12 27-33 27v2H65zm591 40c20 0 29 11 29 31v38c0 21-9 31-29 31H32c-21 0-32-10-32-31v-38c0-20 11-31 32-31h624z"/></svg>
