<svg xmlns="http://www.w3.org/2000/svg" viewBox="0 -189 882 1008"><path fill="currentColor" d="M441 945V630h315v315H441zm-378 0V630h315v315H63zm378-575l1 7h-63v-8l-86-10c-44-5-81-23-112-54s-51-67-55-110 8-78 32-102 58-35 101-31c67 7 122 53 151 113 28-60 83-106 150-113 42-4 77 7 101 31s36 59 32 102-25 78-56 110c-32 32-68 50-110 55l-39 5c-15 3-31 4-47 5zm106-232c-47 4-83 42-88 89s24 76 71 71 84-41 88-88c5-47-24-77-71-72zM291 299c47 7 76-25 71-72s-41-84-88-88c-47-5-76 24-71 71s41 84 88 89zm151 78h378v189H442V377zM1 566V377h378v189H1z"/></svg>
