<svg xmlns="http://www.w3.org/2000/svg" viewBox="0 0 56 56.59"><style>.st0{fill:#44444d}</style><path class="st0" d="M55.86 22.01L52.65 7.62v-.01l-.01-.03c-.01-.04-.03-.07-.04-.11a1.05 1.05 0 0 0-.08-.23.638.638 0 0 0-.08-.14c-.03-.06-.06-.12-.1-.17-.03-.05-.08-.09-.11-.14-.04-.04-.07-.09-.11-.13a.755.755 0 0 0-.14-.11c-.05-.04-.09-.08-.14-.11-.05-.03-.11-.06-.16-.09s-.1-.06-.15-.08c-.06-.03-.13-.04-.2-.06-.05-.01-.09-.03-.14-.04-.08-.02-.17-.02-.26-.03-.03 0-.07-.01-.1-.01h-.02H5.15c-.06 0-.12.01-.18.02-.05.02-.11.02-.16.03-.08.01-.15.04-.23.06-.04.02-.08.02-.11.04-.08.03-.15.07-.22.11-.03.02-.07.03-.1.05-.06.04-.12.09-.17.14-.04.03-.08.05-.11.09-.05.05-.09.1-.13.15-.03.04-.07.08-.1.12a.95.95 0 0 0-.1.17c-.02.05-.05.09-.08.14-.03.07-.05.14-.07.22-.01.04-.03.08-.04.12v.03L.15 22.01c-.37 1.66-.02 3.32.97 4.55.98 1.24 2.53 1.94 4.23 1.94h2.1c1.7 0 3.3-.67 4.53-1.77 1.05 1.13 2.56 1.77 4.17 1.77h2.1c1.69 0 3.25-.69 4.4-1.79 1.13 1.16 2.65 1.79 4.29 1.79h2.1c1.64 0 3.16-.64 4.29-1.79a6.373 6.373 0 0 0 4.4 1.79h2.1c1.61 0 3.12-.65 4.17-1.77 1.22 1.1 2.83 1.77 4.53 1.77h2.1c1.7 0 3.25-.71 4.23-1.94 1.01-1.23 1.37-2.89 1-4.55zm-48.41 2.8h-2.1c-.59 0-1.07-.2-1.35-.56-.29-.36-.38-.87-.25-1.44L6.64 9.83h5.55L10.55 22.1c-.2 1.44-1.64 2.71-3.1 2.71zm10.8 0h-2.1c-.62 0-1.15-.23-1.51-.64-.36-.41-.51-.97-.43-1.58l1.7-12.76h5.59l-.55 12.39c-.07 1.41-1.3 2.59-2.7 2.59zm12.48-.71c-.44.46-1.03.71-1.68.71h-2.1c-.65 0-1.25-.25-1.68-.71a2.28 2.28 0 0 1-.63-1.71l.56-12.56h5.61l.56 12.56c.02.65-.2 1.26-.64 1.71zm10.63.07c-.36.41-.9.64-1.51.64h-2.1c-1.4 0-2.64-1.18-2.7-2.58l-.55-12.4h5.59l1.7 12.76c.08.61-.07 1.17-.43 1.58zm10.64.08c-.29.36-.77.56-1.35.56h-2.1c-1.46 0-2.9-1.27-3.1-2.71L43.81 9.83h5.55l2.89 12.98c.13.58.04 1.09-.25 1.44zM8.15 3.69h39.69c1.02 0 1.85-.83 1.85-1.85s-.83-1.85-1.85-1.85H8.15C7.13 0 6.3.83 6.3 1.85s.83 1.84 1.85 1.84zM47.84 29.46c-1.02 0-1.85.83-1.85 1.85V52.9h-9.4V34.2c0-1.02-.83-1.85-1.85-1.85H21.33c-1.02 0-1.85.83-1.85 1.85v18.7h-9.41V31.31c0-1.02-.83-1.85-1.85-1.85s-1.85.83-1.85 1.85v23.44c0 1.02.83 1.85 1.85 1.85h21.42c1.02 0 1.85-.83 1.85-1.85s-.83-1.85-1.85-1.85h-6.47V36.04h9.73v18.7c0 1.02.83 1.85 1.85 1.85h13.1c1.02 0 1.85-.83 1.85-1.85V31.31a1.867 1.867 0 0 0-1.86-1.85z"/></svg>
