<svg xmlns="http://www.w3.org/2000/svg" viewBox="0 0 43.74 41.31"><style>.st0{fill:#fff}</style><path class="st0" d="M39.37 40.36c-.16.33-.32.63-.48.94h1.3c-.32-.4-.58-.76-.76-1.04l-.06.1zM42.35 28.38c-.09-.14-.19-.27-.29-.4-.18-.23-.37-.45-.61-.63a.834.834 0 0 0-.12-.08 1.14 1.14 0 0 0-.35-.15c-.11 0-.21-.09-.21-.21 0-.11.08-.21.19-.22.04 0 .26 0 .59.21-.57-7.66-5.34-13.16-5.39-13.22-1.24-1.47-2.6-2.62-3.99-3.51l-.67-.41c-3.17-1.85-6.53-2.45-9.39-2.51-.31-.01-.62 0-.92 0h-.32c.27-.13.54-.28.82-.43 2.63-1.44 5.56-3.68 4.85-6.24 0-.02-.01-.03-.01-.05 0 0-.03-.25-.24-.41-.17-.13-.43-.16-.77-.1-.91.17-7.18 2.46-7.92 7.12-.02.12-.04.25-.05.37l.04.06c-.07.01-.14.02-.2.04-.13.02-.27.05-.39.07-.1.02-.19.04-.28.06-.09.02-.18.04-.26.06l-.15.03c-.02-.11-.05-.25-.08-.41-.39-1.85-1.72-6.96-4.54-6.71h-.03c-.07 0-.22.01-.34.12s-.18.3-.18.55c0 .64.72 4.91 3.47 6.46.18.1.37.19.57.27-.19.05-.3.09-.31.09-.01 0-.05.02-.13.04a.88.88 0 0 0-.17.06C12.55 9 .29 13.95 1.82 30.92c0 .05-.01.1-.04.14-.03.04-2.77 4.19-1.4 8.06.28.8.73 1.52 1.31 2.18h34.63c.14-.11.29-.22.45-.33.57-.41 1.27-.93 2.28-1.74 2.17-1.75 3.58-4.15 3.6-4.17 2.14-2.95.62-5.29-.3-6.68zM3.09 32.61c-.04.04-.1.06-.15.06s-.11-.02-.15-.06a.217.217 0 0 1 0-.3l.92-.92c.08-.08.22-.08.3 0 .08.08.08.22 0 .3l-.92.92zm1.32 0c-.04.04-.1.06-.15.06s-.11-.02-.15-.06a.217.217 0 0 1 0-.3l.92-.92c.08-.08.22-.08.3 0 .08.08.08.22 0 .3l-.92.92zm2.22-.92l-.92.92c-.04.04-.1.06-.15.06s-.11-.02-.15-.06a.217.217 0 0 1 0-.3l.92-.92c.08-.08.22-.08.3 0 .08.08.08.22 0 .3zm2.56-2.15c-2.19.15-4.08-1.18-4.2-2.97-.12-1.79 1.56-3.37 3.75-3.52 2.19-.15 4.08 1.18 4.2 2.97.13 1.79-1.56 3.37-3.75 3.52zm15.65-1.31c.03-.02.48-.15.43-.08-.24.38-.59.68-.93.95-.17.13-.36.24-.52.39-.14.13-.25.34-.46.37-.33.04.1-.5.14-.59.01-.01.01-.02.01-.03 0-.01-.01-.01-.02-.02a.195.195 0 0 0-.15 0c.3-.27.65-.49.99-.69.17-.11.34-.21.51-.3zm-6.55.55c.2-.05.42-.1.62-.03-.16.11-.33.21-.51.3.44-.2.88-.39 1.34-.54.21-.07.44-.12.63-.03-.13.16-.33.25-.52.35-.18.1-.37.23-.43.44.76-.34 1.69-.98 2.56-.79-.35.37-.98.36-1.35.72.28.03.5-.09.74-.21.33-.17.68-.32 1.03-.45.32-.11.72-.45 1.07-.24-.43.45-1 .74-1.56 1.02-.65.33-1.31.65-1.96.98-.21.1-.43.21-.66.19.09-.22.25-.42.45-.55-.33.22-.71.37-1.1.43-.1.02-.22.02-.29-.05-.1-.1-.05-.27.04-.38.13-.16.32-.28.53-.31-.34.07-.67.17-.99.3-.11.04-.8.27-.82.39.03-.17.11-.33.23-.45-.39.16-.79.29-1.21.38-.23.05-.16-.11-.07-.23.03-.04.05-.07.08-.1.54-.59 1.4-.93 2.15-1.14zm9.24 7.54c-.05.08-.19.25-.45.25-.07 0-.16-.01-.26-.04-.35-.12-1.12-.68-1.39-.88-1.63 1.33-3.26 1.78-4.71 1.78-2.46 0-4.42-1.28-5-1.7-.13-.09-.2-.15-.2-.15-.09-.07-.1-.21-.03-.3s.21-.1.3-.03c0 0 .06.05.17.13.9.66 5.41 3.55 9.74-.55l.67-.7c.04-.04.08-.08.11-.12.08-.09.21-.1.3-.02.01.01.02.02.03.04.05.02.1.05.13.09.53.52.9 1.7.59 2.2zm5.05-7.7c-2.2 0-3.99-1.46-3.99-3.26s1.79-3.26 3.99-3.26 3.99 1.46 3.99 3.26-1.79 3.26-3.99 3.26zm4.15 1.59c-.04.04-.1.06-.15.06s-.11-.02-.15-.06a.217.217 0 0 1 0-.3l.92-.91c.08-.08.22-.08.3 0 .08.08.08.22 0 .3l-.92.91zm1.32 0c-.04.04-.1.06-.15.06s-.11-.02-.15-.06a.217.217 0 0 1 0-.3l.92-.91c.08-.08.22-.08.3 0 .08.08.08.22 0 .3l-.92.91zm2.21-.92l-.92.92a.22.22 0 0 1-.15.06.22.22 0 0 1-.15-.06.217.217 0 0 1 0-.3l.92-.91c.08-.08.22-.08.3 0 .08.08.08.21 0 .29zM39.19 39.87c-.03-.05-.05-.1-.07-.14-.9.72-1.55 1.19-2.08 1.58h1.38c.19-.38.39-.76.58-1.15l.19-.29z"/><path class="st0" d="M25.82 35.38c.4.29.93.65 1.14.72.14.05.17.01.18-.01.16-.25-.07-1.16-.46-1.61l-.86.9zM32.69 24.6c-.13-.02-.26-.03-.39-.03-.31 0-.61.05-.84.15-.26.11-.42.26-.44.42-.02.16.09.35.31.53.28.22.7.39 1.15.45.9.12 1.63-.19 1.67-.55.02-.16-.09-.35-.31-.53-.28-.21-.7-.37-1.15-.44z"/><path class="st0" d="M32.58 22.49c-1.99 0-3.61 1.29-3.61 2.87s1.62 2.87 3.61 2.87 3.61-1.29 3.61-2.87-1.62-2.87-3.61-2.87zm.29 4.51c-.17 0-.33-.01-.51-.03-.61-.08-1.16-.3-1.57-.63-.46-.37-.69-.84-.63-1.3.06-.46.41-.86.95-1.09.47-.2 1.07-.27 1.68-.18.61.08 1.16.3 1.57.63.46.37.69.84.63 1.3-.1.78-1 1.3-2.12 1.3zM8.77 23.42c-1.98.14-3.51 1.54-3.4 3.12.11 1.58 1.81 2.76 3.8 2.62s3.51-1.54 3.4-3.12c-.02-.29-.09-.56-.21-.81l-.28-.47c-.67-.88-1.92-1.43-3.31-1.34zm.5 4.35c-.28.06-.57.08-.84.07-.3-.01-.59-.06-.84-.15-.55-.2-.92-.57-1.02-1.03-.09-.46.11-.95.55-1.34.38-.34.93-.6 1.53-.72 1.34-.26 2.52.22 2.7 1.11.16.89-.74 1.8-2.08 2.06z"/><path class="st0" d="M9.45 25.38c-.2-.01-.42.01-.65.05-.45.09-.86.28-1.12.52-.21.19-.31.39-.28.54.03.16.2.3.47.4.34.12.79.14 1.24.05.89-.18 1.48-.71 1.41-1.06-.06-.26-.49-.48-1.07-.5z"/></svg>
