<svg xmlns="http://www.w3.org/2000/svg" viewBox="0 0 120.2 114.5"><path d="M58.9 0c13.8.1 25.7 3 36.7 9.5 8.3 4.9 15.1 11.4 19.6 20 4.1 7.6 5.7 15.7 4.6 24.3-.9 7.4-3.9 14-8.4 19.9-5.1 6.8-11.3 12.6-18 17.9-9.4 7.5-19.4 14.3-29.8 20.3-1.6.9-3.4 1.6-5.1 2.4-.4.2-.8.2-1.3.3-2 .2-2.9-.7-2.6-2.7.3-2.1.7-4.1.9-6.2.2-1.5.2-3 .2-4.5 0-1.4-.8-2.3-2-3-1.6-.9-3.4-1.2-5.2-1.5C34.9 94.4 22.8 89 13 79.1 6.5 72.5 2.1 64.6.6 55.4s0-17.8 4.4-26C10 20 17.6 13.2 26.8 8.2c8.1-4.4 16.9-7 26.1-7.8 2.4-.2 4.8-.3 6-.4zm12.5 52.1h-.2c-.2-.2-.3-.4-.5-.7-3.7-5.1-7.5-10.1-11.2-15.2-.2-.3-.5-.6-.7-.9-1-.9-2.3-1.1-3.5-.5-1.3.7-1.8 1.8-1.8 3.2v23.5c0 1.4.8 2.6 2.1 3 2.1.7 4.1-.8 4.2-3.1V47.9v-1.1c.3.4.5.7.7.9 2.2 2.9 4.3 5.9 6.5 8.8 1.6 2.2 3.3 4.5 4.9 6.7 1.1 1.5 2.8 1.9 4.4.9 1.1-.7 1.4-1.8 1.4-3.1V37.9c0-.3 0-.7-.1-1-.3-1.7-2.1-2.8-3.8-2.4-1.6.4-2.4 1.6-2.4 3.5v14.1zm16.8-11.2h8.2c.4 0 .9 0 1.3-.1 1.5-.4 2.5-1.8 2.3-3.3-.2-1.7-1.5-2.9-3.3-2.9H85.1c-2 0-3.3 1.3-3.3 3.4v23.3c0 2.2 1.3 3.4 3.5 3.4h11.4c2 0 3.4-1.3 3.4-3.1s-1.4-3.1-3.4-3.1h-8.5v-5.6h6.5c1 0 1.9 0 2.9-.1 1.6-.3 2.7-1.9 2.4-3.5-.3-1.7-1.5-2.6-3.4-2.7h-8.4v-5.7zM27.8 58.5v-1V38c0-2-1.3-3.4-3.1-3.4s-3.2 1.3-3.2 3.3v23.7c0 2 1.4 3.2 3.3 3.3h11.8c1.8 0 3.2-1.4 3.1-3.2 0-1.7-1.4-3-3.1-3.1h-3.2c-1.8-.1-3.7-.1-5.6-.1zm21.1-8.8v-3.6-8.5c0-1.5-.9-2.5-2.2-2.9-2.2-.6-4 .9-4 3.4v23c0 .4 0 .9.1 1.3.3 1.4 1.7 2.3 3.1 2.3 1.4 0 2.7-1 3-2.4.1-.5.1-.9.1-1.4-.1-3.7-.1-7.4-.1-11.2z"/></svg>
