<svg xmlns="http://www.w3.org/2000/svg" viewBox="0 -202 597 1008"><path fill="currentColor" d="M256 709v1c11 0 21-4 28-11l176-174c7-7 10-17 10-28 0-12-3-20-10-27l-13-13-31 31c-8 8-20 13-33 13-20 0-35-13-42-29s-5-35 10-50l30-30-13-13c-7-8-16-11-27-11-9 0-18 3-27 11L139 554c-7 7-11 16-11 27 0 9 4 18 11 27l13 13 30-31c11-9 22-14 34-14s23 5 32 14c17 19 18 47-1 66l-30 30 13 12c8 7 17 11 26 11zm327-454v1c19 17 19 46 0 65l-72 73 12 13c24 27 38 56 38 92 0 35-13 66-38 91L349 766c-25 25-55 38-93 38-35 0-65-13-92-38l-13-13-72 72c-9 9-19 14-32 14s-23-5-32-14c-17-19-17-48 0-65l73-72-13-13c-25-25-38-55-38-93 0-36 13-67 38-91l175-176c25-25 55-37 91-37 38 0 68 12 92 37l14 13 71-72c17-19 45-18 65-1z"/></svg>
