<svg xmlns="http://www.w3.org/2000/svg" viewBox="0 -144 1008 1008"><path fill="currentColor" d="M868 101l87 227 3 4c3 8 4 19 4 32s-6 27-18 42-28 27-48 36-41 13-64 13-44-4-63-12-34-19-46-33-20-29-22-45l-40-264h207zM757 706V507c32 12 66 15 102 10v320c0 27-12 47-35 61-11 6-23 9-36 9H223c-19 0-36-7-50-21s-21-31-21-50V516c12 2 26 3 42 3s36-4 59-12v199h504zM502 454h3c-23 0-45-4-65-13s-36-21-48-36-18-32-18-50v-6l26-246h207l26 246v6c0 18-6 35-18 50s-28 27-48 36-42 13-65 13zM349 100l-40 265-2 1c-4 25-18 46-42 63s-53 25-87 25-64-10-89-30-38-44-38-72c0-9 1-17 4-25l87-227h207z"/></svg>
