<svg xmlns="http://www.w3.org/2000/svg" viewBox="0 0 481.58 311.34" overflow="visible"><style>.st0{fill:#a28857}</style><path class="st0" d="M91.88 78.33h142.17c4.84 0 8.77-3.93 8.77-8.77s-3.93-8.77-8.77-8.77H91.88c-4.84 0-8.77 3.93-8.77 8.77s3.92 8.77 8.77 8.77zM185.2 132.13c0-4.84-3.93-8.77-8.77-8.77H8.77c-4.84 0-8.77 3.93-8.77 8.77s3.93 8.77 8.77 8.77h167.66c4.85 0 8.77-3.92 8.77-8.77zM47.48 75.96h18.78c4.84 0 8.77-3.93 8.77-8.77s-3.93-8.77-8.77-8.77H47.48c-4.84 0-8.77 3.93-8.77 8.77s3.93 8.77 8.77 8.77zM105.89 17.55h20.31c4.84 0 8.77-3.93 8.77-8.77S131.04 0 126.2 0h-20.31c-4.84 0-8.77 3.93-8.77 8.77s3.93 8.78 8.77 8.78z"/><path class="st0" d="M472.8 142.46h-15.28l-44.3-65.84a8.786 8.786 0 0 0-7.28-3.88h-80.65V8.97c0-4.84-3.93-8.77-8.77-8.77H148.35c-4.84 0-8.77 3.93-8.77 8.77s3.93 8.77 8.77 8.77h159.39v60.54c-.4 1-.63 2.09-.63 3.24 0 1.15.23 2.23.63 3.24v165.12H170.48c-5.76-20.2-24.37-35.04-46.4-35.04-22.01 0-40.62 14.83-46.39 35.01H38.75c-4.84 0-8.77 3.93-8.77 8.77s3.93 8.77 8.77 8.77h37.29c2.19 24.59 22.9 43.94 48.05 43.94 25.14 0 45.85-19.33 48.05-43.92h141.51c.91.32 1.86.52 2.88.52 1.01 0 1.97-.21 2.88-.52h31.11c3.19 22.31 22.37 39.53 45.54 39.53 23.16 0 42.32-17.2 45.53-39.48h31.23c4.84 0 8.77-3.93 8.77-8.77V151.24c-.01-4.85-3.94-8.78-8.79-8.78zM124.08 293.8c-16.93 0-30.7-13.77-30.7-30.7s13.77-30.7 30.7-30.7 30.7 13.77 30.7 30.7-13.77 30.7-30.7 30.7zm271.96-4.39c-13.51 0-24.82-9.45-27.75-22.08-.48-2.07-.76-4.22-.76-6.44 0-9.1 4.3-17.2 10.97-22.43 4.84-3.8 10.93-6.09 17.55-6.09 11.84 0 22.01 7.25 26.31 17.55 1.41 3.38 2.2 7.08 2.2 10.97 0 2.27-.29 4.46-.8 6.58-2.99 12.56-14.27 21.94-27.72 21.94zm67.99-39.48h-23.31c-4.94-20.11-23.07-35.09-44.68-35.09-6.21 0-12.13 1.25-17.55 3.49a46.272 46.272 0 0 0-17.55 12.81 46.012 46.012 0 0 0-9.59 18.74h-26.07V90.29h75.98l35.11 52.17 9.77 14.52a8.672 8.672 0 0 0 3.55 3.03h14.34v89.92z"/><path class="st0" d="M415.16 160.01h-75.05c-4.24 0-7.68-3.44-7.68-7.68s3.44-7.68 7.68-7.68h60.77l-18.5-27.97a7.675 7.675 0 0 1 2.17-10.64c3.53-2.34 8.3-1.37 10.64 2.17l26.38 39.88c1.56 2.36 1.7 5.38.36 7.87a7.674 7.674 0 0 1-6.77 4.05z"/></svg>
