<svg xmlns="http://www.w3.org/2000/svg" viewBox="-8 -189 882 1008"><path fill="currentColor" d="M646 859V418l-4 4c0-10-2-17-8-23s-14-10-24-10-17 2-23 8-8 13-8 23v441c0 10 4 18 10 24s13 8 23 8 18-4 24-10 10-14 10-24zm-185-4V414l-4 4c0-9-2-17-8-23s-14-10-24-10-17 2-23 8-8 14-8 23v441c0 10 4 18 10 24s13 8 23 8 18-4 24-10 10-14 10-24zm-185-3V410l-4 4c0-9-2-17-8-23s-14-10-24-10-18 2-23 8c-6 6-8 14-8 23v441c0 10 4 18 10 24 5 6 13 8 23 8s18-4 24-10 10-14 10-23zm535-575v638c0 25-10 47-27 64-18 18-40 28-65 28H152c-26 0-48-10-65-28-18-17-28-39-28-64V277c0-6 2-12 6-16s10-6 16-6h708c6 0 12 2 16 6s6 10 6 16zM0 166l-8-55c0-14 4-25 14-35s22-14 35-14h221l18-37c3-8 9-14 17-18s16-6 26-6h224c10 0 18 2 26 6s14 10 18 18l17 37h221c14 0 25 4 35 14s14 21 14 35v55c0 6-2 12-6 16s-10 6-16 6H22c-6 0-12-2-16-6s-6-10-6-16z"/></svg>
