<svg xmlns="http://www.w3.org/2000/svg" viewBox="0 0 284.38 327.13"><style>.st0{fill:#a18f52}</style><path class="st0" d="M128.96 139.07c3.59-.29 8.04.45 10.65.45h15.06c6.02-9.2 12.04-18.41 18.06-27.61-12.93-7.49-28.65-10.4-45.43-6.51a61.929 61.929 0 0 0-16.26 6.29c5.97 9.12 11.94 18.25 17.92 27.38zM125.97 184.74c.6 1.04 2.67 3.94 3.55 5.69.61-.04 1.38-.03 2.19.01 2.81-.33 6.31.23 8.5.23h11.42c.91 0 1.82-.02 2.74-.02.63-3.67 5.15-8.76 6.93-11.85 1.52-2.63 3.18-7.7 5.51-9.8-.52-.93-1.05-2.12-1.24-2.44-3.71-6.42-7.42-12.85-11.13-19.27h-22.23c-.54 0-1.75.18-2.77.2-.7 3.36-4.71 7.89-6.32 10.67-1.61 2.79-3.54 8.49-6.05 10.78.49.89.93 2.01 1.2 2.47 2.57 4.44 5.13 8.89 7.7 13.33zM152.12 96.79c.03-.08.04-.15.08-.23 3.88-8.5 9.74-20.8 8.38-30.14-.88-6.07-11.18-18.33-17.74-18.52-7.17-.21-17.77 13.87-18.07 20.36-.42 8.94 5.06 20.3 8.72 28.31 0 .01 0 .01.01.02a72.1 72.1 0 0 1 4.45-.39c4.88-.27 9.6-.04 14.17.59zM122.33 143.12c-5.94-9.08-11.88-18.17-17.82-27.25-15.56 11.44-25.32 29.69-26.62 49.23h32.26c2.67-4.62 5.34-9.25 8.01-13.87 1.13-1.97 2.46-5.46 4.17-8.11zM117.87 217.3H93.36c6.74 10.28 15.41 19.22 25.58 24.77 2.35-3.5 4.69-7.01 7.04-10.51-3.01-4.48-5.48-9.51-8.11-14.26zM159.21 213.42c-2.8-4.86-5.61-9.71-8.41-14.57-2.95-.02-6.03-.41-8.88-.41-2.91 0-5.97.39-8.88.41-2.8 4.86-5.61 9.71-8.41 14.57l8.64 14.97h17.29c2.89-4.99 5.77-9.98 8.65-14.97zM173.7 165.1h32.35c-1.98-19.97-12.04-37.68-26.86-48.89-5.97 9.13-11.94 18.26-17.91 27.38l12.42 21.51zM165.97 217.3c-2.59 4.73-5.01 9.85-8.04 14.27l7.06 10.54c10.52-5.51 19.13-14.37 25.72-24.81h-24.74zM102.44 108.06c.25-.28.55-.52.87-.73-15.76-12.87-44.44-20.07-58.23.14-4.65 6.81-3.84 15.27-4.61 23.07-.07.7-.1 1.66-.16 2.7 4.32-3.38 11.03-7.33 13.16-8.54 3.08-1.74 6.13-2.96 9.6-3.86 8.22-2.14 16.42-2.19 22.47 2.92a73.36 73.36 0 0 1 16.9-15.7zM173.74 172.87c-4.04 7.4-7.7 16.1-12.97 22.4-.61.73-1.3 1.31-2.03 1.78 2.4 4.16 4.8 8.32 7.21 12.48h29.19c5.89-11.65 9.53-24.55 10.78-36.67-10.74.01-21.46.01-32.18.01z"/><path class="st0" d="M264.69 91.89L143.01 21.64c-.25-.15-.54-.22-.82-.22-.28 0-.57.07-.82.22L19.69 91.89c-.51.29-.82.84-.82 1.42v140.5c0 .58.31 1.13.82 1.42l121.68 70.25c.51.29 1.13.29 1.64 0l121.68-70.25c.51-.29.82-.84.82-1.42V93.31c0-.58-.31-1.13-.82-1.42zm-11.37 52.57c-1.07 1.51-2.54 2.14-4.39 1.79-10.64-2.03-33.68-31.93-46.27-15.48 6.41 10.64 10.39 23.07 11.31 36.3.06.32.1.66.08 1.03.02.35-.01.67-.06.97-.98 15.55-5.96 33.03-14.49 48.24.91.19 1.78.71 2.42 1.68 6.75 10.22 13.65 27.28 5.79 38.59-4.46 6.42-11.23 3.94-14.17-2.39-2.55-5.48-3.55-13.02-10.96-13.95-.58-.07-1.08-.25-1.52-.49-10.73 9.55-23.88 15.65-39.16 15.65-14.82 0-28.03-6.15-38.97-15.71-.47.28-1.01.48-1.63.55-7.7.97-8.38 8.88-11.18 14.42-3.09 6.12-9.67 8.08-13.95 1.93-7.86-11.3-.95-28.38 5.79-38.59.56-.85 1.29-1.35 2.08-1.59-7.72-13.23-12.59-28.09-13.88-41.65-1.57-16.55 2.63-32.49 10.94-45.71-12.73-14.84-35.18 14.21-45.67 16.21-1.83.35-3.31-.26-4.39-1.79-1.8-2.55-.01-4.46.48-7.07 1.14-6.09 1.19-12.08 1.94-18.21 1.12-9.28 4.27-17.18 11.94-22.87 20.97-15.56 46.83-9.18 64.83 6.74.12.1.2.22.3.32 4.75-2.34 9.79-4.17 15.08-5.41-5.22-11.38-11.89-26.49-6.57-38.18 3.44-7.54 14.5-19.73 23.79-19.65 9.52.09 20.56 12.26 23.98 20.11 5.08 11.66-1.76 26.83-6.93 38.08 4.85 1.25 9.47 3 13.81 5.2.13-.16.27-.32.44-.47 18.05-15.97 43.79-22.22 64.83-6.74 7.68 5.65 10.84 13.63 11.94 22.87.73 6.12.8 12.13 1.94 18.21.49 2.61 2.27 4.53.48 7.06z"/><path class="st0" d="M117.9 209.53l5.61-9.72c.44-.77.92-1.81 1.46-2.92a9.064 9.064 0 0 1-2.16-2.09c-4.93-6.63-8.64-14.63-12.7-21.94H77.8c.16 3.2.55 6.42 1.18 9.63 1.75 8.84 5.09 18.22 9.79 27.04h29.13zM243.91 130.54c-.75-7.78.03-16.27-4.61-23.07-13.75-20.16-42.75-12.92-58.44.04.29.22.55.47.77.75 6.37 4.38 11.98 9.8 16.66 16.01 6.09-5.62 14.54-5.63 23.02-3.43 3.46.9 6.52 2.13 9.6 3.86 2.4 1.36 8.9 5.07 13.15 8.45-.05-.98-.08-1.91-.15-2.61z"/><path class="st0" d="M282.37 80.31L144.21.54a4.03 4.03 0 0 0-4.03 0L2.02 80.31A4.028 4.028 0 0 0 0 83.8v159.53c0 1.44.77 2.77 2.02 3.49l138.16 79.77c1.25.72 2.79.72 4.03 0l138.16-79.77a4.028 4.028 0 0 0 2.02-3.49V83.8a4.07 4.07 0 0 0-2.02-3.49zm-12.08 153.51a6.43 6.43 0 0 1-3.21 5.56L145.4 309.63c-.99.57-2.1.86-3.21.86-1.11 0-2.22-.29-3.21-.86L17.3 239.38a6.43 6.43 0 0 1-3.21-5.56V93.31a6.43 6.43 0 0 1 3.21-5.56L138.98 17.5a6.453 6.453 0 0 1 6.42 0l121.68 70.25a6.442 6.442 0 0 1 3.21 5.56v140.51z"/><path class="st0" d="M196.28 241.94c1.26 1.93 2.24 4.05 3.04 6.21.25.67.9 4.17 1.7 4.55 1.93.93 2.32-7.1 2.21-8.77-.24-3.41-1.21-6.78-2.4-9.98a54.63 54.63 0 0 0-5.15-10.32c-2.56 3.89-5.37 7.57-8.42 10.96 3.67 1.35 6.66 3.75 9.02 7.35zM88.13 223.82a55.167 55.167 0 0 0-5.03 10.12c-1.19 3.19-2.17 6.57-2.4 9.98-.09 1.37.4 9.84 2.21 8.77.84-.5 1.38-3.7 1.7-4.55.8-2.16 1.77-4.29 3.04-6.21 2.38-3.6 5.37-6 9.05-7.35-3.1-3.34-5.96-6.95-8.57-10.76zM151.7 236.2c-3.05.55-6.6-.04-9.78-.04-3.29 0-6.72.56-9.7.02-2.04 3.04-4.08 6.08-6.11 9.13 7 2.53 14.58 3.44 22.62 2.2a52.44 52.44 0 0 0 9.04-2.26c-2.03-3.02-4.05-6.03-6.07-9.05z"/></svg>
