<svg xmlns="http://www.w3.org/2000/svg" viewBox="0 -144 1008 1008"><path fill="currentColor" d="M1008 0v792H468l-216 216h-36V792H0V0h1008zM252 486c50 0 90-40 90-90s-40-90-90-90-90 40-90 90 40 90 90 90zm0-144c30 0 54 24 54 54s-24 54-54 54-54-24-54-54 24-54 54-54zm252 144c50 0 90-40 90-90s-40-90-90-90-90 40-90 90 40 90 90 90zm0-144c30 0 54 24 54 54s-24 54-54 54-54-24-54-54 24-54 54-54zm252 144c50 0 90-40 90-90s-40-90-90-90-90 40-90 90 40 90 90 90zm0-144c30 0 54 24 54 54s-24 54-54 54-54-24-54-54 24-54 54-54zM972 36H36v720h216v201l201-201h519V36z"/></svg>
