<svg xmlns="http://www.w3.org/2000/svg" viewBox="0 -144 1008 1008"><path fill="currentColor" d="M1008 234v612c0 49-40 90-90 90H90c-50 0-90-41-90-90V234c0-49 40-90 90-90h828c50 0 90 41 90 90zm-72 21c0-14 3-39-18-39H90c-10 0-18 8-18 18 0 64 32 120 83 160 75 59 151 118 225 178 30 24 84 76 123 76h2c39 0 93-52 123-76 74-60 150-119 225-178 37-29 83-91 83-139zm0 591V414c-12 13-25 26-39 37-80 62-161 125-239 190-43 36-95 79-153 79h-2c-58 0-110-43-153-79-78-65-159-128-239-190-14-11-27-24-39-37v432c0 10 8 18 18 18h828c10 0 18-8 18-18z"/></svg>
