<svg xmlns="http://www.w3.org/2000/svg" viewBox="0 -144 1008 1008"><path fill="currentColor" d="M665 912c11 6 24 9 40 9s31-7 45-21 21-30 21-49-7-35-21-49-30-21-49-21-35 7-49 21-21 29-21 45 3 29 9 40 14 19 25 25zM297 76c-19 0-35 7-49 21s-21 28-21 42 2 25 6 34 9 16 15 22c14 14 30 21 49 21s35-7 49-21 21-30 21-49-7-35-21-49-30-21-49-21zm403 353c-19 0-35 7-49 21s-21 30-21 49 7 35 21 49 30 21 49 21 35-7 49-21 21-30 21-49-7-35-21-49-30-21-49-21zm-60 326l-6-5c20-13 44-19 73-19s55 12 79 36 36 53 36 86-12 62-36 86-53 36-86 36c-37 0-67-14-91-42-7-9-13-19-18-29H423c-49 0-91-17-125-51s-51-76-51-125V258c-21-10-38-25-51-45s-19-44-19-73 12-55 36-79 53-36 86-36 62 12 86 36 36 50 36 79-6 53-19 73-30 35-51 45v117c0 29 13 51 38 66 12 7 25 10 39 10h168c15-33 40-55 75-66 11-3 23-5 35-5 33 0 62 12 86 36s36 53 36 86c0 22-5 42-16 61s-26 34-45 45-40 16-63 16-44-6-64-19-35-30-45-51H427c-26 0-51-6-76-18v194c0 21 7 39 22 54s33 22 54 22h168c10-21 25-38 45-51z"/></svg>
