<svg xmlns="http://www.w3.org/2000/svg" viewBox="0 -144 1080 1008"><path fill="currentColor" d="M1074 524c0 24-11 48-26 67L882 795c-32 40-93 69-144 69H126C57 864 0 807 0 738V198C0 129 57 72 126 72h180c69 0 126 57 126 126v18h306c69 0 126 57 126 126v90h108c38 0 76 17 93 53 6 12 9 25 9 39zm-714-92h432v-90c0-30-24-54-54-54H414c-30 0-54-24-54-54v-36c0-30-24-54-54-54H126c-30 0-54 24-54 54v480l144-177c33-40 93-69 144-69zm642 92c0-16-18-20-30-20H360c-30 0-69 18-88 42L106 750c-5 6-10 14-10 22 0 16 18 20 30 20h612c30 0 69-19 88-42l166-204c5-7 10-14 10-22z"/></svg>
