<svg xmlns="http://www.w3.org/2000/svg" viewBox="0 -144 1008 1008"><path fill="currentColor" d="M530 524l5-3c-1-6-2-13-2-21s2-17 5-27 6-18 9-24 9-15 18-26 16-18 20-22 13-12 26-25 24-24 33-32 17-16 25-24 17-18 28-31c22-25 32-45 33-61l3-50c-67 36-141 54-223 54s-156-18-223-54l2 50c0 10 6 23 17 39s22 29 32 40 21 22 32 33 23 23 37 36 23 21 27 25 11 11 20 22 15 20 18 26 6 14 9 24 5 20 5 30-2 20-5 30-6 18-9 24-9 15-18 26-16 18-20 22-13 12-27 25-26 25-37 35-22 21-32 32-21 24-32 40-17 29-17 39v67c8-4 25-10 50-19s47-17 66-25 37-19 53-34 24-31 24-49c0-9 3-16 8-21s11-8 17-8 12 3 17 8 8 12 8 21c0 18 8 34 24 49s34 26 53 34 41 16 66 25 42 15 50 19v-67c0-10-6-23-17-39s-22-29-32-40-21-22-32-33l-27-27s-13-12-17-16l-15-15-15-15s-8-9-13-15-9-12-12-17-6-11-9-17-5-12-6-18zM299 118l-16 11c-5 7-4 13 2 17 25 15 57 28 95 39s79 16 123 16 86-5 125-15 71-22 95-36c12-7 7-17-15-31-24-14-56-27-95-38s-74-17-106-17c-81 0-152 15-208 54zm487-5v118c0 37-23 77-69 121-19 18-38 36-57 53s-35 34-48 51-20 33-20 47 7 30 20 47 29 34 48 51 38 35 57 53c46 44 69 84 69 121v118c0 10-8 21-23 34s-35 25-60 37-55 22-91 30-72 12-109 12-73-4-109-12-66-18-91-30-45-24-60-37-23-24-23-34V775c0-37 23-77 69-121 19-18 38-36 57-53s35-34 48-51 20-33 20-47-7-30-20-47-29-34-48-51-38-35-57-53c-46-44-69-84-69-121V113c0-10 8-21 23-34s35-25 60-37 55-22 91-30S466 0 503 0s73 4 109 12 66 18 91 30 45 24 60 37 23 24 23 34z"/></svg>
