<svg xmlns="http://www.w3.org/2000/svg" viewBox="0 -144 1008 1008"><path fill="currentColor" d="M426 796v1c29 0 68-15 116-45 27-17 52-37 76-61l-18-24c-14 11-28 20-42 27s-24 10-30 10c-9 0-10-13-3-38l42-160c8-29 10-52 6-70s-13-27-28-27-33 4-55 12c-52 19-103 50-154 92l16 26c12-8 26-16 43-23s28-11 34-11 6 11 0 34l-37 152c-17 70-7 105 34 105zm122-598l-1-1c-28 0-50 8-65 24s-23 33-23 52 5 34 16 44 26 15 46 15 36-4 49-11c26-14 39-35 39-64 0-39-20-59-61-59zM504 20l-1 3c66 0 129 13 189 39s111 60 154 103 77 94 103 154 39 119 39 178-8 113-24 162-39 93-69 133-65 75-105 105c-83 62-178 93-286 93-66 0-129-13-189-39s-111-60-154-103-77-94-103-154-39-123-39-189 13-129 39-189 60-111 103-154 94-77 154-103 123-39 189-39z"/></svg>
