<svg xmlns="http://www.w3.org/2000/svg" viewBox="0 -144 1008 1008"><path fill="currentColor" d="M471 302c136 20 238 139 238 277 0 74-30 145-82 198L477 926c-52 52-124 82-197 82C125 1008 0 883 0 728c0-147 106-222 203-319l26 26C142 521 36 595 36 728c0 135 109 244 244 244 64 0 127-26 172-71l150-150c45-45 71-108 71-172 0-120-89-224-208-242zM728 0c155 0 280 125 280 280 0 147-106 222-203 319l-26-26c87-86 193-160 193-293 0-135-109-244-244-244-64 0-127 26-172 71L406 257c-45 45-71 108-71 172 0 120 89 224 208 242l-6 35c-136-20-238-139-238-277 0-74 30-145 82-198L531 82C583 30 655 0 728 0z"/></svg>
