<svg xmlns="http://www.w3.org/2000/svg" viewBox="0 -144 1008 1008"><path fill="currentColor" d="M367 256c0 38 13 70 40 97s59 40 97 40 70-13 97-40 40-59 40-97-13-70-40-97-59-40-97-40c-25 0-48 6-69 18s-38 29-50 50-18 44-18 69zm386-4l2 1c0 45-9 93-26 144s-38 97-63 138c-52 86-97 150-137 193l-26 28C395 637 320 517 278 397c-18-52-27-100-27-145 0-69 25-128 74-177S433 1 502 1s128 25 177 74 74 108 74 177zm154 453l69 207h-3c9 26 7 49-6 68s-34 28-62 28H99c-28 0-49-9-62-28s-15-42-6-68l69-207h76l-42 202h739l-42-202h76z"/></svg>
