<svg xmlns="http://www.w3.org/2000/svg" viewBox="0 -144 1008 1008"><path fill="currentColor" d="M504 0c278 0 504 226 504 504s-226 504-504 504S0 782 0 504 226 0 504 0zm0 864c199 0 360-161 360-360S703 144 504 144 144 305 144 504s161 360 360 360zm0-414c121 0 216 53 216 144 0 72-59 131-144 153v63H432v-61c-95-20-129-78-141-115l138-44c4 13 33 40 75 40 35 0 68-18 68-36 0-24-33-36-68-36-121 0-216-53-216-144 0-72 59-131 144-153v-63h144v61c95 20 129 78 141 115l-138 44c-4-13-33-40-75-40-35 0-68 19-68 36 0 19 33 36 68 36z"/></svg>
