<svg xmlns="http://www.w3.org/2000/svg" viewBox="0 -189 1008 1008"><path fill="currentColor" d="M221 0h693c54 0 94 40 94 94v788c0 36-13 67-36 90s-54 36-90 36H126c-36 0-67-13-90-36S0 918 0 882V252c0-54 40-95 95-95h31V94c0-54 40-94 95-94zm283 409H284c-19 0-32-12-32-31V157c0-17 13-31 32-31h220c19 0 32 14 32 31v221c0 19-13 31-32 31zm-31-220H315v157h158V189zm141 31c-11 0-16-8-16-16 0-7 5-15 16-15h252c11 0 16 8 16 15 0 8-5 16-16 16H614zm268 725h-2c34 0 64-30 64-64V93c0-17-14-31-31-31H220c-19 0-32 14-32 31v756c0 21-16 32-31 32-16 0-32-11-32-32V219H94c-19 0-32 13-32 32v630c0 34 30 64 64 64h756zM612 315c-11 0-16-8-16-16s5-16 16-16h252c11 0 16 8 16 16s-5 16-16 16H612zm0 94c-11 0-16-8-16-16 0-7 5-15 16-15h252c11 0 16 8 16 15 0 8-5 16-16 16H612zm252 63c11 0 16 8 16 16s-5 16-16 16H266c-11 0-17-8-17-16s6-16 17-16h598zm0 95c11 0 16 8 16 15 0 8-5 16-16 16H266c-11 0-17-8-17-16 0-7 6-15 17-15h598zm0 94c11 0 16 5 16 16 0 8-8 16-16 16H612c-11 0-16-8-16-16s5-16 16-16h252zm-346 0c11 0 16 5 16 16 0 8-8 16-16 16H266c-11 0-17-8-17-16s6-16 17-16h252zm346 95c11 0 16 8 16 15 0 8-5 16-16 16H612c-11 0-16-8-16-16 0-7 5-15 16-15h252zm-346 0c11 0 16 8 16 15 0 8-5 16-16 16H266c-11 0-17-8-17-16 0-7 6-15 17-15h252zm346 94c11 0 16 8 16 16s-5 16-16 16H612c-11 0-16-8-16-16s5-16 16-16h252zm-346 0c11 0 16 8 16 16s-5 16-16 16H266c-11 0-17-8-17-16s6-16 17-16h252z"/></svg>
