<svg xmlns="http://www.w3.org/2000/svg" viewBox="-2 -189 1008 1008"><path fill="currentColor" d="M504 284c56 0 112 21 156 64 43 44 64 100 64 156s-21 112-64 156c-44 43-100 65-156 65s-112-22-156-65c-43-44-65-100-65-156s22-112 65-156c44-43 100-64 156-64zm0 413l-2-2c54 0 99-19 137-55 39-40 57-86 57-138s-18-97-57-136-84-57-136-57-98 18-138 57c-36 38-55 83-55 137 0 55 19 101 55 139 38 36 84 55 139 55zm-2-320v2c32 0 65 12 89 36 24 25 36 57 36 89s-12 64-36 89c-24 24-57 36-89 36-34 0-67-12-91-36s-36-57-36-91c0-32 12-65 36-89 25-24 57-36 91-36zm-67 194c38 38 97 38 135 0s38-97 0-135-97-38-135 0-38 97 0 135zm364 35h1c8-21 24-33 48-38l96-20v-86l-96-20c-24-5-40-17-48-38-4-12-8-24-13-36-11-21-9-40 3-60l56-83-61-61-83 56c-9 5-20 9-33 9-9 0-19-2-27-6-12-5-24-9-36-13-21-8-33-24-38-48l-20-96h-86l-20 96c-5 24-17 40-38 48-12 4-24 8-36 13-8 4-16 6-27 6-12 0-23-4-34-9l-83-56-61 61 56 83c13 19 14 40 3 61-7 12-10 24-14 36-8 21-24 33-48 38l-96 20v86l96 20c24 5 40 17 48 38 4 12 7 24 14 36 11 21 10 40-3 60l-56 83 61 61 83-56c11-7 22-9 34-9 9 0 19 1 27 5 12 7 24 10 36 14 21 8 33 24 38 48l20 96h86l20-96c5-24 17-40 38-48 12-4 24-7 36-14 9-4 17-5 26-5 13 0 24 2 33 9l83 56 61-61-56-83c-12-20-14-41-3-61 5-12 9-24 13-36zm60-226l97 20c29 7 51 30 51 61v86c0 31-22 54-51 61l-97 20c-4 15-8 28-15 41l53 81c17 27 14 58-9 81l-59 59c-13 13-27 20-44 20-13 0-25-4-36-12l-81-53c-13 5-26 11-41 15l-20 97c-7 29-30 51-61 51h-86c-31 0-54-20-61-51l-20-97c-15-4-28-10-41-15l-81 53c-9 8-21 12-36 12-16 0-32-7-45-20l-59-59c-23-23-26-54-9-81l53-81c-5-13-11-26-15-41l-97-20c-29-7-51-30-51-61v-86c0-31 22-54 51-61l97-20c4-15 10-28 15-41l-53-81c-17-27-14-58 9-81l59-59c13-13 29-20 45-20 15 0 27 4 36 12l81 53c13-7 26-11 41-15l20-97c7-29 30-51 61-51h86c31 0 54 22 61 51l20 97c15 4 29 8 41 15l81-53c11-8 23-12 36-12 17 0 31 7 44 20l59 59c23 23 26 54 9 81l-53 81c7 12 11 26 15 41z"/></svg>
