<svg xmlns="http://www.w3.org/2000/svg" viewBox="-3 -144 1008 1008"><path fill="currentColor" d="M885 450L327 609l2 1c-16 5-27 11-33 18s-5 13 3 18 21 7 39 7h567v78c0 8-2 13-7 16s-9 4-13 4H220c-6 0-11-2-15-6s-6-9-6-15v-83l-5-48-96-451H-3V67c0-6 2-11 6-15s9-6 15-6h161c8 0 13 2 16 7s4 9 4 13v81h706v277c0 6-2 11-6 16s-9 8-14 10zM148 852c0-28 10-52 30-72s44-30 72-30 52 10 72 30 30 44 30 72-10 52-30 72-44 30-72 30-52-10-72-30-30-44-30-72zm521 55l-4-4c-9-15-13-34-13-57s10-44 30-64 44-30 72-30 52 10 72 30 30 44 30 72-10 52-30 72-41 30-64 30-42-4-57-13-27-21-36-36z"/></svg>
