<svg xmlns="http://www.w3.org/2000/svg" viewBox="0 -202 756 1008"><path fill="currentColor" d="M378 115l1 1c106 0 195 35 267 109 75 74 111 163 111 269 0 105-36 192-111 267-74 75-163 111-268 111s-193-36-268-111C36 687 0 598 0 493c0-106 36-194 110-269 74-74 162-109 268-109zM253 494h87v-50c0-34 11-61 31-84 21-24 46-36 78-36h58v85h-58c-15 0-26 12-26 25v59h84v83h-84v208c63-8 118-36 166-84 58-58 86-127 86-207 0-83-28-151-86-209s-127-86-209-86-152 28-210 86c-56 56-85 126-85 209 0 82 29 150 85 208 48 48 104 76 167 84V577h-84v-83z"/></svg>
