<svg xmlns="http://www.w3.org/2000/svg" viewBox="0 -189 870 1008"><path fill="currentColor" d="M252 872h1c-23 0-37-20-37-43V650c0-21 8-35 23-42l164-74 65-30c-3 0-6-3-9-6h-89c-15 0-23-8-23-24v-65c0-92 30-163 82-219 27-28 56-46 91-51h8l4-2h23l2 2h8c34 5 65 23 93 52 51 54 77 126 80 218h2v65c0 16-8 24-25 24h-87l-2 2c-3 0-4 1-4 2l67 32 158 74c15 8 23 19 23 42v179c0 23-16 43-37 43H252zM31 789v-2c-16 0-30-14-30-33V614c0-16 6-26 18-31l177-81c-47-31-71-75-71-134 0-43 15-80 39-108 23-27 55-43 91-43 20 0 40 4 63 19 0 7-5 16-8 23-21 46-33 95-33 150v113l-77 35c-35 16-53 45-53 87v145H31z"/></svg>
