<svg xmlns="http://www.w3.org/2000/svg" viewBox="-2 -190 1008 1008"><path fill="currentColor" d="M429 6l-3-3c86-12 174-4 262 30 86 34 159 90 213 160s89 152 100 238 6 172-29 260c-51 131-150 226-269 277-121 51-257 56-387 5C185 921 91 823 40 704s-57-257-6-386c34-86 91-158 161-212S345 18 429 6zm-91 904v-1c113 47 224 45 337-3s192-129 238-243c46-111 44-222-6-336-47-111-127-189-241-235-113-46-224-45-337 3S138 222 92 336c-46 113-46 225 2 339 50 114 130 189 244 235zm27-729l-3 1c-88 39-148 103-184 191-4 9-13 11-20 7-8-3-13-10-9-19 39-98 105-166 200-208 11-4 20 0 23 7 3 8 2 17-7 21zm21 60v1c-72 29-121 82-152 156-4 9-12 11-19 7-7-3-12-10-8-19 32-82 85-140 167-174 9-4 17 1 21 8 3 7 2 17-9 21zm25 58v1c-58 24-97 64-118 120-4 11-13 14-20 10-8-3-13-12-9-23 25-64 69-108 133-135l2-2c8-4 15 1 19 8 3 8 2 17-7 21zm158 29l1-1c44 19 82 54 102 102s19 100 2 144c-19 46-54 84-102 104-47 20-99 19-145 0-46-17-84-51-104-99s-19-99 0-145c17-46 53-83 100-103 48-20 100-19 146-2zM453 619l-2-1c29 12 64 12 95-1 34-13 56-39 68-68 11-29 11-63-2-95s-38-55-67-67c-31-12-65-11-97 2s-55 38-67 67c-12 31-13 65 2 97 13 32 39 55 70 66zm21-176l1 2c29-12 65-5 80 34 20 36-3 66-32 79-31 13-69 8-84-31s6-71 35-84zm-4 69v-1c5 15 21 27 40 22 17-9 20-27 15-42-7-15-22-24-39-16-19 7-23 24-16 37zm262 84h-1c-25 67-69 111-133 138h-2c-8 4-15-1-18-9-4-7-2-16 7-20 58-24 97-64 118-120 4-11 13-14 21-11 7 4 12 11 8 22zm58 24v-1c-32 82-87 138-169 172-9 4-17-1-21-8s-2-17 9-21c74-31 124-82 152-154 4-11 13-13 21-10 7 4 12 11 8 22zm57 21h3c-38 96-104 165-200 205v2c-11 4-20-1-23-8-3-8-2-17 7-21 88-39 148-103 184-191 4-9 13-10 21-7 7 4 12 11 8 20z"/></svg>
