<svg xmlns="http://www.w3.org/2000/svg" viewBox="0 -144 936 1008"><path fill="currentColor" d="M289 378l-12 36c-4 10 2 18 12 18h342c10 0 20-8 24-18l12-36c3-10-3-18-13-18H312c-9 0-20 8-23 18zm46-144l-12 36c-3 10 3 18 13 18h342c9 0 20-8 23-18l12-36c4-10-2-18-12-18H359c-10 0-20 8-24 18zm587 35c14 20 18 47 10 72L777 851c-14 48-63 85-112 85H146C89 936 28 890 7 832c-9-25-9-50-1-72 1-11 3-22 4-35 0-10-5-17-4-24 2-13 14-23 23-38 17-28 36-74 42-103 3-11-2-23 0-32 3-11 14-19 20-29 15-26 35-76 37-102 1-12-4-25-1-34 4-13 17-19 25-30 13-18 36-72 39-102 1-9-4-19-3-29 2-11 16-22 25-35 24-35 28-112 100-92l-1 2c10-2 19-5 29-5h428c26 0 50 12 64 32 15 20 18 46 10 73L689 686c-26 87-41 106-112 106H88c-8 0-17 2-22 8-4 7-5 12 0 25 11 32 50 39 81 39h519c21 0 45-12 51-32l169-555c3-11 3-22 3-32 13 5 25 12 33 24z"/></svg>
