<svg xmlns="http://www.w3.org/2000/svg" viewBox="0 -144 936 1008"><path fill="currentColor" d="M922 248L464 706c-18 18-46 18-64 0L158 464c-18-18-18-46 0-64l62-62c18-18 46-18 64 0l148 148 364-364c18-18 46-18 64 0l62 62c18 18 18 46 0 64zM792 523v179c0 89-73 162-162 162H162C73 864 0 791 0 702V234C0 145 73 72 162 72h468c23 0 45 5 66 14 5 2 9 7 10 13s-1 12-5 16l-28 28c-3 3-8 5-13 5-1 0-3 0-5-1-8-2-17-3-25-3H162c-49 0-90 41-90 90v468c0 49 41 90 90 90h468c49 0 90-40 90-90V559c0-4 2-9 5-12l36-36c4-4 9-6 13-6 2 0 4 1 7 2 6 3 11 9 11 16z"/></svg>
