<svg xmlns="http://www.w3.org/2000/svg" viewBox="0 -202 756 1008"><path fill="currentColor" d="M0 493c0-106 37-194 111-268s163-110 268-110c106 0 193 36 267 110 75 74 111 162 111 268 0 105-36 192-111 267-74 75-163 111-268 111s-192-36-267-111C37 685 0 598 0 493zm672 0l-1 1c0-82-28-151-86-209-58-59-127-87-209-87s-150 28-209 87c-56 56-85 125-85 208 0 82 29 151 85 209 58 58 128 86 210 86s151-28 209-86 86-127 86-209zm-404-94l-2-1c3-8 8-13 15-14l250-73c15-4 32 11 27 26l-72 250c-1 7-6 12-14 15l-250 73h-5c-13 0-25-13-21-26zm180 166L302 420l-57 203z"/></svg>
