<svg xmlns="http://www.w3.org/2000/svg" viewBox="0 -144 1008 1008"><path fill="currentColor" d="M294 617h-30v30h-60v-30h30v-30h30v-30h60v30h-30v30zm121-30h-30v30h-30v-60h60v30zm-61 31v30h-60v-30h60zm151 0v30h-30v-30h30zm-121 30v-30h30v-30h30v-30h60v30h-30v30h-30v30h-60zm-181-60v-30h30v30h-30zM103 301h806v-50H103v50zm0 453h806V452H103v302zm-2-603h806l2-2c28 0 52 10 72 30s30 44 30 72v504c0 28-10 52-30 72s-44 30-72 30H103c-28 0-52-10-72-30S1 783 1 755V251c0-18 5-35 14-50s21-27 36-36 32-14 50-14z"/></svg>
