<svg xmlns="http://www.w3.org/2000/svg" viewBox="0 -189 520 1008"><path fill="currentColor" d="M419 244c-59 0-88-29-88-87 0-59 29-88 88-88 60 0 89 29 89 88 0 58-29 87-89 87zm-128-59c0 36-17 55-55 55-36 0-55-19-55-55 0-38 19-55 55-55 38 0 55 17 55 55zM120 313c-28 0-43-15-43-43 0-31 15-46 43-46 29 0 43 15 43 46 0 28-14 43-43 43zm349 356v1c0 29 8 54 21 77 17 21 26 45 26 74 0 70-48 118-118 118-28 0-50-7-69-22-20-16-35-35-44-59L136 600l2-2c-11-17-18-34-22-49-7-23-10-45-10-65 0-56 23-107 62-145 38-38 89-61 145-61 36 0 70 8 104 27 32 17 56 43 75 77 19 32 28 66 28 102 0 47-13 81-34 116-13 23-17 44-17 69zM87 363c0 29-15 44-44 44-28 0-43-15-43-44s15-43 43-43c29 0 44 14 44 43z"/></svg>
