<svg xmlns="http://www.w3.org/2000/svg" viewBox="-3 -189 1008 1008"><path fill="currentColor" d="M872 24l-1-1c32-32 81-31 112 0s32 80 0 112c-15 15-35 22-55 22-21 0-40-7-56-22-15-16-22-35-22-56 0-20 7-40 22-55zm24 86c16 17 43 23 66 0 21-21 15-48-1-65-17-16-44-22-65-1-23 23-17 50 0 66zm-7 165c-13-16-8-35 4-47 11-11 29-15 41 1 16 13 13 31 2 42-12 12-31 16-47 4zM501 944l1-1c9-1 17-8 24-20l147-374c-39-40-79-66-123-85-46-17-94-27-149-32-56-5-97-13-124-24L82 487c-23 9-26 36-10 51l400 396c5 7 13 10 21 10h8zm227-529l56 55c8 8 14 8 21 0l46-45c8-7 8-15 0-22L606 158c-5-5-13-5-21 0l-46 46c-5 8-5 14 0 21l56 55-268 107 81 14c39 7 66 9 93 14 27 7 52 15 88 34 35 19 69 38 98 69zM273 575l-1-1c-23-21-31-56-3-84 29-29 66-21 89 0 21 23 28 60-1 89-28 28-63 19-84-4zm64-66h-1c-12-11-31-14-47 2-13 13-9 32 3 43 11 12 29 17 44 2 16-16 12-35 1-47zm236 128c-31 29-81 30-112-1-16-16-23-35-23-56 0-20 8-40 23-55 31-32 81-31 112 0s31 80 0 112zm-36-522v-1c32-31 81-31 113 0l242 242c31 32 31 80 0 112l-43 46c-16 13-34 21-55 21-13 0-28-4-43-11L582 945c-13 32-35 51-69 56-7 3-12 2-19 2h-4c-23 0-44-9-63-28L26 580C2 556-7 525 0 496c5-29 24-56 55-68l427-171c-7-13-11-26-11-41 0-24 8-43 23-58zm14 431c-17-16-45-22-66-1-21 23-15 50 2 66 16 17 43 23 64 0 21-21 16-48 0-65zM384 744c-13-16-8-35 4-47 11-11 29-14 41 2 16 12 13 30 2 41-12 12-31 17-47 4z"/></svg>
