<svg xmlns="http://www.w3.org/2000/svg" viewBox="0 -144 1008 1008"><path fill="currentColor" d="M504 0c278 0 504 226 504 504s-226 504-504 504S0 782 0 504 226 0 504 0zm0 972c258 0 468-210 468-468S762 36 504 36 36 246 36 504s210 468 468 468zm18-485c101 6 180 68 180 143s-79 137-180 143v91h-36v-91c-122-5-165-63-179-113l34-10c16 54 65 83 145 87V521c-101-6-180-68-180-143s79-137 180-143v-91h36v91c122 5 165 63 179 113l-34 10c-16-54-65-83-145-87v216zM342 378c0 55 63 101 144 107V271c-81 6-144 52-144 107zm180 359c81-6 144-52 144-107s-63-101-144-107v214z"/></svg>
