<svg xmlns="http://www.w3.org/2000/svg" viewBox="0 -144 1008 1008"><path fill="currentColor" d="M992 261l4 3c11 15 17 30 17 46s0 30-1 42-4 27-8 44-10 30-19 39-22 16-39 22-36 7-58 4-40-6-55-10-27-8-37-12-18-10-25-17-12-13-15-18-6-13-8-23c-2-13-3-26-3-40v-25c0-43-78-64-234-64s-234 21-234 64v36s-1 12-2 21-3 16-5 21-5 11-9 18-10 12-17 16-15 8-25 13c-17 8-41 14-72 18s-55 3-72-3-30-13-39-22-15-22-19-39-7-32-8-44-1-28-1-48c0-19 12-40 36-63s57-45 98-66 94-38 159-52 128-21 189-21 115 3 161 9 87 15 123 26 69 23 99 37 55 28 74 43 34 30 45 45zM507 781c35 0 65-12 90-37s37-55 37-90-12-65-37-90-55-37-90-37-65 12-90 37-37 55-37 90 12 65 37 90 55 37 90 37zm363-163l28 173c5 31-4 58-24 81s-45 35-76 35H213c-31 0-56-12-76-35s-28-50-24-81l25-173c4-26 18-45 41-58 7-4 18-8 33-11s31-8 48-15 31-15 43-25 22-20 30-31 15-23 20-36c9-24 15-50 17-79 32-6 77-9 134-9s102 3 134 9c5 74 34 127 88 158 22 13 45 22 69 28 45 10 69 33 75 69z"/></svg>
