<svg xmlns="http://www.w3.org/2000/svg" viewBox="0 -144 1141 1008"><path fill="currentColor" d="M133 0v288H97V56l-40 47-28-23L98 0h35zm72 612v36H7v-37l9-5c56-35 146-109 146-156 0-37-30-54-58-54-36 0-52 24-62 39l-2 3-30-20 2-3c12-18 36-55 92-55 47 0 94 31 94 90 0 61-79 127-127 162h134zM99 1008c-44 0-83-20-99-52l32-16c10 19 37 32 67 32 17 0 70-3 70-45 0-24-32-45-70-45H79v-36h20c38 0 70-21 70-45 0-33-38-45-70-45-30 0-57 13-67 32L0 772c16-32 55-52 99-52 64 0 106 33 106 81 0 26-27 57-54 63 27 5 54 37 54 63 0 49-41 81-106 81zm178-144v36h864v-36H277zm864-720H277v36h864v-36zM277 504v36h864v-36H277z"/></svg>
