<svg xmlns="http://www.w3.org/2000/svg" viewBox="-1 -144 1008 1008"><path fill="currentColor" d="M304 201h605l1-50H304v50zm-77 13h2c10 0 19-4 26-11s11-16 11-26-4-19-11-26-15-11-24-11-16 2-22 5c-13 7-19 17-19 29s4 22 11 29 16 11 26 11zm-101 0c10 0 19-4 26-11s11-16 11-26-4-19-11-26-16-11-26-11-19 4-26 11-11 16-11 26 4 19 11 26 16 11 26 11zM101 50h806c28 0 52 10 72 30s30 44 30 72v605c0 28-10 52-30 72s-44 30-72 30H705V758h202V304H101v454h202v101H101c-28 0-52-10-72-30s-30-44-30-72V152c0-28 10-52 30-72s44-30 72-30zm151 605l250-242 254 242H605v302H403V655H252z"/></svg>
