<svg xmlns="http://www.w3.org/2000/svg" viewBox="0 -144 1008 1008"><path fill="currentColor" d="M684 18v108c0 10-8 18-18 18H522c-10 0-18-8-18-18V18c0-10 8-18 18-18h144c10 0 18 8 18 18zm108 288v108c0 10-8 18-18 18H522c-10 0-18-8-18-18V306c0-10 8-18 18-18h252c10 0 18 8 18 18zm108 288v108c0 10-8 18-18 18H522c-10 0-18-8-18-18V594c0-10 8-18 18-18h360c10 0 18 8 18 18zm108 288v108c0 10-8 18-18 18H522c-10 0-18-8-18-18V882c0-10 8-18 18-18h468c10 0 18 8 18 18zm-594-72c0 5-2 10-6 13l-179 180c-4 4-8 5-13 5s-9-1-13-5L23 823c-5-5-7-13-4-20 3-6 10-11 17-11h108V18c0-10 8-18 18-18h108c10 0 18 8 18 18v774h108c10 0 18 8 18 18z"/></svg>
