<svg xmlns="http://www.w3.org/2000/svg" viewBox="0 -189 1008 1008"><path fill="currentColor" d="M504 188c52 0 103-20 118-62H386c15 42 66 62 118 62zm284 190l96 63 63-189-157-126H658c-19 56-79 94-153 94s-134-38-153-94H221L63 252l63 189 95-63v504h567V378zm41-301l157 126c23 17 30 39 21 68l-63 189c-5 20-19 32-39 39-7 3-14 4-21 4-12 0-23-3-31-8v386c0 34-30 64-64 64H222c-35 0-63-30-63-64V495c-8 5-19 8-32 8-7 0-14-1-21-4-20-7-32-19-39-39L4 271c-9-29-2-51 21-68L182 77c12-9 25-14 40-14h567c15 0 29 5 40 14z"/></svg>
